#N canvas 0 96 1920 984 10;
#X obj 0 0 cnv 15 1920 1200 empty empty empty 20 12 0 14 -162280 -66577
0;
#X obj 144 1229 tgl 40 0 empty empty DSP 17 7 0 10 -262144 -1 -1 1
1;
#X msg 144 1289 \; pd dsp \$1;
#X obj 173 1179 loadbang;
#X msg 144 1195 1;
#N canvas 0 96 1920 984 mainGui 0;
#X obj 1529 108 hradio 40 1 0 8 empty empty Pttrn -75 16 0 20 -228856
-1 -1 0;
#X obj 101 101 seq/clock;
#X obj 1875 113 bng 40 250 50 0 empty 20 save 6 19 0 12 -228856 -1
-1;
#X obj 168 52 int;
#X obj 186 26 + 0;
#X obj 448 15 tgl 40 0 eDrumIn? empty eD 5 20 0 25 -228856 -1 -1 0
1;
#X obj 1142 105 hradio 40 1 0 8 empty empty Song -60 16 0 20 -228856
-1 -1 0;
#X obj 19 -72 pack f f;
#X obj 40 -97 t b f;
#X obj 102 -55 unpack f f;
#X obj 102 -18 pack f f f;
#X msg 71 74 writeSeq \$2 \$3;
#X msg 16 41 readSeq \$1 \$2;
#X obj 307 101 bng 40 250 50 0 empty 20 Rst 10 19 0 12 -228856 -1 -1
;
#X msg 330 197 rst;
#X obj 760 -107 r advance;
#X obj 615 -123 loadbang;
#X obj 615 -64 t b b;
#X obj 595 -89 bng 15 250 50 0 empty empty empty 17 7 0 10 -262144
-1 -1;
#X msg 615 -29 0;
#X msg 647 -29 0;
#X obj 1875 154 nbx 2 40 -1e+37 1e+37 0 0 empty empty empty 0 -8 0
20 -228856 -1 -1 1 256;
#X obj 615 -91 delay 1500;
#X obj 288 -63 tgl 40 0 recMidi empty R 15 20 0 25 -228856 -1 -1 0
1;
#N canvas -86 166 1041 596 midiout 0;
#X msg 108 212 248;
#X msg 140 220 250;
#X obj 220 162 int;
#X obj 256 179 + 1;
#X obj 218 90 t b b;
#X msg 220 113 1;
#X msg 293 109 0;
#X obj 220 206 sel 1;
#X msg 221 251 252;
#X obj 220 139 metro 250;
#X obj 108 -42 r clock;
#X obj 108 73 t f f b;
#X obj 108 114 sel 0;
#X obj 108 170 t b b;
#X obj 129 -14 / 2;
#X obj 129 12 int;
#X obj 129 39 change;
#X obj 425 211 r notes;
#X obj 421 398 unpack 0 0 0;
#X obj 468 -36 r channel1-1;
#X obj 561 -27 r channel1-2;
#X obj 575 -3 r channel1-3;
#X obj 535 71 unpack;
#X obj 421 454 noteout 16;
#X obj 574 178 * 127;
#X obj 574 109 clip 0 1;
#X obj 574 133 t f b;
#X obj 682 163 r netCC;
#X obj 691 288 ctlout;
#X obj 683 196 unpack f f f;
#X msg 716 256 1;
#X msg 753 255 16;
#X obj 683 223 t f b b;
#X obj 574 228 clip 0 127;
#X floatatom 668 248 5 0 0 0 - - -;
#X obj 575 201 sel 0;
#X obj 418 114 unpack f f f;
#X floatatom 409 187 5 0 0 0 - - -;
#X obj 418 85 r netNote;
#X obj 421 248 int;
#X obj 422 350 pack;
#X obj 418 161 moses 45;
#X obj 574 264 t b b f;
#X obj 421 273 t f b;
#X obj 478 350 pack f 0;
#X obj 462 311 int;
#X obj 139 339 midiout 2;
#X obj 75 340 midiout;
#X obj 108 285 t f f f;
#X obj 213 337 midiout 3;
#X connect 0 0 48 0;
#X connect 1 0 48 0;
#X connect 2 0 3 0;
#X connect 2 0 7 0;
#X connect 3 0 2 1;
#X connect 4 0 5 0;
#X connect 4 1 6 0;
#X connect 5 0 9 0;
#X connect 6 0 2 1;
#X connect 7 0 8 0;
#X connect 8 0 48 0;
#X connect 9 0 2 0;
#X connect 10 0 11 0;
#X connect 11 0 12 0;
#X connect 11 2 4 0;
#X connect 12 0 13 0;
#X connect 12 1 0 0;
#X connect 13 0 0 0;
#X connect 13 1 1 0;
#X connect 14 0 15 0;
#X connect 15 0 16 0;
#X connect 18 0 23 0;
#X connect 18 1 23 1;
#X connect 19 0 22 0;
#X connect 20 0 22 0;
#X connect 21 0 22 0;
#X connect 24 0 35 0;
#X connect 25 0 26 0;
#X connect 26 0 24 0;
#X connect 29 0 32 0;
#X connect 30 0 28 1;
#X connect 31 0 28 2;
#X connect 32 0 28 0;
#X connect 32 0 34 0;
#X connect 32 0 33 1;
#X connect 32 1 30 0;
#X connect 32 2 31 0;
#X connect 33 0 42 0;
#X connect 35 1 33 0;
#X connect 36 0 37 0;
#X connect 36 0 41 0;
#X connect 39 0 43 0;
#X connect 40 0 18 0;
#X connect 41 1 39 1;
#X connect 42 1 39 0;
#X connect 42 2 40 1;
#X connect 43 0 40 0;
#X connect 43 0 45 1;
#X connect 43 1 45 0;
#X connect 44 0 18 0;
#X connect 45 0 44 0;
#X connect 48 0 47 0;
#X connect 48 1 46 0;
#X connect 48 2 49 0;
#X restore 748 242 pd midiout;
#X obj 520 246 r ch1-1;
#N canvas 0 96 1024 672 midiInOut 0;
#X obj 20 314 r channel1-1;
#X obj 20 351 unpack;
#X obj 80 402 * 127;
#X obj 53 376 moses;
#X obj 80 431 int;
#X obj 80 457 t b f;
#X obj 171 350 unpack;
#X obj 231 401 * 127;
#X obj 204 375 moses;
#X obj 231 430 int;
#X obj 231 456 t b f;
#X obj 322 349 unpack;
#X obj 382 400 * 127;
#X obj 355 374 moses;
#X obj 382 429 int;
#X obj 382 455 t b f;
#X obj 171 314 r channel1-2;
#X obj 322 312 r channel1-3;
#X obj 404 80 ctlin;
#X obj 404 167 ctlout;
#X obj 229 84 notein;
#X obj 229 168 noteout;
#X obj 80 515 noteout 1;
#X obj 231 514 noteout 2;
#X obj 382 513 noteout 3;
#X obj 112 543 ctlout 7 1;
#X obj 265 543 ctlout 7 2;
#X obj 414 544 ctlout 7 3;
#X obj 457 350 unpack;
#X obj 517 401 * 127;
#X obj 490 375 moses;
#X obj 517 430 int;
#X obj 517 456 t b f;
#X obj 608 349 unpack;
#X obj 668 400 * 127;
#X obj 641 374 moses;
#X obj 668 429 int;
#X obj 668 455 t b f;
#X obj 759 348 unpack;
#X obj 819 399 * 127;
#X obj 792 373 moses;
#X obj 819 428 int;
#X obj 819 454 t b f;
#X obj 924 295 unpack;
#X obj 984 369 * 127;
#X obj 957 320 moses;
#X obj 984 398 int;
#X obj 984 453 t b f;
#X obj 457 313 r channel1-4;
#X obj 608 313 r channel1-5;
#X obj 759 311 r channel1-6;
#X obj 924 258 r channel1-7;
#X obj 549 542 ctlout 7 4;
#X obj 517 514 noteout 4;
#X obj 668 513 noteout 5;
#X obj 819 512 noteout 6;
#X obj 702 542 ctlout 7 5;
#X obj 851 543 ctlout 7 6;
#X obj 984 555 pack;
#X obj 984 638 s nNeutron;
#X msg 949 370 0;
#X obj 1044 460 r ghRoot;
#X obj 984 497 int;
#X obj 1014 610 pack f 0;
#X obj 1012 584 int;
#X obj 984 524 t f f b;
#X obj 1042 501 r clock;
#X obj 1042 539 sel 0;
#X obj 1051 570 delay 100;
#X obj 863 438 change;
#X obj 864 464 ctlout 1 16;
#X msg 80 485 60;
#X msg 231 484 60;
#X msg 517 484 60;
#X msg 668 483 60;
#X msg 819 482 60;
#X msg 382 483 65;
#X connect 0 0 1 0;
#X connect 1 1 3 0;
#X connect 2 0 4 0;
#X connect 3 1 2 0;
#X connect 4 0 5 0;
#X connect 5 0 71 0;
#X connect 5 1 22 1;
#X connect 6 1 8 0;
#X connect 7 0 9 0;
#X connect 8 1 7 0;
#X connect 9 0 10 0;
#X connect 10 0 72 0;
#X connect 10 1 23 1;
#X connect 11 1 13 0;
#X connect 12 0 14 0;
#X connect 13 1 12 0;
#X connect 14 0 15 0;
#X connect 15 0 76 0;
#X connect 15 1 24 1;
#X connect 16 0 6 0;
#X connect 17 0 11 0;
#X connect 18 0 19 0;
#X connect 18 1 19 1;
#X connect 18 2 19 2;
#X connect 20 0 21 0;
#X connect 20 1 21 1;
#X connect 20 2 21 2;
#X connect 28 1 30 0;
#X connect 29 0 31 0;
#X connect 30 1 29 0;
#X connect 31 0 32 0;
#X connect 32 0 73 0;
#X connect 32 1 53 1;
#X connect 33 1 35 0;
#X connect 34 0 36 0;
#X connect 35 1 34 0;
#X connect 36 0 37 0;
#X connect 37 0 74 0;
#X connect 37 1 54 1;
#X connect 38 1 40 0;
#X connect 39 0 41 0;
#X connect 40 1 39 0;
#X connect 41 0 69 0;
#X connect 42 0 75 0;
#X connect 42 1 55 1;
#X connect 43 1 45 0;
#X connect 44 0 46 0;
#X connect 45 0 60 0;
#X connect 45 1 44 0;
#X connect 46 0 47 0;
#X connect 47 0 62 0;
#X connect 47 1 58 1;
#X connect 48 0 28 0;
#X connect 49 0 33 0;
#X connect 50 0 38 0;
#X connect 51 0 43 0;
#X connect 58 0 59 0;
#X connect 60 0 46 0;
#X connect 61 0 62 1;
#X connect 62 0 65 0;
#X connect 63 0 59 0;
#X connect 64 0 63 0;
#X connect 65 0 58 0;
#X connect 65 1 64 1;
#X connect 65 2 64 0;
#X connect 66 0 67 0;
#X connect 67 0 68 0;
#X connect 68 0 64 0;
#X connect 69 0 70 0;
#X connect 71 0 22 0;
#X connect 72 0 23 0;
#X connect 73 0 53 0;
#X connect 74 0 54 0;
#X connect 75 0 55 0;
#X connect 76 0 24 0;
#X restore 741 220 pd midiInOut;
#N canvas 0 50 1920 988 2net 0;
#X obj 589 281 r channel1-1;
#X obj 588 318 unpack;
#X obj 645 351 change;
#X obj 630 470 v str1N;
#X msg 630 576 note \$1 \$2;
#X obj 630 617 s toAll;
#X obj 630 537 pack f 127;
#X obj 540 540 pack f 0;
#X obj 630 432 sel 1;
#X obj 818 313 unpack;
#X obj 875 346 change;
#X msg 860 571 note \$1 \$2;
#X obj 860 612 s toAll;
#X obj 860 532 pack f 127;
#X obj 770 535 pack f 0;
#X obj 860 427 sel 1;
#X obj 819 276 r channel1-2;
#X obj 860 465 v str2N;
#X obj 1041 311 unpack;
#X obj 1098 344 change;
#X msg 1083 569 note \$1 \$2;
#X obj 1083 610 s toAll;
#X obj 1083 530 pack f 127;
#X obj 993 533 pack f 0;
#X obj 1083 425 sel 1;
#X obj 1042 274 r channel1-3;
#X obj 1083 463 v str3N;
#X obj 630 394 >= 0;
#X obj 860 389 >= 0;
#X obj 1083 387 >= 0;
#X obj 540 494 pipe 30;
#X obj 770 489 pipe 30;
#X obj 993 487 pipe 30;
#X connect 1 1 2 0;
#X connect 2 0 27 0;
#X connect 3 0 6 0;
#X connect 3 0 30 0;
#X connect 4 0 5 0;
#X connect 6 0 4 0;
#X connect 7 0 4 0;
#X connect 8 0 3 0;
#X connect 9 1 10 0;
#X connect 10 0 28 0;
#X connect 11 0 12 0;
#X connect 13 0 11 0;
#X connect 14 0 11 0;
#X connect 15 0 17 0;
#X connect 17 0 13 0;
#X connect 17 0 31 0;
#X connect 18 1 19 0;
#X connect 19 0 29 0;
#X connect 20 0 21 0;
#X connect 22 0 20 0;
#X connect 23 0 20 0;
#X connect 24 0 26 0;
#X connect 26 0 22 0;
#X connect 26 0 32 0;
#X connect 27 0 8 0;
#X connect 28 0 15 0;
#X connect 29 0 24 0;
#X connect 30 0 7 0;
#X connect 31 0 14 0;
#X connect 32 0 23 0;
#X restore 876 237 pd 2net;
#X obj 567 337 input/keyboard;
#N canvas 2 217 1041 701 keboardCtl 0;
#X obj 36 31 r ctlInput;
#X obj 36 59 route buttons;
#X msg 36 219 play \$1;
#X obj 36 90 route 9;
#X obj 36 257 s chn-1-1;
#X obj 36 145 tgl 15 0 empty empty empty 17 7 0 10 -262144 -1 -1 1
1;
#X obj 84 114 r chn-1-1;
#X obj 84 140 route play;
#X obj 36 116 sel 1;
#X obj 189 27 r ctlInput;
#X obj 189 55 route buttons;
#X msg 189 215 play \$1;
#X obj 189 141 tgl 15 0 empty empty empty 17 7 0 10 -262144 -1 -1 0
1;
#X obj 237 136 route play;
#X obj 189 112 sel 1;
#X obj 348 26 r ctlInput;
#X obj 348 54 route buttons;
#X msg 348 214 play \$1;
#X obj 348 140 tgl 15 0 empty empty empty 17 7 0 10 -262144 -1 -1 1
1;
#X obj 396 135 route play;
#X obj 348 111 sel 1;
#X obj 501 22 r ctlInput;
#X obj 501 50 route buttons;
#X msg 501 210 play \$1;
#X obj 501 136 tgl 15 0 empty empty empty 17 7 0 10 -262144 -1 -1 0
1;
#X obj 549 131 route play;
#X obj 501 107 sel 1;
#X obj 35 337 r ctlInput;
#X obj 35 365 route buttons;
#X msg 35 517 play \$1;
#X obj 35 451 tgl 15 0 empty empty empty 17 7 0 10 -262144 -1 -1 0
1;
#X obj 83 446 route play;
#X obj 35 422 sel 1;
#X obj 188 333 r ctlInput;
#X obj 188 361 route buttons;
#X msg 188 513 play \$1;
#X obj 188 447 tgl 15 0 empty empty empty 17 7 0 10 -262144 -1 -1 0
1;
#X obj 236 442 route play;
#X obj 188 418 sel 1;
#X obj 357 330 r ctlInput;
#X obj 357 358 route buttons;
#X msg 357 510 play \$1;
#X obj 357 444 tgl 15 0 empty empty empty 17 7 0 10 -262144 -1 -1 0
1;
#X obj 405 439 route play;
#X obj 357 415 sel 1;
#X obj 189 86 route 10;
#X obj 237 110 r chn-1-2;
#X obj 189 253 s chn-1-2;
#X obj 348 85 route 11;
#X obj 396 109 r chn-1-3;
#X obj 348 252 s chn-1-3;
#X obj 501 81 route 12;
#X obj 549 105 r chn-1-4;
#X obj 501 248 s chn-1-4;
#X obj 35 396 route 13;
#X obj 83 420 r chn-1-5;
#X obj 35 555 s chn-1-5;
#X obj 188 392 route 14;
#X obj 236 416 r chn-1-6;
#X obj 188 551 s chn-1-6;
#X obj 405 413 r chn-1-7;
#X obj 357 548 s chn-1-7;
#X obj 357 389 route 15;
#X obj 36 180 change;
#X obj 189 181 change;
#X obj 348 180 change;
#X obj 501 174 change;
#X obj 35 484 change;
#X obj 188 481 change;
#X obj 357 479 change;
#X connect 0 0 1 0;
#X connect 1 0 3 0;
#X connect 2 0 4 0;
#X connect 3 0 8 0;
#X connect 5 0 63 0;
#X connect 6 0 7 0;
#X connect 7 0 5 0;
#X connect 8 0 5 0;
#X connect 9 0 10 0;
#X connect 10 0 45 0;
#X connect 11 0 47 0;
#X connect 12 0 64 0;
#X connect 13 0 12 0;
#X connect 14 0 12 0;
#X connect 15 0 16 0;
#X connect 16 0 48 0;
#X connect 17 0 50 0;
#X connect 18 0 65 0;
#X connect 19 0 18 0;
#X connect 20 0 18 0;
#X connect 21 0 22 0;
#X connect 22 0 51 0;
#X connect 23 0 53 0;
#X connect 24 0 66 0;
#X connect 25 0 24 0;
#X connect 26 0 24 0;
#X connect 27 0 28 0;
#X connect 28 0 54 0;
#X connect 29 0 56 0;
#X connect 30 0 67 0;
#X connect 31 0 30 0;
#X connect 32 0 30 0;
#X connect 33 0 34 0;
#X connect 34 0 57 0;
#X connect 35 0 59 0;
#X connect 36 0 68 0;
#X connect 37 0 36 0;
#X connect 38 0 36 0;
#X connect 39 0 40 0;
#X connect 40 0 62 0;
#X connect 41 0 61 0;
#X connect 42 0 69 0;
#X connect 43 0 42 0;
#X connect 44 0 42 0;
#X connect 45 0 14 0;
#X connect 46 0 13 0;
#X connect 48 0 20 0;
#X connect 49 0 19 0;
#X connect 51 0 26 0;
#X connect 52 0 25 0;
#X connect 54 0 32 0;
#X connect 55 0 31 0;
#X connect 57 0 38 0;
#X connect 58 0 37 0;
#X connect 60 0 43 0;
#X connect 62 0 44 0;
#X connect 63 0 2 0;
#X connect 64 0 11 0;
#X connect 65 0 17 0;
#X connect 66 0 23 0;
#X connect 67 0 29 0;
#X connect 68 0 35 0;
#X connect 69 0 41 0;
#X restore 227 433 pd keboardCtl;
#N canvas 2 119 1017 692 footbuttons 0;
#X msg 70 -4 devices;
#X obj 123 114 sel 250;
#X obj 162 139 moses 2;
#X obj 201 159 - 200;
#X obj 126 251 pack;
#X obj 147 204 int;
#X obj 201 188 t b f;
#X obj 126 408 unpack;
#X obj 126 442 + 48;
#X obj 165 442 * 127;
#X obj 126 475 pack;
#N canvas 2 95 657 690 footlights 0;
#X obj 150 25 inlet;
#X obj 150 181 s 2foot;
#X obj 150 53 unpack;
#X obj 189 96 * 16;
#X obj 150 135 -;
#X obj 150 97 + 16;
#X connect 0 0 2 0;
#X connect 2 0 5 0;
#X connect 2 1 3 0;
#X connect 3 0 4 1;
#X connect 4 0 1 0;
#X connect 5 0 4 0;
#X restore 245 416 pd footlights;
#X obj 207 49 r 2foot;
#X obj 126 516 noteout 16;
#N canvas 2 95 569 577 lastNote 0;
#X obj 166 12 inlet;
#X obj 189 220 outlet;
#X obj 166 83 unpack;
#X obj 189 164 pack f 1;
#X obj 166 127 t f f b;
#X obj 99 177 pack f 0;
#X obj 99 144 int;
#X connect 0 0 2 0;
#X connect 2 0 4 0;
#X connect 3 0 1 0;
#X connect 4 0 6 1;
#X connect 4 1 3 0;
#X connect 4 2 6 0;
#X connect 5 0 1 0;
#X connect 6 0 5 0;
#X restore 245 383 pd lastNote;
#X obj 365 399 unpack;
#X obj 365 433 + 48;
#X obj 398 443 * 127;
#X obj 365 466 pack;
#X obj 365 495 noteout 17;
#X obj 143 -3 loadbang;
#X obj 174 410 s footNote;
#X obj 618 83 unpack;
#X obj 498 113 +;
#X obj 530 79 t b f;
#X obj 586 239 int;
#X obj 518 295 pack;
#X obj 618 119 t f b;
#X obj 577 269 pack f 0;
#X obj 618 41 r footNote;
#X obj 585 212 spigot;
#X msg 629 166 1;
#X obj 498 153 t b f f b;
#X msg 498 182 0;
#X obj 518 348 pack;
#X obj 776 231 noteout 16;
#X obj 518 518 noteout 17;
#X floatatom 645 482 5 0 0 0 - - -;
#X floatatom 645 294 5 0 0 0 - - -;
#X msg 718 335 0 2 4 5 7 9 11;
#X msg 718 356 0 2 3 5 7 8 10;
#X msg 718 377 0 4 7;
#X msg 718 398 0 3 7;
#X floatatom 685 315 5 0 11 0 - - -;
#X text 685 293 Input;
#X text 725 314 Root;
#X text 695 482 Output;
#X msg 718 419 0 2 4 7 9;
#X obj 518 424 mscale;
#X obj 518 390 unpack;
#X obj 518 457 pack;
#X obj 732 274 loadbang;
#X msg 115 37 open 1;
#X obj 126 296 moses 12;
#X obj 126 273 unpack;
#X obj 126 354 pack;
#X obj 171 355 pack;
#X obj 171 380 s footCtl;
#X obj 300 209 r footCtl;
#X obj 171 323 - 12;
#X obj 300 239 route 0 1 2 3;
#X msg 367 308 1;
#X obj 337 339 s advance;
#X obj 337 282 sel 0;
#X obj 367 261 sel 0;
#X msg 337 308 -1;
#X obj 123 78 comport 2 115200;
#X obj 498 48 unpack;
#X obj 498 19 r nNeutron;
#X msg 718 440 0 1 2 3 4 5 6 7 8 9 10 11;
#X obj 867 78 unpack;
#X obj 747 108 +;
#X obj 765 81 t b f;
#X obj 867 114 t f b;
#X obj 867 36 r footNote;
#X obj 747 43 unpack;
#X obj 747 14 r nNeutron;
#X obj 776 203 pack;
#X obj 747 142 makenote 100 20;
#X obj 518 489 noteout 16;
#X floatatom 721 214 5 0 0 0 - - -;
#X connect 0 0 66 0;
#X connect 1 1 2 0;
#X connect 2 0 5 1;
#X connect 2 1 3 0;
#X connect 3 0 6 0;
#X connect 4 0 54 0;
#X connect 5 0 4 1;
#X connect 6 0 5 0;
#X connect 6 1 4 0;
#X connect 7 0 8 0;
#X connect 7 1 9 0;
#X connect 8 0 10 0;
#X connect 9 0 10 1;
#X connect 12 0 66 0;
#X connect 14 0 11 0;
#X connect 14 0 15 0;
#X connect 15 0 16 0;
#X connect 15 1 17 0;
#X connect 16 0 18 0;
#X connect 17 0 18 1;
#X connect 20 0 52 0;
#X connect 22 0 27 0;
#X connect 23 0 32 0;
#X connect 24 1 23 1;
#X connect 25 0 28 0;
#X connect 26 0 34 0;
#X connect 27 0 24 0;
#X connect 27 1 31 0;
#X connect 28 0 34 0;
#X connect 29 0 22 0;
#X connect 30 0 25 0;
#X connect 31 0 30 1;
#X connect 32 0 33 0;
#X connect 32 1 26 0;
#X connect 32 2 25 1;
#X connect 32 3 30 0;
#X connect 33 0 30 1;
#X connect 34 0 49 0;
#X connect 38 0 48 0;
#X connect 39 0 48 2;
#X connect 40 0 48 2;
#X connect 41 0 48 2;
#X connect 42 0 48 2;
#X connect 43 0 48 1;
#X connect 47 0 48 2;
#X connect 48 0 37 0;
#X connect 48 0 50 0;
#X connect 49 0 48 0;
#X connect 49 1 50 1;
#X connect 50 0 79 0;
#X connect 51 0 69 0;
#X connect 52 0 66 0;
#X connect 53 0 55 0;
#X connect 53 1 59 0;
#X connect 54 0 53 0;
#X connect 54 1 55 1;
#X connect 54 1 56 1;
#X connect 55 0 14 0;
#X connect 55 0 21 0;
#X connect 55 0 7 0;
#X connect 56 0 57 0;
#X connect 58 0 60 0;
#X connect 59 0 56 0;
#X connect 60 2 63 0;
#X connect 60 3 64 0;
#X connect 61 0 62 0;
#X connect 63 0 65 0;
#X connect 64 0 61 0;
#X connect 65 0 62 0;
#X connect 66 0 1 0;
#X connect 67 0 23 0;
#X connect 67 1 26 1;
#X connect 68 0 67 0;
#X connect 69 0 48 2;
#X connect 70 0 73 0;
#X connect 71 0 78 0;
#X connect 72 0 71 0;
#X connect 72 1 71 1;
#X connect 73 0 72 0;
#X connect 74 0 70 0;
#X connect 75 0 71 0;
#X connect 75 1 78 1;
#X connect 76 0 75 0;
#X connect 78 0 77 0;
#X connect 78 0 80 0;
#X connect 78 1 77 1;
#X restore 241 311 pd footbuttons;
#X obj 663 231 v pattern;
#X obj 805 -53 v pattern;
#X obj 778 -76 t f b;
#X obj 778 -37 +;
#X obj 115 26 print;
#X obj 657 200 + 1;
#X obj 778 -3 - 1;
#X obj 1103 138 + 1;
#X obj 1880 214 - 0;
#X obj 1879 83 + 0;
#X obj 401 100 seq/gui 1 0 60;
#X connect 0 0 36 0;
#X connect 2 0 10 0;
#X connect 3 0 11 0;
#X connect 4 0 3 1;
#X connect 6 0 38 0;
#X connect 7 0 9 0;
#X connect 7 0 12 0;
#X connect 8 0 7 0;
#X connect 8 1 7 1;
#X connect 9 0 10 1;
#X connect 9 1 40 0;
#X connect 10 0 11 0;
#X connect 10 0 35 0;
#X connect 11 0 41 0;
#X connect 12 0 41 0;
#X connect 13 0 14 0;
#X connect 14 0 41 0;
#X connect 15 0 33 0;
#X connect 16 0 22 0;
#X connect 17 0 19 0;
#X connect 17 1 20 0;
#X connect 18 0 17 0;
#X connect 19 0 0 0;
#X connect 20 0 6 0;
#X connect 21 0 39 0;
#X connect 22 0 17 0;
#X connect 32 0 34 1;
#X connect 33 0 34 0;
#X connect 33 1 32 0;
#X connect 34 0 37 0;
#X connect 36 0 31 0;
#X connect 36 0 8 0;
#X connect 37 0 0 0;
#X connect 38 0 7 0;
#X connect 39 0 10 2;
#X connect 40 0 21 0;
#X coords 0 -1 1 1 1850 60 2 100 100;
#X restore 24 17 pd mainGui;
#N canvas 2 165 1009 507 net 0;
#X msg -2 35 disconnect;
#X obj 225 98 s oscClock;
#X obj 352 -47 r channel1-3;
#X obj 453 -46 r channel1-4;
#X obj 565 -46 r channel1-5;
#X obj 403 26 r channel1-1;
#X obj 89 32 loadbang;
#X obj 466 280 loadbang;
#X obj 324 327 netsend -u;
#X obj 89 98 netreceive -u;
#X obj 324 290 list trim;
#X obj 324 259 list prepend send;
#X msg 466 310 connect 192.168.1.255 8000;
#X obj 403 104 list trim;
#X obj 403 70 list prepend channel1-1;
#X obj 403 137 s toAll;
#X obj 324 199 r toAll;
#X msg 598 67 clock \$1;
#X obj 598 108 s toAll;
#X obj 598 39 r 2extclock;
#X obj 225 56 netreceive -u 8099;
#X obj 219 179 s advance;
#X obj 324 230 list prepend gharp;
#X obj 89 335 s netNote;
#X obj 121 254 unpack f f f;
#X obj 89 307 spigot;
#X obj 89 229 t a a;
#X obj 162 288 == 2;
#X obj 812 283 loadbang;
#X obj 670 330 netsend -u;
#X obj 670 293 list trim;
#X obj 670 262 list prepend send;
#X msg 812 313 connect 192.168.1.255 8099;
#X msg 841 237 disconnect;
#X obj 670 201 r clock;
#X msg 89 70 listen 8000;
#X obj 89 146 route gharp advance;
#N canvas 490 98 494 662 findRoot 0;
#X obj 71 -4 inlet;
#X obj 98 49 unpack f f f;
#X obj 133 99 > 0;
#X obj 181 108 == 1;
#X obj 225 110 == 2;
#X obj 272 110 == 3;
#X obj 148 161 spigot;
#X obj 216 163 spigot;
#X obj 275 161 spigot;
#X obj 148 196 spigot;
#X obj 216 198 spigot;
#X obj 275 196 spigot;
#X floatatom 154 286 5 0 0 0 - - -;
#X floatatom 213 290 5 0 0 0 - - -;
#X floatatom 286 288 5 0 0 0 - - -;
#X obj 157 523 -;
#X obj 170 495 t b f;
#X floatatom 158 588 5 0 0 0 - - -;
#X obj 237 524 -;
#X obj 250 496 t b f;
#X floatatom 236 589 5 0 0 0 - - -;
#X obj 156 555 abs;
#X obj 237 549 abs;
#X obj 379 297 v ghStr1N;
#X obj 392 320 v ghStr2N;
#X obj 406 344 v ghStr3N;
#X obj 143 682 v ghStr1N;
#X obj 210 682 v ghStr2N;
#X obj 278 682 v ghStr3N;
#X obj 315 528 -;
#X obj 328 500 t b f;
#X obj 315 553 abs;
#X floatatom 317 590 5 0 0 0 - - -;
#X obj 221 724 t f;
#X obj 210 644 sel 5;
#X obj 317 631 sel 7;
#X obj 271 642 sel 5;
#X obj 291 224 t f f;
#X obj 221 230 t f f;
#X obj 142 235 t f f;
#X obj 138 430 v ghStr1N;
#X obj 205 430 v ghStr2N;
#X obj 273 430 v ghStr3N;
#X obj 138 390 t b b b;
#X obj 296 747 s ghRoot;
#X obj 92 741 print;
#X obj 71 21 t b b a;
#X obj 201 753 int;
#X obj 20 200 int;
#X obj 52 217 + 1;
#X msg 16 125 1;
#X obj 31 93 t b b;
#X msg 58 124 0;
#X obj 21 298 t b b;
#X msg 66 297 0;
#X obj 21 152 metro 1;
#X obj 21 262 sel 5;
#X connect 0 0 46 0;
#X connect 1 0 6 0;
#X connect 1 0 7 0;
#X connect 1 0 8 0;
#X connect 1 1 2 0;
#X connect 1 2 3 0;
#X connect 1 2 4 0;
#X connect 1 2 5 0;
#X connect 2 0 9 1;
#X connect 2 0 10 1;
#X connect 2 0 11 1;
#X connect 3 0 6 1;
#X connect 4 0 7 1;
#X connect 5 0 8 1;
#X connect 6 0 9 0;
#X connect 7 0 10 0;
#X connect 8 0 11 0;
#X connect 9 0 12 0;
#X connect 9 0 39 0;
#X connect 10 0 13 0;
#X connect 10 0 38 0;
#X connect 11 0 14 0;
#X connect 11 0 37 0;
#X connect 15 0 21 0;
#X connect 16 0 15 0;
#X connect 16 1 15 1;
#X connect 18 0 22 0;
#X connect 19 0 18 0;
#X connect 19 1 18 1;
#X connect 21 0 17 0;
#X connect 21 0 34 0;
#X connect 22 0 20 0;
#X connect 22 0 36 0;
#X connect 26 0 33 0;
#X connect 27 0 33 0;
#X connect 28 0 33 0;
#X connect 29 0 31 0;
#X connect 30 0 29 0;
#X connect 30 1 29 1;
#X connect 31 0 32 0;
#X connect 32 0 35 0;
#X connect 33 0 47 1;
#X connect 34 0 27 0;
#X connect 35 0 26 0;
#X connect 36 0 28 0;
#X connect 37 1 25 0;
#X connect 38 1 24 0;
#X connect 39 1 23 0;
#X connect 40 0 15 0;
#X connect 40 0 29 0;
#X connect 41 0 16 0;
#X connect 41 0 18 0;
#X connect 42 0 19 0;
#X connect 42 0 30 0;
#X connect 43 0 40 0;
#X connect 43 1 41 0;
#X connect 43 2 42 0;
#X connect 46 0 51 0;
#X connect 46 1 43 0;
#X connect 46 2 1 0;
#X connect 47 0 45 0;
#X connect 47 0 44 0;
#X connect 48 0 49 0;
#X connect 48 0 56 0;
#X connect 49 0 48 1;
#X connect 50 0 55 0;
#X connect 51 0 50 0;
#X connect 51 1 52 0;
#X connect 52 0 48 1;
#X connect 53 0 47 0;
#X connect 53 1 54 0;
#X connect 54 0 55 0;
#X connect 55 0 48 0;
#X connect 56 0 53 0;
#X restore 35 274 pd findRoot;
#X obj 89 184 route note root;
#X obj 133 208 s ghRoot;
#X connect 0 0 9 0;
#X connect 6 0 35 0;
#X connect 7 0 12 0;
#X connect 9 0 36 0;
#X connect 10 0 8 0;
#X connect 11 0 10 0;
#X connect 12 0 8 0;
#X connect 13 0 15 0;
#X connect 14 0 13 0;
#X connect 16 0 22 0;
#X connect 17 0 18 0;
#X connect 19 0 17 0;
#X connect 22 0 11 0;
#X connect 24 2 27 0;
#X connect 25 0 23 0;
#X connect 26 0 25 0;
#X connect 26 1 24 0;
#X connect 27 0 25 1;
#X connect 28 0 32 0;
#X connect 30 0 29 0;
#X connect 31 0 30 0;
#X connect 32 0 29 0;
#X connect 33 0 29 0;
#X connect 34 0 31 0;
#X connect 35 0 9 0;
#X connect 36 0 38 0;
#X connect 36 1 21 0;
#X connect 38 0 26 0;
#X connect 38 1 39 0;
#X restore 54 1203 pd net;
#X obj 26 87 seq/channel 1 1 16 60 1 1 75;
#X obj 1052 87 seq/gui2 1 1 450 135;
#X obj 26 230 seq/channel 1 2 16 60 1 1 75;
#X obj 1052 230 seq/gui2 1 2 450 135;
#X obj 25 370 seq/channel 1 3 16 60 1 1 75;
#X obj 1050 371 seq/gui2 1 3 450 135;
#X obj 25 511 seq/channel 1 4 16 60 1 1 75;
#X obj 26 795 seq/channel 1 6 16 60 1 1 75;
#X obj 25 651 seq/channel 1 7 16 60 1 1 75;
#X obj 1052 513 seq/gui2 1 4 450 135;
#X obj 1053 798 seq/gui2 1 6 450 135;
#X obj 1052 649 seq/gui2 1 7 450 135;
#X connect 1 0 2 0;
#X connect 3 0 4 0;
#X connect 4 0 1 0;
