#N canvas 0 0 1920 991 12;
#X obj 104 -228 r actNotes;
#X obj 104 -166 unpack f f f;
#X obj 143 123 == 1;
#X obj 104 156 spigot;
#N canvas 2 95 966 387 numToLett 0;
#X obj 142 39 inlet;
#X obj 145 262 outlet;
#X msg 57 200 C;
#X obj 135 99 mod 12;
#X obj 132 128 sel 0 1 2 3 4 5 6 7 8 9 10 11 12;
#X msg 91 200 C#;
#X msg 126 200 D;
#X msg 160 200 D#;
#X msg 197 199 E;
#X msg 231 199 F;
#X msg 266 199 F#;
#X msg 300 199 G;
#X msg 336 199 G#;
#X msg 370 199 A;
#X msg 405 199 A#;
#X msg 439 199 B;
#X connect 0 0 3 0;
#X connect 2 0 1 0;
#X connect 3 0 4 0;
#X connect 4 0 2 0;
#X connect 4 1 5 0;
#X connect 4 2 6 0;
#X connect 4 3 7 0;
#X connect 4 4 8 0;
#X connect 4 5 9 0;
#X connect 4 6 10 0;
#X connect 4 7 11 0;
#X connect 4 8 12 0;
#X connect 4 9 13 0;
#X connect 4 10 14 0;
#X connect 4 11 15 0;
#X connect 5 0 1 0;
#X connect 6 0 1 0;
#X connect 7 0 1 0;
#X connect 8 0 1 0;
#X connect 9 0 1 0;
#X connect 10 0 1 0;
#X connect 11 0 1 0;
#X connect 12 0 1 0;
#X connect 13 0 1 0;
#X connect 14 0 1 0;
#X connect 15 0 1 0;
#X restore 104 -78 pd numToLett;
#X obj 104 -16 pack s f;
#X obj 166 155 spigot;
#X obj 231 155 spigot;
#X obj 205 126 == 2;
#X obj 270 124 == 3;
#X symbolatom 165 255 3 0 0 0 - - - 0;
#X symbolatom 246 255 3 0 0 0 - - - 0;
#X symbolatom 327 255 3 0 0 0 - - - 0;
#X obj 105 255 bng 49 250 50 0 empty empty empty 0 -26 0 36 #fcfcfc #000000 #000000;
#X obj 314 -193 unpack;
#X obj 314 -228 r channel2-1;
#X obj 314 -123 spigot;
#X obj 353 -156 == 1;
#X obj 314 -84 == \$1;
#X obj 314 -34 sel 1;
#X obj 442 256 tgl 50 0 empty empty empty 0 -10 0 12 #fcfcfc #000000 #000000 0 1;
#X obj 104 -196 spigot;
#X obj 554 -177 unpack f f f;
#X obj 315 13 s \$0-fire;
#X obj 536 -33 s 2noteout;
#X obj 536 -119 int;
#X obj 536 -93 makenote 100 500;
#X obj 536 -145 r \$0-fire;
#X obj 536 -65 pack f f 1;
#X connect 0 0 21 0;
#X connect 1 0 4 0;
#X connect 1 1 5 1;
#X connect 1 2 2 0;
#X connect 1 2 8 0;
#X connect 1 2 9 0;
#X connect 2 0 3 1;
#X connect 3 0 10 0;
#X connect 4 0 5 0;
#X connect 5 0 3 0;
#X connect 5 0 6 0;
#X connect 5 0 7 0;
#X connect 6 0 11 0;
#X connect 7 0 12 0;
#X connect 8 0 6 1;
#X connect 9 0 7 1;
#X connect 14 0 16 0;
#X connect 14 1 17 0;
#X connect 15 0 14 0;
#X connect 16 0 18 0;
#X connect 17 0 16 1;
#X connect 18 0 19 0;
#X connect 18 0 20 0;
#X connect 18 0 21 1;
#X connect 19 0 13 0;
#X connect 19 0 23 0;
#X connect 21 0 1 0;
#X connect 21 0 22 0;
#X connect 22 0 25 1;
#X connect 25 0 26 0;
#X connect 26 0 28 0;
#X connect 26 1 28 1;
#X connect 27 0 25 0;
#X connect 28 0 24 0;
#X coords 0 -1 1 1 400 60 2 100 250;
