#N canvas 0 0 1920 993 10;
#X obj 0 0 cnv 15 1920 1850 empty empty empty 20 12 0 14 #9c9c9c #404040 0;
#X obj 152 1168 tgl 40 0 empty empty DSP 17 7 0 10 #fcfcfc #000000 #000000 0 1;
#X msg 152 1228 \; pd dsp \$1;
#X obj 181 1118 loadbang;
#X msg 152 1134 1;
#N canvas 0 0 1920 993 mainGui 0;
#X obj 1529 159 hradio 40 1 0 8 empty empty Pttrn -70 16 0 20 #dcdcdc #000000 #000000 0;
#X obj 106 106 seq/clock;
#X obj 1871 112 bng 40 250 50 0 empty 20 save 6 19 0 12 #dcdcdc #000000 #000000;
#X obj 168 52 int;
#X obj 186 26 + 0;
#X obj 448 15 tgl 40 0 eDrumIn? empty eD 5 20 0 25 #dcdcdc #000000 #000000 0 1;
#X obj 1529 112 hradio 40 1 0 8 empty empty Song -60 16 0 20 #dcdcdc #000000 #000000 0;
#X obj 19 -72 pack f f;
#X obj 40 -97 t b f;
#X obj 102 -55 unpack f f;
#X obj 102 -18 pack f f f;
#X msg 48 72 writeSeq \$2 \$3;
#X msg 10 43 readSeq \$1 \$2;
#X obj 312 106 bng 40 250 50 0 empty 20 Rst 10 19 0 12 #dcdcdc #000000 #000000;
#X msg 330 197 rst;
#X obj 800 6 r advance;
#X obj 692 -55 loadbang;
#X obj 692 4 t b b;
#X obj 672 -21 bng 15 250 50 0 empty empty empty 17 7 0 10 #fcfcfc #000000 #000000;
#X msg 692 39 0;
#X msg 724 39 0;
#X obj 1870 158 nbx 2 40 -1e+37 1e+37 0 0 empty empty empty 0 -8 0 20 #dcdcdc #000000 #000000 0 256;
#X obj 1870 77 + 1;
#X obj 1870 207 - 1;
#X obj 692 -23 delay 1500;
#X obj 288 -63 tgl 40 0 recMidi empty R 15 20 0 25 #dcdcdc #000000 #000000 0 1;
#N canvas 687 204 1109 688 midiInOut 0;
#X obj 152 209 r channel1-1;
#X obj 152 246 unpack;
#X obj 212 297 * 127;
#X obj 185 271 moses;
#X obj 212 326 int;
#X obj 212 352 t b f;
#X obj 404 80 ctlin;
#X obj 404 167 ctlout;
#X obj 229 62 notein;
#X obj 137 358 int;
#X obj 137 328 b;
#X msg 213 385 44;
#X obj 137 390 pack f 0;
#X obj 341 247 unpack;
#X obj 401 298 * 127;
#X obj 374 272 moses;
#X obj 401 327 int;
#X obj 401 353 t b f;
#X obj 326 359 int;
#X obj 326 329 b;
#X obj 326 391 pack f 0;
#X obj 540 246 unpack;
#X obj 600 297 * 127;
#X obj 573 271 moses;
#X obj 600 326 int;
#X obj 600 352 t b f;
#X obj 525 358 int;
#X obj 525 328 b;
#X obj 525 390 pack f 0;
#X obj 341 210 r channel1-2;
#X obj 540 209 r channel1-3;
#X msg 402 386 45;
#X msg 601 385 46;
#X obj 229 116 pack f f f;
#X obj 296 91 t f f;
#X obj 229 143 spigot;
#X obj 328 126 <= 16;
#X obj 828 142 s toAll;
#X obj 58 52 notein;
#X obj 58 130 pack f f f;
#X obj 125 81 t f f;
#X obj 58 157 spigot;
#X obj 157 116 > 16;
#X obj 125 105 - 16;
#X obj 58 239 s actNotes;
#X obj 828 116 list prepend note;
#N canvas 1011 185 712 742 test 0;
#X obj 80 95 sel 0 1;
#X obj 80 57 tgl 15 0 empty empty empty 17 7 0 10 #fcfcfc #000000 #000000 0 1;
#X obj 80 32 metro 700;
#X obj 81 5 tgl 15 0 empty empty empty 17 7 0 10 #fcfcfc #000000 #000000 0 1;
#X msg 81 162 \$1 100 1;
#X msg 108 189 \$1 0 1;
#X obj 107 131 int;
#X obj 80 132 int;
#X floatatom 101 5 5 0 0 0 - - - 0;
#X obj 117 295 outlet;
#X obj 166 98 sel 0 1;
#X obj 165 60 tgl 15 0 empty empty empty 17 7 0 10 #fcfcfc #000000 #000000 0 1;
#X obj 166 8 tgl 15 0 empty empty empty 17 7 0 10 #fcfcfc #000000 #000000 0 1;
#X obj 193 134 int;
#X obj 166 135 int;
#X floatatom 187 8 5 0 0 0 - - - 0;
#X obj 251 99 sel 0 1;
#X obj 250 61 tgl 15 0 empty empty empty 17 7 0 10 #fcfcfc #000000 #000000 0 1;
#X obj 251 9 tgl 15 0 empty empty empty 17 7 0 10 #fcfcfc #000000 #000000 0 1;
#X obj 278 135 int;
#X obj 251 136 int;
#X floatatom 272 9 5 0 0 0 - - - 0;
#X msg 166 165 \$1 100 2;
#X msg 193 192 \$1 0 2;
#X msg 251 166 \$1 100 3;
#X msg 278 193 \$1 0 3;
#X obj 81 224 t a;
#X obj 166 227 t a;
#X obj 251 228 t a;
#X obj 166 35 metro 750;
#X obj 251 36 metro 800;
#X connect 0 0 7 0;
#X connect 0 1 6 0;
#X connect 1 0 0 0;
#X connect 2 0 1 0;
#X connect 3 0 2 0;
#X connect 4 0 26 0;
#X connect 5 0 26 0;
#X connect 6 0 5 0;
#X connect 7 0 4 0;
#X connect 8 0 7 1;
#X connect 8 0 6 1;
#X connect 10 0 14 0;
#X connect 10 1 13 0;
#X connect 11 0 10 0;
#X connect 12 0 29 0;
#X connect 13 0 23 0;
#X connect 14 0 22 0;
#X connect 15 0 14 1;
#X connect 15 0 13 1;
#X connect 16 0 20 0;
#X connect 16 1 19 0;
#X connect 17 0 16 0;
#X connect 18 0 30 0;
#X connect 19 0 25 0;
#X connect 20 0 24 0;
#X connect 21 0 20 1;
#X connect 21 0 19 1;
#X connect 22 0 27 0;
#X connect 23 0 27 0;
#X connect 24 0 28 0;
#X connect 25 0 28 0;
#X connect 26 0 9 0;
#X connect 27 0 9 0;
#X connect 28 0 9 0;
#X connect 29 0 11 0;
#X connect 30 0 17 0;
#X restore 6 156 pd test;
#X obj 207 34 r netNote;
#X obj 469 81 r netCC;
#X obj 709 116 findRoot;
#X obj 709 87 r actNotes;
#X obj 709 146 list prepend root;
#X obj 709 174 s toAll;
#X obj 214 471 s 2noteout;
#X obj 214 435 pack f f 2;
#X obj 403 436 pack f f 2;
#X obj 403 477 s 2noteout;
#X obj 602 477 s 2noteout;
#X obj 197 169 s 2noteout;
#X obj 478 125 r 2noteout;
#X obj 478 161 noteout;
#X obj 828 87 r 2noteout;
#X obj 583 150 s toAll;
#X obj 583 121 list prepend triad;
#X obj 583 91 r actNotes;
#X obj 951 84 ctlin;
#X obj 951 189 s toAll;
#X obj 951 163 list prepend ctl;
#X msg 58 656 248;
#X msg 90 664 250;
#X obj 170 606 int;
#X obj 206 623 + 1;
#X obj 168 534 t b b;
#X msg 170 557 1;
#X msg 243 553 0;
#X obj 170 650 sel 1;
#X msg 171 695 252;
#X obj 58 740 midiout;
#X obj 170 583 metro 250;
#X obj 58 402 r clock;
#X obj 58 517 t f f b;
#X obj 58 558 sel 0;
#X obj 58 614 t b b;
#X obj 79 430 / 2;
#X obj 79 456 int;
#X obj 79 483 change;
#X obj 544 97 print;
#X obj 602 435 pack f f 2;
#X obj 951 120 pack f f f;
#X connect 0 0 1 0;
#X connect 1 1 3 0;
#X connect 2 0 4 0;
#X connect 3 0 10 0;
#X connect 3 1 2 0;
#X connect 4 0 5 0;
#X connect 5 0 11 0;
#X connect 5 1 54 1;
#X connect 6 0 7 0;
#X connect 6 1 7 1;
#X connect 6 2 7 2;
#X connect 8 0 33 0;
#X connect 8 1 33 1;
#X connect 8 2 34 0;
#X connect 9 0 12 0;
#X connect 10 0 9 0;
#X connect 11 0 9 1;
#X connect 11 0 54 0;
#X connect 12 0 54 0;
#X connect 13 1 15 0;
#X connect 14 0 16 0;
#X connect 15 0 19 0;
#X connect 15 1 14 0;
#X connect 16 0 17 0;
#X connect 17 0 31 0;
#X connect 17 1 55 1;
#X connect 18 0 20 0;
#X connect 19 0 18 0;
#X connect 20 0 55 0;
#X connect 21 1 23 0;
#X connect 22 0 24 0;
#X connect 23 0 27 0;
#X connect 23 1 22 0;
#X connect 24 0 25 0;
#X connect 25 0 32 0;
#X connect 25 1 87 1;
#X connect 26 0 28 0;
#X connect 27 0 26 0;
#X connect 28 0 87 0;
#X connect 29 0 13 0;
#X connect 30 0 21 0;
#X connect 31 0 18 1;
#X connect 31 0 55 0;
#X connect 32 0 26 1;
#X connect 32 0 87 0;
#X connect 33 0 35 0;
#X connect 34 0 33 2;
#X connect 34 1 36 0;
#X connect 35 0 58 0;
#X connect 36 0 35 1;
#X connect 38 0 39 0;
#X connect 38 1 39 1;
#X connect 38 2 40 0;
#X connect 39 0 41 0;
#X connect 40 0 43 0;
#X connect 40 1 42 0;
#X connect 41 0 44 0;
#X connect 42 0 41 1;
#X connect 43 0 39 2;
#X connect 45 0 37 0;
#X connect 46 0 44 0;
#X connect 47 0 58 0;
#X connect 48 0 7 0;
#X connect 49 0 51 0;
#X connect 50 0 49 0;
#X connect 51 0 52 0;
#X connect 54 0 53 0;
#X connect 55 0 56 0;
#X connect 59 0 60 0;
#X connect 61 0 45 0;
#X connect 63 0 62 0;
#X connect 64 0 63 0;
#X connect 65 0 88 0;
#X connect 65 1 88 1;
#X connect 65 2 88 2;
#X connect 67 0 66 0;
#X connect 68 0 77 0;
#X connect 69 0 77 0;
#X connect 70 0 71 0;
#X connect 70 0 75 0;
#X connect 71 0 70 1;
#X connect 72 0 73 0;
#X connect 72 1 74 0;
#X connect 73 0 78 0;
#X connect 74 0 70 1;
#X connect 75 0 76 0;
#X connect 76 0 77 0;
#X connect 78 0 70 0;
#X connect 79 0 80 0;
#X connect 80 0 81 0;
#X connect 80 2 72 0;
#X connect 81 0 82 0;
#X connect 81 1 68 0;
#X connect 82 0 68 0;
#X connect 82 1 69 0;
#X connect 83 0 84 0;
#X connect 84 0 85 0;
#X connect 87 0 57 0;
#X connect 88 0 67 0;
#X restore 741 220 pd midiInOut;
#N canvas 0 56 1920 993 2net 0;
#X obj 589 281 r channel1-1;
#X obj 588 318 unpack;
#X obj 645 351 change;
#X obj 630 470 v str1N;
#X msg 630 576 note \$1 \$2;
#X obj 630 617 s toAll;
#X obj 630 537 pack f 127;
#X obj 540 540 pack f 0;
#X obj 630 432 sel 1;
#X obj 818 313 unpack;
#X obj 875 346 change;
#X msg 860 571 note \$1 \$2;
#X obj 860 612 s toAll;
#X obj 860 532 pack f 127;
#X obj 770 535 pack f 0;
#X obj 860 427 sel 1;
#X obj 819 276 r channel1-2;
#X obj 860 465 v str2N;
#X obj 1041 311 unpack;
#X obj 1098 344 change;
#X msg 1083 569 note \$1 \$2;
#X obj 1083 610 s toAll;
#X obj 1083 530 pack f 127;
#X obj 993 533 pack f 0;
#X obj 1083 425 sel 1;
#X obj 1042 274 r channel1-3;
#X obj 1083 463 v str3N;
#X obj 630 394 >= 0;
#X obj 860 389 >= 0;
#X obj 1083 387 >= 0;
#X obj 540 494 pipe 30;
#X obj 770 489 pipe 30;
#X obj 993 487 pipe 30;
#X connect 1 1 2 0;
#X connect 2 0 27 0;
#X connect 3 0 6 0;
#X connect 3 0 30 0;
#X connect 4 0 5 0;
#X connect 6 0 4 0;
#X connect 7 0 4 0;
#X connect 8 0 3 0;
#X connect 9 1 10 0;
#X connect 10 0 28 0;
#X connect 11 0 12 0;
#X connect 13 0 11 0;
#X connect 14 0 11 0;
#X connect 15 0 17 0;
#X connect 17 0 13 0;
#X connect 17 0 31 0;
#X connect 18 1 19 0;
#X connect 19 0 29 0;
#X connect 20 0 21 0;
#X connect 22 0 20 0;
#X connect 23 0 20 0;
#X connect 24 0 26 0;
#X connect 26 0 22 0;
#X connect 26 0 32 0;
#X connect 27 0 8 0;
#X connect 28 0 15 0;
#X connect 29 0 24 0;
#X connect 30 0 7 0;
#X connect 31 0 14 0;
#X connect 32 0 23 0;
#X restore 870 221 pd 2net;
#X obj 357 106 showNotes;
#X obj 613 112 seq/gui 1 0 50;
#N canvas 807 355 1009 507 net 0;
#X msg -2 35 disconnect;
#X obj 225 98 s oscClock;
#X obj 89 32 loadbang;
#X obj 620 248 loadbang;
#X obj 478 319 netsend -u;
#X obj 89 98 netreceive -u;
#X obj 478 282 list trim;
#X obj 478 251 list prepend send;
#X msg 620 302 connect 192.168.1.255 8000;
#X obj 478 191 r toAll;
#X msg 445 76 clock \$1;
#X obj 445 117 s toAll;
#X obj 445 48 r 2extclock;
#X obj 193 267 s advance;
#X obj 478 222 list prepend gharp;
#X obj 89 387 s netNote;
#X obj 137 268 s netCC;
#X obj 121 306 unpack f f f;
#X obj 106 358 spigot;
#X obj 89 281 t a a;
#X obj 162 340 == 2;
#X obj 225 56 netreceive -u 8099;
#X msg 89 70 listen 8000;
#X obj 89 196 spigot;
#X obj 155 180 r rcvEC;
#X obj 89 236 route note cc advance;
#X obj 89 146 route EC;
#X floatatom 191 215 5 0 0 0 - - - 0;
#X obj -11 146 route seq/gHarp;
#X obj 4 236 bng 15 250 50 0 empty empty empty 17 7 0 10 #fcfcfc #000000 #000000;
#X obj 620 275 delay 1000;
#X connect 0 0 5 0;
#X connect 2 0 22 0;
#X connect 3 0 30 0;
#X connect 5 0 26 0;
#X connect 5 0 28 0;
#X connect 6 0 4 0;
#X connect 7 0 6 0;
#X connect 8 0 4 0;
#X connect 9 0 14 0;
#X connect 10 0 11 0;
#X connect 12 0 10 0;
#X connect 14 0 7 0;
#X connect 17 2 20 0;
#X connect 18 0 15 0;
#X connect 19 0 15 0;
#X connect 19 0 29 0;
#X connect 19 1 17 0;
#X connect 20 0 18 1;
#X connect 21 0 1 0;
#X connect 22 0 5 0;
#X connect 23 0 25 0;
#X connect 24 0 23 1;
#X connect 24 0 27 0;
#X connect 25 0 19 0;
#X connect 25 1 16 0;
#X connect 25 2 13 0;
#X connect 26 0 23 0;
#X connect 28 0 25 0;
#X connect 30 0 8 0;
#X restore 951 219 pd net;
#X obj 1154 165 tgl 48 0 rcvEC empty EC 7 15 0 20 #dcdcdc #000000 #000000 0 1;
#X obj 224 29 loadbang;
#X obj 984 261 r actNotes;
#X msg 1020 639 disconnect;
#X obj 984 669 netsend -u -b;
#X msg 1001 614 connect localhost 8001;
#X obj 984 582 oscformat gharp triad;
#X obj 984 294 unpack f f f;
#X obj 984 349 spigot;
#X obj 1018 324 > 0;
#X obj 984 322 pack;
#X obj 984 377 unpack;
#X obj 984 553 pack f f f;
#X obj 1012 476 spigot;
#X obj 984 451 spigot;
#X obj 1041 501 spigot;
#X obj 1045 441 == 2;
#X obj 1017 416 == 3;
#X obj 1074 469 == 1;
#X obj 1057 553 loadbang;
#X connect 0 0 8 0;
#X connect 2 0 10 0;
#X connect 3 0 11 0;
#X connect 4 0 3 1;
#X connect 6 0 7 0;
#X connect 7 0 9 0;
#X connect 7 0 12 0;
#X connect 8 0 7 0;
#X connect 8 1 7 1;
#X connect 9 0 10 1;
#X connect 9 1 22 0;
#X connect 10 0 11 0;
#X connect 11 0 29 0;
#X connect 12 0 29 0;
#X connect 13 0 14 0;
#X connect 14 0 29 0;
#X connect 15 0 0 0;
#X connect 16 0 24 0;
#X connect 17 0 19 0;
#X connect 17 1 20 0;
#X connect 18 0 17 0;
#X connect 19 0 0 0;
#X connect 20 0 6 0;
#X connect 21 0 23 0;
#X connect 22 0 21 0;
#X connect 23 0 10 2;
#X connect 24 0 17 0;
#X connect 33 0 38 0;
#X connect 34 0 35 0;
#X connect 36 0 35 0;
#X connect 37 0 35 0;
#X connect 38 0 41 0;
#X connect 38 1 40 0;
#X connect 38 2 41 1;
#X connect 39 0 42 0;
#X connect 40 0 39 1;
#X connect 41 0 39 0;
#X connect 42 0 45 0;
#X connect 42 0 44 0;
#X connect 42 0 46 0;
#X connect 42 1 47 0;
#X connect 42 1 48 0;
#X connect 42 1 49 0;
#X connect 43 0 37 0;
#X connect 44 0 43 1;
#X connect 45 0 43 0;
#X connect 46 0 43 2;
#X connect 47 0 44 1;
#X connect 48 0 45 1;
#X connect 49 0 46 1;
#X connect 50 0 36 0;
#X coords 0 -1 1 1 1850 115 2 100 100;
#X restore 7 5 pd mainGui;
#X obj 12 247 seq/gui 1 1 50;
#X obj 15 309 seq/channel 1 1 16 60 1 1 90;
#X obj 13 558 seq/channel 1 2 16 60 1 1 90;
#X obj 11 806 seq/channel 1 3 16 60 1 1 90;
#X obj 11 756 seq/gui 1 3 50;
#X obj 13 508 seq/gui 1 2 50;
#X obj 8 125 ctlMonitor;
#X obj 1148 134 countdown;
#X obj 1049 545 seq/gui 2 1 50;
#X obj 1048 604 seq/channel 2 1 16 50 6 1 0;
#X obj 1494 310 chordslot 1;
#X obj 1054 310 chordslot 0;
#X obj 1493 381 chordslot 3;
#X obj 1056 450 chordslot 4;
#X obj 1053 380 chordslot 2;
#X obj 1492 461 chordslot 5;
#X connect 1 0 2 0;
#X connect 3 0 4 0;
#X connect 4 0 1 0;
