#N canvas 49 122 1009 758 36;
#X obj 104 -228 r actNotes;
#X obj 104 -150 unpack f f f;
#X obj 196 71 == 1;
#X obj 104 156 spigot;
#N canvas 2 95 966 387 numToLett 0;
#X obj 142 39 inlet;
#X obj 145 262 outlet;
#X msg 57 200 C;
#X obj 135 99 mod 12;
#X obj 132 128 sel 0 1 2 3 4 5 6 7 8 9 10 11 12;
#X msg 91 200 C#;
#X msg 126 200 D;
#X msg 160 200 D#;
#X msg 197 199 E;
#X msg 231 199 F;
#X msg 266 199 F#;
#X msg 300 199 G;
#X msg 336 199 G#;
#X msg 370 199 A;
#X msg 405 199 A#;
#X msg 439 199 B;
#X connect 0 0 3 0;
#X connect 2 0 1 0;
#X connect 3 0 4 0;
#X connect 4 0 2 0;
#X connect 4 1 5 0;
#X connect 4 2 6 0;
#X connect 4 3 7 0;
#X connect 4 4 8 0;
#X connect 4 5 9 0;
#X connect 4 6 10 0;
#X connect 4 7 11 0;
#X connect 4 8 12 0;
#X connect 4 9 13 0;
#X connect 4 10 14 0;
#X connect 4 11 15 0;
#X connect 5 0 1 0;
#X connect 6 0 1 0;
#X connect 7 0 1 0;
#X connect 8 0 1 0;
#X connect 9 0 1 0;
#X connect 10 0 1 0;
#X connect 11 0 1 0;
#X connect 12 0 1 0;
#X connect 13 0 1 0;
#X connect 14 0 1 0;
#X connect 15 0 1 0;
#X restore 104 -78 pd numToLett;
#X obj 104 -10 pack s f;
#X obj 317 151 spigot;
#X obj 493 160 spigot;
#X obj 409 66 == 2;
#X obj 585 75 == 3;
#X symbolatom 110 256 3 0 0 0 - - -;
#X symbolatom 191 256 3 0 0 0 - - -;
#X symbolatom 272 256 3 0 0 0 - - -;
#X connect 0 0 1 0;
#X connect 1 0 4 0;
#X connect 1 1 5 1;
#X connect 1 2 2 0;
#X connect 1 2 8 0;
#X connect 1 2 9 0;
#X connect 2 0 3 1;
#X connect 3 0 10 0;
#X connect 4 0 5 0;
#X connect 5 0 3 0;
#X connect 5 0 6 0;
#X connect 5 0 7 0;
#X connect 6 0 11 0;
#X connect 7 0 12 0;
#X connect 8 0 6 1;
#X connect 9 0 7 1;
#X coords 0 -1 1 1 250 60 2 100 250;
