#N canvas 92 138 1041 700 10;
#X msg 10 -63 \; pd dsp 1;
#X msg 10 -21 \; pd dsp 0;
#X obj 10 -89 loadbang;
#N canvas 666 176 263 214 filters 0;
#X obj 47 41 inlet~;
#X obj 47 176 outlet~;
#X text 103 79 DC filter;
#X text 140 140 sibilant filter;
#X obj 125 41 inlet;
#X text 165 40 freq;
#X obj 47 80 hip~ 160;
#X obj 47 140 lop~ 2000;
#X connect 0 0 6 0;
#X connect 4 0 7 1;
#X connect 6 0 7 0;
#X connect 7 0 1 0;
#X restore 582 -31 pd filters;
#X text 638 -73 lo pass filter freq;
#X obj 631 88 ftom;
#X obj 631 114 s pitch;
#N canvas 80 161 664 610 servo 0;
#X obj 189 515 s comctl;
#X obj 216 127 tgl 15 0 empty empty empty 17 7 0 10 -262144 -1 -1 1
1;
#X obj 216 151 sel 0 1;
#X obj 189 356 int;
#X msg 317 344 81;
#X msg 189 389 \$1;
#X msg 286 344 79;
#X msg 189 480 214 \$1;
#X obj 189 418 + 0;
#X obj 119 19 r pick;
#X obj 111 56 route hit mute unmute;
#X msg 259 -30 \; pick hit;
#X msg 366 -32 \; pick mute;
#X msg 446 -38 \; pick unmute;
#X obj 135 325 int;
#X msg 296 221 set \$1;
#X text 364 100 center;
#X text 421 99 spread hit;
#X text 507 98 spreadmute;
#X msg 237 220 set \$1;
#X obj 325 183 +;
#X obj 279 179 -;
#X msg 379 274 set \$1;
#X msg 320 273 set \$1;
#X obj 408 236 +;
#X obj 362 232 -;
#X obj 87 176 tgl 15 0 empty empty empty 17 7 0 10 -262144 -1 -1 1
1;
#X obj 86 211 sel 0 1;
#X obj 120 94 t b b;
#X msg 87 128 0;
#X obj 375 31 loadbang;
#X obj 377 56 t b b b;
#X obj 354 28 bng 15 250 50 0 empty empty empty 17 7 0 10 -262144 -1
-1;
#X msg 148 172 0;
#X msg 117 172 1;
#X obj 87 153 t a;
#X msg 516 123 1;
#N canvas 526 271 450 300 switchOff 0;
#X obj 187 -50 inlet;
#X obj 187 236 outlet;
#X msg 187 206 0;
#X obj 187 80 int 0;
#X obj 187 107 + 1;
#X obj 187 28 loadbang;
#X msg 187 -24 0;
#X obj 187 154 change;
#X obj 187 178 sel 1;
#X obj 187 4 t b f;
#X obj 187 130 > 1;
#X obj 187 53 metro 1000;
#X connect 0 0 6 0;
#X connect 2 0 1 0;
#X connect 3 0 4 0;
#X connect 4 0 3 1;
#X connect 4 0 10 0;
#X connect 5 0 11 0;
#X connect 6 0 9 0;
#X connect 7 0 8 0;
#X connect 8 0 2 0;
#X connect 9 0 11 0;
#X connect 9 1 3 1;
#X connect 10 0 7 0;
#X connect 11 0 3 0;
#X restore 203 449 pd switchOff;
#X msg 231 284 75;
#X msg 271 283 85;
#X obj 33 56 loadbang;
#X msg 436 122 5;
#X msg 369 124 80;
#X connect 1 0 2 0;
#X connect 2 0 38 0;
#X connect 2 1 39 0;
#X connect 3 0 5 0;
#X connect 4 0 3 1;
#X connect 5 0 8 0;
#X connect 6 0 3 1;
#X connect 7 0 0 0;
#X connect 8 0 7 0;
#X connect 8 0 37 0;
#X connect 9 0 10 0;
#X connect 10 0 28 0;
#X connect 10 1 3 0;
#X connect 10 1 35 0;
#X connect 10 2 33 0;
#X connect 14 0 5 0;
#X connect 15 0 39 0;
#X connect 19 0 38 0;
#X connect 20 0 15 0;
#X connect 21 0 19 0;
#X connect 22 0 4 0;
#X connect 23 0 6 0;
#X connect 24 0 22 0;
#X connect 25 0 23 0;
#X connect 27 0 14 0;
#X connect 27 1 3 0;
#X connect 28 0 1 0;
#X connect 28 1 29 0;
#X connect 29 0 35 0;
#X connect 30 0 31 0;
#X connect 31 0 42 0;
#X connect 31 1 41 0;
#X connect 31 2 36 0;
#X connect 32 0 31 0;
#X connect 33 0 27 0;
#X connect 34 0 27 0;
#X connect 35 0 26 0;
#X connect 36 0 25 1;
#X connect 36 0 24 1;
#X connect 37 0 7 0;
#X connect 38 0 6 0;
#X connect 38 0 14 0;
#X connect 39 0 4 0;
#X connect 39 0 14 0;
#X connect 40 0 28 0;
#X connect 41 0 21 1;
#X connect 41 0 20 1;
#X connect 42 0 20 0;
#X connect 42 0 25 0;
#X connect 42 0 24 0;
#X connect 42 0 5 0;
#X connect 42 0 21 0;
#X restore 465 -11 pd servo;
#X msg 210 41 close;
#X obj 210 92 comport 1 115200;
#X msg 210 -15 devices;
#X obj 210 63 r comctl;
#X obj 224 -39 shell;
#X obj 210 116 s comrcv;
#X floatatom 589 119 5 0 0 0 - - -, f 5;
#X text 268 169 midi commands;
#X text 267 186 24-36 pitch 23 step enable 22 home 12 NoteOn_NoteOff
CC1 Speed;
#X msg 334 99 211;
#X msg 371 94 10;
#N canvas 118 187 664 686 kickup 0;
#X obj 198 404 s comctl;
#X msg 198 370 216 \$1;
#X obj 198 174 r kickup;
#X obj 198 238 clip 0 1;
#X obj 277 261 -;
#X obj 299 196 t b b;
#X floatatom 277 302 5 0 0 0 - - -, f 5;
#X obj 305 153 bng 15 250 50 0 empty empty empty 17 7 0 10 -262144
-1 -1;
#X obj 198 307 +;
#X obj 198 278 *;
#X text 340 218 upper limit;
#X text 356 243 lower limit;
#X obj 324 116 loadbang;
#X msg 326 244 50;
#X msg 299 220 100;
#X connect 1 0 0 0;
#X connect 2 0 3 0;
#X connect 3 0 9 0;
#X connect 4 0 6 0;
#X connect 4 0 9 1;
#X connect 5 0 14 0;
#X connect 5 1 13 0;
#X connect 7 0 5 0;
#X connect 8 0 1 0;
#X connect 9 0 8 0;
#X connect 12 0 5 0;
#X connect 13 0 4 1;
#X connect 13 0 8 1;
#X connect 14 0 4 0;
#X restore 466 48 pd kickup;
#N canvas 124 182 450 300 latency 0;
#X obj 111 27 adc~ 1;
#X obj 207 101 s cntrl;
#X msg 206 47 kick \$1;
#X msg 281 14 1;
#X msg 276 56 servo1 \$1;
#X obj 333 14 tgl 15 0 empty empty empty 17 7 0 10 -262144 -1 -1 0
1;
#X obj 139 229 change;
#X obj 158 262 sel 1;
#X obj 158 292 bng 15 250 50 0 empty empty empty 17 7 0 10 -262144
-1 -1;
#X obj 326 136 expr $f1 > 70;
#X obj 134 179 sel 1;
#X obj 194 180 sel 1;
#X msg 136 204 1;
#X msg 183 203 0;
#X floatatom 252 188 8 0 0 0 - - -, f 8;
#X obj 244 127 b;
#X msg 200 11 14;
#X obj 130 59 env~ 512;
#X obj 248 157 realtime;
#X obj 142 152 > 70;
#X obj 184 150 < 50;
#X connect 0 0 17 0;
#X connect 2 0 1 0;
#X connect 2 0 15 0;
#X connect 3 0 4 0;
#X connect 3 0 15 0;
#X connect 4 0 1 0;
#X connect 5 0 4 0;
#X connect 5 0 15 0;
#X connect 6 0 7 0;
#X connect 7 0 8 0;
#X connect 7 0 18 1;
#X connect 10 0 12 0;
#X connect 11 0 13 0;
#X connect 12 0 6 0;
#X connect 13 0 6 0;
#X connect 15 0 18 0;
#X connect 16 0 2 0;
#X connect 17 0 19 0;
#X connect 17 0 20 0;
#X connect 18 0 14 0;
#X connect 19 0 10 0;
#X connect 20 0 11 0;
#X restore 462 118 pd latency;
#X msg 120 283 home;
#X obj 309 330 s stepper2;
#X msg 310 276 home;
#X obj 119 337 s stepper1;
#X obj 655 240 r steppos1;
#X floatatom 673 279 5 0 0 0 - - -, f 5;
#X msg 209 323 getpos;
#X floatatom 740 285 5 0 0 0 - - -, f 5;
#X obj 744 244 r steppos2;
#X msg 412 313 getpos;
#X msg 449 282 pos 1100;
#N canvas 2 275 1041 647 midi 0;
#X msg 59 197 home;
#X msg 101 197 enbl 1;
#X obj 58 251 s stepper1;
#X msg 19 168 getpos;
#X obj 124 -6 stripnote;
#X obj 172 168 tabread pitchtable;
#X obj 138 -52 unpack;
#X obj 127 35 moses 48;
#X obj 251 53 int;
#X obj 251 19 b;
#X msg 172 197 pos \$1;
#X obj 251 74 / 127;
#X msg 251 202 spd \$1;
#X msg 387 308 \; pick hit;
#X obj 586 159 > 0;
#X obj 586 182 sel 1;
#X obj 586 243 int;
#X obj 586 135 t f f;
#X obj 586 80 int;
#X obj 426 154 stripnote;
#X obj 1140 158 / 127;
#X obj 990 121 / 127;
#X msg 974 279 \; stepper2 pos \$1;
#X msg 1125 278 \; stepper2 spd \$1;
#X obj 973 155 * 1500;
#X obj 586 270 / 127;
#X obj 274 -87 pack;
#X obj 426 116 unpack;
#X obj 588 -42 unpack;
#X obj 971 204 change;
#X obj 1147 213 change;
#X obj 441 18 s ctlin;
#X obj 474 -79 == 1;
#X obj 441 -49 spigot;
#X obj 441 -123 ctlin;
#X obj 441 -81 pack;
#X obj 1070 -63 r ctlin;
#X obj 1069 -32 unpack;
#X obj 990 31 spigot;
#X obj 1139 75 spigot;
#X obj 172 116 - 48;
#X obj 274 -56 spigot;
#X obj 441 -14 spigot;
#X obj 538 -119 r direct_midi;
#X obj 172 82 clip 48 72;
#X obj 274 -120 notein 1;
#X msg 586 299 \; kickup \$1;
#X obj 251 140 t f b;
#X obj 341 -89 pack;
#X obj 341 -58 spigot;
#X obj 341 -21 s notein2;
#X obj 274 -19 s notein1;
#X obj 139 -88 r notein1;
#X msg 701 357 \; stepper2 pos \$1;
#X msg 837 277 \; stepper2 spd \$1;
#X obj 701 331 change;
#X obj 831 226 change;
#X obj 719 73 stripnote;
#X obj 719 44 unpack;
#X obj 720 -5 r notein2;
#X obj 703 136 int;
#X obj 807 136 int;
#X obj 701 198 / 127;
#X obj 701 304 * 1500;
#X obj 701 220 * -1;
#X obj 826 186 / 127;
#X obj 711 106 sel 40 41;
#X obj 15 15 r ctlin;
#X obj 15 49 unpack;
#X obj 54 80 sel 123;
#X msg 54 106 0;
#X obj 140 -246 r extnote;
#X obj 351 -120 notein 2;
#X obj 238 350 r ctlin;
#X obj 238 373 unpack;
#X obj 243 422 spigot;
#X obj 61 385 tabread pitchtable;
#X msg 147 360 0;
#X msg 101 352 24;
#X obj 244 449 / 127;
#X obj 78 459 -;
#X obj 78 425 int;
#X obj 113 426 int;
#X obj 77 492 *;
#X obj 78 525 +;
#X floatatom 79 561 5 0 0 0 - - -, f 5;
#X obj 144 310 t b b b b;
#X obj 330 37 r ctlin;
#X obj 330 60 unpack;
#X obj 330 108 spigot;
#X obj 330 140 / 127;
#X obj 1050 14 == 6;
#X obj 1166 10 == 7;
#X obj 364 81 == 3;
#X obj 277 395 == 2;
#X obj 253 117 clip 0 1;
#X obj 253 96 * 1.5;
#X obj 728 -156 r notein1;
#X obj 728 -129 unpack;
#X obj 728 -80 int;
#X obj 728 -48 tabwrite midinotes;
#X obj 700 -189 table midinotes;
#X msg 814 -125 \; midinotes resize 127;
#X msg 819 -160 \; midinotes const 0;
#X obj 163 279 loadbang;
#X obj 728 -106 t b f;
#X obj 823 -194 loadbang;
#X obj 273 -208 unpack f f f;
#X obj 273 -181 spigot;
#X obj 354 -178 != 10;
#X obj 273 -158 pack f f f;
#X obj 586 -71 r notein1;
#X obj 426 77 r notein1;
#X obj 34 -51 r wii-note;
#X msg 82 -28 127;
#X obj 34 -27 t f b;
#X obj 928 70 r wii-acc-damper;
#X obj 296 456 r wii-acc-pitch;
#X obj 586 379 s 2ch-1-3;
#X msg 586 349 vel \$1;
#X msg 263 228 vel \$1;
#X msg 179 227 pitch \$1;
#X obj 200 254 s 2ch-1-1;
#X msg 476 569 pitch \$1;
#X obj 476 599 s 2ch-1-2;
#X msg 436 518 2;
#X msg 1123 330 vel \$1;
#X obj 1030 185 s 2ch-1-4;
#X obj 1123 361 s 2ch-1-5;
#X msg 1030 156 vel \$1;
#X obj 496 279 moses 1;
#X obj 496 253 int;
#X obj 496 131 sel 47;
#X msg 493 500 1;
#X msg 538 538 0;
#X msg 542 410 \; pick unmute;
#X msg 496 337 \; pick mute;
#X obj 426 229 sel 45 46 44;
#X obj 586 54 sel 46 47 44;
#X obj 151 -278 r eDrumIn;
#X obj 140 -214 unpack;
#X obj 140 -127 pack;
#X obj 586 214 delay 0;
#X msg 230 -144 127;
#X obj 198 -197 sel 0;
#X msg 198 -144 0;
#X obj 273 -260 r netNote;
#X obj 441 -150 r netCC;
#X floatatom 664 107 5 0 0 0 - - -, f 5;
#X obj 701 243 + 1;
#X obj 701 170 + 7;
#X obj 701 273 clip 0 1;
#X connect 0 0 2 0;
#X connect 1 0 2 0;
#X connect 3 0 2 0;
#X connect 4 0 7 0;
#X connect 4 1 8 1;
#X connect 5 0 10 0;
#X connect 6 0 4 0;
#X connect 6 1 4 1;
#X connect 7 1 9 0;
#X connect 7 1 44 0;
#X connect 8 0 11 0;
#X connect 9 0 8 0;
#X connect 10 0 2 0;
#X connect 11 0 96 0;
#X connect 12 0 2 0;
#X connect 14 0 15 0;
#X connect 15 0 142 0;
#X connect 16 0 25 0;
#X connect 17 0 14 0;
#X connect 17 1 16 1;
#X connect 18 0 17 0;
#X connect 19 0 137 0;
#X connect 20 0 30 0;
#X connect 21 0 24 0;
#X connect 21 0 129 0;
#X connect 24 0 29 0;
#X connect 25 0 46 0;
#X connect 25 0 119 0;
#X connect 26 0 41 0;
#X connect 27 0 19 0;
#X connect 27 0 132 0;
#X connect 27 1 19 1;
#X connect 27 1 131 1;
#X connect 28 0 138 0;
#X connect 28 1 18 1;
#X connect 29 0 22 0;
#X connect 30 0 23 0;
#X connect 30 0 126 0;
#X connect 32 0 33 1;
#X connect 33 0 42 0;
#X connect 34 0 35 0;
#X connect 34 1 35 1;
#X connect 34 2 32 0;
#X connect 35 0 33 0;
#X connect 36 0 37 0;
#X connect 37 0 38 0;
#X connect 37 0 39 0;
#X connect 37 1 91 0;
#X connect 37 1 92 0;
#X connect 38 0 21 0;
#X connect 39 0 20 0;
#X connect 40 0 5 0;
#X connect 40 0 121 0;
#X connect 41 0 51 0;
#X connect 42 0 31 0;
#X connect 43 0 41 1;
#X connect 43 0 42 1;
#X connect 43 0 49 1;
#X connect 44 0 40 0;
#X connect 45 0 26 0;
#X connect 45 1 26 1;
#X connect 47 0 12 0;
#X connect 47 0 120 0;
#X connect 48 0 49 0;
#X connect 49 0 50 0;
#X connect 52 0 6 0;
#X connect 55 0 53 0;
#X connect 56 0 54 0;
#X connect 57 0 66 0;
#X connect 57 0 148 0;
#X connect 57 1 60 1;
#X connect 57 1 61 1;
#X connect 58 0 57 0;
#X connect 58 1 57 1;
#X connect 59 0 58 0;
#X connect 60 0 150 0;
#X connect 61 0 65 0;
#X connect 62 0 64 0;
#X connect 63 0 55 0;
#X connect 64 0 149 0;
#X connect 65 0 56 0;
#X connect 66 0 60 0;
#X connect 66 1 61 0;
#X connect 67 0 68 0;
#X connect 68 1 69 0;
#X connect 69 0 70 0;
#X connect 70 0 5 0;
#X connect 71 0 140 0;
#X connect 72 0 48 0;
#X connect 72 1 48 1;
#X connect 73 0 74 0;
#X connect 74 0 75 0;
#X connect 74 1 94 0;
#X connect 75 0 79 0;
#X connect 76 0 81 1;
#X connect 76 0 82 1;
#X connect 77 0 76 0;
#X connect 78 0 76 0;
#X connect 79 0 83 0;
#X connect 80 0 83 1;
#X connect 81 0 80 0;
#X connect 82 0 80 1;
#X connect 82 0 84 1;
#X connect 83 0 84 0;
#X connect 84 0 85 0;
#X connect 84 0 10 0;
#X connect 86 0 81 0;
#X connect 86 1 78 0;
#X connect 86 2 82 0;
#X connect 86 3 77 0;
#X connect 87 0 88 0;
#X connect 88 0 89 0;
#X connect 88 1 93 0;
#X connect 89 0 90 0;
#X connect 90 0 12 0;
#X connect 91 0 38 1;
#X connect 92 0 39 1;
#X connect 93 0 89 1;
#X connect 94 0 75 1;
#X connect 95 0 47 0;
#X connect 96 0 95 0;
#X connect 97 0 98 0;
#X connect 98 0 105 0;
#X connect 98 1 99 1;
#X connect 99 0 100 0;
#X connect 104 0 86 0;
#X connect 105 0 99 0;
#X connect 105 1 100 1;
#X connect 106 0 103 0;
#X connect 106 0 102 0;
#X connect 107 0 108 0;
#X connect 107 1 110 1;
#X connect 107 2 109 0;
#X connect 107 2 110 2;
#X connect 108 0 110 0;
#X connect 109 0 108 1;
#X connect 110 0 41 0;
#X connect 110 0 49 0;
#X connect 111 0 28 0;
#X connect 112 0 27 0;
#X connect 113 0 115 0;
#X connect 114 0 8 1;
#X connect 115 0 7 0;
#X connect 115 1 114 0;
#X connect 116 0 24 0;
#X connect 117 0 83 0;
#X connect 119 0 118 0;
#X connect 120 0 122 0;
#X connect 121 0 122 0;
#X connect 123 0 124 0;
#X connect 125 0 123 0;
#X connect 126 0 128 0;
#X connect 129 0 127 0;
#X connect 130 0 136 0;
#X connect 130 0 133 0;
#X connect 130 1 135 0;
#X connect 130 1 134 0;
#X connect 131 0 130 0;
#X connect 132 0 131 0;
#X connect 133 0 123 0;
#X connect 134 0 123 0;
#X connect 137 0 13 0;
#X connect 137 0 125 0;
#X connect 137 1 134 0;
#X connect 137 1 136 0;
#X connect 137 2 135 0;
#X connect 138 0 18 0;
#X connect 138 1 18 0;
#X connect 138 2 18 0;
#X connect 139 0 107 0;
#X connect 140 0 141 0;
#X connect 140 1 144 0;
#X connect 141 0 6 0;
#X connect 142 0 16 0;
#X connect 143 0 141 1;
#X connect 144 0 145 0;
#X connect 144 1 143 0;
#X connect 145 0 141 1;
#X connect 146 0 107 0;
#X connect 147 0 31 0;
#X connect 149 0 151 0;
#X connect 150 0 62 0;
#X connect 151 0 63 0;
#X restore 471 26 pd midi;
#X msg 345 299 enbl \$1;
#X msg 351 266 1;
#X msg 381 263 0;
#X obj 423 156 stepper 1;
#X msg 162 283 enbl 1;
#X msg 158 302 enbl 0;
#X obj 452 72 pitchmapper;
#X obj 580 370 s seq_edit;
#X msg 581 336 1;
#X msg 610 337 0;
#X obj 594 296 loadbang;
#X msg 668 333 1;
#X msg 697 334 0;
#X obj 667 367 s direct_midi;
#X floatatom 699 106 5 0 0 0 - - -, f 5;
#X msg 637 -53 400;
#X obj 651 -85 loadbang;
#X obj 628 58 spigot;
#X floatatom 735 21 5 0 0 0 - - -, f 5;
#X obj 678 38 > 0.99;
#N canvas 264 233 450 300 klick 0;
#X obj 128 193 dac~;
#X obj 31 14 noise~;
#X obj 225 -56 r clock;
#X obj 173 -23 sel 0 4 8 12;
#X obj 173 185 line~;
#X msg 181 59 1;
#X obj 129 150 *~;
#X msg 234 123 0;
#X obj 185 82 t f b;
#X obj 235 89 delay 50;
#X obj 184 160 pack 0 10;
#X obj 33 50 bp~ 2000 5;
#X obj 103 18 osc~ 700;
#X connect 2 0 3 0;
#X connect 3 0 5 0;
#X connect 3 1 5 0;
#X connect 3 2 5 0;
#X connect 3 3 5 0;
#X connect 4 0 6 1;
#X connect 5 0 8 0;
#X connect 6 0 0 0;
#X connect 6 0 0 1;
#X connect 7 0 10 0;
#X connect 8 0 10 0;
#X connect 8 1 9 0;
#X connect 9 0 7 0;
#X connect 10 0 4 0;
#X connect 11 0 6 0;
#X restore 458 97 pd klick;
#X obj 100 100 bng 40 250 50 0 empty empty home 7 20 0 12 -228856 -1
-1;
#X obj 582 -3 helmholtz~ 2048 1;
#X obj 581 -88 adc~ 1;
#X obj 170 220 t b b b b;
#X msg 304 398 \; stepper2 spd 0.8;
#X obj 204 -109 bng 15 250 50 0 empty empty empty 17 7 0 10 -262144
-1 -1;
#X obj 210 -89 t b;
#X obj 226 -116 loadbang;
#X msg 221 -67 jpnevulator --tty /dev/ttyUSB0;
#X msg 223 279 pos 0;
#X msg 218 300 pos 5000;
#X msg 191 256 spd 1;
#X msg 237 256 spd 0.4;
#N canvas 0 177 936 560 output 0;
#X obj 154 160 unpack;
#X obj 154 487 s stepper1;
#X obj 154 393 tabread pitchtable;
#X msg 154 422 pos \$1;
#X msg 187 460 spd \$1;
#X obj 154 122 r channel1-1;
#X obj 344 156 unpack;
#X obj 344 118 r channel1-2;
#X obj 344 484 s pick;
#X msg 344 317 hit;
#X msg 375 317 mute;
#X msg 408 317 unmute;
#X obj 474 153 unpack;
#X obj 474 115 r channel1-3;
#X obj 488 483 s kickup;
#X obj 575 154 unpack;
#X obj 575 116 r channel1-4;
#X obj 608 480 s stepper2;
#X msg 608 389 pos \$1;
#X msg 765 389 spd \$1;
#X obj 687 153 unpack;
#X obj 687 116 r channel1-5;
#X obj 154 214 - 0;
#X obj 344 267 sel 0 1 2;
#X obj 513 247 sel -1;
#X obj 225 226 >= 0;
#X obj 193 201 t f f;
#X obj 154 283 spigot;
#X obj 193 255 sel -1;
#X obj 614 222 sel -1;
#X obj 726 223 sel -1;
#X obj 383 185 >= 0;
#X obj 344 220 spigot;
#X obj 608 313 * 1300;
#X obj 408 238 sel -1;
#X obj 575 188 sel -1;
#X msg 575 351 0;
#X obj 687 247 sel -1;
#X msg 687 372 1;
#X obj 115 190 sel -1;
#X msg 115 283 0, f 2;
#X connect 0 0 39 0;
#X connect 0 1 26 0;
#X connect 2 0 3 0;
#X connect 3 0 1 0;
#X connect 4 0 1 0;
#X connect 5 0 0 0;
#X connect 6 0 32 0;
#X connect 6 0 34 0;
#X connect 6 1 31 0;
#X connect 7 0 6 0;
#X connect 9 0 8 0;
#X connect 10 0 8 0;
#X connect 11 0 8 0;
#X connect 12 1 24 0;
#X connect 13 0 12 0;
#X connect 15 0 35 0;
#X connect 15 1 29 0;
#X connect 16 0 15 0;
#X connect 18 0 17 0;
#X connect 19 0 17 0;
#X connect 20 0 37 0;
#X connect 20 1 30 0;
#X connect 21 0 20 0;
#X connect 22 0 27 0;
#X connect 23 0 9 0;
#X connect 23 1 10 0;
#X connect 23 2 11 0;
#X connect 24 1 14 0;
#X connect 25 0 27 1;
#X connect 26 0 28 0;
#X connect 26 1 25 0;
#X connect 27 0 2 0;
#X connect 28 1 4 0;
#X connect 29 1 33 0;
#X connect 30 1 19 0;
#X connect 31 0 32 1;
#X connect 32 0 23 0;
#X connect 33 0 18 0;
#X connect 34 0 11 0;
#X connect 35 0 36 0;
#X connect 36 0 18 0;
#X connect 37 0 38 0;
#X connect 38 0 19 0;
#X connect 39 0 40 0;
#X connect 39 1 22 0;
#X connect 40 0 3 0;
#X restore 469 138 pd output;
#X obj 501 155 stepper 2;
#X msg 210 13 open 1;
#X obj 180 161 print;
#X connect 2 0 0 0;
#X connect 3 0 55 0;
#X connect 5 0 6 0;
#X connect 5 0 14 0;
#X connect 8 0 9 0;
#X connect 9 0 13 0;
#X connect 10 0 9 0;
#X connect 11 0 9 0;
#X connect 17 0 9 0;
#X connect 18 0 9 0;
#X connect 21 0 24 0;
#X connect 23 0 22 0;
#X connect 25 0 26 0;
#X connect 27 0 24 0;
#X connect 29 0 28 0;
#X connect 30 0 22 0;
#X connect 31 0 22 0;
#X connect 33 0 22 0;
#X connect 34 0 33 0;
#X connect 35 0 33 0;
#X connect 37 0 24 0;
#X connect 38 0 24 0;
#X connect 41 0 40 0;
#X connect 42 0 40 0;
#X connect 43 0 44 0;
#X connect 44 0 46 0;
#X connect 45 0 46 0;
#X connect 48 0 3 1;
#X connect 49 0 48 0;
#X connect 50 0 5 0;
#X connect 52 0 50 1;
#X connect 54 0 57 0;
#X connect 55 1 47 0;
#X connect 55 1 50 0;
#X connect 55 2 51 0;
#X connect 55 2 52 0;
#X connect 56 0 3 0;
#X connect 57 0 21 0;
#X connect 57 1 23 0;
#X connect 57 2 37 0;
#X connect 57 3 34 0;
#X connect 59 0 60 0;
#X connect 60 0 69 0;
#X connect 60 0 62 0;
#X connect 61 0 60 0;
#X connect 62 0 12 0;
#X connect 63 0 24 0;
#X connect 64 0 24 0;
#X connect 65 0 24 0;
#X connect 66 0 24 0;
#X connect 69 0 9 0;
#X coords 0 -1 1 1 40 40 2 100 100;
