#N canvas 2 244 1041 701 10;
#X obj 100 100 cnv 15 130 200 empty empty empty 20 12 0 14 -191407
-66577 0;
#N canvas 2 84 1041 705 colors 0;
#X obj 350 307 r colors;
#X msg 325 436 color -1.22149e+07 -1.22149e+07 -723725;
#X obj 319 491 s \$0-muteC;
#X obj 333 121 sel 0 1;
#X obj 325 86 r \$0-muteS;
#X obj 350 263 s \$0-muteR;
#X obj 402 95 r \$0-muteC;
#X obj 455 66 r \$0-offC;
#X obj 472 477 s \$0-offC;
#X msg 330 208 color -1.22149e+07 -1.22149e+07 -723725;
#X msg 402 174 color -1.31586e+07 -1.31586e+07 -592653;
#X obj 351 350 route mute standard;
#X obj 773 306 r colors;
#X obj 878 65 r \$0-offC;
#X msg 753 207 color -7.51071e+06 -7.51071e+06 -723725;
#X msg 825 173 color -1.31586e+07 -1.31586e+07 -592653;
#X obj 748 85 r \$0-soloS;
#X obj 825 94 r \$0-soloC;
#X obj 773 262 s \$0-soloR;
#X obj 774 349 route solo;
#X obj 742 490 s \$0-soloC;
#X obj 756 120 sel 1 0;
#X msg 484 403 set color \$1 \$1 \$3;
#X msg 351 405 set color \$1 \$1 \$3;
#X msg 774 404 set color \$1 \$1 \$3;
#X obj -2 120 sel 0 1;
#X obj 65 95 r \$0-muteC;
#X obj 120 65 r \$0-offC;
#X msg -5 207 color -1.22149e+07 -1.22149e+07 -723725;
#X msg 67 173 color -1.31586e+07 -1.31586e+07 -592653;
#X obj -7 70 r \$0-mute_VS-S;
#X obj 15 262 s \$0-mute_VS-R;
#X obj 78 328 r \$0-offC;
#X msg -47 470 color -7.51071e+06 -7.51071e+06 -723725;
#X msg 25 436 color -1.31586e+07 -1.31586e+07 -592653;
#X obj 25 357 r \$0-soloC;
#X obj -44 383 sel 1 0;
#X obj -52 348 r \$0-LR-S;
#X obj -27 525 s \$0-LR-R;
#X connect 0 0 11 0;
#X connect 3 0 9 0;
#X connect 3 1 10 0;
#X connect 4 0 3 0;
#X connect 6 0 9 0;
#X connect 7 0 10 0;
#X connect 9 0 5 0;
#X connect 10 0 5 0;
#X connect 11 0 23 0;
#X connect 11 1 22 0;
#X connect 12 0 19 0;
#X connect 13 0 15 0;
#X connect 14 0 18 0;
#X connect 15 0 18 0;
#X connect 16 0 21 0;
#X connect 17 0 14 0;
#X connect 19 0 24 0;
#X connect 21 0 14 0;
#X connect 21 1 15 0;
#X connect 22 0 8 0;
#X connect 23 0 1 0;
#X connect 23 0 2 0;
#X connect 24 0 20 0;
#X connect 25 0 28 0;
#X connect 25 1 29 0;
#X connect 26 0 28 0;
#X connect 27 0 29 0;
#X connect 28 0 31 0;
#X connect 29 0 31 0;
#X connect 30 0 25 0;
#X connect 32 0 34 0;
#X connect 33 0 38 0;
#X connect 34 0 38 0;
#X connect 35 0 33 0;
#X connect 36 0 33 0;
#X connect 36 1 34 0;
#X connect 37 0 36 0;
#X restore 107 22 pd colors;
#N canvas 127 172 1041 701 volL 0;
#X obj 249 392 s 2pLoopA;
#X obj 248 317 pack f \$1;
#X obj 172 326 r fromA;
#X obj 169 375 route \$1;
#X obj 167 404 route aEnv;
#X obj 156 105 vu 50 120 empty empty -1 -8 0 10 -66577 -1 0 0;
#X obj 164 451 change;
#X obj 182 232 tgl 25 0 \$0-muteS \$0-muteR M 5 10 0 20 -208050 -208050
-8324 1 1;
#X msg 249 349 \$2 mute \$1;
#X obj 22 197 loadbang;
#X msg 22 226 1;
#X obj 340 275 tgl 25 0 \$0-soloS \$0-soloR S 5 10 0 20 -117166 -117166
-8324 0 1;
#X obj 331 315 pack f \$1;
#X obj 333 391 s 2pLoopA;
#X msg 332 347 \$2 solo \$1;
#X obj 276 -243 r ctlInput;
#X obj 276 -163 route \$1;
#X obj 351 -166 route \$1;
#X obj 351 -137 change;
#X obj 252 -110 s \$0-fader;
#X obj 444 283 r \$0-fader;
#X obj 351 -110 sel 1;
#X obj 351 -80 s \$0-mute;
#X obj -14 103 r \$0-mute;
#X obj 333 247 r \$0-solo;
#X obj 445 307 pack f \$1;
#X obj 447 383 s 2pLoopA;
#X msg 446 339 \$2 vol \$1;
#X obj 276 -192 route fader buttons pot;
#X obj 53 344 pack f \$1;
#X obj 55 420 s 2pLoopA;
#X msg 54 376 \$2 pan \$1;
#X obj 18 6 vsl 25 75 0 1 0 0 empty empty empty 0 -9 0 10 -220535 -104025
-104025 0 1;
#X obj 85 26 r color_Standard;
#X obj -61 -228 \$1;
#X obj -61 -259 loadbang;
#X obj 303 40 pack f \$1;
#X obj 303 -15 f;
#X obj 303 13 spigot;
#X obj 225 -1 t f f;
#X msg 246 66 0;
#X obj 225 40 sel 1 0;
#X obj 66 -103 r preset;
#X obj 66 -82 t f f;
#X obj 82 -60 tabwrite loop_mute-\$1;
#X obj 58 -30 tabread loop_mute-\$1;
#X obj -63 -147 table loop_mute-\$1;
#X obj 386 26 s \$0-fader;
#X obj -12 -28 r \$0-fader;
#X msg -61 -199 \; loop_mute-\$1 const 1;
#X obj 102 155 tgl 50 0 \$0-followR \$0-followS Fllw 0 14 0 20 -220535
-104025 -104025 0 1;
#X obj 875 331 s follow-\$1;
#X msg 858 394 follow \$1;
#X msg 797 386 rst;
#X obj 831 441 s chCtl-\$1;
#X obj 511 171 bng 45 250 50 0 empty empty Reset 17 7 0 10 -220535
-104025 -104025;
#X obj 102 102 tgl 50 0 empty color_Standard oO 3 14 0 20 -220535 -104025
-104025 0 1;
#X msg 733 360 onlyOne \$1;
#X obj 765 101 r color_Standard;
#X obj 102 208 tgl 50 0 \$0-LR-S \$0-LR-R LR 3 14 0 20 -117166 -117166
-8324 1 1;
#X obj 59 280 sel 0 1;
#X obj 302 71 loadbang;
#X obj 301 137 > 4;
#X obj 301 112 \$1;
#X msg 59 303 1;
#X msg 100 305 -1;
#X obj 302 92 delay 50;
#X connect 1 0 8 0;
#X connect 2 0 3 0;
#X connect 3 0 4 0;
#X connect 4 0 6 0;
#X connect 6 0 5 0;
#X connect 7 0 44 0;
#X connect 7 0 39 0;
#X connect 7 0 1 0;
#X connect 8 0 0 0;
#X connect 9 0 10 0;
#X connect 10 0 7 0;
#X connect 11 0 12 0;
#X connect 12 0 14 0;
#X connect 14 0 13 0;
#X connect 15 0 28 0;
#X connect 16 0 37 0;
#X connect 16 0 47 0;
#X connect 17 0 18 0;
#X connect 18 0 21 0;
#X connect 20 0 25 0;
#X connect 21 0 22 0;
#X connect 23 0 7 0;
#X connect 25 0 27 0;
#X connect 27 0 26 0;
#X connect 28 0 16 0;
#X connect 28 1 17 0;
#X connect 29 0 31 0;
#X connect 31 0 30 0;
#X connect 33 0 32 0;
#X connect 34 0 49 0;
#X connect 35 0 34 0;
#X connect 37 0 38 0;
#X connect 38 0 36 0;
#X connect 39 0 41 0;
#X connect 39 1 38 1;
#X connect 40 0 36 0;
#X connect 41 0 37 0;
#X connect 41 1 40 0;
#X connect 42 0 43 0;
#X connect 43 0 45 0;
#X connect 43 1 44 1;
#X connect 45 0 7 0;
#X connect 50 0 51 0;
#X connect 50 0 52 0;
#X connect 52 0 54 0;
#X connect 53 0 54 0;
#X connect 55 0 53 0;
#X connect 56 0 57 0;
#X connect 57 0 54 0;
#X connect 58 0 50 0;
#X connect 58 0 55 0;
#X connect 58 0 59 0;
#X connect 59 0 60 0;
#X connect 60 0 64 0;
#X connect 60 1 65 0;
#X connect 61 0 66 0;
#X connect 62 0 59 0;
#X connect 63 0 62 0;
#X connect 64 0 29 0;
#X connect 65 0 29 0;
#X connect 66 0 63 0;
#X coords 0 -1 1 1 110 160 2 100 100;
#X restore 110 101 pd volL;
#N canvas 72 230 1041 701 volV 0;
#X obj 388 -277 r ctlInput;
#X obj 388 -195 route \$1;
#X obj 388 182 s toAll;
#X obj 388 107 pack f \$1;
#X msg 388 145 vsample vol \$2 \$1;
#X obj 52 60 r color_Standard;
#X obj 181 101 tgl 25 0 \$0-mute_VS-S \$0-mute_VS-R M 5 10 0 20 -208050
-208050 -8324 1 1;
#X obj 105 -280 \$1;
#X obj 105 -311 loadbang;
#X obj 134 -51 r preset;
#X obj 388 -225 route pot buttons pot;
#X obj 388 -157 * -1;
#X obj 388 -119 + 1;
#X obj 388 -13 f;
#X obj 274 -134 route;
#X obj 301 -182 \$1;
#X obj 301 -159 + 8;
#X obj 301 -215 loadbang;
#X obj 274 -108 change;
#X obj 274 -82 sel 1;
#X obj 388 29 spigot;
#X obj 316 11 t f f;
#X msg 388 73 0;
#X obj 316 55 sel 1 0;
#X obj 105 -201 table vsmp_mute-\$1;
#X obj 134 -17 t f f;
#X obj 134 191 tabwrite vsmp_mute-\$1;
#X obj 134 25 tabread vsmp_mute-\$1;
#X msg 105 -249 \; vsmp_mute-\$1 const 1;
#X obj 104 101 hsl 70 25 0 1 0 0 empty empty empty -2 -8 0 10 -220535
-104025 -104025 6900 1;
#X obj 223 58 loadbang;
#X msg 223 83 1;
#X obj 465 -199 loadbang;
#X msg 465 -174 0;
#X connect 0 0 10 0;
#X connect 1 0 11 0;
#X connect 3 0 4 0;
#X connect 4 0 2 0;
#X connect 5 0 29 0;
#X connect 6 0 21 0;
#X connect 6 0 26 0;
#X connect 7 0 28 0;
#X connect 8 0 7 0;
#X connect 9 0 25 0;
#X connect 10 0 1 0;
#X connect 10 1 14 0;
#X connect 11 0 12 0;
#X connect 12 0 13 0;
#X connect 12 0 29 0;
#X connect 13 0 20 0;
#X connect 14 0 18 0;
#X connect 15 0 16 0;
#X connect 16 0 14 1;
#X connect 17 0 15 0;
#X connect 18 0 19 0;
#X connect 19 0 6 0;
#X connect 20 0 3 0;
#X connect 21 0 23 0;
#X connect 21 1 20 1;
#X connect 22 0 3 0;
#X connect 23 0 13 0;
#X connect 23 1 22 0;
#X connect 25 0 27 0;
#X connect 25 1 26 1;
#X connect 27 0 6 0;
#X connect 30 0 31 0;
#X connect 31 0 6 0;
#X connect 32 0 33 0;
#X connect 33 0 11 0;
#X coords 0 -1 1 1 110 27 2 100 100;
#X restore 110 269 pd volV;
#X coords 0 -1 1 1 130 200 1 100 100;
