#N canvas 335 202 543 532 10;
#X obj 47 78 gemhead;
#X obj 47 5 inlet;
#X obj 47 279 t a b;
#X obj 47 406 gemvertexbuffer 8192;
#X obj 391 80 until;
#X msg 391 56 8192;
#X obj 391 104 f;
#X obj 422 105 + 1;
#X msg 441 76 0;
#X obj 391 147 / 8191;
#X obj 445 24 bng 15 250 50 0 empty empty empty 17 7 0 10 -262144 -1
-1;
#X obj 391 126 t f f;
#X obj 391 190 * 7;
#X obj 391 169 - 0.5;
#X msg 82 384 draw linestrip;
#X obj 82 363 loadbang;
#X obj 63 30 loadbang;
#X msg 63 52 0;
#X obj 391 211 tabwrite \$0phasor;
#X obj 79 306 i \$0;
#X obj 15 157 scale 1;
#X floatatom 52 115 5 0 0 0 - - -, f 5;
#X obj 383 31 t b b;
#X msg 227 395 draw points;
#X msg 23 58 1;
#X msg 164 49 \; vbufferX sinesum 100 1 \; vbufferY sinesum 100 0.5
;
#X msg 79 342 posX vbufferX \, posY vbufferY;
#X obj 144 196 tabwrite vbufferY;
#X obj 142 158 tabwrite vbufferX;
#X connect 0 0 20 0;
#X connect 1 0 0 0;
#X connect 2 0 3 0;
#X connect 2 1 19 0;
#X connect 4 0 6 0;
#X connect 5 0 4 0;
#X connect 6 0 7 0;
#X connect 6 0 11 0;
#X connect 7 0 6 1;
#X connect 8 0 6 1;
#X connect 9 0 13 0;
#X connect 10 0 22 0;
#X connect 11 0 9 0;
#X connect 11 1 18 1;
#X connect 12 0 18 0;
#X connect 13 0 12 0;
#X connect 14 0 3 0;
#X connect 15 0 14 0;
#X connect 16 0 17 0;
#X connect 17 0 0 0;
#X connect 19 0 26 0;
#X connect 20 0 2 0;
#X connect 21 0 20 1;
#X connect 22 0 5 0;
#X connect 22 1 8 0;
#X connect 23 0 3 0;
#X connect 24 0 0 0;
#X connect 26 0 3 0;
