#N canvas 494 97 577 416 10;
#N canvas 36 242 833 396 midiIn 0;
#X obj 156 29 midirealtimein;
#X obj 161 193 int;
#X obj 156 87 sel 248 250 252;
#X obj 160 262 + 1;
#X msg 251 125 -1;
#X msg 257 148 0;
#X msg 171 123 -1;
#X obj 101 134 spigot;
#X floatatom 225 249 5 0 0 0 - - -;
#X obj 72 247 s clock;
#X obj 524 51 notein;
#X obj 481 275 s midiNote;
#X obj 524 91 pack 0 0 0;
#X obj 643 45 ctlin;
#X obj 643 128 s midiCC;
#X obj 643 87 pack 0 0 0;
#X floatatom 445 84 5 0 0 0 - - -;
#X floatatom 447 40 5 0 0 0 - - -;
#X floatatom 586 39 5 0 0 0 - - -;
#X obj 524 122 t a a;
#X obj 423 137 unpack f f f;
#X obj 423 215 pack f f f;
#X obj 423 189 pipe 50;
#X obj 423 255 spigot;
#X obj 467 234 tgl 15 0 empty empty empty 17 7 0 10 -262144 -1 -1 0
1;
#X obj 585 161 unpack f f f;
#X obj 585 239 pack f f f;
#X obj 585 279 spigot;
#X obj 629 258 tgl 15 0 empty empty empty 17 7 0 10 -262144 -1 -1 0
1;
#X msg 423 164 47;
#X obj 611 185 sel 0;
#X msg 609 207 0;
#X msg 639 207 127;
#X obj 504 216 spigot;
#X obj 548 195 tgl 15 0 empty empty empty 17 7 0 10 -262144 -1 -1 0
1;
#X connect 0 0 2 0;
#X connect 1 0 3 0;
#X connect 2 0 7 0;
#X connect 2 1 6 0;
#X connect 2 2 4 0;
#X connect 3 0 1 1;
#X connect 3 0 8 0;
#X connect 3 0 9 0;
#X connect 4 0 1 1;
#X connect 4 0 5 0;
#X connect 5 0 7 1;
#X connect 6 0 1 0;
#X connect 6 0 7 1;
#X connect 7 0 1 0;
#X connect 10 0 12 0;
#X connect 10 0 16 0;
#X connect 10 1 12 1;
#X connect 10 1 17 0;
#X connect 10 2 12 2;
#X connect 10 2 18 0;
#X connect 12 0 19 0;
#X connect 13 0 15 0;
#X connect 13 1 15 1;
#X connect 13 2 15 2;
#X connect 15 0 14 0;
#X connect 19 0 20 0;
#X connect 19 1 25 0;
#X connect 19 1 33 0;
#X connect 20 0 29 0;
#X connect 20 1 21 1;
#X connect 20 2 21 2;
#X connect 21 0 23 0;
#X connect 22 0 21 0;
#X connect 23 0 11 0;
#X connect 24 0 23 1;
#X connect 25 0 26 0;
#X connect 25 1 30 0;
#X connect 25 2 26 2;
#X connect 26 0 27 0;
#X connect 27 0 11 0;
#X connect 28 0 27 1;
#X connect 29 0 22 0;
#X connect 30 0 31 0;
#X connect 30 1 32 0;
#X connect 31 0 26 1;
#X connect 32 0 26 1;
#X connect 33 0 11 0;
#X connect 34 0 33 1;
#X restore 72 54 pd midiIn;
#N canvas 3477 563 1280 653 netA 0;
#X obj 243 107 list prepend send;
#X obj 243 133 list trim;
#X obj 243 53 r toAll;
#X obj 689 43 r clock;
#X obj 243 82 list prepend omni;
#X obj 519 513 s fromG;
#X obj 58 66 list prepend send;
#X obj 58 91 list trim;
#X obj 58 9 r 2pLoopG;
#X obj 58 39 list prepend 2pLoopG;
#X obj 518 480 route 2pLoopA;
#X obj 689 118 list prepend send;
#X obj 689 146 list trim;
#X obj 775 145 loadbang;
#X obj 689 189 netsend -u;
#X msg 775 172 connect 192.168.1.255 8099;
#X obj 243 184 netsend -u;
#X obj 91 409 netreceive -u 8010;
#X obj 91 612 shell;
#X msg 158 595 sudo date --set='2017-10-27 21:00:00';
#X obj 91 447 route date time;
#X obj 91 534 pack 0 s s;
#X obj 136 497 symbol;
#X obj 184 482 symbol;
#X obj 91 473 t b a;
#X msg 91 569 sudo date --set='\$2 \$3';
#X obj 367 25 r broadcastAddr;
#X obj 367 53 t a b;
#X msg 394 79 disconnect;
#X obj 367 167 t a;
#X msg 367 134 connect \$1 8006;
#X obj 367 105 symbol;
#X obj 571 30 r broadcastAddr;
#X obj 571 58 t a b;
#X msg 598 84 disconnect;
#X obj 571 172 t a;
#X obj 571 110 symbol;
#X msg 571 139 connect \$1 8099;
#X obj 689 83 spigot;
#X obj 748 65 r run;
#X obj 674 441 netreceive -u 8099;
#X obj 674 483 spigot;
#X obj 750 489 r run;
#X obj 750 516 == 0;
#X obj 674 521 s clock;
#X obj 382 447 netreceive -u 8000;
#X obj 382 517 s fromAll;
#X obj 56 176 r midiNote;
#X obj 56 236 list prepend send;
#X obj 56 261 list trim;
#X obj 56 204 list prepend note;
#X obj 213 296 list prepend send;
#X obj 213 321 list trim;
#X obj 213 268 list prepend GHarp;
#X obj 213 243 list prepend cc;
#X obj 213 215 r midiCC;
#X obj 364 277 list prepend send;
#X obj 364 302 list trim;
#X obj 364 216 r pitch;
#X obj 364 244 list prepend tune;
#X obj 519 443 netreceive -u 8006;
#X obj 466 556 route GregNote;
#X obj 477 595 s GregNote;
#X connect 0 0 1 0;
#X connect 1 0 16 0;
#X connect 2 0 4 0;
#X connect 3 0 38 0;
#X connect 4 0 0 0;
#X connect 6 0 7 0;
#X connect 7 0 16 0;
#X connect 8 0 9 0;
#X connect 9 0 6 0;
#X connect 10 0 5 0;
#X connect 11 0 12 0;
#X connect 12 0 14 0;
#X connect 13 0 15 0;
#X connect 15 0 14 0;
#X connect 17 0 20 0;
#X connect 19 0 18 0;
#X connect 20 0 24 0;
#X connect 20 1 23 0;
#X connect 21 0 25 0;
#X connect 22 0 21 1;
#X connect 23 0 21 2;
#X connect 24 0 21 0;
#X connect 24 1 22 0;
#X connect 25 0 18 0;
#X connect 26 0 27 0;
#X connect 27 0 31 0;
#X connect 27 1 28 0;
#X connect 28 0 29 0;
#X connect 29 0 16 0;
#X connect 30 0 29 0;
#X connect 31 0 30 0;
#X connect 32 0 33 0;
#X connect 33 0 36 0;
#X connect 33 1 34 0;
#X connect 34 0 35 0;
#X connect 35 0 14 0;
#X connect 36 0 37 0;
#X connect 37 0 35 0;
#X connect 38 0 11 0;
#X connect 39 0 38 1;
#X connect 40 0 41 0;
#X connect 41 0 44 0;
#X connect 42 0 43 0;
#X connect 43 0 41 1;
#X connect 45 0 46 0;
#X connect 47 0 50 0;
#X connect 48 0 49 0;
#X connect 49 0 16 0;
#X connect 50 0 48 0;
#X connect 51 0 52 0;
#X connect 52 0 16 0;
#X connect 53 0 51 0;
#X connect 54 0 53 0;
#X connect 55 0 54 0;
#X connect 56 0 57 0;
#X connect 57 0 16 0;
#X connect 58 0 59 0;
#X connect 59 0 56 0;
#X connect 60 0 10 0;
#X connect 60 0 61 0;
#X connect 61 0 62 0;
#X restore 125 97 pd netA;
#X obj 274 117 s broadcastAddr;
#X msg 274 59 localhost;
#X msg 309 84 192.168.1.255;
#X obj 274 21 loadbang;
#N canvas 1068 436 785 433 midiout 0;
#X msg 108 212 248;
#X msg 140 220 250;
#X obj 220 162 int;
#X obj 256 179 + 1;
#X obj 218 90 t b b;
#X msg 220 113 1;
#X msg 293 109 0;
#X obj 220 206 sel 1;
#X msg 221 251 252;
#X obj 108 296 midiout;
#X obj 220 139 metro 250;
#X obj 108 -42 r clock;
#X obj 108 73 t f f b;
#N canvas 193 97 785 400 toVolcaSample 0;
#X obj 125 169 route note cc;
#X obj 125 374 noteout;
#X obj 125 243 unpack f f f;
#X msg 287 339 1;
#X msg 317 344 2;
#X msg 350 345 3;
#X msg 396 345 4;
#X obj 235 387 t f;
#X obj 125 290 t f b f;
#X obj 166 316 int;
#X obj 166 339 sel 0;
#X obj 171 418 ctlout 7 1;
#X obj 296 307 sel 36 37 41 38 40 42;
#X obj 125 12 r toAll;
#X obj 193 -2 r fromAll;
#X obj 125 60 route midiin;
#X msg 440 347 11;
#X msg 485 349 4;
#X obj 237 186 unpack f f f;
#X obj 237 240 spigot;
#X obj 271 212 == 4;
#X obj 237 273 ctlout 44 1;
#X obj 316 273 ctlout 44 2;
#X obj 391 273 ctlout 44 3;
#X obj 470 273 ctlout 44 4;
#X obj 281 56 route vol;
#X obj 323 117 * 127;
#X obj 410 117 * 127;
#X obj 492 121 * 127;
#X obj 579 121 * 127;
#X obj 323 149 ctlout 7 1;
#X obj 410 147 ctlout 7 2;
#X obj 492 149 ctlout 7 3;
#X obj 579 151 ctlout 7 4;
#X obj 654 119 * 127;
#X obj 741 119 * 127;
#X obj 823 123 * 127;
#X obj 910 123 * 127;
#X obj 534 40 route 1 2 3 4 5 6 7 8;
#X obj 741 149 ctlout 7 6;
#X obj 823 151 ctlout 7 7;
#X obj 910 153 ctlout 7 8;
#X obj 654 151 ctlout 7 5;
#X obj 193 23 route omni advance vsample daw;
#X obj -25 97 route midi;
#X obj -25 122 route note;
#X obj -25 155 unpack f f f;
#X obj -26 226 pack;
#X obj -25 191 spigot;
#X obj 56 186 == 10;
#X connect 0 0 2 0;
#X connect 0 1 18 0;
#X connect 2 0 8 0;
#X connect 2 1 1 1;
#X connect 2 1 9 1;
#X connect 3 0 7 0;
#X connect 3 0 1 2;
#X connect 4 0 1 2;
#X connect 4 0 7 0;
#X connect 5 0 1 2;
#X connect 5 0 7 0;
#X connect 6 0 1 2;
#X connect 6 0 7 0;
#X connect 7 0 11 2;
#X connect 8 0 1 0;
#X connect 8 1 9 0;
#X connect 8 2 12 0;
#X connect 9 0 10 0;
#X connect 10 1 11 0;
#X connect 12 0 3 0;
#X connect 12 1 4 0;
#X connect 12 2 5 0;
#X connect 12 3 6 0;
#X connect 12 4 16 0;
#X connect 12 5 17 0;
#X connect 13 0 15 0;
#X connect 14 0 43 0;
#X connect 15 0 0 0;
#X connect 16 0 1 2;
#X connect 16 0 7 0;
#X connect 17 0 1 2;
#X connect 17 0 7 0;
#X connect 18 0 19 0;
#X connect 18 1 20 0;
#X connect 19 0 21 0;
#X connect 19 0 22 0;
#X connect 19 0 23 0;
#X connect 19 0 24 0;
#X connect 20 0 19 1;
#X connect 25 0 38 0;
#X connect 26 0 30 0;
#X connect 27 0 31 0;
#X connect 28 0 32 0;
#X connect 29 0 33 0;
#X connect 34 0 42 0;
#X connect 35 0 39 0;
#X connect 36 0 40 0;
#X connect 37 0 41 0;
#X connect 38 0 26 0;
#X connect 38 1 27 0;
#X connect 38 2 28 0;
#X connect 38 3 29 0;
#X connect 38 4 34 0;
#X connect 38 5 35 0;
#X connect 38 6 36 0;
#X connect 38 7 37 0;
#X connect 43 0 15 0;
#X connect 43 2 25 0;
#X connect 43 3 44 0;
#X connect 44 0 45 0;
#X connect 45 0 46 0;
#X connect 46 0 48 0;
#X connect 46 1 47 1;
#X connect 46 2 49 0;
#X connect 47 0 2 0;
#X connect 48 0 47 0;
#X connect 49 0 48 1;
#X restore 307 19 pd toVolcaSample;
#X obj 108 114 sel 0;
#X obj 108 170 t b b;
#X obj 137 -12 / 2;
#X obj 137 14 int;
#X obj 137 41 change;
#X obj 362 112 r notes;
#X obj 362 143 unpack 0 0 0;
#X floatatom 326 176 5 0 0 0 - - -;
#X floatatom 426 169 5 0 0 0 - - -;
#X obj 471 -10 notein;
#X obj 487 47 makenote 127 50;
#X obj 360 201 noteout 16;
#X obj 502 146 r notes;
#X obj 502 177 unpack 0 0 0;
#X floatatom 466 210 5 0 0 0 - - -;
#X obj 500 235 noteout 1;
#X obj 353 87 makenote 4 150;
#X msg 378 58 36 127;
#X obj 562 140 r GregNote;
#X floatatom 446 25 5 0 0 0 - - -;
#X connect 0 0 9 0;
#X connect 1 0 9 0;
#X connect 2 0 3 0;
#X connect 2 0 7 0;
#X connect 3 0 2 1;
#X connect 4 0 5 0;
#X connect 4 1 6 0;
#X connect 5 0 10 0;
#X connect 6 0 2 1;
#X connect 7 0 8 0;
#X connect 8 0 9 0;
#X connect 10 0 2 0;
#X connect 11 0 12 0;
#X connect 12 0 14 0;
#X connect 12 2 4 0;
#X connect 14 0 15 0;
#X connect 14 1 0 0;
#X connect 15 0 0 0;
#X connect 15 1 1 0;
#X connect 16 0 17 0;
#X connect 17 0 18 0;
#X connect 20 0 21 0;
#X connect 20 0 25 0;
#X connect 20 1 22 0;
#X connect 20 1 25 1;
#X connect 23 0 33 0;
#X connect 23 1 24 1;
#X connect 24 0 25 0;
#X connect 24 1 25 1;
#X connect 27 0 28 0;
#X connect 27 0 29 0;
#X connect 27 1 29 1;
#X connect 30 0 25 0;
#X connect 30 1 25 1;
#X connect 31 0 30 0;
#X restore 84 157 pd midiout;
#X obj 193 243 s run;
#X msg 190 202 1;
#N canvas 643 84 522 757 footpedal 0;
#X obj 95 35 comport 1 115200;
#X msg 74 -27 devices;
#X msg 132 5 open 13;
#X obj 95 61 sel 250;
#X msg 232 96 1;
#X obj 232 117 +;
#X obj 270 133 int;
#X msg 247 75 0;
#X obj 134 217 pack;
#X obj 134 189 spigot;
#X obj 199 187 spigot;
#X obj 134 157 t f b;
#X obj 182 150 == 1;
#X obj 232 149 == 2;
#X obj 134 246 unpack;
#X obj 134 285 - 200;
#X obj 134 535 ctlout;
#X obj 134 470 pack f 3 1;
#X obj 134 499 unpack f f f;
#X obj 134 319 change;
#X obj 134 411 * 11;
#X obj 134 442 + 6;
#X msg 134 364 11;
#X obj 134 387 -;
#X obj 134 343 t b f;
#X obj 154 -20 loadbang;
#X obj 226 394 -;
#X msg 226 365 1;
#X obj 226 334 t b f;
#X obj 226 535 ctlout;
#X obj 226 499 unpack f f f;
#X obj 226 470 pack f 4 1;
#X obj 226 427 * 127;
#X connect 0 0 3 0;
#X connect 1 0 0 0;
#X connect 2 0 0 0;
#X connect 3 0 7 0;
#X connect 3 1 11 0;
#X connect 4 0 5 0;
#X connect 5 0 6 0;
#X connect 5 0 12 0;
#X connect 5 0 13 0;
#X connect 6 0 5 1;
#X connect 7 0 5 1;
#X connect 8 0 14 0;
#X connect 9 0 8 0;
#X connect 10 0 8 1;
#X connect 11 0 9 0;
#X connect 11 0 10 0;
#X connect 11 1 4 0;
#X connect 12 0 9 1;
#X connect 13 0 10 1;
#X connect 14 0 15 0;
#X connect 14 1 28 0;
#X connect 15 0 19 0;
#X connect 17 0 18 0;
#X connect 18 0 16 0;
#X connect 18 1 16 1;
#X connect 18 2 16 2;
#X connect 19 0 24 0;
#X connect 20 0 21 0;
#X connect 21 0 17 0;
#X connect 22 0 23 0;
#X connect 23 0 20 0;
#X connect 24 0 22 0;
#X connect 24 1 23 1;
#X connect 25 0 2 0;
#X connect 26 0 32 0;
#X connect 27 0 26 0;
#X connect 28 0 27 0;
#X connect 28 1 26 1;
#X connect 30 0 29 0;
#X connect 30 1 29 1;
#X connect 30 2 29 2;
#X connect 31 0 30 0;
#X connect 32 0 31 0;
#X restore 73 193 pd footpedal;
#N canvas 1083 109 522 757 footbuttons 0;
#X obj 95 35 comport 1 115200;
#X msg 74 -27 devices;
#X obj 95 61 sel 250;
#X obj 154 -20 loadbang;
#X floatatom 268 171 5 0 0 0 - - -;
#X msg 132 5 open 27;
#X obj 257 114 print;
#X obj 134 118 moses 2;
#X floatatom 85 169 5 0 0 0 - - -;
#X floatatom 199 149 5 0 0 0 - - -;
#X obj 158 367 noteout 32;
#X obj 158 281 int;
#X obj 173 210 - 200;
#X obj 134 211 t b f;
#X obj 201 267 * 127;
#X obj 158 319 + 48;
#X obj 312 42 r 2com;
#X obj 123 596 s 2com;
#X msg 126 560 250 17;
#N canvas 394 315 450 300 fooBtnConv 0;
#X obj 175 10 inlet;
#X obj 175 260 outlet;
#X obj 175 65 unpack;
#X obj 208 132 * 16;
#X msg 175 207 250 \$1;
#X obj 175 111 + 16;
#X obj 175 168 -;
#X connect 0 0 2 0;
#X connect 2 0 5 0;
#X connect 2 1 3 0;
#X connect 3 0 6 1;
#X connect 4 0 1 0;
#X connect 5 0 6 0;
#X connect 6 0 4 0;
#X restore 91 519 pd fooBtnConv;
#X obj 91 350 pack;
#N canvas 539 344 450 300 lastTone 0;
#X obj 185 15 inlet;
#X obj 186 234 outlet;
#X obj 185 40 unpack;
#X obj 185 134 pack f 1;
#X obj 124 135 int;
#X obj 185 93 t f f b;
#X obj 124 161 pack f 0;
#X obj 185 61 change -1;
#X connect 0 0 2 0;
#X connect 2 0 7 0;
#X connect 3 0 1 0;
#X connect 4 0 6 0;
#X connect 5 0 4 1;
#X connect 5 1 3 0;
#X connect 5 2 4 0;
#X connect 6 0 1 0;
#X connect 7 0 5 0;
#X restore 91 449 pd lastTone;
#X obj 279 490 unpack;
#X obj 283 561 noteout 1;
#X obj 316 518 * 127;
#X obj 279 519 + 60;
#X connect 0 0 2 0;
#X connect 1 0 0 0;
#X connect 2 1 4 0;
#X connect 2 1 7 0;
#X connect 3 0 5 0;
#X connect 5 0 0 0;
#X connect 7 0 8 0;
#X connect 7 0 13 0;
#X connect 7 1 9 0;
#X connect 7 1 12 0;
#X connect 11 0 15 0;
#X connect 11 0 20 0;
#X connect 12 0 11 1;
#X connect 13 0 11 0;
#X connect 13 1 14 0;
#X connect 13 1 20 1;
#X connect 14 0 10 1;
#X connect 15 0 10 0;
#X connect 16 0 0 0;
#X connect 18 0 17 0;
#X connect 19 0 17 0;
#X connect 20 0 21 0;
#X connect 21 0 19 0;
#X connect 21 0 22 0;
#X connect 22 0 25 0;
#X connect 22 1 24 0;
#X connect 24 0 23 1;
#X connect 25 0 23 0;
#X restore 299 193 pd footbuttons;
#X obj 192 169 loadbang;
#X connect 4 0 2 0;
#X connect 5 0 3 0;
#X connect 5 0 4 0;
#X connect 8 0 7 0;
#X connect 11 0 8 0;
