#N canvas 179 210 450 300 10;
#N canvas 1215 155 833 300 midiIn 1;
#X obj 156 29 midirealtimein;
#X obj 161 193 int;
#X obj 156 87 sel 248 250 252;
#X obj 160 262 + 1;
#X msg 214 118 -1;
#X msg 220 141 0;
#X msg 171 123 -1;
#X obj 101 134 spigot;
#X obj 72 247 s clock;
#X obj 524 51 notein;
#X obj 524 133 s midiNote;
#X obj 524 91 pack 0 0 0;
#X obj 643 45 ctlin;
#X obj 643 128 s midiCC;
#X obj 643 87 pack 0 0 0;
#X floatatom 445 84 5 0 0 0 - - -;
#X connect 0 0 2 0;
#X connect 1 0 3 0;
#X connect 2 0 7 0;
#X connect 2 1 6 0;
#X connect 3 0 1 1;
#X connect 3 0 8 0;
#X connect 4 0 5 0;
#X connect 4 0 1 1;
#X connect 5 0 7 1;
#X connect 6 0 1 0;
#X connect 6 0 7 1;
#X connect 7 0 1 0;
#X connect 9 0 15 0;
#X connect 9 0 11 0;
#X connect 9 1 11 1;
#X connect 9 2 11 2;
#X connect 12 0 14 0;
#X connect 12 1 14 1;
#X connect 12 2 14 2;
#X connect 14 0 13 0;
#X restore 183 86 pd midiIn;
#N canvas 999 411 785 433 midiout 0;
#X msg 108 212 248;
#X msg 140 220 250;
#X obj 220 162 int;
#X obj 256 179 + 1;
#X obj 218 90 t b b;
#X msg 220 113 1;
#X msg 293 109 0;
#X obj 220 206 sel 1;
#X msg 221 251 252;
#X obj 108 296 midiout;
#X obj 220 139 metro 250;
#X obj 108 -42 r clock;
#X obj 108 73 t f f b;
#N canvas 193 97 785 400 toVolcaSample 0;
#X obj 125 169 route note cc;
#X obj 125 374 noteout;
#X obj 125 243 unpack f f f;
#X msg 287 339 1;
#X msg 317 344 2;
#X msg 350 345 3;
#X msg 396 345 4;
#X obj 235 387 t f;
#X obj 125 290 t f b f;
#X obj 166 316 int;
#X obj 166 339 sel 0;
#X obj 171 418 ctlout 7 1;
#X obj 296 307 sel 36 37 41 38 40 42;
#X obj 125 12 r toAll;
#X obj 193 -2 r fromAll;
#X obj 125 60 route midiin;
#X msg 440 347 11;
#X msg 485 349 4;
#X obj 237 186 unpack f f f;
#X obj 237 240 spigot;
#X obj 271 212 == 4;
#X obj 237 273 ctlout 44 1;
#X obj 316 273 ctlout 44 2;
#X obj 391 273 ctlout 44 3;
#X obj 470 273 ctlout 44 4;
#X obj 281 56 route vol;
#X obj 323 117 * 127;
#X obj 410 117 * 127;
#X obj 492 121 * 127;
#X obj 579 121 * 127;
#X obj 323 149 ctlout 7 1;
#X obj 410 147 ctlout 7 2;
#X obj 492 149 ctlout 7 3;
#X obj 579 151 ctlout 7 4;
#X obj 654 119 * 127;
#X obj 741 119 * 127;
#X obj 823 123 * 127;
#X obj 910 123 * 127;
#X obj 534 40 route 1 2 3 4 5 6 7 8;
#X obj 741 149 ctlout 7 6;
#X obj 823 151 ctlout 7 7;
#X obj 910 153 ctlout 7 8;
#X obj 654 151 ctlout 7 5;
#X obj 193 23 route omni advance vsample daw;
#X obj -25 97 route midi;
#X obj -25 122 route note;
#X obj -25 155 unpack f f f;
#X obj -26 226 pack;
#X obj -25 191 spigot;
#X obj 56 186 == 10;
#X connect 0 0 2 0;
#X connect 0 1 18 0;
#X connect 2 0 8 0;
#X connect 2 1 1 1;
#X connect 2 1 9 1;
#X connect 3 0 7 0;
#X connect 3 0 1 2;
#X connect 4 0 1 2;
#X connect 4 0 7 0;
#X connect 5 0 1 2;
#X connect 5 0 7 0;
#X connect 6 0 1 2;
#X connect 6 0 7 0;
#X connect 7 0 11 2;
#X connect 8 0 1 0;
#X connect 8 1 9 0;
#X connect 8 2 12 0;
#X connect 9 0 10 0;
#X connect 10 1 11 0;
#X connect 12 0 3 0;
#X connect 12 1 4 0;
#X connect 12 2 5 0;
#X connect 12 3 6 0;
#X connect 12 4 16 0;
#X connect 12 5 17 0;
#X connect 13 0 15 0;
#X connect 14 0 43 0;
#X connect 15 0 0 0;
#X connect 16 0 1 2;
#X connect 16 0 7 0;
#X connect 17 0 1 2;
#X connect 17 0 7 0;
#X connect 18 0 19 0;
#X connect 18 1 20 0;
#X connect 19 0 21 0;
#X connect 19 0 22 0;
#X connect 19 0 23 0;
#X connect 19 0 24 0;
#X connect 20 0 19 1;
#X connect 25 0 38 0;
#X connect 26 0 30 0;
#X connect 27 0 31 0;
#X connect 28 0 32 0;
#X connect 29 0 33 0;
#X connect 34 0 42 0;
#X connect 35 0 39 0;
#X connect 36 0 40 0;
#X connect 37 0 41 0;
#X connect 38 0 26 0;
#X connect 38 1 27 0;
#X connect 38 2 28 0;
#X connect 38 3 29 0;
#X connect 38 4 34 0;
#X connect 38 5 35 0;
#X connect 38 6 36 0;
#X connect 38 7 37 0;
#X connect 43 0 15 0;
#X connect 43 2 25 0;
#X connect 43 3 44 0;
#X connect 44 0 45 0;
#X connect 45 0 46 0;
#X connect 46 0 48 0;
#X connect 46 1 47 1;
#X connect 46 2 49 0;
#X connect 47 0 2 0;
#X connect 48 0 47 0;
#X connect 49 0 48 1;
#X restore 307 19 pd toVolcaSample;
#X obj 108 114 sel 0;
#X obj 108 170 t b b;
#X obj 128 -9 / 2;
#X obj 128 17 int;
#X obj 128 44 change;
#X obj 362 112 r notes;
#X obj 362 143 unpack 0 0 0;
#X floatatom 326 176 5 0 0 0 - - -;
#X floatatom 426 169 5 0 0 0 - - -;
#X obj 471 -10 notein;
#X obj 487 47 makenote 127 50;
#X obj 360 201 noteout 16;
#X obj 502 146 r notes;
#X obj 502 177 unpack 0 0 0;
#X floatatom 466 210 5 0 0 0 - - -;
#X obj 500 235 noteout 1;
#X obj 353 87 makenote 4 150;
#X msg 378 58 36 127;
#X obj 641 134 r GregNote;
#X obj 641 171 unpack;
#X obj 639 234 noteout 1;
#X floatatom 55 24 5 0 0 0 - - -;
#X connect 0 0 9 0;
#X connect 1 0 9 0;
#X connect 2 0 3 0;
#X connect 2 0 7 0;
#X connect 3 0 2 1;
#X connect 4 0 5 0;
#X connect 4 1 6 0;
#X connect 5 0 10 0;
#X connect 6 0 2 1;
#X connect 7 0 8 0;
#X connect 8 0 9 0;
#X connect 10 0 2 0;
#X connect 11 0 12 0;
#X connect 11 0 35 0;
#X connect 12 0 14 0;
#X connect 12 2 4 0;
#X connect 14 0 15 0;
#X connect 14 1 0 0;
#X connect 15 0 0 0;
#X connect 15 1 1 0;
#X connect 16 0 17 0;
#X connect 17 0 18 0;
#X connect 20 0 21 0;
#X connect 20 0 25 0;
#X connect 20 1 22 0;
#X connect 20 1 25 1;
#X connect 23 1 24 1;
#X connect 24 0 25 0;
#X connect 24 1 25 1;
#X connect 27 0 28 0;
#X connect 27 0 29 0;
#X connect 27 1 29 1;
#X connect 30 0 25 0;
#X connect 30 1 25 1;
#X connect 31 0 30 0;
#X connect 32 0 33 0;
#X connect 33 0 34 0;
#X connect 33 1 34 1;
#X restore 137 184 pd midiout;
