#N canvas 0 27 1920 969 12;
#X obj 743 189 seq/clock;
#X obj 900 -32 midirealtimein;
#X msg 944 34 0;
#X msg 900 34 1;
#X obj 944 65 t f;
#X obj 724 -78 loadbang;
#X obj 900 -1 route 250 251 252;
#X obj 944 95 s run;
#X obj 727 72 ctlout 53 60;
#X floatatom 727 42 5 0 0 0 - - - 0;
#X text 470 20 midi ports: in1: EC in2: Reaper out1: EC out2: gt1000Core;
#N canvas -97 18 1910 969 split 0;
#X obj 83 16 ctlin 1;
#X obj 83 51 ctlout 1 48;
#X obj 230 34 notein 1;
#X obj 346 956 noteout 48;
#X obj 437 170 noteout 33;
#X obj 350 272 tabwrite noteStatus;
#X obj 350 236 int;
#X obj 368 30 table noteStatus;
#X obj 249 430 tabread noteStatus;
#X obj 249 328 until;
#X msg 249 257 127;
#X obj 249 357 int 0;
#X obj 298 359 + 1;
#X floatatom 198 377 5 0 0 0 - - - 0;
#X obj 249 292 t f b;
#X msg 411 337 0;
#X obj 368 55 table actNotes;
#X obj 263 585 tabwrite actNotes;
#X obj 249 392 t f f;
#X obj 249 463 > 0;
#X obj 249 490 sel 1;
#X obj 263 552 int;
#X obj 379 536 int 0;
#X obj 426 536 + 1;
#X obj 249 516 t b b;
#X floatatom 409 588 5 0 0 0 - - - 0;
#X obj 302 850 tabread actNotes;
#X obj 361 677 int;
#X obj 301 726 until;
#X obj 301 755 int 0;
#X obj 350 757 + 1;
#X obj 301 789 t f f;
#X obj 310 181 t b b b f b;
#X msg 302 885 \$1 127;
#X obj 426 809 sel 0;
#X msg 426 856 48;
#X msg 462 857 33;
#X obj 431 922 noteout;
#X obj 560 521 tabread noteStatus;
#X obj 560 419 until;
#X msg 560 325 127;
#X obj 560 448 int 0;
#X obj 609 450 + 1;
#X floatatom 510 466 5 0 0 0 - - - 0;
#X msg 616 403 0;
#X obj 560 483 t f f;
#X obj 712 521 tabread lastnoteStatus;
#X obj 599 587 !=;
#X obj 65 214 int;
#X obj 65 158 t b f f;
#X obj 560 622 spigot;
#X obj 560 789 int;
#X obj 65 250 tabwrite lastnoteStatus;
#X obj 560 919 pack;
#X obj 491 31 table lastnoteStatus;
#X obj 633 795 tabread actNotes;
#X obj 560 736 t b f b;
#X msg 633 768 0;
#X obj 560 995 pack f f f;
#X obj 560 682 spigot;
#X obj 631 653 > 0;
#X obj 681 930 tabwrite lastChannel;
#X obj 615 821 ==;
#X obj 614 846 sel 1;
#X msg 614 873 48;
#X obj 649 901 t f f;
#X obj 502 75 table lastChannel;
#X obj 694 641 spigot;
#X obj 560 554 t f f f f;
#X obj 696 727 pack f 0 f;
#X obj 805 683 tabread lastChannel;
#X obj 670 698 int;
#X obj 713 598 == 0;
#X obj 704 667 t b f;
#X obj 563 847 t f f;
#X obj 707 1068 t a;
#X obj 707 1145 noteout;
#X obj 784 1112 print;
#X obj 537 380 t b f b;
#X obj 470 1119 int;
#X obj 470 1063 t b f f;
#X obj 470 1155 tabwrite lastnoteStatus;
#X obj 578 1061 unpack f f f;
#X obj 612 226 r clock;
#X obj 650 256 mod 96;
#X obj 653 312 sel 95;
#X msg 646 873 33;
#X obj 671 364 bng 15 250 50 0 empty empty empty 17 7 0 10 #fcfcfc #000000 #000000;
#X obj 1146 497 tabread noteStatus;
#X obj 1146 395 until;
#X msg 1123 323 127;
#X obj 1146 424 int 0;
#X obj 1195 426 + 1;
#X floatatom 1096 442 5 0 0 0 - - - 0;
#X msg 1202 379 0;
#X obj 1146 459 t f f;
#X obj 1409 493 tabread lastnoteStatus;
#X obj 1146 598 spigot;
#X obj 1146 765 int;
#X obj 1146 895 pack;
#X obj 1146 712 t b f b;
#X obj 1146 971 pack f f f;
#X obj 1267 906 tabwrite lastChannel;
#X obj 1235 877 t f f;
#X obj 1370 570 spigot;
#X obj 1146 530 t f f f f;
#X obj 1370 618 pack f 0 f;
#X obj 1437 529 tabread lastChannel;
#X obj 1146 823 t f f;
#X obj 1293 1044 t a;
#X obj 1295 1088 noteout;
#X obj 1348 1081 print;
#X obj 1123 356 t b f b;
#X obj 1056 1095 int;
#X obj 1056 1039 t b f f;
#X obj 1056 1131 tabwrite lastnoteStatus;
#X obj 1164 1037 unpack f f f;
#X obj 1079 128 mod 96;
#X msg 1117 38 96;
#X obj 1123 265 sel;
#X obj 1164 266 sel;
#X obj 1370 358 until;
#X obj 1370 387 int 0;
#X obj 1417 386 + 1;
#X msg 1417 359 0;
#X obj 1370 316 t f b;
#X obj 1370 424 t f f f;
#X obj 1409 529 > 0;
#X obj 1178 658 int 0;
#X obj 1225 658 + 1;
#X floatatom 1094 697 5 0 0 0 - - - 0;
#X obj 1196 569 > 1;
#X obj 1146 631 t f b;
#X msg 1176 326 127;
#X obj 1157 151 - 2;
#X obj 1138 127 - 1;
#X obj 1678 344 tabread lastnoteStatus;
#X obj 1655 217 until;
#X obj 1655 246 int 0;
#X obj 1702 245 + 1;
#X msg 1702 218 0;
#X obj 1655 175 t f b;
#X obj 1655 283 t f f f;
#X obj 1118 87 t f f f f;
#X obj 1201 267 sel;
#X obj 1178 177 - 2;
#X obj 1655 315 tabread noteStatus;
#X obj 1655 375 !=;
#X obj 1079 188 spigot;
#X obj 1079 158 t f f;
#X obj 1079 220 t f f;
#X obj 1123 292 t b b;
#X obj 1236 204 sel 1;
#X msg 1236 241 1;
#X msg 1268 241 0;
#X obj 1625 127 bng 15 250 50 0 empty empty empty 17 7 0 10 #fcfcfc #000000 #000000;
#X msg 1574 190 127;
#X obj 1025 263 sel -1;
#X obj 1119 6 loadbang;
#X obj 1209 790 sel 0 1 2 3;
#X msg 1200 848 49;
#X msg 1235 848 50;
#X msg 1271 848 51;
#X msg 1306 849 52;
#X obj 325 101 !notein 1;
#X obj 1025 93 !r clock;
#X connect 6 0 5 0;
#X connect 8 0 19 0;
#X connect 9 0 11 0;
#X connect 10 0 14 0;
#X connect 11 0 12 0;
#X connect 11 0 13 0;
#X connect 11 0 18 0;
#X connect 12 0 11 1;
#X connect 14 0 9 0;
#X connect 14 1 15 0;
#X connect 15 0 11 1;
#X connect 15 0 22 1;
#X connect 15 0 29 1;
#X connect 18 0 8 0;
#X connect 18 1 21 1;
#X connect 19 0 20 0;
#X connect 20 0 24 0;
#X connect 21 0 17 0;
#X connect 22 0 17 1;
#X connect 22 0 23 0;
#X connect 22 0 25 0;
#X connect 22 0 27 1;
#X connect 23 0 22 1;
#X connect 24 0 21 0;
#X connect 24 1 22 0;
#X connect 26 0 33 0;
#X connect 27 0 28 0;
#X connect 28 0 29 0;
#X connect 29 0 30 0;
#X connect 29 0 31 0;
#X connect 30 0 29 1;
#X connect 31 0 26 0;
#X connect 31 1 34 0;
#X connect 32 0 27 0;
#X connect 32 1 10 0;
#X connect 32 2 6 0;
#X connect 32 3 5 1;
#X connect 34 0 35 0;
#X connect 34 1 36 0;
#X connect 35 0 37 2;
#X connect 36 0 37 2;
#X connect 38 0 68 0;
#X connect 39 0 41 0;
#X connect 40 0 78 0;
#X connect 41 0 42 0;
#X connect 41 0 43 0;
#X connect 41 0 45 0;
#X connect 42 0 41 1;
#X connect 44 0 41 1;
#X connect 45 0 38 0;
#X connect 45 1 46 0;
#X connect 45 1 51 1;
#X connect 45 1 61 1;
#X connect 45 1 71 1;
#X connect 45 1 70 0;
#X connect 46 0 47 1;
#X connect 47 0 50 1;
#X connect 49 0 48 0;
#X connect 49 1 52 1;
#X connect 49 2 32 0;
#X connect 50 0 59 0;
#X connect 50 0 67 0;
#X connect 51 0 74 0;
#X connect 53 0 58 0;
#X connect 55 0 62 1;
#X connect 56 0 51 0;
#X connect 56 1 53 1;
#X connect 56 2 57 0;
#X connect 57 0 55 0;
#X connect 58 0 75 0;
#X connect 59 0 56 0;
#X connect 60 0 59 1;
#X connect 62 0 63 0;
#X connect 63 0 64 0;
#X connect 63 1 86 0;
#X connect 64 0 65 0;
#X connect 65 0 58 2;
#X connect 65 1 61 0;
#X connect 67 0 73 0;
#X connect 68 0 50 0;
#X connect 68 1 47 0;
#X connect 68 2 60 0;
#X connect 68 2 72 0;
#X connect 69 0 75 0;
#X connect 70 0 69 2;
#X connect 71 0 69 0;
#X connect 72 0 67 1;
#X connect 73 0 71 0;
#X connect 74 0 53 0;
#X connect 74 1 62 0;
#X connect 75 0 82 0;
#X connect 78 1 39 0;
#X connect 78 2 44 0;
#X connect 79 0 81 0;
#X connect 80 0 79 0;
#X connect 80 1 81 1;
#X connect 82 0 80 0;
#X connect 82 1 79 1;
#X connect 83 0 84 0;
#X connect 85 0 40 0;
#X connect 85 0 87 0;
#X connect 86 0 65 0;
#X connect 88 0 105 0;
#X connect 89 0 91 0;
#X connect 90 0 112 0;
#X connect 91 0 92 0;
#X connect 91 0 93 0;
#X connect 91 0 95 0;
#X connect 92 0 91 1;
#X connect 94 0 91 1;
#X connect 94 0 128 1;
#X connect 95 0 88 0;
#X connect 95 1 98 1;
#X connect 95 1 102 1;
#X connect 96 0 127 0;
#X connect 97 0 132 0;
#X connect 98 0 108 0;
#X connect 99 0 101 0;
#X connect 100 0 98 0;
#X connect 100 1 99 1;
#X connect 101 0 109 0;
#X connect 103 0 101 2;
#X connect 103 1 102 0;
#X connect 104 0 106 0;
#X connect 105 0 97 0;
#X connect 105 1 131 0;
#X connect 106 0 109 0;
#X connect 107 0 106 2;
#X connect 108 0 99 0;
#X connect 109 0 116 0;
#X connect 109 0 111 0;
#X connect 112 1 89 0;
#X connect 112 2 94 0;
#X connect 113 0 115 0;
#X connect 114 0 113 0;
#X connect 114 1 115 1;
#X connect 116 0 114 0;
#X connect 116 1 113 1;
#X connect 117 0 149 0;
#X connect 118 0 143 0;
#X connect 119 0 151 0;
#X connect 120 0 133 0;
#X connect 121 0 122 0;
#X connect 122 0 123 0;
#X connect 122 0 126 0;
#X connect 123 0 122 1;
#X connect 124 0 122 1;
#X connect 125 0 121 0;
#X connect 125 1 124 0;
#X connect 126 0 104 0;
#X connect 126 1 96 0;
#X connect 126 2 107 0;
#X connect 127 0 104 1;
#X connect 128 0 129 0;
#X connect 128 0 130 0;
#X connect 128 0 159 0;
#X connect 129 0 128 1;
#X connect 131 0 97 1;
#X connect 132 0 100 0;
#X connect 132 1 128 0;
#X connect 133 0 125 0;
#X connect 134 0 120 1;
#X connect 135 0 119 1;
#X connect 136 0 147 1;
#X connect 137 0 138 0;
#X connect 138 0 139 0;
#X connect 138 0 142 0;
#X connect 139 0 138 1;
#X connect 140 0 138 1;
#X connect 141 0 137 0;
#X connect 141 1 140 0;
#X connect 142 0 146 0;
#X connect 142 1 136 0;
#X connect 143 0 117 1;
#X connect 143 1 135 0;
#X connect 143 2 134 0;
#X connect 143 3 145 0;
#X connect 144 0 156 0;
#X connect 145 0 144 1;
#X connect 146 0 147 0;
#X connect 147 0 152 0;
#X connect 148 0 150 0;
#X connect 149 0 148 0;
#X connect 149 1 144 0;
#X connect 150 0 119 0;
#X connect 150 1 120 0;
#X connect 151 0 90 0;
#X connect 151 1 154 0;
#X connect 152 0 153 0;
#X connect 153 0 148 1;
#X connect 154 0 148 1;
#X connect 155 0 141 0;
#X connect 156 0 141 0;
#X connect 157 0 133 0;
#X connect 158 0 118 0;
#X connect 159 0 160 0;
#X connect 159 1 161 0;
#X connect 159 2 162 0;
#X connect 159 3 163 0;
#X connect 160 0 103 0;
#X connect 161 0 103 0;
#X connect 162 0 103 0;
#X connect 163 0 103 0;
#X connect 164 0 49 0;
#X connect 164 1 6 1;
#X connect 164 1 48 1;
#X connect 165 0 117 0;
#X connect 165 0 157 0;
#X restore 306 63 pd split chords 2 chn;
#N canvas 950 383 602 439 keyfoot 0;
#X obj 114 69 r keyfootN;
#X obj 114 115 unpack;
#X obj 114 187 int;
#X obj 115 270 ctlout;
#X msg 151 187 58;
#X obj 114 218 pack f f f;
#X obj 114 151 t b b f;
#X obj 195 188 - 31;
#X obj 240 161 list prepend send;
#X obj 240 221 list trim;
#X obj 313 205 loadbang;
#X msg 313 238 connect 192.168.1.255 8000;
#X obj 240 49 r keyfootN;
#X msg 380 205 disconnect;
#X obj 240 275 netsend -u;
#X obj 240 83 list prepend note;
#X obj 240 121 list prepend EC;
#X obj 133 -50 notein 1;
#X obj 133 -13 pack;
#X obj 133 18 s keyfootN;
#X obj 414 -34 ctlin;
#X obj 414 8 spigot;
#X obj 414 61 spigot;
#X obj 414 112 pack f f f;
#X obj 491 41 > 1;
#X obj 414 144 ctlout;
#X text 383 -53 CC from keyfoot to gt-1000;
#X obj 490 -12 == 32;
#X connect 0 0 1 0;
#X connect 1 0 6 0;
#X connect 1 1 2 1;
#X connect 2 0 5 0;
#X connect 4 0 5 1;
#X connect 5 0 3 0;
#X connect 6 0 2 0;
#X connect 6 1 4 0;
#X connect 6 2 7 0;
#X connect 7 0 5 2;
#X connect 8 0 9 0;
#X connect 9 0 14 0;
#X connect 10 0 11 0;
#X connect 11 0 14 0;
#X connect 13 0 14 0;
#X connect 15 0 16 0;
#X connect 16 0 8 0;
#X connect 17 0 18 0;
#X connect 17 1 18 1;
#X connect 18 0 19 0;
#X connect 20 0 21 0;
#X connect 20 1 24 0;
#X connect 20 1 23 1;
#X connect 20 2 27 0;
#X connect 20 2 23 2;
#X connect 21 0 22 0;
#X connect 22 0 23 0;
#X connect 23 0 25 0;
#X connect 24 0 22 1;
#X connect 27 0 21 1;
#X restore 306 113 pd keyfoot;
#N canvas 252 266 885 588 gharp 0;
#X obj 241 142 unpack f f f;
#X obj 241 219 pack f f f;
#X obj 241 261 noteout;
#X obj 241 52 r frmGHarp;
#X obj 469 250 list prepend send;
#X obj 469 292 list trim;
#X obj 469 172 list prepend note;
#X obj 469 210 list prepend seq/gHarp;
#X obj 469 19 notein;
#X obj 469 140 spigot;
#X obj 717 122 pack f f f;
#X obj 717 155 spigot;
#X obj 717 71 ctlin;
#X obj 717 190 list prepend cc;
#N canvas 1326 707 450 300 ctlOff 0;
#X obj 111 69 r run;
#X obj 111 103 sel 0;
#X obj 111 171 outlet;
#X floatatom 45 100 5 0 0 0 - - - 0;
#X msg 111 138 0 23 4;
#X msg 237 139 0 40 4;
#X msg 176 139 0 33 4;
#X connect 0 0 1 0;
#X connect 0 0 3 0;
#X connect 1 0 4 0;
#X connect 1 0 6 0;
#X connect 1 0 5 0;
#X connect 4 0 2 0;
#X connect 5 0 2 0;
#X connect 6 0 2 0;
#X coords 0 300 1 299 85 60 0;
#X restore 717 32 pd ctlOff;
#X obj 466 332 s 2netsendM;
#X obj 784 91 - 48;
#X obj 769 155 expr $f1 <= 2;
#X obj 241 94 route note triad ctl;
#X obj 333 333 ctlout;
#X obj 333 260 unpack f f f;
#X msg 378 296 50;
#X msg 360 199 47;
#N canvas 0 0 450 344 allOff 0;
#X obj 94 254 int;
#X obj 135 260 + 1;
#X msg 132 196 0;
#X obj 100 165 t b b;
#X msg 97 195 1;
#X obj 126 311 sel 127;
#X obj 94 286 t f f;
#X obj 94 335 pack f 0 0;
#X obj 100 100 bng 50 250 50 0 empty empty aOff 7 20 0 15 #fcfcfc #000000 #000000;
#X obj 94 368 outlet;
#X obj 95 223 metro 15;
#X connect 0 0 1 0;
#X connect 0 0 6 0;
#X connect 1 0 0 1;
#X connect 2 0 0 1;
#X connect 2 0 10 0;
#X connect 3 0 4 0;
#X connect 3 1 2 0;
#X connect 4 0 10 0;
#X connect 5 0 2 0;
#X connect 6 0 7 0;
#X connect 6 1 5 0;
#X connect 7 0 9 0;
#X connect 8 0 3 0;
#X connect 10 0 0 0;
#X coords 0 -1 1 1 50 50 2 100 100;
#X restore 117 127 pd allOff;
#X obj 508 53 - 0;
#X obj 394 11 r 2Gharp;
#X obj 394 43 pack f f 1;
#X obj 397 380 print;
#X obj 520 140 expr $f1 == 5;
#X obj 469 106 pack f f 1;
#X connect 0 0 1 0;
#X connect 0 1 1 1;
#X connect 0 2 22 0;
#X connect 1 0 2 0;
#X connect 3 0 18 0;
#X connect 4 0 5 0;
#X connect 5 0 15 0;
#X connect 5 0 27 0;
#X connect 6 0 7 0;
#X connect 7 0 4 0;
#X connect 8 0 29 0;
#X connect 8 1 29 1;
#X connect 8 2 24 0;
#X connect 9 0 6 0;
#X connect 10 0 11 0;
#X connect 11 0 13 0;
#X connect 12 0 10 0;
#X connect 12 1 10 1;
#X connect 12 2 16 0;
#X connect 12 2 17 0;
#X connect 13 0 7 0;
#X connect 14 0 11 0;
#X connect 16 0 10 2;
#X connect 17 0 11 1;
#X connect 18 1 0 0;
#X connect 18 2 20 0;
#X connect 20 0 19 0;
#X connect 20 1 19 1;
#X connect 20 2 21 0;
#X connect 21 0 19 2;
#X connect 22 0 1 2;
#X connect 23 0 0 0;
#X connect 24 0 28 0;
#X connect 25 0 26 0;
#X connect 26 0 6 0;
#X connect 28 0 9 1;
#X connect 29 0 9 0;
#X coords 0 -1 1 1 85 85 1 100 100;
#X restore 209 117 pd gharp;
#X msg 618 332 connect 192.168.1.255 8000;
#X msg 629 361 connect 192.168.178.255 8000;
#X obj 618 433 s 2netsendM;
#X obj 618 259 loadbang;
#X msg 687 258 disconnect;
#X obj 848 252 loadbang;
#X msg 934 250 disconnect;
#X obj 875 381 s 2netsendC;
#X msg 876 316 connect 192.168.178.255 8099;
#X msg 639 390 connect 192.168.0.255 8000;
#X msg 888 346 connect 192.168.0.255 8099;
#X msg 865 287 connect 192.168.1.255 8099;
#X obj 1016 91 bng 15 250 50 0 empty empty empty 17 7 0 10 #fcfcfc #000000 #000000;
#N canvas 983 271 683 521 pythagotron 0;
#X obj 56 170 unpack f f f;
#X obj 56 125 route out/note;
#X obj 56 250 pack f f f;
#X obj 137 203 + 32;
#X obj 56 298 noteout;
#X obj 56 80 r frmPyth;
#X obj 195 281 list prepend send;
#X obj 195 341 list trim;
#X obj 196 206 list prepend note;
#X obj 196 141 pack f f f;
#X obj 196 90 notein;
#X obj 196 174 spigot;
#X obj 315 71 pack f f f;
#X obj 315 104 spigot;
#X obj 315 14 ctlin;
#X obj 315 139 list prepend cc;
#X obj 196 244 list prepend seq/pyth;
#X obj 367 104 expr $f1 <= 2;
#X obj 195 381 s 2netsendM;
#X obj 248 110 - 32;
#X obj 347 41 - 32;
#X obj 248 174 expr $f1 <= 2 && $f1 > 0;
#X connect 0 0 2 0;
#X connect 0 1 2 1;
#X connect 0 2 3 0;
#X connect 1 0 0 0;
#X connect 2 0 4 0;
#X connect 3 0 2 2;
#X connect 5 0 1 0;
#X connect 6 0 7 0;
#X connect 7 0 18 0;
#X connect 8 0 16 0;
#X connect 9 0 11 0;
#X connect 10 0 9 0;
#X connect 10 1 9 1;
#X connect 10 2 19 0;
#X connect 11 0 8 0;
#X connect 12 0 13 0;
#X connect 13 0 15 0;
#X connect 14 1 12 1;
#X connect 14 2 20 0;
#X connect 15 0 16 0;
#X connect 16 0 6 0;
#X connect 17 0 13 1;
#X connect 19 0 9 2;
#X connect 19 0 21 0;
#X connect 20 0 12 2;
#X connect 20 0 17 0;
#X connect 21 0 11 1;
#X restore 303 165 pd pythagotron;
#X msg 724 -28 \; pd dsp 0;
#X obj 786 101 loadbang;
#X obj 786 159 t b b;
#X text 96 73 EC 17-32 pyth 33-48 gharp 49-64;
#N canvas 357 155 1042 582 EC 0;
#X obj 98 143 sel 41 40 39 38 37 36;
#X obj 52 115 t f f;
#X obj 52 77 notein 26;
#X text 56 42 DrmSeq;
#X obj 52 236 noteout;
#X obj 348 155 unpack f f f;
#X obj 348 62 r frmGHarp;
#X obj 348 104 route triad;
#X obj 521 318 list prepend send;
#X obj 521 360 list trim;
#X obj 521 240 list prepend note;
#X obj 521 175 pack f f f;
#X obj 521 92 notein;
#X obj 521 208 spigot;
#X obj 521 403 s 2netsendM;
#X text 349 38 gharp t0 light;
#X text 519 69 seq to light;
#X obj 81 283 notein;
#X obj 81 377 pack f f f;
#X obj 81 427 noteout;
#X obj 148 343 + 0;
#X msg 98 171 22;
#X msg 134 170 23;
#X msg 168 170 24;
#X msg 207 169 25;
#X msg 243 168 26;
#X msg 277 168 27;
#X obj 81 323 spigot;
#X obj 199 285 notein;
#X obj 199 379 pack f f f;
#X obj 199 429 noteout;
#X obj 199 325 spigot;
#X obj 138 303 < 27;
#X obj 255 305 == 27;
#X obj 321 285 notein;
#X obj 321 379 pack f f f;
#X obj 321 429 noteout;
#X obj 321 325 spigot;
#X msg 387 343 33;
#X obj 377 305 >= 28;
#X msg 265 343 64;
#X obj 83 558 pack f f f;
#X obj 150 524 + 0;
#X obj 83 504 spigot;
#X obj 140 484 < 27;
#X obj 83 464 ctlin;
#X obj 83 608 ctlout;
#X obj 348 189 noteout 15;
#X obj 521 278 list prepend EC;
#X obj 789 319 list prepend send;
#X obj 789 361 list trim;
#X obj 789 241 list prepend note;
#X obj 789 176 pack f f f;
#X obj 789 96 notein;
#X obj 789 209 spigot;
#X obj 789 404 s 2netsendM;
#X obj 828 122 - 0;
#X obj 841 209 expr $f1 <= 16 & $f1 > 0;
#X text 787 70 seq to light;
#X obj 789 279 list prepend EC;
#X obj 560 121 - 5;
#X obj 573 208 expr $f1 == 6;
#X connect 0 0 21 0;
#X connect 0 1 22 0;
#X connect 0 2 23 0;
#X connect 0 3 24 0;
#X connect 0 4 25 0;
#X connect 0 5 26 0;
#X connect 1 1 0 0;
#X connect 2 0 1 0;
#X connect 2 1 4 1;
#X connect 5 0 47 0;
#X connect 5 1 47 1;
#X connect 6 0 7 0;
#X connect 7 0 5 0;
#X connect 8 0 9 0;
#X connect 9 0 14 0;
#X connect 10 0 48 0;
#X connect 11 0 13 0;
#X connect 12 0 11 0;
#X connect 12 1 11 1;
#X connect 12 2 60 0;
#X connect 12 2 61 0;
#X connect 13 0 10 0;
#X connect 17 0 27 0;
#X connect 17 1 18 1;
#X connect 17 2 20 0;
#X connect 17 2 32 0;
#X connect 20 0 18 2;
#X connect 21 0 4 2;
#X connect 22 0 4 2;
#X connect 23 0 4 2;
#X connect 24 0 4 2;
#X connect 25 0 4 2;
#X connect 26 0 4 2;
#X connect 27 0 18 0;
#X connect 28 0 31 0;
#X connect 28 1 29 1;
#X connect 28 2 40 0;
#X connect 28 2 33 0;
#X connect 31 0 29 0;
#X connect 32 0 27 1;
#X connect 33 0 31 1;
#X connect 34 0 37 0;
#X connect 34 1 35 1;
#X connect 34 2 38 0;
#X connect 34 2 39 0;
#X connect 37 0 35 0;
#X connect 38 0 35 2;
#X connect 39 0 37 1;
#X connect 40 0 29 2;
#X connect 42 0 41 2;
#X connect 43 0 41 0;
#X connect 44 0 43 1;
#X connect 45 0 43 0;
#X connect 45 1 41 1;
#X connect 45 2 42 0;
#X connect 45 2 44 0;
#X connect 48 0 8 0;
#X connect 49 0 50 0;
#X connect 51 0 59 0;
#X connect 52 0 54 0;
#X connect 53 0 52 0;
#X connect 53 1 52 1;
#X connect 53 2 56 0;
#X connect 54 0 51 0;
#X connect 56 0 52 2;
#X connect 56 0 57 0;
#X connect 57 0 54 1;
#X connect 59 0 49 0;
#X connect 60 0 11 2;
#X connect 61 0 13 1;
#X restore 306 90 pd EC;
#N canvas 567 705 450 300 net 0;
#X obj 130 28 netreceive -u 8000;
#X obj 135 313 s;
#X obj 130 66 route pyth gharp;
#X obj 184 102 s frmGHarp;
#X obj 130 128 s frmPyth;
#X obj 150 213 netsend -u;
#X obj 150 176 r 2netsendM;
#X obj 94 226 print;
#X connect 0 0 2 0;
#X connect 2 0 4 0;
#X connect 2 1 3 0;
#X connect 6 0 5 0;
#X restore 96 145 pd net;
#X obj 651 175 tgl 50 0 midiClkIn empty extClk 7 20 0 10 #fcfcfc #000000 #000000 0 1;
#N canvas 108 261 1453 546 clock 0;
#X obj 181 262 netsend -u;
#X obj 181 147 list prepend send;
#X obj 181 207 list trim;
#X obj 181 63 int;
#X obj 215 82 + 1;
#X msg 181 34 0;
#X obj 42 30 r clock;
#X obj 147 14 bng 15 250 50 0 empty empty empty 17 7 0 10 #fcfcfc #000000 #000000;
#X obj 181 110 moses;
#X msg 508 280 248;
#X msg 540 288 250;
#X obj 620 230 int;
#X obj 656 247 + 1;
#X obj 618 158 t b b;
#X msg 620 181 1;
#X msg 693 177 0;
#X obj 620 274 sel 1;
#X msg 620 318 252;
#X obj 620 207 metro 250;
#X obj 508 36 r clock;
#X obj 508 138 t f f b;
#X obj 508 182 sel 0;
#X obj 508 238 t b b;
#X obj 508 426 midiout;
#X obj 508 364 t f;
#X obj 568 426 midiout 2;
#X obj 649 426 midiout 3;
#X obj 725 424 midiout 4;
#X obj 861 91 r clock;
#X obj 861 140 change;
#X obj 893 276 sig~;
#X obj 892 310 dac~ 8;
#X msg 893 209 1;
#X obj 861 171 t b b;
#X msg 820 236 0;
#X obj 820 209 delay 5;
#X obj 1025 277 sig~;
#X msg 1025 210 1;
#X obj 993 172 t b b;
#X msg 952 237 0;
#X obj 952 210 delay 5;
#X obj 1024 311 dac~ 7;
#X obj 993 141 sel 1;
#X obj 993 112 == 0;
#X obj 262 228 r 2netsendC;
#X floatatom 50 90 12 0 0 0 - - - 0;
#X obj 1176 0 midirealtimein;
#X msg 1209 110 1, f 4;
#X msg 1275 111 0;
#X obj 1138 256 s clock;
#X obj 1138 229 t f f;
#X obj 1203 256 s preClock;
#X obj 1114 117 spigot;
#X obj 1140 182 int;
#X obj 1175 165 + 1;
#X msg 1168 138 0;
#X obj 1167 205 - 0;
#X obj 1176 39 spigot;
#X obj 1283 19 r midiClkIn;
#X floatatom 1082 86 5 0 0 0 - - - 0;
#X floatatom 554 78 5 0 0 0 - - - 0;
#X floatatom 1094 184 5 0 0 0 - - - 0;
#X obj 1223 150 bng 15 250 50 0 empty empty empty 17 7 0 10 #fcfcfc #000000 #000000;
#X obj 1256 153 bng 15 250 50 0 empty empty empty 17 7 0 10 #fcfcfc #000000 #000000;
#X obj 1174 70 route 248 250 251 252;
#X connect 1 0 2 0;
#X connect 2 0 0 0;
#X connect 3 0 4 0;
#X connect 3 0 8 0;
#X connect 4 0 3 1;
#X connect 5 0 3 0;
#X connect 6 0 3 0;
#X connect 6 0 45 0;
#X connect 7 0 3 0;
#X connect 8 1 1 0;
#X connect 9 0 24 0;
#X connect 10 0 24 0;
#X connect 11 0 12 0;
#X connect 11 0 16 0;
#X connect 12 0 11 1;
#X connect 13 0 14 0;
#X connect 13 1 15 0;
#X connect 14 0 18 0;
#X connect 15 0 11 1;
#X connect 16 0 17 0;
#X connect 17 0 24 0;
#X connect 18 0 11 0;
#X connect 19 0 20 0;
#X connect 19 0 60 0;
#X connect 20 0 21 0;
#X connect 20 2 13 0;
#X connect 21 0 22 0;
#X connect 21 1 9 0;
#X connect 22 0 9 0;
#X connect 22 1 10 0;
#X connect 28 0 29 0;
#X connect 29 0 33 0;
#X connect 29 0 43 0;
#X connect 30 0 31 0;
#X connect 32 0 30 0;
#X connect 33 0 35 0;
#X connect 33 1 32 0;
#X connect 34 0 30 0;
#X connect 35 0 34 0;
#X connect 36 0 41 0;
#X connect 37 0 36 0;
#X connect 38 0 40 0;
#X connect 38 1 37 0;
#X connect 39 0 36 0;
#X connect 40 0 39 0;
#X connect 42 0 38 0;
#X connect 43 0 42 0;
#X connect 44 0 0 0;
#X connect 46 0 57 0;
#X connect 47 0 52 1;
#X connect 48 0 52 1;
#X connect 50 0 49 0;
#X connect 50 1 51 0;
#X connect 52 0 53 0;
#X connect 52 0 61 0;
#X connect 53 0 54 0;
#X connect 53 0 56 0;
#X connect 54 0 53 1;
#X connect 55 0 53 1;
#X connect 56 0 50 0;
#X connect 57 0 59 0;
#X connect 57 0 64 0;
#X connect 58 0 57 1;
#X connect 64 0 52 0;
#X connect 64 1 62 0;
#X connect 64 1 47 0;
#X connect 64 2 63 0;
#X connect 64 2 47 0;
#X connect 64 3 48 0;
#X connect 64 3 55 0;
#X restore 309 192 pd clock;
#X msg 631 294 connect 192.168.10.255 8000;
#X obj 786 130 delay 10000;
#X obj 609 126 loadbang;
#X obj 1208 299 countdown;
#N canvas 0 27 1920 969 m8CCChords 0;
#X obj 437 -49 ctlin;
#X obj 437 -1 pack;
#X obj 437 34 spigot;
#X obj 508 122 unpack;
#X obj 508 171 spigot;
#X obj 547 146 == 101;
#X obj 437 72 t a a a;
#X obj 138 -21 notein;
#X obj 138 12 pack;
#X obj 138 47 spigot;
#X obj 138 85 t a a a;
#X obj 184 129 unpack;
#X obj 236 333 int;
#X obj 209 212 int;
#X obj 184 173 t f b f;
#X obj 236 366 +;
#X obj 184 345 pack;
#X obj 236 400 pack;
#X obj 184 402 t a;
#X obj 410 124 unpack;
#X obj 410 173 spigot;
#X obj 308 324 int;
#X obj 308 357 +;
#X obj 308 391 pack;
#X obj 449 148 == 102;
#X obj 426 313 int;
#X obj 426 346 +;
#X obj 426 380 pack;
#X obj 209 238 t f b f b f b f;
#X obj 320 125 unpack;
#X obj 320 174 spigot;
#X obj 359 149 == 103;
#X obj 183 441 noteout 15;
#X obj 195 10 == 17;
#X obj 494 -3 == 17;
#X obj 188 515 s 2Gharp;
#X connect 0 0 1 0;
#X connect 0 1 1 1;
#X connect 0 2 34 0;
#X connect 1 0 2 0;
#X connect 2 0 6 0;
#X connect 3 0 4 0;
#X connect 3 1 5 0;
#X connect 4 0 12 1;
#X connect 5 0 4 1;
#X connect 6 0 29 0;
#X connect 6 1 19 0;
#X connect 6 2 3 0;
#X connect 7 0 8 0;
#X connect 7 1 8 1;
#X connect 7 2 33 0;
#X connect 8 0 9 0;
#X connect 9 0 10 0;
#X connect 10 2 11 0;
#X connect 11 0 14 0;
#X connect 11 1 13 1;
#X connect 12 0 15 0;
#X connect 13 0 28 0;
#X connect 14 0 16 0;
#X connect 14 1 13 0;
#X connect 14 2 15 1;
#X connect 14 2 22 1;
#X connect 14 2 26 1;
#X connect 15 0 17 0;
#X connect 16 0 18 0;
#X connect 17 0 18 0;
#X connect 18 0 32 0;
#X connect 18 0 35 0;
#X connect 19 0 20 0;
#X connect 19 1 24 0;
#X connect 20 0 21 1;
#X connect 21 0 22 0;
#X connect 22 0 23 0;
#X connect 23 0 18 0;
#X connect 24 0 20 1;
#X connect 25 0 26 0;
#X connect 26 0 27 0;
#X connect 28 0 16 1;
#X connect 28 1 12 0;
#X connect 28 2 17 1;
#X connect 28 3 21 0;
#X connect 28 4 23 1;
#X connect 28 5 25 0;
#X connect 28 6 27 1;
#X connect 29 0 30 0;
#X connect 29 1 31 0;
#X connect 30 0 25 1;
#X connect 31 0 30 1;
#X connect 33 0 9 1;
#X connect 34 0 2 1;
#X restore 307 137 pd m8CCChords;
#N canvas 0 0 451 300 edrums 0;
#X obj 85 83 notein;
#X obj 107 168 print;
#X obj 94 131 pack f f f;
#X connect 0 0 2 0;
#X connect 0 1 2 1;
#X connect 0 2 2 2;
#X restore 317 274 pd edrums;
#N canvas 0 27 1920 970 m8CCAct 0;
#X obj 569 60 ctlin;
#X obj 569 108 pack;
#X obj 569 143 spigot;
#X obj 640 231 unpack;
#X obj 640 280 spigot;
#X obj 679 255 == 101;
#X obj 569 181 t a a a;
#X obj 270 88 notein;
#X obj 270 121 pack;
#X obj 270 156 spigot;
#X obj 270 194 t a a a;
#X obj 316 238 unpack;
#X obj 601 459 int;
#X obj 341 321 int;
#X obj 601 550 +;
#X obj 316 454 pack;
#X obj 601 651 pack;
#X obj 316 636 t a;
#X obj 542 233 unpack;
#X obj 542 282 spigot;
#X obj 696 459 int;
#X obj 696 549 +;
#X obj 696 651 pack;
#X obj 581 257 == 102;
#X obj 814 448 int;
#X obj 814 546 +;
#X obj 814 640 pack;
#X obj 341 378 t f b f b f b f;
#X obj 452 234 unpack;
#X obj 452 283 spigot;
#X obj 491 258 == 103;
#X obj 327 119 == 18;
#X obj 626 106 == 18;
#X obj 315 675 noteout 2;
#X obj 494 102 print;
#X obj 601 608 spigot;
#X obj 645 578 !=;
#X obj 316 282 t f b f f;
#X obj 601 578 t f f;
#X obj 696 606 spigot;
#X obj 740 576 !=;
#X obj 696 576 t f f;
#X obj 814 603 spigot;
#X obj 858 573 !=;
#X obj 814 573 t f f;
#X connect 0 0 1 0;
#X connect 0 1 1 1;
#X connect 0 2 32 0;
#X connect 1 0 2 0;
#X connect 1 0 34 0;
#X connect 2 0 6 0;
#X connect 3 0 4 0;
#X connect 3 1 5 0;
#X connect 4 0 12 1;
#X connect 5 0 4 1;
#X connect 6 0 28 0;
#X connect 6 1 18 0;
#X connect 6 2 3 0;
#X connect 7 0 8 0;
#X connect 7 1 8 1;
#X connect 7 2 31 0;
#X connect 8 0 9 0;
#X connect 9 0 10 0;
#X connect 10 2 11 0;
#X connect 11 0 37 0;
#X connect 11 1 13 1;
#X connect 12 0 14 0;
#X connect 13 0 27 0;
#X connect 14 0 38 0;
#X connect 16 0 17 0;
#X connect 17 0 33 0;
#X connect 18 0 19 0;
#X connect 18 1 23 0;
#X connect 19 0 20 1;
#X connect 20 0 21 0;
#X connect 21 0 41 0;
#X connect 22 0 17 0;
#X connect 23 0 19 1;
#X connect 24 0 25 0;
#X connect 25 0 44 0;
#X connect 26 0 17 0;
#X connect 27 0 15 1;
#X connect 27 1 12 0;
#X connect 27 2 16 1;
#X connect 27 3 20 0;
#X connect 27 4 22 1;
#X connect 27 5 24 0;
#X connect 27 6 26 1;
#X connect 28 0 29 0;
#X connect 28 1 30 0;
#X connect 29 0 24 1;
#X connect 30 0 29 1;
#X connect 31 0 9 1;
#X connect 32 0 2 1;
#X connect 35 0 16 0;
#X connect 36 0 35 1;
#X connect 37 0 15 0;
#X connect 37 1 13 0;
#X connect 37 2 14 1;
#X connect 37 2 21 1;
#X connect 37 2 25 1;
#X connect 37 3 36 1;
#X connect 37 3 40 1;
#X connect 37 3 43 1;
#X connect 38 0 35 0;
#X connect 38 1 36 0;
#X connect 39 0 22 0;
#X connect 40 0 39 1;
#X connect 41 0 39 0;
#X connect 41 1 40 0;
#X connect 42 0 26 0;
#X connect 43 0 42 1;
#X connect 44 0 42 0;
#X connect 44 1 43 0;
#X restore 411 136 pd m8CCAct;
#X connect 1 0 6 0;
#X connect 2 0 4 0;
#X connect 3 0 4 0;
#X connect 4 0 7 0;
#X connect 5 0 28 0;
#X connect 6 0 3 0;
#X connect 6 1 3 0;
#X connect 6 1 26 0;
#X connect 6 2 2 0;
#X connect 9 0 8 0;
#X connect 14 0 16 0;
#X connect 15 0 16 0;
#X connect 17 0 14 0;
#X connect 18 0 16 0;
#X connect 19 0 25 0;
#X connect 20 0 21 0;
#X connect 22 0 21 0;
#X connect 23 0 16 0;
#X connect 24 0 21 0;
#X connect 25 0 21 0;
#X connect 30 0 0 1;
#X connect 30 1 0 0;
#X connect 36 0 16 0;
#X connect 37 0 30 0;
#X connect 38 0 34 0;
