#N canvas 2 117 1041 701 10;
#X obj 260 -244 pack;
#X msg 204 -210 dirty 0;
#X obj 233 -293 t b f;
#N canvas 1 101 1041 701 randomize 0;
#X obj 131 514 pack 0 0 \$1 \$2;
#X msg 131 546 \; cell-\$3-\$4-\$2 pitch \$1;
#X obj 132 368 random \$5;
#X obj 132 236 until;
#X obj 132 193 \$3;
#X obj 131 131 bng 15 250 50 0 empty empty empty 17 7 0 10 #fcfcfc #000000 #000000;
#X obj 163 296 int;
#X obj 132 296 +;
#X msg 132 268 1;
#X obj 132 164 t b b;
#X obj 132 335 t b f;
#X obj 306 519 pack 0 0 \$1 \$2;
#X obj 291 234 until;
#X obj 291 191 \$3;
#X obj 322 294 int;
#X obj 291 294 +;
#X msg 291 266 1;
#X obj 291 162 t b b;
#X obj 291 333 t b f;
#X msg 306 551 \; cell-\$3-\$4-\$2 vel \$1;
#X obj 293 110 bng 15 250 50 0 empty empty empty 17 7 0 10 #fcfcfc #000000 #000000;
#X obj 291 366 random 100;
#X obj 293 394 / 100;
#X obj 486 531 pack 0 0 \$1 \$2;
#X obj 445 237 until;
#X obj 445 194 \$3;
#X obj 476 297 int;
#X obj 445 297 +;
#X msg 445 269 1;
#X obj 445 165 t b b;
#X obj 445 336 t b f;
#X obj 441 114 bng 15 250 50 0 empty empty empty 17 7 0 10 #fcfcfc #000000 #000000;
#X msg 486 563 \; cell-\$3-\$4-\$2 act \$1;
#X obj 445 369 random 2;
#X obj 133 27 r \$0-rndPitch;
#X obj 327 27 r \$0-rndAct;
#X obj 239 26 r \$0-rndVel;
#X obj 412 23 r \$0-rndAll;
#X msg 163 212 -1;
#X msg 322 210 -1;
#X msg 476 213 -1;
#X obj 672 529 pack 0 0 \$1 \$2;
#X msg 672 555 \; cell-\$3-\$4-\$2 pitch \$1;
#X obj 649 337 random \$5;
#X obj 649 205 until;
#X obj 649 162 \$3;
#X obj 680 265 int;
#X obj 649 265 +;
#X msg 649 237 1;
#X obj 649 133 t b b;
#X obj 649 304 t b f;
#X msg 680 181 -1;
#X obj 795 81 list split 1;
#X obj 835 111 list;
#X obj 709 308 list length;
#X obj 642 20 table scale-\$1-\$2;
#X obj 795 251 tabwrite scale-\$1-\$2;
#X msg 932 184 1;
#X obj 932 214 +;
#X obj 975 197 int;
#X obj 795 111 t f b;
#X obj 649 408 tabread scale-\$1-\$2;
#X obj 795 44 t b a b;
#X msg 975 160 -1;
#X msg 794 -40 0 2 4 5 7;
#X obj 795 12 r \$0-rndScale;
#X connect 0 0 1 0;
#X connect 2 0 0 0;
#X connect 3 0 8 0;
#X connect 4 0 3 0;
#X connect 5 0 9 0;
#X connect 6 0 7 1;
#X connect 7 0 6 0;
#X connect 7 0 10 0;
#X connect 8 0 7 0;
#X connect 9 0 4 0;
#X connect 9 1 38 0;
#X connect 10 0 2 0;
#X connect 10 1 0 1;
#X connect 11 0 19 0;
#X connect 12 0 16 0;
#X connect 13 0 12 0;
#X connect 14 0 15 1;
#X connect 15 0 14 0;
#X connect 15 0 18 0;
#X connect 16 0 15 0;
#X connect 17 0 13 0;
#X connect 17 1 39 0;
#X connect 18 0 21 0;
#X connect 18 1 11 1;
#X connect 20 0 17 0;
#X connect 21 0 22 0;
#X connect 22 0 11 0;
#X connect 23 0 32 0;
#X connect 24 0 28 0;
#X connect 25 0 24 0;
#X connect 26 0 27 1;
#X connect 27 0 26 0;
#X connect 27 0 30 0;
#X connect 28 0 27 0;
#X connect 29 0 25 0;
#X connect 29 1 40 0;
#X connect 30 0 33 0;
#X connect 30 1 23 1;
#X connect 31 0 29 0;
#X connect 33 0 23 0;
#X connect 34 0 9 0;
#X connect 35 0 29 0;
#X connect 36 0 17 0;
#X connect 37 0 9 0;
#X connect 37 0 17 0;
#X connect 37 0 29 0;
#X connect 38 0 6 0;
#X connect 39 0 14 0;
#X connect 40 0 26 0;
#X connect 41 0 42 0;
#X connect 43 0 61 0;
#X connect 44 0 48 0;
#X connect 45 0 44 0;
#X connect 46 0 47 1;
#X connect 47 0 46 0;
#X connect 47 0 50 0;
#X connect 48 0 47 0;
#X connect 49 0 45 0;
#X connect 49 1 51 0;
#X connect 50 0 43 0;
#X connect 50 1 41 1;
#X connect 51 0 46 0;
#X connect 52 0 60 0;
#X connect 52 1 53 0;
#X connect 53 0 52 0;
#X connect 54 0 43 1;
#X connect 57 0 58 0;
#X connect 58 0 59 0;
#X connect 58 0 56 1;
#X connect 59 0 58 1;
#X connect 60 0 56 0;
#X connect 60 1 57 0;
#X connect 61 0 41 0;
#X connect 62 0 49 0;
#X connect 62 1 54 0;
#X connect 62 1 52 0;
#X connect 62 2 63 0;
#X connect 63 0 59 0;
#X connect 64 0 62 0;
#X connect 65 0 62 0;
#X restore 34 -202 pd randomize;
#X obj 233 -398 loadbang;
#X obj 233 -365 t b b;
#X obj 31 -318 namecanvas seqmodule-\$1-\$2;
#X obj 204 -169 s seqmodule-\$1-\$2;
#X obj 28 -278 makeCh \$1 \$2 \$3 \$4 \$5 \$6 \$7;
#N canvas 8 101 1041 701 reset 0;
#X msg 299 546 \; cell-\$1-\$2-\$3 vel \$4;
#X msg 129 543 \; cell-\$1-\$2-\$3 pitch \$4;
#X obj 1076 208 bng 15 250 50 0 empty empty empty 17 7 0 10 #fcfcfc #000000 #000000;
#X obj 321 7 until;
#X obj 321 -16 int;
#X obj 320 54 +;
#X obj 362 37 int;
#X msg 320 29 1;
#X obj 336 -43 r steps;
#X obj 320 -96 bng 15 250 50 0 empty empty empty 17 7 0 10 #fcfcfc #000000 #000000;
#X obj 129 364 t b f;
#X msg 359 7 -1;
#X obj 298 374 t b f;
#X obj 460 377 t b f;
#X msg 456 549 \; cell-\$1-\$2-\$3 act \$4;
#X obj 321 -70 t b b;
#X msg 463 257 \$1 0;
#X obj 129 331 unpack f f;
#X obj 129 478 pack \$1 \$2 f f;
#X obj 298 341 unpack f f;
#X obj 460 344 unpack f f;
#X obj 298 488 pack \$1 \$2 f f;
#X obj 460 491 pack \$1 \$2 f f;
#X obj 106 48 loadbang;
#X obj 342 -100 r \$0-reset;
#X obj 210 389 - 1;
#X obj 626 377 t b f;
#X obj 626 344 unpack f f;
#X obj 626 491 pack \$1 \$2 f f;
#X msg 622 549 \; cell-\$1-\$2-\$3 oct \$4;
#X obj 348 164 t a a a a;
#X obj 240 209 \$5;
#X obj 208 184 t f b;
#X obj 206 261 pack 0 0;
#X obj 630 211 t f b;
#X obj 628 288 pack 0 0;
#X obj 662 260 - 1;
#X obj 662 236 \$6;
#X msg 92 91 \; steps 32;
#X msg 322 211 \$1 1;
#X connect 3 0 7 0;
#X connect 4 0 3 0;
#X connect 5 0 6 0;
#X connect 5 0 30 0;
#X connect 6 0 5 1;
#X connect 7 0 5 0;
#X connect 8 0 4 1;
#X connect 9 0 15 0;
#X connect 10 0 18 0;
#X connect 10 1 18 2;
#X connect 11 0 5 1;
#X connect 12 0 21 0;
#X connect 12 1 21 2;
#X connect 13 0 22 0;
#X connect 13 1 22 2;
#X connect 15 0 4 0;
#X connect 15 1 11 0;
#X connect 16 0 20 0;
#X connect 17 0 10 0;
#X connect 17 1 25 0;
#X connect 18 0 1 0;
#X connect 19 0 12 0;
#X connect 19 1 21 3;
#X connect 20 0 13 0;
#X connect 20 1 22 3;
#X connect 21 0 0 0;
#X connect 22 0 14 0;
#X connect 23 0 38 0;
#X connect 24 0 15 0;
#X connect 25 0 18 3;
#X connect 26 0 28 0;
#X connect 26 1 28 2;
#X connect 27 0 26 0;
#X connect 27 1 28 3;
#X connect 28 0 29 0;
#X connect 30 0 32 0;
#X connect 30 1 39 0;
#X connect 30 2 16 0;
#X connect 30 3 34 0;
#X connect 31 0 33 1;
#X connect 32 0 33 0;
#X connect 32 1 31 0;
#X connect 33 0 17 0;
#X connect 34 0 35 0;
#X connect 34 1 37 0;
#X connect 35 0 27 0;
#X connect 36 0 35 1;
#X connect 37 0 36 0;
#X connect 39 0 19 0;
#X restore 33 -235 pd reset;
#N canvas 2 131 1041 700 clock 0;
#X obj 161 -114 r clock;
#X msg 161 604 \; clock-\$2-\$3 \$1;
#X obj 161 577 pack 0 \$1 \$2;
#X obj 161 192 int;
#X obj 161 169 /;
#X obj 446 123 r \$0-seqStart;
#X obj 494 142 r \$0-seqEnd;
#X obj 446 159 t b f;
#X obj 161 283 mod;
#X obj 240 266 expr sqrt($f1*$f1);
#X floatatom 240 291 5 0 0 0 - - - 0;
#X obj 446 182 expr $f2 - $f1;
#X obj 161 308 *;
#X obj 213 239 expr if ($f1 >= 0 \, 1 \, -1);
#X obj 213 212 t f f;
#X obj 161 339 +;
#X obj 199 322 r \$0-seqStart;
#X obj 161 361 - 1;
#X obj 446 209 + 1;
#X obj 350 152 expr 96/$f1;
#X obj 161 433 change;
#X obj 99 -53 inlet;
#X obj 161 13 spigot;
#X obj 217 -29 loadbang;
#X msg 217 -4 1;
#X obj 99 -26 t f b;
#X msg 126 -3 0;
#X obj 161 68 change;
#X obj 305 55 r \$0-timeSig;
#X obj 305 83 moses 0;
#X obj 305 128 expr 96*$f1;
#X obj 305 106 abs;
#X obj 493 484 tabread midinotes;
#X obj 461 374 until;
#X obj 461 406 int;
#X obj 504 423 + 1;
#X obj 549 577 int;
#X obj 494 594 +;
#X obj 493 525 > 0;
#X obj 461 461 t f f;
#X obj 479 221 r notein1;
#X obj 479 284 delay 1;
#X obj 479 255 t b;
#X obj 610 294 table \$0-activesteps;
#X obj 560 331 \$0;
#X msg 560 362 \; \$1-activesteps const 0;
#X obj 461 629 tabwrite \$0-activesteps;
#X obj 461 558 spigot;
#X obj 223 481 tabread \$0-activesteps;
#X obj 223 428 mod;
#X obj 479 667 int;
#X obj 479 314 t b b b b;
#X obj 223 456 + 1;
#X obj 223 397 change;
#X obj 223 519 - 24;
#X obj 160 393 spigot;
#X obj 223 367 spigot;
#X obj 262 344 > 0;
#X obj 308 376 == 0;
#X obj 479 702 s #steps;
#X obj 308 302 r #steps;
#X msg 461 347 16;
#X msg 519 389 24;
#X msg 520 448 0;
#X obj 567 652 loadbang;
#X msg 518 669 0;
#X obj 308 337 spigot;
#X obj 374 320 r \$0-stepJump;
#X obj 80 303 loadbang;
#X msg 80 328 1;
#X obj 161 42 + 0;
#X obj 213 18 r \$0-offset;
#X obj 403 -58 r \$0-rstClock;
#X obj 187 119 int;
#X obj 161 144 - 0;
#X obj 184 -58 sel 0;
#X msg 181 -28 0;
#X floatatom 364 377 5 0 0 0 - - - 0;
#X obj 161 96 t f f;
#X obj 161 -84 t f f f;
#X obj 268 -72 mod 12;
#X obj 330 -46 sel 0;
#X obj 330 -10 spigot;
#X msg 369 18 0;
#X msg 403 -27 1;
#X connect 0 0 79 0;
#X connect 2 0 1 0;
#X connect 3 0 8 0;
#X connect 3 0 56 0;
#X connect 4 0 3 0;
#X connect 5 0 11 0;
#X connect 6 0 7 0;
#X connect 7 0 11 0;
#X connect 7 1 11 1;
#X connect 8 0 12 0;
#X connect 9 0 10 0;
#X connect 9 0 8 1;
#X connect 11 0 18 0;
#X connect 12 0 15 0;
#X connect 13 0 12 1;
#X connect 14 0 13 0;
#X connect 14 1 9 0;
#X connect 15 0 17 0;
#X connect 16 0 15 1;
#X connect 17 0 55 0;
#X connect 18 0 14 0;
#X connect 19 0 4 1;
#X connect 20 0 2 0;
#X connect 21 0 25 0;
#X connect 22 0 70 0;
#X connect 23 0 24 0;
#X connect 24 0 22 1;
#X connect 25 0 27 0;
#X connect 25 1 26 0;
#X connect 26 0 22 1;
#X connect 27 0 78 0;
#X connect 28 0 29 0;
#X connect 29 0 31 0;
#X connect 29 1 19 0;
#X connect 30 0 4 1;
#X connect 31 0 30 0;
#X connect 32 0 38 0;
#X connect 33 0 34 0;
#X connect 34 0 35 0;
#X connect 34 0 39 0;
#X connect 35 0 34 1;
#X connect 36 0 37 1;
#X connect 37 0 36 0;
#X connect 37 0 46 1;
#X connect 37 0 50 1;
#X connect 38 0 37 0;
#X connect 38 0 47 1;
#X connect 39 0 47 0;
#X connect 39 1 32 0;
#X connect 40 0 42 0;
#X connect 41 0 51 0;
#X connect 42 0 41 0;
#X connect 44 0 45 0;
#X connect 47 0 46 0;
#X connect 48 0 54 0;
#X connect 49 0 52 0;
#X connect 50 0 59 0;
#X connect 51 0 50 0;
#X connect 51 1 61 0;
#X connect 51 2 62 0;
#X connect 51 2 63 0;
#X connect 51 3 44 0;
#X connect 52 0 48 0;
#X connect 53 0 49 0;
#X connect 54 0 2 0;
#X connect 55 0 20 0;
#X connect 56 0 53 0;
#X connect 57 0 56 1;
#X connect 58 0 55 1;
#X connect 60 0 66 0;
#X connect 61 0 33 0;
#X connect 62 0 34 1;
#X connect 63 0 37 1;
#X connect 64 0 65 0;
#X connect 65 0 59 0;
#X connect 66 0 58 0;
#X connect 66 0 57 0;
#X connect 66 0 49 1;
#X connect 66 0 77 0;
#X connect 67 0 66 1;
#X connect 68 0 69 0;
#X connect 69 0 55 1;
#X connect 70 0 27 0;
#X connect 71 0 70 1;
#X connect 72 0 84 0;
#X connect 73 0 74 1;
#X connect 74 0 4 0;
#X connect 75 0 76 0;
#X connect 76 0 74 1;
#X connect 78 0 74 0;
#X connect 78 1 73 1;
#X connect 79 0 22 0;
#X connect 79 1 75 0;
#X connect 79 2 80 0;
#X connect 80 0 81 0;
#X connect 81 0 82 0;
#X connect 82 0 83 0;
#X connect 82 0 73 0;
#X connect 83 0 82 1;
#X connect 84 0 82 1;
#X restore 34 -408 pd clock;
#X obj 98 -89 s \$0-play;
#X obj 98 -144 r play;
#X obj 168 -89 s \$0-seqStart;
#X obj 168 -132 r seqStart;
#X obj 7 -64 r seqEnd;
#X obj 34 -441 inlet;
#X obj 689 -227 tgl 15 0 \$0-play play Play 17 7 0 10 #fcfcfc #000000 #000000 0 1;
#X floatatom 734 -226 3 0 0 1 tSig - - 0;
#X floatatom 863 -226 3 1 16 1 sEnd - - 0;
#X floatatom 794 -226 3 1 16 1 sStart - - 0;
#X obj 671 -73 change;
#X obj 627 -330 r \$0-play;
#X obj 592 -88 change;
#X obj 592 -47 s \$0-play;
#X obj 766 -47 s \$0-seqStart;
#X obj 782 -256 r \$0-seqStart;
#X obj 766 -69 change;
#X obj 877 -263 r \$0-seqEnd;
#X obj 871 -75 change;
#X obj 871 -47 s \$0-seqEnd;
#X msg 693 -128 1;
#X obj 1102 -316 s \$0-play;
#X obj 1112 -153 s \$0-seqStart;
#X obj 1152 -114 s \$0-seqEnd;
#X obj 1148 -7 s \$0-rndPitch;
#X obj 1057 -7 s \$0-rndAct;
#X obj 1252 -7 s \$0-rndVel;
#X obj 1335 -6 s \$0-rndAll;
#X obj 1389 -256 s \$0-reset;
#X obj 780 -133 i \$3;
#X obj 148 1066 textfile;
#X obj 710 853 r cellstate-\$1-\$2;
#X obj 485 849 s cellstates-\$1-\$2;
#X msg 63 960 rewind;
#X msg 44 981 bang;
#X msg 160 966 clear;
#X msg 742 958 add2 cell;
#X obj 710 895 t a b;
#X obj 184 1276 -;
#X obj 184 1221 t b f;
#X obj 184 1252 \$5;
#X obj 307 1235 unpack 0 0 0 0;
#X obj 91 1154 unpack 0 0 0;
#X obj -91 1136 unpack 0 0;
#X obj 37 941 until;
#X obj 37 862 \$3;
#X obj 37 840 t b b;
#X obj 45 805 bng 15 250 50 0 empty empty empty 17 7 0 10 #fcfcfc #000000 #000000;
#X msg 527 971 clear;
#X obj 292 -102 r readSeqP;
#X obj 292 -78 s \$0-readSeqP;
#X obj 811 1247 s \$0-2text;
#X obj 163 1037 r \$0-2text;
#X obj 701 1178 int;
#X obj 701 1246 s \$0-2text;
#X obj 716 1140 r \$0-play;
#X obj 502 1041 t b b b b;
#X msg 701 1208 add play \$1;
#X obj 581 1179 int;
#X obj 581 1247 s \$0-2text;
#X obj 596 1141 r \$0-seqStart;
#X msg 581 1209 add seqStart \$1;
#X obj 469 1178 int;
#X obj 469 1238 s \$0-2text;
#X obj 484 1140 r \$0-seqEnd;
#X msg 469 1208 add seqEnd \$1;
#X obj 468 998 s \$0-2text;
#X obj 710 1029 s \$0-2text;
#X obj 1092 -210 s \$0-timeSig;
#X obj 148 1090 route cell timeSig play seqStart seqEnd;
#X msg 811 1209 add timeSig \$1;
#X obj 826 1141 r \$0-timeSig;
#X obj 734 -294 r \$0-timeSig;
#X obj 671 -50 s \$0-timeSig;
#X obj 6 -122 r timeSig;
#X obj 6 -89 s \$0-timeSig;
#X obj 744 -158 t b;
#X obj 722 -186 loadbang;
#X obj 794 -185 r \$0-reset;
#X obj 33 -376 r channel\$1-\$2;
#X obj 33 -347 outlet;
#X obj 1037 -454 r chn-\$1-\$2;
#X obj 306 1193 s chn-\$1-\$2;
#X msg 210 1116 timeSig \$1;
#X msg 357 1148 seqEnd \$1;
#X msg 267 1140 play \$1;
#X msg 310 1117 seqStart \$1;
#X obj 811 1179 f;
#X obj 120 604 loadbang;
#X obj 120 628 delay 1000;
#X obj 349 -387 expr (\$5+1)*\$4+(\$6*\$4)+\$7;
#X msg 710 1005 add \$1 \$2 \$3 \$4 \$5;
#X obj -91 1166 pack 0 0 0 0 0 \$1 \$2;
#X obj 91 1313 pack 0 0 0 0 0 \$1 \$2;
#X obj 307 1376 pack 0 0 0 0 0 \$1 \$2;
#X obj 469 1419 pack 0 0 0 0 0 \$1 \$2;
#X msg -91 1209 \; cell-\$6-\$7-\$1 act \$2;
#X msg 91 1356 \; cell-\$6-\$7-\$1 pitch \$3;
#X msg 307 1419 \; cell-\$6-\$7-\$1 oct \$4;
#X obj 469 1273 unpack 0 0 0 0 0;
#X msg 469 1462 \; cell-\$6-\$7-\$1 vel \$5;
#X obj 381 -303 <= 1;
#X obj 381 -282 sel 0 1;
#X obj 329 -291 -;
#X msg 381 -260 0;
#X obj 416 -260 \$4;
#X obj 381 -329 \$6;
#X obj 980 -454 inlet;
#X obj 70 1249 spigot;
#X obj 109 1223 > 1;
#X obj 109 1200 \$5;
#X obj 109 1178 loadbang;
#X obj 307 1335 spigot;
#X obj 346 1309 > 1;
#X obj 346 1264 loadbang;
#X obj 346 1286 \$6;
#X obj 469 1380 spigot;
#X obj 508 1354 > 1;
#X obj 508 1309 loadbang;
#X obj 508 1331 \$7;
#X obj 125 747 t f f;
#X msg 120 661 1;
#X obj 1199 -68 route act pitch vel all scale;
#X obj 1386 25 s \$0-rndScale;
#X obj 233 -331 expr (\$3+1) * \$4;
#X obj 1257 -172 s \$0-readSeq;
#X obj 1345 -211 s \$0-writeSeq;
#X obj 166 688 r \$0-readSeq;
#X obj 468 767 r \$0-writeSeq;
#X obj 36 886 + 1;
#X obj 37 914 + 4;
#X obj 1052 -230 s channel\$1-\$2;
#X obj 1052 -282 sel 0;
#X msg 1052 -255 -1 -1;
#X obj 1052 -358 t f f;
#X obj 349 -357 t f b b;
#X obj 453 -303 <= 1;
#X obj 453 -282 sel 0 1;
#X msg 453 -260 0;
#X obj 488 -260 \$4;
#X obj 453 -329 \$5;
#X obj 330 -242 -;
#X text 583 -427 creation Arguments: 1:adress 2:adress 3:steps 4:size 5:pitches 6:octaves 7:velRange;
#X obj 1401 -326 s \$0-stepJump;
#X obj 1052 -397 route play timeSig seqStart seqEnd rnd readSeq writeSeq rst stepJump offset;
#X obj 1428 -351 s \$0-offset;
#X obj 250 -422 bng 15 250 50 0 empty empty empty 17 7 0 10 #fcfcfc #000000 #000000;
#X obj 260 -265 + 0;
#X obj 296 -266 + 0;
#X msg 260 -210 donecanvasdialog 1 1 1 1 0 0 0 \$1 \$2 0 0;
#X obj 627 -272 s \$1-\$2-play;
#X obj 193 759 unpack;
#X obj 125 843 t b a b;
#X obj 148 889 pack f f \$1 \$2;
#X obj 468 802 t a b b b;
#X obj 468 888 pack f f \$1 \$2;
#X obj 98 -116 change;
#X obj 1102 -341 change;
#X obj 1052 -316 change;
#N canvas 89 251 852 572 quant 0;
#X obj 240 3 inlet;
#X obj 247 288 outlet;
#X obj 240 46 unpack;
#X obj 207 157 pack 0 0 0;
#X obj 207 118 spigot;
#X obj 207 186 unpack f f f;
#X obj 247 219 pack;
#X obj 155 76 t b b;
#X msg 155 101 0;
#X obj 229 69 t b f;
#X msg 229 90 1;
#X obj 155 -22 r clock;
#X obj 155 14 mod 96;
#X obj 298 263 s \$0-rstClock;
#X obj 247 246 t a b;
#X obj 155 43 sel 95;
#X connect 0 0 2 0;
#X connect 2 0 9 0;
#X connect 2 1 3 2;
#X connect 3 0 5 0;
#X connect 4 0 3 0;
#X connect 5 1 6 0;
#X connect 5 2 6 1;
#X connect 6 0 14 0;
#X connect 7 0 8 0;
#X connect 7 1 4 0;
#X connect 8 0 4 1;
#X connect 9 0 10 0;
#X connect 9 1 3 1;
#X connect 10 0 4 1;
#X connect 11 0 12 0;
#X connect 12 0 15 0;
#X connect 14 0 1 0;
#X connect 14 1 13 0;
#X connect 15 0 7 0;
#X restore 1257 -241 pd quant;
#X msg 148 912 read ~/PythoSeqPresets/preset-\$3-\$4-\$1-\$2.txt;
#X msg 468 934 write ~/PythoSeqPresets/preset-\$3-\$4-\$1-\$2.txt;
#X connect 0 0 160 0;
#X connect 1 0 7 0;
#X connect 2 0 1 0;
#X connect 2 1 158 0;
#X connect 4 0 5 0;
#X connect 5 0 135 0;
#X connect 5 1 101 0;
#X connect 12 0 167 0;
#X connect 14 0 13 0;
#X connect 16 0 10 0;
#X connect 21 0 84 0;
#X connect 22 0 161 0;
#X connect 23 0 24 0;
#X connect 27 0 25 0;
#X connect 29 0 30 0;
#X connect 31 0 27 0;
#X connect 31 0 23 0;
#X connect 40 0 29 0;
#X connect 40 0 21 0;
#X connect 41 0 80 0;
#X connect 42 0 48 0;
#X connect 44 0 41 0;
#X connect 45 0 41 0;
#X connect 46 0 41 0;
#X connect 47 0 78 0;
#X connect 48 0 102 0;
#X connect 48 1 47 0;
#X connect 49 0 104 2;
#X connect 50 0 51 0;
#X connect 50 1 49 1;
#X connect 51 0 49 0;
#X connect 52 0 123 0;
#X connect 52 3 105 3;
#X connect 53 0 119 0;
#X connect 53 2 104 2;
#X connect 54 0 103 0;
#X connect 54 1 103 1;
#X connect 55 0 45 0;
#X connect 56 0 140 0;
#X connect 57 0 56 0;
#X connect 57 1 44 0;
#X connect 58 0 57 0;
#X connect 59 0 77 0;
#X connect 60 0 61 0;
#X connect 63 0 41 0;
#X connect 64 0 68 0;
#X connect 66 0 64 1;
#X connect 67 0 73 0;
#X connect 67 1 69 0;
#X connect 67 2 64 0;
#X connect 67 3 98 0;
#X connect 68 0 65 0;
#X connect 69 0 72 0;
#X connect 71 0 69 1;
#X connect 72 0 70 0;
#X connect 73 0 76 0;
#X connect 75 0 73 1;
#X connect 76 0 74 0;
#X connect 80 0 53 0;
#X connect 80 0 54 0;
#X connect 80 0 52 0;
#X connect 80 0 110 0;
#X connect 80 1 94 0;
#X connect 80 2 96 0;
#X connect 80 3 97 0;
#X connect 80 4 95 0;
#X connect 81 0 62 0;
#X connect 82 0 98 1;
#X connect 85 0 86 0;
#X connect 87 0 31 0;
#X connect 87 0 40 0;
#X connect 88 0 87 0;
#X connect 89 0 87 0;
#X connect 90 0 91 0;
#X connect 92 0 155 0;
#X connect 94 0 93 0;
#X connect 95 0 93 0;
#X connect 96 0 93 0;
#X connect 97 0 93 0;
#X connect 98 0 81 0;
#X connect 99 0 100 0;
#X connect 100 0 132 0;
#X connect 101 0 146 0;
#X connect 102 0 78 0;
#X connect 103 0 107 0;
#X connect 104 0 108 0;
#X connect 105 0 109 0;
#X connect 106 0 111 0;
#X connect 110 0 127 0;
#X connect 110 4 106 4;
#X connect 112 0 113 0;
#X connect 113 0 115 0;
#X connect 113 1 116 0;
#X connect 114 0 152 0;
#X connect 115 0 114 1;
#X connect 116 0 114 1;
#X connect 117 0 112 0;
#X connect 118 0 155 0;
#X connect 119 0 104 0;
#X connect 120 0 119 1;
#X connect 121 0 120 0;
#X connect 122 0 121 0;
#X connect 123 0 105 0;
#X connect 124 0 123 1;
#X connect 125 0 126 0;
#X connect 126 0 124 0;
#X connect 127 0 106 0;
#X connect 128 0 127 1;
#X connect 129 0 130 0;
#X connect 130 0 128 0;
#X connect 132 0 131 0;
#X connect 133 0 36 0;
#X connect 133 1 35 0;
#X connect 133 2 37 0;
#X connect 133 3 38 0;
#X connect 133 4 134 0;
#X connect 135 0 2 0;
#X connect 138 0 131 0;
#X connect 138 0 163 0;
#X connect 139 0 165 0;
#X connect 140 0 141 0;
#X connect 141 0 55 0;
#X connect 143 0 144 0;
#X connect 144 0 142 0;
#X connect 145 0 169 0;
#X connect 145 1 168 0;
#X connect 146 0 114 0;
#X connect 146 1 117 0;
#X connect 146 2 151 0;
#X connect 147 0 148 0;
#X connect 148 0 149 0;
#X connect 148 1 150 0;
#X connect 149 0 152 1;
#X connect 150 0 152 1;
#X connect 151 0 147 0;
#X connect 152 0 159 0;
#X connect 155 0 145 0;
#X connect 155 1 79 0;
#X connect 155 2 33 0;
#X connect 155 3 34 0;
#X connect 155 4 133 0;
#X connect 155 5 170 0;
#X connect 155 6 137 0;
#X connect 155 7 39 0;
#X connect 155 8 154 0;
#X connect 155 9 156 0;
#X connect 157 0 5 0;
#X connect 158 0 0 0;
#X connect 159 0 0 1;
#X connect 160 0 7 0;
#X connect 163 0 57 0;
#X connect 163 1 164 0;
#X connect 163 2 46 0;
#X connect 164 0 171 0;
#X connect 165 0 166 0;
#X connect 165 1 43 0;
#X connect 165 2 67 0;
#X connect 165 3 59 0;
#X connect 166 0 172 0;
#X connect 167 0 11 0;
#X connect 168 0 32 0;
#X connect 169 0 143 0;
#X connect 170 0 136 0;
#X connect 171 0 41 0;
#X connect 172 0 77 0;
#X coords 1 0 0 1 1020 150 1 0 0;
