#N canvas 0 60 1600 840 10;
#N canvas 44 89 1553 808 Preset 0;
#X obj 129 133 bng 15 250 50 0 empty empty empty 17 7 0 10 -262144
-1 -1;
#X obj 108 133 bng 15 250 50 0 empty empty empty 17 7 0 10 -262144
-1 -1;
#X obj 106 105 hradio 20 1 0 4 empty empty empty 0 -8 0 10 -262144
-1 -1 3;
#X obj 170 133 bng 15 250 50 0 empty empty empty 17 7 0 10 -262144
-1 -1;
#X obj 149 133 bng 15 250 50 0 empty empty empty 17 7 0 10 -262144
-1 -1;
#X obj 13 125 + 1;
#X msg 108 166 1;
#X msg 140 165 2;
#X msg 175 166 3;
#X msg 207 165 4;
#X obj 108 199 s writeSeqP;
#X obj 13 151 s readSeqP;
#X obj 111 46 unpack;
#X obj 111 21 r channel0-1;
#X obj 111 71 - 1;
#X connect 0 0 7 0;
#X connect 1 0 6 0;
#X connect 2 0 5 0;
#X connect 3 0 9 0;
#X connect 4 0 8 0;
#X connect 5 0 11 0;
#X connect 6 0 10 0;
#X connect 7 0 10 0;
#X connect 8 0 10 0;
#X connect 9 0 10 0;
#X connect 12 0 14 0;
#X connect 13 0 12 0;
#X connect 14 0 2 0;
#X coords 0 -1 1 1 100 60 2 100 100;
#X restore 361 514 pd Preset;
#X text 26 754 c;
#X text 27 718 d;
#X text 27 681 e;
#X text 27 663 f;
#X text 27 627 g;
#X text 27 592 a;
#X text 26 556 b;
#X text 25 537 c;
#X text 26 501 d;
#X text 26 464 e;
#X text 26 446 f;
#X text 26 410 g;
#X text 26 375 a;
#X text 25 339 b;
#X obj 2 2 r clock;
#X obj 2 59 int;
#X obj 2 32 / 8;
#X msg 566 596 \; seq-1-1 seqEnd 16;
#X msg 571 493 2;
#X msg 612 495 1;
#X msg 568 638 \; seq-1-1 rnd pitch;
#X msg 569 529 \; seq-1-\$1 play 1 \; seq-1-\$1 timeSig 1 \; seq-1-\$1
seqEnd 16;
#X text 235 246 seqchannel 1 2 16 18 3 0;
#X obj 693 44 seqPanel 1 1;
#X obj 156 512 unpack;
#X obj 156 839 s stepper1;
#X obj 156 745 tabread pitchtable;
#X msg 156 774 pos \$1;
#X msg 189 812 spd \$1;
#X obj 156 474 r channel1-1;
#X obj 156 566 - 1;
#X floatatom 201 567 5 0 0 0 - - -, f 5;
#X msg 517 827 \; cell-\$1-\$2-\$3 vel \$4;
#X msg 334 826 \; cell-\$1-\$2-\$3 pitch \$4;
#X msg 672 828 \; cell-\$1-\$2-\$3 act 2;
#X floatatom 187 306 5 0 0 0 - - -, f 5;
#X obj 93 30 seq/clock;
#X text 129 210 creation arguments: sequencer \, channel steps size
\, number of pitches \, size of velocity;
#X connect 15 0 17 0;
#X connect 17 0 16 0;
#X connect 19 0 22 0;
#X connect 20 0 22 0;
#X connect 25 0 31 0;
#X connect 25 0 32 0;
#X connect 25 1 29 0;
#X connect 27 0 28 0;
#X connect 28 0 26 0;
#X connect 29 0 26 0;
#X connect 30 0 25 0;
#X connect 31 0 27 0;
#X coords 0 -1 1 1 300 200 1 0 0;
