#N canvas 388 193 1041 701 10;
#X obj 306 430 t a a;
#X obj 405 484 outlet;
#X obj 304 487 s chn-\$1-\$2;
#X obj 143 100 tgl 30 0 empty empty empty 17 7 0 10 -228856 -1 -1 1
1;
#X msg 235 321 set rnd scale;
#X msg 169 355 rnd scale 7 5 3 0;
#X obj 101 100 bng 30 250 50 0 empty empty empty 17 7 0 10 -228856
-1 -1;
#X msg 116 258 0;
#X msg 151 259 1;
#X msg 185 259 2;
#X obj 107 10 t b b b;
#X obj 113 180 sel 1;
#X obj 113 149 int;
#X obj 174 100 tgl 30 0 empty empty empty 17 7 0 10 -228856 -1 -1 0
1;
#X obj 159 180 sel 1;
#X obj 159 149 int;
#X obj 205 100 tgl 30 0 empty empty empty 17 7 0 10 -228856 -1 -1 1
1;
#X obj 205 180 sel 1;
#X obj 205 149 int;
#X obj 267 291 t f;
#X msg 164 319 add2 \$1;
#X obj 201 -39 t b b b b b b b b b b b b;
#X obj 236 100 tgl 30 0 empty empty empty 17 7 0 10 -228856 -1 -1 1
1;
#X obj 251 180 sel 1;
#X obj 251 149 int;
#X obj 267 100 tgl 30 0 empty empty empty 17 7 0 10 -228856 -1 -1 0
1;
#X obj 297 180 sel 1;
#X obj 297 149 int;
#X obj 298 100 tgl 30 0 empty empty empty 17 7 0 10 -228856 -1 -1 1
1;
#X obj 343 180 sel 1;
#X obj 343 149 int;
#X obj 329 100 tgl 30 0 empty empty empty 17 7 0 10 -228856 -1 -1 0
1;
#X obj 387 179 sel 1;
#X obj 387 148 int;
#X obj 360 100 tgl 30 0 empty empty empty 17 7 0 10 -228856 -1 -1 1
1;
#X obj 433 179 sel 1;
#X obj 433 148 int;
#X obj 391 100 tgl 30 0 empty empty empty 17 7 0 10 -228856 -1 -1 0
1;
#X obj 479 179 sel 1;
#X obj 479 148 int;
#X obj 422 100 tgl 30 0 empty empty empty 17 7 0 10 -228856 -1 -1 0
1;
#X obj 525 179 sel 1;
#X obj 525 148 int;
#X obj 453 100 tgl 30 0 empty empty empty 17 7 0 10 -228856 -1 -1 0
1;
#X obj 571 179 sel 1;
#X obj 571 148 int;
#X obj 484 100 tgl 30 0 empty empty empty 17 7 0 10 -228856 -1 -1 0
1;
#X obj 617 179 sel 1;
#X obj 617 148 int;
#X msg 244 259 3;
#X msg 289 259 4;
#X msg 323 259 5;
#X msg 388 257 6;
#X msg 425 258 7;
#X msg 459 258 8;
#X msg 528 257 9;
#X msg 563 258 10;
#X msg 597 258 11;
#X connect 0 0 2 0;
#X connect 0 1 1 0;
#X connect 3 0 12 1;
#X connect 4 0 5 0;
#X connect 5 0 0 0;
#X connect 6 0 10 0;
#X connect 7 0 19 0;
#X connect 8 0 19 0;
#X connect 9 0 19 0;
#X connect 10 0 5 0;
#X connect 10 1 21 0;
#X connect 10 2 4 0;
#X connect 11 0 7 0;
#X connect 12 0 11 0;
#X connect 13 0 15 1;
#X connect 14 0 8 0;
#X connect 15 0 14 0;
#X connect 16 0 18 1;
#X connect 17 0 9 0;
#X connect 18 0 17 0;
#X connect 19 0 20 0;
#X connect 20 0 5 0;
#X connect 21 0 12 0;
#X connect 21 1 15 0;
#X connect 21 2 18 0;
#X connect 21 3 24 0;
#X connect 21 4 27 0;
#X connect 21 5 30 0;
#X connect 21 6 33 0;
#X connect 21 7 36 0;
#X connect 21 8 39 0;
#X connect 21 9 42 0;
#X connect 21 10 45 0;
#X connect 21 11 48 0;
#X connect 22 0 24 1;
#X connect 23 0 49 0;
#X connect 24 0 23 0;
#X connect 25 0 27 1;
#X connect 26 0 50 0;
#X connect 27 0 26 0;
#X connect 28 0 30 1;
#X connect 29 0 51 0;
#X connect 30 0 29 0;
#X connect 31 0 33 1;
#X connect 32 0 52 0;
#X connect 33 0 32 0;
#X connect 34 0 36 1;
#X connect 35 0 53 0;
#X connect 36 0 35 0;
#X connect 37 0 39 1;
#X connect 38 0 54 0;
#X connect 39 0 38 0;
#X connect 40 0 42 1;
#X connect 41 0 55 0;
#X connect 42 0 41 0;
#X connect 43 0 45 1;
#X connect 44 0 56 0;
#X connect 45 0 44 0;
#X connect 46 0 48 1;
#X connect 47 0 57 0;
#X connect 48 0 47 0;
#X connect 49 0 19 0;
#X connect 50 0 19 0;
#X connect 51 0 19 0;
#X connect 52 0 19 0;
#X connect 53 0 19 0;
#X connect 54 0 19 0;
#X connect 55 0 19 0;
#X connect 56 0 19 0;
#X connect 57 0 19 0;
#X coords 0 -1 1 1 480 30 1 100 100;
