#N canvas 2 90 1041 701 10;
#X obj 0 1000 vradio 40 1 0 1 empty \$0-pitch empty 0 -8 0 10 -99865
-260818 -166441 0;
#X obj 2021 -233 r \$0-pitches;
#X obj 2021 -160 \$0;
#X obj 388 -478 r \$0-sizeX;
#X obj 442 -409 pack;
#X obj 501 -569 r \$0-sizeX;
#X obj 467 -529 *;
#X obj 467 -665 r \$0-pitches;
#X obj 467 -467 +;
#X obj 1688 231 \$0;
#X obj 1688 129 *;
#X obj 1688 157 +;
#X obj 1688 102 r \$0-sizeX;
#X obj 0 40 tgl 40 0 empty \$0-act empty 17 7 0 10 -166441 -166441
-166441 1 1;
#X obj 1723 140 r \$0-sizeVel;
#X obj 499 -484 r \$0-sizeVel;
#X msg 388 -373 dirty 0;
#X text 617 -758 xUnit yUnit GraphMe (0-2) xFrom yFrom xTo yTo xSize
ySize Xmargin Ymargin;
#X obj 467 -570 + 1;
#X obj 388 -452 t b f;
#X msg 1688 331 \; \$1-act pos 0 \$2;
#X msg 1688 302 \$1 \$2;
#X obj 1688 262 pack f f;
#X obj 1688 192 t b f;
#X obj 1825 232 \$0;
#X msg 1825 303 \$1 \$2;
#X obj 1825 263 pack f f;
#X obj 1825 193 t b f;
#X msg 1825 332 \; \$1-act size \$2;
#X obj 1825 165 r \$0-sizeX;
#X obj 1586 -173 \$0;
#X msg 1586 -102 \$1 \$2;
#X obj 1586 -142 pack f f;
#X obj 1586 -212 t b f;
#X obj 1586 -240 r \$0-sizeX;
#X msg 1586 -73 \; \$1-pitch size \$2;
#X obj 1483 230 \$0;
#X obj 1483 191 t b f;
#X obj 1483 154 r \$0-sizeX;
#X msg 1483 330 \; \$1-velocity size \$2 \$3;
#X obj 1483 261 pack f f f;
#X obj 1540 198 r \$0-sizeVel;
#X msg 1483 301 \$1 \$2 \$3;
#X obj 1184 270 \$0;
#X obj 1184 231 t b f;
#X obj 1184 185 *;
#X obj 1184 54 r \$0-sizeX;
#X obj 1184 301 pack f f;
#X msg 1184 341 \$1 \$2;
#X msg 1184 381 \; \$1-velocity pos 0 \$2;
#X obj 1747 -291 r \$0-sizeX;
#X obj 1747 -168 \$0;
#X obj 2021 -128 pack f f;
#X obj 2021 -202 t b f;
#X msg 2021 -93 \$1 \$2;
#X msg 2021 -70 \; \$1-pitch number \$2;
#X obj -116 -554 s \$0-pitches;
#X obj 9 -541 s \$0-sizeX;
#X obj 91 -541 s \$0-sizeVel;
#X obj 596 261 \$0;
#X obj 550 820 int;
#X obj 628 223 t b f f;
#X obj 550 744 t b b;
#X obj 540 897 pack f f;
#X obj 1229 248 spigot;
#X obj 1262 175 r \$0-sizeVel;
#X obj 1262 202 != 0;
#X obj 1275 240 sel 0;
#X obj 1373 229 \$0;
#X obj 1373 260 pack f f;
#X msg 1373 300 \$1 \$2;
#X obj 1375 194 t b f;
#X msg 1363 329 \; \$1-velocity \$2;
#X obj 1634 -206 r \$0-pitches;
#X msg 1747 -102 \$1 \$2;
#X obj 1747 -142 pack f f;
#X obj 1788 -166 spigot;
#X obj 1926 -168 \$0;
#X obj 1926 -137 pack f f;
#X msg 1926 -97 \$1 \$2;
#X obj 1926 -198 t b f;
#X obj 1849 -332 r \$0-pitches;
#X msg 1916 -68 \; \$1-pitch \$2;
#X msg 1926 -221 0;
#X msg 65 -634 50;
#X msg 1748 -75 \; \$1-pitch pos 0 \$2;
#X msg -31 -639 20;
#X obj 28 -287 s \$0-pitch;
#X obj -76 -298 s \$0-act;
#X obj 183 -310 s \$0-velocity;
#X msg 1275 284 1000;
#X msg 1858 -165 1000;
#X obj 67 444 -;
#X obj 67 420 int;
#X obj 67 389 t b f;
#X obj 85 339 r \$0-pitches;
#X msg 829 320 \$1 \$2 \$3 \$4;
#X msg 828 352 \; \$1-act color \$2 \$3 \$4;
#X obj 660 186 +;
#X obj 628 148 sel 0;
#X msg 613 176 0;
#X obj 388 -317 s seqcell-\$1-\$2-\$3;
#X obj 43 -589 namecanvas seqcell-\$1-\$2-\$3;
#X obj 540 977 s channel\$1-\$2;
#X obj 791 142 sel 0 1;
#X obj 829 280 pack f f 22 1;
#X obj 843 234 int;
#X obj 793 213 t f f;
#X obj 788 245 t b f;
#X obj 858 122 r \$0-sizeX;
#X obj -76 -328 sel 2;
#X obj 638 -151 \$0;
#X msg 613 -22 \; \$1-pitch color \$2 \$3 \$4;
#X msg 612 -54 \$1 \$2 \$3 \$4;
#X msg 790 -54 \$1 \$2 \$3 \$4;
#X msg 788 -24 \; \$1-velocity color \$2 \$3 \$4;
#X obj 612 -94 pack f f 14 1;
#X obj 690 -163 sel 0 1 2;
#X obj 851 -163 sel 0 1 2;
#X msg 741 -138 0;
#X msg 902 -138 0;
#X obj 790 -94 pack f f 14 1;
#X msg 680 -138 2;
#X msg 709 -140 11;
#X msg 870 -140 11;
#X obj 684 -265 == \$3;
#X obj 683 -229 change;
#X obj 684 -288 r edt_idx;
#X obj 603 -273 == \$1;
#X obj 639 -236 +;
#X obj 645 -268 t b f;
#X obj 639 -213 == 2;
#X msg 841 -139 21;
#X obj 599 -306 r edt_seq;
#X obj 536 169 r \$0-sizeX;
#X obj 542 198 b;
#X obj 84 569 s \$0-toggle;
#X obj 791 103 r \$0-toggle;
#X floatatom -74 -736 5 0 0 0 - - -, f 5;
#X obj -209 -500 r cell-\$1-\$2-\$3;
#X obj 596 62 r clock-\$1-\$2;
#X obj 596 89 == \$3;
#X obj 593 863 f;
#X msg 1375 170 1;
#X obj 467 -439 + 0;
#X obj 1540 228 - 6;
#X msg 442 -373 donecanvasdialog 1 1 2 1 0 0 0 \$1 \$2 0 0;
#X obj 1229 273 + 3;
#X msg 871 214 27;
#X msg 813 188 1;
#X msg 897 226 0;
#X msg 782 189 2;
#X obj 999 322 s cellstate-\$1-\$2;
#X obj 999 261 b;
#X obj 999 221 r cellstates-\$1-\$2;
#X obj 102 535 s \$0-actstate;
#X obj 64 503 s \$0-velstate;
#X obj 67 467 s \$0-pitchstate;
#X obj 1050 139 r \$0-pitchstate;
#X obj 640 846 r \$0-velstate;
#X obj 1024 176 r \$0-actstate;
#X obj 677 141 r \$0-actstate;
#X obj 1101 271 r \$0-velstate;
#X obj 721 745 r \$0-pitchstate;
#X obj 304 282 r \$0-toggle;
#X obj 304 643 \$0;
#X obj 327 584 \$0;
#X obj 304 525 sel 0 1;
#X msg 304 679 \; \$1-pitch color 2 2 1;
#X msg 327 609 \; \$1-pitch color 2 14 1;
#X obj 109 176 !=;
#X obj 109 205 sel 0 1;
#X msg 132 231 1;
#X obj 127 144 t f f;
#X obj 109 256 t a;
#X obj -96 -411 t a a a;
#X obj -76 -383 route act;
#X msg -101 -671 25;
#X obj 1176 -167 \$0;
#X msg 1176 -96 \$1 \$2;
#X obj 1176 -136 pack f f;
#X obj 1176 -206 t b f;
#X obj 1313 -166 \$0;
#X msg 1313 -95 \$1 \$2;
#X obj 1313 -135 pack f f;
#X obj 1313 -205 t b f;
#X obj 1313 -233 r \$0-sizeX;
#X msg 1176 -50 \; \$1-oct pos 0 \$2;
#X msg 1313 -66 \; \$1-oct size \$2;
#X obj 1425 -158 \$0;
#X obj 1425 -126 pack f f;
#X obj 1425 -200 t b f;
#X msg 1425 -91 \$1 \$2;
#X msg 1425 -68 \; \$1-oct number \$2;
#X obj 1425 -242 r \$0-octaves;
#X msg 1452 -282 2;
#X obj 467 -638 t f f;
#X obj 467 -498 +;
#X obj 1176 -312 r \$0-octaves;
#X msg 1222 -245 0;
#X obj 1779 -223 *;
#X obj 1797 -364 r \$0-octaves;
#X obj 1747 -263 t b f;
#X obj 1202 163 +;
#X obj 1291 98 r \$0-octaves;
#X obj 1202 76 r \$0-pitches;
#X obj 1771 112 +;
#X obj -51 -680 route pitches sizeX sizeVel octaves;
#X obj 189 -537 s \$0-octaves;
#X obj 593 -582 r \$0-octaves;
#X obj 1176 -281 sel 1;
#X obj 1798 -333 sel 1;
#X msg 1798 -256 0;
#X obj 1291 122 sel 1;
#X msg 1291 146 0;
#X obj 1825 95 sel 1;
#X msg 1825 120 0;
#X obj 1771 18 r \$0-pitches;
#X obj 1825 72 r \$0-octaves;
#X obj 547 -515 *;
#X obj 501 -546 t b f f;
#X msg 995 -55 \$1 \$2 \$3 \$4;
#X obj 1056 -164 sel 0 1 2;
#X msg 1107 -139 0;
#X obj 995 -95 pack f f 14 1;
#X msg 993 -25 \; \$1-oct color \$2 \$3 \$4;
#X obj 630 -191 t b f f f;
#X msg 1046 -140 20;
#X msg 1075 -141 10;
#X obj 999 297 pack \$3 0 0 0 0;
#X obj 1075 246 r \$0-octstate;
#X obj 73 97 s \$0-octstate;
#X obj 6 -459 route pitch oct vel;
#X obj 140 -338 s \$0-oct;
#X obj 722 665 abs;
#X obj 722 570 r \$0-octstate;
#X obj 740 592 r \$0-octaves;
#X obj 722 636 -;
#X obj 784 637 r \$0-pitches;
#X obj 740 614 - 1;
#X obj 775 699 *;
#X obj 770 803 +;
#X obj 770 773 t b f;
#X obj 593 -559 sel 1;
#X msg 593 -532 0;
#X msg 1176 -246 1000;
#X obj 0 3 vsl 40 34 0 1 0 0 empty \$0-velocity empty 0 0 0 10 -128992
-260818 -166441 0 1;
#X obj 0 1000 vradio 40 1 0 1 empty \$0-oct empty 0 -8 0 10 -99865
-195568 -166441 0;
#X obj -76 -358 pipe 5;
#X obj 6 -356 -;
#X obj 6 -408 t b f;
#X obj 6 -377 int;
#X obj 56 -427 r \$0-pitches;
#X msg 53 -483 4;
#X obj 85 362 - 1;
#X obj 55 -394 - 1;
#X obj 108 284 spigot;
#X obj 7 -327 t b f b;
#X msg -3 -245 1;
#X msg 55 -234 0;
#X msg 169 230 1;
#X obj -209 -517 r cell-\$1-\$2-\$4;
#X obj 1426 622 pack f \$1 \$2 \$3;
#X msg 1426 658 \; cell-\$2-\$3-\$4 vel \$1;
#X obj 1426 522 r \$0-velstate;
#X obj 1426 587 spigot;
#X obj 9 -564 s \$0-init;
#X obj 987 424 r \$0-init;
#X obj 9 -586 b;
#X obj 988 488 expr \$3 == \$4;
#X obj 948 622 pack f \$1 \$2 \$3;
#X obj 948 589 spigot;
#X msg 948 658 \; cell-\$2-\$3-\$4 act \$1;
#X obj 1271 622 pack f \$1 \$2 \$3;
#X obj 1271 589 spigot;
#X obj 1100 622 pack f \$1 \$2 \$3;
#X obj 1100 589 spigot;
#X obj 1100 521 r \$0-pitchstate;
#X obj 1271 522 r \$0-octstate;
#X msg 1100 658 \; cell-\$2-\$3-\$4 pitch \$1;
#X msg 1271 658 \; cell-\$2-\$3-\$4 oct \$1;
#X obj 1078 458 bng 15 250 50 0 empty empty empty 17 7 0 10 -262144
-1 -1;
#X obj 948 518 r \$0-actstate;
#X obj 987 452 delay 2000;
#X obj 108 309 spigot;
#X obj 187 292 expr \$3 != \$4;
#X obj 187 260 r \$0-init;
#X obj 304 309 spigot;
#X obj 187 323 sel 0;
#X obj 169 205 r \$0-init;
#X obj 677 163 * 2;
#X obj 550 714 sel 3 1;
#X obj 602 746 t b b;
#X msg 625 782 -1;
#X obj 878 158 sel 0 1 3;
#X obj 1200 784 change;
#X obj 1371 784 change;
#X obj 1526 784 change;
#X obj 1048 788 change;
#X msg 1088 740 set -1;
#X obj 657 -42;
#X obj 1849 -304 > 1;
#X obj 1880 -253 sel 0;
#X obj 1848 -279 t f f;
#X obj 467 -613 sel 1;
#X msg 430 -596 0;
#X obj 1202 103 sel 1;
#X msg 1202 128 0;
#X obj 1771 54 sel 1;
#X msg 1771 80 0;
#X floatatom 697 784 5 0 0 0 - - -, f 5;
#X obj -90 -511 r \$0-init;
#X obj -93 -477 expr \$3 != \$4;
#X obj -134 -450 spigot 1;
#N canvas 332 222 653 564 colors 0;
#X obj 27 38 \$0;
#X msg 29 113 \; \$1-velocity color 21 14 1;
#X msg 25 170 \; \$1-act color 1 22 1;
#X msg 24 215 \; \$1-oct color 21 20 1;
#X obj 149 -137 expr \$3 != \$4;
#X obj 148 -95 sel 1 0;
#X obj 425 -43 \$0;
#X msg 425 189 \; \$1-pitch 0 \; \$1-act 0;
#X obj 427 -85 bng 15 250 50 0 empty empty empty 17 7 0 10 -262144
-1 -1;
#X msg 427 83 \; \$1-act color 1 23 1;
#X msg 429 -9 \; \$1-pitch color 1 1 1;
#X msg 425 131 \; \$1-oct color 1 1 1;
#X msg 424 32 \; \$1-velocity color 1 14 1;
#X msg 27 274 \; \$1-pitch 0 \; \$1-act 0;
#X msg 33 74 \; \$1-pitch color 2 2 1;
#X floatatom 335 -23 5 0 0 0 - - -, f 5;
#X obj 475 -133 \$0;
#X obj 477 -175 bng 15 250 50 0 empty empty empty 17 7 0 10 -262144
-1 -1;
#X msg 479 -98 \; \$1-pitch color 7 1 1;
#X obj 148 -70 \$3;
#X obj 227 35 \$0;
#X msg 224 212 \; \$1-oct color 21 20 1;
#X msg 227 271 \; \$1-pitch 0 \; \$1-act 0;
#X obj 115 5 sel 0 1;
#X obj 225 15 bng 15 250 50 0 empty empty empty 17 7 0 10 -262144 -1
-1;
#X obj 147 -47 mod 4;
#X obj 137 -22 expr $f1 == 0;
#X obj 34 7 bng 15 250 50 0 empty empty empty 17 7 0 10 -262144 -1
-1;
#X obj 149 -174 r \$0-init;
#X msg 229 111 \; \$1-velocity color 11 14 1;
#X msg 225 167 \; \$1-act color 1 22 1;
#X msg 232 72 \; \$1-pitch color 21 21 1;
#X connect 0 0 1 0;
#X connect 0 0 3 0;
#X connect 0 0 13 0;
#X connect 0 0 2 0;
#X connect 0 0 14 0;
#X connect 4 0 5 0;
#X connect 5 0 19 0;
#X connect 5 1 6 0;
#X connect 6 0 12 0;
#X connect 6 0 11 0;
#X connect 6 0 7 0;
#X connect 6 0 10 0;
#X connect 6 0 9 0;
#X connect 6 0 15 0;
#X connect 8 0 6 0;
#X connect 16 0 18 0;
#X connect 17 0 16 0;
#X connect 19 0 25 0;
#X connect 20 0 29 0;
#X connect 20 0 21 0;
#X connect 20 0 22 0;
#X connect 20 0 30 0;
#X connect 20 0 31 0;
#X connect 23 0 0 0;
#X connect 23 1 20 0;
#X connect 24 0 20 0;
#X connect 25 0 26 0;
#X connect 26 0 23 0;
#X connect 27 0 0 0;
#X connect 28 0 4 0;
#X restore 179 -126 pd colors;
#X obj 382 553 bng 15 250 50 0 empty empty empty 17 7 0 10 -262144
-1 -1;
#X obj 430 302 \$3;
#X obj 304 472 spigot;
#X obj 346 442 == 0;
#X obj 506 634 \$0;
#X obj 529 575 \$0;
#X obj 506 516 sel 0 1;
#X obj 584 544 bng 15 250 50 0 empty empty empty 17 7 0 10 -262144
-1 -1;
#X obj 506 463 spigot;
#X obj 430 266 r \$0-init;
#X obj 430 329 mod 4;
#X obj 430 361 expr $f1 == 0;
#X msg 529 600 \; \$1-pitch color 21 14 1;
#X msg 505 671 \; \$1-pitch color 21 21 1;
#X obj 144 -94 r ctlInput;
#X obj 144 -64 route buttons;
#X obj 144 44 change;
#X obj 144 67 sel 1;
#X obj 239 -17 \$3;
#X obj 239 5 + 1;
#X obj 144 19 route;
#X obj 293 -58 bng 15 250 50 0 empty empty empty 17 7 0 10 -262144
-1 -1;
#X obj 239 -41 r \$0-init;
#X obj 540 934 spigot;
#X obj 600 917 r \$1-\$2-play;
#X obj 435 -127 r 2ch-\$1-\$2;
#X obj 435 -63 spigot;
#X msg 394 -19 1;
#X obj 596 119 t f f;
#X obj 435 -5 route vel pitch;
#X obj 449 95 < 12;
#X obj 486 148 * -1;
#X obj 486 95 mod 12;
#X obj 486 122 - 11;
#X floatatom 39 205 5 0 0 0 - - -, f 5;
#X obj 486 35 spigot;
#X obj 434 36 spigot;
#X obj 537 -34 == 12;
#X obj 432 -36 t b a b;
#X obj 496 -34 != 12;
#X obj 537 -61 \$5;
#X obj 435 -92 spigot;
#X obj 475 -160 r recMidi;
#X connect 0 0 94 0;
#X connect 0 0 173 0;
#X connect 0 0 349 0;
#X connect 1 0 53 0;
#X connect 2 0 52 0;
#X connect 3 0 19 0;
#X connect 4 0 146 0;
#X connect 5 0 220 0;
#X connect 6 0 197 0;
#X connect 7 0 196 0;
#X connect 8 0 144 0;
#X connect 9 0 22 0;
#X connect 10 0 11 0;
#X connect 11 0 23 0;
#X connect 12 0 10 0;
#X connect 13 0 136 0;
#X connect 13 0 155 0;
#X connect 14 0 11 1;
#X connect 15 0 8 1;
#X connect 16 0 101 0;
#X connect 18 0 6 0;
#X connect 19 0 16 0;
#X connect 19 1 4 0;
#X connect 21 0 20 0;
#X connect 22 0 21 0;
#X connect 23 0 9 0;
#X connect 23 1 22 1;
#X connect 24 0 26 0;
#X connect 25 0 28 0;
#X connect 26 0 25 0;
#X connect 27 0 24 0;
#X connect 27 1 26 1;
#X connect 29 0 27 0;
#X connect 30 0 32 0;
#X connect 31 0 35 0;
#X connect 32 0 31 0;
#X connect 33 0 30 0;
#X connect 33 1 32 1;
#X connect 34 0 33 0;
#X connect 36 0 40 0;
#X connect 37 0 36 0;
#X connect 37 1 40 1;
#X connect 38 0 37 0;
#X connect 40 0 42 0;
#X connect 41 0 145 0;
#X connect 42 0 39 0;
#X connect 43 0 47 0;
#X connect 44 0 43 0;
#X connect 44 1 64 0;
#X connect 45 0 44 0;
#X connect 46 0 45 0;
#X connect 47 0 48 0;
#X connect 48 0 49 0;
#X connect 50 0 202 0;
#X connect 51 0 75 0;
#X connect 52 0 54 0;
#X connect 53 0 2 0;
#X connect 53 1 52 1;
#X connect 54 0 55 0;
#X connect 59 0 105 0;
#X connect 60 0 63 0;
#X connect 61 0 59 0;
#X connect 61 1 294 0;
#X connect 61 2 291 0;
#X connect 62 0 60 0;
#X connect 62 1 142 0;
#X connect 63 0 338 0;
#X connect 64 0 147 0;
#X connect 65 0 66 0;
#X connect 66 0 64 1;
#X connect 66 0 67 0;
#X connect 67 0 90 0;
#X connect 67 0 143 0;
#X connect 68 0 69 0;
#X connect 69 0 70 0;
#X connect 70 0 72 0;
#X connect 71 0 68 0;
#X connect 71 1 69 1;
#X connect 74 0 85 0;
#X connect 75 0 74 0;
#X connect 76 0 75 1;
#X connect 77 0 78 0;
#X connect 78 0 79 0;
#X connect 79 0 82 0;
#X connect 80 0 77 0;
#X connect 80 1 78 1;
#X connect 81 0 301 0;
#X connect 83 0 80 0;
#X connect 84 0 58 0;
#X connect 86 0 57 0;
#X connect 90 0 47 1;
#X connect 91 0 75 1;
#X connect 92 0 157 0;
#X connect 93 0 92 0;
#X connect 94 0 93 0;
#X connect 94 1 92 1;
#X connect 95 0 254 0;
#X connect 96 0 97 0;
#X connect 98 0 61 0;
#X connect 99 0 100 0;
#X connect 99 1 98 0;
#X connect 100 0 61 0;
#X connect 104 0 151 0;
#X connect 104 1 149 0;
#X connect 105 0 96 0;
#X connect 106 0 105 1;
#X connect 106 0 105 2;
#X connect 107 0 108 0;
#X connect 107 1 106 1;
#X connect 108 0 105 0;
#X connect 108 1 105 1;
#X connect 108 1 105 2;
#X connect 109 0 151 0;
#X connect 110 0 88 0;
#X connect 110 1 88 0;
#X connect 111 0 116 0;
#X connect 111 0 121 0;
#X connect 111 0 224 0;
#X connect 113 0 112 0;
#X connect 114 0 115 0;
#X connect 116 0 113 0;
#X connect 117 0 122 0;
#X connect 117 1 123 0;
#X connect 117 2 119 0;
#X connect 118 0 132 0;
#X connect 118 1 124 0;
#X connect 118 2 120 0;
#X connect 119 0 116 1;
#X connect 120 0 121 1;
#X connect 121 0 114 0;
#X connect 122 0 116 1;
#X connect 123 0 116 1;
#X connect 124 0 121 1;
#X connect 125 0 130 0;
#X connect 126 0 226 0;
#X connect 127 0 125 0;
#X connect 128 0 129 0;
#X connect 129 0 131 0;
#X connect 130 0 129 0;
#X connect 130 1 129 1;
#X connect 131 0 126 0;
#X connect 132 0 121 1;
#X connect 133 0 128 0;
#X connect 134 0 135 0;
#X connect 135 0 59 0;
#X connect 137 0 104 0;
#X connect 139 0 313 0;
#X connect 140 0 141 0;
#X connect 141 0 343 0;
#X connect 142 0 63 1;
#X connect 143 0 71 0;
#X connect 144 0 4 1;
#X connect 145 0 40 2;
#X connect 146 0 101 0;
#X connect 147 0 47 1;
#X connect 148 0 105 1;
#X connect 149 0 107 0;
#X connect 150 0 105 1;
#X connect 150 0 105 2;
#X connect 151 0 107 0;
#X connect 153 0 229 0;
#X connect 154 0 153 0;
#X connect 158 0 229 2;
#X connect 159 0 142 1;
#X connect 160 0 229 1;
#X connect 161 0 290 0;
#X connect 162 0 229 4;
#X connect 163 0 241 0;
#X connect 163 0 310 0;
#X connect 164 0 287 0;
#X connect 165 0 168 0;
#X connect 166 0 169 0;
#X connect 167 0 165 0;
#X connect 167 1 166 0;
#X connect 170 0 171 0;
#X connect 171 0 174 0;
#X connect 171 1 172 0;
#X connect 172 0 174 0;
#X connect 173 0 170 1;
#X connect 173 1 170 0;
#X connect 174 0 256 0;
#X connect 175 0 207 0;
#X connect 175 1 176 0;
#X connect 175 2 232 0;
#X connect 176 0 248 0;
#X connect 177 0 56 0;
#X connect 178 0 180 0;
#X connect 179 0 187 0;
#X connect 180 0 179 0;
#X connect 181 0 178 0;
#X connect 181 1 180 1;
#X connect 182 0 184 0;
#X connect 183 0 188 0;
#X connect 184 0 183 0;
#X connect 185 0 182 0;
#X connect 185 1 184 1;
#X connect 186 0 185 0;
#X connect 189 0 190 0;
#X connect 190 0 192 0;
#X connect 191 0 189 0;
#X connect 191 1 190 1;
#X connect 192 0 193 0;
#X connect 194 0 191 0;
#X connect 195 0 191 0;
#X connect 196 0 304 0;
#X connect 197 0 8 0;
#X connect 198 0 210 0;
#X connect 199 0 181 0;
#X connect 200 0 76 0;
#X connect 201 0 211 0;
#X connect 202 0 51 0;
#X connect 202 1 200 0;
#X connect 203 0 45 1;
#X connect 204 0 213 0;
#X connect 205 0 306 0;
#X connect 206 0 10 1;
#X connect 207 0 56 0;
#X connect 207 0 138 0;
#X connect 207 1 57 0;
#X connect 207 1 268 0;
#X connect 207 2 58 0;
#X connect 207 3 208 0;
#X connect 209 0 243 0;
#X connect 210 0 245 0;
#X connect 210 1 199 0;
#X connect 211 0 212 0;
#X connect 211 1 200 1;
#X connect 212 0 200 1;
#X connect 213 0 214 0;
#X connect 213 1 203 1;
#X connect 214 0 203 1;
#X connect 215 0 216 0;
#X connect 215 1 206 1;
#X connect 216 0 206 1;
#X connect 217 0 308 0;
#X connect 218 0 215 0;
#X connect 219 0 197 1;
#X connect 220 0 6 0;
#X connect 220 1 6 1;
#X connect 220 2 219 0;
#X connect 221 0 225 0;
#X connect 222 0 227 0;
#X connect 222 1 228 0;
#X connect 222 2 223 0;
#X connect 223 0 224 1;
#X connect 224 0 221 0;
#X connect 226 0 111 0;
#X connect 226 1 117 0;
#X connect 226 1 118 0;
#X connect 226 3 222 0;
#X connect 227 0 224 1;
#X connect 228 0 224 1;
#X connect 229 0 152 0;
#X connect 230 0 229 3;
#X connect 232 0 250 0;
#X connect 232 1 233 0;
#X connect 232 2 89 0;
#X connect 234 0 240 0;
#X connect 235 0 237 0;
#X connect 236 0 239 0;
#X connect 237 0 234 0;
#X connect 238 0 240 1;
#X connect 239 0 237 1;
#X connect 240 0 242 0;
#X connect 241 0 60 1;
#X connect 242 0 241 0;
#X connect 242 1 241 1;
#X connect 243 0 244 0;
#X connect 243 1 219 1;
#X connect 244 0 219 1;
#X connect 245 0 181 0;
#X connect 246 0 156 0;
#X connect 247 0 231 0;
#X connect 248 0 110 0;
#X connect 249 0 257 0;
#X connect 250 0 251 0;
#X connect 250 1 249 1;
#X connect 251 0 249 0;
#X connect 252 0 255 0;
#X connect 253 0 250 0;
#X connect 254 0 93 1;
#X connect 255 0 251 1;
#X connect 256 0 284 0;
#X connect 257 0 258 0;
#X connect 257 1 87 0;
#X connect 257 2 259 0;
#X connect 258 0 256 1;
#X connect 259 0 256 1;
#X connect 260 0 256 1;
#X connect 261 0 313 0;
#X connect 262 0 263 0;
#X connect 264 0 265 0;
#X connect 265 0 262 0;
#X connect 267 0 283 0;
#X connect 268 0 266 0;
#X connect 269 0 265 1;
#X connect 269 0 274 1;
#X connect 269 0 276 1;
#X connect 269 0 271 1;
#X connect 270 0 272 0;
#X connect 271 0 270 0;
#X connect 273 0 280 0;
#X connect 274 0 273 0;
#X connect 275 0 279 0;
#X connect 276 0 275 0;
#X connect 277 0 276 0;
#X connect 278 0 274 0;
#X connect 281 0 269 0;
#X connect 282 0 271 0;
#X connect 283 0 269 0;
#X connect 284 0 13 0;
#X connect 285 0 284 1;
#X connect 285 0 287 1;
#X connect 285 0 288 0;
#X connect 286 0 285 0;
#X connect 287 0 317 0;
#X connect 287 0 323 0;
#X connect 289 0 260 0;
#X connect 290 0 98 1;
#X connect 291 0 62 0;
#X connect 291 1 292 0;
#X connect 292 0 60 0;
#X connect 292 1 293 0;
#X connect 293 0 63 1;
#X connect 294 0 106 0;
#X connect 294 1 148 0;
#X connect 294 2 150 0;
#X connect 295 0 276 0;
#X connect 296 0 274 0;
#X connect 297 0 265 0;
#X connect 298 0 271 0;
#X connect 299 0 298 0;
#X connect 299 0 295 0;
#X connect 299 0 296 0;
#X connect 299 0 297 0;
#X connect 301 0 303 0;
#X connect 302 0 91 0;
#X connect 302 0 83 0;
#X connect 303 0 76 1;
#X connect 303 1 302 0;
#X connect 304 0 305 0;
#X connect 304 1 18 0;
#X connect 305 0 18 0;
#X connect 306 0 307 0;
#X connect 306 1 203 0;
#X connect 307 0 203 0;
#X connect 308 0 309 0;
#X connect 308 1 206 0;
#X connect 309 0 206 0;
#X connect 311 0 312 0;
#X connect 312 0 313 1;
#X connect 313 0 175 0;
#X connect 315 0 166 0;
#X connect 316 0 325 0;
#X connect 317 0 167 0;
#X connect 318 0 317 1;
#X connect 319 0 328 0;
#X connect 320 0 327 0;
#X connect 321 0 319 0;
#X connect 321 1 320 0;
#X connect 322 0 320 0;
#X connect 323 0 321 0;
#X connect 324 0 316 0;
#X connect 325 0 326 0;
#X connect 326 0 318 0;
#X connect 326 0 323 1;
#X connect 330 0 335 0;
#X connect 331 0 332 0;
#X connect 332 0 13 0;
#X connect 333 0 334 0;
#X connect 334 0 335 1;
#X connect 335 0 331 0;
#X connect 336 0 333 0;
#X connect 337 0 333 0;
#X connect 338 0 103 0;
#X connect 339 0 338 1;
#X connect 340 0 356 0;
#X connect 341 0 353 0;
#X connect 342 0 13 0;
#X connect 343 0 341 1;
#X connect 343 1 99 0;
#X connect 344 0 246 0;
#X connect 344 1 350 0;
#X connect 344 1 351 0;
#X connect 345 0 247 0;
#X connect 346 0 0 0;
#X connect 347 0 348 0;
#X connect 348 0 346 0;
#X connect 350 0 345 0;
#X connect 350 0 347 0;
#X connect 351 0 0 0;
#X connect 352 0 350 1;
#X connect 353 0 342 0;
#X connect 353 1 344 0;
#X connect 353 2 355 0;
#X connect 354 0 351 1;
#X connect 355 0 352 0;
#X connect 355 0 354 0;
#X connect 356 0 341 0;
#X connect 357 0 356 1;
#X coords 1 0 0 1 40 80 2 0 0;
