#N canvas 534 335 450 300 10;
#X obj 108 198 moses 0.2;
#X obj 168 253 / 0.8;
#X obj 168 228 - 0.2;
#X obj 122 167 -;
#X msg 122 142 1;
#X obj 122 112 t b f f;
#X obj 122 60 loadbang;
#X obj 108 26 inlet;
#X obj 168 284 outlet;
#X msg 108 233 0;
#X msg 122 89 0.1;
#X connect 0 0 9 0;
#X connect 0 1 2 0;
#X connect 1 0 8 0;
#X connect 2 0 1 0;
#X connect 3 0 1 1;
#X connect 4 0 3 0;
#X connect 5 0 4 0;
#X connect 5 1 3 1;
#X connect 5 2 2 1;
#X connect 5 2 0 1;
#X connect 6 0 10 0;
#X connect 7 0 0 0;
#X connect 9 0 8 0;
#X connect 10 0 5 0;
