#N canvas 2 66 1054 705 10;
#X obj 161 47 inlet~;
#X obj 135 119 vu 16 680 empty empty -1 -8 0 10 -66577 -1 1 0;
#X obj 198 102 env~;
#X obj 168 133 - 100;
#X obj 19 378 dac~;
#X obj 19 297 *~;
#X obj 39 216 line~;
#X msg 48 172 \$1 50;
#X obj 108 107 vsl 18 693 0 1 0 0 empty empty empty 0 -9 0 10 -262144
-1 -1 69200 1;
#X obj 241 -3 ctlin;
#X obj 255 58 == \$1;
#X obj 241 93 spigot;
#X obj 241 121 / 127;
#X obj 37 30 r init;
#X msg 37 55 1;
#X obj 36 3 loadbang;
#X floatatom 308 43 5 0 0 0 - - -, f 5;
#X floatatom 309 15 5 0 0 0 - - -, f 5;
#X obj 255 27 - 4;
#X obj 326 117 route fader;
#X obj 329 88 r ctlInput;
#X obj 327 171 change;
#X obj 65 311 *~;
#X obj 201 341;
#X obj 330 140 route 9;
#X connect 0 0 2 0;
#X connect 0 0 5 0;
#X connect 2 0 3 0;
#X connect 5 0 4 0;
#X connect 5 0 4 1;
#X connect 6 0 5 1;
#X connect 6 0 22 1;
#X connect 7 0 6 0;
#X connect 8 0 7 0;
#X connect 9 0 11 0;
#X connect 9 1 17 0;
#X connect 9 1 18 0;
#X connect 10 0 11 1;
#X connect 11 0 12 0;
#X connect 12 0 8 0;
#X connect 13 0 14 0;
#X connect 14 0 8 0;
#X connect 15 0 14 0;
#X connect 18 0 10 0;
#X connect 18 0 16 0;
#X connect 19 0 24 0;
#X connect 20 0 19 0;
#X connect 21 0 7 0;
#X connect 22 0 4 1;
#X connect 24 0 21 0;
#X coords 0 -1 1 1 83 717 1 100 100;
