#N struct IR-blobs float x float y symbol s;
#N struct NC-stick float x float y;
#N struct cc-left-stick float x float y;
#N struct cc-right-stick float x float y;
#N canvas 0 93 1920 987 10;
#N canvas 634 137 1148 943 control 0;
#X obj -9 473 s ctl;
#X msg -49 341 1;
#X msg -12 339 2;
#X msg 21 340 3;
#X obj 116 157 bng 15 250 50 0 left empty empty 17 7 0 10 -262144 -1
-1;
#X obj 151 158 bng 15 250 50 0 right empty empty 17 7 0 10 -262144
-1 -1;
#X obj 132 132 bng 15 250 50 0 up empty empty 17 7 0 10 -262144 -1
-1;
#X obj 133 181 bng 15 250 50 0 down empty empty 17 7 0 10 -262144 -1
-1;
#X obj 51 339 r select;
#X obj 188 162 bng 15 250 50 0 rec empty rec 17 7 0 10 -262144 -1 -1
;
#X obj 232 161 bng 15 250 50 0 play empty play 17 7 0 10 -262144 -1
-1;
#X obj -11 408 pack f f f;
#X obj 51 361 unpack;
#X msg -10 438 \$2 \$3 \$1;
#X obj 232 196 bng 15 250 50 0 stop empty stop 17 7 0 10 -262144 -1
-1;
#X obj 183 119 bng 15 250 50 0 rst empty reset 17 7 0 10 -262144 -1
-1;
#X obj -50 260 r rec;
#X obj -13 281 r play;
#X obj 21 306 r stop;
#X obj -12 378 t f;
#X obj 111 -36 keyname;
#X obj 105 17 symbol;
#X obj 104 -11 sel 1;
#X obj 167 191 bng 15 250 50 0 ! empty ! 17 7 0 10 -262144 -1 -1;
#X obj 103 53 sel Left Right Up Down Prior Next Shift_R Control_R Space
;
#N canvas 1072 294 450 300 select 0;
#X obj 121 -84 r left;
#X obj 267 -86 r up;
#X obj 325 -84 r down;
#X obj 104 -57 bng 15 250 50 0 empty empty empty 17 7 0 10 -262144
-1 -1;
#X obj 190 -83 r right;
#X obj 178 -57 bng 15 250 50 0 empty empty empty 17 7 0 10 -262144
-1 -1;
#X obj 268 -36 bng 15 250 50 0 empty empty empty 17 7 0 10 -262144
-1 -1;
#X obj 329 -43 bng 15 250 50 0 empty empty empty 17 7 0 10 -262144
-1 -1;
#X obj 153 225 s select;
#X obj 155 185 pack;
#X obj 147 17 +;
#X obj 175 19 int;
#X msg 143 -24 -1;
#X msg 176 -24 1;
#X floatatom 209 197 5 0 0 0 - - -, f 5;
#X obj 137 118 mod 4;
#X obj 135 146 + 1;
#X obj 270 29 +;
#X obj 298 31 int;
#X msg 266 -12 -1;
#X msg 299 -12 1;
#X obj 270 112 mod 4;
#X obj 268 140 + 1;
#X obj 209 145 t b f;
#X floatatom 103 212 5 0 0 0 - - -, f 5;
#X obj 181 58 v channels;
#X obj 136 42 t f b;
#X obj 272 66 t f b;
#X obj 317 82 v scenes;
#X connect 0 0 3 0;
#X connect 0 0 12 0;
#X connect 1 0 6 0;
#X connect 1 0 19 0;
#X connect 2 0 7 0;
#X connect 2 0 20 0;
#X connect 4 0 5 0;
#X connect 4 0 13 0;
#X connect 9 0 8 0;
#X connect 10 0 11 0;
#X connect 10 0 26 0;
#X connect 11 0 10 1;
#X connect 12 0 10 0;
#X connect 13 0 10 0;
#X connect 15 0 16 0;
#X connect 16 0 9 0;
#X connect 16 0 24 0;
#X connect 17 0 18 0;
#X connect 17 0 27 0;
#X connect 18 0 17 1;
#X connect 19 0 17 0;
#X connect 20 0 17 0;
#X connect 21 0 22 0;
#X connect 22 0 23 0;
#X connect 23 0 9 0;
#X connect 23 1 9 1;
#X connect 23 1 14 0;
#X connect 25 0 15 1;
#X connect 26 0 15 0;
#X connect 26 1 25 0;
#X connect 27 0 21 0;
#X connect 27 1 28 0;
#X connect 28 0 21 1;
#X restore -46 213 pd select;
#N canvas 376 309 450 300 net 0;
#X obj 88 190 netsend -u;
#X obj 217 146 loadbang;
#X obj 87 114 list prepend send;
#X obj 88 139 list trim;
#X obj 87 54 r toAll;
#X msg 217 173 connect 192.168.1.255 8000;
#X obj 252 36 r clock;
#X msg 252 72 clock \$1;
#X obj 252 101 s toAll;
#X obj 87 89 list prepend omni;
#X connect 1 0 5 0;
#X connect 2 0 3 0;
#X connect 3 0 0 0;
#X connect 4 0 9 0;
#X connect 5 0 0 0;
#X connect 6 0 7 0;
#X connect 7 0 8 0;
#X connect 9 0 2 0;
#X restore -47 161 pd net;
#N canvas 86 247 450 300 ! 0;
#X obj 237 -140 r qClock;
#X msg 278 -81 1;
#X obj 239 -49 int;
#X obj 237 -111 t b b;
#X msg 237 -83 0;
#X obj 240 -24 change;
#X obj 74 34 spigot;
#X obj 228 62 spigot;
#X obj 261 39 == 0;
#X obj 107 -3 r \$0-firstLoop;
#X obj 261 17 r \$0-firstLoop;
#X obj 137 -101 r \$0-firstLoop;
#X obj 277 -112 r !;
#X obj 73 -10 r !;
#X obj 184 122 s ctl;
#X msg 312 -57 0;
#X obj 203 18 sel 1;
#X msg 183 89 0 0 1;
#X obj 244 95 bng 15 250 50 0 empty empty empty 17 7 0 10 -262144 -1
-1;
#X obj 143 -60 bng 15 250 50 0 empty empty empty 17 7 0 10 -262144
-1 -1;
#X obj 169 -131 bng 15 250 50 0 empty empty empty 17 7 0 10 -262144
-1 -1;
#X obj 328 -94 bng 15 250 50 0 empty empty empty 17 7 0 10 -262144
-1 -1;
#X msg 204 -52 0;
#X connect 0 0 3 0;
#X connect 0 0 20 0;
#X connect 1 0 2 1;
#X connect 2 0 5 0;
#X connect 2 0 15 0;
#X connect 3 0 4 0;
#X connect 3 1 2 0;
#X connect 5 0 16 0;
#X connect 6 0 17 0;
#X connect 7 0 17 0;
#X connect 7 0 18 0;
#X connect 8 0 7 1;
#X connect 9 0 6 1;
#X connect 10 0 8 0;
#X connect 11 0 4 0;
#X connect 11 0 19 0;
#X connect 12 0 1 0;
#X connect 12 0 21 0;
#X connect 13 0 6 0;
#X connect 16 0 7 0;
#X connect 16 0 22 0;
#X connect 17 0 14 0;
#X connect 22 0 2 0;
#X restore -46 186 pd !;
#X obj 246 -58 notein;
#X obj 377 183 ctlin;
#X obj 350 470 midiin;
#X obj 389 540 == 224;
#X obj 312 523 t f f;
#X obj 327 560 bendin;
#X obj 391 237 == 26;
#X obj 449 237 == 27;
#X obj 366 274 spigot;
#X obj 425 275 spigot;
#X obj 379 344 change;
#X obj 429 347 change;
#X obj 377 378 sel 1;
#X obj 426 377 sel 1;
#X obj 366 417 bng 15 250 50 0 empty empty empty 17 7 0 10 -262144
-1 -1;
#X obj 426 407 bng 15 250 50 0 empty empty empty 17 7 0 10 -262144
-1 -1;
#X obj 319 599 moses;
#X obj 282 671 < -100;
#X obj 355 682 > 100;
#X obj 290 715 change;
#X obj 340 718 change;
#X obj 288 749 sel 1;
#X obj 337 748 sel 1;
#X obj 293 791 bng 15 250 50 0 empty empty empty 17 7 0 10 -262144
-1 -1;
#X obj 353 781 bng 15 250 50 0 empty empty empty 17 7 0 10 -262144
-1 -1;
#X obj 334 623 sel 0;
#X msg 318 644 0;
#X obj 377 312 > 30;
#X obj 420 309 > 30;
#X floatatom 178 -1 5 0 0 0 - - -, f 5;
#X obj 247 5 stripnote;
#X obj 247 -21 spigot;
#X obj 305 -26 == 2;
#X obj 239 26 sel 48 49 50 51 47;
#X obj 259 303 spigot;
#X obj 272 373 change;
#X obj 270 407 sel 1;
#X obj 270 341 > 30;
#X floatatom 307 233 5 0 0 0 - - -, f 5;
#X obj 284 266 == 64;
#X obj 268 445 bng 15 250 50 0 empty empty empty 17 7 0 10 -262144
-1 -1;
#N canvas 898 93 960 987 wiimote 0;
#X text 283 398 You can also specify the address as a creation argument:
;
#X text 282 414 (make sure to enable discover mode before creation)
;
#X obj 702 39 cnv 15 375 460 empty empty Wiimote: 10 15 0 14 -261689
-143491 0;
#X floatatom 844 193 7 0 0 1 _X #0-wii-accX-set #0-wii-accX, f 7;
#X floatatom 844 207 7 0 0 1 _Y #0-wii-accY-set #0-wii-accY, f 7;
#X floatatom 844 221 7 0 0 1 _Z #0-wii-accZ-set #0-wii-accZ, f 7;
#X obj 714 193 hsl 128 14 -1 1 0 0 \$0-wii-accX \$0-wii-accX-set empty
-2 -8 0 10 -204786 -1 -1 0 1;
#X obj 714 207 hsl 128 14 -1 1 0 0 \$0-wii-accY \$0-wii-accY-set empty
-2 -8 0 10 -204786 -1 -1 0 1;
#X obj 714 221 hsl 128 14 -1 1 0 0 \$0-wii-accZ \$0-wii-accZ-set empty
-2 -8 0 10 -204786 -1 -1 0 1;
#N canvas 525 243 481 416 IR-data 0;
#X scalar IR-blobs 128 384 blob1 \;;
#X scalar IR-blobs 384 384 blob2 \;;
#X scalar IR-blobs 640 384 blob3 \;;
#X scalar IR-blobs 896 384 blob4 \;;
#X coords 0 0 1024 768 256 196 1;
#X restore 710 294 pd IR-data;
#X text 711 276 IR Blobs (1024x768):;
#X floatatom 844 241 7 0 0 1 _PITCH #0-wii-pitch-set #0-wii-pitch,
f 7;
#X obj 714 241 hsl 128 14 -3.14156 3.14159 0 0 \$0-wii-pitch \$0-wii-pitch-set
empty -2 -8 0 10 -204786 -1 -1 0 1;
#X floatatom 844 255 7 0 0 1 _ROLL #0-wii-roll-set #0-wii-roll, f
7;
#X obj 714 255 hsl 128 14 -3.14156 3.14159 0 0 \$0-wii-roll \$0-wii-roll-set
empty -2 -8 0 10 -204786 -1 -1 0 1;
#X text 714 176 Acceleration (-1 to 1):;
#X text 989 184 Buttons:;
#X obj 282 461 print;
#X obj 767 70 tgl 25 0 empty empty IR 6 12 0 10 -4160 -1 -1 0 1;
#X msg 767 124 report ir \$1;
#X msg 708 103 report acceleration \$1;
#X obj 708 69 tgl 25 0 empty empty Acc 4 12 0 10 -204786 -1 -1 0 1
;
#X obj 976 74 tgl 25 0 empty empty empty 17 7 0 10 -232576 -1 -1 0
1;
#X msg 878 126 setLED \$1;
#X obj 878 73 tgl 15 0 empty empty empty 17 7 0 10 -4032 -1 -1 0 1
;
#X obj 902 73 tgl 15 0 empty empty empty 17 7 0 10 -4032 -1 -1 0 1
;
#X obj 927 73 tgl 15 0 empty empty empty 17 7 0 10 -4032 -1 -1 0 1
;
#X obj 952 74 tgl 15 0 empty empty empty 17 7 0 10 -4032 -1 -1 0 1
;
#X text 873 49 LEDs:;
#N canvas 0 50 409 401 bytemask 0;
#X obj 269 332 outlet;
#X obj 269 279 float;
#X obj 318 183 |;
#X obj 110 239 -;
#X obj 110 204 float;
#X obj 110 184 trigger bang float;
#X obj 231 204 &;
#X obj 183 142 route 0 1;
#X msg 36 56 \$1 1;
#X msg 106 56 \$1 2;
#X msg 176 56 \$1 4;
#X msg 246 56 \$1 8;
#X obj 36 15 inlet;
#X obj 106 15 inlet;
#X obj 176 15 inlet;
#X obj 246 15 inlet;
#X obj 36 35 change;
#X obj 106 35 change;
#X obj 176 35 change;
#X obj 246 35 change;
#X connect 1 0 2 1;
#X connect 1 0 4 1;
#X connect 1 0 6 1;
#X connect 1 0 0 0;
#X connect 2 0 1 0;
#X connect 3 0 1 0;
#X connect 4 0 3 0;
#X connect 5 0 4 0;
#X connect 5 1 6 0;
#X connect 6 0 3 1;
#X connect 7 0 5 0;
#X connect 7 1 2 0;
#X connect 8 0 7 0;
#X connect 9 0 7 0;
#X connect 10 0 7 0;
#X connect 11 0 7 0;
#X connect 12 0 16 0;
#X connect 13 0 17 0;
#X connect 14 0 18 0;
#X connect 15 0 19 0;
#X connect 16 0 8 0;
#X connect 17 0 9 0;
#X connect 18 0 10 0;
#X connect 19 0 11 0;
#X restore 878 103 pd bytemask;
#X msg 976 125 setRumble \$1;
#X obj 708 147 s \$0.to.wiimote;
#X text 975 51 Rumble;
#X obj 878 150 s \$0.to.wiimote;
#N canvas 838 259 663 569 buttons 0;
#X obj 11 11 r \$0.from.wiimote;
#X obj 11 33 route button;
#X obj 33 488 s \$0.button.up;
#X obj 66 464 s \$0.button.down;
#X obj 103 439 s \$0.button.left;
#X obj 138 414 s \$0.button.right;
#X obj 177 387 s \$0.button.a;
#X obj 212 362 s \$0.button.b;
#X obj 243 336 s \$0.button.minus;
#X obj 280 309 s \$0.button.home;
#X obj 325 281 s \$0.button.plus;
#X obj 372 252 s \$0.button.1;
#X obj 404 223 s \$0.button.2;
#X obj 11 79 unpack f f;
#X obj 11 56 list;
#X obj 33 359 & 8;
#X obj 66 335 & 4;
#X obj 103 310 & 1;
#X obj 138 285 & 2;
#X obj 177 258 & 8;
#X obj 212 233 & 4;
#X obj 243 207 & 16;
#X obj 280 180 & 128;
#X obj 325 152 & 16;
#X obj 372 123 & 2;
#X obj 404 94 & 1;
#X obj 97 378 > 0;
#X obj 32 411 > 0;
#X obj 65 399 > 0;
#X obj 178 326 > 0;
#X obj 228 281 > 0;
#X obj 260 260 > 0;
#X obj 294 235 > 0;
#X obj 326 214 > 0;
#X obj 372 178 > 0;
#X obj 404 157 > 0;
#X obj 134 349 > 0;
#X connect 0 0 1 0;
#X connect 1 0 14 0;
#X connect 13 0 15 0;
#X connect 13 0 16 0;
#X connect 13 0 17 0;
#X connect 13 0 18 0;
#X connect 13 0 23 0;
#X connect 13 1 19 0;
#X connect 13 1 20 0;
#X connect 13 1 21 0;
#X connect 13 1 22 0;
#X connect 13 1 24 0;
#X connect 13 1 25 0;
#X connect 14 0 13 0;
#X connect 15 0 27 0;
#X connect 16 0 28 0;
#X connect 17 0 26 0;
#X connect 18 0 36 0;
#X connect 19 0 29 0;
#X connect 20 0 30 0;
#X connect 21 0 31 0;
#X connect 22 0 32 0;
#X connect 23 0 33 0;
#X connect 24 0 34 0;
#X connect 25 0 35 0;
#X connect 26 0 4 0;
#X connect 27 0 2 0;
#X connect 28 0 3 0;
#X connect 29 0 6 0;
#X connect 30 0 7 0;
#X connect 31 0 8 0;
#X connect 32 0 9 0;
#X connect 33 0 10 0;
#X connect 34 0 11 0;
#X connect 35 0 12 0;
#X connect 36 0 5 0;
#X restore 978 419 pd buttons;
#N canvas 12 50 677 674 accel 0;
#X obj 359 239 unpack 0 0 0;
#X obj 92 612 expr sqrt(pow($f1 \, 2) + pow($f2 \, 2) + pow($f3 \,
2));
#X obj 350 298 atan;
#X obj 350 277 expr $f1 / $f2;
#X obj 383 322 expr if ($f1 > 0 \, 3.14159 \, -3.14159);
#X obj 350 349 pack 0 0 0;
#X obj 350 371 expr if ($f3 <= 0 \, $f1 + $f2 \, $f1);
#X obj 350 393 * -1;
#X obj 299 128 unpack 0 0 0;
#X obj 35 461 s \$0-wii-pitch-set;
#X obj 350 463 s \$0-wii-roll-set;
#X obj 378 148 s \$0-wii-accZ-set;
#X obj 338 167 s \$0-wii-accY-set;
#X obj 299 186 s \$0-wii-accX-set;
#X text 75 514 The pitch and roll are only accurate if there are no
extra accelerations due to hand movement. We can check if the total
acceleration is close to gravity and only use pitch and roll in that
case. The total acceleration is given by:;
#X text 311 106 raw accerlation:;
#X obj 24 239 unpack 0 0 0;
#X obj 35 298 atan;
#X obj 35 277 expr $f1 / $f2;
#X obj 67 322 expr if ($f1 > 0 \, 3.14159 \, -3.14159);
#X obj 35 349 pack 0 0 0;
#X obj 35 371 expr if ($f3 <= 0 \, $f1 + $f2 \, $f1);
#X obj 35 393 * -1;
#X obj 225 578 unpack 0 0 0;
#X obj 126 71 t a;
#X obj 126 20 r \$0.from.wiimote;
#X obj 126 44 route acceleration;
#X connect 0 0 3 0;
#X connect 0 0 4 0;
#X connect 0 2 3 1;
#X connect 0 2 5 2;
#X connect 2 0 5 0;
#X connect 3 0 2 0;
#X connect 4 0 5 1;
#X connect 5 0 6 0;
#X connect 6 0 7 0;
#X connect 7 0 10 0;
#X connect 8 0 13 0;
#X connect 8 1 12 0;
#X connect 8 2 11 0;
#X connect 16 1 18 0;
#X connect 16 1 19 0;
#X connect 16 2 18 1;
#X connect 16 2 20 2;
#X connect 17 0 20 0;
#X connect 18 0 17 0;
#X connect 19 0 20 1;
#X connect 20 0 21 0;
#X connect 21 0 22 0;
#X connect 22 0 9 0;
#X connect 23 0 1 0;
#X connect 23 1 1 1;
#X connect 23 2 1 2;
#X connect 24 0 8 0;
#X connect 24 0 16 0;
#X connect 24 0 0 0;
#X connect 25 0 26 0;
#X connect 26 0 24 0;
#X restore 978 444 pd accel;
#N canvas 195 75 568 473 ir 0;
#N canvas 631 449 342 204 IR-blobs 0;
#X obj 39 34 struct IR-blobs float x float y symbol s;
#X obj 39 71 filledcurve 9 30 0 0 -30 -30 0 0 30 30 0;
#X obj 48 112 drawsymbol s -60 -75 0 1 blob;
#X restore 8 19 pd IR-blobs;
#X obj 227 420 pointer;
#X msg 227 398 traverse pd-IR-data \, next;
#X obj 134 63 route 0 1 2 3;
#X obj 134 422 unpack 0 0 0;
#X obj 134 443 set IR-blobs x y;
#X obj 245 350 pointer;
#X obj 152 352 unpack 0 0 0;
#X obj 152 373 set IR-blobs x y;
#X msg 245 328 traverse pd-IR-data \, next \, next;
#X obj 264 272 pointer;
#X obj 171 266 unpack 0 0 0;
#X obj 171 292 set IR-blobs x y;
#X msg 264 250 traverse pd-IR-data \, next \, next \, next;
#X obj 283 197 pointer;
#X obj 190 199 unpack 0 0 0;
#X obj 190 220 set IR-blobs x y;
#X msg 283 175 traverse pd-IR-data \, next \, next \, next \, next
;
#X obj 134 18 r \$0.from.wiimote;
#X obj 134 40 route ir;
#X msg 249 99 \$1 \$2 384 0;
#X obj 249 40 t f f;
#X obj 249 80 pack;
#X msg 249 20 0 \, 1 \, 2 \, 3;
#X obj 279 60 * 256;
#X obj 279 80 + 128;
#X obj 431 32 loadbang;
#X obj 431 54 t b b;
#X obj 228 147 t b b b b;
#X connect 1 0 5 2;
#X connect 2 0 1 0;
#X connect 3 0 4 0;
#X connect 3 1 7 0;
#X connect 3 2 11 0;
#X connect 3 3 15 0;
#X connect 4 0 5 0;
#X connect 4 1 5 1;
#X connect 6 0 8 2;
#X connect 7 0 8 0;
#X connect 7 1 8 1;
#X connect 9 0 6 0;
#X connect 10 0 12 2;
#X connect 11 0 12 0;
#X connect 11 1 12 1;
#X connect 13 0 10 0;
#X connect 14 0 16 2;
#X connect 15 0 16 0;
#X connect 15 1 16 1;
#X connect 17 0 14 0;
#X connect 18 0 19 0;
#X connect 19 0 3 0;
#X connect 20 0 3 0;
#X connect 21 0 22 0;
#X connect 21 1 24 0;
#X connect 22 0 20 0;
#X connect 23 0 21 0;
#X connect 24 0 25 0;
#X connect 25 0 22 1;
#X connect 26 0 27 0;
#X connect 27 0 23 0;
#X connect 27 1 28 0;
#X connect 28 0 2 0;
#X connect 28 1 9 0;
#X connect 28 2 13 0;
#X connect 28 3 17 0;
#X restore 977 470 pd ir;
#X obj 1002 223 tgl 13 0 \$0.bli \$0.button.left empty 17 7 0 10 -191407
-1 -1 0 1;
#X obj 1030 223 tgl 13 0 \$0.bli \$0.button.right empty 17 7 0 10 -191407
-1 -1 0 1;
#X obj 1016 237 tgl 13 0 \$0.bli \$0.button.down empty 17 7 0 10 -191407
-1 -1 0 1;
#X obj 1016 209 tgl 13 0 \$0.bli \$0.button.up empty 17 7 0 10 -191407
-1 -1 0 1;
#X obj 993 322 tgl 13 0 \$0.bli \$0.button.minus - 5 8 0 10 -191407
-1 -1 0 1;
#X obj 1017 322 tgl 13 0 \$0.bli \$0.button.home empty 17 7 0 10 -191407
-1 -1 0 1;
#X obj 1041 322 tgl 13 0 \$0.bli \$0.button.plus + 5 8 0 10 -191407
-1 -1 0 1;
#X obj 1014 262 tgl 18 0 \$0.bli \$0.button.b B 5 9 1 13 -191407 -1
-1 0 4;
#X obj 1014 274 tgl 18 0 \$0.bli \$0.button.a A 5 9 1 13 -191407 -1
-1 0 1;
#X obj 1016 356 tgl 16 0 \$0.bli \$0.button.1 1 5 9 1 11 -191407 -1
-1 0 1;
#X obj 1016 383 tgl 16 0 \$0.bli \$0.button.2 2 5 9 1 11 -191407 -1
-1 0 1;
#X obj 482 351 spigot;
#X obj 482 373 print WIIMOTE;
#X obj 472 303 r \$0.from.wiimote;
#X obj 521 333 tgl 15 0 empty empty print_data 19 7 0 13 -261234 -1
-1 0 1;
#X obj 282 435 wiimote 00:1F:C5:0B:1F:86;
#X text 277 255 By default \, the wiimote does not report acceleration
data \, IR data \, or any data from an attached extension (eg \, nunchuck).
You must specifically enable each reporting mode.;
#X obj 283 313 cnv 15 140 70 empty empty empty 20 12 0 14 -228856 -66577
0;
#X obj 288 317 r \$0.to.wiimote;
#X obj 288 361 s \$0.from.wiimote;
#X obj 702 503 cnv 15 375 60 empty empty Extensions: 20 12 0 14 -204786
-66577 0;
#N canvas 0 133 418 236 Nunchuck 0;
#X obj 16 11 cnv 15 375 180 empty empty Nunchuk: 10 15 0 14 -228992
-355 0;
#X floatatom 163 133 7 0 0 1 _X #0-nc-accX-set #0-nc-accX, f 7;
#X floatatom 163 147 7 0 0 1 _Y #0-nc-accY-set #0-nc-accY, f 7;
#X floatatom 163 161 7 0 0 1 _Z #0-nc-accZ-set #0-nc-accZ, f 7;
#X obj 33 133 hsl 128 14 -1 1 0 0 \$0-nc-accX \$0-nc-accX-set empty
-2 -8 0 10 -261681 -1 -1 6350 1;
#X obj 33 147 hsl 128 14 -1 1 0 0 \$0-nc-accY \$0-nc-accY-set empty
-2 -8 0 10 -261681 -1 -1 5842 1;
#X obj 33 161 hsl 128 14 -1 1 0 0 \$0-nc-accZ \$0-nc-accZ-set empty
-2 -8 0 10 -261681 -1 -1 12700 1;
#X obj 298 51 nbx 3 16 -1e+37 1e+37 0 0 empty \$0-nc-btn-set empty
-80 8 0 10 -261681 -1 -1 0 256;
#X text 29 117 Acceleration:;
#X text 231 48 Buttons:;
#X text 297 84 Stick:;
#N canvas 179 159 481 416 NC-data 0;
#X scalar NC-stick 127 129 \;;
#X coords 0 0 256 256 80 80 1;
#X restore 296 101 pd NC-data;
#X obj 32 38 tgl 25 0 empty empty empty 17 7 0 10 -261682 -1 -1 0 1
;
#X msg 32 68 report nunchuk \$1;
#X obj 32 89 s \$0.to.wiimote;
#N canvas 2335 359 743 313 nunchuk 0;
#X obj 15 55 route button acceleration stick;
#X obj 494 184 pointer;
#X obj 494 141 loadbang;
#X obj 387 153 unpack 0 0;
#X obj 387 229 set NC-stick x y;
#X obj 160 148 unpack 0 0 0;
#X obj 240 169 s \$0-nc-accZ-set;
#X obj 200 188 s \$0-nc-accY-set;
#X obj 160 211 s \$0-nc-accX-set;
#X obj 15 169 s \$0-nc-btn-set;
#X msg 494 162 traverse pd-NC-data \, next;
#X obj 15 11 r \$0.from.wiimote;
#X obj 15 33 route nunchuk;
#N canvas 154 209 610 221 NC-stick 0;
#X obj 39 34 struct NC-stick float x float y;
#X obj 44 71 filledpolygon 900 20 0 5 -5 0 -20 -5 -5 -20 0 -5 5 0 20
5 5 20 0;
#X restore 386 262 pd NC-stick;
#X floatatom 404 184 5 0 0 0 - - -, f 5;
#X floatatom 423 206 5 0 0 0 - - -, f 5;
#X connect 0 0 9 0;
#X connect 0 1 5 0;
#X connect 0 2 3 0;
#X connect 1 0 4 2;
#X connect 2 0 10 0;
#X connect 3 0 4 0;
#X connect 3 0 14 0;
#X connect 3 1 4 1;
#X connect 3 1 15 0;
#X connect 5 0 8 0;
#X connect 5 1 7 0;
#X connect 5 2 6 0;
#X connect 10 0 1 0;
#X connect 11 0 12 0;
#X connect 12 0 0 0;
#X restore 180 89 pd nunchuk;
#X connect 12 0 13 0;
#X connect 13 0 14 0;
#X restore 837 516 pd Nunchuck;
#N canvas 412 326 450 300 MotionPlus 0;
#X obj 56 55 cnv 15 375 160 empty empty MotionPlus: 10 15 0 14 -262130
-83269 0;
#X obj 67 86 tgl 25 0 empty empty empty 17 7 0 10 -203904 -1 -1 0 1
;
#X msg 67 116 report motionplus \$1;
#X obj 67 137 s \$0.to.wiimote;
#X floatatom 198 165 7 0 0 1 _pitch #0-wii-mp-pitch-set #0-wii-mp-pitch
, f 7;
#X floatatom 198 179 7 0 0 1 _roll #0-wii-mp-roll-set #0-wii-mp-roll
, f 7;
#X obj 68 165 hsl 128 14 0 16000 0 0 \$0-wii-mp-pitch \$0-wii-mp-pitch-set
empty -2 -8 0 10 -203904 -1 -1 0 1;
#X obj 68 179 hsl 128 14 0 16000 0 0 \$0-wii-mp-roll \$0-wii-mp-roll-set
empty -2 -8 0 10 -203904 -1 -1 0 1;
#N canvas 0 50 308 266 motionplus 0;
#X obj 8 51 route motionplus;
#X obj 8 73 route angle_rate low_speed;
#X obj 97 98 unpack f f f;
#X obj 8 134 unpack f f f;
#X obj 8 20 r \$0.from.wiimote;
#X obj 8 209 s \$0-wii-mp-pitch-set;
#X obj 48 187 s \$0-wii-mp-roll-set;
#X obj 89 162 s \$0-wii-mp-yaw-set;
#X connect 0 0 1 0;
#X connect 1 0 3 0;
#X connect 1 1 2 0;
#X connect 3 0 5 0;
#X connect 3 1 6 0;
#X connect 3 2 7 0;
#X connect 4 0 0 0;
#X restore 279 116 pd motionplus;
#X floatatom 198 193 7 0 0 1 _yaw #0-wii-mp-yaw-set #0-wii-mp-yaw,
f 7;
#X obj 68 193 hsl 128 14 0 16000 0 0 \$0-wii-mp-yaw \$0-wii-mp-yaw-set
empty -2 -8 0 10 -203904 -1 -1 0 1;
#X connect 1 0 2 0;
#X connect 2 0 3 0;
#X restore 837 536 pd MotionPlus;
#N canvas 0 106 450 300 ClassicController 0;
#X obj 17 21 cnv 15 375 260 empty empty ClassicController: 10 15 0
14 -204786 -13381 0;
#X obj 38 140 tgl 14 0 \$0.bli \$0.cc.button.L empty 17 7 0 10 -228856
-1 -1 0 32;
#X obj 52 140 nbx 2 14 -1e+37 1e+37 0 0 \$0.bli \$0.cc.analog.L empty
0 -8 0 10 -228856 -1 -1 0 256;
#X obj 121 130 tgl 14 0 \$0.bli \$0.cc.button.zl empty 17 7 0 10 -228856
-1 -1 0 128;
#X obj 291 140 tgl 14 0 \$0.bli \$0.cc.button.R empty 17 7 0 10 -228856
-1 -1 0 2;
#X obj 305 140 nbx 2 14 -1e+37 1e+37 0 0 \$0.bli \$0.cc.analog.R empty
0 -8 0 10 -228856 -1 -1 0 256;
#X obj 236 130 tgl 14 0 \$0.bli \$0.cc.button.zr empty 17 7 0 10 -228856
-1 -1 0 4;
#X obj 61 184 tgl 14 0 \$0.bli \$0.cc.button.up empty 17 7 0 10 -228856
-1 -1 0 1;
#X obj 80 203 tgl 14 0 \$0.bli \$0.cc.button.right empty 17 7 0 10
-228856 -1 -1 0 128;
#X obj 42 203 tgl 14 0 \$0.bli \$0.cc.button.left empty 17 7 0 10 -228856
-1 -1 0 2;
#X obj 61 222 tgl 14 0 \$0.bli \$0.cc.button.down empty 17 7 0 10 -228856
-1 -1 0 64;
#X obj 153 182 tgl 13 0 \$0.bli \$0.cc.button.minus - 5 8 0 10 -228856
-1 -1 0 16;
#X obj 177 182 tgl 13 0 \$0.bli \$0.cc.button.home empty 17 7 0 10
-228856 -1 -1 0 8;
#X obj 201 182 tgl 13 0 \$0.bli \$0.cc.button.plus + 5 8 0 10 -228856
-1 -1 0 4;
#X obj 300 181 tgl 16 0 \$0.bli \$0.cc.button.x x 5 8 0 10 -228856
-1 -1 0 8;
#X obj 321 202 tgl 16 0 \$0.bli \$0.cc.button.a a 5 8 0 10 -228856
-1 -1 0 16;
#X obj 279 202 tgl 16 0 \$0.bli \$0.cc.button.y y 5 8 0 10 -228856
-1 -1 0 32;
#X obj 300 223 tgl 16 0 \$0.bli \$0.cc.button.b b 5 8 0 10 -228856
-1 -1 0 64;
#X msg 28 80 report classic \$1;
#X obj 28 50 tgl 25 0 empty empty empty 17 7 0 10 -228856 -1 -1 0 1
;
#X obj 28 103 s \$0.to.wiimote;
#N canvas 99 50 677 676 classic 0;
#X obj 9 11 r \$0.from.wiimote;
#X obj 9 33 route classic;
#X obj 9 55 route button right_stick left_stick left right;
#X obj 9 215 unpack f f;
#X obj 7 642 s \$0.cc.button.left;
#X obj 38 621 s \$0.cc.button.right;
#X obj 83 599 s \$0.cc.button.down;
#X obj 120 577 s \$0.cc.button.up;
#X obj 152 554 s \$0.cc.button.x;
#X obj 183 533 s \$0.cc.button.y;
#X obj 293 467 s \$0.cc.button.L;
#X obj 331 445 s \$0.cc.button.zl;
#X obj 378 423 s \$0.cc.button.zr;
#X obj 409 402 s \$0.cc.button.R;
#X obj 440 379 s \$0.cc.button.minus;
#X obj 476 357 s \$0.cc.button.home;
#X obj 507 336 s \$0.cc.button.plus;
#X obj 7 620 & 2;
#X obj 38 599 & 128;
#X obj 120 555 & 1;
#X obj 83 577 & 64;
#X obj 152 532 & 8;
#X obj 183 511 & 32;
#X obj 219 489 & 64;
#X obj 219 511 s \$0.cc.button.b;
#X obj 256 489 s \$0.cc.button.a;
#X obj 256 467 & 16;
#X obj 293 445 & 32;
#X obj 331 423 & 128;
#X obj 378 401 & 4;
#X obj 409 380 & 2;
#X obj 440 357 & 16;
#X obj 476 335 & 8;
#X obj 507 314 & 4;
#X obj 200 99 s \$0.cc.analog.L;
#X obj 264 77 s \$0.cc.analog.R;
#N canvas 0 50 456 304 left_stick 0;
#X obj 132 150 pointer;
#X obj 132 107 loadbang;
#X obj 25 80 unpack 0 0;
#X msg 132 128 traverse pd-cc.l \, next;
#X obj 25 195 set cc-left-stick x y;
#N canvas 302 445 610 221 cc-left-stick 0;
#X obj 39 68 filledpolygon 900 20 0 5 -5 0 -20 -5 -5 -20 0 -5 5 0 20
5 5 20 0;
#X obj 39 34 struct cc-left-stick float x float y;
#X restore 24 228 pd cc-left-stick;
#X obj 25 31 inlet;
#X obj 92 105 * -1;
#X obj 92 127 + 64;
#X obj 25 153 * 2;
#X obj 92 159 * 2;
#X connect 0 0 4 2;
#X connect 1 0 3 0;
#X connect 2 0 9 0;
#X connect 2 1 7 0;
#X connect 3 0 0 0;
#X connect 6 0 2 0;
#X connect 7 0 8 0;
#X connect 8 0 10 0;
#X connect 9 0 4 0;
#X connect 10 0 4 1;
#X restore 136 131 pd left_stick;
#N canvas 0 50 456 304 right_stick 0;
#X obj 176 144 pointer;
#X obj 177 101 loadbang;
#X obj 25 79 unpack 0 0;
#X obj 25 31 inlet;
#X obj 92 104 * -1;
#X msg 177 122 traverse pd-cc.r \, next;
#X obj 25 192 set cc-right-stick x y;
#N canvas 302 445 610 221 cc-right-stick 0;
#X obj 39 68 filledpolygon 900 20 0 5 -5 0 -20 -5 -5 -20 0 -5 5 0 20
5 5 20 0;
#X obj 39 34 struct cc-right-stick float x float y;
#X restore 24 228 pd cc-right-stick;
#X obj 92 126 + 32;
#X obj 25 159 * 4;
#X obj 92 157 * 4;
#X connect 0 0 6 2;
#X connect 1 0 5 0;
#X connect 2 0 9 0;
#X connect 2 1 4 0;
#X connect 3 0 2 0;
#X connect 4 0 8 0;
#X connect 5 0 0 0;
#X connect 8 0 10 0;
#X connect 9 0 6 0;
#X connect 10 0 6 1;
#X restore 72 156 pd right_stick;
#X connect 0 0 1 0;
#X connect 1 0 2 0;
#X connect 2 0 3 0;
#X connect 2 1 37 0;
#X connect 2 2 36 0;
#X connect 2 3 34 0;
#X connect 2 4 35 0;
#X connect 3 0 20 0;
#X connect 3 0 18 0;
#X connect 3 0 27 0;
#X connect 3 0 30 0;
#X connect 3 0 31 0;
#X connect 3 0 32 0;
#X connect 3 0 33 0;
#X connect 3 1 17 0;
#X connect 3 1 19 0;
#X connect 3 1 21 0;
#X connect 3 1 22 0;
#X connect 3 1 23 0;
#X connect 3 1 26 0;
#X connect 3 1 28 0;
#X connect 3 1 29 0;
#X connect 17 0 4 0;
#X connect 18 0 5 0;
#X connect 19 0 7 0;
#X connect 20 0 6 0;
#X connect 21 0 8 0;
#X connect 22 0 9 0;
#X connect 23 0 24 0;
#X connect 26 0 25 0;
#X connect 27 0 10 0;
#X connect 28 0 11 0;
#X connect 29 0 12 0;
#X connect 30 0 13 0;
#X connect 31 0 14 0;
#X connect 32 0 15 0;
#X connect 33 0 16 0;
#X restore 238 69 pd classic;
#N canvas 325 377 481 416 cc.l 0;
#X scalar cc-left-stick 62 66 \;;
#X coords 0 0 128 128 50 50 1;
#X restore 121 215 pd cc.l;
#N canvas 185 133 481 416 cc.r 0;
#X scalar cc-right-stick 64 64 \;;
#X coords 0 0 128 128 50 50 1;
#X restore 203 214 pd cc.r;
#X connect 18 0 20 0;
#X connect 19 0 18 0;
#X restore 934 516 pd ClassicController;
#N canvas 203 133 450 300 Balance 0;
#X obj 37 56 cnv 15 375 215 empty empty Balance: 10 15 0 14 -232576
-13381 0;
#X obj 46 85 tgl 25 0 empty empty empty 17 7 0 10 -261234 -1 -1 0 1
;
#X obj 46 138 s \$0.to.wiimote;
#X msg 46 115 report balance \$1;
#N canvas 475 229 445 263 balance 0;
#X obj 8 20 r \$0.from.wiimote;
#X obj 8 51 route balance;
#X obj 8 73 unpack;
#X obj 8 95 s \$0-bal-X-set;
#X obj 41 115 s \$0-bal-Y-set;
#X connect 0 0 1 0;
#X connect 1 0 2 0;
#X connect 2 0 3 0;
#X connect 2 1 4 0;
#X restore 249 98 pd balance;
#X text 228 144 ! Untested !;
#X text 232 164 (but might work);
#X floatatom 97 211 7 0 0 1 _X #0-bal-X-set #0-bal-X, f 7;
#X floatatom 227 211 7 0 0 1 _Y #0-bal-Y-set #0-bal-Y, f 7;
#X connect 1 0 3 0;
#X connect 3 0 2 0;
#X restore 934 536 pd Balance;
#X text 285 506 (c) 2007-2010 Mike Wozniewski \, IOhannes m zmoelnig
& Roman Haefeli;
#X obj 288 339 wiimote;
#X msg 125 186 report nunchuk \$1;
#X obj 120 47 r \$0.from.wiimote;
#X obj 134 83 route battery;
#X obj 131 123 bng 15 250 50 0 empty empty empty 17 7 0 10 -262144
-1 -1;
#X msg 132 152 1;
#X obj 59 651 route button acceleration stick;
#X obj 201 683 unpack 0 0;
#X obj 59 607 r \$0.from.wiimote;
#X obj 59 629 route nunchuk;
#N canvas 4 114 1041 700 makenote 0;
#X obj 416 173 expr $f1 > $f2 - $f3 && $f1 < $f2 + $f3;
#X msg 892 229 2;
#X obj 353 174 sel 1;
#X obj 416 202 expr $f1 > $f2 - $f3 && $f1 < $f2 + $f3;
#X obj 353 203 sel 1;
#X obj 416 232 expr $f1 > $f2 - $f3 && $f1 < $f2 + $f3;
#X obj 353 233 sel 1;
#X obj 416 261 expr $f1 > $f2 - $f3 && $f1 < $f2 + $f3;
#X obj 353 262 sel 1;
#X obj 416 296 expr $f1 > $f2 - $f3 && $f1 < $f2 + $f3;
#X obj 353 297 sel 1;
#X obj 416 325 expr $f1 > $f2 - $f3 && $f1 < $f2 + $f3;
#X obj 353 326 sel 1;
#X obj 416 355 expr $f1 > $f2 - $f3 && $f1 < $f2 + $f3;
#X obj 353 356 sel 1;
#X obj 416 384 expr $f1 > $f2 - $f3 && $f1 < $f2 + $f3;
#X obj 353 385 sel 1;
#X obj 418 417 expr $f1 > $f2 - $f3 && $f1 < $f2 + $f3;
#X obj 355 418 sel 1;
#X obj 418 446 expr $f1 > $f2 - $f3 && $f1 < $f2 + $f3;
#X obj 355 447 sel 1;
#X obj 418 476 expr $f1 > $f2 - $f3 && $f1 < $f2 + $f3;
#X obj 355 477 sel 1;
#X obj 418 505 expr $f1 > $f2 - $f3 && $f1 < $f2 + $f3;
#X obj 355 506 sel 1;
#X obj 415 119 t f;
#X msg 480 66 61;
#X msg 516 66 81;
#X msg 553 67 183;
#X msg 595 65 206;
#X msg 637 64 41;
#X msg 673 64 100;
#X msg 710 65 161;
#X msg 752 63 230;
#X msg 797 62 21;
#X msg 833 62 120;
#X msg 870 63 140;
#X msg 912 61 255;
#X obj 606 15 t b;
#X obj 583 0 bng 15 250 50 0 empty empty empty 17 7 0 10 -262144 -1
-1;
#X msg 310 173 0;
#X msg 310 202 1;
#X msg 310 232 2;
#X msg 310 261 3;
#X msg 309 296 4;
#X msg 310 325 5;
#X msg 310 355 6;
#X msg 313 386 7;
#X msg 313 417 8;
#X msg 312 447 9;
#X msg 312 476 10;
#X msg 312 506 11;
#X obj 222 495 t f;
#X obj 276 -22 inlet;
#X obj 304 68 int;
#X obj 319 118 int;
#X obj 269 110 ==;
#X floatatom 255 160 5 0 0 0 - - -, f 5;
#X obj 242 9 sel 0;
#X obj 199 155 sel 0;
#X obj 193 198 bng 15 250 50 0 empty empty empty 17 7 0 10 -262144
-1 -1;
#X floatatom 321 151 5 0 0 0 - - -, f 5;
#X obj 312 90 t f b f;
#X obj 246 190 spigot;
#X obj 275 35 t f f;
#X obj 31 455 sel 0 1 2;
#X obj 229 605 +;
#X msg 156 587 12;
#X msg 171 563 0;
#X obj 230 688 s wii-note;
#X obj 231 631 + 48;
#X obj 694 15 loadbang;
#X obj 31 400 r wii-nun-b;
#X msg 224 45 -1;
#X obj 223 526 change;
#X obj 282 554 s wii-nun-pB;
#X obj 221 566 sel -1;
#X obj 32 667 tgl 15 0 empty empty empty 17 7 0 10 -262144 -1 -1 1
1;
#X obj 31 429 change;
#X obj 32 635 spigot;
#X msg 94 562 0;
#X msg 71 592 1;
#X obj 71 535 delay 200;
#X obj 32 693 sel 0 1;
#X obj 230 659 spigot;
#X obj 71 504 t b b b b;
#X msg 131 643 1;
#X msg 95 643 0;
#X connect 0 0 2 0;
#X connect 1 0 0 2;
#X connect 1 0 3 2;
#X connect 1 0 5 2;
#X connect 1 0 7 2;
#X connect 1 0 9 2;
#X connect 1 0 11 2;
#X connect 1 0 13 2;
#X connect 1 0 15 2;
#X connect 1 0 17 2;
#X connect 1 0 19 2;
#X connect 1 0 21 2;
#X connect 1 0 23 2;
#X connect 2 0 40 0;
#X connect 3 0 4 0;
#X connect 4 0 41 0;
#X connect 5 0 6 0;
#X connect 6 0 42 0;
#X connect 7 0 8 0;
#X connect 8 0 43 0;
#X connect 9 0 10 0;
#X connect 10 0 44 0;
#X connect 11 0 12 0;
#X connect 12 0 45 0;
#X connect 13 0 14 0;
#X connect 14 0 46 0;
#X connect 15 0 16 0;
#X connect 16 0 47 0;
#X connect 17 0 18 0;
#X connect 18 0 48 0;
#X connect 19 0 20 0;
#X connect 20 0 49 0;
#X connect 21 0 22 0;
#X connect 22 0 50 0;
#X connect 23 0 24 0;
#X connect 24 0 51 0;
#X connect 25 0 0 0;
#X connect 25 0 3 0;
#X connect 25 0 5 0;
#X connect 25 0 7 0;
#X connect 25 0 9 0;
#X connect 25 0 11 0;
#X connect 25 0 13 0;
#X connect 25 0 15 0;
#X connect 25 0 17 0;
#X connect 25 0 19 0;
#X connect 25 0 21 0;
#X connect 25 0 23 0;
#X connect 26 0 0 1;
#X connect 27 0 3 1;
#X connect 28 0 5 1;
#X connect 29 0 7 1;
#X connect 30 0 9 1;
#X connect 31 0 11 1;
#X connect 32 0 13 1;
#X connect 33 0 15 1;
#X connect 34 0 17 1;
#X connect 35 0 19 1;
#X connect 36 0 21 1;
#X connect 37 0 23 1;
#X connect 38 0 37 0;
#X connect 38 0 36 0;
#X connect 38 0 35 0;
#X connect 38 0 33 0;
#X connect 38 0 34 0;
#X connect 38 0 32 0;
#X connect 38 0 30 0;
#X connect 38 0 29 0;
#X connect 38 0 28 0;
#X connect 38 0 27 0;
#X connect 38 0 26 0;
#X connect 38 0 31 0;
#X connect 39 0 38 0;
#X connect 40 0 52 0;
#X connect 41 0 52 0;
#X connect 42 0 52 0;
#X connect 43 0 52 0;
#X connect 44 0 52 0;
#X connect 45 0 52 0;
#X connect 46 0 52 0;
#X connect 47 0 52 0;
#X connect 48 0 52 0;
#X connect 49 0 52 0;
#X connect 50 0 52 0;
#X connect 51 0 52 0;
#X connect 52 0 74 0;
#X connect 53 0 58 0;
#X connect 54 0 62 0;
#X connect 55 0 56 0;
#X connect 55 0 61 0;
#X connect 56 0 57 0;
#X connect 56 0 59 0;
#X connect 56 0 63 1;
#X connect 58 0 73 0;
#X connect 58 1 64 0;
#X connect 59 0 60 0;
#X connect 62 0 55 1;
#X connect 62 1 55 0;
#X connect 62 2 56 1;
#X connect 63 0 25 0;
#X connect 64 0 63 0;
#X connect 64 1 54 0;
#X connect 65 1 87 0;
#X connect 65 2 85 0;
#X connect 66 0 70 0;
#X connect 67 0 66 1;
#X connect 68 0 66 1;
#X connect 70 0 84 0;
#X connect 71 0 38 0;
#X connect 71 0 1 0;
#X connect 72 0 78 0;
#X connect 73 0 52 0;
#X connect 74 0 76 0;
#X connect 76 1 66 0;
#X connect 76 1 75 0;
#X connect 77 0 83 0;
#X connect 78 0 65 0;
#X connect 79 0 77 0;
#X connect 80 0 79 1;
#X connect 81 0 79 1;
#X connect 82 0 81 0;
#X connect 83 0 68 0;
#X connect 83 1 67 0;
#X connect 84 0 69 0;
#X connect 85 0 82 0;
#X connect 85 1 80 0;
#X connect 85 2 79 0;
#X connect 85 3 86 0;
#X connect 86 0 84 1;
#X connect 87 0 84 1;
#X restore 278 727 pd makenote;
#X obj 65 701 s wii-nun-b;
#X obj 794 635 r \$0-wii-accX-set;
#X obj 624 633 r \$0-wii-accY-set;
#X obj 645 717 + 1;
#X obj 684 739 + 1;
#X obj 471 659 r \$0.button.b;
#X obj 633 668 spigot;
#X obj 644 694 clip -1 0;
#X obj 646 743 / -1;
#X obj 870 661 r \$0.button.a;
#X obj 816 717 + 1;
#X obj 855 739 + 1;
#X obj 804 668 spigot;
#X obj 815 694 clip -1 0;
#X obj 817 743 / -1;
#X obj 686 717 s wii-acc-damper;
#X obj 887 732 s wii-acc-pitch;
#X obj 424 697 r \$0.button.home;
#X obj 423 758 s wii-home;
#X floatatom 373 685 5 0 0 0 - - -, f 5;
#X obj 425 722 == 128;
#X obj 276 183 s \$0.to.wiimote;
#X msg 291 111 discover;
#X msg 302 154 disconnect;
#X text 290 93 Or you can try to automatically detect a wiimote:;
#X msg 276 64 connect 78:A2:A0:EA:8E:34;
#X obj 476 135 tgl 25 0 empty empty empty 17 7 0 10 -261682 -1 -1 0
1;
#X msg 475 169 report nunchuk \$1;
#X obj 475 190 s \$0.to.wiimote;
#X msg 556 115 1;
#X obj 492 60 t b;
#X obj 537 67 loadbang;
#X obj 371 100 bng 30 250 50 0 empty empty empty 17 7 0 30 -228856
-1 -1;
#X msg 531 147 report acceleration \$1;
#X obj 88 770 s wii-nun-joy;
#X connect 18 0 19 0;
#X connect 19 0 31 0;
#X connect 20 0 31 0;
#X connect 21 0 20 0;
#X connect 22 0 30 0;
#X connect 23 0 33 0;
#X connect 24 0 29 0;
#X connect 25 0 29 1;
#X connect 26 0 29 2;
#X connect 27 0 29 3;
#X connect 29 0 23 0;
#X connect 30 0 33 0;
#X connect 48 0 49 0;
#X connect 50 0 48 0;
#X connect 51 0 48 1;
#X connect 52 0 17 0;
#X connect 55 0 63 0;
#X connect 63 0 56 0;
#X connect 65 0 66 0;
#X connect 66 0 67 0;
#X connect 66 0 68 0;
#X connect 68 0 64 0;
#X connect 69 0 74 0;
#X connect 69 2 70 0;
#X connect 69 2 108 0;
#X connect 70 0 73 0;
#X connect 71 0 72 0;
#X connect 72 0 69 0;
#X connect 76 0 80 0;
#X connect 76 0 86 0;
#X connect 77 0 82 0;
#X connect 78 0 89 0;
#X connect 79 0 80 1;
#X connect 80 0 81 0;
#X connect 81 0 77 0;
#X connect 82 0 78 0;
#X connect 83 0 86 1;
#X connect 84 0 88 0;
#X connect 85 0 90 0;
#X connect 86 0 87 0;
#X connect 87 0 84 0;
#X connect 88 0 85 0;
#X connect 91 0 93 0;
#X connect 91 0 94 0;
#X connect 94 0 92 0;
#X connect 96 0 95 0;
#X connect 97 0 95 0;
#X connect 99 0 95 0;
#X connect 100 0 101 0;
#X connect 101 0 102 0;
#X connect 103 0 101 0;
#X connect 103 0 107 0;
#X connect 104 0 103 0;
#X connect 104 0 99 0;
#X connect 105 0 104 0;
#X connect 106 0 104 0;
#X connect 107 0 102 0;
#X restore 555 -27 pd wiimote;
#X obj 522 307 r \$0.button.up;
#X obj 562 282 r \$0.button.down;
#X obj 612 257 r \$0.button.left;
#X obj 656 233 r \$0.button.right;
#X obj 756 206 r \$0.button.a;
#X obj 1136 35 r \$0.button.b;
#X obj 819 170 r \$0.button.minus;
#X obj 897 268 r \$0.button.home;
#X obj 957 297 r \$0.button.plus;
#X obj 1031 230 r \$0.button.1;
#X obj 892 42 r \$0.button.2;
#X obj 522 492 s up;
#X obj 522 459 sel 1;
#X obj 581 459 sel 1;
#X obj 581 492 s down;
#X obj 639 457 sel 1;
#X obj 686 456 sel 1;
#X obj 756 453 sel 1;
#X obj 816 450 sel 1;
#X obj 897 437 sel 1;
#X obj 962 439 sel 1;
#X obj 1038 452 sel 1;
#X obj 1241 449 sel 1;
#X obj 1241 482 s down;
#X obj 1289 448 sel 1;
#X obj 1289 481 s down;
#X obj 686 489 s right;
#X obj 756 487 s !;
#X obj 848 510 s rec;
#X obj 921 576 s stop;
#X obj 985 580 s play;
#X obj 1038 485 s rst;
#X obj 639 490 s left;
#X obj 816 477 t b b;
#X obj 814 508 s !;
#X obj 905 490 t b b;
#X obj 905 524 s !;
#X obj 966 491 t b b;
#X obj 966 515 s !;
#X obj 1136 95 s shift;
#X obj 522 378 spigot;
#X obj 529 334 r shift;
#X obj 529 355 == 0;
#X obj 582 375 spigot;
#X obj 589 331 r shift;
#X obj 589 352 == 0;
#X obj 639 374 spigot;
#X obj 646 330 r shift;
#X obj 646 351 == 0;
#X obj 699 371 spigot;
#X obj 706 327 r shift;
#X obj 706 348 == 0;
#X obj 756 369 spigot;
#X obj 763 325 r shift;
#X obj 763 346 == 0;
#X obj 816 366 spigot;
#X obj 823 322 r shift;
#X obj 823 343 == 0;
#X obj 897 371 spigot;
#X obj 904 327 r shift;
#X obj 904 348 == 0;
#X obj 957 368 spigot;
#X obj 964 324 r shift;
#X obj 964 345 == 0;
#X obj 1030 365 spigot;
#X obj 1037 321 r shift;
#X obj 1037 342 == 0;
#X obj 1090 362 spigot;
#X obj 1097 318 r shift;
#X obj 1097 339 == 0;
#X obj 1333 234 r \$0-wii-accX-set;
#X floatatom 1314 287 5 0 0 0 - - -, f 5;
#X obj 1366 414 s ctl;
#X obj 1446 277 r select;
#X obj 1446 299 unpack;
#X msg 1378 271 vol;
#X obj 1353 342 pack f f f;
#X msg 1317 372 \$2 \$3 vol \$1;
#X obj 1163 615 r \$0-nc-btn-set;
#X obj 1171 703 sel 1;
#X obj 1203 763 s rec;
#X obj 1171 730 t b b;
#X obj 1171 754 s !;
#X obj 1171 666 == 1;
#X obj 1257 676 sel 1;
#X obj 1298 771 s play;
#X obj 1261 728 t b b;
#X obj 1261 752 s !;
#X obj 1257 650 == 2;
#X obj -1 519 r wii-nun-pB;
#X floatatom -46 578 5 0 0 0 - - -, f 5;
#X obj -43 517 bng 15 250 50 0 empty empty empty 17 7 0 10 -262144
-1 -1;
#X obj -1 622 mod 4;
#X obj 44 575 / 4;
#X floatatom 121 615 5 0 0 0 - - -, f 5;
#X obj 43 599 int;
#X floatatom 54 673 5 0 0 0 - - -, f 5;
#X floatatom 9 671 5 0 0 0 - - -, f 5;
#X obj -1 646 + 1;
#X obj 43 625 mod 4;
#X obj 43 649 + 1;
#X obj -1 548 t f f;
#X obj -1 696 pack;
#X obj -1 725 s select;
#X obj 448 584 r wii-nun-joy;
#X obj 448 613 unpack;
#X obj 453 686 moses;
#X obj 416 758 < -100;
#X obj 489 769 > 100;
#X obj 424 802 change;
#X obj 474 805 change;
#X obj 422 836 sel 1;
#X obj 471 835 sel 1;
#X obj 468 710 sel 0;
#X msg 452 731 0;
#X floatatom 471 646 5 0 0 0 - - -, f 5;
#X obj 419 638 - 127;
#X obj 420 861 s left;
#X obj 475 861 s right;
#X obj 579 685 moses;
#X obj 615 768 > 100;
#X obj 550 801 change;
#X obj 600 804 change;
#X obj 548 835 sel 1;
#X obj 597 834 sel 1;
#X obj 594 709 sel 0;
#X msg 578 730 0;
#X floatatom 527 632 5 0 0 0 - - -, f 5;
#X obj 525 666 - 127;
#X obj 546 860 s down;
#X obj 601 860 s up;
#X obj 542 757 < -60;
#X connect 1 0 19 0;
#X connect 2 0 19 0;
#X connect 3 0 19 0;
#X connect 8 0 12 0;
#X connect 11 0 13 0;
#X connect 12 0 11 1;
#X connect 12 1 11 2;
#X connect 13 0 0 0;
#X connect 16 0 1 0;
#X connect 17 0 2 0;
#X connect 18 0 3 0;
#X connect 19 0 11 0;
#X connect 20 0 22 0;
#X connect 20 1 21 1;
#X connect 21 0 24 0;
#X connect 22 0 21 0;
#X connect 24 0 4 0;
#X connect 24 1 5 0;
#X connect 24 2 6 0;
#X connect 24 3 7 0;
#X connect 24 4 9 0;
#X connect 24 5 10 0;
#X connect 24 6 15 0;
#X connect 24 7 14 0;
#X connect 24 8 23 0;
#X connect 28 0 59 0;
#X connect 28 0 57 0;
#X connect 28 1 58 1;
#X connect 28 2 60 0;
#X connect 29 0 36 0;
#X connect 29 0 37 0;
#X connect 29 0 62 0;
#X connect 29 1 34 0;
#X connect 29 1 35 0;
#X connect 29 1 66 0;
#X connect 29 1 67 0;
#X connect 30 0 32 0;
#X connect 32 1 31 0;
#X connect 33 0 44 0;
#X connect 34 0 36 1;
#X connect 35 0 37 1;
#X connect 36 0 55 0;
#X connect 37 0 56 0;
#X connect 38 0 40 0;
#X connect 39 0 41 0;
#X connect 40 0 42 0;
#X connect 40 0 4 0;
#X connect 41 0 43 0;
#X connect 41 0 5 0;
#X connect 44 0 45 0;
#X connect 44 1 46 0;
#X connect 44 1 53 0;
#X connect 45 0 47 0;
#X connect 46 0 48 0;
#X connect 47 0 49 0;
#X connect 48 0 50 0;
#X connect 49 0 51 0;
#X connect 49 0 7 0;
#X connect 50 0 52 0;
#X connect 50 0 6 0;
#X connect 53 0 54 0;
#X connect 54 0 45 0;
#X connect 55 0 38 0;
#X connect 56 0 39 0;
#X connect 58 0 61 0;
#X connect 59 0 58 0;
#X connect 60 0 59 1;
#X connect 61 0 23 0;
#X connect 61 1 9 0;
#X connect 61 2 10 0;
#X connect 61 3 14 0;
#X connect 61 4 15 0;
#X connect 62 0 65 0;
#X connect 63 0 64 0;
#X connect 64 0 68 0;
#X connect 64 0 23 0;
#X connect 65 0 63 0;
#X connect 67 0 62 1;
#X connect 70 0 110 0;
#X connect 71 0 113 0;
#X connect 72 0 116 0;
#X connect 73 0 119 0;
#X connect 74 0 122 0;
#X connect 75 0 109 0;
#X connect 76 0 125 0;
#X connect 77 0 128 0;
#X connect 78 0 131 0;
#X connect 79 0 134 0;
#X connect 82 0 81 0;
#X connect 83 0 84 0;
#X connect 85 0 102 0;
#X connect 86 0 96 0;
#X connect 87 0 97 0;
#X connect 88 0 103 0;
#X connect 89 0 105 0;
#X connect 90 0 107 0;
#X connect 91 0 101 0;
#X connect 92 0 93 0;
#X connect 94 0 95 0;
#X connect 103 1 98 0;
#X connect 105 1 99 0;
#X connect 107 1 100 0;
#X connect 110 0 82 0;
#X connect 111 0 112 0;
#X connect 112 0 110 1;
#X connect 113 0 83 0;
#X connect 114 0 115 0;
#X connect 115 0 113 1;
#X connect 116 0 85 0;
#X connect 117 0 118 0;
#X connect 118 0 116 1;
#X connect 119 0 86 0;
#X connect 120 0 121 0;
#X connect 121 0 119 1;
#X connect 122 0 87 0;
#X connect 123 0 124 0;
#X connect 124 0 122 1;
#X connect 125 0 88 0;
#X connect 126 0 127 0;
#X connect 127 0 125 1;
#X connect 128 0 89 0;
#X connect 129 0 130 0;
#X connect 130 0 128 1;
#X connect 131 0 90 0;
#X connect 132 0 133 0;
#X connect 133 0 131 1;
#X connect 134 0 91 0;
#X connect 135 0 136 0;
#X connect 136 0 134 1;
#X connect 138 0 139 0;
#X connect 139 0 137 1;
#X connect 140 0 141 0;
#X connect 140 0 145 0;
#X connect 143 0 144 0;
#X connect 144 0 146 1;
#X connect 144 1 146 2;
#X connect 146 0 147 0;
#X connect 148 0 153 0;
#X connect 148 0 158 0;
#X connect 149 0 151 0;
#X connect 151 0 152 0;
#X connect 151 1 150 0;
#X connect 153 0 149 0;
#X connect 154 0 156 0;
#X connect 156 0 157 0;
#X connect 156 1 155 0;
#X connect 158 0 154 0;
#X connect 159 0 161 0;
#X connect 162 0 168 0;
#X connect 163 0 164 0;
#X connect 163 0 165 0;
#X connect 165 0 169 0;
#X connect 168 0 167 0;
#X connect 168 0 172 0;
#X connect 169 0 170 0;
#X connect 170 0 166 0;
#X connect 170 0 172 1;
#X connect 171 0 162 0;
#X connect 171 1 163 0;
#X connect 172 0 173 0;
#X connect 174 0 175 0;
#X connect 175 0 185 0;
#X connect 175 0 186 0;
#X connect 175 1 197 0;
#X connect 175 1 198 0;
#X connect 176 0 177 0;
#X connect 176 1 178 0;
#X connect 176 1 183 0;
#X connect 177 0 179 0;
#X connect 178 0 180 0;
#X connect 179 0 181 0;
#X connect 180 0 182 0;
#X connect 181 0 187 0;
#X connect 182 0 188 0;
#X connect 183 0 184 0;
#X connect 184 0 177 0;
#X connect 186 0 176 0;
#X connect 189 0 201 0;
#X connect 189 1 190 0;
#X connect 189 1 195 0;
#X connect 190 0 192 0;
#X connect 191 0 193 0;
#X connect 192 0 194 0;
#X connect 193 0 199 0;
#X connect 194 0 200 0;
#X connect 195 0 196 0;
#X connect 196 0 201 0;
#X connect 198 0 189 0;
#X connect 201 0 191 0;
#X coords 0 -1 1 1 180 124 1 100 100;
#X restore 135 70 pd control;
#N canvas 620 93 960 987 makeloops 0;
#X obj 486 499 symbol;
#X msg 484 471 latom;
#X msg 498 -83 \; pd-loops clear;
#X obj 463 550 pack f s 2 2;
#X obj 461 31 until;
#X msg 461 62 1;
#X obj 461 87 +;
#X obj 491 87 int;
#X msg 500 31 0;
#X obj 461 257 until;
#X msg 461 288 1;
#X obj 461 313 +;
#X obj 491 313 int;
#X msg 500 257 0;
#X obj 465 131 t b f;
#X obj 461 227 t f b b f;
#X obj 470 708 pack f s f f f f;
#X msg 517 812 \; pd-loops obj \$5 \$6 \$2 \$3 \$4;
#X obj 529 609 - 1;
#X obj 569 600 - 1, f 4;
#X obj 570 652 * 65;
#X obj 530 638 * 110;
#X obj 406 29 s init;
#X obj 461 1 t b f b b;
#X obj 224 146 until;
#X msg 224 177 1;
#X obj 224 202 +;
#X obj 254 202 int;
#X msg 268 161 0;
#X obj 228 246 t b f;
#X obj 234 451 symbol;
#X obj 277 561 - 1;
#X obj 317 562 - 1, f 4;
#X obj 317 644 * 65;
#X obj 280 641 * 110;
#X msg 232 423 channelstrip;
#X obj 209 699 pack f s f f f f;
#X obj 202 740 t a a a a a a a a;
#X obj 463 742 t a a a a a a a a;
#X obj -187 197 until;
#X msg -187 228 1;
#X obj -187 253 +;
#X obj -157 253 int;
#X msg -148 197 -1;
#X obj -187 393 until;
#X msg -187 424 1;
#X obj -187 449 +;
#X obj -157 449 int;
#X obj -187 363 t b f b b;
#X msg -148 393 -1;
#X obj -171 543 pack;
#X obj -111 498 + 16;
#X msg -220 591 \; pd-loops connect \$1 0 \$2 0;
#X obj -181 492 +;
#X obj -130 474 * 4;
#X obj 723 80 v channels;
#X obj 804 73 v scenes;
#X msg 555 -28 3;
#X obj 465 -26 v channels;
#X obj 464 178 v scenes;
#X obj 221 38 v channels;
#X obj 323 -101 bng 16 250 50 0 empty empty empty 17 7 0 10 -262144
-1 -1;
#X obj -187 85 v channels;
#X obj -188 332 v scenes;
#X obj -95 318 v scenes;
#X obj -98 417 *;
#X obj -83 346 v channels;
#X obj 95 -67 bng 15 250 50 0 empty empty empty 17 7 0 10 -262144 -1
-1;
#X obj -187 285 t b f f b b;
#X obj 688 173 v channelX;
#X obj 780 172 v sceneY;
#X obj 596 622 v sceneY;
#X obj 611 585 v channelX;
#X obj 350 609 v sceneY;
#X obj 365 572 v channelX;
#X obj 222 527 unpack f s f f;
#X obj 473 575 unpack f s f f;
#X obj 209 298 t f f a f b;
#X obj 461 346 t b f a f b;
#X obj 274 358 v scenes;
#X obj 211 488 pack f s f f;
#X obj 274 395 + 1;
#X msg 798 15 5;
#X obj 350 -96 t b b b b b;
#X obj 673 -27 t b;
#X obj 40 453 symbol;
#X obj 123 564 - 1, f 4;
#X obj 123 646 * 65;
#X obj 86 643 * 110;
#X obj 8 742 t a a a a a a a a;
#X obj 156 611 v sceneY;
#X obj 171 574 v channelX;
#X obj 28 529 unpack f s f f;
#X obj 15 300 t f f a f b;
#X obj 80 360 v scenes;
#X obj 17 490 pack f s f f;
#X obj 80 397 + 1;
#X msg 38 425 master;
#X obj 16 274 v channels;
#X obj 24 213 bng 15 250 50 0 empty empty empty 17 7 0 10 -262144 -1
-1;
#X obj 224 116 t f f b b;
#X obj -368 189 until;
#X msg -368 220 1;
#X obj -368 245 +;
#X obj -338 245 int;
#X obj -368 159 t b f b b;
#X msg -329 189 -1;
#X obj -352 535 pack;
#X obj -357 445 + 16;
#X msg -401 583 \; pd-loops connect \$1 0 \$2 0;
#X obj -368 77 v channels;
#X obj -325 307 v scenes;
#X obj -328 406 *;
#X obj -313 335 v channels;
#X obj -368 277 t b f f b b;
#X obj -187 167 t f f b b;
#X obj -311 437 +;
#X obj 15 701 pack f s f f f 0;
#X obj 714 -76 loadbang;
#X msg 731 20 7;
#X msg 31 786 \; pd-loops obj \$5 \$6 \$2 \$1;
#X obj 22 565 + 1;
#X msg 225 784 \; pd-loops obj \$5 \$6 \$2 \$1;
#X msg 705 129 186;
#X msg 772 124 111;
#X connect 0 0 3 1;
#X connect 1 0 0 0;
#X connect 3 0 76 0;
#X connect 4 0 5 0;
#X connect 5 0 6 0;
#X connect 6 0 7 0;
#X connect 6 0 14 0;
#X connect 7 0 6 1;
#X connect 8 0 7 0;
#X connect 9 0 10 0;
#X connect 10 0 11 0;
#X connect 11 0 12 0;
#X connect 11 0 78 0;
#X connect 12 0 11 1;
#X connect 13 0 12 0;
#X connect 14 0 59 0;
#X connect 14 1 3 2;
#X connect 15 0 9 0;
#X connect 15 1 13 0;
#X connect 16 0 38 0;
#X connect 18 0 21 0;
#X connect 19 0 20 0;
#X connect 20 0 16 5;
#X connect 21 0 16 4;
#X connect 23 0 22 0;
#X connect 23 1 4 0;
#X connect 23 2 8 0;
#X connect 24 0 25 0;
#X connect 25 0 26 0;
#X connect 26 0 27 0;
#X connect 26 0 29 0;
#X connect 26 0 77 0;
#X connect 27 0 26 1;
#X connect 28 0 27 0;
#X connect 30 0 80 1;
#X connect 31 0 34 0;
#X connect 32 0 33 0;
#X connect 33 0 36 5;
#X connect 34 0 36 4;
#X connect 35 0 30 0;
#X connect 36 0 37 0;
#X connect 37 7 122 0;
#X connect 38 7 17 0;
#X connect 39 0 40 0;
#X connect 40 0 41 0;
#X connect 41 0 42 0;
#X connect 41 0 68 0;
#X connect 42 0 41 1;
#X connect 43 0 42 0;
#X connect 44 0 45 0;
#X connect 45 0 46 0;
#X connect 46 0 47 0;
#X connect 46 0 53 0;
#X connect 47 0 46 1;
#X connect 48 1 44 0;
#X connect 48 2 49 0;
#X connect 49 0 47 0;
#X connect 50 0 52 0;
#X connect 51 0 50 1;
#X connect 53 0 50 0;
#X connect 54 0 53 1;
#X connect 58 0 23 0;
#X connect 59 0 15 0;
#X connect 60 0 100 0;
#X connect 61 0 83 0;
#X connect 62 0 115 0;
#X connect 63 0 48 0;
#X connect 64 0 65 0;
#X connect 64 0 54 1;
#X connect 65 0 51 1;
#X connect 66 0 65 1;
#X connect 67 0 62 0;
#X connect 68 0 63 0;
#X connect 68 1 54 0;
#X connect 68 2 51 0;
#X connect 68 3 64 0;
#X connect 68 4 66 0;
#X connect 71 0 20 1;
#X connect 72 0 21 1;
#X connect 73 0 33 1;
#X connect 74 0 34 1;
#X connect 75 0 36 0;
#X connect 75 1 36 1;
#X connect 75 2 31 0;
#X connect 75 2 36 2;
#X connect 75 3 32 0;
#X connect 75 3 36 3;
#X connect 76 0 16 0;
#X connect 76 1 16 1;
#X connect 76 2 16 2;
#X connect 76 2 18 0;
#X connect 76 3 16 3;
#X connect 76 3 19 0;
#X connect 77 1 80 0;
#X connect 77 2 35 0;
#X connect 77 3 80 2;
#X connect 77 4 74 0;
#X connect 77 4 73 0;
#X connect 77 4 79 0;
#X connect 78 1 3 0;
#X connect 78 2 1 0;
#X connect 78 3 3 3;
#X connect 78 4 72 0;
#X connect 78 4 71 0;
#X connect 79 0 81 0;
#X connect 80 0 75 0;
#X connect 81 0 80 3;
#X connect 82 0 56 0;
#X connect 83 0 62 0;
#X connect 83 1 60 0;
#X connect 83 2 58 0;
#X connect 83 3 2 0;
#X connect 83 4 84 0;
#X connect 84 0 119 0;
#X connect 84 0 82 0;
#X connect 84 0 123 0;
#X connect 84 0 124 0;
#X connect 85 0 95 1;
#X connect 86 0 87 0;
#X connect 88 0 117 4;
#X connect 89 7 120 0;
#X connect 90 0 87 1;
#X connect 91 0 88 1;
#X connect 92 0 121 0;
#X connect 92 1 117 1;
#X connect 92 2 88 0;
#X connect 92 2 117 2;
#X connect 92 3 86 0;
#X connect 92 3 117 3;
#X connect 93 1 95 0;
#X connect 93 2 97 0;
#X connect 93 3 95 2;
#X connect 93 4 91 0;
#X connect 93 4 90 0;
#X connect 93 4 94 0;
#X connect 94 0 96 0;
#X connect 95 0 92 0;
#X connect 96 0 95 3;
#X connect 97 0 85 0;
#X connect 98 0 93 0;
#X connect 99 0 98 0;
#X connect 100 0 93 0;
#X connect 100 1 24 0;
#X connect 100 2 28 0;
#X connect 101 0 102 0;
#X connect 102 0 103 0;
#X connect 103 0 104 0;
#X connect 103 0 114 0;
#X connect 104 0 103 1;
#X connect 105 1 101 0;
#X connect 105 2 106 0;
#X connect 106 0 104 0;
#X connect 107 0 109 0;
#X connect 108 0 107 0;
#X connect 110 0 105 0;
#X connect 111 0 112 0;
#X connect 112 0 108 1;
#X connect 112 0 116 0;
#X connect 113 0 112 1;
#X connect 113 0 116 1;
#X connect 114 2 108 0;
#X connect 114 3 111 0;
#X connect 114 4 113 0;
#X connect 115 0 105 0;
#X connect 115 1 39 0;
#X connect 115 2 43 0;
#X connect 116 0 107 1;
#X connect 117 0 89 0;
#X connect 118 0 84 0;
#X connect 119 0 55 0;
#X connect 121 0 117 0;
#X connect 123 0 69 0;
#X connect 124 0 70 0;
#X restore 274 23 pd makeloops;
#N canvas 210 228 1440 852 loops 0;
#X obj 0 555 channelstrip 1;
#X obj 186 555 channelstrip 2;
#X obj 372 555 channelstrip 3;
#X obj 558 555 channelstrip 4;
#X obj 744 555 channelstrip 5;
#X obj 930 555 channelstrip 6;
#X obj 1116 555 channelstrip 7;
#X obj 1302 0 master 8;
#X obj 186 0 latom 2 1;
#X obj 0 0 latom 1 1;
#X obj 0 111 latom 1 2;
#X obj 0 222 latom 1 3;
#X obj 0 333 latom 1 4;
#X obj 0 444 latom 1 5;
#X obj 186 111 latom 2 2;
#X obj 186 222 latom 2 3;
#X obj 186 333 latom 2 4;
#X obj 186 444 latom 2 5;
#X obj 372 0 latom 3 1;
#X obj 372 111 latom 3 2;
#X obj 372 222 latom 3 3;
#X obj 372 333 latom 3 4;
#X obj 372 444 latom 3 5;
#X obj 558 0 latom 4 1;
#X obj 558 111 latom 4 2;
#X obj 558 222 latom 4 3;
#X obj 558 333 latom 4 4;
#X obj 558 444 latom 4 5;
#X obj 744 0 latom 5 1;
#X obj 744 111 latom 5 2;
#X obj 744 222 latom 5 3;
#X obj 744 333 latom 5 4;
#X obj 744 444 latom 5 5;
#X obj 930 0 latom 6 1;
#X obj 930 111 latom 6 2;
#X obj 930 222 latom 6 3;
#X obj 930 333 latom 6 4;
#X obj 930 444 latom 6 5;
#X obj 1116 0 latom 7 1;
#X obj 1116 111 latom 7 2;
#X obj 1116 222 latom 7 3;
#X obj 1116 333 latom 7 4;
#X obj 1116 444 latom 7 5;
#X connect 0 0 7 0;
#X connect 1 0 7 0;
#X connect 2 0 7 0;
#X connect 3 0 7 0;
#X connect 4 0 7 0;
#X connect 5 0 7 0;
#X connect 6 0 7 0;
#X connect 8 0 1 0;
#X connect 9 0 0 0;
#X connect 10 0 0 0;
#X connect 11 0 0 0;
#X connect 12 0 0 0;
#X connect 13 0 0 0;
#X connect 14 0 1 0;
#X connect 15 0 1 0;
#X connect 16 0 1 0;
#X connect 17 0 1 0;
#X connect 18 0 2 0;
#X connect 19 0 2 0;
#X connect 20 0 2 0;
#X connect 21 0 2 0;
#X connect 22 0 2 0;
#X connect 23 0 3 0;
#X connect 24 0 3 0;
#X connect 25 0 3 0;
#X connect 26 0 3 0;
#X connect 27 0 3 0;
#X connect 28 0 4 0;
#X connect 29 0 4 0;
#X connect 30 0 4 0;
#X connect 31 0 4 0;
#X connect 32 0 4 0;
#X connect 33 0 5 0;
#X connect 34 0 5 0;
#X connect 35 0 5 0;
#X connect 36 0 5 0;
#X connect 37 0 5 0;
#X connect 38 0 6 0;
#X connect 39 0 6 0;
#X connect 40 0 6 0;
#X connect 41 0 6 0;
#X connect 42 0 6 0;
#X coords 0 -1 1 1 1391 728 1 0 -3;
#X restore 278 241 pd loops;
#N canvas 589 140 506 355 clock 0;
#X obj 106 33 r rec;
#X obj 35 8 bng 15 250 50 0 empty empty empty 17 7 0 10 -262144 -1
-1;
#X obj 183 84 r play;
#X obj 245 85 r stop;
#X obj 80 141 r recTime;
#X floatatom 138 178 10 0 0 0 - - -, f 10;
#X obj 189 139 r rst;
#N canvas 240 112 321 209 timeSig 0;
#X obj 31 107 r \$0-bars;
#X obj 114 107 r \$0-bpm;
#X floatatom 31 141 5 0 0 0 - - -, f 5;
#X floatatom 114 141 5 0 0 0 - - -, f 5;
#X obj 187 107 r \$0-ticks;
#X floatatom 187 141 5 0 0 0 - - -, f 5;
#N canvas 219 201 1440 727 internal 0;
#X obj 126 156 /;
#X msg 126 123 60000;
#X obj 126 78 t b f;
#X obj 392 8 r \$0-bpmLimits;
#X obj 392 35 unpack;
#X obj 363 198 s \$0-bpmLimits;
#X obj 20 367 <;
#X obj -14 396 spigot;
#X obj 401 379 spigot;
#X obj 440 355 >;
#X obj -14 311 t f f;
#X obj 0 614 /;
#X obj 126 185 * 4;
#X obj 204 419 +;
#X obj 204 384 <;
#X obj 233 384 >;
#X obj 378 410 / 2;
#X obj 204 448 == 0;
#X obj -14 344 t f f;
#X obj -14 433 * 2;
#X obj 392 595 /;
#X obj 378 290 t f f;
#X obj 378 325 t f f f;
#X obj 378 475 <=;
#X obj 378 443 t f f;
#X obj 378 554 float;
#X obj 378 504 sel 1;
#X obj -14 510 >=;
#X obj -14 469 t f f;
#X obj -14 580 float;
#X obj -14 540 sel 1;
#X obj 175 304 t f f f;
#X obj 175 494 spigot;
#X msg 190 531 1;
#X obj 431 64 s \$0-bpmMax;
#X obj 392 93 s \$0-bpmMin;
#X obj 36 493 r \$0-bpmMin;
#X obj 458 333 r \$0-bpmMax;
#X obj 434 458 r \$0-bpmMax;
#X obj 378 654 s \$0-bpm;
#X obj 392 617 s \$0-bars;
#X obj -14 692 s \$0-bpm;
#X obj 0 660 s \$0-bars;
#X obj 175 606 s \$0-bpm;
#X obj 190 568 s \$0-bars;
#X obj 38 341 r \$0-bpmMin;
#X obj 220 333 r \$0-bpmMin;
#X obj 251 359 r \$0-bpmMax;
#X obj 126 219 s \$0-bpmRaw;
#X obj 378 266 r \$0-bpmRaw;
#X obj -14 290 r \$0-bpmRaw;
#X obj 175 281 r \$0-bpmRaw;
#X obj 375 135 loadbang;
#X obj 102 780 s \$0-ticks;
#X obj 102 752 * 96;
#X msg 369 167 60 150;
#X obj 102 657 r \$0-bars;
#X obj 102 724 spigot;
#X obj 141 702 == 0;
#X obj 126 53 spigot;
#X obj 165 31 == 0;
#X obj 165 8 r \$0-syncsource;
#X obj 141 679 r \$0-syncsource;
#X obj 126 -20 r recTime;
#X connect 0 0 12 0;
#X connect 1 0 0 0;
#X connect 2 0 1 0;
#X connect 2 1 0 1;
#X connect 3 0 4 0;
#X connect 4 0 35 0;
#X connect 4 1 34 0;
#X connect 6 0 7 1;
#X connect 7 0 19 0;
#X connect 8 0 16 0;
#X connect 9 0 8 1;
#X connect 10 0 18 0;
#X connect 10 1 11 1;
#X connect 11 0 42 0;
#X connect 12 0 48 0;
#X connect 13 0 17 0;
#X connect 14 0 13 0;
#X connect 15 0 13 1;
#X connect 16 0 22 0;
#X connect 16 0 24 0;
#X connect 17 0 32 1;
#X connect 18 0 7 0;
#X connect 18 1 6 0;
#X connect 19 0 18 0;
#X connect 19 0 28 0;
#X connect 20 0 40 0;
#X connect 21 0 22 0;
#X connect 21 1 20 1;
#X connect 22 1 8 0;
#X connect 22 2 9 0;
#X connect 23 0 26 0;
#X connect 24 0 23 0;
#X connect 24 1 25 1;
#X connect 25 0 20 0;
#X connect 25 0 39 0;
#X connect 26 0 25 0;
#X connect 27 0 30 0;
#X connect 28 0 27 0;
#X connect 28 1 29 1;
#X connect 29 0 11 0;
#X connect 29 0 41 0;
#X connect 30 0 29 0;
#X connect 31 0 32 0;
#X connect 31 1 14 0;
#X connect 31 2 15 0;
#X connect 32 0 33 0;
#X connect 32 0 43 0;
#X connect 33 0 44 0;
#X connect 36 0 27 1;
#X connect 37 0 9 1;
#X connect 38 0 23 1;
#X connect 45 0 6 1;
#X connect 46 0 14 1;
#X connect 47 0 15 1;
#X connect 49 0 21 0;
#X connect 50 0 10 0;
#X connect 51 0 31 0;
#X connect 52 0 55 0;
#X connect 54 0 53 0;
#X connect 55 0 5 0;
#X connect 56 0 57 0;
#X connect 57 0 54 0;
#X connect 58 0 57 1;
#X connect 59 0 2 0;
#X connect 60 0 59 1;
#X connect 61 0 60 0;
#X connect 62 0 58 0;
#X connect 63 0 59 0;
#X restore 56 50 pd internal;
#N canvas 2 52 450 420 external 0;
#X obj 104 22 r \$0-state;
#X obj 104 207 int;
#X obj 150 205 int;
#X obj 104 241 -;
#X obj 104 179 sel 4 2;
#X obj 238 184 r TperB;
#X obj 238 204 r BperB;
#X obj 238 279 *;
#X obj 238 226 t b f;
#X obj 104 296 /;
#X obj 145 258 s \$0-ticks;
#X obj 104 359 s \$0-bars;
#X obj 105 412 r \$0-sampleT;
#X obj 105 589 /;
#X msg 105 556 60000;
#X obj 105 511 t b f;
#X obj 105 618 * 4;
#X obj 105 658 *;
#X obj 198 576 r \$0-bars;
#X obj 172 627 t b f;
#X obj 105 476 spigot;
#X obj 104 87 spigot;
#X obj 157 70 == 1;
#X obj 158 459 == 1;
#X obj 105 687 s \$0-bpm;
#X obj 157 47 r \$0-syncsource;
#X obj 158 436 r \$0-syncsource;
#X obj 122 129 r clock;
#X connect 0 0 21 0;
#X connect 1 0 3 0;
#X connect 2 0 3 1;
#X connect 3 0 9 0;
#X connect 3 0 10 0;
#X connect 4 0 1 0;
#X connect 4 1 2 0;
#X connect 5 0 7 0;
#X connect 6 0 8 0;
#X connect 7 0 9 1;
#X connect 8 0 7 0;
#X connect 8 1 7 1;
#X connect 9 0 11 0;
#X connect 12 0 20 0;
#X connect 13 0 16 0;
#X connect 14 0 13 0;
#X connect 15 0 14 0;
#X connect 15 1 13 1;
#X connect 16 0 17 0;
#X connect 17 0 24 0;
#X connect 18 0 19 0;
#X connect 19 0 17 0;
#X connect 19 1 17 1;
#X connect 20 0 15 0;
#X connect 21 0 4 0;
#X connect 22 0 21 1;
#X connect 23 0 20 1;
#X connect 25 0 22 0;
#X connect 26 0 23 0;
#X connect 27 0 1 1;
#X connect 27 0 2 1;
#X restore 153 49 pd external;
#X connect 0 0 2 0;
#X connect 1 0 3 0;
#X connect 4 0 5 0;
#X restore 198 188 pd timeSig;
#N canvas 170 608 625 354 clock 0;
#X obj 143 224 metro;
#X obj 143 256 int;
#X msg 203 223 0;
#X msg 143 166 1;
#X obj 181 273 + 1;
#X obj 143 112 * 96;
#X obj 143 6 r \$0-bars;
#X obj 143 137 t b b f b;
#X msg 44 180 0;
#X obj 397 287 / 96;
#X obj 397 350 t f f;
#X obj 429 400 int;
#X obj 397 439 ==;
#X obj 397 466 sel 1;
#X obj 397 521 outlet;
#X obj 143 350 spigot;
#X obj 182 328 == 0;
#X obj 397 134 spigot;
#X obj 436 112 == 1;
#X obj 474 291 s \$0-clock;
#X obj 507 224 r \$0-ticks;
#X obj 474 250 mod;
#X obj 474 220 -;
#X obj 492 180 int;
#X obj 492 124 r \$0-state;
#X obj 492 154 sel 2;
#X obj 143 423 s \$0-clock;
#X obj 189 374 r \$0-ticks;
#X obj 143 391 mod;
#X obj 52 367 s clock;
#X obj 436 89 r \$0-syncsource;
#X obj 182 305 r \$0-syncsource;
#X obj 397 56 r clock;
#X obj 397 252 r clock;
#X obj 143 46 spigot;
#X obj 175 93 spigot;
#X obj 214 29 r \$0-firstLoop;
#X obj 44 207 t f f f;
#X obj 175 169 /;
#X floatatom 105 378 5 0 0 0 - - -, f 5;
#X obj 175 70 r recTime;
#X floatatom 100 418 5 0 0 0 - - -, f 5;
#X obj 97 457 sel 0;
#X obj 95 480 bng 15 250 50 0 empty empty empty 17 7 0 10 -262144 -1
-1;
#X obj 44 133 r rst;
#X connect 0 0 1 0;
#X connect 1 0 4 0;
#X connect 1 0 15 0;
#X connect 2 0 1 1;
#X connect 3 0 0 0;
#X connect 4 0 1 1;
#X connect 5 0 7 0;
#X connect 6 0 34 0;
#X connect 7 0 3 0;
#X connect 7 1 38 0;
#X connect 7 2 38 1;
#X connect 7 3 2 0;
#X connect 8 0 37 0;
#X connect 9 0 10 0;
#X connect 10 0 12 0;
#X connect 10 1 11 0;
#X connect 11 0 12 1;
#X connect 12 0 13 0;
#X connect 13 0 14 0;
#X connect 15 0 28 0;
#X connect 15 0 29 0;
#X connect 15 0 39 0;
#X connect 16 0 15 1;
#X connect 17 0 22 0;
#X connect 17 0 23 1;
#X connect 18 0 17 1;
#X connect 20 0 21 1;
#X connect 21 0 19 0;
#X connect 22 0 21 0;
#X connect 23 0 22 1;
#X connect 24 0 25 0;
#X connect 25 0 23 0;
#X connect 27 0 28 1;
#X connect 28 0 26 0;
#X connect 28 0 41 0;
#X connect 28 0 42 0;
#X connect 30 0 18 0;
#X connect 31 0 16 0;
#X connect 32 0 17 0;
#X connect 33 0 9 0;
#X connect 34 0 5 0;
#X connect 35 0 38 0;
#X connect 36 0 35 1;
#X connect 36 0 34 1;
#X connect 37 0 1 0;
#X connect 37 1 0 0;
#X connect 38 0 0 1;
#X connect 40 0 35 0;
#X connect 42 0 43 0;
#X connect 44 0 8 0;
#X restore 277 163 pd clock;
#X obj 52 244 s \$0-firstLoop;
#X obj 323 119 s \$0-syncsource;
#X obj 328 71 loadbang;
#X msg 323 94 0;
#X obj 27 85 r clock;
#X obj 21 115 mod 96;
#X obj 11 136 sel 0;
#X obj 4 160 bng 15 250 50 0 empty empty empty 17 7 0 10 -262144 -1
-1;
#X msg 105 66 1;
#X msg 49 55 0;
#X obj -47 187 s qClock;
#X obj 32 190 r rst;
#X msg 34 216 1;
#X msg 71 216 0;
#X obj 72 183 pipe 10;
#X obj -37 218 r init;
#X connect 0 0 1 0;
#X connect 0 0 17 0;
#X connect 4 0 5 0;
#X connect 4 0 23 0;
#X connect 11 0 12 0;
#X connect 12 0 10 0;
#X connect 13 0 14 0;
#X connect 14 0 15 0;
#X connect 15 0 16 0;
#X connect 15 0 19 0;
#X connect 20 0 21 0;
#X connect 21 0 9 0;
#X connect 22 0 9 0;
#X connect 23 0 22 0;
#X connect 24 0 21 0;
#X restore 196 19 pd clock;
#X obj 75 96 loadbang;
#X obj 83 121 s init;
#X obj 82 71 bng 15 250 50 0 empty empty empty 17 7 0 10 -262144 -1
-1;
#X msg 73 241 \; pd dsp \$1;
#X msg 73 203 1;
#X msg 133 207 0;
#X obj 119 436 vu 44 120 empty empty -1 -8 0 10 -66577 -1 1 0;
#X obj 104 386 - 100;
#X obj 93 433 vsl 15 128 0 1 0 0 empty empty empty 0 -9 0 10 -262144
-1 -1 0 1;
#X obj 101 361 env~ 16384;
#X obj 100 328 adc~;
#X connect 4 0 5 0;
#X connect 4 0 8 0;
#X connect 6 0 5 0;
#X connect 8 0 7 0;
#X connect 9 0 7 0;
#X connect 11 0 10 0;
#X connect 13 0 11 0;
#X connect 14 0 13 0;
