#N canvas 2 137 450 300 10;
#X obj 77 56 * 1000;
#X obj 246 97 int;
#X obj 77 80 t f f b b;
#X obj 29 174 spigot;
#X obj 29 1 inlet;
#X obj 29 39 t f f;
#X obj 29 237 outlet;
#X msg 135 192 1;
#X msg 97 241 0;
#X obj 97 148 change;
#X obj 97 121 expr $f1 <= ($f2 + $f3) && $f1 >= ($f2 - $f3);
#X obj 97 169 sel 1;
#X obj 97 218 delay 1000;
#X msg 395 98 4;
#X connect 0 0 2 0;
#X connect 1 0 10 1;
#X connect 2 0 1 1;
#X connect 2 1 10 0;
#X connect 2 2 1 0;
#X connect 2 3 13 0;
#X connect 3 0 6 0;
#X connect 4 0 5 0;
#X connect 5 0 3 0;
#X connect 5 1 0 0;
#X connect 7 0 3 1;
#X connect 8 0 3 1;
#X connect 9 0 11 0;
#X connect 10 0 9 0;
#X connect 11 0 12 0;
#X connect 11 1 7 0;
#X connect 12 0 8 0;
#X connect 13 0 10 2;
