#N canvas 170 99 535 511 10;
#X obj 115 -63 inlet~;
#X obj 135 16 vu 16 680 empty empty -1 -8 0 10 -66577 -1 1 0;
#X obj 195 78 - 100;
#X obj 19 189 *~;
#X obj 7 108 line~;
#X msg 48 69 \$1 50;
#X obj 108 4 vsl 18 693 0 1 0 0 empty empty empty 0 -9 0 10 -262144
-1 -1 69200 1;
#X obj 241 -106 ctlin;
#X obj 255 -45 == \$1;
#X obj 241 -10 spigot;
#X obj 241 18 / 127;
#X obj 37 -73 r init;
#X msg 37 -48 1;
#X obj 36 -100 loadbang;
#X obj 255 -76 - 4;
#X obj 70 200 *~;
#X obj 187 391 change;
#X obj 187 275 r fromG;
#X obj 191 324 route vol;
#X obj 195 231 s 2pLoopG;
#X obj 195 184 pack f \$1;
#X msg 195 209 \$2 aEnv \$1;
#X obj 195 48 env~ 8192;
#X obj 20 309 s~ master;
#X obj 187 301 route 9;
#X obj 171 -64 inlet~;
#X obj 274 79 - 100;
#X obj 274 232 s 2pLoopG;
#X obj 274 185 pack f \$1;
#X msg 274 210 \$2 aEnv \$1;
#X obj 274 49 env~ 8192;
#X obj 222 134 \$1;
#X obj 195 110 t f b;
#X obj 222 157 + 1;
#X obj 190 351 * 1;
#X obj 31 279 dac~;
#X connect 0 0 3 0;
#X connect 2 0 32 0;
#X connect 3 0 23 0;
#X connect 3 0 22 0;
#X connect 3 0 35 1;
#X connect 3 0 35 0;
#X connect 4 0 3 1;
#X connect 4 0 15 1;
#X connect 5 0 4 0;
#X connect 6 0 5 0;
#X connect 7 0 9 0;
#X connect 7 1 14 0;
#X connect 8 0 9 1;
#X connect 9 0 10 0;
#X connect 10 0 6 0;
#X connect 11 0 12 0;
#X connect 12 0 6 0;
#X connect 13 0 12 0;
#X connect 14 0 8 0;
#X connect 15 0 30 0;
#X connect 15 0 35 0;
#X connect 15 0 35 1;
#X connect 16 0 5 0;
#X connect 17 0 24 0;
#X connect 18 0 34 0;
#X connect 20 0 21 0;
#X connect 21 0 19 0;
#X connect 22 0 2 0;
#X connect 24 0 18 0;
#X connect 25 0 15 0;
#X connect 26 0 28 0;
#X connect 28 0 29 0;
#X connect 29 0 27 0;
#X connect 30 0 26 0;
#X connect 31 0 33 0;
#X connect 32 0 20 0;
#X connect 32 1 31 0;
#X connect 33 0 20 1;
#X connect 34 0 16 0;
#X coords 0 511 1 510 83 717 0;
