#N canvas 0 0 1920 993 12;
#X obj 275 140 r clock;
#X obj 352 144 r bpm;
#X floatatom 408 251 5 0 0 0 - - - 0;
#X floatatom 278 239 5 0 0 0 - - - 0;
#X obj 329 405 nbx 2 60 -1e+37 1e+37 0 0 empty empty empty 0 -8 0 50
#fcfcfc #000000 #000000 0 256;
#X obj 235 185 / 24;
#X obj 441 203 / 60;
#X obj 330 224 /;
#X obj 204 405 nbx 2 60 -1e+37 1e+37 0 0 empty empty empty 0 -8 0 50
#fcfcfc #000000 #000000 0 256;
#X obj 316 265 / 60;
#X obj 204 259 int;
#X obj 361 272 mod 60;
#X msg 361 329 60;
#X obj 361 360 -;
#X obj 361 302 t b f;
#X obj 204 347 -;
#X obj 204 289 t b f;
#X msg 204 316 7;
#X connect 0 0 5 0;
#X connect 1 0 6 0;
#X connect 5 0 3 0;
#X connect 5 0 7 0;
#X connect 6 0 2 0;
#X connect 6 0 7 1;
#X connect 7 0 9 0;
#X connect 7 0 11 0;
#X connect 9 0 10 0;
#X connect 10 0 16 0;
#X connect 11 0 14 0;
#X connect 12 0 13 0;
#X connect 13 0 4 0;
#X connect 14 0 12 0;
#X connect 14 1 13 1;
#X connect 15 0 8 0;
#X connect 16 0 17 0;
#X connect 16 1 15 1;
#X connect 17 0 15 0;
#X coords 0 -1 1 1 260 70 1 200 400;
