#N canvas 300 388 1041 631 10;
#X obj 127 -71 inlet~;
#X obj 24 430 outlet~;
#X obj 131 -13 - 100;
#X obj 23 60 *~;
#X obj 47 115 line~;
#X obj 202 -71 ctlin;
#X obj 216 14 == \$1;
#X obj 202 49 spigot;
#X obj 216 -17 - 1;
#X obj 202 77 / 127;
#X obj 51 -21 r init;
#X msg 51 5 1;
#X obj 50 -44 loadbang;
#X floatatom 276 73 5 0 0 0 - - -, f 5;
#X obj 269 -18 sel 0 1;
#X obj 215 -48 t f f;
#X obj 267 -45 > 7;
#X floatatom 345 -21 5 0 0 0 - - -, f 5;
#X msg 299 9 2;
#X msg 269 7 1;
#X obj 411 127 change;
#X obj 261 103 r fromG;
#X obj 261 131 route \$1;
#X obj 261 158 route follow;
#X obj 284 252 s 2pLoopG;
#X obj 298 189 pack f \$1;
#X msg 292 216 \$2 aEnv \$1;
#X obj 411 45 r fromG;
#X obj 411 76 route \$1;
#X obj 128 -38 env~ 8192;
#X obj 25 175 *~;
#X obj 66 159 line~;
#X obj 554 -36 r fromG;
#X obj 554 -8 route \$1;
#X obj 554 42 s \$0-mute;
#X obj 98 111 r \$0-mute;
#X msg 98 138 \$1 10;
#X msg 56 71 \$1 20;
#X obj 95 430 outlet~;
#X obj 554 19 route mute sFX;
#X obj 621 42 s \$0-sFX;
#X obj 24 406 *~;
#X obj 39 366 line~;
#X msg 39 331 \$1 10;
#X obj 95 406 *~;
#X obj 110 366 line~;
#X msg 110 331 \$1 10;
#X obj 110 283 == 0;
#X obj 39 265 t f f;
#X obj 716 -8 loadbang;
#X obj 713 52 s \$0-mute;
#X obj 780 52 s \$0-sFX;
#X msg 713 24 1;
#X msg 779 21 0;
#X obj 66 193 loadbang;
#X obj 66 217 \$1;
#X obj 66 239 > 4;
#X obj 411 101 route vol pan;
#X obj 448 188 moses;
#X obj 448 270 * -1;
#X msg 486 227 0;
#X msg 448 223 0;
#X obj 487 269 t f;
#X obj 448 160 clip -1 1;
#X connect 0 0 3 0;
#X connect 0 0 29 0;
#X connect 2 0 25 0;
#X connect 3 0 30 0;
#X connect 4 0 3 1;
#X connect 5 0 7 0;
#X connect 5 1 15 0;
#X connect 6 0 7 1;
#X connect 7 0 9 0;
#X connect 8 0 6 0;
#X connect 8 0 13 0;
#X connect 10 0 11 0;
#X connect 11 0 37 0;
#X connect 12 0 11 0;
#X connect 14 0 19 0;
#X connect 14 1 18 0;
#X connect 15 0 8 0;
#X connect 15 1 16 0;
#X connect 15 1 17 0;
#X connect 16 0 14 0;
#X connect 18 0 8 1;
#X connect 19 0 8 1;
#X connect 20 0 37 0;
#X connect 21 0 22 0;
#X connect 22 0 23 0;
#X connect 25 0 26 0;
#X connect 26 0 24 0;
#X connect 27 0 28 0;
#X connect 28 0 57 0;
#X connect 29 0 2 0;
#X connect 30 0 41 0;
#X connect 30 0 44 0;
#X connect 31 0 30 1;
#X connect 32 0 33 0;
#X connect 33 0 39 0;
#X connect 35 0 36 0;
#X connect 36 0 31 0;
#X connect 37 0 4 0;
#X connect 39 0 34 0;
#X connect 39 1 40 0;
#X connect 41 0 1 0;
#X connect 42 0 41 1;
#X connect 43 0 42 0;
#X connect 44 0 38 0;
#X connect 45 0 44 1;
#X connect 46 0 45 0;
#X connect 47 0 46 0;
#X connect 48 0 43 0;
#X connect 48 1 47 0;
#X connect 49 0 52 0;
#X connect 49 0 53 0;
#X connect 52 0 50 0;
#X connect 53 0 51 0;
#X connect 54 0 55 0;
#X connect 55 0 56 0;
#X connect 56 0 48 0;
#X connect 57 0 20 0;
#X connect 57 1 63 0;
#X connect 58 0 61 0;
#X connect 58 0 59 0;
#X connect 58 1 60 0;
#X connect 58 1 62 0;
#X connect 59 0 43 0;
#X connect 60 0 59 0;
#X connect 61 0 62 0;
#X connect 62 0 46 0;
#X connect 63 0 58 0;
#X coords 0 631 1 630 130 156 0;
