#N canvas 135 110 1041 701 10;
#X obj 101 101 tgl 40 0 empty empty C 13 20 0 20 -228856 -1 -1 1 1
;
#X obj 103 391 metro 150;
#X obj 103 556 s clock;
#X obj 211 242 r bpm;
#X obj 144 171 s bpm, f 6;
#X msg 211 306 60000;
#X obj 211 276 t b f;
#X obj 211 338 /;
#X msg 116 413 0;
#X obj 136 29 loadbang;
#X msg 126 70 110;
#X obj 103 276 t f f;
#X obj 138 303 sel 0 1;
#X obj 257 101 tgl 40 0 empty empty M 13 20 0 20 -228856 -1 -1 0 1
;
#X obj 211 374 / 24;
#X obj 479 476 dac~;
#X obj 406 364 noise~;
#X obj 494 -8 r clock;
#X obj 494 403 line~;
#X obj 480 433 *~;
#X msg 521 320 0;
#X obj 494 261 t f b;
#X obj 494 363 pack 0 10;
#X obj 520 17 spigot;
#X obj 569 -10 r klick;
#X obj 494 75 mod 96;
#X obj 494 104 / 24;
#X obj 494 134 int;
#X obj 494 169 change;
#X obj 354 16 loadbang;
#X obj 142 101 nbx 3 40 10 200 0 0 empty empty empty 0 -8 0 35 -228856
-1 -1 110 256;
#X obj 103 529 t f f;
#X obj 168 556 s preClock;
#X obj 103 465 spigot;
#N canvas 38 424 450 300 clock2bpm 0;
#X obj 122 -17 t b;
#X obj 122 170 == 0;
#X obj 122 146 int;
#X obj 122 197 sel 1 0;
#X msg 122 10 1;
#X obj 122 51 +;
#X obj 155 34 int;
#X obj 122 101 sel 1;
#X msg 155 9 0;
#X obj 122 251 / 4;
#X obj 122 326 /;
#X obj 122 275 t b f;
#X msg 122 301 60000;
#X obj 122 -45 inlet;
#X obj 122 361 outlet;
#X obj 122 225 realtime;
#X obj 122 77 >= 96;
#X connect 0 0 4 0;
#X connect 1 0 2 1;
#X connect 1 0 3 0;
#X connect 2 0 1 0;
#X connect 3 0 15 0;
#X connect 3 1 15 1;
#X connect 4 0 5 0;
#X connect 5 0 6 0;
#X connect 5 0 16 0;
#X connect 6 0 5 1;
#X connect 7 0 8 0;
#X connect 7 0 2 0;
#X connect 8 0 6 0;
#X connect 9 0 11 0;
#X connect 10 0 14 0;
#X connect 11 0 12 0;
#X connect 11 1 10 1;
#X connect 12 0 10 0;
#X connect 13 0 0 0;
#X connect 15 0 9 0;
#X connect 16 0 7 0;
#X restore 88 -5 pd clock2bpm;
#X obj 89 56 int;
#X obj 89 30 + 0.5;
#X msg 355 46 0;
#X obj 104 441 int;
#X obj 139 424 + 1;
#X obj 69 -57 r oscClock;
#X obj 96 -33 spigot;
#X obj 521 292 delay 25;
#X obj 410 228 sel 0;
#X msg 378 278 1500;
#X msg 428 273 3000;
#X obj 407 402 bp~ 2500 2;
#X msg 494 223 5;
#N canvas 2 112 1041 700 midiclock 0;
#X obj 288 -41 midirealtimein;
#X obj 263 -9 route 248 250 252;
#X msg 296 32 1;
#X msg 339 33 0;
#X obj 225 178 s clock;
#X obj 225 151 t f f;
#X obj 290 178 s preClock;
#X obj 201 39 spigot;
#X obj 227 104 int;
#X obj 262 87 + 1;
#X msg 255 60 0;
#X obj 254 127 - 0;
#X connect 0 0 1 0;
#X connect 1 0 7 0;
#X connect 1 1 2 0;
#X connect 1 2 3 0;
#X connect 1 2 10 0;
#X connect 2 0 7 1;
#X connect 3 0 7 1;
#X connect 5 0 4 0;
#X connect 5 1 6 0;
#X connect 7 0 8 0;
#X connect 8 0 9 0;
#X connect 8 0 11 0;
#X connect 9 0 8 1;
#X connect 10 0 8 1;
#X connect 11 0 5 0;
#X restore 232 36 pd midiclock;
#X obj 7 431 r oscClock;
#X obj 514 48 pipe 30;
#X obj 7 14 r wii-home;
#X obj 7 39 sel 1;
#X msg 354 107 0;
#X msg 418 107 96;
#X msg 386 107 48;
#X obj 103 496 - 0;
#X obj 15 154 r ctlInput;
#X obj 14 187 route buttons;
#X obj 15 229 route 18;
#X obj 12 300 sel 1;
#X obj 10 259 change;
#X obj 609 19 loadbang;
#X msg 606 49 0;
#X connect 0 0 33 1;
#X connect 1 0 38 0;
#X connect 3 0 6 0;
#X connect 5 0 7 0;
#X connect 6 0 5 0;
#X connect 6 1 7 1;
#X connect 7 0 14 0;
#X connect 8 0 38 1;
#X connect 8 0 31 0;
#X connect 9 0 10 0;
#X connect 10 0 30 0;
#X connect 11 0 1 0;
#X connect 11 1 12 0;
#X connect 12 0 8 0;
#X connect 13 0 11 0;
#X connect 14 0 1 1;
#X connect 16 0 46 0;
#X connect 17 0 23 0;
#X connect 18 0 19 1;
#X connect 19 0 15 0;
#X connect 19 0 15 1;
#X connect 20 0 22 0;
#X connect 21 0 22 0;
#X connect 21 1 42 0;
#X connect 22 0 18 0;
#X connect 23 0 50 0;
#X connect 25 0 26 0;
#X connect 26 0 27 0;
#X connect 27 0 28 0;
#X connect 28 0 43 0;
#X connect 28 0 47 0;
#X connect 29 0 37 0;
#X connect 30 0 4 0;
#X connect 31 0 2 0;
#X connect 31 1 32 0;
#X connect 33 0 56 0;
#X connect 34 0 36 0;
#X connect 35 0 30 0;
#X connect 36 0 35 0;
#X connect 37 0 13 0;
#X connect 38 0 33 0;
#X connect 38 0 39 0;
#X connect 39 0 38 1;
#X connect 40 0 41 0;
#X connect 40 0 34 0;
#X connect 41 0 34 0;
#X connect 42 0 20 0;
#X connect 43 0 45 0;
#X connect 43 1 44 0;
#X connect 44 0 46 1;
#X connect 45 0 46 1;
#X connect 46 0 19 0;
#X connect 47 0 21 0;
#X connect 49 0 33 0;
#X connect 50 0 25 0;
#X connect 51 0 52 0;
#X connect 52 0 0 0;
#X connect 53 0 56 1;
#X connect 54 0 56 1;
#X connect 55 0 56 1;
#X connect 56 0 31 0;
#X connect 57 0 58 0;
#X connect 58 0 59 0;
#X connect 59 0 61 0;
#X connect 60 0 13 0;
#X connect 61 0 60 0;
#X connect 62 0 63 0;
#X connect 63 0 23 1;
#X coords 0 -1 1 1 198 42 2 100 100;
