#N canvas 3 89 1061 808 10;
#N canvas 948 102 960 998 output 0;
#X obj 109 143 unpack;
#X obj 255 142 unpack;
#X obj 394 142 unpack;
#X obj 580 142 unpack;
#X obj 724 142 unpack;
#X obj 109 470 s stepper1;
#X obj 109 376 tabread pitchtable;
#X msg 109 405 pos \$1;
#X msg 142 443 spd \$1;
#X msg 255 350 \; pick hit;
#X msg 272 306 \; pick mute;
#X msg 613 270 \; stepper2 pos \$1;
#X msg 757 271 \; stepper2 spd \$1;
#X obj 613 224 * 1500;
#X msg 289 266 \; pick unmute;
#X obj 255 104 r channel1-2;
#X obj 255 226 sel 1 2 3;
#X obj 109 105 r channel1-1;
#X obj 394 104 r channel1-3;
#X obj 580 106 r channel1-4;
#X obj 724 106 r channel1-5;
#X obj 109 197 - 1;
#X msg 427 282 \; kickup \$1;
#X floatatom 274 191 5 0 0 0 - - -, f 5;
#X floatatom 154 198 5 0 0 0 - - -, f 5;
#X connect 0 0 21 0;
#X connect 0 0 24 0;
#X connect 0 1 8 0;
#X connect 1 0 16 0;
#X connect 1 0 23 0;
#X connect 2 1 22 0;
#X connect 3 1 13 0;
#X connect 4 1 12 0;
#X connect 6 0 7 0;
#X connect 7 0 5 0;
#X connect 8 0 5 0;
#X connect 13 0 11 0;
#X connect 15 0 1 0;
#X connect 16 0 9 0;
#X connect 16 1 10 0;
#X connect 16 2 14 0;
#X connect 17 0 0 0;
#X connect 18 0 2 0;
#X connect 19 0 3 0;
#X connect 20 0 4 0;
#X connect 21 0 6 0;
#X restore 743 680 pd output;
#N canvas 264 193 1321 714 controller 0;
#X obj 263 -152 ctlin 1;
#X obj 315 -153 r steps;
#X msg 45 244 \; steps 16;
#X floatatom 312 -27 5 0 0 0 - - -, f 5;
#X obj 263 -105 / 127;
#X obj 263 -74 *;
#X obj 263 -44 int;
#X obj 315 -105 - 1;
#X obj 263 -2 s edt_idx;
#X obj 62 -14 tgl 15 0 empty empty empty 17 7 0 10 -262144 -1 -1 0
1;
#X msg 52 27 \; cell-1-1-3 act \$1;
#X msg 83 163 1;
#X msg 119 164 2;
#X obj 76 123 loadbang;
#X msg 56 205 \; edt_seq \$1;
#X obj 336 281 pack f f f f;
#X obj 402 -35 stripnote;
#X obj 336 222 int;
#X obj 368 174 t b b f;
#X obj 392 214 r edt_idx;
#X obj 487 281 pack f f f f;
#X obj 487 222 int;
#X obj 519 174 t b b f;
#X obj 548 218 r edt_idx;
#X msg 471 377 \; cell-\$1-\$2-\$3 vel \$4;
#X msg 320 377 \; cell-\$1-\$2-\$3 pitch \$4;
#X obj 912 -149 stripnote;
#X obj 912 43 int;
#X obj 969 46 r edt_idx;
#X msg 912 195 \; cell-\$1-\$2-\$3 act 2;
#X obj 912 133 pack f f f;
#X obj 357 -100 moses 48;
#X obj 272 155 r edt_seq;
#X obj 449 181 r edt_seq;
#X obj 927 19 r edt_seq;
#X obj 366 218 int;
#X obj 515 219 int;
#X obj 402 87 pack f 1;
#X obj 402 131 unpack f f;
#X obj 489 88 pack f 1;
#X obj 489 125 unpack f f;
#X obj 1476 -81 bng 15 250 50 0 empty empty empty 17 7 0 10 -262144
-1 -1;
#X obj 912 -42 t b f;
#X obj 584 -135 / 127;
#X obj 584 -86 int;
#X obj 596 6 pack f 2;
#X obj 584 -64 t b f;
#X obj 596 -18 -;
#X msg 584 -41 2;
#X obj 584 -110 * 2.99;
#X obj 522 9 pack f 1;
#X obj 656 9 pack f 3;
#X obj 719 8 pack f 4;
#X obj 777 9 pack f 5;
#X msg 912 -83 1;
#X msg 943 -83 2;
#X msg 970 -83 3;
#X msg 999 -83 4;
#X msg 1029 -82 5;
#X obj 402 16 t b f;
#X obj 402 38 int;
#X obj 402 62 -;
#X obj 443 21 r pitches;
#X msg 158 208 \; pitches 12;
#X text 265 -178 edit index;
#X obj 210 -423 ctlin;
#X obj 237 -401 == 1;
#X obj 7 -396 pack;
#X obj 210 -378 pack;
#X obj 7 -359 spigot;
#X obj 210 -352 spigot;
#X obj 210 -319 spigot;
#X obj 145 -383 r seq_edit;
#X obj 408 -135 unpack;
#X msg 469 -333 \$2 \$1;
#X text 416 -201 pitch;
#X text 522 -17 pitchspd;
#X text 660 -19 kickvel;
#X text 716 -21 damp_pos;
#X text 776 -22 damp_spd;
#X text 579 -162 servo;
#X obj 469 -287 route 9 2 3 4 5 6;
#X obj 912 -180 unpack;
#X obj 296 -423 ctlin;
#X obj 296 -378 pack;
#X obj 296 -352 spigot;
#X obj 296 -319 spigot;
#X obj 210 -278 s \$0-ctlin1;
#X obj 296 -278 s \$0-ctlin2;
#X obj 469 -369 r \$0-ctlin1;
#X obj 323 -401 == 2;
#X msg 635 -330 \$2 \$1;
#X obj 635 -366 r \$0-ctlin2;
#X floatatom 368 -364 5 0 0 0 - - -, f 5;
#X obj 635 -284 route 5 6 7 8;
#X floatatom 838 -147 5 0 0 0 - - -, f 5;
#X obj 7 -286 s \$0-notein1;
#X obj 408 -171 r \$0-notein1;
#X obj 912 -207 r \$0-notein2;
#X obj 86 -397 pack;
#X obj 86 -360 spigot;
#X obj 86 -287 s \$0-notein2;
#X obj 86 -432 notein 2;
#X obj 7 -431 notein 1;
#X obj 912 -116 sel 48 49 50 51 44 45 46 47;
#X obj 402 -8 - 60;
#X obj 402 -71 moses 73;
#X connect 0 0 4 0;
#X connect 1 0 7 0;
#X connect 4 0 5 0;
#X connect 5 0 6 0;
#X connect 6 0 3 0;
#X connect 6 0 8 0;
#X connect 7 0 5 1;
#X connect 9 0 10 0;
#X connect 11 0 14 0;
#X connect 12 0 14 0;
#X connect 13 0 11 0;
#X connect 13 0 2 0;
#X connect 13 0 63 0;
#X connect 15 0 25 0;
#X connect 16 0 105 0;
#X connect 16 1 39 0;
#X connect 17 0 15 0;
#X connect 18 0 17 0;
#X connect 18 1 35 0;
#X connect 18 2 15 3;
#X connect 19 0 15 2;
#X connect 20 0 24 0;
#X connect 21 0 20 0;
#X connect 22 0 21 0;
#X connect 22 1 36 0;
#X connect 22 2 20 3;
#X connect 23 0 20 2;
#X connect 26 0 95 0;
#X connect 26 0 104 0;
#X connect 27 0 30 0;
#X connect 28 0 30 2;
#X connect 30 0 29 0;
#X connect 31 1 106 0;
#X connect 32 0 17 1;
#X connect 33 0 21 1;
#X connect 34 0 27 1;
#X connect 35 0 15 1;
#X connect 36 0 20 1;
#X connect 37 0 38 0;
#X connect 38 0 18 0;
#X connect 38 1 35 1;
#X connect 39 0 40 0;
#X connect 40 0 22 0;
#X connect 40 1 36 1;
#X connect 42 0 27 0;
#X connect 42 1 30 1;
#X connect 43 0 49 0;
#X connect 44 0 46 0;
#X connect 45 0 38 0;
#X connect 46 0 48 0;
#X connect 46 1 47 1;
#X connect 47 0 45 0;
#X connect 48 0 47 0;
#X connect 49 0 44 0;
#X connect 50 0 40 0;
#X connect 51 0 40 0;
#X connect 52 0 40 0;
#X connect 53 0 40 0;
#X connect 54 0 42 0;
#X connect 55 0 42 0;
#X connect 56 0 42 0;
#X connect 57 0 42 0;
#X connect 58 0 42 0;
#X connect 59 0 60 0;
#X connect 59 1 61 1;
#X connect 60 0 61 0;
#X connect 61 0 37 0;
#X connect 62 0 60 1;
#X connect 65 0 68 0;
#X connect 65 1 68 1;
#X connect 65 2 66 0;
#X connect 66 0 70 1;
#X connect 67 0 69 0;
#X connect 68 0 70 0;
#X connect 69 0 96 0;
#X connect 70 0 71 0;
#X connect 71 0 87 0;
#X connect 72 0 69 1;
#X connect 72 0 71 1;
#X connect 72 0 86 1;
#X connect 72 0 100 1;
#X connect 73 0 31 0;
#X connect 73 1 16 1;
#X connect 74 0 81 0;
#X connect 81 0 4 0;
#X connect 81 1 50 0;
#X connect 81 2 43 0;
#X connect 81 3 51 0;
#X connect 81 4 52 0;
#X connect 81 5 53 0;
#X connect 82 0 26 0;
#X connect 82 1 26 1;
#X connect 83 0 84 0;
#X connect 83 1 84 1;
#X connect 83 1 93 0;
#X connect 83 2 90 0;
#X connect 84 0 85 0;
#X connect 85 0 86 0;
#X connect 86 0 88 0;
#X connect 89 0 74 0;
#X connect 90 0 85 1;
#X connect 91 0 94 0;
#X connect 92 0 91 0;
#X connect 97 0 73 0;
#X connect 98 0 82 0;
#X connect 99 0 100 0;
#X connect 100 0 101 0;
#X connect 102 0 99 0;
#X connect 102 1 99 1;
#X connect 103 0 67 0;
#X connect 103 1 67 1;
#X connect 104 0 54 0;
#X connect 104 1 55 0;
#X connect 104 2 56 0;
#X connect 104 3 57 0;
#X connect 104 4 58 0;
#X connect 105 0 59 0;
#X connect 106 0 16 0;
#X restore 743 732 pd controller;
#X obj 672 36 tgl 15 0 play empty Play 17 7 0 10 -262144 -1 -1 1 1
;
#X obj 715 22 bng 15 250 50 0 reset empty reset 17 7 0 10 -262144 -1
-1;
#X floatatom 672 86 5 1 16 1 seqEnd - seqEnd, f 5;
#X floatatom 671 62 5 1 16 1 seqStart - seqStart, f 5;
#X obj 669 185 bng 15 250 50 0 rndAll empty rndAll 17 7 0 10 -262144
-1 -1;
#X obj 669 153 bng 15 250 50 0 rndPitch empty rndPitch 17 7 0 10 -262144
-1 -1;
#X obj 669 169 bng 15 250 50 0 rndVel empty rndVel 17 7 0 10 -262144
-1 -1;
#X obj 669 137 bng 15 250 50 0 rndAct empty rndAct 17 7 0 10 -262144
-1 -1;
#N canvas 47 102 1553 818 clock 0;
#X msg 195 221 248;
#X msg 138 254 252;
#X msg 169 254 250;
#X msg 103 331 1;
#X obj 103 362 +;
#X obj 138 345 int;
#X obj 103 124 tgl 15 0 empty empty empty 17 7 0 10 -262144 -1 -1 1
1;
#X obj 103 309 metro 150;
#X obj 103 394 s clock;
#X obj 272 160 r bpm;
#X obj 126 168 s bpm, f 6;
#X msg 272 224 60000;
#X obj 272 194 t b f;
#X obj 272 256 /;
#X msg 138 278 0;
#X floatatom 126 124 5 0 0 0 - - -, f 5;
#X obj 126 38 loadbang;
#X msg 126 70 110;
#X obj 103 194 t f f;
#X obj 138 221 sel 0 1;
#X obj 194 175 r clock;
#X obj 195 199 t b;
#X obj 195 277 spigot;
#X obj 164 139 tgl 15 0 empty empty send_Clock 17 7 0 10 -262144 -1
-1 0 1;
#X obj 195 315 midiout;
#X obj 191 -8 midirealtimein;
#X obj 191 19 spigot;
#X obj 163 102 tgl 15 0 empty empty receive_Clock 17 7 0 10 -262144
-1 -1 0 1;
#X obj 191 44 sel 248 250 252;
#X obj 272 292 / 24;
#X obj 351 477 dac~;
#X obj 278 365 noise~;
#X obj 366 -7 r clock;
#X obj 366 404 line~;
#X msg 366 224 1;
#X obj 352 434 *~;
#X msg 393 321 0;
#X obj 366 262 t f b;
#X obj 366 364 pack 0 10;
#X obj 366 32 spigot;
#X obj 204 121 tgl 15 0 klick empty klick 17 7 0 10 -262144 -1 -1 0
1;
#X obj 438 15 r klick;
#X obj 366 76 mod 96;
#X obj 366 105 / 24;
#X obj 366 135 int;
#X obj 366 165 change;
#X obj 279 403 bp~ 2500 5;
#X obj 393 293 delay 10;
#X connect 0 0 22 0;
#X connect 1 0 14 0;
#X connect 1 0 22 0;
#X connect 2 0 22 0;
#X connect 3 0 4 0;
#X connect 4 0 5 0;
#X connect 4 0 8 0;
#X connect 5 0 4 1;
#X connect 6 0 18 0;
#X connect 7 0 3 0;
#X connect 9 0 12 0;
#X connect 11 0 13 0;
#X connect 12 0 11 0;
#X connect 12 1 13 1;
#X connect 13 0 29 0;
#X connect 14 0 5 0;
#X connect 15 0 10 0;
#X connect 16 0 17 0;
#X connect 17 0 15 0;
#X connect 18 0 7 0;
#X connect 18 1 19 0;
#X connect 19 0 1 0;
#X connect 19 1 2 0;
#X connect 20 0 21 0;
#X connect 21 0 0 0;
#X connect 22 0 24 0;
#X connect 23 0 22 1;
#X connect 25 0 26 0;
#X connect 26 0 28 0;
#X connect 27 0 26 1;
#X connect 28 0 3 0;
#X connect 28 1 2 0;
#X connect 28 2 1 0;
#X connect 29 0 7 1;
#X connect 31 0 46 0;
#X connect 32 0 39 0;
#X connect 33 0 35 1;
#X connect 34 0 37 0;
#X connect 35 0 30 0;
#X connect 35 0 30 1;
#X connect 36 0 38 0;
#X connect 37 0 38 0;
#X connect 37 1 47 0;
#X connect 38 0 33 0;
#X connect 39 0 42 0;
#X connect 41 0 39 1;
#X connect 42 0 43 0;
#X connect 43 0 44 0;
#X connect 44 0 45 0;
#X connect 45 0 34 0;
#X connect 46 0 35 0;
#X connect 47 0 36 0;
#X coords 0 -1 1 1 160 60 1 100 100;
#X restore 748 135 pd clock;
#X msg 853 -47 16;
#X msg 673 11 1;
#X msg 666 -36 1;
#X msg 667 -13 16;
#X obj 753 -12 t b;
#X obj 749 -94 loadbang;
#X obj 778 -27 bng 15 250 50 0 empty empty empty 17 7 0 10 -262144
-1 -1;
#N canvas 44 89 1553 808 Preset 0;
#X obj 129 133 bng 15 250 50 0 empty empty empty 17 7 0 10 -262144
-1 -1;
#X obj 108 133 bng 15 250 50 0 empty empty empty 17 7 0 10 -262144
-1 -1;
#X obj 106 105 hradio 20 1 0 4 empty empty empty 0 -8 0 10 -262144
-1 -1 3;
#X obj 170 133 bng 15 250 50 0 empty empty empty 17 7 0 10 -262144
-1 -1;
#X obj 149 133 bng 15 250 50 0 empty empty empty 17 7 0 10 -262144
-1 -1;
#X obj 13 125 + 1;
#X msg 108 166 1;
#X msg 140 165 2;
#X msg 175 166 3;
#X msg 207 165 4;
#X obj 108 199 s writeSeqP;
#X obj 13 151 s readSeqP;
#X obj 111 46 unpack;
#X obj 111 21 r channel0-1;
#X obj 111 71 - 1;
#X connect 0 0 7 0;
#X connect 1 0 6 0;
#X connect 2 0 5 0;
#X connect 3 0 9 0;
#X connect 4 0 8 0;
#X connect 5 0 11 0;
#X connect 6 0 10 0;
#X connect 7 0 10 0;
#X connect 8 0 10 0;
#X connect 9 0 10 0;
#X connect 12 0 14 0;
#X connect 13 0 12 0;
#X connect 14 0 2 0;
#X coords 0 -1 1 1 100 60 2 100 100;
#X restore 722 408 pd Preset;
#X floatatom 765 26 3 0 0 3 sLen - stepLen, f 3;
#X obj 789 25 bng 15 250 50 0 empty empty /1 17 7 0 10 -262144 -1 -1
;
#X msg 926 55 1;
#X obj 829 25 bng 15 250 50 0 empty empty /2 17 7 0 10 -262144 -1 -1
;
#X obj 789 41 bng 15 250 50 0 empty empty /3 17 7 0 10 -262144 -1 -1
;
#X obj 829 41 bng 15 250 50 0 empty empty /4 17 7 0 10 -262144 -1 -1
;
#X obj 789 57 bng 15 250 50 0 empty empty /6 17 7 0 10 -262144 -1 -1
;
#X obj 829 56 bng 15 250 50 0 empty empty /8 17 7 0 10 -262144 -1 -1
;
#X obj 789 72 bng 15 250 50 0 empty empty /12 17 7 0 10 -262144 -1
-1;
#X obj 829 72 bng 15 250 50 0 empty empty /16 17 7 0 10 -262144 -1
-1;
#X msg 966 54 2;
#X msg 926 79 3;
#X msg 966 79 4;
#X msg 926 101 6;
#X msg 966 102 8;
#X msg 926 122 12;
#X msg 966 124 16;
#X text 4 456 c;
#X text 5 420 d;
#X text 5 383 e;
#X text 5 365 f;
#X text 5 329 g;
#X text 5 294 a;
#X text 4 258 b;
#X text 3 239 c;
#X text 4 203 d;
#X text 4 166 e;
#X text 4 148 f;
#X text 4 112 g;
#X text 4 77 a;
#X text 3 41 b;
#X obj 659 213 r clock;
#X obj 659 270 int;
#X obj 659 243 / 8;
#X obj 839 543 seqPanel 1 1;
#X msg 538 690 \; seq-1-1 seqEnd 16;
#X msg 571 493 2;
#X msg 612 495 1;
#X msg 536 451 \; seq-1-1 rnd pitch;
#X obj 19 643 seqchannel \$1 3 \$2 18 0 40;
#X msg 569 529 \; seq-1-\$1 play 1 \; seq-1-\$1 timeSig 1 \; seq-1-\$1
seqEnd 16;
#X obj 19 556 seqchannel \$1 2 \$2 18 3 0;
#X obj 19 13 seqchannel \$1 1 \$2 18 25 60;
#X obj 19 716 seqchannel \$1 4 \$2 18 0 40;
#X obj 19 787 seqchannel \$1 5 \$2 18 0 40;
#X obj 653 300 seqchannel 0 1 16 18 4 0;
#X connect 11 0 19 0;
#X connect 12 0 2 0;
#X connect 13 0 5 0;
#X connect 14 0 4 0;
#X connect 15 0 11 0;
#X connect 15 0 12 0;
#X connect 15 0 3 0;
#X connect 15 0 13 0;
#X connect 15 0 14 0;
#X connect 16 0 15 0;
#X connect 17 0 15 0;
#X connect 20 0 21 0;
#X connect 21 0 19 0;
#X connect 22 0 29 0;
#X connect 23 0 30 0;
#X connect 24 0 31 0;
#X connect 25 0 32 0;
#X connect 26 0 33 0;
#X connect 27 0 34 0;
#X connect 28 0 35 0;
#X connect 29 0 19 0;
#X connect 30 0 19 0;
#X connect 31 0 19 0;
#X connect 32 0 19 0;
#X connect 33 0 19 0;
#X connect 34 0 19 0;
#X connect 35 0 19 0;
#X connect 50 0 52 0;
#X connect 51 0 64 0;
#X connect 52 0 51 0;
#X connect 55 0 59 0;
#X connect 56 0 59 0;
#X coords 0 -1 1 1 1300 900 1 0 0;
