#N canvas 0 36 1920 993 10;
#N canvas 0 56 1920 993 midi 0;
#X obj 772 257 > 0;
#X obj 772 280 sel 1;
#X obj 772 341 int;
#X obj 772 233 t f f;
#X obj 772 178 int;
#X obj 772 368 / 127;
#X obj 577 152 unpack;
#X obj 772 101 unpack;
#X obj 508 -25 s ctlin;
#X obj 541 -122 == 1;
#X obj 508 -92 spigot;
#X obj 508 -166 ctlin;
#X obj 508 -124 pack;
#X obj 274 -56 spigot;
#X obj 508 -57 spigot;
#X obj 579 -158 r direct_midi;
#X obj 274 -120 notein 1;
#X obj 341 -89 pack;
#X obj 341 -58 spigot;
#X obj 341 -21 s notein2;
#X obj 274 -19 s notein1;
#X obj 408 115 r notein1;
#X obj 351 -120 notein 2;
#X obj 44 36 r ctlin;
#X obj 44 59 unpack;
#X obj 44 107 spigot;
#X obj 728 -156 r notein1;
#X obj 728 -129 unpack;
#X obj 728 -80 int;
#X obj 728 -48 tabwrite midinotes;
#X obj 700 -189 table midinotes;
#X msg 814 -125 \; midinotes resize 127;
#X msg 819 -160 \; midinotes const 0;
#X obj 728 -106 t b f;
#X obj 823 -194 loadbang;
#X obj 273 -208 unpack f f f;
#X obj 273 -181 spigot;
#X obj 273 -158 pack f f f;
#X obj 772 462 s 2ch-1-3;
#X msg 772 432 vel \$1;
#X msg 577 499 pitch \$1;
#X obj 577 531 s 2ch-1-2;
#X msg 577 423 2;
#X obj 602 308 moses 1;
#X obj 602 279 int;
#X msg 611 451 1;
#X msg 641 449 0;
#X obj 772 129 sel 46 47 44;
#X obj 228 -284 r eDrumIn;
#X obj 52 -244 unpack;
#X obj 52 -157 pack;
#X obj 772 312 delay 0;
#X msg 142 -174 127;
#X obj 110 -227 sel 0;
#X msg 110 -174 0;
#X obj 273 -260 r netNote;
#X obj 508 -194 r netCC;
#X msg 772 397 \; kick \$1;
#X obj 783 207 bng 15 250 50 0 empty empty empty 17 7 0 10 #fcfcfc #000000 #000000;
#X obj 772 79 r notein2;
#X text 770 54 Kickup;
#X obj 577 113 r notein2;
#X text 574 86 Pick;
#X obj 52 -131 s notein1;
#X obj 44 138 t f b;
#X obj 77 83 == 20;
#X obj 131 35 r ctlin;
#X obj 131 58 unpack;
#X obj 131 106 spigot;
#X obj 131 189 ctlout;
#X obj 131 137 t f b;
#X floatatom 192 62 5 0 0 0 - - - 0;
#X msg 158 161 11;
#X obj 233 35 r ctlin;
#X obj 233 58 unpack;
#X obj 233 106 spigot;
#X obj 233 189 ctlout;
#X obj 233 137 t f b;
#X floatatom 294 62 5 0 0 0 - - - 0;
#X obj 164 82 == 21;
#X msg 260 161 12;
#X obj 44 225 r ctlin;
#X obj 44 248 unpack;
#X obj 44 296 spigot;
#X obj 44 379 ctlout;
#X obj 44 327 t f b;
#X obj 131 224 r ctlin;
#X obj 131 247 unpack;
#X obj 131 295 spigot;
#X obj 131 378 ctlout;
#X obj 131 326 t f b;
#X floatatom 192 251 5 0 0 0 - - - 0;
#X obj 233 224 r ctlin;
#X obj 233 247 unpack;
#X obj 233 295 spigot;
#X obj 233 378 ctlout;
#X obj 233 326 t f b;
#X floatatom 294 251 5 0 0 0 - - - 0;
#X msg 71 351 13;
#X msg 158 350 14;
#X msg 260 350 15;
#X obj 46 -12 ctlout;
#X obj 46 -64 t f b;
#X msg 73 -40 14;
#X msg 46 -88 0;
#X obj 46 -110 r loadbang;
#X obj 189 -88 r extnote;
#X obj 408 255 noteout;
#X obj 273 -85 pack;
#X obj 266 82 == 6;
#X obj 77 272 == 7;
#X floatatom 15 278 5 0 0 0 - - - 0;
#X obj 164 271 == 2;
#X obj 266 271 == 3;
#X obj 44 422 r ctlin;
#X obj 44 445 unpack;
#X obj 44 493 spigot;
#X obj 44 576 ctlout;
#X obj 44 524 t f b;
#X floatatom 105 449 5 0 0 0 - - - 0;
#X obj 77 469 == 2;
#X msg 71 548 17;
#X obj 342 -182 == 1;
#X obj 378 -207 unpack f f f;
#X obj 378 -180 spigot;
#X obj 378 -157 pack f f f;
#X obj 1026 -194 r netNote;
#X obj 447 -181 == 2;
#X obj 408 149 unpack f f f;
#X floatatom 535 196 5 0 0 0 - - - 0;
#X msg 523 386 \; pick pick;
#X obj 577 189 sel 44 45 46;
#X obj 408 213 pack f f 1;
#X obj 1026 -162 noteout;
#X obj 408 181 - 12;
#X msg 641 334 \; pick mute;
#X msg 602 374 \; pick unmute;
#X obj 546 307 moses 1;
#X obj 546 278 int;
#X obj 44 190 ctlout 3 8;
#X connect 0 0 1 0;
#X connect 1 0 51 0;
#X connect 2 0 5 0;
#X connect 3 0 0 0;
#X connect 3 1 2 1;
#X connect 4 0 3 0;
#X connect 4 0 58 0;
#X connect 5 0 57 0;
#X connect 5 0 39 0;
#X connect 6 0 131 0;
#X connect 6 0 129 0;
#X connect 6 1 44 1;
#X connect 6 1 138 1;
#X connect 7 0 47 0;
#X connect 7 1 4 1;
#X connect 9 0 10 1;
#X connect 10 0 14 0;
#X connect 11 0 12 0;
#X connect 11 1 12 1;
#X connect 11 2 9 0;
#X connect 12 0 10 0;
#X connect 13 0 20 0;
#X connect 14 0 8 0;
#X connect 15 0 13 1;
#X connect 15 0 14 1;
#X connect 15 0 18 1;
#X connect 16 0 108 0;
#X connect 16 1 108 1;
#X connect 17 0 18 0;
#X connect 18 0 19 0;
#X connect 21 0 128 0;
#X connect 22 0 17 0;
#X connect 22 1 17 1;
#X connect 23 0 24 0;
#X connect 24 0 25 0;
#X connect 24 1 65 0;
#X connect 25 0 64 0;
#X connect 26 0 27 0;
#X connect 27 0 33 0;
#X connect 27 1 28 1;
#X connect 28 0 29 0;
#X connect 33 0 28 0;
#X connect 33 1 29 1;
#X connect 34 0 32 0;
#X connect 34 0 31 0;
#X connect 35 0 36 0;
#X connect 35 1 37 1;
#X connect 35 2 37 2;
#X connect 35 2 122 0;
#X connect 36 0 37 0;
#X connect 37 0 13 0;
#X connect 39 0 38 0;
#X connect 40 0 41 0;
#X connect 42 0 40 0;
#X connect 43 0 136 0;
#X connect 43 1 135 0;
#X connect 44 0 43 0;
#X connect 45 0 40 0;
#X connect 46 0 40 0;
#X connect 47 1 4 0;
#X connect 47 2 4 0;
#X connect 48 0 35 0;
#X connect 49 0 50 0;
#X connect 49 1 53 0;
#X connect 50 0 63 0;
#X connect 51 0 2 0;
#X connect 52 0 50 1;
#X connect 53 0 54 0;
#X connect 53 1 52 0;
#X connect 54 0 50 1;
#X connect 56 0 8 0;
#X connect 59 0 7 0;
#X connect 61 0 6 0;
#X connect 64 0 139 0;
#X connect 65 0 25 1;
#X connect 66 0 67 0;
#X connect 67 0 68 0;
#X connect 67 1 71 0;
#X connect 67 1 79 0;
#X connect 68 0 70 0;
#X connect 70 0 69 0;
#X connect 70 1 72 0;
#X connect 72 0 69 1;
#X connect 73 0 74 0;
#X connect 74 0 75 0;
#X connect 74 1 78 0;
#X connect 74 1 109 0;
#X connect 75 0 77 0;
#X connect 77 0 76 0;
#X connect 77 1 80 0;
#X connect 79 0 68 1;
#X connect 80 0 76 1;
#X connect 81 0 82 0;
#X connect 82 0 83 0;
#X connect 82 0 111 0;
#X connect 82 1 110 0;
#X connect 83 0 85 0;
#X connect 85 0 84 0;
#X connect 85 1 98 0;
#X connect 86 0 87 0;
#X connect 87 0 88 0;
#X connect 87 1 91 0;
#X connect 87 1 112 0;
#X connect 88 0 90 0;
#X connect 90 1 99 0;
#X connect 92 0 93 0;
#X connect 93 0 94 0;
#X connect 93 1 97 0;
#X connect 93 1 113 0;
#X connect 94 0 96 0;
#X connect 96 1 100 0;
#X connect 98 0 84 1;
#X connect 99 0 89 1;
#X connect 100 0 95 1;
#X connect 102 0 101 0;
#X connect 102 1 103 0;
#X connect 103 0 101 1;
#X connect 104 0 102 0;
#X connect 105 0 104 0;
#X connect 106 0 20 0;
#X connect 108 0 13 0;
#X connect 109 0 75 1;
#X connect 110 0 83 1;
#X connect 112 0 88 1;
#X connect 113 0 94 1;
#X connect 114 0 115 0;
#X connect 115 0 116 0;
#X connect 115 1 119 0;
#X connect 115 1 120 0;
#X connect 116 0 118 0;
#X connect 118 0 117 0;
#X connect 118 1 121 0;
#X connect 120 0 116 1;
#X connect 121 0 117 1;
#X connect 122 0 36 1;
#X connect 123 0 124 0;
#X connect 123 1 125 1;
#X connect 123 2 125 2;
#X connect 123 2 127 0;
#X connect 124 0 125 0;
#X connect 125 0 18 0;
#X connect 126 0 133 0;
#X connect 127 0 124 1;
#X connect 128 0 134 0;
#X connect 128 1 132 1;
#X connect 130 0 42 0;
#X connect 131 1 44 0;
#X connect 131 2 138 0;
#X connect 132 0 107 0;
#X connect 134 0 132 0;
#X connect 135 0 46 0;
#X connect 136 0 45 0;
#X connect 137 1 130 0;
#X connect 138 0 137 0;
#X restore 244 124 pd midi;
#X obj 415 199 s seq_edit;
#X msg 416 165 1;
#X msg 445 166 0;
#X obj 503 134 loadbang;
#X msg 503 162 1;
#X msg 532 163 0;
#X obj 502 196 s direct_midi;
#X obj 100 100 bng 40 250 50 0 empty empty home 7 20 0 12 #dcdcdc #000000 #000000;
#X obj 100 174 pack f 100;
#N canvas 964 148 1920 993 SeqChannelOutRouting 0;
#X obj 375 153 unpack;
#X obj 375 115 r channel1-2;
#X msg 412 320 unmute;
#X obj 538 156 unpack;
#X obj 538 118 r channel1-3;
#X obj 375 264 sel 0 1 2;
#X obj 571 248 sel -1;
#X obj 414 182 >= 0;
#X obj 375 217 spigot;
#X obj 439 235 sel -1;
#X obj 206 151 unpack;
#X obj 206 113 r channel1-1;
#X obj 246 272 moses;
#X obj 199 437 pack;
#X obj 272 325 int;
#X obj 186 332 spigot;
#X msg 242 304 0;
#X msg 209 305 1;
#X obj 232 197 moses 40;
#X obj 14 100 r ghRoot;
#X obj 14 188 makenote 127 500;
#X obj 14 250 mod 12;
#X obj 14 153 spigot;
#X obj 96 116 r ghInput;
#X obj 186 277 +;
#X obj 96 144 t f f;
#X obj 375 355 s pick;
#X obj 604 284 s kick;
#X obj 140 281 +, f 4;
#X msg 123 328 \$1 110;
#X obj 631 238 bng 15 250 50 0 empty empty empty 17 7 0 10 #fcfcfc #000000 #000000;
#X msg 24 47 60;
#X obj 695 160 unpack;
#X obj 728 252 sel -1;
#X obj 788 242 bng 15 250 50 0 empty empty empty 17 7 0 10 #fcfcfc #000000 #000000;
#X obj 695 122 r channel1-4;
#X obj 761 288 s damp;
#X obj 14 390 noteout 8;
#X obj 188 485 noteout 8;
#X obj 207 244 + 26;
#X obj 279 300 * 100;
#X msg 377 323 pick;
#X msg 467 324 mute;
#X obj 14 287 + 26;
#X obj 13 219 + 2;
#X connect 0 0 8 0;
#X connect 0 0 9 0;
#X connect 0 1 7 0;
#X connect 1 0 0 0;
#X connect 2 0 26 0;
#X connect 3 1 6 0;
#X connect 4 0 3 0;
#X connect 5 0 41 0;
#X connect 5 1 2 0;
#X connect 5 2 42 0;
#X connect 6 1 27 0;
#X connect 7 0 8 1;
#X connect 8 0 5 0;
#X connect 9 0 2 0;
#X connect 10 0 18 0;
#X connect 10 1 12 0;
#X connect 11 0 10 0;
#X connect 12 0 16 0;
#X connect 12 1 17 0;
#X connect 12 1 40 0;
#X connect 13 0 38 0;
#X connect 14 0 13 1;
#X connect 15 0 13 0;
#X connect 16 0 15 1;
#X connect 17 0 15 1;
#X connect 18 0 39 0;
#X connect 19 0 22 0;
#X connect 20 0 44 0;
#X connect 20 1 37 1;
#X connect 21 0 43 0;
#X connect 22 0 20 0;
#X connect 23 0 25 0;
#X connect 24 0 15 0;
#X connect 25 1 22 1;
#X connect 28 0 29 0;
#X connect 29 0 38 0;
#X connect 30 0 27 0;
#X connect 31 0 22 0;
#X connect 32 1 33 0;
#X connect 33 1 36 0;
#X connect 34 0 36 0;
#X connect 35 0 32 0;
#X connect 39 0 24 0;
#X connect 39 0 28 1;
#X connect 40 0 14 0;
#X connect 41 0 26 0;
#X connect 42 0 26 0;
#X connect 43 0 37 0;
#X connect 44 0 21 0;
#X restore 243 148 pd SeqChannelOutRouting;
#N canvas 54 111 1920 993 actions 1;
#X obj 30 38 r pick;
#X obj 203 44 r kick;
#X obj 203 102 clip 0 1;
#X obj 247 125 -;
#X obj 269 60 t b b;
#X floatatom 247 166 5 0 0 0 - - - 0;
#X obj 203 171 +;
#X obj 203 142 *;
#X text 310 82 upper limit;
#X text 326 107 lower limit;
#X obj 269 36 loadbang;
#X obj 203 201 int;
#X msg 296 108 20;
#X msg 269 84 127;
#X obj 31 73 route pick mute unmute;
#X obj 60 249 tgl 15 0 empty empty stepOnOff 17 7 0 10 #fcfcfc #000000 #000000 0 1;
#X msg 60 332 22 100;
#X msg 105 331 21 100;
#X obj 60 282 sel 1 0;
#X obj 59 372 noteout 2;
#X obj 203 283 noteout 8;
#X obj 52 164 noteout 8;
#X obj 424 125 clip 0 1;
#X obj 468 148 -;
#X obj 490 83 t b b;
#X floatatom 468 189 5 0 0 0 - - - 0;
#X obj 424 194 +;
#X obj 424 165 *;
#X text 531 105 upper limit;
#X text 547 130 lower limit;
#X obj 490 59 loadbang;
#X obj 424 224 int;
#X msg 517 131 0;
#X obj 424 67 r damp;
#X obj 424 262 ctlout 3 8;
#X msg 491 105 64;
#X msg 203 234 0 \$1;
#X msg 20 105 1 100;
#X msg 110 123 2 100;
#X msg 70 125 2 1;
#X connect 0 0 14 0;
#X connect 1 0 2 0;
#X connect 2 0 7 0;
#X connect 3 0 5 0;
#X connect 3 0 7 1;
#X connect 4 0 13 0;
#X connect 4 1 12 0;
#X connect 6 0 11 0;
#X connect 7 0 6 0;
#X connect 10 0 4 0;
#X connect 11 0 36 0;
#X connect 12 0 3 1;
#X connect 12 0 6 1;
#X connect 13 0 3 0;
#X connect 14 0 37 0;
#X connect 14 1 39 0;
#X connect 14 2 38 0;
#X connect 15 0 18 0;
#X connect 16 0 19 0;
#X connect 17 0 19 0;
#X connect 18 0 16 0;
#X connect 18 1 17 0;
#X connect 22 0 27 0;
#X connect 23 0 25 0;
#X connect 23 0 27 1;
#X connect 24 0 35 0;
#X connect 24 1 32 0;
#X connect 26 0 31 0;
#X connect 27 0 26 0;
#X connect 30 0 24 0;
#X connect 31 0 34 0;
#X connect 32 0 23 1;
#X connect 32 0 26 1;
#X connect 33 0 22 0;
#X connect 35 0 23 0;
#X connect 36 0 20 0;
#X connect 37 0 21 0;
#X connect 38 0 21 0;
#X connect 39 0 21 0;
#X restore 243 169 pd actions;
#X floatatom 468 238 5 0 0 0 - - - 0;
#X obj 100 200 noteout 8;
#X msg 100 151 9;
#X connect 2 0 1 0;
#X connect 3 0 1 0;
#X connect 4 0 5 0;
#X connect 5 0 7 0;
#X connect 6 0 7 0;
#X connect 8 0 14 0;
#X connect 9 0 13 0;
#X connect 14 0 9 0;
#X coords 0 -1 1 1 40 40 2 100 100;
