#N canvas 388 395 1009 507 10;
#X obj 110 -2 inlet;
#X obj 249 13 inlet;
#X obj 250 38 == \$1;
#X obj 346 62 table fretPress-\$1;
#X obj 348 99 table fretRel-\$1;
#X obj 110 102 spigot;
#X obj 110 55 t f f;
#X obj 149 82 expr $f1 >= \$2 && $f1 <= \$3;
#X obj 110 129 - \$2;
#X obj 347 26 table fretID-\$1;
#X obj 110 322 tabread fretID-\$1;
#X obj 246 322 tabread fretPress-\$1;
#X obj 110 357 pack;
#X obj 424 173 int;
#X obj 453 338 tabread fretID-\$1;
#X obj 453 308 t f f f;
#X obj 589 338 tabread fretRel-\$1;
#X obj 461 373 pack;
#X obj 110 292 t f f;
#X obj 110 186 sel 0;
#X obj 110 207 - 1;
#X obj 422 202 sel 0;
#X obj 454 282 - 1;
#X obj 227 215 expr 204 - \$1;
#X obj 110 156 t f f b b;
#X obj 227 243 pack f 1;
#X obj 227 282 s 2actuators;
#X obj 227 184 delay \$4;
#X obj 533 201 until;
#X obj 533 230 int;
#X obj 567 230 + 1;
#X obj 533 173 t b f b b;
#X msg 533 147 4;
#X obj 533 118 loadbang;
#X msg 577 202 0;
#X obj 617 106 r allFretsOff;
#X obj -18 227 until;
#X obj -18 256 int;
#X obj 16 256 + 1;
#X obj -18 199 t b f b b;
#X msg -18 173 4;
#X msg 26 228 0;
#X obj -19 119 r allFretsOn;
#X obj 110 387 outlet;
#X obj 617 131 sel \$1;
#X obj -19 145 sel \$1;
#X connect 0 0 6 0;
#X connect 1 0 2 0;
#X connect 5 0 8 0;
#X connect 6 0 5 0;
#X connect 6 1 7 0;
#X connect 7 0 5 1;
#X connect 8 0 24 0;
#X connect 10 0 12 0;
#X connect 11 0 12 1;
#X connect 12 0 43 0;
#X connect 13 0 21 0;
#X connect 14 0 17 0;
#X connect 15 0 14 0;
#X connect 15 1 16 0;
#X connect 16 0 17 1;
#X connect 17 0 43 0;
#X connect 18 0 10 0;
#X connect 18 1 11 0;
#X connect 19 1 20 0;
#X connect 20 0 18 0;
#X connect 21 1 22 0;
#X connect 22 0 15 0;
#X connect 23 0 25 0;
#X connect 24 0 19 0;
#X connect 24 1 13 1;
#X connect 24 2 13 0;
#X connect 24 3 27 0;
#X connect 25 0 26 0;
#X connect 28 0 29 0;
#X connect 29 0 30 0;
#X connect 29 0 15 0;
#X connect 30 0 29 1;
#X connect 31 1 28 0;
#X connect 31 2 34 0;
#X connect 32 0 31 0;
#X connect 33 0 32 0;
#X connect 34 0 29 1;
#X connect 35 0 44 0;
#X connect 36 0 37 0;
#X connect 37 0 38 0;
#X connect 37 0 18 0;
#X connect 38 0 37 1;
#X connect 39 1 36 0;
#X connect 39 2 41 0;
#X connect 40 0 39 0;
#X connect 41 0 37 1;
#X connect 42 0 45 0;
#X connect 44 0 32 0;
#X connect 45 0 40 0;
