#N canvas 737 63 958 978 10;
#X obj 111 71 comport 1 115200;
#X msg 237 37 devices;
#X msg 48 -32 2;
#X msg 64 53 203;
#X obj 335 113 comport 1 115200;
#X msg 462 49 devices;
#X msg 287 111 81;
#X msg 273 148 90;
#X msg 289 65 222 81;
#X obj 240 -57 shell;
#X obj 220 -127 bng 15 250 50 0 empty empty empty 17 7 0 10 -262144
-1 -1;
#X obj 226 -107 t b;
#X obj 280 -134 loadbang;
#X msg 237 -85 jpnevulator --tty /dev/ttyUSB0;
#X obj 443 -59 shell;
#X msg 440 -87 jpnevulator --tty /dev/ttyUSB1;
#N canvas 168 204 819 660 pitchdetect 0;
#X msg 31 431 \; pd dsp 1;
#X msg 31 473 \; pd dsp 0;
#X obj 31 405 loadbang;
#N canvas 675 50 263 214 filters 0;
#X obj 47 41 inlet~;
#X obj 47 176 outlet~;
#X text 103 79 DC filter;
#X text 140 140 sibilant filter;
#X obj 125 41 inlet;
#X text 165 40 freq;
#X obj 47 80 hip~ 160;
#X obj 47 140 lp6_cheb~ 3000;
#X connect 0 0 6 0;
#X connect 4 0 7 1;
#X connect 6 0 7 0;
#X connect 7 0 1 0;
#X restore 53 60 pd filters;
#X obj 110 33 nbx 4 14 1000 3000 1 1 empty empty empty 0 -8 0 10 -262144
-1 -1 3000 256;
#X text 109 16 lo pass filter freq;
#X obj 31 33 +~;
#N canvas 569 73 331 239 synthesis 0;
#X obj 28 27 inlet;
#X obj 124 158 line~;
#X obj 28 149 osc~;
#X obj 28 109 line~;
#X obj 28 176 *~;
#X obj 28 210 outlet~;
#X msg 28 78 \$1 2;
#X obj 124 23 adc~;
#X obj 124 51 +~;
#X floatatom 227 55 5 0 0 0 - - -;
#X obj 217 22 r \$0-framesize;
#X msg 124 129 \$1 5;
#X connect 0 0 6 0;
#X connect 1 0 4 1;
#X connect 2 0 4 0;
#X connect 3 0 2 0;
#X connect 4 0 5 0;
#X connect 6 0 3 0;
#X connect 7 0 8 0;
#X connect 7 1 8 1;
#X connect 10 0 9 0;
#X connect 11 0 1 0;
#X restore 102 308 pd synthesis;
#N canvas 294 158 657 401 scope 0;
#X obj 38 21 inlet~;
#X obj 139 131 sel 0;
#X msg 139 48 1;
#X obj 139 77 +;
#X obj 92 326 tabwrite~ \$0-snac;
#X obj 139 293 delay;
#X obj 349 133 samplerate~;
#X obj 349 84 loadbang;
#X obj 359 112 bng 15 250 50 0 empty empty empty 17 7 0 10 -262144
-1 -1;
#X obj 349 157 t b f;
#X obj 349 206 /;
#X msg 349 182 1;
#X obj 238 223 *;
#X floatatom 238 256 10 0 0 0 - - -;
#X obj 166 268 * 1000;
#X obj 238 195 - 32;
#X obj 238 24 r \$0-framesize;
#X obj 257 147 loadbang;
#X msg 257 54 resize \$1;
#X obj 257 109 s \$0-snac;
#X obj 265 82 s \$0-signal;
#X obj 92 22 inlet~;
#X obj 38 350 tabwrite~ \$0-signal;
#X obj 139 22 inlet;
#N canvas 71 301 316 324 pointer 0;
#X obj 36 20 inlet;
#X obj 166 22 inlet;
#X obj 101 21 inlet;
#X obj 86 76 f;
#X obj 166 99 samplerate~;
#X obj 166 130 /;
#X floatatom 166 158 5 0 0 0 - - -;
#X obj 86 171 /;
#X obj 166 73 t b f;
#X obj 86 147 f;
#X obj 86 99 t b f;
#X obj 224 21 loadbang;
#X msg 224 49 1024;
#X obj 86 262 s \$0-pitchcanvas;
#X obj 86 207 * 400;
#X msg 86 235 vis_size \$1 20;
#X connect 0 0 3 0;
#X connect 1 0 8 0;
#X connect 2 0 3 1;
#X connect 3 0 10 0;
#X connect 4 0 5 0;
#X connect 5 0 6 0;
#X connect 5 0 9 1;
#X connect 7 0 14 0;
#X connect 8 0 4 0;
#X connect 8 1 5 1;
#X connect 9 0 7 0;
#X connect 10 0 9 0;
#X connect 10 1 7 1;
#X connect 11 0 12 0;
#X connect 12 0 8 0;
#X connect 14 0 15 0;
#X connect 15 0 13 0;
#X restore 162 209 pd pointer;
#X msg 257 171 1024;
#X obj 139 105 & 7;
#X connect 1 0 5 0;
#X connect 2 0 3 0;
#X connect 3 0 26 0;
#X connect 5 0 4 0;
#X connect 5 0 22 0;
#X connect 5 0 24 0;
#X connect 6 0 9 0;
#X connect 7 0 6 0;
#X connect 8 0 6 0;
#X connect 9 0 11 0;
#X connect 9 1 10 1;
#X connect 10 0 12 1;
#X connect 11 0 10 0;
#X connect 12 0 13 0;
#X connect 12 0 14 0;
#X connect 14 0 5 1;
#X connect 15 0 12 0;
#X connect 16 0 18 0;
#X connect 16 0 15 0;
#X connect 16 0 24 2;
#X connect 17 0 25 0;
#X connect 18 0 19 0;
#X connect 18 0 20 0;
#X connect 21 0 4 0;
#X connect 23 0 2 0;
#X connect 23 0 24 1;
#X connect 25 0 15 0;
#X connect 26 0 3 1;
#X connect 26 0 1 0;
#X restore 31 249 pd scope;
#N canvas 0 50 450 300 (subpatch) 0;
#X array \$0-signal 1024 float 0;
#X coords 0 1 1023 -1 400 140 1;
#X restore 291 -17 graph;
#X floatatom 153 269 5 0 0 0 - - -;
#X floatatom 152 244 5 0 0 0 - - -;
#X text 190 244 fidelity;
#N canvas 294 50 667 661 user-parameters 0;
#X obj 45 167 vradio 15 1 1 4 empty empty empty 0 -8 0 10 -262144 -260097
-1 0;
#N canvas 0 50 167 265 overlap 0;
#X obj 29 35 inlet;
#X obj 29 195 outlet;
#X obj 29 130 pow;
#X obj 29 70 t b f;
#X msg 29 102 2;
#X msg 29 162 overlap \$1;
#X connect 0 0 3 0;
#X connect 2 0 5 0;
#X connect 3 0 4 0;
#X connect 3 1 2 1;
#X connect 4 0 2 0;
#X connect 5 0 1 0;
#X restore 45 238 pd overlap;
#N canvas 777 314 284 292 framesize 0;
#X obj 29 14 inlet;
#X obj 29 242 outlet;
#X obj 29 119 pow;
#X obj 29 64 t b f;
#X msg 29 91 2;
#X msg 29 198 framesize \$1;
#X obj 43 173 s \$0-framesize;
#X floatatom 53 144 5 0 0 0 - - -;
#X obj 159 163 samplerate~;
#X obj 159 136 t b f;
#X obj 159 191 /;
#X obj 159 245 outlet;
#X obj 159 219 * 1.2;
#X obj 29 41 + 7;
#X connect 0 0 13 0;
#X connect 2 0 5 0;
#X connect 2 0 6 0;
#X connect 2 0 7 0;
#X connect 2 0 9 0;
#X connect 3 0 4 0;
#X connect 3 1 2 1;
#X connect 4 0 2 0;
#X connect 5 0 1 0;
#X connect 8 0 10 0;
#X connect 9 0 8 0;
#X connect 9 1 10 1;
#X connect 10 0 12 0;
#X connect 12 0 11 0;
#X connect 13 0 3 0;
#X restore 29 88 pd framesize;
#X obj 29 4 vradio 15 1 1 5 empty empty empty 0 -8 0 10 -262144 -260097
-1 3;
#X text 50 19 256;
#X text 50 35 512;
#X text 49 65 2048;
#X text 67 182 2;
#X text 67 214 8;
#X text 67 199 4;
#X obj 29 607 outlet;
#X floatatom 98 118 5 0 0 0 - - -;
#X text 49 50 1024 (default);
#X text 67 166 1 (default);
#X text 292 84 Overlapping analysis frames can be used for a finer
rate of pitch messages. This may be useful in the case of longer analysis
frames. Note that overlap multiplies the object's CPU load.;
#X msg 124 423 bias \$1;
#X obj 127 397 hsl 100 15 0 1 0 0 empty empty empty -2 -8 0 10 -262144
-260097 -1 1980 0;
#X floatatom 182 423 5 0 0 0 - - -;
#X text 287 382 Bias (range 0 - 1) is used to favour the first peaks
found in the SNAC function. If bias is set to a higher level \, you
are more likely to experience upper octave jumps. If bias is set to
a low level \, low octave jumps are more likely to happen. Set bias
according to your input material. For example \, for a sound type with
weak fundamental \, bias is better not set too high. Default is 0.2.
;
#X obj 126 476 hsl 100 15 0 1 0 0 empty empty empty -2 -8 0 10 -262144
-260097 -1 9405 0;
#X floatatom 201 506 5 0 0 0 - - -;
#X msg 123 506 fidelity \$1;
#X text 287 489 Fidelity (range 0 - 1 ) determines the fidelity threshold
required for new pitch information to get through. Fidelity is an indication
of how periodic a sound is (as opposed to noisy \, not periodic). Default
is 0.95.;
#X text 292 -9 Analysis framesize determines the lowest pitch which
can be detected \, corresponding to a period ~1.2 times the framesize.
Framesize also determines latency of the pitch info. Note that reported
pitch is the average pitch of an analysis frame. Framesize is always
a power of two \, because FFT is used for efficiency.;
#X text 93 138 lowest detectable pitch (Hz);
#X obj 127 562 hsl 100 15 0 2000 0 0 empty empty empty -2 -8 0 10 -262144
-260097 -1 4950 0;
#X floatatom 199 591 5 0 0 0 - - -;
#X msg 124 590 maxfreq \$1;
#X text 288 560 Maxfreq is the maximum frequency which will possibly
be reported by [helmholtz~]. Default is 2000 Set it lower if you experience
harmonic interference components such as from cellphones.;
#X text 50 2 128;
#X text 293 188 1 - analysis frame size (128 \, 256 \, 512 \, 1024
or 2048);
#X text 293 210 2 - overlap (1 \, 2 \, 4 or 8);
#X text 292 161 Optional initialisation arguments are:;
#X obj 142 119 outlet;
#X msg 124 372 0.2;
#X msg 123 452 0.95;
#X msg 124 540 1000;
#X obj 61 276 loadbang;
#X obj 127 318 hsl 100 15 0 100 0 0 empty empty empty -2 -8 0 10 -262144
-260097 -1 4950 0;
#X floatatom 182 344 5 0 0 0 - - -;
#X msg 124 344 sens \$1;
#X msg 124 293 50;
#X text 288 305 Sens (sensitivity) determines a minimum sound level
where [helmholtz~] is sensitive for pitch. If your input sound has
a lot of artifacts (hum \, interference \, colored noise) \, set sens
to a higher dB level. Default is 50 dB (pd deciBels).;
#X text 290 261 ++++++++++++++++++++++++++++++++++++++++++++++++++++++++++
;
#X connect 0 0 1 0;
#X connect 1 0 10 0;
#X connect 2 0 10 0;
#X connect 2 1 11 0;
#X connect 2 1 33 0;
#X connect 3 0 2 0;
#X connect 15 0 10 0;
#X connect 16 0 15 0;
#X connect 16 0 17 0;
#X connect 19 0 21 0;
#X connect 19 0 20 0;
#X connect 21 0 10 0;
#X connect 25 0 27 0;
#X connect 25 0 26 0;
#X connect 27 0 10 0;
#X connect 34 0 16 0;
#X connect 35 0 19 0;
#X connect 36 0 25 0;
#X connect 37 0 34 0;
#X connect 37 0 35 0;
#X connect 37 0 36 0;
#X connect 37 0 41 0;
#X connect 38 0 40 0;
#X connect 38 0 39 0;
#X connect 40 0 10 0;
#X connect 41 0 38 0;
#X restore 96 79 pd user-parameters;
#X obj 631 155 cnv 15 59 138 empty empty empty 20 12 0 14 -191407 -66577
0;
#X text 290 498 Katja Vetter Feb 2012;
#X text 289 306 [helmholtz~] is a pitch tracker using the SNAC (Specially
Normalized AutoCorrelation) function developed by Philip McLeod.;
#N canvas 700 55 487 526 helmholtz~ 0;
#X obj 27 479 pddplink http://miracle.otago.ac.nz/tartini/papers/A_Smarter_Way_to_Find_Pitch.pdf
;
#X obj 27 433 pddplink http://miracle.otago.ac.nz/tartini/papers/Philip_McLeod_PhD.pdf
;
#X text 27 33 Pitch estimation with SNAC and parabolic interpolation
is accurate up to ~0.1 Hz.;
#X text 27 77 About 85% of the SNAC function length is useful for analysis.
The right tail 15% is too instable and may trigger false results \,
so this part is set to zero and ignored.;
#X text 26 401 Find Philip McLeod's thesis with detailed description
of the SNAC function:;
#X text 27 461 Find an article on pitch detection by Philip McLeod
here:;
#X text 28 145 With the large part of the function being useful \,
[helmholtz~] can find period lengths from ~1.2 times the analysis frame.
An example: with framelength 1024 and SR 44100 \, the fundamental frequency
of the frame is ~43 Hz \, while [helmholtz~] can find pitch starting
from ~50 Hz.;
#X text 27 228 There is also an upper bound for detection \, caused
by the fact that narrow \, pulse-like waveforms have too little discrete
samples to always describe the actual maximum of a peak. In [helmholtz~]
\, parabolic interpolation is used to find the peak maxima before comparing
them. This way \, pitches up to 2000 Hz can be detected \, provided
they have not too rich harmonics (use a filter otherwise).;
#X text 28 342 The default maximum for pitch reporting by [helmholt~]
is 1000 Hz \, but you can set the maximum at will between 0 and 2000
Hz with message 'maxfreq'.;
#X restore 144 487 pd helmholtz~ info;
#N canvas 0 50 450 300 (subpatch) 0;
#X array \$0-snac 1024 float 0;
#X coords 0 1 1023 -1 400 140 1;
#X restore 291 154 graph;
#X obj 292 215 cnv 15 173 20 empty \$0-pitchcanvas empty 20 12 0 14
-260097 -66577 0;
#X obj 53 217 helmholtz~ 1024 1;
#X text 190 269 pitch;
#X text 289 356 The input signal is in the upper plot \, and the lower
plot shows the SNAC function derived from the signal. [helmholtz~]
tries to pick the principal peak from the SNAC function \, indicating
period length (orange bar) \, from which the fundamental frequency
is computed.;
#X text 27 -14 soundcard;
#X text 289 433 In this patch \, [helmholtz~] finds pitch from soundcard
input and controls an [osc~] frequency \, so you can judge the pitch
estimator's quality by ear.;
#X text 185 118 open me!;
#X floatatom 174 146 5 0 0 0 - - -;
#X text 79 165 lowest detectable pitch (Hz);
#X text 80 184 depends on analysis size;
#X obj 31 5 adc~ 5;
#X obj 43 320 ftom;
#X floatatom 115 129 5 0 0 0 - - -;
#X connect 2 0 0 0;
#X connect 3 0 20 0;
#X connect 4 0 3 1;
#X connect 6 0 3 0;
#X connect 6 0 8 0;
#X connect 13 0 20 0;
#X connect 13 1 26 0;
#X connect 20 0 8 1;
#X connect 20 1 10 0;
#X connect 20 1 8 2;
#X connect 20 1 7 0;
#X connect 20 1 30 0;
#X connect 20 2 11 0;
#X connect 29 0 6 0;
#X connect 30 0 31 0;
#X coords 0 -1 1 1 85 60 1 100 100;
#X restore 750 -84 pd pitchdetect;
#X obj 204 355 notein;
#X floatatom 160 381 5 0 0 0 - - -;
#X obj 220 396 > 0;
#X obj 189 435 spigot;
#X msg 215 511 202 1;
#X msg 150 612 201 1;
#X msg 348 32 close;
#X msg 159 28 close;
#X msg 63 94 204;
#X msg 210 263 203 2;
#X obj 114 -33 loadbang;
#X obj 339 305 route 0;
#X obj 339 412 sel 1;
#X obj 423 304 route 0;
#X obj 423 411 sel 1;
#X obj 508 302 route 0;
#X obj 508 409 sel 1;
#X obj 423 335 > -1;
#X obj 339 336 > -1;
#X obj 512 337 > -1;
#X obj 179 463 sel 54 56 58;
#X obj 304 247 r channel1-1;
#X obj 409 250 r channel1-2;
#X obj 509 254 r channel1-3;
#X symbolatom 353 507 2 0 0 0 - - -;
#X symbolatom 423 507 2 0 0 0 - - -;
#X symbolatom 493 507 2 0 0 0 - - -;
#X obj 552 502 bng 45 250 50 0 empty empty aOff 7 20 0 15 -262144 -1
-1;
#X floatatom 167 101 5 0 0 0 - - -;
#X obj 165 136 pack 0 100;
#X msg 199 218 216 30;
#X msg 174 193 216 140;
#X msg 277 204 219 50;
#X msg 251 178 219 170;
#X obj 1043 -116 notein;
#X obj 467 97 r 2frets;
#X obj 1154 -199 loadbang;
#X obj 216 90 r 2actuators;
#X obj 988 83 sel 49;
#N canvas -9 -9 1920 988 stringChooser 0;
#X obj 399 -605 inlet;
#X obj 0 -98 table fretState;
#X obj 12 -49 table noteOrder;
#X obj 435 -341 tabwrite noteOrder;
#X obj 399 -485 t b f;
#X obj 399 -455 int;
#X obj 443 -472 + 1;
#X obj 337 -403 s nCnt;
#X obj 8 -132 table strOptions;
#X obj 399 -509 t f f;
#X msg 10 -215 \; noteOrder resize 1e+006;
#X obj 10 -160 table strOut;
#X obj 449 141 until;
#X msg 417 58 3;
#X obj 417 -240 r nCnt;
#X obj 449 170 int;
#X msg 494 143 1;
#X obj 449 417 mod 12;
#X obj 655 300 abs;
#X obj 449 248 mod 3;
#X obj 449 272 + 1;
#X obj 481 488 expr $f1 >= 4 * ($f2-1) && $f1 <= 4* $f2;
#X obj 449 467 expr $f1 == 0 && $f2 == 3;
#X obj 449 442 t f f;
#X obj 449 512 sel 1;
#X msg 449 546 1;
#X obj 252 -34 tabread strOut;
#X obj 250 -114 until;
#X msg 253 -167 3;
#X obj 252 -79 int;
#X obj 286 -79 + 1;
#X msg 294 -110 1;
#X obj 452 591 +;
#X obj 483 594 int;
#X msg 491 568 0;
#X obj 483 170 + 1;
#X obj 475 915 tabwrite strOut;
#X obj 11 -75 table flipBuf;
#X obj 607 510 tabwrite flipBuf;
#X obj 537 683 >;
#X obj 452 657 t f f f;
#X obj 475 700 spigot;
#X obj 475 802 until;
#X msg 475 749 3;
#X obj 475 831 int;
#X msg 522 802 1;
#X obj 475 774 t f b b;
#X obj 509 831 + 1;
#X obj 475 860 t f f;
#X obj 475 887 tabread flipBuf;
#X msg 555 655 0;
#X obj 449 113 t f b b b;
#X obj 417 -48 until;
#X msg 417 -101 3;
#X obj 417 -20 int;
#X obj 451 -20 + 1;
#X obj 417 -76 t f b b b;
#X obj 399 -209 int;
#X obj 449 226 + 0;
#X obj 417 32 t f f;
#X msg 462 -46 2;
#X obj 475 722 t f f;
#X obj 417 88 t b f;
#X obj 434 625 int;
#X obj 252 -55 t f f;
#X obj 252 96 list prepend;
#X obj 252 128 list;
#X obj 212 159 outlet;
#X obj 212 113 list;
#X obj 252 -7 mod 12;
#X obj 399 -312 mod 3;
#X obj 399 -279 sel 2;
#X obj 625 -376 int;
#X obj 659 -376 + 1;
#X obj 605 -432 t f b b b;
#X obj 605 -486 tgl 15 0 empty empty empty 17 7 0 10 -262144 -1 -1
1 1;
#X msg 657 -403 0;
#X obj 15 -254 loadbang;
#X obj 399 -341 -;
#X obj 417 -387 int;
#X obj 399 -420 t f f f b;
#X obj 605 -460 metro 1000;
#X obj 417 -364 + 1;
#X obj 605 -512 loadbang;
#X obj 625 -346 sel 1;
#X obj 773 137 tabread noteOrder;
#X obj 773 17 until;
#X obj 773 46 int;
#X msg 817 18 1;
#X obj 807 46 + 1;
#X obj 720 95 r nCnt;
#X msg 772 -39 3;
#X obj 773 112 -;
#X obj 773 79 t b f;
#X obj 20 -26 table noteSort;
#X obj 773 330 tabwrite noteSort;
#X obj 796 276 int;
#X obj 773 164 t f f f;
#X obj 796 251 sel 1;
#X msg 889 2 128;
#X obj 796 225 expr $f1 < $f2 && $f1 > $f3;
#X obj 772 -15 t b f b b;
#X msg 982 162 0;
#X obj 773 304 int;
#X obj 772 -122 until;
#X obj 772 -93 int;
#X msg 816 -121 1;
#X obj 821 -76 + 1;
#X msg 772 -167 3;
#X obj 772 -145 t b f b b;
#X obj 772 -63 t b f;
#X obj 449 306 tabread noteSort;
#X obj 399 -184 t b b f b b;
#X obj 655 218 - 0;
#X obj 253 -142 t b f b b;
#X obj 449 200 t f f;
#X obj 275 44 v root;
#X obj 252 21 t f b f;
#X obj 252 68 + 48;
#X obj 449 331 t f f;
#X obj 399 -538 -;
#X obj 422 -560 v root;
#X obj 399 -583 t f b f;
#X floatatom 499 -217 5 0 0 0 - - -;
#X floatatom 459 -307 5 0 0 0 - - -;
#X connect 0 0 122 0;
#X connect 4 0 5 0;
#X connect 4 1 3 0;
#X connect 5 0 6 0;
#X connect 5 0 80 0;
#X connect 6 0 5 1;
#X connect 9 0 4 0;
#X connect 12 0 15 0;
#X connect 13 0 62 0;
#X connect 14 0 57 1;
#X connect 14 0 123 0;
#X connect 15 0 35 0;
#X connect 15 0 115 0;
#X connect 16 0 15 1;
#X connect 17 0 23 0;
#X connect 18 0 21 1;
#X connect 18 0 22 1;
#X connect 18 0 38 1;
#X connect 19 0 20 0;
#X connect 20 0 111 0;
#X connect 21 0 32 0;
#X connect 22 0 24 0;
#X connect 23 0 22 0;
#X connect 23 1 21 0;
#X connect 24 0 25 0;
#X connect 25 0 32 0;
#X connect 26 0 69 0;
#X connect 27 0 29 0;
#X connect 28 0 114 0;
#X connect 29 0 30 0;
#X connect 29 0 64 0;
#X connect 30 0 29 1;
#X connect 31 0 29 1;
#X connect 32 0 33 0;
#X connect 32 0 63 1;
#X connect 33 0 32 1;
#X connect 34 0 33 0;
#X connect 35 0 15 1;
#X connect 39 0 41 1;
#X connect 40 1 41 0;
#X connect 40 2 39 0;
#X connect 41 0 61 0;
#X connect 42 0 44 0;
#X connect 43 0 46 0;
#X connect 44 0 47 0;
#X connect 44 0 48 0;
#X connect 45 0 44 1;
#X connect 46 0 42 0;
#X connect 46 1 45 0;
#X connect 47 0 44 1;
#X connect 48 0 49 0;
#X connect 48 1 36 1;
#X connect 49 0 36 0;
#X connect 50 0 39 1;
#X connect 51 0 12 0;
#X connect 51 1 16 0;
#X connect 51 2 34 0;
#X connect 52 0 54 0;
#X connect 53 0 56 0;
#X connect 54 0 55 0;
#X connect 54 0 59 0;
#X connect 55 0 54 1;
#X connect 56 0 52 0;
#X connect 56 1 60 0;
#X connect 57 0 112 0;
#X connect 58 0 19 0;
#X connect 59 0 13 0;
#X connect 59 1 58 1;
#X connect 60 0 54 1;
#X connect 61 0 43 0;
#X connect 61 1 39 1;
#X connect 62 0 63 0;
#X connect 62 1 51 0;
#X connect 63 0 40 0;
#X connect 64 0 26 0;
#X connect 65 0 66 0;
#X connect 65 0 68 1;
#X connect 66 0 65 1;
#X connect 68 0 67 0;
#X connect 69 0 117 0;
#X connect 70 0 71 0;
#X connect 70 0 124 0;
#X connect 71 0 57 0;
#X connect 72 0 73 0;
#X connect 72 0 84 0;
#X connect 73 0 72 1;
#X connect 74 1 72 0;
#X connect 75 0 81 0;
#X connect 76 0 72 1;
#X connect 77 0 10 0;
#X connect 78 0 70 0;
#X connect 79 0 82 0;
#X connect 80 0 78 0;
#X connect 80 1 7 0;
#X connect 80 1 79 1;
#X connect 80 2 3 1;
#X connect 80 3 76 0;
#X connect 81 0 74 0;
#X connect 82 0 78 1;
#X connect 83 0 75 0;
#X connect 84 0 79 0;
#X connect 85 0 97 0;
#X connect 86 0 87 0;
#X connect 87 0 89 0;
#X connect 87 0 93 0;
#X connect 88 0 87 1;
#X connect 89 0 87 1;
#X connect 90 0 92 0;
#X connect 91 0 101 0;
#X connect 92 0 85 0;
#X connect 93 0 92 0;
#X connect 93 1 92 1;
#X connect 96 0 100 1;
#X connect 96 0 103 1;
#X connect 97 1 100 0;
#X connect 97 2 96 1;
#X connect 98 0 96 0;
#X connect 99 0 100 1;
#X connect 100 0 98 0;
#X connect 101 0 103 0;
#X connect 101 1 86 0;
#X connect 101 2 88 0;
#X connect 101 3 99 0;
#X connect 102 0 100 2;
#X connect 103 0 100 2;
#X connect 103 0 95 0;
#X connect 104 0 105 0;
#X connect 105 0 107 0;
#X connect 105 0 110 0;
#X connect 106 0 105 1;
#X connect 107 0 105 1;
#X connect 108 0 109 0;
#X connect 109 1 104 0;
#X connect 109 2 106 0;
#X connect 109 3 102 0;
#X connect 110 0 91 0;
#X connect 110 1 95 1;
#X connect 111 0 119 0;
#X connect 112 0 28 0;
#X connect 112 1 53 0;
#X connect 112 3 50 0;
#X connect 112 4 108 0;
#X connect 113 0 18 0;
#X connect 114 0 68 0;
#X connect 114 1 27 0;
#X connect 114 2 31 0;
#X connect 114 3 65 1;
#X connect 115 0 58 0;
#X connect 115 1 113 0;
#X connect 116 0 118 1;
#X connect 117 0 118 0;
#X connect 117 1 116 0;
#X connect 118 0 65 0;
#X connect 119 0 17 0;
#X connect 119 1 38 0;
#X connect 120 0 9 0;
#X connect 121 0 120 1;
#X connect 122 0 120 0;
#X connect 122 1 121 0;
#X restore 1184 -3 pd stringChooser;
#X obj 917 -150 r netNote;
#X obj 922 -109 unpack f f f;
#X obj 1184 25 unpack f f f;
#X floatatom 1177 66 5 0 0 0 - - -;
#X floatatom 1216 109 5 0 0 0 - - -;
#X obj 1054 60 sel 53;
#X obj 1006 -58 stripnote;
#X obj 1005 7 stripnote;
#X obj 722 -16 t f f f;
#X obj 644 151 s allFretsOff;
#X obj 664 117 bng 15 250 50 0 empty empty empty 17 7 0 10 -262144
-1 -1;
#X obj 325 380 pipe 50;
#X obj 415 365 pipe 50;
#X obj 519 367 pipe 50;
#X obj 592 288 t f f f;
#X floatatom 631 262 5 0 0 0 - - -;
#X obj 651 204 loadbang;
#X msg 637 234 0;
#X obj 392 -32 r allFretsOff;
#X obj 579 166 delay 3000;
#X obj 621 51 pack 0 1;
#X obj 722 50 pack 0 1;
#X obj 822 50 pack 0 1;
#X obj 621 90 s channel1-1;
#X obj 722 89 s channel1-2;
#X obj 822 89 s channel1-3;
#X obj 621 13 sel 36;
#X obj 722 12 sel 37 41;
#X obj 822 12 sel 38 42;
#X obj 894 -23 sel 0;
#X msg 894 -1 -1;
#X obj 894 33 t f;
#X obj 938 -1 / 127;
#X obj 1111 174 channel2string 2 49 53 20;
#X obj 1303 171 channel2string 3 53 57 20;
#X floatatom 1256 80 5 0 0 0 - - -;
#X obj 1302 93 sel 45;
#X msg 1302 118 57;
#X msg 835 121 45;
#X msg 869 119 46;
#X msg 837 149 47;
#X msg 871 148 48;
#X msg 838 175 49;
#X obj 738 219 bng 15 250 50 0 empty empty empty 17 7 0 10 -262144
-1 -1;
#X obj 742 262 s allFretsOn;
#X obj 726 519 s allFretsOff;
#X obj 881 424 bng 15 250 50 0 empty empty empty 17 7 0 10 -262144
-1 -1;
#X obj 827 527 s allFretsOn;
#X obj 729 393 sel 0 1;
#X obj 739 344 tgl 15 0 empty empty empty 17 7 0 10 -262144 -1 -1 0
1;
#X obj 734 285 tgl 15 0 empty empty empty 17 7 0 10 -262144 -1 -1 0
1;
#X obj 1119 213 s 2frets;
#X msg 322 169 201 30;
#X obj 482 131 tgl 15 0 empty empty empty 17 7 0 10 -262144 -1 -1 0
1;
#X obj 478 166 metro 2000;
#X msg 1184 291 \; fretID-1 0 211 212 213 214 \; fretPress-1 0 1 1
1 1 \; fretRel-1 0 140 100 100 100 \;;
#X obj 900 216 s 2frets;
#X obj 1319 206 s 2frets;
#X msg 686 423 1;
#X msg 810 410 1;
#X msg 674 463 2;
#X msg 678 496 3;
#X msg 793 448 2;
#X msg 797 481 3;
#X msg 381 187 222 90;
#X msg 1107 90 49;
#X msg 1141 89 50;
#X msg 1109 119 51;
#X msg 1143 118 52;
#X msg 1111 145 53;
#X msg 1375 83 53;
#X msg 1409 82 54;
#X msg 1377 114 55;
#X msg 1411 111 56;
#X msg 1379 138 57;
#X obj 972 552 s 2frets;
#X msg 971 522 210 \$1;
#X obj 1382 33 sel 0 1;
#X obj 1388 -31 metro 1000;
#X obj 1386 5 tgl 15 0 empty empty empty 17 7 0 10 -262144 -1 -1 0
1;
#X obj 1384 -81 tgl 15 0 empty empty empty 17 7 0 10 -262144 -1 -1
0 1;
#X floatatom 1107 -61 5 0 0 0 - - -;
#X obj 1279 -100 v root;
#X obj 1131 -26 moses 45;
#X obj 908 177 channel2string 1 45 49 20;
#X obj 1089 -92 - 3;
#X obj 1264 -168 loadbang;
#X msg 1280 -139 45;
#X obj 1023 237 s sPwr;
#X obj 973 386 r sPwr;
#X obj 974 410 t b b;
#X obj 963 451 delay 500;
#X msg 1007 490 1;
#X msg 1045 544 210 \$1;
#X obj 1045 521 tgl 15 0 empty empty empty 17 7 0 10 -262144 -1 -1
0 1;
#X msg 971 491 0;
#X msg 105 34 open 6;
#X msg 50 172 205 30;
#X msg 51 141 204 30;
#X msg 66 211 206 30;
#X obj 735 318 metro 2000;
#X msg 379 45 open 10;
#X msg 967 309 \; fretID-1 0 219 216 213 222 \; fretPress-1 0 150 150
130 130 \; fretRel-1 0 80 80 70 70 \;;
#X msg 1164 422 \; fretID-2 0 220 217 214 211 \; fretPress-2 0 160
150 150 150 \; fretRel-2 0 100 80 80 80 \;;
#X msg 1312 357 \; fretID-3 0 221 218 215 212 \; fretPress-3 0 150
150 150 145 \; fretRel-3 0 100 90 70 70 \;;
#X connect 1 0 0 0;
#X connect 2 0 0 0;
#X connect 3 0 0 0;
#X connect 5 0 4 0;
#X connect 6 0 4 0;
#X connect 7 0 4 0;
#X connect 8 0 4 0;
#X connect 10 0 11 0;
#X connect 11 0 13 0;
#X connect 13 0 9 0;
#X connect 15 0 14 0;
#X connect 17 0 18 0;
#X connect 17 1 19 0;
#X connect 19 0 20 1;
#X connect 20 0 37 0;
#X connect 21 0 0 0;
#X connect 22 0 0 0;
#X connect 23 0 4 0;
#X connect 24 0 0 0;
#X connect 25 0 0 0;
#X connect 26 0 0 0;
#X connect 27 0 153 0;
#X connect 27 0 158 0;
#X connect 28 0 35 0;
#X connect 29 0 26 0;
#X connect 30 0 34 0;
#X connect 31 0 21 0;
#X connect 32 0 36 0;
#X connect 33 0 22 0;
#X connect 34 0 69 0;
#X connect 35 0 68 0;
#X connect 36 0 70 0;
#X connect 37 0 26 0;
#X connect 37 1 21 0;
#X connect 37 2 22 0;
#X connect 38 0 28 0;
#X connect 39 0 30 0;
#X connect 40 0 32 0;
#X connect 44 0 158 0;
#X connect 44 0 76 0;
#X connect 45 0 46 0;
#X connect 46 0 4 0;
#X connect 47 0 4 0;
#X connect 48 0 4 0;
#X connect 49 0 4 0;
#X connect 50 0 4 0;
#X connect 51 0 63 0;
#X connect 51 1 63 1;
#X connect 52 0 4 0;
#X connect 53 0 159 0;
#X connect 53 0 161 0;
#X connect 53 0 160 0;
#X connect 54 0 0 0;
#X connect 55 1 90 0;
#X connect 56 0 59 0;
#X connect 57 0 58 0;
#X connect 58 0 63 0;
#X connect 58 0 65 0;
#X connect 58 1 63 1;
#X connect 58 1 86 0;
#X connect 59 0 60 0;
#X connect 59 0 141 0;
#X connect 59 1 61 0;
#X connect 59 1 90 0;
#X connect 59 2 92 0;
#X connect 59 2 93 0;
#X connect 59 2 91 0;
#X connect 62 1 91 0;
#X connect 63 0 142 0;
#X connect 64 0 55 0;
#X connect 64 0 62 0;
#X connect 64 0 141 0;
#X connect 65 0 83 0;
#X connect 65 1 84 0;
#X connect 65 2 85 0;
#X connect 67 0 66 0;
#X connect 68 0 29 0;
#X connect 69 0 31 0;
#X connect 70 0 33 0;
#X connect 71 0 68 1;
#X connect 71 1 69 1;
#X connect 71 2 70 1;
#X connect 72 0 71 0;
#X connect 73 0 74 0;
#X connect 74 0 71 0;
#X connect 76 0 66 0;
#X connect 77 0 80 0;
#X connect 78 0 81 0;
#X connect 79 0 82 0;
#X connect 83 0 77 0;
#X connect 84 0 78 0;
#X connect 84 1 78 0;
#X connect 85 0 79 0;
#X connect 85 1 79 0;
#X connect 86 0 87 0;
#X connect 86 1 89 0;
#X connect 87 0 88 0;
#X connect 88 0 79 1;
#X connect 88 0 78 1;
#X connect 88 0 77 1;
#X connect 89 0 88 0;
#X connect 90 0 108 0;
#X connect 90 0 145 0;
#X connect 91 0 114 0;
#X connect 91 0 145 0;
#X connect 93 0 94 0;
#X connect 94 0 91 0;
#X connect 95 0 141 0;
#X connect 96 0 141 0;
#X connect 97 0 141 0;
#X connect 98 0 141 0;
#X connect 99 0 141 0;
#X connect 100 0 101 0;
#X connect 103 0 104 0;
#X connect 105 0 117 0;
#X connect 105 0 118 0;
#X connect 105 1 119 0;
#X connect 105 1 120 0;
#X connect 106 0 105 0;
#X connect 107 0 157 0;
#X connect 109 0 4 0;
#X connect 110 0 111 0;
#X connect 111 0 109 0;
#X connect 115 0 102 0;
#X connect 116 0 104 0;
#X connect 117 0 102 0;
#X connect 118 0 102 0;
#X connect 119 0 104 0;
#X connect 120 0 104 0;
#X connect 121 0 4 0;
#X connect 122 0 90 0;
#X connect 123 0 90 0;
#X connect 124 0 90 0;
#X connect 125 0 90 0;
#X connect 126 0 90 0;
#X connect 127 0 91 0;
#X connect 128 0 91 0;
#X connect 129 0 91 0;
#X connect 130 0 91 0;
#X connect 131 0 91 0;
#X connect 133 0 132 0;
#X connect 134 0 127 0;
#X connect 134 1 129 0;
#X connect 135 0 136 0;
#X connect 136 0 134 0;
#X connect 137 0 135 0;
#X connect 138 0 140 0;
#X connect 140 1 56 0;
#X connect 141 0 113 0;
#X connect 141 0 145 0;
#X connect 142 0 138 0;
#X connect 143 0 144 0;
#X connect 144 0 139 0;
#X connect 146 0 147 0;
#X connect 147 0 148 0;
#X connect 147 1 149 0;
#X connect 148 0 152 0;
#X connect 149 0 133 0;
#X connect 150 0 132 0;
#X connect 151 0 150 0;
#X connect 152 0 133 0;
#X connect 153 0 0 0;
#X connect 154 0 0 0;
#X connect 155 0 0 0;
#X connect 156 0 0 0;
#X connect 157 0 106 0;
#X connect 158 0 4 0;
#X coords 0 -1 1 1 250 60 2 350 500;
