#N canvas 0 96 1920 984 10;
#X obj 0 0 cnv 15 1920 1850 empty empty empty 20 12 0 14 -162280 -66577
0;
#X obj 152 1168 tgl 40 0 empty empty DSP 17 7 0 10 -262144 -1 -1 1
1;
#X msg 152 1228 \; pd dsp \$1;
#X obj 181 1118 loadbang;
#X msg 152 1134 1;
#N canvas 2 149 1856 540 mainGui 0;
#X obj 1529 159 hradio 40 1 0 8 empty empty Pttrn -70 16 0 20 -228856
-1 -1 0;
#X obj 106 106 seq/clock;
#X obj 1871 112 bng 40 250 50 0 empty 20 save 6 19 0 12 -228856 -1
-1;
#X obj 168 52 int;
#X obj 186 26 + 0;
#X obj 448 15 tgl 40 0 eDrumIn? empty eD 5 20 0 25 -228856 -1 -1 0
1;
#X obj 1529 112 hradio 40 1 0 8 empty empty Song -60 16 0 20 -228856
-1 -1 0;
#X obj 19 -72 pack f f;
#X obj 40 -97 t b f;
#X obj 102 -55 unpack f f;
#X obj 102 -18 pack f f f;
#X msg 48 72 writeSeq \$2 \$3;
#X msg 10 43 readSeq \$1 \$2;
#X obj 312 106 bng 40 250 50 0 empty 20 Rst 10 19 0 12 -228856 -1 -1
;
#X msg 330 197 rst;
#X obj 800 6 r advance;
#X obj 692 -55 loadbang;
#X obj 692 4 t b b;
#X obj 672 -21 bng 15 250 50 0 empty empty empty 17 7 0 10 -262144
-1 -1;
#X msg 692 39 0;
#X msg 724 39 0;
#X obj 1870 158 nbx 2 40 -1e+37 1e+37 0 0 empty empty empty 0 -8 0
20 -228856 -1 -1 1 256;
#X obj 1870 77 + 1;
#X obj 1870 207 - 1;
#X obj 692 -23 delay 1500;
#X obj 288 -63 tgl 40 0 recMidi empty R 15 20 0 25 -228856 -1 -1 0
1;
#N canvas 147 143 1125 596 midiout 0;
#X msg 108 212 248;
#X msg 140 220 250;
#X obj 220 162 int;
#X obj 256 179 + 1;
#X obj 218 90 t b b;
#X msg 220 113 1;
#X msg 293 109 0;
#X obj 220 206 sel 1;
#X msg 221 251 252;
#X obj 108 296 midiout;
#X obj 220 139 metro 250;
#X obj 108 -42 r clock;
#X obj 108 73 t f f b;
#X obj 108 114 sel 0;
#X obj 108 170 t b b;
#X obj 129 -14 / 2;
#X obj 129 12 int;
#X obj 129 39 change;
#X obj 425 211 r notes;
#X obj 421 398 unpack 0 0 0;
#X obj 468 -36 r channel1-1;
#X obj 561 -27 r channel1-2;
#X obj 575 -3 r channel1-3;
#X obj 535 71 unpack;
#X obj 421 454 noteout 16;
#X obj 574 178 * 127;
#X obj 574 109 clip 0 1;
#X obj 574 133 t f b;
#X obj 682 163 r netCC;
#X obj 691 288 ctlout;
#X obj 683 196 unpack f f f;
#X msg 716 256 1;
#X msg 753 255 16;
#X obj 683 223 t f b b;
#X obj 574 228 clip 0 127;
#X floatatom 668 248 5 0 0 0 - - -;
#X obj 575 201 sel 0;
#X obj 418 114 unpack f f f;
#X floatatom 409 187 5 0 0 0 - - -;
#X obj 418 85 r netNote;
#X obj 421 248 int;
#X obj 422 350 pack;
#X obj 418 161 moses 45;
#X obj 574 264 t b b f;
#X obj 421 273 t f b;
#X obj 478 350 pack f 0;
#X obj 462 311 int;
#X connect 0 0 9 0;
#X connect 1 0 9 0;
#X connect 2 0 3 0;
#X connect 2 0 7 0;
#X connect 3 0 2 1;
#X connect 4 0 5 0;
#X connect 4 1 6 0;
#X connect 5 0 10 0;
#X connect 6 0 2 1;
#X connect 7 0 8 0;
#X connect 8 0 9 0;
#X connect 10 0 2 0;
#X connect 11 0 12 0;
#X connect 12 0 13 0;
#X connect 12 2 4 0;
#X connect 13 0 14 0;
#X connect 13 1 0 0;
#X connect 14 0 0 0;
#X connect 14 1 1 0;
#X connect 15 0 16 0;
#X connect 16 0 17 0;
#X connect 19 0 24 0;
#X connect 19 1 24 1;
#X connect 20 0 23 0;
#X connect 21 0 23 0;
#X connect 22 0 23 0;
#X connect 25 0 36 0;
#X connect 26 0 27 0;
#X connect 27 0 25 0;
#X connect 30 0 33 0;
#X connect 31 0 29 1;
#X connect 32 0 29 2;
#X connect 33 0 29 0;
#X connect 33 0 35 0;
#X connect 33 0 34 1;
#X connect 33 1 31 0;
#X connect 33 2 32 0;
#X connect 34 0 43 0;
#X connect 36 1 34 0;
#X connect 37 0 38 0;
#X connect 37 0 42 0;
#X connect 40 0 44 0;
#X connect 41 0 19 0;
#X connect 42 1 40 1;
#X connect 43 1 40 0;
#X connect 43 2 41 1;
#X connect 44 0 41 0;
#X connect 44 0 46 1;
#X connect 44 1 46 0;
#X connect 45 0 19 0;
#X connect 46 0 45 0;
#X restore 748 242 pd midiout;
#X obj 628 232 r ch1-1;
#N canvas 77 119 994 540 midiInOut 0;
#X obj 152 209 r channel1-1;
#X obj 152 246 unpack;
#X obj 214 435 noteout 2;
#X obj 212 297 * 127;
#X obj 185 271 moses;
#X obj 212 326 int;
#X obj 212 352 t b f;
#X obj 404 80 ctlin;
#X obj 404 167 ctlout;
#X obj 229 62 notein;
#X obj 229 168 noteout;
#X obj 137 358 int;
#X obj 137 328 b;
#X msg 213 385 44;
#X obj 137 390 pack f 0;
#X obj 341 247 unpack;
#X obj 403 436 noteout 2;
#X obj 401 298 * 127;
#X obj 374 272 moses;
#X obj 401 327 int;
#X obj 401 353 t b f;
#X obj 326 359 int;
#X obj 326 329 b;
#X obj 326 391 pack f 0;
#X obj 540 246 unpack;
#X obj 602 435 noteout 2;
#X obj 600 297 * 127;
#X obj 573 271 moses;
#X obj 600 326 int;
#X obj 600 352 t b f;
#X obj 525 358 int;
#X obj 525 328 b;
#X obj 525 390 pack f 0;
#X obj 341 210 r channel1-2;
#X obj 540 209 r channel1-3;
#X msg 402 386 45;
#X msg 601 385 46;
#X obj 229 116 pack f f f;
#X obj 296 91 t f f;
#X obj 229 143 spigot;
#X obj 328 126 <= 16;
#X obj 75 214 s toAll;
#X obj 58 52 notein;
#X obj 58 130 pack f f f;
#X obj 125 81 t f f;
#X obj 58 157 spigot;
#X obj 157 116 > 16;
#X obj 125 105 - 16;
#X obj 58 239 s actNotes;
#X obj 75 188 list prepend note;
#N canvas 1011 185 712 742 test 0;
#X obj 80 95 sel 0 1;
#X obj 80 57 tgl 15 0 empty empty empty 17 7 0 10 -262144 -1 -1 0 1
;
#X obj 80 32 metro 700;
#X obj 81 5 tgl 15 0 empty empty empty 17 7 0 10 -262144 -1 -1 1 1
;
#X msg 81 162 \$1 100 1;
#X msg 108 189 \$1 0 1;
#X obj 107 131 int;
#X obj 80 132 int;
#X floatatom 101 5 5 0 0 0 - - -;
#X obj 117 295 outlet;
#X obj 166 98 sel 0 1;
#X obj 165 60 tgl 15 0 empty empty empty 17 7 0 10 -262144 -1 -1 1
1;
#X obj 166 8 tgl 15 0 empty empty empty 17 7 0 10 -262144 -1 -1 1 1
;
#X obj 193 134 int;
#X obj 166 135 int;
#X floatatom 187 8 5 0 0 0 - - -;
#X obj 251 99 sel 0 1;
#X obj 250 61 tgl 15 0 empty empty empty 17 7 0 10 -262144 -1 -1 0
1;
#X obj 251 9 tgl 15 0 empty empty empty 17 7 0 10 -262144 -1 -1 1 1
;
#X obj 278 135 int;
#X obj 251 136 int;
#X floatatom 272 9 5 0 0 0 - - -;
#X msg 166 165 \$1 100 2;
#X msg 193 192 \$1 0 2;
#X msg 251 166 \$1 100 3;
#X msg 278 193 \$1 0 3;
#X obj 81 224 t a;
#X obj 166 227 t a;
#X obj 251 228 t a;
#X obj 166 35 metro 750;
#X obj 251 36 metro 800;
#X connect 0 0 7 0;
#X connect 0 1 6 0;
#X connect 1 0 0 0;
#X connect 2 0 1 0;
#X connect 3 0 2 0;
#X connect 4 0 26 0;
#X connect 5 0 26 0;
#X connect 6 0 5 0;
#X connect 7 0 4 0;
#X connect 8 0 7 1;
#X connect 8 0 6 1;
#X connect 10 0 14 0;
#X connect 10 1 13 0;
#X connect 11 0 10 0;
#X connect 12 0 29 0;
#X connect 13 0 23 0;
#X connect 14 0 22 0;
#X connect 15 0 14 1;
#X connect 15 0 13 1;
#X connect 16 0 20 0;
#X connect 16 1 19 0;
#X connect 17 0 16 0;
#X connect 18 0 30 0;
#X connect 19 0 25 0;
#X connect 20 0 24 0;
#X connect 21 0 20 1;
#X connect 21 0 19 1;
#X connect 22 0 27 0;
#X connect 23 0 27 0;
#X connect 24 0 28 0;
#X connect 25 0 28 0;
#X connect 26 0 9 0;
#X connect 27 0 9 0;
#X connect 28 0 9 0;
#X connect 29 0 11 0;
#X connect 30 0 17 0;
#X restore 6 156 pd test;
#X connect 0 0 1 0;
#X connect 1 1 4 0;
#X connect 3 0 5 0;
#X connect 4 0 12 0;
#X connect 4 1 3 0;
#X connect 5 0 6 0;
#X connect 6 0 13 0;
#X connect 6 1 2 1;
#X connect 7 0 8 0;
#X connect 7 1 8 1;
#X connect 7 2 8 2;
#X connect 9 0 37 0;
#X connect 9 1 37 1;
#X connect 9 2 38 0;
#X connect 11 0 14 0;
#X connect 12 0 11 0;
#X connect 13 0 2 0;
#X connect 13 0 11 1;
#X connect 14 0 2 0;
#X connect 15 1 18 0;
#X connect 17 0 19 0;
#X connect 18 0 22 0;
#X connect 18 1 17 0;
#X connect 19 0 20 0;
#X connect 20 0 35 0;
#X connect 20 1 16 1;
#X connect 21 0 23 0;
#X connect 22 0 21 0;
#X connect 23 0 16 0;
#X connect 24 1 27 0;
#X connect 26 0 28 0;
#X connect 27 0 31 0;
#X connect 27 1 26 0;
#X connect 28 0 29 0;
#X connect 29 0 36 0;
#X connect 29 1 25 1;
#X connect 30 0 32 0;
#X connect 31 0 30 0;
#X connect 32 0 25 0;
#X connect 33 0 15 0;
#X connect 34 0 24 0;
#X connect 35 0 16 0;
#X connect 35 0 21 1;
#X connect 36 0 25 0;
#X connect 36 0 30 1;
#X connect 37 0 39 0;
#X connect 38 0 37 2;
#X connect 38 1 40 0;
#X connect 39 0 10 0;
#X connect 40 0 39 1;
#X connect 42 0 43 0;
#X connect 42 1 43 1;
#X connect 42 2 44 0;
#X connect 43 0 45 0;
#X connect 44 0 47 0;
#X connect 44 1 46 0;
#X connect 45 0 48 0;
#X connect 45 0 49 0;
#X connect 46 0 45 1;
#X connect 47 0 43 2;
#X connect 49 0 41 0;
#X connect 50 0 48 0;
#X connect 50 0 49 0;
#X restore 741 220 pd midiInOut;
#N canvas 0 50 1920 988 2net 0;
#X obj 589 281 r channel1-1;
#X obj 588 318 unpack;
#X obj 645 351 change;
#X obj 630 470 v str1N;
#X msg 630 576 note \$1 \$2;
#X obj 630 617 s toAll;
#X obj 630 537 pack f 127;
#X obj 540 540 pack f 0;
#X obj 630 432 sel 1;
#X obj 818 313 unpack;
#X obj 875 346 change;
#X msg 860 571 note \$1 \$2;
#X obj 860 612 s toAll;
#X obj 860 532 pack f 127;
#X obj 770 535 pack f 0;
#X obj 860 427 sel 1;
#X obj 819 276 r channel1-2;
#X obj 860 465 v str2N;
#X obj 1041 311 unpack;
#X obj 1098 344 change;
#X msg 1083 569 note \$1 \$2;
#X obj 1083 610 s toAll;
#X obj 1083 530 pack f 127;
#X obj 993 533 pack f 0;
#X obj 1083 425 sel 1;
#X obj 1042 274 r channel1-3;
#X obj 1083 463 v str3N;
#X obj 630 394 >= 0;
#X obj 860 389 >= 0;
#X obj 1083 387 >= 0;
#X obj 540 494 pipe 30;
#X obj 770 489 pipe 30;
#X obj 993 487 pipe 30;
#X connect 1 1 2 0;
#X connect 2 0 27 0;
#X connect 3 0 6 0;
#X connect 3 0 30 0;
#X connect 4 0 5 0;
#X connect 6 0 4 0;
#X connect 7 0 4 0;
#X connect 8 0 3 0;
#X connect 9 1 10 0;
#X connect 10 0 28 0;
#X connect 11 0 12 0;
#X connect 13 0 11 0;
#X connect 14 0 11 0;
#X connect 15 0 17 0;
#X connect 17 0 13 0;
#X connect 17 0 31 0;
#X connect 18 1 19 0;
#X connect 19 0 29 0;
#X connect 20 0 21 0;
#X connect 22 0 20 0;
#X connect 23 0 20 0;
#X connect 24 0 26 0;
#X connect 26 0 22 0;
#X connect 26 0 32 0;
#X connect 27 0 8 0;
#X connect 28 0 15 0;
#X connect 29 0 24 0;
#X connect 30 0 7 0;
#X connect 31 0 14 0;
#X connect 32 0 23 0;
#X restore 876 237 pd 2net;
#X obj 357 106 showNotes;
#X obj 383 283 findRoot;
#X obj 383 254 r actNotes;
#X obj 383 313 list prepend root;
#X obj 383 341 s toAll;
#X obj 613 112 seq/gui 1 0 50;
#X connect 0 0 8 0;
#X connect 2 0 10 0;
#X connect 3 0 11 0;
#X connect 4 0 3 1;
#X connect 6 0 7 0;
#X connect 7 0 9 0;
#X connect 7 0 12 0;
#X connect 8 0 7 0;
#X connect 8 1 7 1;
#X connect 9 0 10 1;
#X connect 9 1 22 0;
#X connect 10 0 11 0;
#X connect 11 0 35 0;
#X connect 12 0 35 0;
#X connect 13 0 14 0;
#X connect 14 0 35 0;
#X connect 15 0 0 0;
#X connect 16 0 24 0;
#X connect 17 0 19 0;
#X connect 17 1 20 0;
#X connect 18 0 17 0;
#X connect 19 0 0 0;
#X connect 20 0 6 0;
#X connect 21 0 23 0;
#X connect 22 0 21 0;
#X connect 23 0 10 2;
#X connect 24 0 17 0;
#X connect 31 0 33 0;
#X connect 32 0 31 0;
#X connect 33 0 34 0;
#X coords 0 -1 1 1 1850 115 2 100 100;
#X restore 7 5 pd mainGui;
#N canvas 14 140 1009 507 net 0;
#X msg -2 35 disconnect;
#X obj 225 98 s oscClock;
#X obj 352 -47 r channel1-3;
#X obj 453 -46 r channel1-4;
#X obj 565 -46 r channel1-5;
#X obj 403 26 r channel1-1;
#X obj 89 32 loadbang;
#X obj 620 272 loadbang;
#X obj 478 319 netsend -u;
#X obj 89 98 netreceive -u;
#X obj 478 282 list trim;
#X obj 478 251 list prepend send;
#X msg 620 302 connect 192.168.1.255 8000;
#X obj 403 104 list trim;
#X obj 403 70 list prepend channel1-1;
#X obj 403 137 s toAll;
#X obj 478 191 r toAll;
#X msg 598 67 clock \$1;
#X obj 598 108 s toAll;
#X obj 598 39 r 2extclock;
#X obj 219 179 s advance;
#X obj 478 222 list prepend gharp;
#X msg 89 70 listen 8006;
#X obj 89 146 route GHarp advance;
#X obj 89 335 s netNote;
#X obj 89 184 route note cc;
#X obj 133 208 s netCC;
#X obj 121 254 unpack f f f;
#X obj 89 307 spigot;
#X obj 89 229 t a a;
#X obj 162 288 == 2;
#X floatatom 325 95 5 0 0 0 - - -;
#X obj 225 56 netreceive -u 8099;
#X connect 0 0 9 0;
#X connect 6 0 22 0;
#X connect 7 0 12 0;
#X connect 9 0 23 0;
#X connect 10 0 8 0;
#X connect 11 0 10 0;
#X connect 12 0 8 0;
#X connect 13 0 15 0;
#X connect 14 0 13 0;
#X connect 16 0 21 0;
#X connect 17 0 18 0;
#X connect 19 0 17 0;
#X connect 21 0 11 0;
#X connect 22 0 9 0;
#X connect 23 0 25 0;
#X connect 23 1 20 0;
#X connect 25 0 29 0;
#X connect 25 1 26 0;
#X connect 27 2 30 0;
#X connect 28 0 24 0;
#X connect 29 0 28 0;
#X connect 29 1 27 0;
#X connect 30 0 28 1;
#X connect 32 0 1 0;
#X connect 32 0 31 0;
#X restore 62 1142 pd net;
#X obj 50 158 seq/gui 1 1 50;
#X obj 53 220 seq/channel 1 1 16 60 1 1 90;
#X obj 51 469 seq/channel 1 2 16 60 1 1 90;
#X obj 49 717 seq/channel 1 3 16 60 1 1 90;
#X obj 49 667 seq/gui 1 3 50;
#X obj 51 419 seq/gui 1 2 50;
#X connect 1 0 2 0;
#X connect 3 0 4 0;
#X connect 4 0 1 0;
