#N canvas 1 109 1041 701 10;
#X obj 100 100 cnv 15 1024 768 empty empty empty 20 12 0 14 -191407
-66577 0;
#X obj -1 801 noteout 1;
#X msg -20 830 60;
#X obj -16 866 makenote 100 100;
#X obj -11 693 unpack 0 0;
#X obj -11 750 pack;
#X obj 56 717 * 127;
#X obj -12 587 unpack 0 0;
#X obj -12 643 pack;
#X obj 55 610 * 127;
#X obj 109 143 seq/channel \$1 6 \$2 30 0 60;
#X obj -7 493 unpack 0 0;
#X obj -7 549 pack;
#X obj 60 516 * 127;
#X obj -9 410 unpack 0 0;
#X obj -9 466 pack;
#X obj 58 433 * 127;
#X obj -6 320 unpack 0 0;
#X obj -6 376 pack;
#X obj 61 343 * 127;
#X obj -11 232 unpack 0 0;
#X obj -11 288 pack;
#X obj 56 255 * 127;
#X obj 109 263 seq/channel \$1 5 \$2 30 0 60;
#X obj 110 383 seq/channel \$1 4 \$2 30 0 60;
#X obj 111 504 seq/channel \$1 3 \$2 30 0 60;
#X obj 111 624 seq/channel \$1 2 \$2 30 0 60;
#X obj 111 744 seq/channel \$1 1 \$2 30 0 60;
#X obj 625 618 pgmout;
#X obj 625 554 unpack;
#X msg -11 260 69;
#X msg -6 349 67;
#X msg -9 437 65;
#X msg -3 520 64;
#X msg -7 613 62;
#X msg -8 722 60;
#X obj 625 590 change;
#X obj 616 319 seq/channel \$1 -1 16 30 6 0;
#X obj 616 288 seq/gui \$1 -1;
#X obj 109 113 seq/gui \$1 6;
#X obj 626 130 seq/gui \$1 0;
#X obj 111 714 seq/gui \$1 1;
#X obj 111 474 seq/gui \$1 3;
#X obj 110 353 seq/gui \$1 4;
#X obj 111 594 seq/gui \$1 2;
#X obj 109 234 seq/gui \$1 5;
#X connect 2 0 3 0;
#X connect 3 0 1 0;
#X connect 3 1 1 1;
#X connect 4 0 35 0;
#X connect 4 1 6 0;
#X connect 5 0 1 0;
#X connect 6 0 5 1;
#X connect 7 0 34 0;
#X connect 7 1 9 0;
#X connect 8 0 1 0;
#X connect 9 0 8 1;
#X connect 10 0 20 0;
#X connect 11 0 33 0;
#X connect 11 1 13 0;
#X connect 12 0 1 0;
#X connect 13 0 12 1;
#X connect 14 0 32 0;
#X connect 14 1 16 0;
#X connect 15 0 1 0;
#X connect 16 0 15 1;
#X connect 17 0 31 0;
#X connect 17 1 19 0;
#X connect 18 0 1 0;
#X connect 19 0 18 1;
#X connect 20 0 30 0;
#X connect 20 1 22 0;
#X connect 21 0 1 0;
#X connect 22 0 21 1;
#X connect 23 0 17 0;
#X connect 24 0 14 0;
#X connect 25 0 11 0;
#X connect 26 0 7 0;
#X connect 27 0 4 0;
#X connect 29 0 36 0;
#X connect 30 0 21 0;
#X connect 31 0 18 0;
#X connect 32 0 15 0;
#X connect 33 0 12 0;
#X connect 34 0 8 0;
#X connect 35 0 5 0;
#X connect 36 0 28 0;
#X connect 37 0 29 0;
#X coords 0 -1 1 1 1024 768 1 100 100;
