#N canvas 0 36 1056 704 10;
#X obj 294 322 r comctl;
#X obj 895 606 s comctl;
#X msg 693 409 close;
#X text 742 396 Close Serial port;
#X msg 887 581 devicename /dev/ttyS1;
#X text 963 600 Danger !!! you can open every file in your system and
maybe if suid is root damage the system.;
#X text 771 417 Open serial port by number;
#X text 1099 581 open the serial port by name;
#X msg 827 521 dtr \$1;
#X obj 796 522 tgl 15 0 empty empty empty 0 -6 0 8 -241291 -250685
-1 0 1;
#X obj 816 542 tgl 15 0 empty empty empty 0 -6 0 8 -241291 -258113
-1 0 1;
#X msg 847 541 rts \$1;
#X text 876 520 dtr output;
#X text 896 540 rts output;
#X msg 806 500 verbose \$1;
#X obj 775 502 tgl 15 0 empty empty empty 0 -6 0 8 -241291 -250685
-1 0 1;
#X msg 765 459 devices;
#X text 823 458 print available devices (wait for it...);
#X msg 745 439 open 0;
#X msg 786 480 ports;
#X text 832 479 list available ports on right outlet;
#X msg 867 561 hupcl \$1;
#X obj 835 562 tgl 15 0 empty empty empty 17 7 0 10 -257985 -258113
-1 0 1;
#X text 925 554 hang up connection on last close;
#X text 938 566 (not on Windows);
#X obj 294 386 moses 200;
#X obj 294 444 moses 100;
#X obj 294 495 * 100;
#X obj 360 541 +;
#X msg 724 418 open 1;
#X msg 697 471 open 2;
#X obj 355 496 - 100;
#X obj 418 600 pack;
#X obj 354 470 t b f;
#X obj 418 509 int;
#X obj 418 567 * -1;
#X obj 418 538 - 256;
#X obj 643 86 int;
#X obj 371 436 t f b;
#X msg 416 416 0;
#X obj 395 384 moses 237;
#X obj 253 795 s ctlInput;
#X msg 617 127 pot;
#X obj 253 673 pack;
#X obj 253 639 moses 9;
#N canvas 0 85 656 300 monitorInputs 0;
#X obj 18 20 route 1 2 3 4 5 6 7 8 9 10 11 12 13 14 15 16 17 18 19
;
#X floatatom 18 455 5 0 0 0 - - -, f 5;
#X floatatom 37 436 5 0 0 0 - - -, f 5;
#X floatatom 56 413 5 0 0 0 - - -, f 5;
#X floatatom 76 391 5 0 0 0 - - -, f 5;
#X floatatom 95 362 5 0 0 0 - - -, f 5;
#X floatatom 114 343 5 0 0 0 - - -, f 5;
#X floatatom 134 320 5 0 0 0 - - -, f 5;
#X floatatom 153 298 5 0 0 0 - - -, f 5;
#X floatatom 172 272 5 0 0 0 - - -, f 5;
#X floatatom 191 253 5 0 0 0 - - -, f 5;
#X floatatom 210 230 5 0 0 0 - - -, f 5;
#X floatatom 230 208 5 0 0 0 - - -, f 5;
#X floatatom 249 179 5 0 0 0 - - -, f 5;
#X floatatom 268 160 5 0 0 0 - - -, f 5;
#X floatatom 288 137 5 0 0 0 - - -, f 5;
#X floatatom 307 115 5 0 0 0 - - -, f 5;
#X floatatom 329 91 5 0 0 0 - - -, f 5;
#X floatatom 349 68 5 0 0 0 - - -, f 5;
#X floatatom 368 46 5 0 0 0 - - -, f 5;
#X floatatom 433 458 5 0 0 0 - - -, f 5;
#X floatatom 452 439 5 0 0 0 - - -, f 5;
#X floatatom 471 416 5 0 0 0 - - -, f 5;
#X floatatom 491 394 5 0 0 0 - - -, f 5;
#X floatatom 510 365 5 0 0 0 - - -, f 5;
#X floatatom 529 346 5 0 0 0 - - -, f 5;
#X floatatom 549 323 5 0 0 0 - - -, f 5;
#X floatatom 568 301 5 0 0 0 - - -, f 5;
#X floatatom 587 275 5 0 0 0 - - -, f 5;
#X floatatom 606 256 5 0 0 0 - - -, f 5;
#X floatatom 625 233 5 0 0 0 - - -, f 5;
#X floatatom 645 211 5 0 0 0 - - -, f 5;
#X floatatom 664 182 5 0 0 0 - - -, f 5;
#X floatatom 683 163 5 0 0 0 - - -, f 5;
#X floatatom 715 140 5 0 0 0 - - -, f 5;
#X floatatom 741 118 5 0 0 0 - - -, f 5;
#X floatatom 774 99 5 0 0 0 - - -, f 5;
#X floatatom 817 71 5 0 0 0 - - -, f 5;
#X obj 433 18 route 20 21 22 23 24 25 26 27 28 29 30 31 32 33 34 35
36 37;
#X obj 18 -59 inlet;
#X connect 0 0 1 0;
#X connect 0 1 2 0;
#X connect 0 2 3 0;
#X connect 0 3 4 0;
#X connect 0 4 5 0;
#X connect 0 5 6 0;
#X connect 0 6 7 0;
#X connect 0 7 8 0;
#X connect 0 8 9 0;
#X connect 0 9 10 0;
#X connect 0 10 11 0;
#X connect 0 11 12 0;
#X connect 0 12 13 0;
#X connect 0 13 14 0;
#X connect 0 14 15 0;
#X connect 0 15 16 0;
#X connect 0 16 17 0;
#X connect 0 17 18 0;
#X connect 0 18 19 0;
#X connect 38 0 20 0;
#X connect 38 1 21 0;
#X connect 38 2 22 0;
#X connect 38 3 23 0;
#X connect 38 4 24 0;
#X connect 38 5 25 0;
#X connect 38 6 26 0;
#X connect 38 7 27 0;
#X connect 38 8 28 0;
#X connect 38 9 29 0;
#X connect 38 10 30 0;
#X connect 38 11 31 0;
#X connect 38 12 32 0;
#X connect 38 13 33 0;
#X connect 38 14 34 0;
#X connect 38 15 35 0;
#X connect 38 16 36 0;
#X connect 38 17 37 0;
#X connect 39 0 0 0;
#X connect 39 0 38 0;
#X restore 627 154 pd monitorInputs;
#X obj 686 188 r ctlInput;
#X obj 701 354 print;
#X obj 337 794 s ctlInput;
#X obj 337 672 pack;
#X obj 336 609 moses 17;
#X obj 428 793 s ctlInput;
#X obj 428 671 pack;
#X obj 428 637 moses 18;
#X msg 428 750 ribbon \$2;
#X obj 294 348 comport 5 115200;
#X msg 400 298 49;
#X msg 449 299 0;
#X msg 337 751 fader \$1 \$2;
#X msg 253 752 pot \$1 \$2;
#X obj 337 641 - 8;
#X obj 505 791 s ctlInput;
#X obj 505 669 pack;
#X msg 505 748 pot 9 \$2;
#X obj 505 635 moses 19;
#X obj 583 789 s ctlInput;
#X obj 583 667 pack;
#X msg 583 746 fader 9 \$2;
#X obj 585 633 moses 20;
#X obj 677 780 s ctlInput;
#X obj 674 662 pack;
#X msg 676 745 buttons \$1 \$2;
#X obj 694 270 route buttons;
#X obj 673 633 - 19;
#X obj 672 582 moses 38;
#X obj 704 315 route 5;
#X connect 0 0 55 0;
#X connect 2 0 1 0;
#X connect 4 0 1 0;
#X connect 8 0 1 0;
#X connect 9 0 8 0;
#X connect 10 0 11 0;
#X connect 11 0 1 0;
#X connect 14 0 1 0;
#X connect 15 0 14 0;
#X connect 16 0 1 0;
#X connect 18 0 1 0;
#X connect 19 0 1 0;
#X connect 21 0 1 0;
#X connect 22 0 21 0;
#X connect 25 0 26 0;
#X connect 25 1 40 0;
#X connect 26 0 27 0;
#X connect 26 0 38 0;
#X connect 26 1 33 0;
#X connect 27 0 28 1;
#X connect 28 0 32 1;
#X connect 28 0 43 1;
#X connect 28 0 49 1;
#X connect 28 0 52 1;
#X connect 28 0 62 1;
#X connect 28 0 66 1;
#X connect 28 0 70 1;
#X connect 30 0 1 0;
#X connect 31 0 28 0;
#X connect 33 0 34 0;
#X connect 33 1 31 0;
#X connect 34 0 36 0;
#X connect 35 0 32 0;
#X connect 35 0 44 0;
#X connect 35 0 50 0;
#X connect 36 0 35 0;
#X connect 39 0 28 1;
#X connect 40 0 39 0;
#X connect 40 0 34 1;
#X connect 40 1 34 1;
#X connect 43 0 59 0;
#X connect 44 0 43 0;
#X connect 46 0 72 0;
#X connect 49 0 58 0;
#X connect 50 0 60 0;
#X connect 50 1 53 0;
#X connect 52 0 54 0;
#X connect 53 0 52 0;
#X connect 53 1 64 0;
#X connect 54 0 51 0;
#X connect 55 0 25 0;
#X connect 56 0 55 0;
#X connect 57 0 55 0;
#X connect 58 0 48 0;
#X connect 59 0 41 0;
#X connect 60 0 49 0;
#X connect 62 0 63 0;
#X connect 63 0 61 0;
#X connect 64 0 62 0;
#X connect 64 1 68 0;
#X connect 66 0 67 0;
#X connect 67 0 65 0;
#X connect 68 0 66 0;
#X connect 68 1 74 0;
#X connect 70 0 71 0;
#X connect 71 0 69 0;
#X connect 72 0 75 0;
#X connect 73 0 70 0;
#X connect 74 0 73 0;
#X connect 75 0 47 0;
