#N canvas 1150 457 617 522 10;
#X obj 75 270 outlet~;
#X obj 74 35 inlet~;
#X obj 365 49 r fromG;
#X obj 365 86 route ribbon;
#X obj 387 171 mtof;
#X obj 388 132 * 127;
#X obj 342 131 == 0;
#X obj 180 110 *~;
#X obj 195 70 line~;
#X msg 195 35 \$1 10;
#X obj 251 110 *~;
#X obj 266 70 line~;
#X msg 266 35 \$1 10;
#X obj 195 8 == 0;
#X obj 195 -19 t f f;
#X obj 377 237 line~;
#X msg 387 209 \$1 10;
#X obj 75 207 vcf~ 5;
#X obj 75 238 *~ 3;
#X connect 1 0 7 0;
#X connect 1 0 10 0;
#X connect 2 0 3 0;
#X connect 3 0 5 0;
#X connect 3 0 6 0;
#X connect 4 0 16 0;
#X connect 5 0 4 0;
#X connect 6 0 14 0;
#X connect 7 0 17 0;
#X connect 8 0 7 1;
#X connect 9 0 8 0;
#X connect 10 0 0 0;
#X connect 11 0 10 1;
#X connect 12 0 11 0;
#X connect 13 0 9 0;
#X connect 14 0 13 0;
#X connect 14 1 12 0;
#X connect 15 0 17 1;
#X connect 16 0 15 0;
#X connect 17 0 18 0;
#X connect 18 0 0 0;
