#N canvas 0 96 1920 984 10;
#X obj 311 172 inlet~;
#X obj 250 455 - 100;
#X obj 250 608 s 2pLoopG;
#X obj 250 561 pack f \$1;
#X msg 250 586 \$2 aEnv \$1;
#X obj 250 425 env~ 8192;
#X obj 367 171 inlet~;
#X obj 329 456 - 100;
#X obj 329 609 s 2pLoopG;
#X obj 329 562 pack f \$1;
#X msg 329 587 \$2 aEnv \$1;
#X obj 329 426 env~ 8192;
#X obj 277 511 \$1;
#X obj 250 487 t f b;
#X obj 277 534 + 1;
#X obj 306 334 dac~;
#X obj 299 224 mChannel 2;
#X obj 379 222 mChannel 1;
#X connect 0 0 16 0;
#X connect 1 0 13 0;
#X connect 3 0 4 0;
#X connect 4 0 2 0;
#X connect 5 0 1 0;
#X connect 6 0 17 0;
#X connect 7 0 9 0;
#X connect 9 0 10 0;
#X connect 10 0 8 0;
#X connect 11 0 7 0;
#X connect 12 0 14 0;
#X connect 13 0 3 0;
#X connect 13 1 12 0;
#X connect 14 0 3 1;
#X connect 16 0 5 0;
#X connect 16 0 15 1;
#X connect 17 0 11 0;
#X connect 17 0 15 0;
#X coords 0 984 1 983 83 717 0;
