#N canvas 377 331 888 666 12;
#X obj 87 45 inlet~;
#X obj 246 333 tgl 15 0 empty empty empty 17 7 0 10 #fcfcfc #000000 #000000 0 1;
#X obj 86 500 outlet~;
#N canvas 321 292 626 424 filter 0;
#X obj 79 277 *~;
#X obj 126 277 *~;
#X obj 237 260 line~;
#X obj 308 260 line~;
#X obj 237 175 tgl 15 0 empty empty empty 17 7 0 10 #fcfcfc #000000 #000000 0 1;
#X obj 237 198 sel 0 1;
#X msg 237 226 1 10;
#X msg 269 225 0 10;
#X msg 308 226 0 10;
#X msg 340 225 1 10;
#X obj 79 68 inlet~;
#X obj 79 336 outlet~;
#X obj 128 170 vcf~ 1;
#X obj 144 86 mtof;
#X obj 144 138 line~;
#X msg 144 112 \$1 10;
#X obj 144 23 inlet;
#X obj 194 138 line;
#X msg 194 112 \$1 100;
#X obj 194 41 inlet;
#X obj 256 42 inlet;
#X obj 128 213 *~;
#X obj 194 80 * 10;
#X obj 144 55 * 150;
#X connect 0 0 11 0;
#X connect 1 0 11 0;
#X connect 2 0 0 1;
#X connect 3 0 1 1;
#X connect 4 0 5 0;
#X connect 5 0 6 0;
#X connect 5 0 8 0;
#X connect 5 1 7 0;
#X connect 5 1 9 0;
#X connect 6 0 2 0;
#X connect 7 0 2 0;
#X connect 8 0 3 0;
#X connect 9 0 3 0;
#X connect 10 0 0 0;
#X connect 10 0 12 0;
#X connect 12 0 21 0;
#X connect 13 0 15 0;
#X connect 14 0 12 1;
#X connect 15 0 14 0;
#X connect 16 0 23 0;
#X connect 17 0 12 2;
#X connect 17 0 21 1;
#X connect 18 0 17 0;
#X connect 19 0 22 0;
#X connect 20 0 5 0;
#X connect 21 0 1 0;
#X connect 22 0 18 0;
#X connect 23 0 13 0;
#X restore 87 346 pd filter;
#N canvas 525 164 992 749 delay 0;
#X obj 125 316 *~;
#X obj -89 251 line~;
#X obj -18 251 line~;
#X obj -89 166 tgl 15 0 empty empty empty 17 7 0 10 #fcfcfc #000000 #000000 0 1;
#X obj -89 189 sel 0 1;
#X msg -89 217 1 10;
#X msg -57 216 0 10;
#X msg -18 217 0 10;
#X msg 14 216 1 10;
#X obj 78 70 inlet~;
#X obj 79 429 outlet~;
#X obj 144 43 inlet;
#X obj 194 41 inlet;
#X obj 292 40 inlet;
#X obj 126 257 +~;
#X msg 141 113 \$1 10;
#X obj 141 148 line~;
#X obj 192 312 +~;
#X obj 208 271 *~;
#X msg 198 121 \$1 10;
#X obj 198 156 line~;
#X obj 243 40 inlet;
#X obj 78 316 *~ 1;
#X obj 126 377 *~;
#X msg 250 119 \$1 10;
#X obj 250 154 line~;
#X obj 141 79 * 500;
#X obj 217 373 delwrite~ delay\$1 1000;
#X obj 141 225 vd~ delay\$1;
#X connect 0 0 23 0;
#X connect 2 0 0 1;
#X connect 3 0 4 0;
#X connect 4 0 5 0;
#X connect 4 0 7 0;
#X connect 4 1 6 0;
#X connect 4 1 8 0;
#X connect 5 0 1 0;
#X connect 6 0 1 0;
#X connect 7 0 2 0;
#X connect 8 0 2 0;
#X connect 9 0 17 0;
#X connect 9 0 22 0;
#X connect 11 0 26 0;
#X connect 12 0 19 0;
#X connect 13 0 4 0;
#X connect 14 0 0 0;
#X connect 15 0 16 0;
#X connect 16 0 28 0;
#X connect 17 0 27 0;
#X connect 18 0 17 1;
#X connect 19 0 20 0;
#X connect 20 0 18 1;
#X connect 21 0 24 0;
#X connect 22 0 10 0;
#X connect 23 0 10 0;
#X connect 24 0 25 0;
#X connect 25 0 23 1;
#X connect 26 0 15 0;
#X connect 28 0 14 1;
#X connect 28 0 18 0;
#X restore 86 185 pd delay;
#X obj 245 172 tgl 15 0 empty empty empty 17 7 0 10 #fcfcfc #000000 #000000 0 1;
#X floatatom -55 289 5 0 0 0 - - - 0;
#X floatatom -65 121 5 0 0 0 - - - 0;
#X floatatom -19 122 5 0 0 0 - - - 0;
#X floatatom 22 121 5 0 0 0 - - - 0;
#X floatatom -21 287 5 0 0 0 - - - 0;
#X floatatom 28 291 5 0 0 0 - - - 0;
#X obj 288 63 r fromG;
#X obj 278 134 route del delT delF delM fil filC filQ vol;
#X obj 87 429 *~;
#X obj 140 412 line~;
#X msg 140 387 \$1 10;
#X obj 290 91 route master\$1;
#X obj 201 385 loadbang;
#X msg 201 408 1;
#X obj 185 66 loadbang;
#X msg 106 110 100;
#X msg 147 111 0.5;
#X msg 185 109 1;
#X msg 225 108 0;
#X obj 103 242 loadbang;
#X msg 103 295 500;
#X msg 144 296 2;
#X msg 182 294 0;
#X connect 0 0 4 0;
#X connect 1 0 3 3;
#X connect 3 0 14 0;
#X connect 4 0 3 0;
#X connect 5 0 4 4;
#X connect 6 0 3 1;
#X connect 7 0 4 1;
#X connect 8 0 4 2;
#X connect 9 0 4 3;
#X connect 10 0 3 2;
#X connect 12 0 17 0;
#X connect 13 0 4 4;
#X connect 13 1 4 1;
#X connect 13 2 4 2;
#X connect 13 3 4 3;
#X connect 13 4 3 3;
#X connect 13 5 3 1;
#X connect 13 6 3 2;
#X connect 13 7 16 0;
#X connect 14 0 2 0;
#X connect 15 0 14 1;
#X connect 16 0 15 0;
#X connect 17 0 13 0;
#X connect 18 0 19 0;
#X connect 19 0 16 0;
#X connect 20 0 21 0;
#X connect 20 0 22 0;
#X connect 20 0 23 0;
#X connect 20 0 24 0;
#X connect 21 0 4 1;
#X connect 22 0 4 2;
#X connect 23 0 4 3;
#X connect 24 0 4 4;
#X connect 25 0 26 0;
#X connect 25 0 27 0;
#X connect 25 0 28 0;
#X connect 26 0 3 1;
#X connect 27 0 3 2;
#X connect 28 0 3 3;
