#N canvas 573 130 1531 765 12;
#N canvas 2 101 1265 660 makeloops 0;
#X obj 486 499 symbol;
#X msg 484 471 latom;
#X msg 498 -83 \; pd-loops clear;
#X obj 463 550 pack f s 2 2;
#X obj 461 31 until;
#X msg 461 62 1;
#X obj 461 87 +;
#X obj 491 87 int;
#X msg 500 31 0;
#X obj 461 257 until;
#X msg 461 288 1;
#X obj 461 313 +;
#X obj 491 313 int;
#X msg 500 257 0;
#X obj 465 131 t b f;
#X obj 461 227 t f b b f;
#X obj 470 708 pack f s f f f f;
#X msg 517 812 \; pd-loops obj \$5 \$6 \$2 \$3 \$4;
#X obj 529 609 - 1;
#X obj 569 600 - 1, f 4;
#X obj 570 652 * 65;
#X obj 530 638 * 110;
#X obj 406 29 s init;
#X obj 461 1 t b f b b;
#X obj 224 146 until;
#X msg 224 177 1;
#X obj 224 202 +;
#X obj 254 202 int;
#X msg 268 161 0;
#X obj 228 246 t b f;
#X obj 234 451 symbol;
#X obj 277 561 - 1;
#X obj 317 562 - 1, f 4;
#X obj 317 644 * 65;
#X obj 280 641 * 110;
#X msg 232 423 channelstrip;
#X obj 209 699 pack f s f f f f;
#X obj 202 740 t a a a a a a a a;
#X obj 463 742 t a a a a a a a a;
#X obj -472 340 until;
#X msg -472 371 1;
#X obj -472 396 +;
#X obj -442 396 int;
#X msg -433 340 -1;
#X obj -472 536 until;
#X msg -472 567 1;
#X obj -472 592 +;
#X obj -442 592 int;
#X obj -472 506 t b f b b;
#X msg -433 536 -1;
#X obj -456 686 pack;
#X obj -396 641 + 16;
#X msg -505 734 \; pd-loops connect \$1 0 \$2 0;
#X obj -466 635 +;
#X obj -415 617 * 4;
#X obj 723 80 v channels;
#X obj 804 73 v scenes;
#X msg 555 -28 3;
#X obj 465 -26 v channels;
#X obj 464 178 v scenes;
#X obj 221 38 v channels;
#X obj 323 -101 bng 16 250 50 0 empty empty empty 17 7 0 10 #fcfcfc #000000 #000000;
#X obj -472 228 v channels;
#X obj -473 475 v scenes;
#X obj -380 461 v scenes;
#X obj -383 560 *;
#X obj -368 489 v channels;
#X obj 95 -67 bng 15 250 50 0 empty empty empty 17 7 0 10 #fcfcfc #000000 #000000;
#X obj -472 428 t b f f b b;
#X obj 688 173 v channelX;
#X obj 780 172 v sceneY;
#X obj 596 622 v sceneY;
#X obj 611 585 v channelX;
#X obj 350 609 v sceneY;
#X obj 365 572 v channelX;
#X obj 222 527 unpack f s f f;
#X obj 473 575 unpack f s f f;
#X obj 209 298 t f f a f b;
#X obj 461 346 t b f a f b;
#X obj 274 358 v scenes;
#X obj 211 488 pack f s f f;
#X obj 274 395 + 1;
#X obj 350 -96 t b b b b b;
#X obj 673 -27 t b;
#X obj 40 453 symbol;
#X obj 123 564 - 1, f 4;
#X obj 123 646 * 65;
#X obj 86 643 * 110;
#X obj 8 742 t a a a a a a a a;
#X obj 156 611 v sceneY;
#X obj 171 574 v channelX;
#X obj 28 529 unpack f s f f;
#X obj 15 300 t f f a f b;
#X obj 80 360 v scenes;
#X obj 17 490 pack f s f f;
#X obj 80 397 + 1;
#X msg 38 425 master;
#X obj 16 274 v channels;
#X obj 24 213 bng 15 250 50 0 empty empty empty 17 7 0 10 #fcfcfc #000000 #000000;
#X obj 224 116 t f f b b;
#X obj -653 332 until;
#X msg -653 363 1;
#X obj -653 388 +;
#X obj -623 388 int;
#X msg -614 332 -1;
#X obj -637 678 pack;
#X obj -642 588 + 16;
#X msg -686 726 \; pd-loops connect \$1 0 \$2 0;
#X obj -653 220 v channels;
#X obj -610 450 v scenes;
#X obj -613 549 *;
#X obj -598 478 v channels;
#X obj -653 420 t b f f b b;
#X obj -472 310 t f f b b;
#X obj -596 580 +;
#X obj 15 701 pack f s f f f 0;
#X obj 714 -76 loadbang;
#X msg 31 786 \; pd-loops obj \$5 \$6 \$2 \$1;
#X obj 22 565 + 1;
#X msg 225 784 \; pd-loops obj \$5 \$6 \$2 \$1;
#X msg 705 129 130;
#X msg 772 124 90;
#X msg 798 15 3;
#X msg 731 20 8;
#X obj -229 453 symbol;
#X obj -146 564 - 1, f 4;
#X obj -146 646 * 65;
#X obj -183 643 * 110;
#X obj -261 742 t a a a a a a a a;
#X obj -113 611 v sceneY;
#X obj -98 574 v channelX;
#X obj -241 529 unpack f s f f;
#X obj -254 300 t f f a f b;
#X obj -189 360 v scenes;
#X obj -252 490 pack f s f f;
#X obj -189 397 + 1;
#X obj -253 274 v channels;
#X obj -245 213 bng 15 250 50 0 empty empty empty 17 7 0 10 #fcfcfc #000000 #000000;
#X obj -254 701 pack f s f f f 0;
#X msg -238 786 \; pd-loops obj \$5 \$6 \$2 \$1;
#X msg -231 425 sFX;
#X obj -183 601 + 1;
#X obj -247 565 + 2;
#X obj -111 211 t f f;
#X obj -856 332 until;
#X msg -856 363 1;
#X obj -856 388 +;
#X obj -826 388 int;
#X obj -856 302 t b f b b;
#X msg -817 332 -1;
#X obj -840 678 pack;
#X obj -845 588 + 16;
#X obj -856 220 v channels;
#X obj -813 450 v scenes;
#X obj -816 549 *;
#X obj -801 478 v channels;
#X obj -856 420 t b f f b b;
#X obj -799 580 +;
#X msg -889 773 \; pd-loops connect \$1 1 \$2 0;
#X obj -653 302 t f f b b;
#X obj -1014 678 pack;
#X obj -1030 220 v channels;
#X obj -987 450 v scenes;
#X obj -990 549 *;
#X obj -975 478 v channels;
#X obj -1030 420 t b f f b b;
#X obj -973 580 +;
#X obj -1025 639 + 1;
#X obj -1005 610 t f f;
#X msg -1080 722 \; pd-loops connect \$1 0 \$2 0;
#X msg -884 726 \; pd-loops connect \$1 1 \$2 1;
#X obj -810 632 + 0;
#X text -690 782 if sFx;
#X text -776 630 if sFx set to 1;
#X connect 0 0 3 1;
#X connect 1 0 0 0;
#X connect 3 0 76 0;
#X connect 4 0 5 0;
#X connect 5 0 6 0;
#X connect 6 0 7 0;
#X connect 6 0 14 0;
#X connect 7 0 6 1;
#X connect 8 0 7 0;
#X connect 9 0 10 0;
#X connect 10 0 11 0;
#X connect 11 0 12 0;
#X connect 11 0 78 0;
#X connect 12 0 11 1;
#X connect 13 0 12 0;
#X connect 14 0 59 0;
#X connect 14 1 3 2;
#X connect 15 0 9 0;
#X connect 15 1 13 0;
#X connect 16 0 38 0;
#X connect 18 0 21 0;
#X connect 19 0 20 0;
#X connect 20 0 16 5;
#X connect 21 0 16 4;
#X connect 23 0 22 0;
#X connect 23 1 4 0;
#X connect 23 2 8 0;
#X connect 24 0 25 0;
#X connect 25 0 26 0;
#X connect 26 0 27 0;
#X connect 26 0 29 0;
#X connect 26 0 77 0;
#X connect 27 0 26 1;
#X connect 28 0 27 0;
#X connect 30 0 80 1;
#X connect 31 0 34 0;
#X connect 32 0 33 0;
#X connect 33 0 36 5;
#X connect 34 0 36 4;
#X connect 35 0 30 0;
#X connect 36 0 37 0;
#X connect 37 7 119 0;
#X connect 38 7 17 0;
#X connect 39 0 40 0;
#X connect 40 0 41 0;
#X connect 41 0 42 0;
#X connect 41 0 68 0;
#X connect 42 0 41 1;
#X connect 43 0 42 0;
#X connect 44 0 45 0;
#X connect 45 0 46 0;
#X connect 46 0 47 0;
#X connect 46 0 53 0;
#X connect 47 0 46 1;
#X connect 48 1 44 0;
#X connect 48 2 49 0;
#X connect 49 0 47 0;
#X connect 50 0 52 0;
#X connect 51 0 50 1;
#X connect 53 0 50 0;
#X connect 54 0 53 1;
#X connect 58 0 23 0;
#X connect 59 0 15 0;
#X connect 60 0 99 0;
#X connect 61 0 82 0;
#X connect 62 0 113 0;
#X connect 63 0 48 0;
#X connect 64 0 65 0;
#X connect 64 0 54 1;
#X connect 65 0 51 1;
#X connect 66 0 65 1;
#X connect 67 0 62 0;
#X connect 68 0 63 0;
#X connect 68 1 54 0;
#X connect 68 2 51 0;
#X connect 68 3 64 0;
#X connect 68 4 66 0;
#X connect 71 0 20 1;
#X connect 72 0 21 1;
#X connect 73 0 33 1;
#X connect 74 0 34 1;
#X connect 75 0 36 0;
#X connect 75 1 36 1;
#X connect 75 2 31 0;
#X connect 75 2 36 2;
#X connect 75 3 32 0;
#X connect 75 3 36 3;
#X connect 76 0 16 0;
#X connect 76 1 16 1;
#X connect 76 2 16 2;
#X connect 76 2 18 0;
#X connect 76 3 16 3;
#X connect 76 3 19 0;
#X connect 77 1 80 0;
#X connect 77 2 35 0;
#X connect 77 3 80 2;
#X connect 77 4 74 0;
#X connect 77 4 73 0;
#X connect 77 4 79 0;
#X connect 78 1 3 0;
#X connect 78 2 1 0;
#X connect 78 3 3 3;
#X connect 78 4 72 0;
#X connect 78 4 71 0;
#X connect 79 0 81 0;
#X connect 80 0 75 0;
#X connect 81 0 80 3;
#X connect 82 0 62 0;
#X connect 82 1 60 0;
#X connect 82 2 58 0;
#X connect 82 3 2 0;
#X connect 82 4 83 0;
#X connect 83 0 123 0;
#X connect 83 0 122 0;
#X connect 83 0 120 0;
#X connect 83 0 121 0;
#X connect 84 0 94 1;
#X connect 85 0 86 0;
#X connect 87 0 115 4;
#X connect 88 7 117 0;
#X connect 89 0 86 1;
#X connect 90 0 87 1;
#X connect 91 0 118 0;
#X connect 91 1 115 1;
#X connect 91 2 87 0;
#X connect 91 2 115 2;
#X connect 91 3 85 0;
#X connect 91 3 115 3;
#X connect 92 1 94 0;
#X connect 92 2 96 0;
#X connect 92 3 94 2;
#X connect 92 4 90 0;
#X connect 92 4 89 0;
#X connect 92 4 93 0;
#X connect 93 0 95 0;
#X connect 94 0 91 0;
#X connect 95 0 94 3;
#X connect 96 0 84 0;
#X connect 97 0 92 0;
#X connect 98 0 97 0;
#X connect 99 0 143 0;
#X connect 99 1 24 0;
#X connect 99 2 28 0;
#X connect 100 0 101 0;
#X connect 101 0 102 0;
#X connect 102 0 103 0;
#X connect 102 0 112 0;
#X connect 103 0 102 1;
#X connect 104 0 103 0;
#X connect 105 0 107 0;
#X connect 106 0 105 0;
#X connect 108 0 159 0;
#X connect 109 0 110 0;
#X connect 110 0 106 1;
#X connect 110 0 114 0;
#X connect 111 0 110 1;
#X connect 111 0 114 1;
#X connect 112 2 106 0;
#X connect 112 3 109 0;
#X connect 112 4 111 0;
#X connect 113 0 159 0;
#X connect 113 1 39 0;
#X connect 113 2 43 0;
#X connect 114 0 105 1;
#X connect 115 0 88 0;
#X connect 116 0 83 0;
#X connect 118 0 115 0;
#X connect 120 0 69 0;
#X connect 121 0 70 0;
#X connect 122 0 56 0;
#X connect 123 0 55 0;
#X connect 124 0 134 1;
#X connect 125 0 126 0;
#X connect 127 0 138 4;
#X connect 128 7 139 0;
#X connect 129 0 126 1;
#X connect 130 0 127 1;
#X connect 131 0 142 0;
#X connect 131 1 138 1;
#X connect 131 2 138 2;
#X connect 131 2 141 0;
#X connect 131 3 125 0;
#X connect 131 3 138 3;
#X connect 132 1 134 0;
#X connect 132 2 140 0;
#X connect 132 3 134 2;
#X connect 132 4 130 0;
#X connect 132 4 129 0;
#X connect 132 4 133 0;
#X connect 133 0 135 0;
#X connect 134 0 131 0;
#X connect 135 0 134 3;
#X connect 136 0 132 0;
#X connect 137 0 136 0;
#X connect 138 0 128 0;
#X connect 140 0 124 0;
#X connect 141 0 127 0;
#X connect 142 0 138 0;
#X connect 143 0 132 0;
#X connect 143 1 92 0;
#X connect 144 0 145 0;
#X connect 145 0 146 0;
#X connect 146 0 147 0;
#X connect 146 0 156 0;
#X connect 147 0 146 1;
#X connect 148 0 165 0;
#X connect 148 1 144 0;
#X connect 148 2 149 0;
#X connect 149 0 147 0;
#X connect 150 0 170 0;
#X connect 151 0 150 0;
#X connect 152 0 148 0;
#X connect 153 0 154 0;
#X connect 154 0 151 1;
#X connect 154 0 157 0;
#X connect 155 0 154 1;
#X connect 155 0 157 1;
#X connect 156 2 151 0;
#X connect 156 3 153 0;
#X connect 156 4 155 0;
#X connect 157 0 171 0;
#X connect 159 0 148 0;
#X connect 159 1 100 0;
#X connect 159 2 104 0;
#X connect 160 0 169 0;
#X connect 162 0 163 0;
#X connect 163 0 166 0;
#X connect 164 0 163 1;
#X connect 164 0 166 1;
#X connect 165 3 162 0;
#X connect 165 4 164 0;
#X connect 166 0 168 0;
#X connect 167 0 160 0;
#X connect 168 0 167 0;
#X connect 168 1 160 1;
#X connect 171 0 150 1;
#X restore 125 70 pd makeloops;
#N canvas 577 256 1280 653 loops 0;
#X obj 1040 26 master 9;
#X obj 0 206 latom 1 3;
#X obj 0 296 channelstrip 1;
#X obj 650 296 channelstrip 6;
#X obj 130 296 channelstrip 2;
#X obj 260 296 channelstrip 3;
#X obj 390 296 channelstrip 4;
#X obj 520 296 channelstrip 5;
#X obj 780 296 channelstrip 7;
#X obj 910 296 channelstrip 8;
#X obj 130 206 latom 2 3;
#X obj 0 26 latom 1 1;
#X obj 260 116 latom 3 2;
#X obj 0 116 latom 1 2;
#X obj 130 26 latom 2 1;
#X obj 130 116 latom 2 2;
#X obj 260 26 latom 3 1;
#X obj 260 206 latom 3 3;
#X obj 390 26 latom 4 1;
#X obj 390 116 latom 4 2;
#X obj 390 206 latom 4 3;
#X obj 520 26 latom 5 1;
#X obj 520 116 latom 5 2;
#X obj 520 206 latom 5 3;
#X obj 650 26 latom 6 1;
#X obj 650 116 latom 6 2;
#X obj 650 206 latom 6 3;
#X obj 780 26 latom 7 1;
#X obj 780 116 latom 7 2;
#X obj 780 206 latom 7 3;
#X obj 910 26 latom 8 1;
#X obj 910 116 latom 8 2;
#X obj 910 206 latom 8 3;
#X obj 422 467 #dac~ 1 2 3 4 5 6 7 8;
#X connect 1 0 2 0;
#X connect 2 0 0 0;
#X connect 2 1 0 1;
#X connect 2 1 33 0;
#X connect 3 0 0 0;
#X connect 3 1 0 1;
#X connect 3 1 33 5;
#X connect 4 0 0 0;
#X connect 4 1 0 1;
#X connect 4 1 33 1;
#X connect 5 0 0 0;
#X connect 5 1 0 1;
#X connect 5 1 33 2;
#X connect 6 0 0 0;
#X connect 6 1 0 1;
#X connect 6 1 33 3;
#X connect 7 0 0 0;
#X connect 7 1 0 1;
#X connect 7 1 33 4;
#X connect 8 0 0 0;
#X connect 8 1 0 1;
#X connect 8 1 33 6;
#X connect 9 0 0 0;
#X connect 9 1 0 1;
#X connect 9 1 33 7;
#X connect 10 0 4 0;
#X connect 11 0 2 0;
#X connect 12 0 5 0;
#X connect 13 0 2 0;
#X connect 14 0 4 0;
#X connect 15 0 4 0;
#X connect 16 0 5 0;
#X connect 17 0 5 0;
#X connect 18 0 6 0;
#X connect 19 0 6 0;
#X connect 20 0 6 0;
#X connect 21 0 7 0;
#X connect 22 0 7 0;
#X connect 23 0 7 0;
#X connect 24 0 3 0;
#X connect 25 0 3 0;
#X connect 26 0 3 0;
#X connect 27 0 8 0;
#X connect 28 0 8 0;
#X connect 29 0 8 0;
#X connect 30 0 9 0;
#X connect 31 0 9 0;
#X connect 32 0 9 0;
#X coords 0 653 1 652 1391 728 0;
#X restore 128 206 pd loops;
#N canvas 0 94 1920 986 netA 0;
#X obj 243 107 list prepend send;
#X obj 243 133 list trim;
#X obj 243 53 r toAll;
#X obj 689 43 r clock;
#X obj 243 82 list prepend omni;
#X obj 519 513 s fromG;
#X obj 58 66 list prepend send;
#X obj 58 91 list trim;
#X obj 58 9 r 2pLoopG;
#X obj 58 39 list prepend 2pLoopG;
#X obj 519 479 route 2pLoopA;
#X obj 689 118 list prepend send;
#X obj 689 146 list trim;
#X obj 775 145 loadbang;
#X obj 689 189 netsend -u;
#X msg 775 172 connect 192.168.1.255 8099;
#X obj 243 184 netsend -u;
#X obj 519 443 netreceive -u 8005;
#X obj 91 409 netreceive -u 8010;
#X obj 91 612 shell;
#X msg 158 595 sudo date --set='2017-10-27 21:00:00';
#X obj 91 447 route date time;
#X obj 91 534 pack 0 s s;
#X obj 136 497 symbol;
#X obj 184 482 symbol;
#X obj 91 473 t b a;
#X msg 91 569 sudo date --set='\$2 \$3';
#X obj 367 25 r broadcastAddr;
#X obj 367 53 t a b;
#X msg 394 79 disconnect;
#X obj 367 167 t a;
#X msg 367 134 connect \$1 8006;
#X obj 367 105 symbol;
#X obj 571 30 r broadcastAddr;
#X obj 571 58 t a b;
#X msg 598 84 disconnect;
#X obj 571 172 t a;
#X obj 571 110 symbol;
#X msg 571 139 connect \$1 8099;
#X obj 689 83 spigot;
#X obj 748 65 r run;
#X obj 674 441 netreceive -u 8099;
#X obj 674 483 spigot;
#X obj 750 489 r run;
#X obj 750 516 == 0;
#X obj 674 521 s clock;
#X obj 382 546 s fromAll;
#X obj 56 176 r midiNote;
#X obj 56 236 list prepend send;
#X obj 56 261 list trim;
#X obj 56 204 list prepend note;
#X obj 213 296 list prepend send;
#X obj 213 321 list trim;
#X obj 213 268 list prepend GHarp;
#X obj 213 243 list prepend cc;
#X obj 213 215 r midiCC;
#X obj 364 277 list prepend send;
#X obj 364 302 list trim;
#X obj 364 216 r pitch;
#X obj 364 244 list prepend tune;
#X obj 382 396 route GregNote;
#X obj 382 511 s GregNote;
#X obj 382 354 netreceive -u 8006;
#X obj 383 484 pack;
#X obj 383 422 unpack f f f;
#X obj 383 450 - 0;
#X connect 0 0 1 0;
#X connect 1 0 16 0;
#X connect 2 0 4 0;
#X connect 3 0 39 0;
#X connect 4 0 0 0;
#X connect 6 0 7 0;
#X connect 7 0 16 0;
#X connect 8 0 9 0;
#X connect 9 0 6 0;
#X connect 10 0 5 0;
#X connect 11 0 12 0;
#X connect 12 0 14 0;
#X connect 13 0 15 0;
#X connect 15 0 14 0;
#X connect 17 0 10 0;
#X connect 18 0 21 0;
#X connect 20 0 19 0;
#X connect 21 0 25 0;
#X connect 21 1 24 0;
#X connect 22 0 26 0;
#X connect 23 0 22 1;
#X connect 24 0 22 2;
#X connect 25 0 22 0;
#X connect 25 1 23 0;
#X connect 26 0 19 0;
#X connect 27 0 28 0;
#X connect 28 0 32 0;
#X connect 28 1 29 0;
#X connect 29 0 30 0;
#X connect 30 0 16 0;
#X connect 31 0 30 0;
#X connect 32 0 31 0;
#X connect 33 0 34 0;
#X connect 34 0 37 0;
#X connect 34 1 35 0;
#X connect 35 0 36 0;
#X connect 36 0 14 0;
#X connect 37 0 38 0;
#X connect 38 0 36 0;
#X connect 39 0 11 0;
#X connect 40 0 39 1;
#X connect 41 0 42 0;
#X connect 42 0 45 0;
#X connect 43 0 44 0;
#X connect 44 0 42 1;
#X connect 47 0 50 0;
#X connect 48 0 49 0;
#X connect 49 0 16 0;
#X connect 50 0 48 0;
#X connect 51 0 52 0;
#X connect 52 0 16 0;
#X connect 53 0 51 0;
#X connect 54 0 53 0;
#X connect 55 0 54 0;
#X connect 56 0 57 0;
#X connect 57 0 16 0;
#X connect 58 0 59 0;
#X connect 59 0 56 0;
#X connect 60 0 64 0;
#X connect 62 0 60 0;
#X connect 63 0 61 0;
#X connect 64 0 65 0;
#X connect 64 1 63 1;
#X connect 65 0 63 0;
#X restore 125 97 pd netA;
#X obj 619 202 clock;
#X obj 353 110 r fromG;
#X obj 353 141 route rec run rst;
#X obj 422 170 s rst;
#X obj 386 171 s run;
#N canvas 2 137 1265 660 lamp 0;
#X msg 422 251 close;
#X msg 482 245 devices;
#X msg 581 211 open 0;
#X obj 467 78 int;
#X msg 601 147 10;
#N canvas 2 287 1265 653 resampler 0;
#X obj 139 36 inlet;
#X obj 135 215 outlet;
#X obj 141 111 int;
#X obj 83 -87 metro;
#X obj 10 -95 loadbang;
#X obj 138 149 change;
#X obj 159 -96 r fps;
#X obj 207 111 int;
#X obj 204 149 change;
#X obj 260 111 int;
#X obj 257 149 change;
#X obj 326 111 int;
#X obj 323 149 change;
#X obj 203 36 inlet;
#X obj 262 34 inlet;
#X obj 326 34 inlet;
#X obj 67 -44 t b b b b;
#X obj 40 57 tgl 50 0 empty empty empty 17 7 0 10 #fcfcfc #000000 #000000 0 1;
#X floatatom 36 159 5 0 0 0 - - - 0;
#X msg 14 -67 0;
#X connect 0 0 2 1;
#X connect 2 0 5 0;
#X connect 3 0 16 0;
#X connect 4 0 19 0;
#X connect 5 0 1 0;
#X connect 6 0 3 1;
#X connect 7 0 8 0;
#X connect 8 0 1 0;
#X connect 9 0 10 0;
#X connect 10 0 1 0;
#X connect 11 0 12 0;
#X connect 12 0 1 0;
#X connect 13 0 7 1;
#X connect 14 0 9 1;
#X connect 15 0 11 1;
#X connect 16 0 2 0;
#X connect 16 1 7 0;
#X connect 16 2 9 0;
#X connect 16 3 11 0;
#X connect 17 0 3 0;
#X connect 17 0 18 0;
#X connect 19 0 17 0;
#X coords 0 -1 1 1 85 60 1 23 52;
#X restore 496 108 pd resampler;
#X obj 816 -36 s fps;
#X msg 816 -93 1000;
#X obj 816 -67 /;
#X obj 816 -123 t b f;
#X floatatom 867 -38 5 0 0 0 - - - 0;
#X text 849 -154 fps;
#X obj 533 79 int;
#X obj 467 -36 / 100;
#X obj 533 -42 / 100;
#X floatatom 470 -65 5 0 100 0 - - - 0;
#X floatatom 538 -78 5 0 100 0 - - - 0;
#X obj 467 -7 clip 0 1;
#X obj 533 -8 clip 0 1;
#X obj 533 50 + 64;
#X obj 533 24 * 63;
#X obj 604 79 int;
#X obj 604 -42 / 100;
#X obj 604 -8 clip 0 1;
#X obj 604 24 * 63;
#X floatatom 602 -76 5 0 100 0 - - - 0;
#X obj 604 50 + 128;
#X obj 672 79 int;
#X obj 672 -42 / 100;
#X obj 672 -8 clip 0 1;
#X obj 672 24 * 63;
#X obj 672 50 + 192;
#X floatatom 671 -88 5 0 100 0 - - - 0;
#X obj 467 49 + 0;
#X obj 467 23 * 63;
#X msg 33 -24 frq \$1;
#X msg 83 -24 Q \$1;
#X msg 124 -24 thr \$1;
#X msg 171 -25 gain \$1;
#X obj 555 188 loadbang;
#X obj 55 -176 print;
#X obj 138 -278 ctlin;
#X obj 160 -221 pack;
#X obj 88 -238 / 127;
#X obj 160 -153 s Kontrol;
#X msg 160 -190 \$2 \$1;
#X obj 33 -102 r Kontrol;
#X msg 224 -25 smth \$1;
#X msg 27 173 frq \$1;
#X msg 77 173 Q \$1;
#X msg 118 173 thr \$1;
#X msg 165 172 gain \$1;
#X obj 27 95 r Kontrol;
#X msg 218 172 smth \$1;
#X msg 36 408 frq \$1;
#X msg 86 408 Q \$1;
#X msg 127 408 thr \$1;
#X msg 174 407 gain \$1;
#X obj 36 330 r Kontrol;
#X msg 227 407 smth \$1;
#X obj 36 352 route 16 4 19 8;
#X obj 33 -80 route 14 2 17 5;
#X obj 27 117 route 15 3 18 6;
#X msg 280 -205 dsp 1;
#X obj 287 -175 s pd;
#X obj 49 62 s ch1;
#X obj 43 274 s ch2;
#X obj 37 536 s ch3;
#X obj 456 -160 r ch3;
#X obj 528 -111 r ch2;
#X obj 591 -107 r ch1;
#X obj -51 -22 *~;
#X msg -12 -97 1;
#X obj -1 -242 r Kontrol;
#X obj -1 -220 route 13;
#X obj 558 304 comport 57600;
#X msg 381 287 100;
#N canvas 47 54 1319 714 resampler 0;
#X obj 139 36 inlet;
#X obj 135 215 outlet;
#X obj 141 111 int;
#X obj 92 -66 metro;
#X obj 89 -127 loadbang;
#X msg 93 -99 1;
#X obj 138 149 change;
#X obj 159 -96 r fps;
#X obj 207 111 int;
#X obj 204 149 change;
#X obj 260 111 int;
#X obj 257 149 change;
#X obj 326 111 int;
#X obj 323 149 change;
#X obj 203 36 inlet;
#X obj 262 34 inlet;
#X obj 326 34 inlet;
#X obj 67 -44 t b b b b;
#X connect 0 0 2 1;
#X connect 2 0 6 0;
#X connect 3 0 17 0;
#X connect 4 0 5 0;
#X connect 5 0 3 0;
#X connect 6 0 1 0;
#X connect 7 0 3 1;
#X connect 8 0 9 0;
#X connect 9 0 1 0;
#X connect 10 0 11 0;
#X connect 11 0 1 0;
#X connect 12 0 13 0;
#X connect 13 0 1 0;
#X connect 14 0 8 1;
#X connect 15 0 10 1;
#X connect 16 0 12 1;
#X connect 17 0 2 0;
#X connect 17 1 8 0;
#X connect 17 2 10 0;
#X connect 17 3 12 0;
#X restore 362 156 pd resampler;
#X obj 361 37 clip 0 1;
#X obj 361 124 int;
#X obj 375 -44 / 100;
#X floatatom 378 -73 5 0 100 0 - - - 0;
#X msg 324 -102 1;
#X msg 371 -101 0;
#X obj 317 -14 r ch1;
#X obj 361 97 + 10;
#X obj 361 67 * 245;
#X obj 280 -247 loadbang;
#X obj 802 -178 loadbang;
#X obj 560 395 vsl 15 128 0 1 0 0 empty empty empty 0 -9 0 10 #fcfcfc #000000 #000000 0 1;
#X obj 560 587 s Kontrol;
#X msg 560 554 13 \$1;
#X obj 657 394 vsl 15 128 0 1 0 0 empty empty empty 0 -9 0 10 #fcfcfc #000000 #000000 0 1;
#X obj 657 586 s Kontrol;
#X obj 736 393 vsl 15 128 0 1 0 0 empty empty empty 0 -9 0 10 #fcfcfc #000000 #000000 0 1;
#X obj 736 585 s Kontrol;
#X obj 808 392 vsl 15 128 0 1 0 0 empty empty empty 0 -9 0 10 #fcfcfc #000000 #000000 0 1;
#X obj 808 584 s Kontrol;
#X obj 880 392 vsl 15 128 0 1 0 0 empty empty empty 0 -9 0 10 #fcfcfc #000000 #000000 0 1;
#X obj 880 584 s Kontrol;
#X msg 880 551 5 \$1;
#X text 671 617 frq;
#X text 747 618 thr;
#X text 821 616 gain;
#X text 889 617 smth;
#X obj 979 394 vsl 15 128 0 1 0 0 empty empty empty 0 -9 0 10 #fcfcfc #000000 #000000 0 1;
#X obj 979 586 s Kontrol;
#X obj 1058 393 vsl 15 128 0 1 0 0 empty empty empty 0 -9 0 10 #fcfcfc #000000 #000000 0 1;
#X obj 1058 585 s Kontrol;
#X obj 1130 392 vsl 15 128 0 1 0 0 empty empty empty 0 -9 0 10 #fcfcfc #000000 #000000 0 1;
#X obj 1130 584 s Kontrol;
#X obj 1202 392 vsl 15 128 0 1 0 0 empty empty empty 0 -9 0 10 #fcfcfc #000000 #000000 0 1;
#X obj 1202 584 s Kontrol;
#X text 993 617 frq;
#X text 1069 618 thr;
#X text 1143 616 gain;
#X text 1211 617 smth;
#X msg 1202 551 6 \$1;
#X obj 1316 396 vsl 15 128 0 1 0 0 empty empty empty 0 -9 0 10 #fcfcfc #000000 #000000 0 1;
#X obj 1316 585 s Kontrol;
#X obj 1395 392 vsl 15 128 0 1 0 0 empty empty empty 0 -9 0 10 #fcfcfc #000000 #000000 0 1;
#X obj 1395 584 s Kontrol;
#X obj 1467 391 vsl 15 128 0 1 0 0 empty empty empty 0 -9 0 10 #fcfcfc #000000 #000000 0 1;
#X obj 1467 583 s Kontrol;
#X obj 1539 391 vsl 15 128 0 1 0 0 empty empty empty 0 -9 0 10 #fcfcfc #000000 #000000 0 1;
#X obj 1539 583 s Kontrol;
#X text 1330 616 frq;
#X text 1406 617 thr;
#X text 1480 615 gain;
#X text 1548 616 smth;
#X msg 1539 550 8 \$1;
#X msg 435 199 50;
#X floatatom 436 376 5 0 0 0 - - - 0;
#X msg 674 -147 8;
#X msg 713 -143 100;
#X obj 145 54 spigot;
#N canvas 0 814 1920 986 filterenv 0;
#X obj 97 139 env~;
#X obj 97 167 / 100;
#X msg 99 272 0;
#X obj 99 247 moses;
#X obj 176 256 -;
#X obj 176 310 *;
#X floatatom 208 192 5 0 0 0 - - - 0;
#X obj 188 413 outlet;
#X obj 235 -43 inlet;
#X obj 321 78 *;
#X obj 321 43 t f f;
#X obj 277 256 -;
#X msg 277 226 1;
#X obj 208 222 t f b f;
#X obj 238 257 /;
#X obj 265 316 *;
#X obj 238 280 + 1;
#X msg 212 150 0.7;
#X obj 175 282 *;
#X obj 321 17 * 2;
#X obj 188 378 line;
#X obj 234 -13 route frq Q thr gain smth;
#X obj 188 353 pack;
#X obj 171 48 mtof;
#X obj 177 23 * 127;
#X obj 220 54 loadbang;
#X msg 206 91 5;
#X obj 285 51 * -1;
#X obj 281 93 + 1;
#X obj 388 44 * 500;
#X obj 97 226 clip 0 1;
#X obj 80 -30 inlet~;
#X obj 97 114 lop~;
#X connect 0 0 1 0;
#X connect 1 0 30 0;
#X connect 2 0 22 0;
#X connect 3 0 2 0;
#X connect 3 1 4 0;
#X connect 4 0 18 0;
#X connect 5 0 22 0;
#X connect 6 0 13 0;
#X connect 8 0 21 0;
#X connect 9 0 5 1;
#X connect 10 0 9 0;
#X connect 10 1 9 1;
#X connect 11 0 14 1;
#X connect 11 0 15 1;
#X connect 12 0 11 0;
#X connect 13 0 3 1;
#X connect 13 0 4 1;
#X connect 13 0 14 0;
#X connect 13 1 12 0;
#X connect 13 2 11 1;
#X connect 14 0 16 0;
#X connect 16 0 15 0;
#X connect 16 0 18 1;
#X connect 17 0 13 0;
#X connect 18 0 5 0;
#X connect 19 0 10 0;
#X connect 20 0 7 0;
#X connect 21 0 24 0;
#X connect 21 2 27 0;
#X connect 21 3 19 0;
#X connect 21 4 29 0;
#X connect 22 0 20 0;
#X connect 23 0 32 1;
#X connect 24 0 23 0;
#X connect 25 0 26 0;
#X connect 27 0 28 0;
#X connect 28 0 13 0;
#X connect 29 0 22 1;
#X connect 30 0 3 0;
#X connect 31 0 32 0;
#X connect 32 0 0 0;
#X restore 140 10 pd filterenv;
#N canvas 0 814 960 986 filterenv 0;
#X obj 97 139 env~;
#X obj 97 167 / 100;
#X msg 99 272 0;
#X obj 99 247 moses;
#X obj 176 256 -;
#X obj 176 310 *;
#X floatatom 208 192 5 0 0 0 - - - 0;
#X obj 188 413 outlet;
#X obj 235 -43 inlet;
#X obj 321 78 *;
#X obj 321 43 t f f;
#X obj 277 256 -;
#X msg 277 226 1;
#X obj 208 222 t f b f;
#X obj 238 257 /;
#X obj 265 316 *;
#X obj 238 280 + 1;
#X msg 212 150 0.7;
#X obj 175 282 *;
#X obj 321 17 * 2;
#X obj 188 378 line;
#X obj 234 -13 route frq Q thr gain smth;
#X obj 188 353 pack;
#X obj 171 48 mtof;
#X obj 177 23 * 127;
#X obj 220 54 loadbang;
#X msg 206 91 5;
#X obj 285 51 * -1;
#X obj 281 93 + 1;
#X obj 388 44 * 500;
#X obj 97 226 clip 0 1;
#X obj 80 -30 inlet~;
#X obj 97 114 hip~;
#X floatatom 161 106 5 0 0 0 - - - 0;
#X connect 0 0 1 0;
#X connect 1 0 30 0;
#X connect 2 0 22 0;
#X connect 3 0 2 0;
#X connect 3 1 4 0;
#X connect 4 0 18 0;
#X connect 5 0 22 0;
#X connect 6 0 13 0;
#X connect 8 0 21 0;
#X connect 9 0 5 1;
#X connect 10 0 9 0;
#X connect 10 1 9 1;
#X connect 11 0 14 1;
#X connect 11 0 15 1;
#X connect 12 0 11 0;
#X connect 13 0 3 1;
#X connect 13 0 4 1;
#X connect 13 0 14 0;
#X connect 13 1 12 0;
#X connect 13 2 11 1;
#X connect 14 0 16 0;
#X connect 16 0 15 0;
#X connect 16 0 18 1;
#X connect 17 0 13 0;
#X connect 18 0 5 0;
#X connect 19 0 10 0;
#X connect 20 0 7 0;
#X connect 21 0 24 0;
#X connect 21 2 27 0;
#X connect 21 3 19 0;
#X connect 21 4 29 0;
#X connect 22 0 20 0;
#X connect 23 0 32 1;
#X connect 23 0 33 0;
#X connect 24 0 23 0;
#X connect 25 0 26 0;
#X connect 27 0 28 0;
#X connect 28 0 13 0;
#X connect 29 0 22 1;
#X connect 30 0 3 0;
#X connect 31 0 32 0;
#X connect 32 0 0 0;
#X restore 59 486 pd filterenv;
#X msg 657 553 17 \$1;
#X msg 979 553 18 \$1;
#X msg 1316 552 19 \$1;
#X msg 736 552 14 \$1;
#X msg 808 551 2 \$1;
#X msg 1058 552 15 \$1;
#X msg 1130 551 3 \$1;
#X msg 1395 551 16 \$1;
#X msg 1467 550 4 \$1;
#N canvas 0 814 960 986 filterenv 0;
#X obj 97 139 env~;
#X obj 97 167 / 100;
#X msg 99 272 0;
#X obj 99 247 moses;
#X obj 176 256 -;
#X obj 176 310 *;
#X floatatom 208 192 5 0 0 0 - - - 0;
#X obj 188 413 outlet;
#X obj 235 -43 inlet;
#X obj 321 78 *;
#X obj 321 43 t f f;
#X obj 277 256 -;
#X msg 277 226 1;
#X obj 208 222 t f b f;
#X obj 238 257 /;
#X obj 265 316 *;
#X obj 238 280 + 1;
#X msg 212 150 0.7;
#X obj 175 282 *;
#X obj 321 17 * 2;
#X obj 188 378 line;
#X obj 234 -13 route frq Q thr gain smth;
#X obj 188 353 pack;
#X obj 171 48 mtof;
#X obj 177 23 * 127;
#X obj 220 54 loadbang;
#X msg 206 91 5;
#X obj 285 51 * -1;
#X obj 281 93 + 1;
#X obj 388 44 * 500;
#X obj 97 226 clip 0 1;
#X obj 80 -30 inlet~;
#X floatatom 185 125 5 0 0 0 - - - 0;
#X obj 97 114 bp~ 1000 30;
#X connect 0 0 1 0;
#X connect 1 0 30 0;
#X connect 2 0 22 0;
#X connect 3 0 2 0;
#X connect 3 1 4 0;
#X connect 4 0 18 0;
#X connect 5 0 22 0;
#X connect 6 0 13 0;
#X connect 8 0 21 0;
#X connect 9 0 5 1;
#X connect 10 0 9 0;
#X connect 10 1 9 1;
#X connect 11 0 14 1;
#X connect 11 0 15 1;
#X connect 12 0 11 0;
#X connect 13 0 3 1;
#X connect 13 0 4 1;
#X connect 13 0 14 0;
#X connect 13 1 12 0;
#X connect 13 2 11 1;
#X connect 14 0 16 0;
#X connect 16 0 15 0;
#X connect 16 0 18 1;
#X connect 17 0 13 0;
#X connect 18 0 5 0;
#X connect 19 0 10 0;
#X connect 20 0 7 0;
#X connect 21 0 24 0;
#X connect 21 2 27 0;
#X connect 21 3 19 0;
#X connect 21 4 29 0;
#X connect 22 0 20 0;
#X connect 23 0 32 0;
#X connect 23 0 33 1;
#X connect 24 0 23 0;
#X connect 25 0 26 0;
#X connect 27 0 28 0;
#X connect 28 0 13 0;
#X connect 29 0 22 1;
#X connect 30 0 3 0;
#X connect 31 0 33 0;
#X connect 33 0 0 0;
#X restore 34 221 pd filterenv;
#X msg 816 -153 30;
#X msg 434 87 1;
#X msg 760 48;
#X obj 475 204 spigot;
#X obj 492 440 vsl 15 128 0 1 0 0 empty empty empty 0 -9 0 10 #fcfcfc #000000 #000000 0 1;
#X obj -50 -157 adc~;
#X msg 658 348 0.2;
#X msg 1121 344 0.5;
#X msg 1188 341 0.3;
#X msg 1448 336 0.5;
#X obj 1036 243 t b;
#X obj 1042 202 loadbang;
#X obj 1017 219 bng 15 250 50 0 empty empty empty 17 7 0 10 #fcfcfc #000000 #000000;
#X msg 570 353 0.5;
#X msg 496 393 0.5;
#X obj 1097 -12 int;
#X obj 1163 -11 int;
#X obj 1097 -126 / 100;
#X obj 1163 -132 / 100;
#X floatatom 1100 -155 5 0 100 0 - - - 0;
#X floatatom 1168 -168 5 0 100 0 - - - 0;
#X obj 1097 -97 clip 0 1;
#X obj 1163 -98 clip 0 1;
#X obj 1163 -40 + 64;
#X obj 1163 -66 * 63;
#X obj 1234 -11 int;
#X obj 1234 -132 / 100;
#X obj 1234 -98 clip 0 1;
#X obj 1234 -66 * 63;
#X floatatom 1232 -166 5 0 100 0 - - - 0;
#X obj 1234 -40 + 128;
#X obj 1302 -11 int;
#X obj 1302 -132 / 100;
#X obj 1302 -98 clip 0 1;
#X obj 1302 -66 * 63;
#X obj 1302 -40 + 192;
#X floatatom 1301 -178 5 0 100 0 - - - 0;
#X obj 1097 -41 + 0;
#X obj 1097 -67 * 63;
#X msg 1343 -233 100;
#X msg 1064 -3 1;
#X obj 1186 77 s 2lamp;
#X obj 628 239 r 2lamp;
#X msg 1099 -199 42;
#X msg 1167 -200 13;
#X msg 1239 -205 67;
#X msg 502 177 1;
#X msg 631 188 0;
#X msg 1304 -237 40;
#X obj 448 327 comport 1 115200;
#X msg 563 245 open 1;
#X msg 1378 334 0.6;
#X msg 1515 333 0.1;
#X msg 1051 342 0.6;
#X msg 869 346 0.4;
#X msg 1310 338 0.9;
#X msg 983 346 0.65;
#X msg 732 347 0.5;
#X msg 802 349 0.3;
#X obj -66 -238 r fromG;
#X obj -66 -191 route lampVol;
#X connect 0 0 197 0;
#X connect 1 0 197 0;
#X connect 3 0 5 0;
#X connect 4 0 197 0;
#X connect 5 0 151 0;
#X connect 5 0 197 0;
#X connect 7 0 8 0;
#X connect 8 0 6 0;
#X connect 8 0 10 0;
#X connect 9 0 7 0;
#X connect 9 1 8 1;
#X connect 12 0 5 1;
#X connect 13 0 17 0;
#X connect 14 0 18 0;
#X connect 15 0 13 0;
#X connect 16 0 14 0;
#X connect 17 0 34 0;
#X connect 18 0 20 0;
#X connect 19 0 12 0;
#X connect 20 0 19 0;
#X connect 21 0 5 2;
#X connect 22 0 23 0;
#X connect 23 0 24 0;
#X connect 24 0 26 0;
#X connect 25 0 22 0;
#X connect 26 0 21 0;
#X connect 27 0 5 3;
#X connect 28 0 29 0;
#X connect 29 0 30 0;
#X connect 30 0 31 0;
#X connect 31 0 27 0;
#X connect 32 0 28 0;
#X connect 33 0 3 0;
#X connect 34 0 33 0;
#X connect 35 0 136 1;
#X connect 36 0 136 1;
#X connect 37 0 136 1;
#X connect 38 0 136 1;
#X connect 39 0 2 0;
#X connect 39 0 198 0;
#X connect 39 0 194 0;
#X connect 41 0 43 0;
#X connect 41 1 42 1;
#X connect 42 0 45 0;
#X connect 42 0 40 0;
#X connect 43 0 42 0;
#X connect 45 0 44 0;
#X connect 46 0 61 0;
#X connect 47 0 136 1;
#X connect 48 0 147 1;
#X connect 49 0 147 1;
#X connect 50 0 147 1;
#X connect 51 0 147 1;
#X connect 52 0 62 0;
#X connect 53 0 147 1;
#X connect 54 0 137 1;
#X connect 55 0 137 1;
#X connect 56 0 137 1;
#X connect 57 0 137 1;
#X connect 58 0 60 0;
#X connect 59 0 137 1;
#X connect 60 0 56 0;
#X connect 60 1 57 0;
#X connect 60 2 54 0;
#X connect 60 3 59 0;
#X connect 61 0 37 0;
#X connect 61 1 38 0;
#X connect 61 2 35 0;
#X connect 61 3 47 0;
#X connect 62 0 50 0;
#X connect 62 1 51 0;
#X connect 62 2 48 0;
#X connect 62 3 53 0;
#X connect 63 0 64 0;
#X connect 68 0 17 0;
#X connect 69 0 18 0;
#X connect 70 0 23 0;
#X connect 71 0 136 0;
#X connect 71 0 137 0;
#X connect 71 0 147 0;
#X connect 72 0 71 1;
#X connect 73 0 74 0;
#X connect 74 0 71 1;
#X connect 76 0 197 0;
#X connect 78 0 86 0;
#X connect 79 0 77 0;
#X connect 80 0 78 0;
#X connect 81 0 80 0;
#X connect 82 0 78 0;
#X connect 83 0 78 0;
#X connect 84 0 78 0;
#X connect 85 0 79 0;
#X connect 86 0 85 0;
#X connect 87 0 63 0;
#X connect 88 0 148 0;
#X connect 89 0 91 0;
#X connect 91 0 90 0;
#X connect 92 0 138 0;
#X connect 94 0 141 0;
#X connect 96 0 142 0;
#X connect 98 0 100 0;
#X connect 100 0 99 0;
#X connect 105 0 139 0;
#X connect 107 0 143 0;
#X connect 109 0 144 0;
#X connect 111 0 117 0;
#X connect 117 0 112 0;
#X connect 118 0 140 0;
#X connect 120 0 145 0;
#X connect 122 0 146 0;
#X connect 124 0 130 0;
#X connect 130 0 125 0;
#X connect 131 0 197 0;
#X connect 133 0 28 0;
#X connect 134 0 28 0;
#X connect 136 0 65 0;
#X connect 137 0 67 0;
#X connect 138 0 93 0;
#X connect 139 0 106 0;
#X connect 140 0 119 0;
#X connect 141 0 95 0;
#X connect 142 0 97 0;
#X connect 143 0 108 0;
#X connect 144 0 110 0;
#X connect 145 0 121 0;
#X connect 146 0 123 0;
#X connect 147 0 66 0;
#X connect 148 0 9 0;
#X connect 149 0 5 0;
#X connect 151 0 197 0;
#X connect 152 0 29 0;
#X connect 153 0 71 0;
#X connect 154 0 92 0;
#X connect 155 0 109 0;
#X connect 156 0 111 0;
#X connect 157 0 122 0;
#X connect 158 0 154 0;
#X connect 158 0 205 0;
#X connect 158 0 206 0;
#X connect 158 0 202 0;
#X connect 158 0 204 0;
#X connect 158 0 201 0;
#X connect 158 0 155 0;
#X connect 158 0 156 0;
#X connect 158 0 203 0;
#X connect 158 0 199 0;
#X connect 158 0 157 0;
#X connect 158 0 200 0;
#X connect 158 0 161 0;
#X connect 158 0 162 0;
#X connect 159 0 158 0;
#X connect 160 0 158 0;
#X connect 161 0 89 0;
#X connect 162 0 152 0;
#X connect 163 0 189 0;
#X connect 164 0 189 0;
#X connect 165 0 169 0;
#X connect 166 0 170 0;
#X connect 167 0 165 0;
#X connect 168 0 166 0;
#X connect 169 0 186 0;
#X connect 170 0 172 0;
#X connect 171 0 164 0;
#X connect 172 0 171 0;
#X connect 173 0 189 0;
#X connect 174 0 175 0;
#X connect 175 0 176 0;
#X connect 176 0 178 0;
#X connect 177 0 174 0;
#X connect 178 0 173 0;
#X connect 179 0 189 0;
#X connect 180 0 181 0;
#X connect 181 0 182 0;
#X connect 182 0 183 0;
#X connect 183 0 179 0;
#X connect 184 0 180 0;
#X connect 185 0 163 0;
#X connect 186 0 185 0;
#X connect 187 0 180 0;
#X connect 190 0 197 0;
#X connect 191 0 165 0;
#X connect 192 0 166 0;
#X connect 193 0 174 0;
#X connect 194 0 151 1;
#X connect 195 0 194 0;
#X connect 196 0 180 0;
#X connect 197 0 132 0;
#X connect 198 0 197 0;
#X connect 199 0 120 0;
#X connect 200 0 124 0;
#X connect 201 0 107 0;
#X connect 202 0 98 0;
#X connect 203 0 118 0;
#X connect 204 0 105 0;
#X connect 205 0 94 0;
#X connect 206 0 96 0;
#X connect 207 0 208 0;
#X connect 208 0 71 1;
#X restore 125 122 pd lamp;
#X obj 683 -24 loadbang;
#X obj 579 134 v ticks/bar;
#N canvas 528 94 956 546 klick 0;
#X obj 178 407 noise~;
#X obj 266 -9 r clock;
#X obj 266 446 line~;
#X obj 252 476 *~;
#X msg 293 363 0;
#X obj 266 304 t f b;
#X obj 266 406 pack 0 10;
#X obj 266 25 spigot;
#X obj 266 118 mod 96;
#X obj 266 147 / 24;
#X obj 266 177 int;
#X obj 266 212 change;
#X obj 182 271 sel 0;
#X msg 150 321 1500;
#X msg 200 316 3000;
#X obj 179 445 bp~ 2500 2;
#X obj 413 47 r fromG;
#X obj 423 87 route klick;
#X obj 423 124 unpack;
#X obj 266 264 f;
#X obj 266 239 b;
#X obj 293 87 v ticks/bar;
#X obj 266 56 t f b;
#X obj 293 335 delay 15;
#X floatatom 179 68 5 0 0 0 - - - 0;
#X obj 251 519 dac~ 1;
#X floatatom 199 187 5 0 0 0 - - - 0;
#X floatatom 374 156 5 0 0 0 - - - 0;
#X connect 0 0 15 0;
#X connect 1 0 7 0;
#X connect 1 0 24 0;
#X connect 2 0 3 1;
#X connect 3 0 25 0;
#X connect 4 0 6 0;
#X connect 5 0 6 0;
#X connect 5 1 23 0;
#X connect 6 0 2 0;
#X connect 7 0 22 0;
#X connect 8 0 9 0;
#X connect 9 0 10 0;
#X connect 10 0 11 0;
#X connect 10 0 26 0;
#X connect 11 0 12 0;
#X connect 11 0 20 0;
#X connect 12 0 14 0;
#X connect 12 1 13 0;
#X connect 13 0 15 1;
#X connect 14 0 15 1;
#X connect 15 0 3 0;
#X connect 16 0 17 0;
#X connect 17 0 18 0;
#X connect 18 0 7 1;
#X connect 18 0 27 0;
#X connect 18 1 19 1;
#X connect 19 0 5 0;
#X connect 20 0 19 0;
#X connect 21 0 8 1;
#X connect 22 0 8 0;
#X connect 22 1 21 0;
#X connect 23 0 4 0;
#X restore 126 150 pd klick;
#N canvas 529 308 450 300 inputEnv 0;
#X obj 114 113 - 100;
#X obj 114 198 s 2pLoopG;
#X msg 114 166 \$2 aEnv \$1;
#X obj 114 138 pack f 0;
#X obj 222 112 - 100;
#X obj 222 197 s 2pLoopG;
#X msg 222 165 \$2 aEnv \$1;
#X obj 222 84 env~ 8192;
#X obj 222 137 pack f -1;
#X obj 109 30 r~ audioIn;
#X obj 114 85 env~ 4048;
#X connect 0 0 3 0;
#X connect 2 0 1 0;
#X connect 3 0 2 0;
#X connect 4 0 8 0;
#X connect 6 0 5 0;
#X connect 7 0 4 0;
#X connect 8 0 6 0;
#X connect 9 0 10 0;
#X connect 10 0 0 0;
#X restore 126 177 pd inputEnv;
#N canvas 634 189 450 300 init 0;
#X obj 75 96 loadbang;
#X obj 83 121 s init;
#X obj 82 71 bng 15 250 50 0 empty empty empty 17 7 0 10 #fcfcfc #000000 #000000;
#X msg 73 241 \; pd dsp \$1;
#X msg 73 203 1;
#X msg 133 207 0;
#X obj 189 233 s arraysize;
#X obj 207 177 samplerate~;
#X obj 189 207 *;
#X obj 207 85 loadbang;
#X msg 189 142 120;
#X obj 189 120 delay 2000;
#X connect 0 0 1 0;
#X connect 0 0 4 0;
#X connect 2 0 1 0;
#X connect 4 0 3 0;
#X connect 5 0 3 0;
#X connect 7 0 8 1;
#X connect 8 0 6 0;
#X connect 9 0 7 0;
#X connect 9 0 11 0;
#X connect 10 0 8 0;
#X connect 11 0 10 0;
#X restore 217 70 pd init;
#X obj 579 -7 r fromG;
#X obj 579 21 route beats;
#X obj 711 55 v ticks/beat;
#X obj 606 75 v ticks/beat;
#X obj 579 102 *;
#X obj 579 48 t f b;
#X floatatom 629 102 5 0 0 0 - - - 0;
#X msg 711 31 24;
#X msg 684 31 4;
#X obj 684 -1 t b b;
#X obj 755 -15 bng 15 250 50 0 empty empty empty 17 7 0 10 #fcfcfc #000000 #000000;
#N canvas 524 77 1107 653 export 0;
#X obj 426 19 shell;
#X obj 426 52 symbol;
#X msg 305 -19 date +%Y-%m-%d;
#X obj 305 7 shell;
#X obj 305 50 symbol;
#X obj 282 -62 t b b b;
#X obj 514 197 shell;
#X obj 305 75 t b s s;
#X obj 304 103 delay 500;
#X msg 317 238 2018-12-15/23_48_39-110;
#X obj 317 294 s foldername;
#X obj 317 266 symbol;
#X obj 282 -122 r fromG;
#X obj 282 -89 route export;
#X obj 285 173 t b a;
#X msg 426 -14 date +%k_%M_%S;
#X obj 304 129 pack 0 s s f;
#X obj 408 112 r bpm;
#X msg 317 207 set \$2/\$3-\$4;
#X msg 514 92 mkdir ./export/\$1;
#X msg 514 146 mkdir ./export/\$2/\$3-\$4;
#X connect 0 0 1 0;
#X connect 1 0 16 2;
#X connect 2 0 3 0;
#X connect 3 0 4 0;
#X connect 4 0 7 0;
#X connect 5 1 2 0;
#X connect 5 2 15 0;
#X connect 7 0 8 0;
#X connect 7 1 16 1;
#X connect 7 2 19 0;
#X connect 8 0 16 0;
#X connect 9 0 11 0;
#X connect 11 0 10 0;
#X connect 12 0 13 0;
#X connect 13 0 5 0;
#X connect 14 0 9 0;
#X connect 14 1 18 0;
#X connect 15 0 0 0;
#X connect 16 0 20 0;
#X connect 16 0 14 0;
#X connect 17 0 16 3;
#X connect 18 0 9 0;
#X connect 19 0 6 0;
#X connect 20 0 6 0;
#X restore 130 229 pd export;
#N canvas 2 101 450 584 solo 0;
#X obj 152 66 r fromG;
#X obj 152 104 route 1 2 3 4 5 6 7 8;
#X obj 171 173 route solo;
#X obj 152 149 route solo;
#X obj 213 218 route solo;
#X obj 192 195 route solo;
#X obj 258 268 route solo;
#X obj 236 243 route solo;
#X obj 304 313 route solo;
#X obj 288 289 route solo;
#X obj 170 227 t b f;
#X obj 190 254 t b f;
#X obj 210 281 t b f;
#X obj 235 315 t b f;
#X obj 256 348 t b f;
#X obj 285 371 t b f;
#X obj 301 398 t b f;
#X obj 61 508 expr $f1 + $f2 + $f3 + $f4 + $f5 + $f6 +$f7 + $f8;
#X obj 71 547 s solo;
#X connect 0 0 1 0;
#X connect 1 0 3 0;
#X connect 1 1 2 0;
#X connect 1 2 5 0;
#X connect 1 3 4 0;
#X connect 1 4 7 0;
#X connect 1 5 6 0;
#X connect 1 6 9 0;
#X connect 1 7 8 0;
#X connect 2 0 10 0;
#X connect 3 0 17 0;
#X connect 4 0 12 0;
#X connect 5 0 11 0;
#X connect 6 0 14 0;
#X connect 7 0 13 0;
#X connect 8 0 16 0;
#X connect 9 0 15 0;
#X connect 10 0 17 0;
#X connect 10 1 17 1;
#X connect 11 0 17 0;
#X connect 11 1 17 2;
#X connect 12 0 17 0;
#X connect 12 1 17 3;
#X connect 13 0 17 0;
#X connect 13 1 17 4;
#X connect 14 0 17 0;
#X connect 14 1 17 5;
#X connect 15 0 17 0;
#X connect 15 1 17 6;
#X connect 16 0 17 0;
#X connect 16 1 17 7;
#X restore 224 115 pd solo;
#X obj 415 85 s broadcastAddr;
#X msg 415 27 localhost;
#X msg 450 52 192.168.1.255;
#X obj 415 -11 loadbang;
#X obj 386 209 loadbang;
#X msg 386 242 0;
#N canvas 1920 67 1280 653 audioIn 0;
#X obj 139 57 adc~ 1 2 3 4 5 6 7 8;
#X obj 146 260 *~;
#X obj 161 220 line~;
#X msg 161 185 \$1 10;
#X obj 161 161 == 1;
#X obj 207 260 *~;
#X obj 222 220 line~;
#X msg 222 185 \$1 10;
#X obj 267 260 *~;
#X obj 282 220 line~;
#X msg 282 185 \$1 10;
#X obj 328 260 *~;
#X obj 343 220 line~;
#X msg 343 185 \$1 10;
#X obj 387 260 *~;
#X obj 402 220 line~;
#X msg 402 185 \$1 10;
#X obj 448 260 *~;
#X obj 463 220 line~;
#X msg 463 185 \$1 10;
#X obj 508 260 *~;
#X obj 523 220 line~;
#X msg 523 185 \$1 10;
#X obj 569 260 *~;
#X obj 584 220 line~;
#X msg 584 185 \$1 10;
#X obj 222 161 == 2;
#X obj 282 161 == 3;
#X obj 343 161 == 4;
#X obj 402 161 == 5;
#X obj 463 161 == 6;
#X obj 523 161 == 7;
#X obj 584 161 == 8;
#X obj 161 118 r inSel;
#X obj 145 302 s~ audioIn;
#X connect 0 0 1 0;
#X connect 0 1 5 0;
#X connect 0 2 8 0;
#X connect 0 3 11 0;
#X connect 0 4 14 0;
#X connect 0 5 17 0;
#X connect 0 6 20 0;
#X connect 0 7 23 0;
#X connect 1 0 34 0;
#X connect 2 0 1 1;
#X connect 3 0 2 0;
#X connect 4 0 3 0;
#X connect 5 0 34 0;
#X connect 6 0 5 1;
#X connect 7 0 6 0;
#X connect 8 0 34 0;
#X connect 9 0 8 1;
#X connect 10 0 9 0;
#X connect 11 0 34 0;
#X connect 12 0 11 1;
#X connect 13 0 12 0;
#X connect 14 0 34 0;
#X connect 15 0 14 1;
#X connect 16 0 15 0;
#X connect 17 0 34 0;
#X connect 18 0 17 1;
#X connect 19 0 18 0;
#X connect 20 0 34 0;
#X connect 21 0 20 1;
#X connect 22 0 21 0;
#X connect 23 0 34 0;
#X connect 24 0 23 1;
#X connect 25 0 24 0;
#X connect 26 0 7 0;
#X connect 27 0 10 0;
#X connect 28 0 13 0;
#X connect 29 0 16 0;
#X connect 30 0 19 0;
#X connect 31 0 22 0;
#X connect 32 0 25 0;
#X connect 33 0 4 0;
#X connect 33 0 26 0;
#X connect 33 0 27 0;
#X connect 33 0 28 0;
#X connect 33 0 29 0;
#X connect 33 0 30 0;
#X connect 33 0 31 0;
#X connect 33 0 32 0;
#X restore 131 259 pd audioIn;
#X obj 813 68 s inSel;
#X msg 813 32 1;
#X obj 813 3 loadbang;
#X obj 897 6 r fromG;
#X obj 897 37 route inSel;
#N canvas 692 263 785 433 midiout 0;
#X msg 108 212 248;
#X msg 140 220 250;
#X obj 220 162 int;
#X obj 256 179 + 1;
#X obj 218 90 t b b;
#X msg 220 113 1;
#X msg 293 109 0;
#X obj 220 206 sel 1;
#X msg 221 251 252;
#X obj 108 296 midiout;
#X obj 220 139 metro 250;
#X obj 108 -42 r clock;
#X obj 108 73 t f f b;
#N canvas 193 97 785 400 toVolcaSample 0;
#X obj 125 169 route note cc;
#X obj 125 374 noteout;
#X obj 125 243 unpack f f f;
#X msg 287 339 1;
#X msg 317 344 2;
#X msg 350 345 3;
#X msg 396 345 4;
#X obj 235 387 t f;
#X obj 125 290 t f b f;
#X obj 166 316 int;
#X obj 166 339 sel 0;
#X obj 171 418 ctlout 7 1;
#X obj 296 307 sel 36 37 41 38 40 42;
#X obj 125 12 r toAll;
#X obj 193 -2 r fromAll;
#X obj 125 60 route midiin;
#X msg 440 347 11;
#X msg 485 349 4;
#X obj 237 186 unpack f f f;
#X obj 237 240 spigot;
#X obj 271 212 == 4;
#X obj 237 273 ctlout 44 1;
#X obj 316 273 ctlout 44 2;
#X obj 391 273 ctlout 44 3;
#X obj 470 273 ctlout 44 4;
#X obj 281 56 route vol;
#X obj 323 117 * 127;
#X obj 410 117 * 127;
#X obj 492 121 * 127;
#X obj 579 121 * 127;
#X obj 323 149 ctlout 7 1;
#X obj 410 147 ctlout 7 2;
#X obj 492 149 ctlout 7 3;
#X obj 579 151 ctlout 7 4;
#X obj 654 119 * 127;
#X obj 741 119 * 127;
#X obj 823 123 * 127;
#X obj 910 123 * 127;
#X obj 534 40 route 1 2 3 4 5 6 7 8;
#X obj 741 149 ctlout 7 6;
#X obj 823 151 ctlout 7 7;
#X obj 910 153 ctlout 7 8;
#X obj 654 151 ctlout 7 5;
#X obj 193 23 route omni advance vsample daw;
#X obj -25 97 route midi;
#X obj -25 122 route note;
#X obj -25 155 unpack f f f;
#X obj -26 226 pack;
#X obj -25 191 spigot;
#X obj 56 186 == 10;
#X connect 0 0 2 0;
#X connect 0 1 18 0;
#X connect 2 0 8 0;
#X connect 2 1 1 1;
#X connect 2 1 9 1;
#X connect 3 0 7 0;
#X connect 3 0 1 2;
#X connect 4 0 1 2;
#X connect 4 0 7 0;
#X connect 5 0 1 2;
#X connect 5 0 7 0;
#X connect 6 0 1 2;
#X connect 6 0 7 0;
#X connect 7 0 11 2;
#X connect 8 0 1 0;
#X connect 8 1 9 0;
#X connect 8 2 12 0;
#X connect 9 0 10 0;
#X connect 10 1 11 0;
#X connect 12 0 3 0;
#X connect 12 1 4 0;
#X connect 12 2 5 0;
#X connect 12 3 6 0;
#X connect 12 4 16 0;
#X connect 12 5 17 0;
#X connect 13 0 15 0;
#X connect 14 0 43 0;
#X connect 15 0 0 0;
#X connect 16 0 1 2;
#X connect 16 0 7 0;
#X connect 17 0 1 2;
#X connect 17 0 7 0;
#X connect 18 0 19 0;
#X connect 18 1 20 0;
#X connect 19 0 21 0;
#X connect 19 0 22 0;
#X connect 19 0 23 0;
#X connect 19 0 24 0;
#X connect 20 0 19 1;
#X connect 25 0 38 0;
#X connect 26 0 30 0;
#X connect 27 0 31 0;
#X connect 28 0 32 0;
#X connect 29 0 33 0;
#X connect 34 0 42 0;
#X connect 35 0 39 0;
#X connect 36 0 40 0;
#X connect 37 0 41 0;
#X connect 38 0 26 0;
#X connect 38 1 27 0;
#X connect 38 2 28 0;
#X connect 38 3 29 0;
#X connect 38 4 34 0;
#X connect 38 5 35 0;
#X connect 38 6 36 0;
#X connect 38 7 37 0;
#X connect 43 0 15 0;
#X connect 43 2 25 0;
#X connect 43 3 44 0;
#X connect 44 0 45 0;
#X connect 45 0 46 0;
#X connect 46 0 48 0;
#X connect 46 1 47 1;
#X connect 46 2 49 0;
#X connect 47 0 2 0;
#X connect 48 0 47 0;
#X connect 49 0 48 1;
#X restore 307 19 pd toVolcaSample;
#X obj 108 114 sel 0;
#X obj 108 170 t b b;
#X obj 128 -9 / 2;
#X obj 128 17 int;
#X obj 128 44 change;
#X obj 362 112 r notes;
#X obj 362 143 unpack 0 0 0;
#X floatatom 326 176 5 0 0 0 - - - 0;
#X floatatom 426 169 5 0 0 0 - - - 0;
#X obj 471 -10 notein;
#X obj 487 47 makenote 127 50;
#X obj 360 201 noteout 16;
#X obj 502 146 r notes;
#X obj 502 177 unpack 0 0 0;
#X floatatom 466 210 5 0 0 0 - - - 0;
#X obj 500 235 noteout 1;
#X obj 353 87 makenote 4 150;
#X msg 378 58 36 127;
#X obj 641 134 r GregNote;
#X obj 641 171 unpack;
#X obj 639 234 noteout 1;
#X connect 0 0 9 0;
#X connect 1 0 9 0;
#X connect 2 0 3 0;
#X connect 2 0 7 0;
#X connect 3 0 2 1;
#X connect 4 0 5 0;
#X connect 4 1 6 0;
#X connect 5 0 10 0;
#X connect 6 0 2 1;
#X connect 7 0 8 0;
#X connect 8 0 9 0;
#X connect 10 0 2 0;
#X connect 11 0 12 0;
#X connect 12 0 14 0;
#X connect 12 2 4 0;
#X connect 14 0 15 0;
#X connect 14 1 0 0;
#X connect 15 0 0 0;
#X connect 15 1 1 0;
#X connect 16 0 17 0;
#X connect 17 0 18 0;
#X connect 20 0 21 0;
#X connect 20 0 25 0;
#X connect 20 1 22 0;
#X connect 20 1 25 1;
#X connect 23 1 24 1;
#X connect 24 0 25 0;
#X connect 24 1 25 1;
#X connect 27 0 28 0;
#X connect 27 0 29 0;
#X connect 27 1 29 1;
#X connect 30 0 25 0;
#X connect 30 1 25 1;
#X connect 31 0 30 0;
#X connect 32 0 33 0;
#X connect 33 0 34 0;
#X connect 33 1 34 1;
#X restore 135 293 pd midiout;
#X obj 489 210 s latencyComp;
#X obj 489 153 loadbang;
#N canvas 281 366 1567 578 midiIn 0;
#X obj 217 232 int;
#X obj 223 90 sel 248 250 252;
#X obj 217 284 + 1, f 5;
#X msg 315 131 -1;
#X msg 321 154 0;
#X obj 168 137 spigot;
#X obj 218 365 s clock;
#X obj 591 54 notein;
#X obj 592 129 s midiNote;
#X obj 591 94 pack 0 0 0;
#X obj 710 48 ctlin;
#X obj 710 131 s midiCC;
#X obj 710 90 pack 0 0 0;
#X floatatom 512 87 5 0 0 0 - - - 0;
#X obj 389 90 notein;
#X obj 398 143 > 1;
#X obj 400 188 sel 1;
#X msg 246 156 -1;
#X obj 75 73 bng 60 250 50 0 empty empty empty 17 7 0 10 #fcfcfc #000000 #000000;
#X obj 241 117 t b b;
#X obj 157 212 delay 1;
#X obj 223 32 midirealtimein;
#X obj 508 523 noteout;
#X obj 873 127 notein;
#X obj 508 336 sel 36;
#X obj 579 385 int;
#X obj 873 169 pack;
#X obj 873 200 spigot;
#X obj 923 174 == 10;
#X obj 508 293 unpack;
#X obj 508 367 t b b;
#X msg 508 400 60;
#X obj 508 449 pack f f 1;
#X obj 636 521 noteout;
#X obj 707 383 int;
#X obj 636 291 unpack;
#X obj 636 365 t b b;
#X msg 636 398 60;
#X obj 636 447 pack f f 2;
#X obj 782 519 noteout;
#X obj 853 381 int;
#X obj 782 289 unpack;
#X obj 782 363 t b b;
#X msg 782 396 60;
#X obj 782 332 sel 40;
#X obj 636 334 sel 38;
#X obj 782 445 pack f f 3;
#X obj 923 510 noteout;
#X obj 994 372 int;
#X obj 923 280 unpack;
#X obj 923 354 t b b;
#X msg 923 387 60;
#X obj 923 323 sel 46;
#X obj 923 436 pack f f 4;
#X obj 1067 504 noteout;
#X obj 1138 366 int;
#X obj 1067 274 unpack;
#X obj 1067 348 t b b;
#X msg 1067 381 60;
#X obj 1067 317 sel 42;
#X obj 1067 430 pack f f 5;
#X obj 1211 505 noteout;
#X obj 1282 367 int;
#X obj 1211 275 unpack;
#X obj 1211 349 t b b;
#X msg 1211 382 60;
#X obj 1211 431 pack f f 6;
#X obj 1211 318 sel 44;
#X connect 0 0 2 0;
#X connect 1 0 5 0;
#X connect 1 1 19 0;
#X connect 2 0 0 1;
#X connect 2 0 6 0;
#X connect 3 0 0 1;
#X connect 3 0 4 0;
#X connect 4 0 5 1;
#X connect 5 0 0 0;
#X connect 7 0 13 0;
#X connect 7 0 9 0;
#X connect 7 1 9 1;
#X connect 7 2 9 2;
#X connect 10 0 12 0;
#X connect 10 1 12 1;
#X connect 10 2 12 2;
#X connect 12 0 11 0;
#X connect 14 1 15 0;
#X connect 15 0 16 0;
#X connect 17 0 5 1;
#X connect 17 0 0 1;
#X connect 18 0 5 0;
#X connect 19 0 20 0;
#X connect 19 1 17 0;
#X connect 20 0 0 0;
#X connect 21 0 1 0;
#X connect 23 0 26 0;
#X connect 23 1 26 1;
#X connect 23 2 28 0;
#X connect 24 0 30 0;
#X connect 25 0 32 1;
#X connect 26 0 27 0;
#X connect 27 0 29 0;
#X connect 27 0 35 0;
#X connect 27 0 41 0;
#X connect 27 0 49 0;
#X connect 27 0 56 0;
#X connect 27 0 63 0;
#X connect 28 0 27 1;
#X connect 29 0 24 0;
#X connect 29 1 25 1;
#X connect 30 0 31 0;
#X connect 30 1 25 0;
#X connect 31 0 32 0;
#X connect 32 0 22 0;
#X connect 34 0 38 1;
#X connect 35 0 45 0;
#X connect 35 1 34 1;
#X connect 36 0 37 0;
#X connect 36 1 34 0;
#X connect 37 0 38 0;
#X connect 38 0 33 0;
#X connect 40 0 46 1;
#X connect 41 0 44 0;
#X connect 41 1 40 1;
#X connect 42 0 43 0;
#X connect 42 1 40 0;
#X connect 43 0 46 0;
#X connect 44 0 42 0;
#X connect 45 0 36 0;
#X connect 46 0 39 0;
#X connect 48 0 53 1;
#X connect 49 0 52 0;
#X connect 49 1 48 1;
#X connect 50 0 51 0;
#X connect 50 1 48 0;
#X connect 51 0 53 0;
#X connect 52 0 50 0;
#X connect 53 0 47 0;
#X connect 55 0 60 1;
#X connect 56 0 59 0;
#X connect 56 1 55 1;
#X connect 57 0 58 0;
#X connect 57 1 55 0;
#X connect 58 0 60 0;
#X connect 59 0 57 0;
#X connect 60 0 54 0;
#X connect 62 0 66 1;
#X connect 63 0 67 0;
#X connect 63 1 62 1;
#X connect 64 0 65 0;
#X connect 64 1 62 0;
#X connect 65 0 66 0;
#X connect 66 0 61 0;
#X connect 67 0 64 0;
#X coords 0 578 1 577 60 60 0;
#X restore 134 324 pd midiIn;
#X obj 622 307 s run;
#X obj 621 282 tgl 15 0 empty empty empty 17 7 0 10 #fcfcfc #000000 #000000 0 1;
#X obj 542 360 tuner;
#X msg 490 180 1000;
#X obj 389 398 r clock;
#X floatatom 393 430 5 0 0 0 - - - 0;
#X connect 4 0 5 0;
#X connect 5 1 7 0;
#X connect 5 2 6 0;
#X connect 9 0 23 0;
#X connect 14 0 15 0;
#X connect 15 0 19 0;
#X connect 17 0 18 1;
#X connect 18 0 20 0;
#X connect 18 0 10 0;
#X connect 19 0 18 0;
#X connect 19 1 17 0;
#X connect 21 0 16 0;
#X connect 22 0 19 0;
#X connect 23 0 22 0;
#X connect 23 1 21 0;
#X connect 24 0 23 0;
#X connect 28 0 27 0;
#X connect 29 0 27 0;
#X connect 30 0 28 0;
#X connect 31 0 32 0;
#X connect 32 0 7 0;
#X connect 35 0 34 0;
#X connect 36 0 35 0;
#X connect 37 0 38 0;
#X connect 38 0 34 0;
#X connect 41 0 46 0;
#X connect 44 0 43 0;
#X connect 46 0 40 0;
#X connect 47 0 48 0;
