#N canvas 804 143 450 469 10;
#X msg -130 444 \; pd dsp 1;
#X obj -130 418 loadbang;
#X text -52 29 lo pass filter freq;
#X obj -122 60 +~;
#X floatatom 53 280 5 0 0 0 - - -;
#X floatatom 52 255 5 0 0 0 - - -;
#X text 93 257 fidelity;
#N canvas 294 23 667 661 user-parameters 0;
#X obj 45 167 vradio 15 1 1 4 empty empty empty 0 -8 0 10 -262144 -260097
-1 0;
#N canvas 0 22 167 265 overlap 0;
#X obj 29 35 inlet;
#X obj 29 195 outlet;
#X obj 29 130 pow;
#X obj 29 70 t b f;
#X msg 29 102 2;
#X msg 29 162 overlap \$1;
#X connect 0 0 3 0;
#X connect 2 0 5 0;
#X connect 3 0 4 0;
#X connect 3 1 2 1;
#X connect 4 0 2 0;
#X connect 5 0 1 0;
#X restore 45 238 pd overlap;
#N canvas 777 314 284 292 framesize 0;
#X obj 29 14 inlet;
#X obj 29 242 outlet;
#X obj 29 119 pow;
#X obj 29 64 t b f;
#X msg 29 91 2;
#X msg 29 198 framesize \$1;
#X obj 43 173 s \$0-framesize;
#X floatatom 53 144 5 0 0 0 - - -;
#X obj 159 163 samplerate~;
#X obj 159 136 t b f;
#X obj 159 191 /;
#X obj 159 245 outlet;
#X obj 159 219 * 1.2;
#X obj 29 41 + 7;
#X connect 0 0 13 0;
#X connect 2 0 5 0;
#X connect 2 0 6 0;
#X connect 2 0 7 0;
#X connect 2 0 9 0;
#X connect 3 0 4 0;
#X connect 3 1 2 1;
#X connect 4 0 2 0;
#X connect 5 0 1 0;
#X connect 8 0 10 0;
#X connect 9 0 8 0;
#X connect 9 1 10 1;
#X connect 10 0 12 0;
#X connect 12 0 11 0;
#X connect 13 0 3 0;
#X restore 29 88 pd framesize;
#X obj 29 4 vradio 15 1 0 5 empty empty empty 0 -8 0 10 -262144 -260097
-1 3;
#X text 50 19 256;
#X text 50 35 512;
#X text 49 65 2048;
#X text 67 182 2;
#X text 67 214 8;
#X text 67 199 4;
#X obj 29 607 outlet;
#X floatatom 98 118 5 0 0 0 - - -;
#X text 49 50 1024 (default);
#X text 67 166 1 (default);
#X text 292 84 Overlapping analysis frames can be used for a finer
rate of pitch messages. This may be useful in the case of longer analysis
frames. Note that overlap multiplies the object's CPU load.;
#X msg 124 423 bias \$1;
#X obj 127 397 hsl 100 15 0 1 0 0 empty empty empty -2 -8 0 10 -262144
-260097 -1 1980 0;
#X floatatom 182 423 5 0 0 0 - - -;
#X text 287 382 Bias (range 0 - 1) is used to favour the first peaks
found in the SNAC function. If bias is set to a higher level \, you
are more likely to experience upper octave jumps. If bias is set to
a low level \, low octave jumps are more likely to happen. Set bias
according to your input material. For example \, for a sound type with
weak fundamental \, bias is better not set too high. Default is 0.2.
;
#X obj 126 476 hsl 100 15 0 1 0 0 empty empty empty -2 -8 0 10 -262144
-260097 -1 9405 0;
#X floatatom 201 506 5 0 0 0 - - -;
#X msg 123 506 fidelity \$1;
#X text 287 489 Fidelity (range 0 - 1 ) determines the fidelity threshold
required for new pitch information to get through. Fidelity is an indication
of how periodic a sound is (as opposed to noisy \, not periodic). Default
is 0.95.;
#X text 292 -9 Analysis framesize determines the lowest pitch which
can be detected \, corresponding to a period ~1.2 times the framesize.
Framesize also determines latency of the pitch info. Note that reported
pitch is the average pitch of an analysis frame. Framesize is always
a power of two \, because FFT is used for efficiency.;
#X text 93 138 lowest detectable pitch (Hz);
#X obj 127 562 hsl 100 15 0 2000 0 0 empty empty empty -2 -8 0 10 -262144
-260097 -1 4950 0;
#X floatatom 199 591 5 0 0 0 - - -;
#X msg 124 590 maxfreq \$1;
#X text 288 560 Maxfreq is the maximum frequency which will possibly
be reported by [helmholtz~]. Default is 2000 Set it lower if you experience
harmonic interference components such as from cellphones.;
#X text 50 2 128;
#X text 293 188 1 - analysis frame size (128 \, 256 \, 512 \, 1024
or 2048);
#X text 293 210 2 - overlap (1 \, 2 \, 4 or 8);
#X text 292 161 Optional initialisation arguments are:;
#X obj 142 119 outlet;
#X msg 124 372 0.2;
#X msg 123 452 0.95;
#X msg 124 540 1000;
#X obj 61 276 loadbang;
#X obj 127 318 hsl 100 15 0 100 0 0 empty empty empty -2 -8 0 10 -262144
-260097 -1 6800 0;
#X floatatom 182 344 5 0 0 0 - - -;
#X msg 124 344 sens \$1;
#X msg 124 293 50;
#X text 288 305 Sens (sensitivity) determines a minimum sound level
where [helmholtz~] is sensitive for pitch. If your input sound has
a lot of artifacts (hum \, interference \, colored noise) \, set sens
to a higher dB level. Default is 50 dB (pd deciBels).;
#X text 290 261 ++++++++++++++++++++++++++++++++++++++++++++++++++++++++++
;
#X connect 0 0 1 0;
#X connect 1 0 10 0;
#X connect 2 0 10 0;
#X connect 2 1 11 0;
#X connect 2 1 33 0;
#X connect 3 0 2 0;
#X connect 15 0 10 0;
#X connect 16 0 15 0;
#X connect 16 0 17 0;
#X connect 19 0 21 0;
#X connect 19 0 20 0;
#X connect 21 0 10 0;
#X connect 25 0 27 0;
#X connect 25 0 26 0;
#X connect 27 0 10 0;
#X connect 34 0 16 0;
#X connect 35 0 19 0;
#X connect 36 0 25 0;
#X connect 37 0 34 0;
#X connect 37 0 35 0;
#X connect 37 0 36 0;
#X connect 37 0 41 0;
#X connect 38 0 40 0;
#X connect 38 0 39 0;
#X connect 40 0 10 0;
#X connect 41 0 38 0;
#X restore -92 132 pd user-parameters;
#X text 98 278 pitch;
#X text -134 -1 soundcard;
#X text 24 131 open me!;
#X floatatom 13 159 5 0 0 0 - - -;
#X text -82 178 lowest detectable pitch (Hz);
#X text -81 197 depends on analysis size;
#X obj -60 328 ftom;
#X floatatom -56 388 5 0 0 0 - - -;
#X obj 107 105 nbx 5 50 -1e+037 1e+037 0 0 empty empty empty 0 -8 0
40 -262144 -1 -1 33.4097 256;
#X obj -130 18 adc~ 1 2 3 4 5 6 7 8;
#X obj -108 230 helmholtz~ 2048 1;
#X obj 40 338 s pitch;
#X obj -59 301 spigot;
#X obj -26 270 > 0.95;
#X connect 1 0 0 0;
#X connect 3 0 18 0;
#X connect 7 0 18 0;
#X connect 7 1 11 0;
#X connect 14 0 15 0;
#X connect 14 0 16 0;
#X connect 14 0 19 0;
#X connect 17 1 3 0;
#X connect 18 1 4 0;
#X connect 18 1 20 0;
#X connect 18 2 5 0;
#X connect 18 2 21 0;
#X connect 20 0 14 0;
#X connect 21 0 20 1;
#X coords 0 -1 1 1 220 60 1 100 100;
