#N canvas 2 111 1009 507 10;
#X obj 71 -4 inlet;
#X obj 98 49 unpack f f f;
#X obj 133 99 > 0;
#X obj 181 108 == 1;
#X obj 225 110 == 2;
#X obj 272 110 == 3;
#X obj 148 161 spigot;
#X obj 216 163 spigot;
#X obj 275 161 spigot;
#X obj 148 196 spigot;
#X obj 216 198 spigot;
#X obj 275 196 spigot;
#X floatatom 154 286 5 0 0 0 - - -, f 5;
#X floatatom 213 290 5 0 0 0 - - -, f 5;
#X floatatom 286 288 5 0 0 0 - - -, f 5;
#X obj 157 523 -;
#X obj 170 495 t b f;
#X floatatom 158 588 5 0 0 0 - - -, f 5;
#X obj 237 524 -;
#X obj 250 496 t b f;
#X floatatom 236 589 5 0 0 0 - - -, f 5;
#X obj 156 555 abs;
#X obj 237 549 abs;
#X obj 379 297 v ghStr1N;
#X obj 392 320 v ghStr2N;
#X obj 406 344 v ghStr3N;
#X obj 143 682 v ghStr1N;
#X obj 210 682 v ghStr2N;
#X obj 278 682 v ghStr3N;
#X obj 315 528 -;
#X obj 328 500 t b f;
#X obj 315 553 abs;
#X floatatom 317 590 5 0 0 0 - - -, f 5;
#X obj 221 724 t f;
#X obj 291 224 t f f;
#X obj 221 230 t f f;
#X obj 142 235 t f f;
#X obj 138 430 v ghStr1N;
#X obj 205 430 v ghStr2N;
#X obj 273 430 v ghStr3N;
#X obj 138 390 t b b b;
#X obj 71 21 t b b a;
#X obj 201 753 int;
#X obj 20 200 int;
#X obj 52 217 + 1;
#X msg 16 125 1;
#X obj 31 93 t b b;
#X msg 58 124 0;
#X obj 21 298 t b b;
#X msg 66 297 0;
#X obj 21 152 metro 1;
#X obj 21 262 sel 5;
#X obj 201 779 outlet;
#X obj 210 644 sel 5 6;
#X obj 271 642 sel 5 6;
#X obj 344 638 sel 7 6;
#X connect 0 0 41 0;
#X connect 1 0 6 0;
#X connect 1 0 7 0;
#X connect 1 0 8 0;
#X connect 1 1 2 0;
#X connect 1 2 3 0;
#X connect 1 2 4 0;
#X connect 1 2 5 0;
#X connect 2 0 9 1;
#X connect 2 0 10 1;
#X connect 2 0 11 1;
#X connect 3 0 6 1;
#X connect 4 0 7 1;
#X connect 5 0 8 1;
#X connect 6 0 9 0;
#X connect 7 0 10 0;
#X connect 8 0 11 0;
#X connect 9 0 12 0;
#X connect 9 0 36 0;
#X connect 10 0 13 0;
#X connect 10 0 35 0;
#X connect 11 0 14 0;
#X connect 11 0 34 0;
#X connect 15 0 21 0;
#X connect 16 0 15 0;
#X connect 16 1 15 1;
#X connect 18 0 22 0;
#X connect 19 0 18 0;
#X connect 19 1 18 1;
#X connect 21 0 17 0;
#X connect 21 0 53 0;
#X connect 22 0 20 0;
#X connect 22 0 54 0;
#X connect 26 0 33 0;
#X connect 27 0 33 0;
#X connect 28 0 33 0;
#X connect 29 0 31 0;
#X connect 30 0 29 0;
#X connect 30 1 29 1;
#X connect 31 0 32 0;
#X connect 32 0 55 0;
#X connect 33 0 42 1;
#X connect 34 1 25 0;
#X connect 35 1 24 0;
#X connect 36 1 23 0;
#X connect 37 0 15 0;
#X connect 37 0 29 0;
#X connect 38 0 16 0;
#X connect 38 0 18 0;
#X connect 39 0 19 0;
#X connect 39 0 30 0;
#X connect 40 0 37 0;
#X connect 40 1 38 0;
#X connect 40 2 39 0;
#X connect 41 0 46 0;
#X connect 41 1 40 0;
#X connect 41 2 1 0;
#X connect 42 0 52 0;
#X connect 43 0 44 0;
#X connect 43 0 51 0;
#X connect 44 0 43 1;
#X connect 45 0 50 0;
#X connect 46 0 45 0;
#X connect 46 1 47 0;
#X connect 47 0 43 1;
#X connect 48 0 42 0;
#X connect 48 1 49 0;
#X connect 49 0 50 0;
#X connect 50 0 43 0;
#X connect 51 0 48 0;
#X connect 53 0 27 0;
#X connect 53 1 27 0;
#X connect 54 0 28 0;
#X connect 54 1 28 0;
#X connect 55 0 26 0;
#X connect 55 1 26 0;
