#N canvas 108 101 791 614 10;
#X obj 161 47 inlet~;
#X obj 135 119 vu 16 680 empty empty -1 -8 0 10 -66577 -1 1 0;
#X obj 168 133 - 100;
#X obj 31 382 dac~;
#X obj 19 297 *~;
#X obj 39 216 line~;
#X msg 48 172 \$1 50;
#X obj 108 107 vsl 18 693 0 1 0 0 empty empty empty 0 -9 0 10 -262144
-1 -1 69200 1;
#X obj 241 -3 ctlin;
#X obj 255 58 == \$1;
#X obj 241 93 spigot;
#X obj 241 121 / 127;
#X obj 37 30 r init;
#X msg 37 55 1;
#X obj 36 3 loadbang;
#X obj 255 27 - 4;
#X obj 65 311 *~;
#X obj 302 383 change;
#X obj 304 217 r fromG;
#X obj 306 316 route vol;
#X obj 207 202 s 2pLoopG;
#X obj 198 155 pack f \$1;
#X msg 198 180 \$2 aEnv \$1;
#X obj 170 89 env~ 8192;
#X obj 20 412 s~ master;
#X obj 318 349 * 2;
#X obj 302 293 route 9;
#X floatatom 382 410 5 0 0 0 - - -, f 5;
#X obj 570 178 r ctlInput;
#X obj 570 258 route \$1;
#X obj 570 290 change;
#X obj 570 229 route fader buttons pot;
#X obj 456 7 r ctlInput;
#X obj 449 156 s 2pLoopA;
#X obj 452 38 route fader pot;
#X msg 530 115 \$1 pan \$2;
#X obj 445 76 route \$1;
#X msg 445 112 1 vol \$2;
#X obj 570 327 pack f \$1;
#X obj 572 403 s 2pLoopA;
#X msg 571 359 \$2 vol \$1;
#X connect 0 0 4 0;
#X connect 2 0 21 0;
#X connect 4 0 3 0;
#X connect 4 0 24 0;
#X connect 4 0 23 0;
#X connect 5 0 4 1;
#X connect 5 0 16 1;
#X connect 6 0 5 0;
#X connect 7 0 6 0;
#X connect 8 0 10 0;
#X connect 8 1 15 0;
#X connect 9 0 10 1;
#X connect 10 0 11 0;
#X connect 11 0 7 0;
#X connect 12 0 13 0;
#X connect 13 0 7 0;
#X connect 14 0 13 0;
#X connect 15 0 9 0;
#X connect 17 0 6 0;
#X connect 18 0 26 0;
#X connect 19 0 25 0;
#X connect 21 0 22 0;
#X connect 22 0 20 0;
#X connect 23 0 2 0;
#X connect 25 0 17 0;
#X connect 25 0 27 0;
#X connect 26 0 19 0;
#X connect 28 0 31 0;
#X connect 29 0 30 0;
#X connect 30 0 38 0;
#X connect 31 0 29 0;
#X connect 34 1 35 0;
#X connect 35 0 33 0;
#X connect 36 0 37 0;
#X connect 37 0 33 0;
#X connect 38 0 40 0;
#X connect 40 0 39 0;
#X coords 0 614 1 613 83 717 0;
