#N canvas 0 96 1920 984 10;
#X obj 0 0 cnv 15 2000 1200 empty empty empty 20 12 0 14 -191407 -66577
0;
#N canvas 0 96 1920 984 control 0;
#X obj 1 -1 cnv 15 1850 150 empty empty empty 20 12 0 14 -191407 -66577
0;
#N canvas 2 147 1041 701 wii 0;
#X msg 379 229 disconnect;
#X obj 436 270 disis_wiimote;
#X obj 563 266 tgl 25 0 empty empty empty 17 7 0 10 -262144 -1 -1 0
1;
#X text 546 290 connection;
#X text 551 300 indicator;
#N canvas 2 72 1041 631 unpack_messages 0;
#X obj 181 15 inlet;
#X obj 184 143 route button acceleration stick;
#X obj 390 148 route angle_rate low_speed;
#X obj 840 148 route right_top right_bottom left_top left_bottom;
#X obj 181 37 route button acceleration ir nunchuk motionplus classic
balance battery;
#X obj 555 148 route left_stick right_stick button;
#X obj 57 198 unpack 0 0;
#X obj 57 252 s \$0-wii-btn01-set;
#X obj 122 232 s \$0-wii-btn02-set;
#X obj 471 302 pointer;
#X obj 471 259 loadbang;
#X obj 358 264 unpack 0 0;
#X obj 364 347 set NC-stick x y;
#X obj 240 311 s \$0-nc-btn-set;
#X msg 471 280 traverse pd-NC-data \, next;
#X obj 248 258 s \$0-nc-stick-set;
#X floatatom 217 200 5 0 0 0 - - -;
#X floatatom 64 285 5 0 0 0 - - -;
#X connect 0 0 4 0;
#X connect 1 0 13 0;
#X connect 1 0 16 0;
#X connect 1 2 15 0;
#X connect 4 0 6 0;
#X connect 4 3 1 0;
#X connect 4 4 2 0;
#X connect 4 5 5 0;
#X connect 4 6 3 0;
#X connect 6 0 7 0;
#X connect 6 0 17 0;
#X connect 6 1 8 0;
#X connect 9 0 12 2;
#X connect 10 0 14 0;
#X connect 11 0 12 0;
#X connect 11 1 12 1;
#X connect 14 0 9 0;
#X restore 461 319 pd unpack_messages;
#X obj 288 818 route button acceleration stick;
#X obj 430 850 unpack 0 0;
#X obj 288 774 r \$0.from.wiimote;
#X obj 288 796 route nunchuk;
#N canvas 4 114 1041 700 makenote 0;
#X obj 416 173 expr $f1 > $f2 - $f3 && $f1 < $f2 + $f3;
#X msg 892 229 2;
#X obj 353 174 sel 1;
#X obj 416 202 expr $f1 > $f2 - $f3 && $f1 < $f2 + $f3;
#X obj 353 203 sel 1;
#X obj 416 232 expr $f1 > $f2 - $f3 && $f1 < $f2 + $f3;
#X obj 353 233 sel 1;
#X obj 416 261 expr $f1 > $f2 - $f3 && $f1 < $f2 + $f3;
#X obj 353 262 sel 1;
#X obj 416 296 expr $f1 > $f2 - $f3 && $f1 < $f2 + $f3;
#X obj 353 297 sel 1;
#X obj 416 325 expr $f1 > $f2 - $f3 && $f1 < $f2 + $f3;
#X obj 353 326 sel 1;
#X obj 416 355 expr $f1 > $f2 - $f3 && $f1 < $f2 + $f3;
#X obj 353 356 sel 1;
#X obj 416 384 expr $f1 > $f2 - $f3 && $f1 < $f2 + $f3;
#X obj 353 385 sel 1;
#X obj 418 417 expr $f1 > $f2 - $f3 && $f1 < $f2 + $f3;
#X obj 355 418 sel 1;
#X obj 418 446 expr $f1 > $f2 - $f3 && $f1 < $f2 + $f3;
#X obj 355 447 sel 1;
#X obj 418 476 expr $f1 > $f2 - $f3 && $f1 < $f2 + $f3;
#X obj 355 477 sel 1;
#X obj 418 505 expr $f1 > $f2 - $f3 && $f1 < $f2 + $f3;
#X obj 355 506 sel 1;
#X obj 415 119 t f;
#X msg 480 66 61;
#X msg 516 66 81;
#X msg 553 67 183;
#X msg 595 65 206;
#X msg 637 64 41;
#X msg 673 64 100;
#X msg 710 65 161;
#X msg 752 63 230;
#X msg 797 62 21;
#X msg 833 62 120;
#X msg 870 63 140;
#X msg 912 61 255;
#X obj 606 15 t b;
#X obj 583 0 bng 15 250 50 0 empty empty empty 17 7 0 10 -262144 -1
-1;
#X msg 310 173 0;
#X msg 310 202 1;
#X msg 310 232 2;
#X msg 310 261 3;
#X msg 309 296 4;
#X msg 310 325 5;
#X msg 310 355 6;
#X msg 313 386 7;
#X msg 313 417 8;
#X msg 312 447 9;
#X msg 312 476 10;
#X msg 312 506 11;
#X obj 222 495 t f;
#X obj 276 -22 inlet;
#X obj 304 68 int;
#X obj 319 118 int;
#X obj 269 110 ==;
#X floatatom 255 160 5 0 0 0 - - -;
#X obj 242 9 sel 0;
#X obj 199 155 sel 0;
#X obj 193 198 bng 15 250 50 0 empty empty empty 17 7 0 10 -262144
-1 -1;
#X floatatom 321 151 5 0 0 0 - - -;
#X obj 312 90 t f b f;
#X obj 246 190 spigot;
#X obj 275 35 t f f;
#X obj 31 455 sel 0 1 2;
#X obj 229 605 +;
#X msg 156 587 12;
#X msg 171 563 0;
#X obj 230 688 s wii-note;
#X obj 231 631 + 48;
#X obj 694 15 loadbang;
#X obj 31 400 r wii-nun-b;
#X msg 224 45 -1;
#X obj 223 526 change;
#X obj 282 554 s wii-nun-pB;
#X obj 221 566 sel -1;
#X obj 32 667 tgl 15 0 empty empty empty 17 7 0 10 -262144 -1 -1 0
1;
#X obj 31 429 change;
#X obj 32 635 spigot;
#X msg 94 562 0;
#X msg 71 592 1;
#X obj 71 535 delay 200;
#X obj 32 693 sel 0 1;
#X obj 230 659 spigot;
#X obj 71 504 t b b b b;
#X msg 131 643 1;
#X msg 95 643 0;
#X connect 0 0 2 0;
#X connect 1 0 0 2;
#X connect 1 0 3 2;
#X connect 1 0 5 2;
#X connect 1 0 7 2;
#X connect 1 0 9 2;
#X connect 1 0 11 2;
#X connect 1 0 13 2;
#X connect 1 0 15 2;
#X connect 1 0 17 2;
#X connect 1 0 19 2;
#X connect 1 0 21 2;
#X connect 1 0 23 2;
#X connect 2 0 40 0;
#X connect 3 0 4 0;
#X connect 4 0 41 0;
#X connect 5 0 6 0;
#X connect 6 0 42 0;
#X connect 7 0 8 0;
#X connect 8 0 43 0;
#X connect 9 0 10 0;
#X connect 10 0 44 0;
#X connect 11 0 12 0;
#X connect 12 0 45 0;
#X connect 13 0 14 0;
#X connect 14 0 46 0;
#X connect 15 0 16 0;
#X connect 16 0 47 0;
#X connect 17 0 18 0;
#X connect 18 0 48 0;
#X connect 19 0 20 0;
#X connect 20 0 49 0;
#X connect 21 0 22 0;
#X connect 22 0 50 0;
#X connect 23 0 24 0;
#X connect 24 0 51 0;
#X connect 25 0 0 0;
#X connect 25 0 3 0;
#X connect 25 0 5 0;
#X connect 25 0 7 0;
#X connect 25 0 9 0;
#X connect 25 0 11 0;
#X connect 25 0 13 0;
#X connect 25 0 15 0;
#X connect 25 0 17 0;
#X connect 25 0 19 0;
#X connect 25 0 21 0;
#X connect 25 0 23 0;
#X connect 26 0 0 1;
#X connect 27 0 3 1;
#X connect 28 0 5 1;
#X connect 29 0 7 1;
#X connect 30 0 9 1;
#X connect 31 0 11 1;
#X connect 32 0 13 1;
#X connect 33 0 15 1;
#X connect 34 0 17 1;
#X connect 35 0 19 1;
#X connect 36 0 21 1;
#X connect 37 0 23 1;
#X connect 38 0 37 0;
#X connect 38 0 36 0;
#X connect 38 0 35 0;
#X connect 38 0 33 0;
#X connect 38 0 34 0;
#X connect 38 0 32 0;
#X connect 38 0 30 0;
#X connect 38 0 29 0;
#X connect 38 0 28 0;
#X connect 38 0 27 0;
#X connect 38 0 26 0;
#X connect 38 0 31 0;
#X connect 39 0 38 0;
#X connect 40 0 52 0;
#X connect 41 0 52 0;
#X connect 42 0 52 0;
#X connect 43 0 52 0;
#X connect 44 0 52 0;
#X connect 45 0 52 0;
#X connect 46 0 52 0;
#X connect 47 0 52 0;
#X connect 48 0 52 0;
#X connect 49 0 52 0;
#X connect 50 0 52 0;
#X connect 51 0 52 0;
#X connect 52 0 74 0;
#X connect 53 0 58 0;
#X connect 54 0 62 0;
#X connect 55 0 56 0;
#X connect 55 0 61 0;
#X connect 56 0 57 0;
#X connect 56 0 59 0;
#X connect 56 0 63 1;
#X connect 58 0 73 0;
#X connect 58 1 64 0;
#X connect 59 0 60 0;
#X connect 62 0 55 1;
#X connect 62 1 55 0;
#X connect 62 2 56 1;
#X connect 63 0 25 0;
#X connect 64 0 63 0;
#X connect 64 1 54 0;
#X connect 65 1 87 0;
#X connect 65 2 85 0;
#X connect 66 0 70 0;
#X connect 67 0 66 1;
#X connect 68 0 66 1;
#X connect 70 0 84 0;
#X connect 71 0 38 0;
#X connect 71 0 1 0;
#X connect 72 0 78 0;
#X connect 73 0 52 0;
#X connect 74 0 76 0;
#X connect 76 1 66 0;
#X connect 76 1 75 0;
#X connect 77 0 83 0;
#X connect 78 0 65 0;
#X connect 79 0 77 0;
#X connect 80 0 79 1;
#X connect 81 0 79 1;
#X connect 82 0 81 0;
#X connect 83 0 68 0;
#X connect 83 1 67 0;
#X connect 84 0 69 0;
#X connect 85 0 82 0;
#X connect 85 1 80 0;
#X connect 85 2 79 0;
#X connect 85 3 86 0;
#X connect 86 0 84 1;
#X connect 87 0 84 1;
#X restore 507 894 pd makenote;
#X obj 288 882 s wii-nun-b;
#X obj 1023 802 r \$0-wii-accX-set;
#X obj 853 800 r \$0-wii-accY-set;
#X obj 874 884 + 1;
#X obj 913 906 + 1;
#X obj 700 826 r \$0.button.b;
#X obj 862 835 spigot;
#X obj 873 861 clip -1 0;
#X obj 875 910 / -1;
#X obj 1099 828 r \$0.button.a;
#X obj 1045 884 + 1;
#X obj 1084 906 + 1;
#X obj 1033 835 spigot;
#X obj 1044 861 clip -1 0;
#X obj 1046 910 / -1;
#X obj 915 884 s wii-acc-damper;
#X obj 1116 899 s wii-acc-pitch;
#X obj 653 864 r \$0.button.home;
#X obj 652 925 s wii-home;
#X floatatom 602 852 5 0 0 0 - - -;
#X obj 654 889 == 128;
#X obj 317 937 s wii-nun-joy;
#X obj 336 187 s \$0.to.wiimote;
#X msg 351 105 discover;
#X msg 362 158 disconnect;
#X msg 336 68 connect 78:A2:A0:EA:8E:34;
#X obj 594 176 s \$0.to.wiimote;
#X obj 336 5 loadbang;
#X obj 100 100 bng 45 250 50 0 empty color_Standard Wii 6 20 0 20 -220535
-104025 -104025;
#X obj 465 227 r \$0.to.wiimote;
#X obj 335 319 s \$0.from.wiimote;
#X obj 529 159 metro 50;
#X obj 95 196 r wii-nun-b;
#X obj 95 241 sel 1 2;
#X obj 94 296 int;
#X obj 124 279 + 1;
#X obj 89 355 mod 8;
#X obj 89 392 + 1;
#X obj 141 392 + 1;
#X obj 105 447 pack;
#X obj 132 415 t b f;
#X obj 158 299 int;
#X obj 188 282 + 1;
#X obj 141 356 mod 5;
#X obj 109 486 s sel&!;
#X obj 197 200 r rst;
#X msg 179 230 0;
#X text 229 311 comment;
#N canvas 391 152 450 300 wiiButtons 0;
#X obj 82 96 r \$0.button.up;
#X obj 122 71 r \$0.button.down;
#X obj 172 46 r \$0.button.left;
#X obj 216 22 r \$0.button.right;
#X obj 316 -5 r \$0.button.a;
#X obj 379 -41 r \$0.button.minus;
#X obj 457 57 r \$0.button.home;
#X obj 517 86 r \$0.button.plus;
#X obj 591 19 r \$0.button.1;
#X obj 82 281 s up;
#X obj 82 248 sel 1;
#X obj 141 248 sel 1;
#X obj 141 281 s down;
#X obj 199 246 sel 1;
#X obj 246 245 sel 1;
#X obj 316 242 sel 1;
#X obj 376 239 sel 1;
#X obj 457 226 sel 1;
#X obj 522 228 sel 1;
#X obj 598 241 sel 1;
#X obj 246 278 s right;
#X obj 316 276 s !;
#X obj 408 299 s rec;
#X obj 481 365 s stop;
#X obj 545 369 s play;
#X obj 598 274 s rst;
#X obj 199 279 s left;
#X obj 376 266 t b b;
#X obj 374 297 s !;
#X obj 465 279 t b b;
#X obj 465 313 s !;
#X obj 526 280 t b b;
#X obj 526 304 s !;
#X obj 82 167 spigot;
#X obj 89 123 r shift;
#X obj 89 144 == 0;
#X obj 142 164 spigot;
#X obj 149 120 r shift;
#X obj 149 141 == 0;
#X obj 199 163 spigot;
#X obj 206 119 r shift;
#X obj 206 140 == 0;
#X obj 259 160 spigot;
#X obj 266 116 r shift;
#X obj 266 137 == 0;
#X obj 316 158 spigot;
#X obj 323 114 r shift;
#X obj 323 135 == 0;
#X obj 376 155 spigot;
#X obj 383 111 r shift;
#X obj 383 132 == 0;
#X obj 457 160 spigot;
#X obj 464 116 r shift;
#X obj 464 137 == 0;
#X obj 517 157 spigot;
#X obj 524 113 r shift;
#X obj 524 134 == 0;
#X obj 590 154 spigot;
#X obj 597 110 r shift;
#X obj 597 131 == 0;
#X obj 650 151 spigot;
#X obj 657 107 r shift;
#X obj 657 128 == 0;
#X obj 20 -11 r \$0.button.b;
#X obj 20 49 s shift;
#X connect 0 0 33 0;
#X connect 1 0 36 0;
#X connect 2 0 39 0;
#X connect 3 0 42 0;
#X connect 4 0 45 0;
#X connect 5 0 48 0;
#X connect 6 0 51 0;
#X connect 7 0 54 0;
#X connect 8 0 57 0;
#X connect 10 0 9 0;
#X connect 11 0 12 0;
#X connect 13 0 26 0;
#X connect 14 0 20 0;
#X connect 15 0 21 0;
#X connect 16 0 27 0;
#X connect 17 0 29 0;
#X connect 18 0 31 0;
#X connect 19 0 25 0;
#X connect 27 1 22 0;
#X connect 29 1 23 0;
#X connect 31 1 24 0;
#X connect 33 0 10 0;
#X connect 34 0 35 0;
#X connect 35 0 33 1;
#X connect 36 0 11 0;
#X connect 37 0 38 0;
#X connect 38 0 36 1;
#X connect 39 0 13 0;
#X connect 40 0 41 0;
#X connect 41 0 39 1;
#X connect 42 0 14 0;
#X connect 43 0 44 0;
#X connect 44 0 42 1;
#X connect 45 0 15 0;
#X connect 46 0 47 0;
#X connect 47 0 45 1;
#X connect 48 0 16 0;
#X connect 49 0 50 0;
#X connect 50 0 48 1;
#X connect 51 0 17 0;
#X connect 52 0 53 0;
#X connect 53 0 51 1;
#X connect 54 0 18 0;
#X connect 55 0 56 0;
#X connect 56 0 54 1;
#X connect 57 0 19 0;
#X connect 58 0 59 0;
#X connect 59 0 57 1;
#X connect 61 0 62 0;
#X connect 62 0 60 1;
#X connect 63 0 64 0;
#X restore 634 235 pd wiiButtons;
#X obj 797 215 r wii-nun-joy;
#X obj 797 244 unpack;
#X obj 802 317 moses;
#X obj 765 389 < -100;
#X obj 838 400 > 100;
#X obj 773 433 change;
#X obj 823 436 change;
#X obj 771 467 sel 1;
#X obj 820 466 sel 1;
#X obj 817 341 sel 0;
#X msg 801 362 0;
#X floatatom 820 277 5 0 0 0 - - -;
#X obj 768 269 - 127;
#X obj 928 316 moses;
#X obj 964 399 > 100;
#X obj 899 432 change;
#X obj 949 435 change;
#X obj 897 466 sel 1;
#X obj 946 465 sel 1;
#X obj 943 340 sel 0;
#X msg 927 361 0;
#X floatatom 876 263 5 0 0 0 - - -;
#X obj 874 297 - 127;
#X obj 891 388 < -60;
#X obj 809 644 mod 8;
#X obj 809 681 + 1;
#X obj 861 681 + 1;
#X obj 825 736 pack;
#X obj 852 704 t b f;
#X obj 919 558 int;
#X obj 861 645 mod 5;
#X obj 886 559 +;
#X msg 901 504 1;
#X msg 933 500 -1;
#X floatatom 992 601 5 0 0 0 - - -;
#X obj 807 586 int;
#X obj 778 588 +;
#X msg 789 532 -1;
#X msg 823 526 1;
#X floatatom 50 273 5 0 0 0 - - -;
#X obj 732 544 bng 15 250 50 0 empty empty empty 17 7 0 10 -262144
-1 -1;
#X obj 706 596 bng 15 250 50 0 empty empty empty 17 7 0 10 -262144
-1 -1;
#X obj 825 765 s select;
#X obj 662 691 s wii-nun-joy-LR;
#X obj 404 414 input/wii-nun;
#X msg 596 101 reportExpansion 1;
#X obj 592 45 delay 3000;
#X msg 529 112 1;
#X obj 336 33 t b b b;
#X obj 356 275 wiimote;
#X msg 744 100 report nunchuk 1;
#X obj 288 850 change;
#N canvas 22 181 554 440 buttons 0;
#X obj 11 11 r \$0.from.wiimote;
#X obj 11 33 route button;
#X obj 33 387 s \$0.button.up;
#X obj 66 363 s \$0.button.down;
#X obj 103 338 s \$0.button.left;
#X obj 138 313 s \$0.button.right;
#X obj 177 286 s \$0.button.a;
#X obj 212 261 s \$0.button.b;
#X obj 243 235 s \$0.button.minus;
#X obj 280 208 s \$0.button.home;
#X obj 325 180 s \$0.button.plus;
#X obj 372 151 s \$0.button.1;
#X obj 404 122 s \$0.button.2;
#X obj 11 79 unpack f f;
#X obj 11 56 list;
#X obj 33 359 & 8;
#X obj 66 335 & 4;
#X obj 103 310 & 1;
#X obj 138 285 & 2;
#X obj 177 258 & 8;
#X obj 212 233 & 4;
#X obj 243 207 & 16;
#X obj 280 180 & 128;
#X obj 325 152 & 16;
#X obj 372 123 & 2;
#X obj 404 94 & 1;
#X connect 0 0 1 0;
#X connect 1 0 14 0;
#X connect 13 0 15 0;
#X connect 13 0 16 0;
#X connect 13 0 17 0;
#X connect 13 0 18 0;
#X connect 13 0 23 0;
#X connect 13 1 19 0;
#X connect 13 1 20 0;
#X connect 13 1 21 0;
#X connect 13 1 22 0;
#X connect 13 1 24 0;
#X connect 13 1 25 0;
#X connect 14 0 13 0;
#X connect 15 0 2 0;
#X connect 16 0 3 0;
#X connect 17 0 4 0;
#X connect 18 0 5 0;
#X connect 19 0 6 0;
#X connect 20 0 7 0;
#X connect 21 0 8 0;
#X connect 22 0 9 0;
#X connect 23 0 10 0;
#X connect 24 0 11 0;
#X connect 25 0 12 0;
#X restore 325 371 pd buttons;
#X obj 250 483 r \$0.button.left;
#X obj 285 459 r \$0.button.right;
#X obj 246 598 s advance;
#X obj 250 525 sel 1 2;
#X msg 237 557 -1;
#X msg 281 557 1;
#X connect 0 0 1 0;
#X connect 0 0 109 0;
#X connect 1 0 5 0;
#X connect 1 0 41 0;
#X connect 1 1 2 0;
#X connect 6 0 111 0;
#X connect 6 2 7 0;
#X connect 6 2 32 0;
#X connect 7 0 10 0;
#X connect 8 0 9 0;
#X connect 9 0 6 0;
#X connect 13 0 17 0;
#X connect 13 0 23 0;
#X connect 14 0 19 0;
#X connect 15 0 26 0;
#X connect 16 0 17 1;
#X connect 17 0 18 0;
#X connect 18 0 14 0;
#X connect 19 0 15 0;
#X connect 20 0 23 1;
#X connect 21 0 25 0;
#X connect 22 0 27 0;
#X connect 23 0 24 0;
#X connect 24 0 21 0;
#X connect 25 0 22 0;
#X connect 28 0 30 0;
#X connect 28 0 31 0;
#X connect 31 0 29 0;
#X connect 34 0 33 0;
#X connect 35 0 33 0;
#X connect 36 0 33 0;
#X connect 38 0 108 0;
#X connect 39 0 108 0;
#X connect 40 0 1 0;
#X connect 40 0 109 0;
#X connect 42 0 37 0;
#X connect 43 0 44 0;
#X connect 43 0 99 0;
#X connect 44 0 45 0;
#X connect 44 1 52 0;
#X connect 45 0 46 0;
#X connect 45 0 47 0;
#X connect 46 0 45 1;
#X connect 47 0 48 0;
#X connect 48 0 50 0;
#X connect 49 0 51 0;
#X connect 51 0 50 0;
#X connect 51 1 50 1;
#X connect 52 0 53 0;
#X connect 52 0 54 0;
#X connect 53 0 52 1;
#X connect 54 0 49 0;
#X connect 57 0 45 0;
#X connect 57 0 52 0;
#X connect 61 0 71 0;
#X connect 61 0 72 0;
#X connect 61 1 81 0;
#X connect 61 1 82 0;
#X connect 62 0 63 0;
#X connect 62 1 64 0;
#X connect 62 1 69 0;
#X connect 63 0 65 0;
#X connect 64 0 66 0;
#X connect 65 0 67 0;
#X connect 66 0 68 0;
#X connect 67 0 97 0;
#X connect 68 0 98 0;
#X connect 69 0 70 0;
#X connect 70 0 63 0;
#X connect 72 0 62 0;
#X connect 73 0 83 0;
#X connect 73 1 74 0;
#X connect 73 1 79 0;
#X connect 74 0 76 0;
#X connect 75 0 77 0;
#X connect 76 0 78 0;
#X connect 77 0 92 0;
#X connect 78 0 93 0;
#X connect 79 0 80 0;
#X connect 80 0 83 0;
#X connect 82 0 73 0;
#X connect 83 0 75 0;
#X connect 84 0 85 0;
#X connect 85 0 87 0;
#X connect 86 0 88 0;
#X connect 88 0 87 0;
#X connect 88 1 87 1;
#X connect 89 0 91 1;
#X connect 89 0 90 0;
#X connect 90 0 86 0;
#X connect 91 0 89 0;
#X connect 91 0 94 0;
#X connect 92 0 91 0;
#X connect 93 0 91 0;
#X connect 95 0 96 1;
#X connect 96 0 95 0;
#X connect 96 0 84 0;
#X connect 97 0 96 0;
#X connect 97 0 100 0;
#X connect 97 0 103 0;
#X connect 98 0 96 0;
#X connect 98 0 101 0;
#X connect 98 0 103 0;
#X connect 105 0 37 0;
#X connect 106 0 107 0;
#X connect 106 0 110 0;
#X connect 107 0 42 0;
#X connect 108 0 36 0;
#X connect 108 1 106 0;
#X connect 109 0 41 0;
#X connect 109 0 5 0;
#X connect 110 0 37 0;
#X connect 111 0 11 0;
#X connect 113 0 116 0;
#X connect 114 0 116 0;
#X connect 116 0 117 0;
#X connect 116 1 118 0;
#X connect 117 0 115 0;
#X connect 118 0 115 0;
#X coords 0 -1 1 1 45 45 1 100 100;
#X restore 1229 85 pd wii;
#X obj 95 6 tgl 60 0 rec color_Standard Rec 17 7 0 10 -220535 -104025
-104025 1 1;
#X obj 100 -84 loadbang;
#X msg 100 -55 1;
#X obj 165 7 tgl 60 0 run color_Standard run 17 7 0 10 -220535 -104025
-104025 1 1;
#X obj 881 33 bng 60 250 50 0 rst color_Standard Rst 8 20 0 20 -220535
-104025 -104025;
#N canvas 342 171 1249 730 makeloops 0;
#X obj 486 499 symbol;
#X msg 498 -83 \; pd-loops clear;
#X obj 463 550 pack f s 2 2;
#X obj 461 31 until;
#X msg 461 62 1;
#X obj 461 87 +;
#X obj 491 87 int;
#X msg 500 31 0;
#X obj 461 257 until;
#X msg 461 288 1;
#X obj 461 313 +;
#X obj 491 313 int;
#X msg 500 257 0;
#X obj 465 131 t b f;
#X obj 461 227 t f b b f;
#X obj 470 708 pack f s f f f f;
#X msg 517 812 \; pd-loops obj \$5 \$6 \$2 \$3 \$4;
#X obj 529 609 - 1;
#X obj 569 600 - 1, f 4;
#X obj 570 652 * 65;
#X obj 530 638 * 110;
#X obj 406 29 s init;
#X obj 461 1 t b f b b;
#X obj 224 146 until;
#X msg 224 177 1;
#X obj 224 202 +;
#X obj 254 202 int;
#X msg 268 161 0;
#X obj 228 246 t b f;
#X obj 234 451 symbol;
#X obj 277 561 - 1;
#X obj 317 562 - 1, f 4;
#X obj 317 644 * 65;
#X obj 280 641 * 110;
#X obj 209 699 pack f s f f f f;
#X obj 202 740 t a a a a a a a a;
#X obj 463 742 t a a a a a a a a;
#X obj -187 197 until;
#X msg -187 228 1;
#X obj -187 253 +;
#X obj -157 253 int;
#X msg -148 197 -1;
#X obj -187 393 until;
#X msg -187 424 1;
#X obj -187 449 +;
#X obj -157 449 int;
#X obj -187 363 t b f b b;
#X msg -148 393 -1;
#X obj -171 543 pack;
#X obj -111 498 + 16;
#X msg -220 591 \; pd-loops connect \$1 0 \$2 0;
#X obj -181 492 +;
#X obj -130 474 * 4;
#X obj 723 80 v channels;
#X obj 804 73 v scenes;
#X msg 555 -28 3;
#X obj 465 -26 v channels;
#X obj 464 178 v scenes;
#X obj 221 38 v channels;
#X obj 323 -101 bng 16 250 50 0 empty empty empty 17 7 0 10 -262144
-1 -1;
#X obj -187 85 v channels;
#X obj -188 332 v scenes;
#X obj -95 318 v scenes;
#X obj -98 417 *;
#X obj -83 346 v channels;
#X obj 95 -67 bng 15 250 50 0 empty empty empty 17 7 0 10 -262144 -1
-1;
#X obj -187 285 t b f f b b;
#X obj 688 173 v channelX;
#X obj 780 172 v sceneY;
#X obj 596 622 v sceneY;
#X obj 611 585 v channelX;
#X obj 350 609 v sceneY;
#X obj 365 572 v channelX;
#X obj 222 527 unpack f s f f;
#X obj 473 575 unpack f s f f;
#X obj 209 298 t f f a f b;
#X obj 461 346 t b f a f b;
#X obj 274 358 v scenes;
#X obj 211 488 pack f s f f;
#X obj 274 395 + 1;
#X obj 350 -96 t b b b b b;
#X obj 673 -27 t b;
#X obj 40 453 symbol;
#X obj 123 564 - 1, f 4;
#X obj 123 646 * 65;
#X obj 86 643 * 110;
#X obj 8 742 t a a a a a a a a;
#X obj 156 611 v sceneY;
#X obj 171 574 v channelX;
#X obj 28 529 unpack f s f f;
#X obj 15 300 t f f a f b;
#X obj 80 360 v scenes;
#X obj 17 490 pack f s f f;
#X obj 80 397 + 1;
#X msg 38 425 master;
#X obj 16 274 v channels;
#X obj 24 213 bng 15 250 50 0 empty empty empty 17 7 0 10 -262144 -1
-1;
#X obj 224 116 t f f b b;
#X obj -368 189 until;
#X msg -368 220 1;
#X obj -368 245 +;
#X obj -338 245 int;
#X obj -368 159 t b f b b;
#X msg -329 189 -1;
#X obj -352 535 pack;
#X obj -357 445 + 16;
#X msg -401 583 \; pd-loops connect \$1 0 \$2 0;
#X obj -368 77 v channels;
#X obj -325 307 v scenes;
#X obj -328 406 *;
#X obj -313 335 v channels;
#X obj -368 277 t b f f b b;
#X obj -187 167 t f f b b;
#X obj -311 437 +;
#X obj 15 701 pack f s f f f 0;
#X obj 714 -76 loadbang;
#X msg 31 786 \; pd-loops obj \$5 \$6 \$2 \$1;
#X obj 22 565 + 1;
#X msg 225 784 \; pd-loops obj \$5 \$6 \$2 \$1;
#X msg 484 471 gatom;
#X msg 232 423 Gchannelstrip;
#X msg 798 15 3;
#X msg 731 20 8;
#X msg 705 129 200;
#X msg 773 124 200;
#X connect 0 0 2 1;
#X connect 2 0 74 0;
#X connect 3 0 4 0;
#X connect 4 0 5 0;
#X connect 5 0 6 0;
#X connect 5 0 13 0;
#X connect 6 0 5 1;
#X connect 7 0 6 0;
#X connect 8 0 9 0;
#X connect 9 0 10 0;
#X connect 10 0 11 0;
#X connect 10 0 76 0;
#X connect 11 0 10 1;
#X connect 12 0 11 0;
#X connect 13 0 57 0;
#X connect 13 1 2 2;
#X connect 14 0 8 0;
#X connect 14 1 12 0;
#X connect 15 0 36 0;
#X connect 17 0 20 0;
#X connect 18 0 19 0;
#X connect 19 0 15 5;
#X connect 20 0 15 4;
#X connect 22 0 21 0;
#X connect 22 1 3 0;
#X connect 22 2 7 0;
#X connect 23 0 24 0;
#X connect 24 0 25 0;
#X connect 25 0 26 0;
#X connect 25 0 28 0;
#X connect 25 0 75 0;
#X connect 26 0 25 1;
#X connect 27 0 26 0;
#X connect 29 0 78 1;
#X connect 30 0 33 0;
#X connect 31 0 32 0;
#X connect 32 0 34 5;
#X connect 33 0 34 4;
#X connect 34 0 35 0;
#X connect 35 7 118 0;
#X connect 36 7 16 0;
#X connect 37 0 38 0;
#X connect 38 0 39 0;
#X connect 39 0 40 0;
#X connect 39 0 66 0;
#X connect 40 0 39 1;
#X connect 41 0 40 0;
#X connect 42 0 43 0;
#X connect 43 0 44 0;
#X connect 44 0 45 0;
#X connect 44 0 51 0;
#X connect 45 0 44 1;
#X connect 46 1 42 0;
#X connect 46 2 47 0;
#X connect 47 0 45 0;
#X connect 48 0 50 0;
#X connect 49 0 48 1;
#X connect 51 0 48 0;
#X connect 52 0 51 1;
#X connect 56 0 22 0;
#X connect 57 0 14 0;
#X connect 58 0 97 0;
#X connect 59 0 80 0;
#X connect 60 0 112 0;
#X connect 61 0 46 0;
#X connect 62 0 63 0;
#X connect 62 0 52 1;
#X connect 63 0 49 1;
#X connect 64 0 63 1;
#X connect 65 0 60 0;
#X connect 66 0 61 0;
#X connect 66 1 52 0;
#X connect 66 2 49 0;
#X connect 66 3 62 0;
#X connect 66 4 64 0;
#X connect 69 0 19 1;
#X connect 70 0 20 1;
#X connect 71 0 32 1;
#X connect 72 0 33 1;
#X connect 73 0 34 0;
#X connect 73 1 34 1;
#X connect 73 2 30 0;
#X connect 73 2 34 2;
#X connect 73 3 31 0;
#X connect 73 3 34 3;
#X connect 74 0 15 0;
#X connect 74 1 15 1;
#X connect 74 2 15 2;
#X connect 74 2 17 0;
#X connect 74 3 15 3;
#X connect 74 3 18 0;
#X connect 75 1 78 0;
#X connect 75 2 120 0;
#X connect 75 3 78 2;
#X connect 75 4 72 0;
#X connect 75 4 71 0;
#X connect 75 4 77 0;
#X connect 76 1 2 0;
#X connect 76 2 119 0;
#X connect 76 3 2 3;
#X connect 76 4 70 0;
#X connect 76 4 69 0;
#X connect 77 0 79 0;
#X connect 78 0 73 0;
#X connect 79 0 78 3;
#X connect 80 0 60 0;
#X connect 80 1 58 0;
#X connect 80 2 56 0;
#X connect 80 3 1 0;
#X connect 80 4 81 0;
#X connect 81 0 122 0;
#X connect 81 0 121 0;
#X connect 81 0 123 0;
#X connect 81 0 124 0;
#X connect 82 0 92 1;
#X connect 83 0 84 0;
#X connect 85 0 114 4;
#X connect 86 7 116 0;
#X connect 87 0 84 1;
#X connect 88 0 85 1;
#X connect 89 0 117 0;
#X connect 89 1 114 1;
#X connect 89 2 85 0;
#X connect 89 2 114 2;
#X connect 89 3 83 0;
#X connect 89 3 114 3;
#X connect 90 1 92 0;
#X connect 90 2 94 0;
#X connect 90 3 92 2;
#X connect 90 4 88 0;
#X connect 90 4 87 0;
#X connect 90 4 91 0;
#X connect 91 0 93 0;
#X connect 92 0 89 0;
#X connect 93 0 92 3;
#X connect 94 0 82 0;
#X connect 95 0 90 0;
#X connect 96 0 95 0;
#X connect 97 0 90 0;
#X connect 97 1 23 0;
#X connect 97 2 27 0;
#X connect 98 0 99 0;
#X connect 99 0 100 0;
#X connect 100 0 101 0;
#X connect 100 0 111 0;
#X connect 101 0 100 1;
#X connect 102 1 98 0;
#X connect 102 2 103 0;
#X connect 103 0 101 0;
#X connect 104 0 106 0;
#X connect 105 0 104 0;
#X connect 107 0 102 0;
#X connect 108 0 109 0;
#X connect 109 0 105 1;
#X connect 109 0 113 0;
#X connect 110 0 109 1;
#X connect 110 0 113 1;
#X connect 111 2 105 0;
#X connect 111 3 108 0;
#X connect 111 4 110 0;
#X connect 112 0 102 0;
#X connect 112 1 37 0;
#X connect 112 2 41 0;
#X connect 113 0 104 1;
#X connect 114 0 86 0;
#X connect 115 0 81 0;
#X connect 117 0 114 0;
#X connect 119 0 0 0;
#X connect 120 0 29 0;
#X connect 121 0 54 0;
#X connect 122 0 53 0;
#X connect 123 0 67 0;
#X connect 124 0 68 0;
#X restore 246 310 pd makeloops;
#N canvas 346 190 450 300 midiout 0;
#X obj 55 180 midiout;
#X obj 63 23 r clock;
#X obj 38 92 t b b;
#X msg 64 130 250;
#X msg 32 126 248;
#X obj 63 71 sel 0 -1;
#X msg 97 124 252;
#X obj 220 13 r preset;
#X obj 220 141 ctlout;
#X obj 220 79 t f b b;
#X msg 286 111 4;
#X msg 248 112 53;
#X obj 220 45 * 8;
#X connect 2 0 4 0;
#X connect 2 1 3 0;
#X connect 3 0 0 0;
#X connect 4 0 0 0;
#X connect 5 0 2 0;
#X connect 5 1 6 0;
#X connect 5 2 4 0;
#X connect 6 0 0 0;
#X connect 9 0 8 0;
#X connect 9 1 11 0;
#X connect 9 2 10 0;
#X connect 10 0 8 2;
#X connect 11 0 8 1;
#X connect 12 0 9 0;
#X restore 246 291 pd midiout;
#N canvas 336 194 1041 705 netG 0;
#X obj 176 571 netsend -u;
#X obj 175 495 list prepend send;
#X obj 176 520 list trim;
#X obj 127 309 s fromA;
#X obj 504 121 list prepend send;
#X obj 505 146 list trim;
#X obj 501 17 metro 500;
#X msg 505 45 32;
#X obj 417 39 r 2pLoopA;
#X obj 496 85 list prepend 2pLoopA;
#X obj 127 273 route 2pLoopG;
#X obj 109 95 bng 45 250 50 0 empty color_Standard net 5 20 0 20 -220535
-104025 -104025;
#X obj 505 197 netsend -u;
#X obj 175 462 r toAll;
#X obj 276 235 netreceive -u 8099;
#X obj 276 276 s clock;
#X obj 634 38 r broadcastAddr;
#X obj 634 66 t a b;
#X msg 661 96 disconnect;
#X obj 634 124 symbol;
#X msg 634 151 connect \$1 8005;
#X obj 634 180 t a;
#X obj 294 412 r broadcastAddr;
#X obj 294 440 t a b;
#X msg 321 470 disconnect;
#X obj 294 498 symbol;
#X obj 294 554 t a;
#X msg 294 525 connect \$1 8000;
#X obj 211 131 s broadcastAddr;
#X msg 220 84 localhost;
#X msg 154 22 192.168.1.255;
#X obj 210 58 loadbang;
#X obj 127 236 netreceive -u 8006;
#X connect 1 0 2 0;
#X connect 2 0 0 0;
#X connect 4 0 5 0;
#X connect 5 0 12 0;
#X connect 6 0 7 0;
#X connect 8 0 9 0;
#X connect 9 0 4 0;
#X connect 10 0 3 0;
#X connect 11 0 29 0;
#X connect 13 0 1 0;
#X connect 14 0 15 0;
#X connect 16 0 17 0;
#X connect 17 0 19 0;
#X connect 17 1 18 0;
#X connect 18 0 21 0;
#X connect 19 0 20 0;
#X connect 20 0 21 0;
#X connect 21 0 12 0;
#X connect 22 0 23 0;
#X connect 23 0 25 0;
#X connect 23 1 24 0;
#X connect 24 0 26 0;
#X connect 25 0 27 0;
#X connect 26 0 0 0;
#X connect 27 0 26 0;
#X connect 29 0 28 0;
#X connect 31 0 29 0;
#X connect 31 0 30 0;
#X connect 32 0 10 0;
#X coords 0 -1 1 1 45 45 2 109 95;
#X restore 1139 86 pd netG;
#X obj 355 292 r fromA;
#X obj 355 324 route select;
#X obj 355 348 s select;
#X obj 78 372 s 2pLoopA;
#X msg 80 319 rec \$1;
#X obj 81 295 r rec;
#X obj 138 294 r run;
#X msg 137 318 run \$1;
#X obj 9 17 vu 60 120 empty empty -1 -8 0 10 -66577 -1 0 0;
#X obj -3 -107 r fromA;
#X obj -3 -58 route aEnv;
#X obj 478 292 input/keyboard;
#X obj 1725 174 vu 50 120 empty empty -1 -8 0 10 -66577 -1 0 0;
#X obj 1733 -141 r fromA;
#X obj 1732 -94 route aEnv;
#X obj 243 8 nbx 3 60 1 300 0 0 empty color_Standard empty 0 -8 0 30
-220535 -104025 -104025 110 256;
#X obj 206 211 s 2pLoopA;
#X msg 204 174 bpm \$1;
#X obj 219 -66 loadbang;
#X msg 225 -44 110;
#X obj 1777 -218 v channels;
#X obj 1777 -161 + 1;
#X obj 1777 -245 loadbang;
#X obj 596 7 tgl 60 0 empty color_Standard klick 5 10 0 10 -220535
-104025 -104025 0 1;
#X obj 595 76 vsl 60 60 0 1 0 1 empty color_Standard empty 0 -9 0 10
-220535 -104025 -104025 1550 1;
#X obj 341 161 pack;
#X obj 378 161 t b f;
#X msg 341 189 klick \$1 \$2;
#X obj 341 217 s 2pLoopA;
#X obj 674 32 nbx 2 60 0 16 0 1 empty color_Standard rBars 5 -15 0
30 -220535 -104025 -104025 4 256;
#X msg 630 169 recBars \$1;
#X obj 630 218 s 2pLoopA;
#X obj 639 193 v recBars;
#X obj 1023 250 s wii-nunCh+4;
#X obj 1021 228 change;
#X obj 472 -186 r ctlInput;
#X obj 472 -157 route pot;
#X obj 472 -128 route 9;
#X obj 472 -72 int;
#X obj 472 -102 * 16;
#X obj 472 -46 change;
#X obj 637 -172 r ctlInput;
#X obj 637 -143 route ribbon;
#X obj 637 -68 s 2pLoopA;
#X msg 637 -102 ribbon \$1;
#N canvas 181 208 795 516 colors 0;
#N canvas 2 95 306 317 flash-time 0;
#X obj 96 521 outlet;
#X obj 162 230 t b f;
#X obj 96 268 +;
#X obj 96 293 t b f;
#X obj 96 324 +;
#X obj 19 208 * -65536;
#X obj 96 208 * -256;
#X obj 162 208 * -1;
#X obj 96 355 - 1;
#X obj 96 385 list prepend 0;
#X obj 96 410 route 0 1 2;
#X obj 96 497 pack 0 0 0;
#X obj 115 456 t b a;
#X obj 168 455 t b a;
#X obj 104 124 vradio 15 1 0 3 empty empty empty 0 -8 0 10 -262144
-1 -1 2;
#X text 120 120 1.bg;
#X text 120 137 2.front;
#X text 120 153 3.label;
#X obj 103 105 nbx 3 14 0 255 0 0 \$0-dummy \$0-r empty 0 -8 0 10 -262144
-258113 -1 0 256;
#X obj 133 105 nbx 3 14 0 255 0 0 \$0-dummy \$0-g empty 0 -8 0 10 -262144
-13381 -1 0 256;
#X obj 163 105 nbx 3 14 0 255 0 0 \$0-dummy \$0-b empty 0 -8 0 10 -262144
-4160 -1 0 256;
#X connect 1 0 2 0;
#X connect 1 1 2 1;
#X connect 2 0 3 0;
#X connect 3 0 4 0;
#X connect 3 1 4 1;
#X connect 4 0 8 0;
#X connect 5 0 4 0;
#X connect 6 0 2 0;
#X connect 7 0 1 0;
#X connect 8 0 9 0;
#X connect 9 0 10 0;
#X connect 10 0 11 0;
#X connect 10 1 12 0;
#X connect 10 2 13 0;
#X connect 11 0 0 0;
#X connect 12 0 11 0;
#X connect 12 1 11 1;
#X connect 13 0 11 0;
#X connect 13 1 11 2;
#X connect 14 0 9 1;
#X connect 18 0 5 0;
#X connect 19 0 6 0;
#X connect 20 0 7 0;
#X coords 0 -1 1 1 102 74 2 100 100;
#X restore 166 -33 pd flash-time;
#X msg 128 113 set color \$1 \$2 \$3;
#X msg 21 154 color -1.67117e+07 -464457 0;
#X obj 148 247 s colors;
#X msg 10 208 mute set color \$1 \$2 \$3;
#X msg 298 13 mute set color \$1 \$2 \$3;
#X msg 165 185 mute \$1 \$2 \$3;
#X obj 267 223 pack s f f f;
#X obj 606 147 unpack f f f;
#X msg 265 171 mute;
#X obj 266 196 symbol;
#X obj 267 251 list trim;
#X msg 263 141 off;
#X obj 63 266 bng 75 250 50 0 empty empty empty 17 7 0 10 -220534 -104026
-104026;
#X msg 65 79 color \$1 \$2 \$3;
#X msg 297 140 standard;
#X obj 192 289 r colors;
#X msg 217 405 color \$1 \$2 \$3;
#X obj 195 457 s color_Standard;
#X msg 363 141 play;
#X msg 411 141 rec;
#X msg 445 141 stop;
#X msg 487 140 rst;
#X msg 192 347 set color \$1 \$2 \$3;
#X obj 359 347 loadbang;
#X obj 192 312 route standard;
#X obj 46 371 hsl 128 15 0 127 0 0 empty empty empty -2 -8 0 10 -220534
-104026 -104026 0 1;
#X msg 522 141 rEditSel;
#X msg 283 87 solo;
#X msg 357 99 ch+4;
#X msg 368 286 -1.31586e+07 -3.23053e+06 -592653;
#X msg 323 413 color -1.67772e+07 -1.67772e+07 0;
#X floatatom 547 201 15 0 0 0 - - -;
#X floatatom 583 227 15 0 0 0 - - -;
#X floatatom 627 249 15 0 0 0 - - -;
#X msg 320 438 color -1.38165e+07 -6.5793e+06 -6.5793e+06;
#X msg 106 423 color 0 0 0;
#X msg 193 377 color -1.41455e+07 -6.5793e+06 -6.5793e+06;
#X connect 0 0 1 0;
#X connect 0 0 6 0;
#X connect 0 0 8 0;
#X connect 0 0 14 0;
#X connect 2 0 4 0;
#X connect 4 0 3 0;
#X connect 7 0 11 0;
#X connect 8 0 7 1;
#X connect 8 0 32 0;
#X connect 8 1 7 2;
#X connect 8 1 33 0;
#X connect 8 2 7 3;
#X connect 8 2 34 0;
#X connect 9 0 10 0;
#X connect 10 0 7 0;
#X connect 11 0 3 0;
#X connect 12 0 10 0;
#X connect 14 0 13 0;
#X connect 14 0 26 0;
#X connect 15 0 10 0;
#X connect 16 0 25 0;
#X connect 17 0 18 0;
#X connect 19 0 10 0;
#X connect 20 0 10 0;
#X connect 21 0 10 0;
#X connect 22 0 10 0;
#X connect 23 0 37 0;
#X connect 24 0 37 0;
#X connect 25 0 23 0;
#X connect 27 0 10 0;
#X connect 28 0 10 0;
#X connect 29 0 10 0;
#X connect 30 0 8 0;
#X connect 31 0 18 0;
#X connect 35 0 18 0;
#X connect 36 0 18 0;
#X connect 37 0 18 0;
#X restore 476 352 pd colors;
#X obj 777 33 nbx 2 60 0 16 0 1 empty color_Standard beats 5 -15 0
30 -220535 -104025 -104025 4 256;
#X obj 712 215 s 2pLoopA;
#X msg 709 169 beats \$1;
#X obj 743 193 v beats;
#X obj 559 -77 loadbang;
#X msg 559 -48 4;
#X obj 1649 16 bng 60 250 50 0 empty color_Standard exp 17 7 0 10 -220535
-104025 -104025;
#X obj 1633 223 s 2pLoopA;
#X msg 1631 186 export 1;
#N canvas 2 223 1041 705 ch+4 0;
#X obj 378 108 sel 0 1;
#X msg 367 230 color -1.41455e+07 -6.5793e+06 -6.5793e+06;
#X msg 447 161 color -4.47833e+06 0 0;
#X obj 100 100 tgl 60 0 empty empty ch+4 17 7 0 10 -220534 -104026
-104026 0 1;
#X obj 98 45 inlet;
#X obj 99 190 outlet;
#N canvas 0 50 306 317 flash-time 0;
#X obj 96 521 outlet;
#X obj 162 230 t b f;
#X obj 96 268 +;
#X obj 96 293 t b f;
#X obj 96 324 +;
#X obj 19 208 * -65536;
#X obj 96 208 * -256;
#X obj 162 208 * -1;
#X obj 96 355 - 1;
#X obj 96 385 list prepend 0;
#X obj 96 410 route 0 1 2;
#X obj 96 497 pack 0 0 0;
#X obj 115 456 t b a;
#X obj 168 455 t b a;
#X obj 104 124 vradio 15 1 0 3 empty empty empty 0 -8 0 10 -262144
-1 -1 0;
#X text 120 120 1.bg;
#X text 120 137 2.front;
#X text 120 153 3.label;
#X obj 103 105 nbx 3 14 0 255 0 0 \$0-dummy \$0-r empty 0 -8 0 10 -262144
-258113 -1 0 256;
#X obj 133 105 nbx 3 14 0 255 0 0 \$0-dummy \$0-g empty 0 -8 0 10 -262144
-13381 -1 0 256;
#X obj 163 105 nbx 3 14 0 255 0 0 \$0-dummy \$0-b empty 0 -8 0 10 -262144
-4160 -1 0 256;
#X connect 1 0 2 0;
#X connect 1 1 2 1;
#X connect 2 0 3 0;
#X connect 3 0 4 0;
#X connect 3 1 4 1;
#X connect 4 0 8 0;
#X connect 5 0 4 0;
#X connect 6 0 2 0;
#X connect 7 0 1 0;
#X connect 8 0 9 0;
#X connect 9 0 10 0;
#X connect 10 0 11 0;
#X connect 10 1 12 0;
#X connect 10 2 13 0;
#X connect 11 0 0 0;
#X connect 12 0 11 0;
#X connect 12 1 11 1;
#X connect 13 0 11 0;
#X connect 13 1 11 2;
#X connect 14 0 9 1;
#X connect 18 0 5 0;
#X connect 19 0 6 0;
#X connect 20 0 7 0;
#X coords 0 -1 1 1 102 74 2 100 100;
#X restore 701 130 pd flash-time;
#X msg 657 222 set color \$1 \$2 \$3;
#X obj 477 -40 r colors;
#X obj 477 -10 route ch+4 standard;
#X msg 462 104 set color \$1 \$2 \$3;
#X msg 411 201 set color \$1 \$2 \$3;
#X msg 354 65 color \$1 \$2 \$3;
#X connect 0 0 1 0;
#X connect 0 1 2 0;
#X connect 3 0 0 0;
#X connect 3 0 5 0;
#X connect 4 0 3 0;
#X connect 6 0 7 0;
#X connect 8 0 9 0;
#X connect 9 0 2 0;
#X connect 9 0 10 0;
#X connect 9 1 11 0;
#X connect 9 1 12 0;
#X connect 10 0 2 0;
#X connect 11 0 1 0;
#X connect 12 0 3 0;
#X coords 0 -1 1 1 60 60 2 100 100;
#X restore 961 17 pd ch+4;
#X obj 672 259 r wii-nun-b;
#X obj 813 514 s nunPos;
#X obj 672 325 int;
#X obj 706 325 + 1;
#X obj 672 284 sel 1 2;
#X obj 671 439 mod;
#X obj 690 375 v channels;
#X obj 116 408 loadbang;
#X msg 116 433 4;
#X obj 671 348 t f b b;
#X obj 691 405 /;
#X obj 671 468 + 1;
#X obj 813 270 int;
#X obj 847 270 + 1;
#X obj 812 384 mod;
#X obj 812 413 + 1;
#X obj 831 320 v scenes;
#X obj 812 293 t f b;
#X obj 812 473 pack;
#X obj 812 438 t b f;
#X obj 116 456 v nunBtnsX;
#X obj 722 401 v nunBtnsX;
#X obj 1633 306 vsl 50 60 0 1 0 1 empty color_Standard empty 0 -9 0
10 -220535 -104025 -104025 4050 1;
#X msg 1632 271 lampVol \$1;
#X obj 207 457 v ticks/beat;
#X msg 207 432 24;
#X obj 207 408 loadbang;
#X obj 271 212 s toAll;
#X obj 960 81 tgl 60 0 empty color_Standard VSmp 5 20 0 15 -220535
-104025 -104025 0 1;
#X obj 840 -73 s LorN;
#X obj 1025 17 tgl 60 0 empty color_Standard Octave 5 9 0 10 -220535
-104025 -104025 0 1;
#X obj 958 -50 spigot;
#X obj 997 -88 r LorN;
#X obj 897 -51 spigot;
#X obj 936 -102 r LorN;
#X obj 936 -76 == 0;
#X obj 986 202 s octave;
#N canvas 2 215 988 506 advance 0;
#X obj 100 100 hradio 60 1 0 8 empty color_Standard empty 0 -8 0 10
-220535 -104025 -104025 0;
#X obj 100 265 s toAll;
#X msg 100 232 advance \$1;
#X obj 100 2 r advance;
#X obj 100 37 +;
#X obj 133 37 int;
#X obj 100 70 mod 8;
#X obj 209 232 s preset;
#X obj 580 100 tgl 60 0 empty color_Standard snd 2 15 0 15 -220535
-104025 -104025 1 1;
#X obj 100 158 spigot;
#X obj 209 172 change;
#N canvas 313 241 450 300 quant 0;
#X obj 74 -16 r clock;
#X obj 145 19 inlet;
#X obj 106 185 outlet;
#X obj 106 150 int;
#X obj 74 8 mod 96;
#X obj 106 115 spigot;
#X obj 145 54 t b f;
#X msg 145 82 1;
#X obj 74 57 t b b;
#X msg 74 84 0;
#X obj 74 33 sel 0;
#X connect 0 0 4 0;
#X connect 1 0 6 0;
#X connect 3 0 2 0;
#X connect 4 0 10 0;
#X connect 5 0 3 0;
#X connect 6 0 7 0;
#X connect 6 1 3 1;
#X connect 7 0 5 1;
#X connect 8 0 9 0;
#X connect 8 1 5 0;
#X connect 9 0 5 1;
#X connect 10 0 8 0;
#X restore 209 201 pd quant;
#X obj 207 8 r swPreset;
#X floatatom 243 59 5 0 0 0 - - -;
#X connect 0 0 5 0;
#X connect 0 0 9 0;
#X connect 0 0 10 0;
#X connect 2 0 1 0;
#X connect 3 0 4 0;
#X connect 4 0 5 0;
#X connect 4 0 6 0;
#X connect 5 0 4 1;
#X connect 6 0 0 0;
#X connect 8 0 9 1;
#X connect 9 0 2 0;
#X connect 10 0 11 0;
#X connect 11 0 7 0;
#X connect 12 0 13 0;
#X connect 12 0 0 0;
#X coords 0 -1 1 1 540 60 2 100 100;
#X restore 1101 16 pd advance;
#X obj 1025 82 tgl 60 0 empty color_Standard L_or_N 5 9 0 10 -220535
-104025 -104025 0 1;
#X obj 902 176 s vSmp;
#X obj 883 -176 loadbang;
#X msg 883 -154 0;
#N canvas 2 154 1041 705 keyboard2master 0;
#X obj 105 79 r ctlInput;
#X obj 98 228 s 2pLoopA;
#X obj 101 110 route fader pot;
#X msg 179 187 \$1 pan \$2;
#X obj 94 145 route 9;
#X msg 94 184 9 vol \$1;
#X connect 0 0 2 0;
#X connect 2 0 4 0;
#X connect 3 0 1 0;
#X connect 4 0 5 0;
#X connect 5 0 1 0;
#X restore 480 317 pd keyboard2master;
#X obj 1107 204 loadbang;
#X msg 1107 226 0;
#X obj 807 -333 r LorNCH4Oct;
#X obj 807 -305 unpack;
#X obj 846 -269 int;
#X obj 893 -264 int;
#X obj 785 -274 sel 1 2;
#X obj 846 -238 sel 1;
#X obj 893 -236 sel 1;
#X obj 763 -77 r LorN;
#X obj 114 -28 r recKey;
#X obj -3 -84 route 0 -1;
#X obj 1786 174 vu 50 120 empty empty -1 -8 0 10 -66577 -1 0 0;
#X obj 1746 -63 route aEnv;
#X obj 1733 -118 route 9 10;
#X obj 99 76 hradio 60 1 0 8 empty color_Standard 1___2___3___4___5___6___7___8
20 33 0 25 -220535 -104025 -104025 2;
#X obj 60 230 s 2pLoopA;
#X msg 60 195 inSel \$1;
#X obj 60 163 + 1;
#X obj 474 379 input/keyfoot;
#X floatatom 1704 -39 5 0 0 0 - - -;
#X obj 1627 -169 vsl 15 128 -50 0 0 0 empty empty empty 0 -9 0 10 -262144
-1 -1 6238 1;
#X connect 3 0 4 0;
#X connect 4 0 2 0;
#X connect 11 0 12 0;
#X connect 14 0 13 0;
#X connect 15 0 14 0;
#X connect 16 0 17 0;
#X connect 17 0 13 0;
#X connect 19 0 120 0;
#X connect 20 0 18 0;
#X connect 23 0 123 0;
#X connect 25 0 27 0;
#X connect 27 0 26 0;
#X connect 27 0 93 0;
#X connect 28 0 29 0;
#X connect 29 0 25 0;
#X connect 30 0 31 0;
#X connect 32 0 30 0;
#X connect 33 0 35 0;
#X connect 34 0 36 0;
#X connect 35 0 37 0;
#X connect 36 0 35 0;
#X connect 36 1 35 1;
#X connect 37 0 38 0;
#X connect 39 0 40 0;
#X connect 39 0 42 0;
#X connect 40 0 41 0;
#X connect 44 0 43 0;
#X connect 45 0 46 0;
#X connect 46 0 47 0;
#X connect 47 0 49 0;
#X connect 48 0 50 0;
#X connect 49 0 48 0;
#X connect 50 0 39 0;
#X connect 51 0 52 0;
#X connect 52 0 54 0;
#X connect 54 0 53 0;
#X connect 56 0 58 0;
#X connect 56 0 59 0;
#X connect 58 0 57 0;
#X connect 60 0 61 0;
#X connect 61 0 56 0;
#X connect 62 0 64 0;
#X connect 64 0 63 0;
#X connect 65 0 44 0;
#X connect 66 0 70 0;
#X connect 68 0 69 0;
#X connect 68 0 75 0;
#X connect 69 0 68 1;
#X connect 70 0 68 0;
#X connect 70 1 78 0;
#X connect 71 0 77 0;
#X connect 72 0 76 0;
#X connect 73 0 74 0;
#X connect 74 0 86 0;
#X connect 75 0 71 0;
#X connect 75 1 72 0;
#X connect 75 2 87 0;
#X connect 76 0 71 1;
#X connect 77 0 84 0;
#X connect 78 0 79 0;
#X connect 78 0 83 0;
#X connect 79 0 78 1;
#X connect 80 0 81 0;
#X connect 81 0 85 0;
#X connect 82 0 80 1;
#X connect 83 0 80 0;
#X connect 83 1 82 0;
#X connect 84 0 67 0;
#X connect 85 0 84 0;
#X connect 85 1 84 1;
#X connect 87 0 76 1;
#X connect 88 0 89 0;
#X connect 89 0 63 0;
#X connect 91 0 90 0;
#X connect 92 0 91 0;
#X connect 94 0 105 0;
#X connect 96 0 102 0;
#X connect 97 0 96 0;
#X connect 98 0 97 1;
#X connect 99 0 65 0;
#X connect 100 0 101 0;
#X connect 101 0 99 1;
#X connect 104 0 95 0;
#X connect 106 0 107 0;
#X connect 107 0 104 0;
#X connect 107 0 95 0;
#X connect 109 0 110 0;
#X connect 110 0 44 0;
#X connect 111 0 112 0;
#X connect 112 0 115 0;
#X connect 112 1 114 1;
#X connect 112 1 113 1;
#X connect 113 0 116 0;
#X connect 114 0 117 0;
#X connect 115 0 113 0;
#X connect 115 1 114 0;
#X connect 116 0 104 0;
#X connect 117 0 99 0;
#X connect 117 0 97 0;
#X connect 119 0 2 0;
#X connect 120 0 20 0;
#X connect 122 0 129 0;
#X connect 123 0 24 0;
#X connect 123 1 122 0;
#X connect 124 0 127 0;
#X connect 126 0 125 0;
#X connect 127 0 126 0;
#X coords 0 -1 1 1 1850 150 1 0 0;
#X restore 37 8 pd control;
#N canvas 0 96 1920 984 loops 0;
#X obj 0 0 gatom 1 1;
#X obj 0 200 gatom 1 2;
#X obj 0 400 gatom 1 3;
#X obj 200 0 gatom 2 1;
#X obj 200 200 gatom 2 2;
#X obj 200 400 gatom 2 3;
#X obj 400 0 gatom 3 1;
#X obj 400 200 gatom 3 2;
#X obj 400 400 gatom 3 3;
#X obj 600 0 gatom 4 1;
#X obj 600 200 gatom 4 2;
#X obj 600 400 gatom 4 3;
#X obj 800 0 gatom 5 1;
#X obj 800 200 gatom 5 2;
#X obj 800 400 gatom 5 3;
#X obj 1000 0 gatom 6 1;
#X obj 1000 200 gatom 6 2;
#X obj 1000 400 gatom 6 3;
#X obj 1200 0 gatom 7 1;
#X obj 1200 200 gatom 7 2;
#X obj 1200 400 gatom 7 3;
#X obj 1400 0 gatom 8 1;
#X obj 1400 200 gatom 8 2;
#X obj 1400 400 gatom 8 3;
#X obj 0 600 Gchannelstrip 1;
#X obj 200 600 Gchannelstrip 2;
#X obj 400 600 Gchannelstrip 3;
#X obj 600 600 Gchannelstrip 4;
#X obj 800 600 Gchannelstrip 5;
#X obj 1000 600 Gchannelstrip 6;
#X obj 1200 600 Gchannelstrip 7;
#X obj 1400 600 Gchannelstrip 8;
#X obj 1612 3 master 9;
#X coords 0 -1 1 1 1750 785 1 0 0;
#X restore 146 173 pd loops;
#X obj 9 228 volcaSMute 1;
#X obj 9 291 volcaSMute 2;
#X obj 9 355 volcaSMute 3;
#X obj 9 418 volcaSMute 4;
#X obj 9 482 volcaSMute 5;
#X obj 9 545 volcaSMute 6;
#X obj 9 608 volcaSMute 7;
#X obj 9 671 volcaSMute 8;
#X obj 9 734 volcaSMute 9;
#X obj 9 798 volcaSMute 10;
#N canvas 1154 104 450 906 trim 0;
#X obj 100 102 vsl 60 330 0 1 0 0 empty empty empty 0 -9 0 10 -228856
-1 -1 25600 1;
#X obj 100 517 vsl 60 330 0 1 0 0 empty empty empty 0 -9 0 10 -228856
-1 -1 19300 1;
#X obj 267 633 s adjRange;
#X obj 279 526 pack;
#X obj 276 453 t f b;
#X floatatom 232 406 5 0 0 0 - - -;
#X obj 100 445 bng 60 250 50 0 empty empty Snd 10 30 0 20 -228856 -1
-66577;
#X obj 211 700 s sndRange;
#X connect 0 0 3 0;
#X connect 0 0 5 0;
#X connect 1 0 4 0;
#X connect 3 0 2 0;
#X connect 4 0 3 1;
#X connect 4 1 3 0;
#X connect 6 0 7 0;
#X coords 0 -1 1 1 60 750 1 100 100;
#X restore 76 186 pd trim;
