#N canvas 292 352 875 603 10;
#X obj 28 -38 snapshot~;
#X obj 90 -63 r~ \$0-phasor;
#X obj 233 237 r recTime-\$0;
#X obj 233 276 s recTime;
#N canvas 148 94 960 653 play 1;
#X obj 155 -415 phasor~ 1;
#X obj 182 -605 samplerate~;
#X obj 155 -571 /;
#X obj 155 -467 /;
#X msg 155 -499 1;
#X obj 173 -304 r recSamples-\$0;
#X obj 259 37 r play-\$0;
#X obj 155 -673 r recSamples-\$0;
#X obj 155 -644 t f b;
#X obj 158 93 *~;
#X obj 172 34 line~;
#X obj 158 -90 *~;
#X obj 59 -302 s~ \$0-phasor;
#X obj 157 275 outlet~;
#X obj 402 -706 r \$0-ticks;
#X obj 402 -684 sel 0;
#X obj 369 -567 spigot;
#X msg 402 -650 0;
#X msg 429 -624 1;
#X obj 439 -662 r \$0-init;
#X obj 157 -343 +~;
#X obj 15 -360 /;
#X obj 31 -426 r \$0-ticks;
#X obj 544 -446 r \$0-dur;
#X obj 15 -476 r \$0-offset;
#X msg 13 -392 16;
#X obj 14 -543 r \$0-tMul;
#X obj 15 -447 *;
#X obj 14 -518 t b f;
#X obj 544 -492 r \$0-tMul;
#X obj 544 -424 *;
#X obj 544 -466 t b f;
#X obj 384 -516 r rst;
#X obj 616 -396 int;
#X obj 526 -379 mod;
#X obj 466 -482 int;
#X obj 369 -465 -;
#X msg 384 -494 0;
#X obj 155 -541 t b f b;
#X obj 157 -118 wrap~;
#X obj 212 -193 /;
#X msg 212 -219 1;
#X obj 212 -243 t b f;
#X text 249 -163 sample offset delay compensation;
#X obj 255 -191 t b f;
#X floatatom 255 -217 5 0 0 0 - - -, f 5;
#X obj 616 -422 r \$0-ticks;
#X obj 622 -334 s \$0-setPhase;
#X obj 206 -439 r \$0-setPhase;
#X msg 622 -362 0;
#X obj 446 -349 r play-\$0;
#X obj 466 -591 r play-\$0;
#X obj 466 -570 sel 1;
#X obj 173 -274 t f f f;
#X obj 481 -541 r \$0-clock;
#X obj 481 -513 + 0;
#X obj 212 -165 * 512;
#X obj 545 -49 s \$0-fade;
#X obj 526 -349 sel 0;
#X obj 526 -316 t b b b;
#X obj 172 5 r \$0-fade;
#X obj 545 -218 t b b;
#X obj 369 -598 r \$0-clock;
#X obj 660 -164 s \$0-fadeTime;
#X obj 545 -143 pack 1 f;
#X obj 647 -271 r \$0-fadeTime;
#X obj 565 -99 pack 0 f;
#X obj 545 -244 delay;
#X obj 158 -148 +~ 0;
#X obj 660 -224 loadbang;
#X msg 660 -198 5;
#X obj 259 187 line~;
#X obj 259 89 sel 0 1;
#X obj 259 62 change;
#X msg 259 119 0 6;
#X msg 278 157 1 6;
#X obj 159 149 *~;
#X obj 159 -24 tabread4~ rec-\$1-\$2;
#X obj 334 213 line~;
#X obj 158 229 *~;
#X obj 334 113 r \$0-level;
#X obj 334 155 clip 0 1;
#X msg 334 180 \$1 20;
#X obj 415 101 loadbang;
#X msg 415 127 1;
#X obj 159 -60 +~ 1800;
#X connect 0 0 20 0;
#X connect 1 0 2 1;
#X connect 2 0 38 0;
#X connect 3 0 0 0;
#X connect 4 0 3 0;
#X connect 5 0 53 0;
#X connect 6 0 73 0;
#X connect 7 0 8 0;
#X connect 8 0 2 0;
#X connect 8 1 1 0;
#X connect 9 0 76 0;
#X connect 10 0 9 1;
#X connect 11 0 85 0;
#X connect 14 0 15 0;
#X connect 15 0 17 0;
#X connect 15 1 18 0;
#X connect 16 0 36 0;
#X connect 17 0 16 1;
#X connect 18 0 16 1;
#X connect 19 0 18 0;
#X connect 20 0 12 0;
#X connect 20 0 68 0;
#X connect 21 0 20 1;
#X connect 22 0 21 1;
#X connect 23 0 30 0;
#X connect 24 0 21 0;
#X connect 24 0 27 0;
#X connect 25 0 21 0;
#X connect 26 0 28 0;
#X connect 27 0 21 0;
#X connect 28 0 27 0;
#X connect 28 1 27 1;
#X connect 29 0 31 0;
#X connect 30 0 34 1;
#X connect 31 0 30 0;
#X connect 31 1 30 1;
#X connect 32 0 37 0;
#X connect 33 0 34 1;
#X connect 34 0 58 0;
#X connect 35 0 36 1;
#X connect 36 0 34 0;
#X connect 37 0 36 1;
#X connect 38 0 4 0;
#X connect 38 1 3 1;
#X connect 39 0 11 0;
#X connect 40 0 56 0;
#X connect 41 0 40 0;
#X connect 42 0 41 0;
#X connect 42 1 40 1;
#X connect 44 0 56 0;
#X connect 44 1 56 1;
#X connect 45 0 44 0;
#X connect 46 0 33 0;
#X connect 48 0 0 1;
#X connect 49 0 47 0;
#X connect 50 0 59 0;
#X connect 51 0 52 0;
#X connect 52 0 35 0;
#X connect 53 0 11 1;
#X connect 53 2 42 0;
#X connect 54 0 55 0;
#X connect 55 0 35 1;
#X connect 58 0 59 0;
#X connect 59 1 67 0;
#X connect 59 2 66 0;
#X connect 60 0 10 0;
#X connect 61 0 64 0;
#X connect 61 1 49 0;
#X connect 62 0 16 0;
#X connect 64 0 57 0;
#X connect 65 0 64 1;
#X connect 65 0 66 1;
#X connect 65 0 67 1;
#X connect 66 0 57 0;
#X connect 67 0 61 0;
#X connect 68 0 39 0;
#X connect 69 0 70 0;
#X connect 70 0 63 0;
#X connect 71 0 76 1;
#X connect 72 0 74 0;
#X connect 72 1 75 0;
#X connect 73 0 72 0;
#X connect 74 0 71 0;
#X connect 75 0 71 0;
#X connect 76 0 79 0;
#X connect 77 0 9 0;
#X connect 78 0 79 1;
#X connect 79 0 13 0;
#X connect 80 0 81 0;
#X connect 81 0 82 0;
#X connect 82 0 78 0;
#X connect 83 0 84 0;
#X connect 84 0 81 0;
#X connect 85 0 77 0;
#X restore 11 269 pd play;
#X obj 12 300 outlet~;
#N canvas 0 94 1280 653 rec 0;
#X obj 260 29 timer;
#X msg 355 4 stop;
#X obj 260 74 s recTime-\$0;
#X obj 352 -49 s play-\$0;
#X obj 286 -106 t b a b;
#X msg 351 -84 1;
#X obj 260 -70 t b b b;
#X msg 321 -84 0;
#X obj 417 -195 s play-\$0;
#X msg 419 -256 0;
#X obj 310 -175 bng 15 250 50 0 empty empty empty 17 7 0 10 -262144
-1 -1;
#X obj 332 -174 bng 15 250 50 0 empty empty empty 17 7 0 10 -262144
-1 -1;
#X obj 355 39 tabwrite~ rec-\$1-\$2;
#X obj 260 -267 r \$0-action;
#X obj 260 -235 route symbol;
#X obj 286 -4 spigot;
#X msg 298 -45 1;
#X msg 273 54 0;
#X obj 297 -589 r recTime-\$0;
#X obj 324 -534 samplerate~;
#X obj 297 -510 / 1000;
#X obj 297 -558 t f b;
#X obj 297 -478 *;
#X obj 297 -441 s recSamples-\$0;
#X obj 77 -86 r clock;
#X obj 69 -28 int;
#X obj 54 2 -;
#X obj 54 -50 int;
#X obj 51 63 s \$0-ticks;
#X obj 51 36 spigot;
#X msg 85 -1 1;
#X msg 97 20 0;
#X obj 260 -199 sel rec play stop rst;
#X obj 32 -609 int;
#X obj -21 -608 -;
#X obj -24 -506 /;
#X obj -24 -467 int;
#X obj -23 -442 change;
#X obj -23 -328 s 2pLoopG;
#X obj -23 -386 pack f \$1 \$2;
#X msg -23 -359 \$2 \$3 bars \$1;
#X obj -23 -411 spigot;
#X msg 142 -428 1;
#X msg 176 -428 0;
#X obj 115 -511 sel rec;
#X obj 115 -575 r \$0-action;
#X obj 115 -543 route symbol;
#X obj 17 -641 t f f;
#X obj 115 -476 t b b;
#X floatatom 75 -394 5 0 0 0 - - -, f 5;
#X obj 28 -523 v ticks/bar;
#X obj 4 -566 t f b;
#X obj 17 -681 r \$0-clock;
#X obj 355 -18 delay 100;
#X obj -8 -260 r \$0-ticks;
#X obj -9 -174 s 2pLoopG;
#X obj -9 -232 pack f \$1 \$2;
#X msg -9 -205 \$2 \$3 ticks \$1;
#X obj 456 -16 r~ audioIn;
#X connect 0 0 2 0;
#X connect 0 0 17 0;
#X connect 1 0 12 0;
#X connect 4 0 15 0;
#X connect 4 1 53 0;
#X connect 4 2 5 0;
#X connect 5 0 3 0;
#X connect 6 0 0 0;
#X connect 6 1 12 0;
#X connect 6 2 7 0;
#X connect 6 2 16 0;
#X connect 7 0 3 0;
#X connect 9 0 8 0;
#X connect 13 0 14 0;
#X connect 14 0 32 0;
#X connect 15 0 0 1;
#X connect 16 0 15 1;
#X connect 17 0 15 1;
#X connect 18 0 21 0;
#X connect 19 0 22 1;
#X connect 20 0 22 0;
#X connect 21 0 20 0;
#X connect 21 1 19 0;
#X connect 22 0 23 0;
#X connect 24 0 25 1;
#X connect 24 0 27 1;
#X connect 25 0 26 1;
#X connect 26 0 29 0;
#X connect 27 0 26 0;
#X connect 29 0 28 0;
#X connect 29 0 31 0;
#X connect 30 0 29 1;
#X connect 31 0 29 1;
#X connect 32 0 6 0;
#X connect 32 0 25 0;
#X connect 32 0 30 0;
#X connect 32 1 10 0;
#X connect 32 1 27 0;
#X connect 32 1 4 0;
#X connect 32 2 9 0;
#X connect 32 2 11 0;
#X connect 32 3 9 0;
#X connect 33 0 34 1;
#X connect 34 0 51 0;
#X connect 35 0 36 0;
#X connect 36 0 37 0;
#X connect 37 0 41 0;
#X connect 39 0 40 0;
#X connect 40 0 38 0;
#X connect 41 0 39 0;
#X connect 41 0 49 0;
#X connect 42 0 41 1;
#X connect 43 0 41 1;
#X connect 44 0 48 0;
#X connect 44 1 43 0;
#X connect 45 0 46 0;
#X connect 46 0 44 0;
#X connect 47 0 34 0;
#X connect 47 1 33 1;
#X connect 48 0 33 0;
#X connect 48 1 42 0;
#X connect 50 0 35 1;
#X connect 51 0 35 0;
#X connect 51 1 50 0;
#X connect 52 0 47 0;
#X connect 53 0 1 0;
#X connect 54 0 56 0;
#X connect 56 0 57 0;
#X connect 57 0 55 0;
#X connect 58 0 12 0;
#X restore 10 181 pd rec;
#N canvas 526 312 450 300 color 0;
#X obj 103 7 r select;
#X obj 105 53 route \$1;
#X obj 105 88 sel \$2;
#X obj 136 245 s canvas-\$0;
#X msg 237 137 color 2;
#X msg 108 158 color 3;
#X msg 164 134 color 1;
#X connect 1 0 2 0;
#X connect 1 1 4 0;
#X connect 2 0 5 0;
#X connect 2 1 6 0;
#X connect 4 0 3 0;
#X connect 5 0 3 0;
#X connect 6 0 3 0;
#X restore 10 211 pd color;
#N canvas 816 288 450 323 init 0;
#X obj 137 73 r init;
#X obj 137 98 s init-\$0;
#X obj 77 71 loadbang;
#X obj 186 41 bng 15 250 50 0 empty empty empty 17 7 0 10 -262144 -1
-1;
#X connect 0 0 1 0;
#X connect 2 0 1 0;
#X connect 3 0 1 0;
#X restore 9 155 pd init;
#N canvas 278 67 770 653 table 0;
#X obj 83 4 table rec-\$1-\$2;
#X obj 158 167 s rec-\$1-\$2;
#X msg 158 118 const 0;
#X obj 158 51 r init-\$0;
#X obj 68 189 s play-\$0;
#X msg 73 157 0;
#X obj 72 132 r rst;
#X obj -11 9 r \$0-action;
#X obj -11 41 route symbol;
#X obj -11 77 sel rec rst;
#X msg 158 82 resize 48000, f 15;
#X obj 280 59 r arraysize;
#X msg 280 81 resize \$1;
#X connect 2 0 1 0;
#X connect 3 0 2 0;
#X connect 3 0 10 0;
#X connect 5 0 4 0;
#X connect 6 0 2 0;
#X connect 6 0 5 0;
#X connect 7 0 8 0;
#X connect 8 0 9 0;
#X connect 9 0 5 0;
#X connect 9 1 5 0;
#X connect 10 0 1 0;
#X connect 11 0 12 0;
#X connect 12 0 1 0;
#X restore 10 129 pd table;
#N canvas 576 226 570 494 ctl 0;
#X obj 208 304 symbol;
#X obj 271 152 r \$0-nAction;
#X obj 208 210 r \$0-!;
#X obj 208 333 s \$0-action;
#X msg 272 220 0;
#X msg 299 246 1;
#X obj 208 268 spigot;
#X obj 272 186 sel -;
#X connect 0 0 3 0;
#X connect 1 0 7 0;
#X connect 2 0 6 0;
#X connect 4 0 6 1;
#X connect 5 0 6 1;
#X connect 6 0 0 0;
#X connect 7 0 4 0;
#X connect 7 1 0 1;
#X connect 7 1 5 0;
#X restore 10 102 pd ctl;
#X obj 28 72 s 2pLoopG;
#X obj 28 17 pack f \$1 \$2;
#X obj 28 -12 change;
#X obj 609 83 r fromG;
#X obj 608 107 route \$1;
#X obj 608 130 route \$2;
#X obj 616 -50 r \$0-nAction;
#X obj 607 -17 pack s \$1 \$2;
#X msg 607 12 \$2 \$3 nAction \$1;
#X msg 28 42 \$2 \$3 lPos \$1;
#X obj 28 -63 metro 200;
#X obj 658 262 s \$0-nAction;
#X obj 658 221 symbol;
#X obj 192 139 pack s \$1 \$2;
#X obj 182 -50 r \$0-action;
#X msg 192 163 \$2 \$3 action \$1;
#N canvas 0 94 1920 986 legacy 0;
#X obj 350 256 s \$0-nAction;
#X msg 350 207 rec;
#X obj 350 233 symbol;
#X obj 341 156 t b b b;
#X floatatom 104 407 5 0 0 0 - - -, f 5;
#X msg 127 462 stop;
#X obj 146 441 sel 1;
#X obj 147 418 != \$2;
#X obj 125 484 symbol;
#X obj 125 508 s \$0-nAction;
#X obj 123 332 r channelCtl-\$1;
#X obj 124 378 route playing follow;
#X floatatom 213 408 5 0 0 0 - - -, f 5;
#X obj 306 332 r select;
#X obj 306 399 unpack;
#X obj 307 487 symbol;
#X obj 307 511 s \$0-nAction;
#X msg 308 467 play;
#X obj 338 422 == \$2;
#X obj 336 444 sel 1;
#X obj 305 370 spigot;
#X obj 422 188 s select;
#X obj 422 153 pack \$1 \$2;
#X obj 701 411 s \$0-!;
#X obj 524 187 sel rec play stop;
#X obj 527 126 r \$0-action;
#X obj 528 158 route symbol;
#X msg 576 225 set rec;
#X msg 839 224 1;
#X obj 800 256 int;
#X obj 798 194 t b b;
#X msg 798 222 0;
#X obj 801 281 change;
#X obj 635 339 spigot;
#X obj 789 367 spigot;
#X obj 822 344 == 0;
#X obj 668 302 r \$0-firstLoop;
#X obj 822 322 r \$0-firstLoop;
#X obj 698 204 r \$0-firstLoop;
#X obj 634 295 r !;
#X msg 873 248 0;
#X obj 767 320 sel 1;
#X obj 805 400 bng 15 250 50 0 empty empty empty 17 7 0 10 -262144
-1 -1;
#X obj 704 245 bng 15 250 50 0 empty empty empty 17 7 0 10 -262144
-1 -1;
#X msg 765 253 0;
#X msg 505 282 playing \$1;
#X obj 510 257 \$2;
#X obj 500 325 s channelCtl-\$1;
#X obj 527 -8 r rec;
#X msg 498 224 set play;
#X obj 526 36 sel 0 1;
#X obj 588 6 tgl 15 0 empty empty empty 17 7 0 10 -262144 -1 -1 0 1
;
#X msg 507 105 set play;
#X msg 542 81 set rec;
#X msg 582 106 set set play;
#X msg 617 82 set set rec;
#X obj 773 178 bng 15 250 50 0 empty empty empty 17 7 0 10 -262144
-1 -1;
#X obj 797 166 r qClock;
#X connect 1 0 2 0;
#X connect 2 0 0 0;
#X connect 3 0 28 0;
#X connect 3 1 1 0;
#X connect 3 2 22 0;
#X connect 5 0 8 0;
#X connect 6 0 5 0;
#X connect 6 0 28 0;
#X connect 7 0 6 0;
#X connect 8 0 9 0;
#X connect 11 0 4 0;
#X connect 11 0 7 0;
#X connect 11 1 12 0;
#X connect 11 1 20 1;
#X connect 14 1 18 0;
#X connect 15 0 16 0;
#X connect 17 0 15 0;
#X connect 18 0 19 0;
#X connect 19 0 17 0;
#X connect 19 0 28 0;
#X connect 20 0 14 0;
#X connect 22 0 21 0;
#X connect 24 0 49 0;
#X connect 24 1 27 0;
#X connect 24 1 46 0;
#X connect 26 0 24 0;
#X connect 27 0 1 0;
#X connect 28 0 29 1;
#X connect 29 0 32 0;
#X connect 29 0 40 0;
#X connect 30 0 31 0;
#X connect 30 1 29 0;
#X connect 32 0 41 0;
#X connect 34 0 42 0;
#X connect 35 0 34 1;
#X connect 36 0 33 1;
#X connect 37 0 35 0;
#X connect 38 0 31 0;
#X connect 38 0 43 0;
#X connect 39 0 33 0;
#X connect 41 0 34 0;
#X connect 41 0 44 0;
#X connect 41 0 23 0;
#X connect 44 0 29 0;
#X connect 45 0 47 0;
#X connect 46 0 45 0;
#X connect 49 0 1 0;
#X connect 50 0 52 0;
#X connect 50 0 54 0;
#X connect 50 1 53 0;
#X connect 50 1 55 0;
#X connect 51 0 50 0;
#X connect 52 0 1 0;
#X connect 53 0 1 0;
#X connect 54 0 27 0;
#X connect 55 0 27 0;
#X restore 641 -99 pd legacy;
#X obj 549 154 s \$0-!;
#X obj 607 44 s 2pLoopG;
#X obj 192 194 s 2pLoopG;
#X msg 510 160 -, f 2;
#X obj 182 -24 sel rst;
#X msg 192 94 symbol rst, f 11;
#X obj 192 60 delay 1000;
#X obj 182 7 \$1 * \$2;
#X obj 192 31 t b f;
#X obj 573 204 spigot;
#X obj 510 119 t b b b;
#X msg 477 160 0;
#X msg 606 177 1;
#X obj 366 196 r fromG;
#X obj 366 236 route recBars;
#X obj 366 279 s \$0-recBars;
#X obj 505 -170 sel 0;
#X obj 505 -286 r clock;
#X obj 505 -135 s \$0-qClock;
#X obj 510 90 r \$0-qClock;
#X obj 544 -195 s \$0-clock;
#X obj 1 -120 r play-\$0;
#X obj 1 -96 t f f;
#X obj -6 -63 sel 0;
#X msg -6 -34 0;
#X obj 524 -227 v ticks/bar;
#X obj 505 -258 t f b f;
#X obj 505 -202 mod;
#N canvas 0 180 1190 468 export 0;
#X obj 46 257 soundfiler;
#X obj 121 107 r recSamples-\$0;
#X floatatom 148 135 10 0 0 0 - - -, f 10;
#X obj 124 160 + 48000;
#X obj -11 -200 r fromG;
#X obj -12 -166 route export;
#X obj 85 -200 r \$0-action;
#X obj 85 -168 route symbol;
#X obj 86 -131 sel play;
#X obj 45 -85 spigot;
#X msg 84 -110 1;
#X msg 127 -110 0;
#X obj 7 129 bng 15 250 50 0 empty empty empty 17 7 0 10 -262144 -1
-1;
#X obj 280 96 r foldername;
#X obj 46 183 pack \$1 \$2 0 s \$1 \$2;
#X obj 44 -7 delay 1000;
#X obj 45 -50 b;
#X msg 46 209 write -wave -nframes \$3 ./export/\$4/loop_\$5-\$6 rec-\$1-\$2
;
#X connect 1 0 3 0;
#X connect 2 0 3 0;
#X connect 3 0 14 2;
#X connect 4 0 5 0;
#X connect 5 0 9 0;
#X connect 6 0 7 0;
#X connect 7 0 8 0;
#X connect 8 0 10 0;
#X connect 8 1 11 0;
#X connect 9 0 16 0;
#X connect 10 0 9 1;
#X connect 11 0 9 1;
#X connect 12 0 14 0;
#X connect 13 0 14 3;
#X connect 14 0 17 0;
#X connect 15 0 14 0;
#X connect 16 0 15 0;
#X connect 17 0 0 0;
#X restore 87 215 pd export;
#X obj 609 153 route btn nAction level;
#X obj 715 193 s \$0-level;
#N canvas 666 265 450 300 range 0;
#X floatatom 246 70 5 0 0 0 dur - #0-dur, f 5;
#X floatatom 246 89 5 0 0 0 offset - #0-offset, f 5;
#X floatatom 247 109 5 0 0 0 mul - #0-tMul, f 5;
#X floatatom 172 125 5 0 0 0 t #0-ticks -, f 5;
#X msg 140 60 0;
#X msg 135 93 12;
#X obj 64 33 r fromG;
#X obj 42 91 route \$1;
#X obj 42 118 route \$2;
#X obj 41 150 route offset dur;
#X obj 177 192 s \$0-dur;
#X obj 57 245 s \$0-offset;
#X obj 309 55 loadbang;
#X msg 310 82 1;
#X connect 4 0 0 0;
#X connect 4 0 1 0;
#X connect 4 0 5 0;
#X connect 5 0 2 0;
#X connect 6 0 7 0;
#X connect 7 0 8 0;
#X connect 8 0 9 0;
#X connect 9 0 11 0;
#X connect 9 1 10 0;
#X connect 12 0 13 0;
#X connect 13 0 2 0;
#X restore 9 240 pd range;
#X obj 28 -199 r \$0-setPhase;
#X obj 28 -174 sel 0;
#X msg 28 -151 0;
#X connect 0 0 13 0;
#X connect 1 0 0 0;
#X connect 2 0 3 0;
#X connect 4 0 5 0;
#X connect 12 0 20 0;
#X connect 13 0 12 0;
#X connect 14 0 15 0;
#X connect 15 0 16 0;
#X connect 16 0 57 0;
#X connect 17 0 18 0;
#X connect 18 0 19 0;
#X connect 19 0 29 0;
#X connect 20 0 11 0;
#X connect 21 0 0 0;
#X connect 23 0 22 0;
#X connect 24 0 26 0;
#X connect 25 0 32 0;
#X connect 26 0 30 0;
#X connect 31 0 37 0;
#X connect 32 0 35 0;
#X connect 32 1 24 0;
#X connect 33 0 24 0;
#X connect 34 0 33 0;
#X connect 35 0 36 0;
#X connect 36 0 34 0;
#X connect 36 1 34 1;
#X connect 37 0 23 0;
#X connect 38 0 39 0;
#X connect 38 1 31 0;
#X connect 38 2 28 0;
#X connect 39 0 37 1;
#X connect 40 0 37 1;
#X connect 41 0 42 0;
#X connect 42 0 43 0;
#X connect 44 0 46 0;
#X connect 45 0 54 0;
#X connect 47 0 38 0;
#X connect 49 0 50 0;
#X connect 50 0 51 0;
#X connect 50 1 21 0;
#X connect 51 0 52 0;
#X connect 52 0 13 0;
#X connect 53 0 55 1;
#X connect 54 0 55 0;
#X connect 54 1 53 0;
#X connect 54 2 48 0;
#X connect 55 0 44 0;
#X connect 57 1 23 0;
#X connect 57 1 40 0;
#X connect 57 2 58 0;
#X connect 60 0 61 0;
#X connect 61 0 62 0;
#X connect 62 0 13 0;
#X coords 0 603 1 602 130 90 0;
