#N canvas 533 215 483 361 10;
#X obj 77 56 * 1000;
#X obj 253 97 int;
#X obj 77 80 t f f b b;
#X obj 29 174 spigot;
#X obj 29 1 inlet;
#X obj 29 39 t f f;
#X obj 29 237 outlet;
#X msg 185 241 0;
#X obj 97 148 change;
#X obj 97 121 expr $f1 <= ($f2 + $f3) && $f1 >= ($f2 - $f3);
#X obj 97 169 sel 1;
#X msg 395 98 4;
#X obj 185 186 r preset;
#X obj 185 213 t b;
#X obj 271 11 inlet;
#X obj 271 52 * 1000;
#X msg 97 209 1;
#X obj 99 254 loadbang;
#X connect 0 0 2 0;
#X connect 1 0 9 1;
#X connect 2 1 9 0;
#X connect 2 2 1 0;
#X connect 2 3 11 0;
#X connect 3 0 6 0;
#X connect 4 0 5 0;
#X connect 5 0 3 0;
#X connect 5 1 0 0;
#X connect 7 0 3 1;
#X connect 8 0 10 0;
#X connect 9 0 8 0;
#X connect 10 0 16 0;
#X connect 11 0 9 2;
#X connect 12 0 13 0;
#X connect 13 0 7 0;
#X connect 14 0 15 0;
#X connect 15 0 1 1;
#X connect 16 0 3 1;
#X connect 17 0 16 0;
