#N canvas 797 89 800 807 10;
#N canvas 1 84 450 300 fps 0;
#X obj 46 -61 gemhead;
#X obj 46 -21 realtime;
#X obj 46 -41 t b b;
#X obj 46 41 /;
#X msg 46 21 1000 \$1;
#X obj 46 106 outlet;
#X obj 46 63 + 0.5;
#X obj 46 85 i;
#X connect 0 0 2 0;
#X connect 1 0 4 0;
#X connect 2 0 1 0;
#X connect 2 1 1 1;
#X connect 3 0 6 0;
#X connect 4 0 3 0;
#X connect 6 0 7 0;
#X connect 7 0 5 0;
#X restore 466 149 pd fps;
#X floatatom 466 172 5 0 0 1 fps - -, f 5;
#X obj 462 76 cnv 15 100 60 empty empty empty 20 12 0 14 -195568 -66577
0;
#N canvas 0 145 450 300 gemwin 0;
#X obj 67 89 outlet;
#X obj 67 10 inlet;
#X obj 67 41 route create;
#X msg 67 70 set destroy;
#X msg 142 68 set create;
#X msg 198 142 destroy;
#X msg 114 142 create \, 1;
#X obj 245 38 loadbang;
#X obj 245 58 t b b;
#X obj 132 117 t b b;
#X msg 376 135 \; pd dsp 1;
#X obj 349 114 t b b;
#X obj 349 181 del 100;
#X obj 349 201 s \$0-init100;
#X obj 132 246 gemwin 10;
#X msg 272 82 reset \, frame 10;
#X connect 1 0 2 0;
#X connect 2 0 3 0;
#X connect 2 0 9 0;
#X connect 2 1 4 0;
#X connect 2 1 5 0;
#X connect 3 0 0 0;
#X connect 4 0 0 0;
#X connect 5 0 14 0;
#X connect 6 0 14 0;
#X connect 7 0 8 0;
#X connect 8 0 4 0;
#X connect 8 1 15 0;
#X connect 9 0 6 0;
#X connect 9 1 11 0;
#X connect 11 0 12 0;
#X connect 11 1 10 0;
#X connect 12 0 13 0;
#X connect 15 0 14 0;
#X restore 467 115 pd gemwin;
#X msg 467 96 destroy;
#X text 463 75 Create window:;
#N canvas 417 205 679 574 tabledata 0;
#X text 65 43 applying table data as vertex data;
#X msg 30 100 position tabX tabY tabZ 0;
#X msg 30 130 position tabXYZ 0;
#X text 200 102 will read X \, Y & Z values from the 3 tables as position
data \, starting at offset=0 (offset can be omitted);
#X text 200 132 will read interleaved X \, Y & Z values from the table
tabXYZ \, starting at offset=0 (offset can be omitted);
#X text 200 172 will update only X values from given table (starting
at offset=10);
#X msg 31 169 posX tabX 10;
#X msg 31 209 posY tabY;
#X text 200 212 will update only Y values from given table (starting
at default offset=0);
#X text 39 290 the same applies to the other vertex data types:;
#X msg 234 346 colorR r;
#X msg 294 346 colorG g;
#X msg 354 346 colorB b;
#X msg 415 346 colorA a;
#X msg 36 376 texture U V;
#X msg 140 376 texture UV;
#X msg 234 376 textureU U;
#X msg 304 376 textureV V;
#X msg 36 406 normal x y z;
#X msg 36 346 color r g b a;
#X msg 141 346 color rgba;
#X msg 140 406 normal xyz;
#X msg 234 406 normalX x;
#X msg 304 406 normalY y;
#X msg 374 406 normalZ z;
#X msg 36 316 position X Y Z;
#X msg 140 316 position XYZ;
#X msg 234 316 positionX X;
#X msg 314 316 positionY Y;
#X msg 394 316 positionZ Z;
#X text 51 453 offset is always optional (default=0) \, and comes after
the table names;
#X text 50 507 unset table data is initialized to 0.f;
#X restore 85 100 pd tabledata;
#X obj 282 175 gemhead;
#X obj 282 102 inlet;
#X obj 225 428 t a b;
#X obj 669 274 until;
#X obj 669 298 f;
#X obj 700 299 + 1;
#X msg 719 270 0;
#X obj 723 218 bng 15 250 50 0 empty empty empty 17 7 0 10 -262144
-1 -1;
#X obj 669 320 t f f;
#X obj 669 363 - 0.5;
#X msg 260 533 draw linestrip;
#X obj 260 512 loadbang;
#X obj 298 127 loadbang;
#X msg 298 149 0;
#X obj 284 453 i \$0;
#X obj 250 254 scale 1;
#X floatatom 287 212 5 0 0 0 - - -, f 5;
#X obj 661 225 t b b;
#X msg 329 615 draw points;
#X msg 258 155 1;
#X msg 257 491 posX vbufferX \, posY vbufferY;
#X obj 437 428 tabwrite vbufferY;
#X obj 479 386 tabwrite vbufferX;
#X obj 94 363 gemmouse;
#X msg 669 250 100;
#X obj 669 341 / 100;
#X obj 669 405 tabwrite vbufferX;
#X obj 669 384 * 7;
#X obj 76 193 table vbufferX;
#X obj 77 234 table vbufferY;
#X msg 441 302 \; vbufferX resize 100 \; vbufferY resize 100;
#X msg 442 243 \; vbufferY sinesum 100 1;
#X obj 225 555 gemvertexbuffer 100;
#X floatatom 77 428 5 0 0 0 - - -, f 5;
#X floatatom 81 465 5 0 0 0 - - -, f 5;
#X connect 0 0 1 0;
#X connect 3 0 4 0;
#X connect 4 0 3 0;
#X connect 7 0 22 0;
#X connect 8 0 7 0;
#X connect 9 0 39 0;
#X connect 9 1 21 0;
#X connect 9 1 27 0;
#X connect 10 0 11 0;
#X connect 11 0 12 0;
#X connect 11 0 15 0;
#X connect 12 0 11 1;
#X connect 13 0 11 1;
#X connect 14 0 24 0;
#X connect 15 0 32 0;
#X connect 15 1 33 1;
#X connect 16 0 34 0;
#X connect 17 0 39 0;
#X connect 18 0 17 0;
#X connect 19 0 20 0;
#X connect 20 0 7 0;
#X connect 22 0 9 0;
#X connect 23 0 22 1;
#X connect 24 0 31 0;
#X connect 24 1 13 0;
#X connect 25 0 39 0;
#X connect 26 0 7 0;
#X connect 27 0 39 0;
#X connect 30 0 40 0;
#X connect 30 1 41 0;
#X connect 31 0 10 0;
#X connect 32 0 16 0;
#X connect 34 0 33 0;
