#N canvas 217 169 1440 743 12;
#X obj 355 410 netsend -u;
#X obj 355 295 list prepend send;
#X obj 355 355 list trim;
#X msg 428 372 connect 192.168.1.255 8099;
#X obj 355 211 int;
#X obj 389 230 + 1;
#X obj 428 339 loadbang;
#X obj 204 500 route gharp;
#X obj 204 545 route note;
#X obj 204 590 unpack f f f;
#X msg 355 182 0;
#X obj 742 190 seq/clock;
#X obj 216 178 r clock;
#X msg 671 678 248;
#X msg 703 686 250;
#X obj 783 628 int;
#X obj 819 645 + 1;
#X obj 781 556 t b b;
#X msg 783 579 1;
#X msg 856 575 0;
#X obj 783 672 sel 1;
#X msg 784 717 252;
#X obj 783 605 metro 250;
#X obj 671 424 r clock;
#X obj 671 536 t f f b;
#X obj 671 580 sel 0;
#X obj 671 636 t b b;
#X obj 769 252 notein 1;
#X obj 93 827 list prepend send;
#X obj 93 887 list trim;
#X obj 166 871 loadbang;
#X msg 166 904 connect 192.168.1.255 8000;
#X obj 769 289 pack;
#X obj 769 320 s keyfootN;
#X obj 204 658 s gHarpN;
#X obj 204 625 pack;
#X obj 93 715 r keyfootN;
#X obj 384 719 r keyfootN;
#X obj 250 701 r gHarpN;
#X obj 384 792 noteout 15;
#X msg 233 871 disconnect;
#X obj 93 941 netsend -u;
#X obj 93 749 list prepend note;
#X obj 93 787 list prepend EC;
#X obj 900 -32 midirealtimein;
#X msg 944 34 0;
#X msg 900 34 1;
#X obj 944 65 t f;
#X obj 671 824 midiout;
#X obj 671 762 t f;
#X obj 1007 138 r clock;
#X obj 1007 187 change;
#X obj 1039 323 sig~;
#X obj 1038 357 dac~ 8;
#X msg 1039 256 1;
#X obj 1007 218 t b b;
#X msg 966 283 0;
#X obj 966 256 delay 5;
#X obj 1171 324 sig~;
#X msg 1171 257 1;
#X obj 1139 219 t b b;
#X msg 1098 284 0;
#X obj 1098 257 delay 5;
#X obj 1170 358 dac~ 7;
#X obj 1139 188 sel 1;
#X obj 321 162 bng 15 250 50 0 empty empty empty 17 7 0 10 -262144
-1 -1;
#X obj 1139 159 == 0;
#X obj 355 258 moses;
#X obj 731 824 midiout 2;
#X obj 1367 93 loadbang;
#X obj 1140 658 list prepend send;
#X obj 1140 718 list trim;
#X obj 1140 822 loadbang;
#X msg 1140 855 connect 192.168.1.255 8000;
#X msg 1207 822 disconnect;
#X obj 1140 772 netsend -u;
#X obj 1140 580 list prepend note;
#N canvas 1137 409 778 402 ctlEC 0;
#X obj 118 261 ctlout;
#X obj 105 129 tgl 15 0 empty empty NoteOrTone 17 7 0 10 -262144 -1
-1 0 1;
#X msg 137 198 60;
#X obj 105 161 t f f;
#X obj 81 198 sel 0 1;
#X msg 80 229 127;
#X msg 113 229 0;
#X obj 294 71 ctlin;
#X obj 294 137 spigot;
#X obj 294 237 ctlout;
#X obj 294 174 t f f;
#X msg 313 208 11;
#X obj 354 236 ctlout;
#X obj 354 173 t f f;
#X msg 373 207 18;
#X obj 310 98 expr $f1 == 1 && $f2 == 1;
#X obj 513 134 spigot;
#X obj 513 68 ctlin;
#X obj 529 99 expr $f1 == 3 && $f2 == 31;
#X obj 509 291 ctlout;
#X msg 528 225 2;
#X obj 509 191 t f b b;
#X msg 555 256 18;
#X obj 209 262 ctlout;
#X obj 196 130 tgl 15 0 empty empty rememberNotes 17 7 0 10 -262144
-1 -1 0 1;
#X obj 196 162 t f f;
#X obj 172 199 sel 0 1;
#X msg 171 230 127;
#X msg 204 230 0;
#X msg 228 199 50;
#X connect 1 0 3 0;
#X connect 2 0 0 1;
#X connect 3 0 4 0;
#X connect 3 1 2 0;
#X connect 4 0 5 0;
#X connect 4 1 6 0;
#X connect 5 0 0 0;
#X connect 6 0 0 0;
#X connect 7 1 15 0;
#X connect 7 2 15 1;
#X connect 8 0 10 0;
#X connect 8 0 13 0;
#X connect 10 0 9 0;
#X connect 10 1 11 0;
#X connect 11 0 9 1;
#X connect 13 0 12 0;
#X connect 13 1 14 0;
#X connect 14 0 12 1;
#X connect 15 0 8 1;
#X connect 16 0 21 0;
#X connect 17 0 16 0;
#X connect 17 1 18 0;
#X connect 17 2 18 1;
#X connect 18 0 16 1;
#X connect 20 0 19 1;
#X connect 21 0 19 0;
#X connect 21 1 20 0;
#X connect 21 2 22 0;
#X connect 22 0 19 2;
#X connect 24 0 25 0;
#X connect 25 0 26 0;
#X connect 25 1 29 0;
#X connect 26 0 27 0;
#X connect 26 1 28 0;
#X connect 27 0 23 0;
#X connect 28 0 23 0;
#X connect 29 0 23 1;
#X coords 0 -1 1 1 160 60 1 100 100;
#X restore 1099 80 pd ctlEC;
#X obj 1140 515 pack f f f;
#X obj 1140 618 list prepend seq/gHarp;
#X obj 1140 467 notein;
#X obj 1140 548 spigot;
#X obj 1192 548 expr $f1 > 2 && $f1 <= 4;
#X obj 1207 484 - 2;
#X obj 1259 445 pack f f f;
#X obj 1259 478 spigot;
#X obj 1311 478 expr $f1 > 2 && $f1 <= 4;
#X obj 1326 414 - 2;
#X obj 1259 394 ctlin;
#X obj 1259 513 list prepend cc;
#X obj 1421 645 list prepend note;
#X obj 1421 580 pack f f f;
#X obj 1421 529 notein;
#X obj 1421 613 spigot;
#X obj 1540 510 pack f f f;
#X obj 1540 543 spigot;
#X obj 1540 459 ctlin;
#X obj 1540 578 list prepend cc;
#X obj 1421 683 list prepend seq/pyth;
#X obj 1473 613 expr $f1 <= 2;
#X obj 1592 543 expr $f1 <= 2;
#X obj 1121 467 bng 15 250 50 0 empty empty empty 17 7 0 10 -262144
-1 -1;
#X obj 996 559 s fromReaper;
#X obj 996 527 pack f f f;
#X obj 384 552 r fromReaper;
#X obj 384 587 unpack f f f;
#X obj 465 652 expr $f1 == 1 || $f1 == 3;
#X obj 384 672 spigot;
#X obj 384 633 pack f f;
#X obj 900 -1 route 250 251 252;
#X obj 998 84 s run;
#N canvas 1326 707 450 300 ctlOff 0;
#X obj 111 69 r run;
#X obj 111 103 sel 0;
#X obj 111 171 outlet;
#X floatatom 45 100 5 0 0 0 - - -;
#X msg 111 138 0 23 4;
#X msg 237 139 0 40 4;
#X msg 176 139 0 33 4;
#X connect 0 0 1 0;
#X connect 0 0 3 0;
#X connect 1 0 4 0;
#X connect 1 0 6 0;
#X connect 1 0 5 0;
#X connect 4 0 2 0;
#X connect 5 0 2 0;
#X connect 6 0 2 0;
#X coords 0 300 1 299 85 60 0;
#X restore 1152 416 pd ctlOff;
#X obj 1096 803 bng 15 250 50 0 seq/pyth empty empty 17 7 0 10 -262144
-1 -1;
#X obj 1733 608 list prepend send;
#X obj 1733 668 list trim;
#X obj 1733 530 list prepend note;
#X obj 1733 465 pack f f f;
#X obj 1733 568 list prepend seq/gHarp;
#X obj 1733 417 notein;
#X obj 1800 434 - 2;
#X obj 1714 417 bng 15 250 50 0 empty empty empty 17 7 0 10 -262144
-1 -1;
#X msg 1366 160 \; pd dsp 1;
#X obj 1525 216 print val;
#X obj 1602 215 print cc;
#X obj 1640 161 print ch;
#X obj 1570 121 pack;
#X obj 1570 148 spigot;
#X obj 1571 173 unpack;
#X obj 1620 100 != 17;
#X obj 812 824 midiout 3;
#X obj 888 822 midiout 4;
#X obj 1569 39 ctlin 1;
#N canvas 0 59 1920 1021 neutron 0;
#X obj 83 16 ctlin 1;
#X obj 83 51 ctlout 1 48;
#X obj 230 34 notein 1;
#X obj 346 956 noteout 48;
#X obj 325 101 notein 1;
#X obj 437 170 noteout 33;
#X obj 350 272 tabwrite noteStatus;
#X obj 350 236 int;
#X obj 368 30 table noteStatus;
#X obj 249 430 tabread noteStatus;
#X obj 249 328 until;
#X msg 249 257 127;
#X obj 249 357 int 0;
#X obj 298 359 + 1;
#X floatatom 198 377 5 0 0 0 - - -;
#X obj 249 292 t f b;
#X msg 411 337 0;
#X obj 368 55 table actNotes;
#X obj 263 585 tabwrite actNotes;
#X obj 249 392 t f f;
#X obj 249 463 > 0;
#X obj 249 490 sel 1;
#X obj 263 552 int;
#X obj 379 536 int 0;
#X obj 426 536 + 1;
#X obj 249 516 t b b;
#X floatatom 409 588 5 0 0 0 - - -;
#X obj 302 850 tabread actNotes;
#X obj 361 677 int;
#X obj 301 726 until;
#X obj 301 755 int 0;
#X obj 350 757 + 1;
#X obj 301 789 t f f;
#X obj 310 181 t b b b f b;
#X msg 302 885 \$1 127;
#X obj 426 809 sel 0;
#X msg 426 856 48;
#X msg 462 857 33;
#X obj 431 922 noteout;
#X obj 560 521 tabread noteStatus;
#X obj 560 419 until;
#X msg 560 325 127;
#X obj 560 448 int 0;
#X obj 609 450 + 1;
#X floatatom 510 466 5 0 0 0 - - -;
#X msg 616 403 0;
#X obj 560 483 t f f;
#X obj 712 521 tabread lastnoteStatus;
#X obj 599 587 !=;
#X obj 65 214 int;
#X obj 65 158 t b f f;
#X obj 560 622 spigot;
#X obj 560 789 int;
#X obj 65 250 tabwrite lastnoteStatus;
#X obj 560 919 pack;
#X obj 491 31 table lastnoteStatus;
#X obj 633 795 tabread actNotes;
#X obj 560 736 t b f b;
#X msg 633 768 0;
#X obj 560 995 pack f f f;
#X obj 560 682 spigot;
#X obj 631 653 > 0;
#X obj 681 930 tabwrite lastChannel;
#X obj 615 821 ==;
#X obj 614 846 sel 1;
#X msg 614 873 48;
#X obj 649 901 t f f;
#X obj 502 75 table lastChannel;
#X obj 694 641 spigot;
#X obj 560 554 t f f f f;
#X obj 696 727 pack f 0 f;
#X obj 805 683 tabread lastChannel;
#X obj 670 698 int;
#X obj 713 598 == 0;
#X obj 704 667 t b f;
#X obj 563 847 t f f;
#X obj 707 1068 t a;
#X obj 707 1145 noteout;
#X obj 784 1112 print;
#X obj 537 380 t b f b;
#X obj 470 1119 int;
#X obj 470 1063 t b f f;
#X obj 470 1155 tabwrite lastnoteStatus;
#X obj 578 1061 unpack f f f;
#X obj 612 226 r clock;
#X obj 650 256 mod 96;
#X obj 653 312 sel 95;
#X msg 646 873 33;
#X obj 671 364 bng 15 250 50 0 empty empty empty 17 7 0 10 -262144
-1 -1;
#X obj 1146 497 tabread noteStatus;
#X obj 1146 395 until;
#X msg 1123 323 127;
#X obj 1146 424 int 0;
#X obj 1195 426 + 1;
#X floatatom 1096 442 5 0 0 0 - - -;
#X msg 1202 379 0;
#X obj 1146 459 t f f;
#X obj 1409 493 tabread lastnoteStatus;
#X obj 1146 598 spigot;
#X obj 1146 765 int;
#X obj 1146 895 pack;
#X obj 1146 712 t b f b;
#X obj 1146 971 pack f f f;
#X obj 1267 906 tabwrite lastChannel;
#X obj 1235 877 t f f;
#X obj 1370 570 spigot;
#X obj 1146 530 t f f f f;
#X obj 1370 618 pack f 0 f;
#X obj 1437 529 tabread lastChannel;
#X obj 1146 823 t f f;
#X obj 1293 1044 t a;
#X obj 1293 1121 noteout;
#X obj 1348 1081 print;
#X obj 1123 356 t b f b;
#X obj 1056 1095 int;
#X obj 1056 1039 t b f f;
#X obj 1056 1131 tabwrite lastnoteStatus;
#X obj 1164 1037 unpack f f f;
#X obj 1025 93 r clock;
#X obj 1079 128 mod 96;
#X msg 1117 38 96;
#X obj 1123 265 sel;
#X obj 1164 266 sel;
#X obj 1370 358 until;
#X obj 1370 387 int 0;
#X obj 1417 386 + 1;
#X msg 1417 359 0;
#X obj 1370 316 t f b;
#X obj 1370 424 t f f f;
#X obj 1409 529 > 0;
#X obj 1178 658 int 0;
#X obj 1225 658 + 1;
#X floatatom 1094 697 5 0 0 0 - - -;
#X obj 1196 569 > 1;
#X obj 1146 631 t f b;
#X msg 1176 326 127;
#X obj 1157 151 - 2;
#X obj 1138 127 - 1;
#X obj 1678 344 tabread lastnoteStatus;
#X obj 1655 217 until;
#X obj 1655 246 int 0;
#X obj 1702 245 + 1;
#X msg 1702 218 0;
#X obj 1655 175 t f b;
#X obj 1655 283 t f f f;
#X obj 1118 87 t f f f f;
#X obj 1201 267 sel;
#X obj 1178 177 - 2;
#X obj 1655 315 tabread noteStatus;
#X obj 1655 375 !=;
#X obj 1079 188 spigot;
#X obj 1079 158 t f f;
#X obj 1079 220 t f f;
#X obj 1123 292 t b b;
#X obj 1236 204 sel 1;
#X msg 1236 241 1;
#X msg 1268 241 0;
#X obj 1625 127 bng 15 250 50 0 empty empty empty 17 7 0 10 -262144
-1 -1;
#X msg 1574 190 127;
#X obj 1025 263 sel -1;
#X obj 1119 6 loadbang;
#X obj 1209 790 sel 0 1 2 3;
#X msg 1200 848 49;
#X msg 1235 848 50;
#X msg 1271 848 51;
#X msg 1306 849 52;
#X connect 0 0 1 0;
#X connect 4 0 50 0;
#X connect 4 1 7 1;
#X connect 4 1 49 1;
#X connect 7 0 6 0;
#X connect 9 0 20 0;
#X connect 10 0 12 0;
#X connect 11 0 15 0;
#X connect 12 0 13 0;
#X connect 12 0 14 0;
#X connect 12 0 19 0;
#X connect 13 0 12 1;
#X connect 15 0 10 0;
#X connect 15 1 16 0;
#X connect 16 0 12 1;
#X connect 16 0 23 1;
#X connect 16 0 30 1;
#X connect 19 0 9 0;
#X connect 19 1 22 1;
#X connect 20 0 21 0;
#X connect 21 0 25 0;
#X connect 22 0 18 0;
#X connect 23 0 18 1;
#X connect 23 0 24 0;
#X connect 23 0 26 0;
#X connect 23 0 28 1;
#X connect 24 0 23 1;
#X connect 25 0 22 0;
#X connect 25 1 23 0;
#X connect 27 0 34 0;
#X connect 28 0 29 0;
#X connect 29 0 30 0;
#X connect 30 0 31 0;
#X connect 30 0 32 0;
#X connect 31 0 30 1;
#X connect 32 0 27 0;
#X connect 32 1 35 0;
#X connect 33 0 28 0;
#X connect 33 1 11 0;
#X connect 33 2 7 0;
#X connect 33 3 6 1;
#X connect 35 0 36 0;
#X connect 35 1 37 0;
#X connect 36 0 38 2;
#X connect 37 0 38 2;
#X connect 39 0 69 0;
#X connect 40 0 42 0;
#X connect 41 0 79 0;
#X connect 42 0 43 0;
#X connect 42 0 44 0;
#X connect 42 0 46 0;
#X connect 43 0 42 1;
#X connect 45 0 42 1;
#X connect 46 0 39 0;
#X connect 46 1 47 0;
#X connect 46 1 52 1;
#X connect 46 1 62 1;
#X connect 46 1 72 1;
#X connect 46 1 71 0;
#X connect 47 0 48 1;
#X connect 48 0 51 1;
#X connect 50 0 49 0;
#X connect 50 1 53 1;
#X connect 50 2 33 0;
#X connect 51 0 60 0;
#X connect 51 0 68 0;
#X connect 52 0 75 0;
#X connect 54 0 59 0;
#X connect 56 0 63 1;
#X connect 57 0 52 0;
#X connect 57 1 54 1;
#X connect 57 2 58 0;
#X connect 58 0 56 0;
#X connect 59 0 76 0;
#X connect 60 0 57 0;
#X connect 61 0 60 1;
#X connect 63 0 64 0;
#X connect 64 0 65 0;
#X connect 64 1 87 0;
#X connect 65 0 66 0;
#X connect 66 0 59 2;
#X connect 66 1 62 0;
#X connect 68 0 74 0;
#X connect 69 0 51 0;
#X connect 69 1 48 0;
#X connect 69 2 61 0;
#X connect 69 2 73 0;
#X connect 70 0 76 0;
#X connect 71 0 70 2;
#X connect 72 0 70 0;
#X connect 73 0 68 1;
#X connect 74 0 72 0;
#X connect 75 0 54 0;
#X connect 75 1 63 0;
#X connect 76 0 83 0;
#X connect 79 1 40 0;
#X connect 79 2 45 0;
#X connect 80 0 82 0;
#X connect 81 0 80 0;
#X connect 81 1 82 1;
#X connect 83 0 81 0;
#X connect 83 1 80 1;
#X connect 84 0 85 0;
#X connect 86 0 41 0;
#X connect 86 0 88 0;
#X connect 87 0 66 0;
#X connect 89 0 106 0;
#X connect 90 0 92 0;
#X connect 91 0 113 0;
#X connect 92 0 93 0;
#X connect 92 0 94 0;
#X connect 92 0 96 0;
#X connect 93 0 92 1;
#X connect 95 0 92 1;
#X connect 95 0 130 1;
#X connect 96 0 89 0;
#X connect 96 1 99 1;
#X connect 96 1 103 1;
#X connect 97 0 129 0;
#X connect 98 0 134 0;
#X connect 99 0 109 0;
#X connect 100 0 102 0;
#X connect 101 0 99 0;
#X connect 101 1 100 1;
#X connect 102 0 110 0;
#X connect 104 0 102 2;
#X connect 104 1 103 0;
#X connect 105 0 107 0;
#X connect 106 0 98 0;
#X connect 106 1 133 0;
#X connect 107 0 110 0;
#X connect 108 0 107 2;
#X connect 109 0 100 0;
#X connect 110 0 111 0;
#X connect 110 0 117 0;
#X connect 110 0 112 0;
#X connect 113 1 90 0;
#X connect 113 2 95 0;
#X connect 114 0 116 0;
#X connect 115 0 114 0;
#X connect 115 1 116 1;
#X connect 117 0 115 0;
#X connect 117 1 114 1;
#X connect 118 0 119 0;
#X connect 118 0 159 0;
#X connect 119 0 151 0;
#X connect 120 0 145 0;
#X connect 121 0 153 0;
#X connect 122 0 135 0;
#X connect 123 0 124 0;
#X connect 124 0 125 0;
#X connect 124 0 128 0;
#X connect 125 0 124 1;
#X connect 126 0 124 1;
#X connect 127 0 123 0;
#X connect 127 1 126 0;
#X connect 128 0 105 0;
#X connect 128 1 97 0;
#X connect 128 2 108 0;
#X connect 129 0 105 1;
#X connect 130 0 131 0;
#X connect 130 0 132 0;
#X connect 130 0 161 0;
#X connect 131 0 130 1;
#X connect 133 0 98 1;
#X connect 134 0 101 0;
#X connect 134 1 130 0;
#X connect 135 0 127 0;
#X connect 136 0 122 1;
#X connect 137 0 121 1;
#X connect 138 0 149 1;
#X connect 139 0 140 0;
#X connect 140 0 141 0;
#X connect 140 0 144 0;
#X connect 141 0 140 1;
#X connect 142 0 140 1;
#X connect 143 0 139 0;
#X connect 143 1 142 0;
#X connect 144 0 148 0;
#X connect 144 1 138 0;
#X connect 145 0 119 1;
#X connect 145 1 137 0;
#X connect 145 2 136 0;
#X connect 145 3 147 0;
#X connect 146 0 158 0;
#X connect 147 0 146 1;
#X connect 148 0 149 0;
#X connect 149 0 154 0;
#X connect 150 0 152 0;
#X connect 151 0 150 0;
#X connect 151 1 146 0;
#X connect 152 0 121 0;
#X connect 152 1 122 0;
#X connect 153 0 91 0;
#X connect 153 1 156 0;
#X connect 154 0 155 0;
#X connect 155 0 150 1;
#X connect 156 0 150 1;
#X connect 157 0 143 0;
#X connect 158 0 143 0;
#X connect 159 0 135 0;
#X connect 160 0 120 0;
#X connect 161 0 162 0;
#X connect 161 1 163 0;
#X connect 161 2 164 0;
#X connect 161 3 165 0;
#X connect 162 0 104 0;
#X connect 163 0 104 0;
#X connect 164 0 104 0;
#X connect 165 0 104 0;
#X restore 306 63 pd neutron;
#X obj 960 823 midiout 5;
#X obj 1402 303 ctlout 53 60;
#X floatatom 1400 251 5 0 0 0 - - -;
#X obj 204 462 netreceive -u 8000;
#X obj 99 173 r keyfootN;
#X obj 99 219 unpack;
#X obj 99 291 int;
#X obj 100 374 ctlout;
#X msg 136 291 58;
#X obj 99 322 pack f f f;
#X obj 99 255 t b b f;
#X obj 180 292 - 31;
#N canvas 0 96 450 300 volca 0;
#X obj 139 34 notein 10;
#X obj 149 161 print;
#X obj 155 218 noteout 1;
#X obj 164 80 sel 41 40 39 38 37 36;
#X obj 116 88 t f f;
#X msg 164 108 17;
#X msg 200 107 18;
#X msg 234 107 19;
#X msg 273 106 20;
#X msg 309 105 21;
#X msg 343 105 22;
#X connect 0 0 1 0;
#X connect 0 0 4 0;
#X connect 0 1 2 1;
#X connect 3 0 5 0;
#X connect 3 1 6 0;
#X connect 3 2 7 0;
#X connect 3 3 8 0;
#X connect 3 4 9 0;
#X connect 3 5 10 0;
#X connect 4 0 2 0;
#X connect 4 1 3 0;
#X connect 5 0 2 2;
#X connect 6 0 2 2;
#X connect 7 0 2 2;
#X connect 8 0 2 2;
#X connect 9 0 2 2;
#X connect 10 0 2 2;
#X restore 305 90 pd volca;
#X obj 455 864 print;
#X obj 494 791 noteout 17;
#X obj 470 719 notein;
#X connect 1 0 2 0;
#X connect 2 0 0 0;
#X connect 3 0 0 0;
#X connect 4 0 5 0;
#X connect 4 0 67 0;
#X connect 5 0 4 1;
#X connect 6 0 3 0;
#X connect 7 0 8 0;
#X connect 8 0 9 0;
#X connect 9 0 35 0;
#X connect 9 1 35 1;
#X connect 10 0 4 0;
#X connect 12 0 4 0;
#X connect 13 0 49 0;
#X connect 14 0 49 0;
#X connect 15 0 16 0;
#X connect 15 0 20 0;
#X connect 16 0 15 1;
#X connect 17 0 18 0;
#X connect 17 1 19 0;
#X connect 18 0 22 0;
#X connect 19 0 15 1;
#X connect 20 0 21 0;
#X connect 21 0 49 0;
#X connect 22 0 15 0;
#X connect 23 0 24 0;
#X connect 24 0 25 0;
#X connect 24 2 17 0;
#X connect 25 0 26 0;
#X connect 25 1 13 0;
#X connect 26 0 13 0;
#X connect 26 1 14 0;
#X connect 27 0 32 0;
#X connect 27 1 32 1;
#X connect 28 0 29 0;
#X connect 29 0 41 0;
#X connect 30 0 31 0;
#X connect 31 0 41 0;
#X connect 32 0 33 0;
#X connect 35 0 34 0;
#X connect 37 0 39 0;
#X connect 38 0 39 0;
#X connect 40 0 41 0;
#X connect 42 0 43 0;
#X connect 43 0 28 0;
#X connect 44 0 109 0;
#X connect 45 0 47 0;
#X connect 46 0 47 0;
#X connect 47 0 11 1;
#X connect 47 0 110 0;
#X connect 49 0 48 0;
#X connect 49 0 68 0;
#X connect 50 0 51 0;
#X connect 51 0 55 0;
#X connect 51 0 66 0;
#X connect 52 0 53 0;
#X connect 54 0 52 0;
#X connect 55 0 57 0;
#X connect 55 1 54 0;
#X connect 56 0 52 0;
#X connect 57 0 56 0;
#X connect 58 0 63 0;
#X connect 59 0 58 0;
#X connect 60 0 62 0;
#X connect 60 1 59 0;
#X connect 61 0 58 0;
#X connect 62 0 61 0;
#X connect 64 0 60 0;
#X connect 65 0 4 0;
#X connect 66 0 64 0;
#X connect 67 1 1 0;
#X connect 69 0 121 0;
#X connect 70 0 71 0;
#X connect 71 0 75 0;
#X connect 71 0 112 0;
#X connect 72 0 73 0;
#X connect 73 0 75 0;
#X connect 74 0 75 0;
#X connect 76 0 79 0;
#X connect 78 0 81 0;
#X connect 79 0 70 0;
#X connect 80 0 78 0;
#X connect 80 0 101 0;
#X connect 80 0 103 0;
#X connect 80 1 78 1;
#X connect 80 1 103 1;
#X connect 80 2 82 0;
#X connect 80 2 83 0;
#X connect 80 2 103 2;
#X connect 81 0 76 0;
#X connect 82 0 81 1;
#X connect 83 0 78 2;
#X connect 84 0 85 0;
#X connect 85 0 89 0;
#X connect 86 0 85 1;
#X connect 87 0 84 2;
#X connect 88 0 84 0;
#X connect 88 1 84 1;
#X connect 88 2 86 0;
#X connect 88 2 87 0;
#X connect 89 0 79 0;
#X connect 90 0 98 0;
#X connect 91 0 93 0;
#X connect 92 0 91 0;
#X connect 92 1 91 1;
#X connect 92 2 99 0;
#X connect 92 2 91 2;
#X connect 93 0 90 0;
#X connect 94 0 95 0;
#X connect 95 0 97 0;
#X connect 96 0 94 0;
#X connect 96 1 94 1;
#X connect 96 2 94 2;
#X connect 96 2 100 0;
#X connect 97 0 98 0;
#X connect 98 0 70 0;
#X connect 99 0 93 1;
#X connect 100 0 95 1;
#X connect 103 0 102 0;
#X connect 104 0 105 0;
#X connect 105 0 108 0;
#X connect 105 1 108 1;
#X connect 105 2 106 0;
#X connect 106 0 107 1;
#X connect 107 0 39 0;
#X connect 108 0 107 0;
#X connect 109 0 46 0;
#X connect 109 1 46 0;
#X connect 109 2 45 0;
#X connect 111 0 85 0;
#X connect 113 0 114 0;
#X connect 114 0 75 0;
#X connect 115 0 117 0;
#X connect 116 0 115 0;
#X connect 117 0 113 0;
#X connect 118 0 116 0;
#X connect 118 0 120 0;
#X connect 118 1 116 1;
#X connect 118 2 119 0;
#X connect 119 0 116 2;
#X connect 125 0 126 0;
#X connect 126 0 127 0;
#X connect 127 0 122 0;
#X connect 127 1 123 0;
#X connect 128 0 126 1;
#X connect 131 0 125 0;
#X connect 131 1 125 1;
#X connect 135 0 134 0;
#X connect 136 0 7 0;
#X connect 137 0 138 0;
#X connect 138 0 143 0;
#X connect 138 1 139 1;
#X connect 139 0 142 0;
#X connect 141 0 142 1;
#X connect 142 0 140 0;
#X connect 143 0 139 0;
#X connect 143 1 141 0;
#X connect 143 2 144 0;
#X connect 144 0 142 2;
#X connect 148 0 146 0;
