#N canvas 0 36 1920 984 12;
#X msg 259 375 248;
#X msg 291 383 250;
#X obj 371 325 int;
#X obj 407 342 + 1;
#X obj 369 253 t b b;
#X msg 371 276 1;
#X msg 444 272 0;
#X obj 371 369 sel 1;
#X msg 372 414 252;
#X obj 371 302 metro 250;
#X obj 259 121 r clock;
#X obj 259 233 t f f b;
#X obj 259 277 sel 0;
#X obj 259 333 t b b;
#X obj 259 521 midiout;
#X obj 259 459 t f;
#X obj 319 521 midiout 2;
#X obj 400 521 midiout 3;
#X connect 0 0 15 0;
#X connect 1 0 15 0;
#X connect 2 0 3 0;
#X connect 2 0 7 0;
#X connect 3 0 2 1;
#X connect 4 0 5 0;
#X connect 4 1 6 0;
#X connect 5 0 9 0;
#X connect 6 0 2 1;
#X connect 7 0 8 0;
#X connect 8 0 15 0;
#X connect 9 0 2 0;
#X connect 10 0 11 0;
#X connect 11 0 12 0;
#X connect 11 2 4 0;
#X connect 12 0 13 0;
#X connect 12 1 0 0;
#X connect 13 0 0 0;
#X connect 13 1 1 0;
#X connect 15 0 14 0;
#X connect 15 0 16 0;
