#N canvas 607 184 1046 612 10;
#X obj 100 100 tgl 60 0 \$0-mute_VS-S \$0-mute_VS-R VS-\$1 1 30 0 20
-208050 -208050 -8324 1 1;
#X obj 105 -280 \$1;
#X obj 105 -311 loadbang;
#X obj 100 -48 r preset;
#X obj 105 -201 table vsmp_mute-\$1;
#X obj 100 -14 t f f;
#X obj 134 191 tabwrite vsmp_mute-\$1;
#X obj 100 28 tabread vsmp_mute-\$1;
#X msg 105 -249 \; vsmp_mute-\$1 const 1;
#X obj 179 52 loadbang;
#X msg 179 77 1;
#X obj 100 213 t f f;
#X obj 100 332 ctlout;
#X obj 100 251 t f b b;
#X msg 119 283 58;
#X obj 152 286 \$1;
#N canvas 2 84 1041 705 colors 0;
#X obj 350 307 r colors;
#X msg 325 436 color -1.22149e+07 -1.22149e+07 -723725;
#X obj 319 491 s \$0-muteC;
#X obj 333 121 sel 0 1;
#X obj 325 86 r \$0-muteS;
#X obj 350 263 s \$0-muteR;
#X obj 402 95 r \$0-muteC;
#X obj 455 66 r \$0-offC;
#X obj 472 477 s \$0-offC;
#X msg 330 208 color -1.22149e+07 -1.22149e+07 -723725;
#X msg 402 174 color -1.31586e+07 -1.31586e+07 -592653;
#X obj 351 350 route mute standard;
#X obj 773 306 r colors;
#X obj 878 65 r \$0-offC;
#X msg 753 207 color -7.51071e+06 -7.51071e+06 -723725;
#X msg 825 173 color -1.31586e+07 -1.31586e+07 -592653;
#X obj 748 85 r \$0-soloS;
#X obj 825 94 r \$0-soloC;
#X obj 773 262 s \$0-soloR;
#X obj 774 349 route solo;
#X obj 742 490 s \$0-soloC;
#X obj 756 120 sel 1 0;
#X msg 484 403 set color \$1 \$1 \$3;
#X msg 351 405 set color \$1 \$1 \$3;
#X msg 774 404 set color \$1 \$1 \$3;
#X obj -2 120 sel 0 1;
#X obj 65 95 r \$0-muteC;
#X obj 120 65 r \$0-offC;
#X msg -5 207 color -1.22149e+07 -1.22149e+07 -723725;
#X msg 67 173 color -1.31586e+07 -1.31586e+07 -592653;
#X obj -7 70 r \$0-mute_VS-S;
#X obj 15 262 s \$0-mute_VS-R;
#X obj 78 328 r \$0-offC;
#X msg -47 470 color -7.51071e+06 -7.51071e+06 -723725;
#X msg 25 436 color -1.31586e+07 -1.31586e+07 -592653;
#X obj 25 357 r \$0-soloC;
#X obj -44 383 sel 1 0;
#X obj -52 348 r \$0-LR-S;
#X obj -27 525 s \$0-LR-R;
#X connect 0 0 11 0;
#X connect 3 0 9 0;
#X connect 3 1 10 0;
#X connect 4 0 3 0;
#X connect 6 0 9 0;
#X connect 7 0 10 0;
#X connect 9 0 5 0;
#X connect 10 0 5 0;
#X connect 11 0 23 0;
#X connect 11 1 22 0;
#X connect 12 0 19 0;
#X connect 13 0 15 0;
#X connect 14 0 18 0;
#X connect 15 0 18 0;
#X connect 16 0 21 0;
#X connect 17 0 14 0;
#X connect 19 0 24 0;
#X connect 21 0 14 0;
#X connect 21 1 15 0;
#X connect 22 0 8 0;
#X connect 23 0 1 0;
#X connect 23 0 2 0;
#X connect 24 0 20 0;
#X connect 25 0 28 0;
#X connect 25 1 29 0;
#X connect 26 0 28 0;
#X connect 27 0 29 0;
#X connect 28 0 31 0;
#X connect 29 0 31 0;
#X connect 30 0 25 0;
#X connect 32 0 34 0;
#X connect 33 0 38 0;
#X connect 34 0 38 0;
#X connect 35 0 33 0;
#X connect 36 0 33 0;
#X connect 36 1 34 0;
#X connect 37 0 36 0;
#X restore 254 -294 pd colors;
#X connect 0 0 6 0;
#X connect 0 0 11 0;
#X connect 1 0 8 0;
#X connect 2 0 1 0;
#X connect 3 0 5 0;
#X connect 5 0 7 0;
#X connect 5 1 6 1;
#X connect 7 0 0 0;
#X connect 9 0 10 0;
#X connect 10 0 0 0;
#X connect 11 0 13 0;
#X connect 13 0 12 0;
#X connect 13 1 14 0;
#X connect 13 2 15 0;
#X connect 14 0 12 1;
#X connect 15 0 12 2;
#X coords 0 -1 1 1 60 60 2 100 100;
