#N canvas 339 17 950 969 10;
#X obj 415 199 s seq_edit;
#X msg 416 165 1;
#X msg 445 166 0;
#X obj 503 134 loadbang;
#X msg 503 162 1;
#X msg 532 163 0;
#X obj 502 196 s direct_midi;
#X obj 100 100 bng 40 250 50 0 empty empty home 7 20 0 12 #dcdcdc #000000 #000000;
#X obj 100 200 noteout 2;
#X obj 100 174 pack f 100;
#X msg 100 151 23;
#N canvas 0 56 1920 969 SeqChannelOutRouting 0;
#X obj 375 153 unpack;
#X obj 375 115 r channel1-2;
#X msg 377 323 mute;
#X msg 412 320 unmute;
#X obj 538 156 unpack;
#X obj 538 118 r channel1-3;
#X obj 375 264 sel 0 1 2;
#X obj 571 248 sel -1;
#X obj 414 182 >= 0;
#X obj 375 217 spigot;
#X obj 439 235 sel -1;
#X obj 206 151 unpack;
#X obj 206 113 r channel1-1;
#X obj 246 272 moses;
#X obj 207 244 + 28;
#X obj 226 380 pack;
#X obj 272 325 int;
#X obj 186 332 spigot;
#X msg 242 304 0;
#X msg 209 305 1;
#X obj 232 197 moses 40;
#X obj 14 122 r ghRoot;
#X obj 14 188 makenote 127 500;
#X obj 14 221 mod 12;
#X obj 14 289 + 28;
#X obj 14 153 spigot;
#X obj 96 116 r ghInput;
#X obj 186 277 +;
#X obj 96 144 t f f;
#X obj 152 177 sel 0;
#X msg 160 212 0;
#X obj 375 355 s pick;
#X obj 604 284 s kick;
#X msg 467 324 pick;
#X floatatom 151 390 5 0 0 0 - - - 0;
#X obj 140 281 +, f 4;
#X msg 123 328 \$1 110;
#X obj 279 300 * 110;
#X obj 631 238 bng 15 250 50 0 empty empty empty 17 7 0 10 #fcfcfc #000000 #000000;
#X obj 125 431 s pitch;
#X obj 14 390 pack;
#X floatatom 20 337 5 0 0 0 - - - 0;
#X obj 675 154 unpack;
#X obj 708 246 sel -1;
#X obj 675 116 r channel1-4;
#X obj 741 281 s damp;
#X connect 0 0 9 0;
#X connect 0 0 10 0;
#X connect 0 1 8 0;
#X connect 1 0 0 0;
#X connect 2 0 31 0;
#X connect 3 0 31 0;
#X connect 4 1 7 0;
#X connect 5 0 4 0;
#X connect 6 0 2 0;
#X connect 6 1 3 0;
#X connect 6 2 33 0;
#X connect 7 1 32 0;
#X connect 8 0 9 1;
#X connect 9 0 6 0;
#X connect 10 0 3 0;
#X connect 11 0 20 0;
#X connect 11 1 13 0;
#X connect 12 0 11 0;
#X connect 13 0 18 0;
#X connect 13 1 19 0;
#X connect 13 1 37 0;
#X connect 14 0 27 0;
#X connect 14 0 35 1;
#X connect 15 0 39 0;
#X connect 16 0 15 1;
#X connect 17 0 15 0;
#X connect 17 0 34 0;
#X connect 18 0 17 1;
#X connect 19 0 17 1;
#X connect 20 0 14 0;
#X connect 21 0 25 0;
#X connect 22 0 23 0;
#X connect 22 1 40 1;
#X connect 23 0 24 0;
#X connect 23 0 35 0;
#X connect 23 0 27 1;
#X connect 24 0 40 0;
#X connect 24 0 41 0;
#X connect 25 0 22 0;
#X connect 26 0 28 0;
#X connect 27 0 17 0;
#X connect 28 0 29 0;
#X connect 28 1 25 1;
#X connect 29 0 30 0;
#X connect 30 0 27 1;
#X connect 30 0 35 1;
#X connect 33 0 31 0;
#X connect 35 0 36 0;
#X connect 37 0 16 0;
#X connect 38 0 32 0;
#X connect 40 0 39 0;
#X connect 42 1 43 0;
#X connect 43 1 45 0;
#X connect 44 0 42 0;
#X restore 243 148 pd SeqChannelOutRouting;
#N canvas 965 61 950 969 actions 1;
#X obj 335 56 r pick;
#X obj 203 44 r kick;
#X obj 203 102 clip 0 1;
#X obj 203 328 noteout 2;
#X obj 203 178 int;
#X obj 335 91 route pick mute unmute;
#X obj 555 56 tgl 15 0 empty empty stepOnOff 17 7 0 10 #fcfcfc #000000 #000000 0 1;
#X msg 555 139 22 100;
#X msg 600 138 21 100;
#X obj 555 89 sel 1 0;
#X obj 75 140 noteout 1;
#X obj 66 49 r pitch;
#X obj 203 142 * 127;
#X obj 421 157 v nt_pick-Mt;
#X msg 421 186 \$1 0;
#X obj 378 133 v nt_pick-Mt;
#X obj 335 189 v nt_pick;
#X obj 203 238 v nt_kick;
#X obj 203 289 pack;
#X obj 203 206 t b f;
#X obj 66 293 list trim;
#X obj 66 326 s toAll;
#X obj 295 455 list trim;
#X obj 295 488 s toAll;
#X obj 379 316 noteout 2;
#X obj 379 277 pack;
#X obj 557 224 noteout 2;
#X obj 554 179 pack;
#X obj 66 259 list prepend out/note;
#X obj 295 425 list prepend out/note;
#X obj 295 397 pack f f 2;
#X obj 66 228 pack f f 1;
#X msg 378 162 \$1 100;
#X obj 316 132 bng 15 250 50 0 empty empty empty 17 7 0 10 #fcfcfc #000000 #000000;
#X msg 335 237 \$1 127;
#X msg 382 237 \$1 0;
#X obj 346 213 pipe 100;
#X obj 66 112 pack;
#X obj 66 79 makenote 100 200;
#X obj 238 262 pipe 100;
#X obj 238 301 pack f 0;
#X obj 681 109 clip 0 1;
#X obj 681 185 int;
#X obj 681 149 * 127;
#X obj 681 51 r damp;
#X obj 682 353 ctlout;
#X obj 707 253 v ctl_damp;
#X obj 681 213 t f b;
#X obj 681 315 pack f f 2;
#X connect 0 0 5 0;
#X connect 1 0 2 0;
#X connect 2 0 12 0;
#X connect 4 0 19 0;
#X connect 5 0 16 0;
#X connect 5 1 15 0;
#X connect 5 2 13 0;
#X connect 6 0 9 0;
#X connect 7 0 27 0;
#X connect 8 0 27 0;
#X connect 9 0 7 0;
#X connect 9 1 8 0;
#X connect 11 0 38 0;
#X connect 12 0 4 0;
#X connect 13 0 14 0;
#X connect 14 0 25 0;
#X connect 15 0 32 0;
#X connect 16 0 34 0;
#X connect 16 0 36 0;
#X connect 17 0 18 0;
#X connect 17 0 39 0;
#X connect 18 0 3 0;
#X connect 18 0 30 0;
#X connect 19 0 17 0;
#X connect 19 1 18 1;
#X connect 20 0 21 0;
#X connect 22 0 23 0;
#X connect 25 0 24 0;
#X connect 25 0 30 0;
#X connect 27 0 26 0;
#X connect 27 0 30 0;
#X connect 28 0 20 0;
#X connect 29 0 22 0;
#X connect 30 0 29 0;
#X connect 31 0 28 0;
#X connect 32 0 25 0;
#X connect 33 0 16 0;
#X connect 34 0 25 0;
#X connect 35 0 25 0;
#X connect 36 0 35 0;
#X connect 37 0 31 0;
#X connect 37 0 10 0;
#X connect 38 0 37 0;
#X connect 38 1 37 1;
#X connect 39 0 40 0;
#X connect 40 0 18 0;
#X connect 41 0 43 0;
#X connect 42 0 47 0;
#X connect 43 0 42 0;
#X connect 44 0 41 0;
#X connect 46 0 48 1;
#X connect 47 0 48 0;
#X connect 47 1 46 0;
#X connect 48 0 45 0;
#X restore 243 169 pd actions;
#X msg 4 180 22 100;
#X msg 49 179 21 100;
#X obj 5 220 noteout 2;
#X msg 288 352 25;
#X obj 376 390 v nt_pick;
#X msg 376 351 26;
#X obj 288 391 v nt_pick-Mt;
#X obj 300 305 loadbang;
#X obj 453 391 v nt_kick;
#X msg 455 348 24;
#X obj 94 323 r netNote;
#X obj 94 355 noteout;
#N canvas 0 56 1920 993 midiController 0;
#X obj 749 452 > 0;
#X obj 749 475 sel 1;
#X obj 749 536 int;
#X obj 749 428 t f f;
#X obj 749 373 int;
#X obj 749 563 / 127;
#X obj 554 347 unpack;
#X obj 749 296 unpack;
#X obj 163 455 spigot;
#X obj 198 313 r direct_midi;
#X obj 163 391 notein 1;
#X obj 230 422 pack;
#X obj 230 453 spigot;
#X obj 230 490 s notein2;
#X obj 163 492 s notein1;
#X obj 385 310 r notein1;
#X obj 240 391 notein 2;
#X obj 537 37 r notein1;
#X obj 537 64 unpack;
#X obj 537 113 int;
#X obj 537 145 tabwrite midinotes;
#X obj 601 68 table midinotes;
#X msg 702 121 \; midinotes resize 127;
#X msg 707 86 \; midinotes const 0;
#X obj 537 87 t b f;
#X obj 711 52 loadbang;
#X obj 749 657 s 2ch-1-3;
#X msg 749 627 vel \$1;
#X msg 554 694 pitch \$1;
#X obj 554 726 s 2ch-1-2;
#X msg 554 618 2;
#X obj 579 503 moses 1;
#X obj 579 474 int;
#X msg 588 646 1;
#X msg 618 644 0;
#X obj 749 324 sel 46 47 44;
#X obj 749 507 delay 0;
#X msg 749 592 \; kick \$1;
#X obj 760 402 bng 15 250 50 0 empty empty empty 17 7 0 10 #fcfcfc #000000 #000000;
#X obj 749 274 r notein2;
#X text 747 249 Kickup;
#X obj 554 308 r notein2;
#X text 551 281 Pick;
#X obj 385 450 noteout;
#X obj 162 426 pack;
#X obj 385 344 unpack f f f;
#X floatatom 512 391 5 0 0 0 - - - 0;
#X msg 500 581 \; pick pick;
#X obj 554 384 sel 44 45 46;
#X obj 385 408 pack f f 1;
#X obj 385 376 - 12;
#X msg 618 529 \; pick mute;
#X msg 579 569 \; pick unmute;
#X obj 523 502 moses 1;
#X obj 523 473 int;
#N canvas 1267 337 450 300 audioctl 0;
#X obj 44 36 r ctlin;
#X obj 44 59 unpack;
#X obj 44 107 spigot;
#X obj 44 190 ctlout;
#X obj 44 138 t f b;
#X obj 77 83 == 20;
#X obj 131 35 r ctlin;
#X obj 131 58 unpack;
#X obj 131 106 spigot;
#X obj 131 189 ctlout;
#X obj 131 137 t f b;
#X floatatom 192 62 5 0 0 0 - - - 0;
#X msg 71 162 10;
#X msg 158 161 11;
#X obj 233 35 r ctlin;
#X obj 233 58 unpack;
#X obj 233 106 spigot;
#X obj 233 189 ctlout;
#X obj 233 137 t f b;
#X floatatom 294 62 5 0 0 0 - - - 0;
#X obj 164 82 == 21;
#X msg 260 161 12;
#X obj 44 225 r ctlin;
#X obj 44 248 unpack;
#X obj 44 296 spigot;
#X obj 44 379 ctlout;
#X obj 44 327 t f b;
#X obj 131 224 r ctlin;
#X obj 131 247 unpack;
#X obj 131 295 spigot;
#X obj 131 378 ctlout;
#X obj 131 326 t f b;
#X floatatom 192 251 5 0 0 0 - - - 0;
#X obj 233 224 r ctlin;
#X obj 233 247 unpack;
#X obj 233 295 spigot;
#X obj 233 378 ctlout;
#X obj 233 326 t f b;
#X floatatom 294 251 5 0 0 0 - - - 0;
#X msg 71 351 13;
#X msg 158 350 14;
#X msg 260 350 15;
#X obj 266 82 == 6;
#X obj 77 272 == 7;
#X floatatom 15 278 5 0 0 0 - - - 0;
#X obj 164 271 == 2;
#X obj 266 271 == 3;
#X obj 44 422 r ctlin;
#X obj 44 445 unpack;
#X obj 44 493 spigot;
#X obj 44 576 ctlout;
#X obj 44 524 t f b;
#X floatatom 105 449 5 0 0 0 - - - 0;
#X obj 77 469 == 2;
#X msg 71 548 17;
#X obj 46 -12 ctlout;
#X obj 46 -64 t f b;
#X msg 73 -40 14;
#X msg 46 -88 0;
#X obj 46 -110 r loadbang;
#X connect 0 0 1 0;
#X connect 1 0 2 0;
#X connect 1 1 5 0;
#X connect 2 0 4 0;
#X connect 4 0 3 0;
#X connect 4 1 12 0;
#X connect 5 0 2 1;
#X connect 6 0 7 0;
#X connect 7 0 8 0;
#X connect 7 1 11 0;
#X connect 7 1 20 0;
#X connect 8 0 10 0;
#X connect 10 0 9 0;
#X connect 10 1 13 0;
#X connect 12 0 3 1;
#X connect 13 0 9 1;
#X connect 14 0 15 0;
#X connect 15 0 16 0;
#X connect 15 1 19 0;
#X connect 15 1 42 0;
#X connect 16 0 18 0;
#X connect 18 0 17 0;
#X connect 18 1 21 0;
#X connect 20 0 8 1;
#X connect 21 0 17 1;
#X connect 22 0 23 0;
#X connect 23 0 24 0;
#X connect 23 0 44 0;
#X connect 23 1 43 0;
#X connect 24 0 26 0;
#X connect 26 0 25 0;
#X connect 26 1 39 0;
#X connect 27 0 28 0;
#X connect 28 0 29 0;
#X connect 28 1 32 0;
#X connect 28 1 45 0;
#X connect 29 0 31 0;
#X connect 31 1 40 0;
#X connect 33 0 34 0;
#X connect 34 0 35 0;
#X connect 34 1 38 0;
#X connect 34 1 46 0;
#X connect 35 0 37 0;
#X connect 37 1 41 0;
#X connect 39 0 25 1;
#X connect 40 0 30 1;
#X connect 41 0 36 1;
#X connect 42 0 16 1;
#X connect 43 0 24 1;
#X connect 45 0 29 1;
#X connect 46 0 35 1;
#X connect 47 0 48 0;
#X connect 48 0 49 0;
#X connect 48 1 52 0;
#X connect 48 1 53 0;
#X connect 49 0 51 0;
#X connect 51 0 50 0;
#X connect 51 1 54 0;
#X connect 53 0 49 1;
#X connect 54 0 50 1;
#X connect 56 0 55 0;
#X connect 56 1 57 0;
#X connect 57 0 55 1;
#X connect 58 0 56 0;
#X connect 59 0 58 0;
#X restore 375 59 pd audioctl;
#X connect 0 0 1 0;
#X connect 1 0 36 0;
#X connect 2 0 5 0;
#X connect 3 0 0 0;
#X connect 3 1 2 1;
#X connect 4 0 3 0;
#X connect 4 0 38 0;
#X connect 5 0 37 0;
#X connect 5 0 27 0;
#X connect 6 0 48 0;
#X connect 6 0 46 0;
#X connect 6 1 32 1;
#X connect 6 1 54 1;
#X connect 7 0 35 0;
#X connect 7 1 4 1;
#X connect 8 0 14 0;
#X connect 9 0 8 1;
#X connect 9 0 12 1;
#X connect 10 0 44 0;
#X connect 10 1 44 1;
#X connect 11 0 12 0;
#X connect 12 0 13 0;
#X connect 15 0 45 0;
#X connect 16 0 11 0;
#X connect 16 1 11 1;
#X connect 17 0 18 0;
#X connect 18 0 24 0;
#X connect 18 1 19 1;
#X connect 19 0 20 0;
#X connect 24 0 19 0;
#X connect 24 1 20 1;
#X connect 25 0 23 0;
#X connect 25 0 22 0;
#X connect 27 0 26 0;
#X connect 28 0 29 0;
#X connect 30 0 28 0;
#X connect 31 0 52 0;
#X connect 31 1 51 0;
#X connect 32 0 31 0;
#X connect 33 0 28 0;
#X connect 34 0 28 0;
#X connect 35 1 4 0;
#X connect 35 2 4 0;
#X connect 36 0 2 0;
#X connect 39 0 7 0;
#X connect 41 0 6 0;
#X connect 44 0 8 0;
#X connect 45 0 50 0;
#X connect 45 1 49 1;
#X connect 47 0 30 0;
#X connect 48 1 32 0;
#X connect 48 2 54 0;
#X connect 49 0 43 0;
#X connect 50 0 49 0;
#X connect 51 0 34 0;
#X connect 52 0 33 0;
#X connect 53 1 47 0;
#X connect 54 0 53 0;
#X restore 244 124 pd midiController;
#X obj 534 384 v ctl_damp;
#X msg 536 349 1;
#X connect 1 0 0 0;
#X connect 2 0 0 0;
#X connect 3 0 4 0;
#X connect 4 0 6 0;
#X connect 5 0 6 0;
#X connect 7 0 10 0;
#X connect 7 0 13 0;
#X connect 9 0 8 0;
#X connect 10 0 9 0;
#X connect 13 0 15 0;
#X connect 14 0 15 0;
#X connect 16 0 19 0;
#X connect 18 0 17 0;
#X connect 20 0 16 0;
#X connect 20 0 18 0;
#X connect 20 0 22 0;
#X connect 20 0 27 0;
#X connect 22 0 21 0;
#X connect 23 0 24 0;
#X connect 27 0 26 0;
#X coords 0 -1 1 1 40 40 2 100 100;
