#N canvas 1 100 1041 700 10;
#X obj 11 20 seq/clock;
#X obj 704 435 print;
#X obj 837 606 noteout;
#X obj 840 531 unpack;
#X obj 232 1048 seq/channel 1 2 16 40 1 1 60;
#X obj 15 798 seq/channel 1 3 16 40 1 1 0;
#X obj 14 672 seq/channel 1 4 16 50 1 1 0;
#X obj 16 619 seq/gui 1 4 50;
#X obj 728 465 r channel1-4;
#X obj 783 338 r clock;
#X obj 6 121 seq/channel 1 1 16 45 1 1 0;
#X connect 3 0 2 0;
#X connect 3 1 2 1;
#X connect 8 0 3 0;
#X connect 9 0 1 0;
