#N canvas 0 28 1920 1108 12;
#X obj 1 1 cnv 15 195 195 empty canvas-\$0 empty 20 12 0 14 #5c5c5f #fcfcfc 0;
#X obj 13 7 hsl 105 20 0 1 0 0 empty color_Standard empty -2 -8 0 10 #d7d7db #646463 #646463 0 1;
#X obj 10 -229 r fromA;
#X obj 67 -66 s \$0-nAction;
#N canvas 0 93 1056 701 color 0;
#X obj 136 245 s canvas-\$0;
#X obj 103 7 r \$0-action;
#X obj 105 53 route rst rec play stop;
#X msg 176 153 color -8.47394e+06;
#X msg 366 137 color -8.55309e+06;
#X msg 108 158 color -6.05296e+06;
#X msg 276 54 set color \$1;
#X obj 313 -19 r colors;
#X msg 238 137 color -5.73503e+06;
#X msg 670 64 color \$1;
#X msg 376 56 set color \$1;
#X msg 466 63 set color \$1;
#X msg 566 65 set color \$1;
#X obj 767 -5 r colors;
#X msg 742 124 color -1.22149e+07 -1.22149e+07 -723725;
#X obj 736 179 s \$0-muteC;
#X obj 140 330 sel 0 1;
#X obj 132 295 r \$0-muteS;
#X obj 157 472 s \$0-muteR;
#X obj 209 304 r \$0-muteC;
#X obj 262 275 r \$0-offC;
#X obj 889 165 s \$0-offC;
#X msg 137 417 color -1.22149e+07 -1.22149e+07 -723725;
#X msg 209 383 color -1.31586e+07 -1.31586e+07 -592653;
#X obj 768 38 route mute standard;
#X msg 901 91 set color \$1 \$1 \$3;
#X msg 768 93 set color \$1 \$1 \$3;
#X obj 314 5 route rst rec play stop;
#X connect 1 0 2 0;
#X connect 2 0 5 0;
#X connect 2 1 3 0;
#X connect 2 2 8 0;
#X connect 2 3 4 0;
#X connect 3 0 0 0;
#X connect 4 0 0 0;
#X connect 5 0 0 0;
#X connect 6 0 5 0;
#X connect 7 0 27 0;
#X connect 8 0 0 0;
#X connect 9 0 0 0;
#X connect 10 0 3 0;
#X connect 11 0 8 0;
#X connect 12 0 4 0;
#X connect 13 0 24 0;
#X connect 16 0 22 0;
#X connect 16 1 23 0;
#X connect 17 0 16 0;
#X connect 19 0 22 0;
#X connect 20 0 23 0;
#X connect 22 0 18 0;
#X connect 23 0 18 0;
#X connect 24 0 26 0;
#X connect 24 1 25 0;
#X connect 25 0 21 0;
#X connect 26 0 14 0;
#X connect 26 0 15 0;
#X connect 27 0 6 0;
#X connect 27 0 9 0;
#X connect 27 1 10 0;
#X connect 27 1 9 0;
#X connect 27 2 11 0;
#X connect 27 2 9 0;
#X connect 27 3 12 0;
#X connect 27 3 9 0;
#X restore -159 -387 pd color;
#X obj 10 -202 route \$1;
#X obj 10 -176 route \$2;
#N canvas 372 269 450 346 init 0;
#X obj 137 73 r init;
#X obj 137 98 s init-\$0;
#X obj 77 71 loadbang;
#X obj 186 41 bng 15 250 50 0 empty empty empty 17 7 0 10 #fcfcfc #000000 #000000;
#X connect 0 0 1 0;
#X connect 2 0 1 0;
#X connect 3 0 1 0;
#X restore -187 -363 pd init;
#X symbolatom 31 171 8 0 0 0 - - - 0;
#X obj 31 220 r \$0-nAction;
#X obj 31 251 symbol;
#X msg 785 309 \$2 \$3 nAction \$1;
#X obj 785 278 pack s \$1 \$2;
#X obj 807 240 symbol;
#X obj 10 -151 route lPos nAction action;
#X symbolatom -264 -254 5 0 0 0 - - - 0;
#X obj -264 -280 symbol;
#X obj -264 -307 r \$0-action;
#X obj 124 -98 s \$0-action;
#X obj 785 339 s 2pLoopA;
#X msg 882 220 rst;
#X obj 825 -266 r \$0-action;
#X obj -86 201 s \$0-btn;
#X obj 705 21 r \$0-btn;
#X msg 824 -38 rec;
#X msg 863 -40 play;
#X msg 903 -40 rec;
#X msg 942 -40 play;
#X obj 785 41 symbol;
#X obj 824 -74 route rst rec play stop;
#X obj 824 0 symbol;
#X obj 882 180 t b;
#X obj 934 -227 r rec;
#X msg 980 -140 set rec;
#X msg 961 -116 set stop;
#X obj 961 -166 sel 0 1;
#X msg 200 -126 rst;
#X obj 200 -155 loadbang;
#X obj 934 -193 t b f;
#X obj 285 -383 r \$0-nAction;
#X obj 285 -295 s chActions;
#X obj 285 -355 pack s \$1 \$2;
#X msg 285 -325 \$2 \$3 \$1;
#X symbolatom 809 70 10 0 0 0 - - - 0;
#N canvas 543 230 450 323 onlyOneoerChannel 0;
#X obj 125 243 outlet;
#X obj 174 157 unpack f s;
#X obj 164 123 route \$2;
#X obj 28 60 r \$0-action;
#X obj 164 61 spigot;
#X msg 44 159 1;
#X msg 112 164 0;
#X obj 29 94 symbol;
#X obj 164 95 route \$1;
#X obj 164 26 r chActions;
#X msg 171 213 stop;
#X obj 198 188 sel play rec;
#X obj 29 124 sel play rec stop;
#X connect 1 1 11 0;
#X connect 2 1 1 0;
#X connect 3 0 7 0;
#X connect 4 0 8 0;
#X connect 5 0 4 1;
#X connect 6 0 4 1;
#X connect 7 0 12 0;
#X connect 8 0 2 0;
#X connect 9 0 4 0;
#X connect 10 0 0 0;
#X connect 11 0 10 0;
#X connect 11 1 10 0;
#X connect 12 0 5 0;
#X connect 12 1 5 0;
#X connect 12 2 5 0;
#X connect 12 3 6 0;
#X restore 807 118 pd onlyOneoerChannel;
#N canvas 0 64 1280 656 follow 0;
#X obj 207 273 r follow-\$1;
#X obj 221 52 r chActions;
#X obj 221 109 route \$1;
#X obj 267 142 unpack f f s;
#X obj 317 273 sel rec play;
#X obj 317 312 spigot;
#X obj 301 182 pack f s;
#X obj 317 219 route \$2;
#X obj 316 244 symbol;
#X msg 319 350 play;
#X obj 65 89 symbol;
#X obj 64 56 r \$0-nAction;
#X obj 221 80 spigot;
#X msg 69 161 0;
#X msg 118 153 1;
#X obj 65 119 sel play rec;
#X obj 317 388 outlet;
#X connect 0 0 5 1;
#X connect 1 0 12 0;
#X connect 2 1 3 0;
#X connect 3 1 6 0;
#X connect 3 2 6 1;
#X connect 4 0 5 0;
#X connect 4 1 5 0;
#X connect 5 0 9 0;
#X connect 6 0 7 0;
#X connect 7 0 8 0;
#X connect 8 0 4 0;
#X connect 9 0 16 0;
#X connect 10 0 15 0;
#X connect 11 0 10 0;
#X connect 12 0 2 0;
#X connect 13 0 12 1;
#X connect 14 0 12 1;
#X connect 15 0 13 0;
#X connect 15 1 13 0;
#X connect 15 2 14 0;
#X restore 703 258 pd follow;
#X msg 824 -112 rst;
#X msg 824 -143 set \$2;
#X obj 824 -173 pack b s;
#N canvas 4 96 1054 705 nun2 0;
#X obj 189 18 r wii-nun-b;
#X obj 192 252 sel 1 2;
#X obj 220 494 mod 8;
#X obj 220 531 + 1;
#X obj 276 523 + 1;
#X obj 220 570 pack;
#X obj 276 493 mod 5;
#X obj 188 90 spigot;
#X obj 397 -31 r nunPos;
#X obj 220 608 s nunPos;
#X obj 396 -4 unpack;
#X obj 396 21 == \$1;
#X obj 452 22 == \$2;
#X obj 396 55 +;
#X obj 396 81 == 2;
#X obj 196 366 \$1;
#X obj 220 440 - 1;
#X obj 396 138 change;
#X obj 396 107 pipe 20;
#X obj 396 187 s \$0-nun;
#X obj 66 1 r \$0-action;
#X obj -115 76 symbol;
#X obj 66 36 symbol;
#X obj -115 107 sel rst rec play stop;
#X msg -113 158 rec;
#X msg -84 158 play;
#X obj 188 127 sel 0;
#X obj 160 161 t b f;
#X obj 172 222 int;
#X obj 107 201 b;
#X msg 397 327 \$2 \$3 nAction \$1;
#X obj 397 282 pack s \$1 \$2;
#X obj 397 357 s 2pLoopA;
#X obj 195 325 t b f;
#X msg 240 277 1;
#X obj 223 366 expr \$2 + $f1 - 1;
#X msg 195 282 -1;
#X obj 33 63 symbol;
#X obj 33 94 sel rst rec play stop;
#X msg 68 193 stop;
#X obj -277 17 spigot;
#X obj -174 435 expr \$1 + $f1 - 1;
#X obj -43 401 \$2;
#X obj -40 435 - 1;
#X obj 189 62 change;
#X obj -277 -19 r wii-nun-joy-LR;
#X obj -170 383 t f b;
#X obj -278 93 symbol;
#X obj -279 128 sel rst rec play stop;
#X obj -277 50 t b f;
#X obj -169 172 int;
#X msg -249 207 play;
#X obj -228 167 b;
#X obj -243 -41 r \$0-nun;
#X obj -115 -2 r \$0-nun;
#X obj -115 37 sel 1;
#X obj 247 73 r \$0-nun;
#X obj -114 274 s \$0-nunAction;
#X obj 397 241 r \$0-nunAction;
#X obj 32 261 s \$0-nunAction;
#X obj -249 237 s \$0-nunAction;
#X obj -229 16 r \$0-action;
#X obj -229 43 symbol;
#X obj -72 23 r \$0-action;
#X obj -72 50 symbol;
#X msg 44 157 play;
#X connect 1 0 36 0;
#X connect 1 1 34 0;
#X connect 2 0 3 0;
#X connect 3 0 5 0;
#X connect 4 0 5 1;
#X connect 6 0 4 0;
#X connect 7 0 26 0;
#X connect 8 0 10 0;
#X connect 10 0 11 0;
#X connect 10 1 12 0;
#X connect 11 0 13 0;
#X connect 12 0 13 1;
#X connect 13 0 14 0;
#X connect 14 0 18 0;
#X connect 15 0 16 0;
#X connect 16 0 2 0;
#X connect 18 0 17 0;
#X connect 20 0 22 0;
#X connect 21 0 23 0;
#X connect 22 0 37 1;
#X connect 23 0 24 0;
#X connect 23 1 25 0;
#X connect 23 3 25 0;
#X connect 24 0 57 0;
#X connect 25 0 57 0;
#X connect 26 1 27 0;
#X connect 27 0 37 0;
#X connect 27 1 28 1;
#X connect 28 0 1 0;
#X connect 29 0 28 0;
#X connect 30 0 32 0;
#X connect 31 0 30 0;
#X connect 33 0 15 0;
#X connect 33 1 35 0;
#X connect 34 0 33 0;
#X connect 35 0 6 0;
#X connect 36 0 33 0;
#X connect 37 0 38 0;
#X connect 38 1 65 0;
#X connect 38 2 29 0;
#X connect 38 3 29 0;
#X connect 38 3 39 0;
#X connect 39 0 59 0;
#X connect 40 0 49 0;
#X connect 41 0 2 0;
#X connect 42 0 43 0;
#X connect 43 0 6 0;
#X connect 44 0 7 0;
#X connect 46 0 41 0;
#X connect 46 1 42 0;
#X connect 47 0 48 0;
#X connect 48 0 52 0;
#X connect 48 1 51 0;
#X connect 48 2 52 0;
#X connect 48 3 52 0;
#X connect 49 0 47 0;
#X connect 49 1 50 1;
#X connect 50 0 46 0;
#X connect 51 0 60 0;
#X connect 52 0 50 0;
#X connect 53 0 40 1;
#X connect 55 0 21 0;
#X connect 56 0 7 1;
#X connect 58 0 31 0;
#X connect 61 0 62 0;
#X connect 62 0 47 1;
#X connect 63 0 64 0;
#X connect 64 0 21 1;
#X connect 65 0 59 0;
#X restore -266 -366 pd nun2;
#X obj 959 124 r chCtl-\$1;
#X obj -226 -80 == \$2;
#X obj -266 -55 == \$1;
#X obj -266 -27 +;
#X obj -222 49 change;
#X obj -146 87 sel 1;
#X obj -222 126 metro 1000;
#X msg -222 158 1;
#X obj -222 192 +;
#X obj -177 173 int;
#X msg -143 153 0;
#X obj -222 87 t f f b;
#X obj -222 223 sel 2;
#X obj 882 146 r \$0-rst;
#X obj -222 251 s \$0-rst;
#X obj 598 -47 r fromA;
#X obj 598 -18 route \$1;
#X obj 599 7 route \$2;
#X obj 599 37 route bars;
#X obj 679 92 v recBars;
#X obj 599 72 t f b;
#X obj 679 117 - 1;
#X obj 599 167 sel 1;
#X msg 599 220 play;
#X obj 807 176 spigot;
#X obj 959 156 route rst onlyOne;
#X obj 599 137 ==;
#X obj 599 191 delay 50;
#N canvas 2 106 617 688 nunLegacy 0;
#X obj 190 96 r wii-nun-b;
#X obj 192 252 sel 1 2;
#X obj 220 494 mod 8;
#X obj 220 531 + 1;
#X obj 276 523 + 1;
#X obj 220 570 pack;
#X obj 276 493 mod 5;
#X obj 190 126 spigot;
#X obj 274 -20 r nunPos;
#X obj 220 608 s nunPos;
#X obj 273 7 unpack;
#X obj 277 32 == \$1;
#X obj 333 33 == \$2;
#X obj 306 53 +;
#X obj 302 75 == 2;
#X obj 219 358 \$2;
#X obj 144 358 expr \$1 + 1;
#X obj 192 305 t b b;
#X obj 264 305 t b b;
#X obj 264 358 \$1;
#X obj 291 358 expr \$2 + 1;
#X obj 220 440 - 1;
#X obj 276 440 - 1;
#X obj 284 128 change;
#X obj 302 101 pipe 20;
#X obj 284 177 s \$0-nun;
#X obj 40 23 r \$0-action;
#X obj 28 93 symbol;
#X obj -12 68 bng 15 250 50 0 empty empty empty 17 7 0 10 #fcfcfc #000000 #000000;
#X obj 41 67 symbol;
#X obj 28 124 sel rst rec play stop;
#X msg 14 176 rec;
#X msg 50 173 play;
#X obj 140 157 sel 0;
#X obj 160 189 t b f;
#X obj 172 222 int;
#X obj 92 205 b;
#X msg 19 296 \$2 \$3 nAction \$1;
#X obj 19 251 pack s \$1 \$2;
#X obj 18 348 s 2pLoopA;
#X connect 0 0 7 0;
#X connect 1 0 17 0;
#X connect 1 1 18 0;
#X connect 2 0 3 0;
#X connect 3 0 5 0;
#X connect 4 0 5 1;
#X connect 6 0 4 0;
#X connect 7 0 33 0;
#X connect 10 0 11 0;
#X connect 10 1 12 0;
#X connect 11 0 13 0;
#X connect 12 0 13 1;
#X connect 13 0 14 0;
#X connect 14 0 24 0;
#X connect 15 0 22 0;
#X connect 16 0 21 0;
#X connect 17 0 16 0;
#X connect 17 1 15 0;
#X connect 18 0 19 0;
#X connect 18 1 20 0;
#X connect 19 0 21 0;
#X connect 20 0 22 0;
#X connect 21 0 2 0;
#X connect 22 0 6 0;
#X connect 23 0 7 1;
#X connect 24 0 23 0;
#X connect 27 0 30 0;
#X connect 28 0 27 0;
#X connect 29 0 27 1;
#X connect 30 0 31 0;
#X connect 30 1 32 0;
#X connect 30 2 36 0;
#X connect 30 3 32 0;
#X connect 31 0 38 0;
#X connect 32 0 38 0;
#X connect 33 1 34 0;
#X connect 34 0 27 0;
#X connect 34 1 35 1;
#X connect 35 0 1 0;
#X connect 36 0 35 0;
#X connect 38 0 37 0;
#X restore -266 -388 pd nunLegacy;
#X obj 132 17 vsl 60 90 0 1 0 0 empty color_Standard empty 0 -9 0 10 #d7d7db #646463 #646463 0 1;
#X obj 328 369 s 2pLoopA;
#X obj 328 310 pack f \$1 \$2;
#X msg 328 339 \$2 \$3 level \$1;
#X obj 246 -31 loadbang;
#X msg 246 -4 1;
#N canvas 2 142 1041 728 ch+4 0;
#X msg 375 195 color -1.58597e+07 -2.30687e+06 -2.43794e+06;
#X msg 422 157 color -1.41455e+07 -6.5793e+06 -6.5793e+06;
#X obj 96 33 inlet;
#X obj 99 190 outlet;
#X obj 100 100 bng 60 250 50 0 empty color_Standard empty 17 7 0 10 #d7d7db #646463 #646463;
#X obj 382 39 r \$0-nunSel;
#X obj 378 108 sel 1 0;
#X obj 97 270 s rEditSel;
#X obj 97 226 pack \$1 \$2;
#X obj 612 83 r color_Standard;
#X msg 612 149 set color \$1 \$2 \$3;
#X obj 749 98 r colors;
#X obj 750 139 route rEditSel;
#X msg 750 176 set color \$1 \$2 \$3;
#X msg 752 237 color \$1 \$2 \$3;
#X connect 0 0 4 0;
#X connect 1 0 4 0;
#X connect 2 0 4 0;
#X connect 4 0 3 0;
#X connect 4 0 8 0;
#X connect 6 0 0 0;
#X connect 6 1 1 0;
#X connect 8 0 7 0;
#X connect 9 0 10 0;
#X connect 9 0 4 0;
#X connect 10 0 1 0;
#X connect 12 0 13 0;
#X connect 12 0 14 0;
#X connect 13 0 0 0;
#X connect 14 0 4 0;
#X coords 0 -1 1 1 60 60 2 100 100;
#X restore 28 107 pd ch+4;
#N canvas 2 66 1054 705 nunOneRow 0;
#X obj 110 -243 r rst;
#X obj 110 -209 s \$0-rst;
#X obj 365 -756 r nunPos;
#X obj 366 -719 unpack;
#X obj 366 -632 v nunBtnsX;
#X obj 366 -561 *;
#X obj 366 -508 -;
#X obj 366 -601 t f f;
#X obj 366 -537 t f f;
#X obj 437 -681 == \$2;
#X obj 366 -440 +;
#X obj 439 -584 t b f;
#X obj 366 -410 == 2;
#X obj 366 -381 s \$0-nunSel;
#X obj 366 -473 expr \$1 > $f1 && \$1 <= $f2;
#X obj 366 -677 t b f;
#X obj 315 -286 r wii-nun-anaB;
#X obj 317 -243 unpack, f 7;
#X obj 286 -177 == \$1;
#X obj 310 -134 +;
#X obj 307 -100 == 2;
#X floatatom 261 -38 5 0 0 0 - - - 0;
#X floatatom 378 -235 5 0 0 0 - - - 0;
#X obj 348 -206 == 3;
#X obj 371 -165 r \$0-nunSel;
#X obj 331 -74 +;
#X obj 357 -126 t b f;
#X obj 332 -48 == 2;
#X floatatom 319 -21 5 0 0 0 - - - 0;
#X obj 107 -184 t f b b;
#X obj 125 -157 v nunBtnsX;
#X obj 204 -243 r nunPos;
#X obj 205 -206 unpack;
#X floatatom 30 -126 5 0 0 0 - - - 0;
#X floatatom 267 -260 5 0 0 0 - - - 0;
#X floatatom 201 -170 5 0 0 0 - - - 0;
#X floatatom 136 -51 5 0 0 0 - - - 0;
#X obj 88 -120 expr \$1 == $f1 + ($f2 * $f3 - $f2);
#X obj 78 -31 outlet;
#X obj 79 -82 sel 1;
#X connect 0 0 1 0;
#X connect 2 0 3 0;
#X connect 3 0 15 0;
#X connect 3 1 9 0;
#X connect 4 0 7 0;
#X connect 5 0 8 0;
#X connect 6 0 14 0;
#X connect 7 0 5 0;
#X connect 7 1 6 1;
#X connect 8 0 6 0;
#X connect 8 1 14 1;
#X connect 9 0 11 0;
#X connect 10 0 12 0;
#X connect 11 0 10 0;
#X connect 11 1 10 1;
#X connect 12 0 13 0;
#X connect 14 0 10 0;
#X connect 15 0 4 0;
#X connect 15 1 5 1;
#X connect 16 0 17 0;
#X connect 17 0 18 0;
#X connect 17 0 29 0;
#X connect 17 0 34 0;
#X connect 17 1 22 0;
#X connect 17 1 23 0;
#X connect 19 0 20 0;
#X connect 20 0 21 0;
#X connect 20 0 25 0;
#X connect 23 0 19 1;
#X connect 24 0 26 0;
#X connect 25 0 27 0;
#X connect 26 0 25 0;
#X connect 26 1 25 1;
#X connect 27 0 28 0;
#X connect 29 0 37 0;
#X connect 29 1 30 0;
#X connect 30 0 36 0;
#X connect 30 0 37 1;
#X connect 31 0 32 0;
#X connect 32 0 35 0;
#X connect 32 0 37 2;
#X connect 37 0 33 0;
#X connect 37 0 19 0;
#X connect 37 0 39 0;
#X restore -98 87 pd nunOneRow;
#N canvas 641 229 1192 806 range 0;
#X obj 105 103 hsl 106 15 0 1 0 0 empty color_Standard empty -2 -8 0 10 #d7d7db #646463 #646463 0 1;
#X obj 105 121 hsl 106 15 0 1 0 0 empty color_Standard empty -2 -8 0 10 #d7d7db #646463 #646463 0 1;
#X obj 350 225 r fromA;
#X obj 347 265 route \$1;
#X obj 348 290 route \$2;
#X obj 348 319 route bars ticks;
#X obj 26 241 v ticks/beat;
#X obj 394 350 t f b;
#X obj 394 392 /;
#X obj 328 449 s \$0-res;
#X obj 442 347 s \$0-ticks;
#X floatatom 141 139 3 0 0 0 - - - 0;
#X floatatom 104 139 3 0 0 0 - - - 0;
#X msg -55 -240 0;
#X obj -55 -358 r \$0-ticks;
#X obj -55 -332 b;
#X obj -55 -300 delay 100;
#X obj -55 -271 t b b b;
#X floatatom 180 139 3 0 0 2 - \$0-bars - 0;
#X obj 302 16 sel 1 0;
#X obj 298 -203 r rEditSel;
#X obj 301 -149 route \$1;
#X obj 304 -106 route \$2;
#X msg 297 -74 1;
#X msg 337 -74 0;
#X obj 299 -19 s \$0-rEdit;
#X obj 404 -53 r color_Standard;
#X msg 404 16 set color \$1 \$2 \$3;
#X obj 532 -123 r colors;
#X obj 533 -82 route rEditSel;
#X msg 533 -45 set color \$1 \$2 \$3;
#X msg 535 16 color \$1 \$2 \$3;
#X msg 303 101 color -1.58597e+07 -2.30687e+06 -2.43794e+06;
#X msg 324 66 color -1.41455e+07 -6.5793e+06 -6.5793e+06;
#X obj 440 -641 r ctlInput;
#X obj 440 -580 route ribbon buttons;
#X obj 496 -463 route 18 17;
#X obj 440 -430 spigot;
#X obj 493 -430 spigot;
#X obj 440 -610 spigot;
#X obj 505 -613 r \$0-rEdit;
#X obj 621 -418 sel 0;
#X obj 574 -418 sel 0;
#X obj 440 -493 *;
#X obj 440 -467 int;
#X obj 454 -519 - 1;
#X obj 440 -401 change;
#X obj 493 -401 change;
#X obj 440 -335 s \$0-offset;
#X obj 745 -480 clip 0 1;
#X obj 744 -664 r \$0-offset;
#X obj 743 -624 r \$0-res;
#X obj 744 -574 -;
#X obj 744 -597 t b f;
#X obj 494 -356 s \$0-durRaw;
#X obj 660 -530 r \$0-durRaw;
#X obj 745 -513 int;
#X obj 744 -546 t b f;
#X obj 745 -415 s \$0-dur;
#X obj 178 -666 r \$0-offset;
#X obj 536 431 s \$0-mul;
#X obj 434 375 r \$0-mul;
#X msg 535 399 12;
#X obj 197 -626 r \$0-mul;
#X obj 177 -565 *;
#X obj 197 -602 t b f;
#X obj 178 -537 int;
#X obj 178 -446 s 2pLoopA;
#X obj 178 -508 pack f \$1 \$2;
#X msg 178 -475 \$2 \$3 offset \$1;
#X obj 40 -628 r \$0-mul;
#X obj 20 -567 *;
#X obj 40 -604 t b f;
#X obj 6 -538 int;
#X obj 21 -668 r \$0-dur;
#X obj 6 -449 s 2pLoopA;
#X obj 6 -507 pack f \$1 \$2;
#X msg 6 -479 \$2 \$3 dur \$1;
#X obj 495 -379 + 1;
#X obj 745 -447 + 0;
#X obj -1 186 r \$0-offset;
#X obj 27 304 /;
#X obj -1 300 /;
#X obj 26 275 t b f;
#X obj -1 216 t f b;
#X obj 68 274 r \$0-mul;
#X obj 163 241 v ticks/beat;
#X obj 164 304 /;
#X obj 136 332 /;
#X obj 163 275 t b f;
#X obj 136 216 t f b;
#X obj 205 274 r \$0-mul;
#X obj 136 186 r \$0-dur;
#X obj -15 -63 r \$0-dur;
#X obj 0 -41 r \$0-res;
#X obj -14 16 /;
#X obj 0 -18 t b f;
#X msg 334 387 8;
#X obj 92 -40 r \$0-res;
#X obj 62 16 /;
#X obj 92 -15 t b f;
#X obj 61 -63 r \$0-offset;
#X obj -15 87 +;
#X obj 62 45 t b f f;
#X obj -55 -183 s \$0-offset;
#X obj -16 -209 s \$0-durRaw;
#X obj 36 -258 r \$0-res;
#X obj -16 -240 int;
#X obj 599 -357 s \$0-sndRange;
#X obj 62 -557 r \$0-sndRange;
#X obj 219 -555 r \$0-sndRange;
#X obj -159 -254 s \$0-sndRange;
#X obj 535 374 loadbang;
#X floatatom 416 422 5 0 0 0 - - - 0;
#X obj 454 -544 r \$0-res;
#X obj 732 -300 r adjRange;
#X obj 732 -266 spigot;
#X obj 888 -282 r \$0-rEdit;
#X obj 732 -108 *;
#X obj 732 -82 int;
#X obj 746 -134 - 1;
#X obj 732 -16 change;
#X obj 785 -16 change;
#X obj 732 50 s \$0-offset;
#X obj 786 29 s \$0-durRaw;
#X obj 787 6 + 1;
#X obj 828 -220 s \$0-sndRange;
#X obj 746 -159 r \$0-res;
#X obj 808 -108 *;
#X obj 808 -82 int;
#X obj 822 -134 - 1;
#X obj 822 -159 r \$0-res;
#X obj 732 -236 unpack;
#X obj 828 -321 r sndRange;
#X obj 828 -257 spigot;
#X connect 2 0 3 0;
#X connect 3 0 4 0;
#X connect 4 0 5 0;
#X connect 5 1 7 0;
#X connect 5 1 10 0;
#X connect 6 0 81 0;
#X connect 7 0 8 0;
#X connect 8 0 9 0;
#X connect 8 0 113 0;
#X connect 13 0 104 0;
#X connect 14 0 15 0;
#X connect 15 0 16 0;
#X connect 16 0 17 0;
#X connect 17 0 111 0;
#X connect 17 1 13 0;
#X connect 17 2 107 0;
#X connect 19 0 32 0;
#X connect 19 1 33 0;
#X connect 20 0 21 0;
#X connect 21 0 22 0;
#X connect 21 1 24 0;
#X connect 22 0 23 0;
#X connect 22 1 24 0;
#X connect 23 0 19 0;
#X connect 23 0 25 0;
#X connect 24 0 19 0;
#X connect 24 0 25 0;
#X connect 26 0 27 0;
#X connect 27 0 33 0;
#X connect 28 0 29 0;
#X connect 29 0 30 0;
#X connect 29 0 31 0;
#X connect 30 0 32 0;
#X connect 31 0 0 0;
#X connect 31 0 1 0;
#X connect 32 0 0 0;
#X connect 32 0 1 0;
#X connect 33 0 0 0;
#X connect 33 0 1 0;
#X connect 35 0 43 0;
#X connect 35 1 36 0;
#X connect 36 0 37 1;
#X connect 36 0 42 0;
#X connect 36 1 38 1;
#X connect 36 1 41 0;
#X connect 37 0 46 0;
#X connect 38 0 47 0;
#X connect 39 0 35 0;
#X connect 40 0 39 1;
#X connect 41 0 108 0;
#X connect 42 0 108 0;
#X connect 43 0 44 0;
#X connect 44 0 37 0;
#X connect 44 0 38 0;
#X connect 45 0 43 1;
#X connect 46 0 48 0;
#X connect 47 0 78 0;
#X connect 49 0 79 0;
#X connect 50 0 53 0;
#X connect 51 0 52 0;
#X connect 52 0 57 0;
#X connect 53 0 52 0;
#X connect 53 1 52 1;
#X connect 55 0 56 0;
#X connect 56 0 49 0;
#X connect 57 0 56 0;
#X connect 57 1 49 2;
#X connect 59 0 64 0;
#X connect 61 0 8 1;
#X connect 62 0 60 0;
#X connect 63 0 65 0;
#X connect 64 0 66 1;
#X connect 65 0 64 0;
#X connect 65 1 64 1;
#X connect 66 0 68 0;
#X connect 68 0 69 0;
#X connect 69 0 67 0;
#X connect 70 0 72 0;
#X connect 71 0 73 1;
#X connect 72 0 71 0;
#X connect 72 1 71 1;
#X connect 73 0 76 0;
#X connect 74 0 71 0;
#X connect 76 0 77 0;
#X connect 77 0 75 0;
#X connect 78 0 54 0;
#X connect 79 0 58 0;
#X connect 80 0 84 0;
#X connect 81 0 82 1;
#X connect 82 0 12 0;
#X connect 83 0 81 0;
#X connect 83 1 81 1;
#X connect 84 0 82 0;
#X connect 84 1 6 0;
#X connect 85 0 83 0;
#X connect 86 0 87 0;
#X connect 87 0 88 1;
#X connect 88 0 11 0;
#X connect 89 0 87 0;
#X connect 89 1 87 1;
#X connect 90 0 88 0;
#X connect 90 1 86 0;
#X connect 91 0 89 0;
#X connect 92 0 90 0;
#X connect 93 0 95 0;
#X connect 94 0 96 0;
#X connect 95 0 102 0;
#X connect 96 0 95 0;
#X connect 96 1 95 1;
#X connect 97 0 9 0;
#X connect 98 0 100 0;
#X connect 99 0 103 0;
#X connect 100 0 99 0;
#X connect 100 1 99 1;
#X connect 101 0 99 0;
#X connect 102 0 1 0;
#X connect 103 0 102 0;
#X connect 103 1 102 1;
#X connect 103 2 0 0;
#X connect 106 0 107 1;
#X connect 107 0 105 0;
#X connect 109 0 73 0;
#X connect 110 0 66 0;
#X connect 112 0 62 0;
#X connect 114 0 45 0;
#X connect 115 0 116 0;
#X connect 116 0 132 0;
#X connect 117 0 116 1;
#X connect 117 0 134 1;
#X connect 118 0 119 0;
#X connect 119 0 121 0;
#X connect 120 0 118 1;
#X connect 121 0 123 0;
#X connect 122 0 125 0;
#X connect 125 0 124 0;
#X connect 127 0 120 0;
#X connect 128 0 129 0;
#X connect 129 0 122 0;
#X connect 130 0 128 1;
#X connect 131 0 130 0;
#X connect 132 0 118 0;
#X connect 132 1 128 0;
#X connect 133 0 134 0;
#X connect 134 0 126 0;
#X coords 0 -1 1 1 115 65 2 100 100;
#X restore 7 37 pd range;
#X obj 513 57 s \$0-bars;
#X obj 402 110 change;
#X obj 402 174 s rEditSel;
#X obj 402 131 t b;
#X obj 402 152 pack \$1 \$2;
#X obj 825 -236 t b b a;
#X obj 871 -207 symbol;
#X obj -266 -137 r loopBtn;
#X obj -266 -109 unpack f f f;
#X obj -266 -2 sel 2;
#X obj -219 15 int;
#N canvas 2 111 1041 701 2keyfoot 0;
#X obj 180 533 s 2keyfoot;
#X obj 185 -49 r \$0-action;
#X obj 180 228 pack \$1 \$2 f;
#X msg 230 60 1;
#X msg 184 56 0;
#X obj 180 267 unpack f f f;
#X obj 220 347 * -1;
#X obj 220 374 + 3;
#X obj 180 396 +;
#X obj 180 469 pack;
#X msg 180 501 led \$1 \$2;
#X obj 180 358 - 1;
#X obj 953 -49 r fromA;
#X obj 953 -18 route \$1;
#X obj 953 8 route \$2;
#X obj 953 33 route lPos nAction action;
#X obj 953 86 sel 0;
#X msg 717 144 0;
#X obj 229 187 t b f;
#X msg 551 -12 1;
#X msg 611 -12 0;
#X obj 551 -55 route rec;
#X obj 484 -46 r clock;
#X obj 483 40 mod 24;
#X obj 483 76 sel 0 12;
#X obj 484 5 spigot;
#X msg 781 -19 1;
#X msg 841 -19 0;
#X obj 714 -53 r clock;
#X obj 714 -2 spigot;
#X obj 784 -63 route stop;
#X msg 659 141 1;
#X obj 713 69 sel 0 1;
#X obj 713 33 mod 96;
#X msg 951 271 1;
#X msg 1011 271 0;
#X obj 884 237 r clock;
#X obj 884 288 spigot;
#X obj 885 330 -;
#X obj 938 331 int;
#X obj 953 295 t b b;
#X obj 885 406 sel 1;
#X obj 885 371 > 12;
#X obj 953 218 spigot;
#X obj 992 156 route play;
#X obj 992 128 r \$0-action;
#X msg 992 186 1;
#X msg 1059 187 0;
#X obj 776 368 change;
#X msg 528 130 0;
#X msg 470 127 1;
#X obj 184 5 route rst play;
#X obj 180 434 +;
#X obj 180 308 t f f;
#X obj 220 403 * 4;
#X obj 270 325 > 4;
#X obj 270 362 sel 0 1;
#X msg 271 414 0;
#X msg 303 393 5;
#X msg 270 393 1;
#X msg 303 414 12;
#X obj 67 247 int;
#X obj 43 40 r \$0-action;
#X msg 89 134 1;
#X msg 42 131 0;
#X obj 42 94 route rst stop rec play;
#X obj 67 176 r ledChng;
#X obj 67 217 delay 50;
#X obj 184 29 delay 50;
#X connect 1 0 21 0;
#X connect 1 0 30 0;
#X connect 1 0 51 0;
#X connect 2 0 5 0;
#X connect 3 0 18 0;
#X connect 4 0 18 0;
#X connect 5 0 53 0;
#X connect 5 1 6 0;
#X connect 5 2 9 1;
#X connect 6 0 7 0;
#X connect 7 0 54 0;
#X connect 8 0 52 0;
#X connect 9 0 10 0;
#X connect 10 0 0 0;
#X connect 11 0 8 0;
#X connect 12 0 13 0;
#X connect 13 0 14 0;
#X connect 14 0 15 0;
#X connect 15 0 16 0;
#X connect 16 0 43 0;
#X connect 17 0 18 0;
#X connect 18 0 2 0;
#X connect 18 1 2 2;
#X connect 19 0 25 1;
#X connect 20 0 25 1;
#X connect 21 0 19 0;
#X connect 21 1 20 0;
#X connect 22 0 25 0;
#X connect 23 0 24 0;
#X connect 24 0 50 0;
#X connect 24 1 49 0;
#X connect 25 0 23 0;
#X connect 26 0 29 1;
#X connect 26 0 17 0;
#X connect 27 0 29 1;
#X connect 28 0 29 0;
#X connect 29 0 33 0;
#X connect 30 0 26 0;
#X connect 30 1 27 0;
#X connect 31 0 18 0;
#X connect 32 0 31 0;
#X connect 32 1 17 0;
#X connect 33 0 32 0;
#X connect 34 0 37 1;
#X connect 35 0 37 1;
#X connect 36 0 37 0;
#X connect 36 0 39 1;
#X connect 37 0 38 0;
#X connect 38 0 42 0;
#X connect 39 0 38 1;
#X connect 40 0 34 0;
#X connect 40 1 39 0;
#X connect 41 0 35 0;
#X connect 42 0 41 0;
#X connect 42 0 48 0;
#X connect 43 0 40 0;
#X connect 44 0 46 0;
#X connect 44 1 47 0;
#X connect 45 0 44 0;
#X connect 46 0 43 1;
#X connect 47 0 43 1;
#X connect 47 0 37 1;
#X connect 48 0 18 0;
#X connect 49 0 18 0;
#X connect 50 0 18 0;
#X connect 51 0 68 0;
#X connect 51 1 3 0;
#X connect 52 0 9 0;
#X connect 53 0 11 0;
#X connect 53 1 55 0;
#X connect 54 0 8 1;
#X connect 55 0 56 0;
#X connect 56 0 59 0;
#X connect 56 0 57 0;
#X connect 56 1 58 0;
#X connect 56 1 60 0;
#X connect 57 0 52 1;
#X connect 58 0 11 1;
#X connect 59 0 11 1;
#X connect 60 0 52 1;
#X connect 61 0 18 0;
#X connect 62 0 65 0;
#X connect 63 0 61 1;
#X connect 64 0 61 1;
#X connect 65 0 64 0;
#X connect 65 1 64 0;
#X connect 65 2 63 0;
#X connect 65 3 63 0;
#X connect 66 0 67 0;
#X connect 67 0 61 0;
#X connect 68 0 4 0;
#X restore -86 -386 pd 2keyfoot;
#X obj 132 131 tgl 60 0 \$0-muteS \$0-muteR M 5 10 0 20 #c8c8c7 #c8c8c7 #090b0c 0 1;
#X obj 132 220 r preset;
#X obj 132 248 t f f;
#X obj -265 -335 table loop_mute-\$1-\$2;
#X obj 132 276 tabwrite loop_mute-\$1-\$2;
#X obj 132 303 tabread loop_mute-\$1-\$2;
#X obj 328 251 f;
#X obj 328 277 spigot;
#X obj 328 191 t f f;
#X msg 355 251 0;
#X obj 328 221 sel 1 0;
#X obj 60 -386 loadbang;
#X obj 60 -355 pack \$1 \$2;
#X obj 9 -351 bng 15 250 50 0 empty empty empty 17 7 0 10 #fcfcfc #000000 #000000;
#X msg 60 -324 \; loop_mute-\$1-\$2 const 1;
#X obj 9 -375 r rst;
#X obj 320 -24 r rst;
#X connect 2 0 5 0;
#X connect 5 0 6 0;
#X connect 6 0 14 0;
#X connect 9 0 10 0;
#X connect 10 0 8 0;
#X connect 11 0 19 0;
#X connect 12 0 11 0;
#X connect 13 0 12 0;
#X connect 14 0 1 0;
#X connect 14 1 3 0;
#X connect 14 2 18 0;
#X connect 16 0 15 0;
#X connect 17 0 16 0;
#X connect 20 0 13 0;
#X connect 21 0 93 0;
#X connect 23 0 28 0;
#X connect 24 0 30 0;
#X connect 25 0 30 0;
#X connect 26 0 30 0;
#X connect 27 0 30 0;
#X connect 28 0 43 0;
#X connect 28 0 12 0;
#X connect 29 0 24 0;
#X connect 29 1 25 0;
#X connect 29 2 26 0;
#X connect 29 3 27 0;
#X connect 30 0 28 1;
#X connect 31 0 20 0;
#X connect 32 0 38 0;
#X connect 33 0 26 0;
#X connect 34 0 26 0;
#X connect 35 0 34 0;
#X connect 35 1 33 0;
#X connect 36 0 18 0;
#X connect 37 0 36 0;
#X connect 38 0 46 0;
#X connect 38 1 35 0;
#X connect 39 0 41 0;
#X connect 41 0 42 0;
#X connect 42 0 40 0;
#X connect 44 0 74 0;
#X connect 45 0 12 0;
#X connect 46 0 29 0;
#X connect 47 0 46 0;
#X connect 48 0 47 0;
#X connect 50 0 75 0;
#X connect 51 0 53 1;
#X connect 52 0 53 0;
#X connect 53 0 97 0;
#X connect 54 0 61 0;
#X connect 55 0 85 0;
#X connect 56 0 57 0;
#X connect 57 0 58 0;
#X connect 58 0 59 0;
#X connect 58 0 62 0;
#X connect 59 0 58 1;
#X connect 60 0 59 0;
#X connect 61 0 56 0;
#X connect 61 1 55 0;
#X connect 61 2 60 0;
#X connect 62 0 64 0;
#X connect 63 0 31 0;
#X connect 65 0 66 0;
#X connect 66 0 67 0;
#X connect 67 0 68 0;
#X connect 68 0 70 0;
#X connect 68 0 88 0;
#X connect 69 0 71 0;
#X connect 70 0 76 0;
#X connect 70 1 69 0;
#X connect 71 0 76 1;
#X connect 72 0 77 0;
#X connect 73 0 13 0;
#X connect 74 0 13 0;
#X connect 75 0 20 0;
#X connect 75 1 74 1;
#X connect 76 0 72 0;
#X connect 77 0 73 0;
#X connect 79 0 89 0;
#X connect 79 0 106 0;
#X connect 81 0 82 0;
#X connect 82 0 80 0;
#X connect 83 0 84 0;
#X connect 84 0 79 0;
#X connect 84 0 100 0;
#X connect 85 0 22 0;
#X connect 86 0 85 0;
#X connect 89 0 91 0;
#X connect 91 0 92 0;
#X connect 92 0 90 0;
#X connect 93 0 46 0;
#X connect 93 1 48 0;
#X connect 93 2 94 0;
#X connect 94 0 48 1;
#X connect 95 0 96 0;
#X connect 96 0 52 0;
#X connect 96 1 51 0;
#X connect 96 2 98 1;
#X connect 97 0 98 0;
#X connect 98 0 54 0;
#X connect 100 0 104 0;
#X connect 100 0 108 0;
#X connect 101 0 102 0;
#X connect 102 0 105 0;
#X connect 102 1 104 1;
#X connect 105 0 100 0;
#X connect 106 0 107 0;
#X connect 107 0 81 0;
#X connect 108 0 110 0;
#X connect 108 1 107 1;
#X connect 109 0 81 0;
#X connect 110 0 106 0;
#X connect 110 1 109 0;
#X connect 111 0 112 0;
#X connect 112 0 114 0;
#X connect 113 0 112 0;
#X connect 115 0 112 0;
#X connect 116 0 84 0;
#X coords 0 -1 1 1 200 200 1 0 0;
