#N canvas 0 98 1920 982 10;
#X obj 105 1314 s 2pLoopA;
#X obj 103 103 tgl 60 0 empty empty del 17 7 0 10 -262144 -1 -1 0 1
;
#X obj 103 168 vsl 60 120 0 1 0 0 empty empty time 5 10 0 10 -262144
-1 -1 2550 1;
#X obj 103 296 vsl 60 120 0 1 0 0 empty empty fdbck 5 10 0 10 -262144
-1 -1 6780 1;
#X obj 103 424 vsl 60 60 0 1 0 0 empty empty mix 5 10 0 10 -262144
-1 -1 2870 1;
#X obj 103 491 tgl 60 0 empty empty filter 7 7 0 10 -262144 -1 -1 1
1;
#X obj 103 557 vsl 60 120 0 1 0 0 empty empty cOff 5 10 0 10 -262144
-1 -1 9125 1;
#X obj 104 686 vsl 60 60 0 1 0 0 empty empty res 5 10 0 10 -262144
-1 -1 1770 1;
#X obj 104 754 vsl 60 120 0 1 0 0 empty empty volL 5 10 0 10 -262144
-1 -1 11900 1;
#X obj 105 1243 list prepend master1;
#X obj 105 1285 list trim;
#X msg 105 1167 filQ \$1;
#X msg 105 1136 filC \$1;
#X msg 104 1102 fil \$1;
#X msg 104 1066 delM \$1;
#X msg 104 1034 delF \$1;
#X msg 104 997 delT \$1;
#X msg 104 963 del \$1;
#X msg 105 1197 vol \$1;
#X obj 169 1347 s 2pLoopA;
#X obj 167 103 tgl 60 0 empty empty del 17 7 0 10 -262144 -1 -1 0 1
;
#X obj 167 168 vsl 60 120 0 1 0 0 empty empty time 5 10 0 10 -262144
-1 -1 5950 1;
#X obj 167 296 vsl 60 120 0 1 0 0 empty empty fdbck 5 10 0 10 -262144
-1 -1 2380 1;
#X obj 167 424 vsl 60 60 0 1 0 0 empty empty mix 5 10 0 10 -262144
-1 -1 1770 1;
#X obj 167 491 tgl 60 0 empty empty filter 7 7 0 10 -262144 -1 -1 0
1;
#X obj 167 557 vsl 60 120 0 1 0 0 empty empty cOff 5 10 0 10 -262144
-1 -1 8925 1;
#X obj 168 686 vsl 60 60 0 1 0 0 empty empty res 5 10 0 10 -262144
-1 -1 1770 1;
#X obj 168 754 vsl 60 120 0 1 0 0 empty empty volL 5 10 0 10 -262144
-1 -1 11900 1;
#X obj 169 1318 list trim;
#X msg 169 1167 filQ \$1;
#X msg 169 1136 filC \$1;
#X msg 168 1102 fil \$1;
#X msg 168 1066 delM \$1;
#X msg 168 1034 delF \$1;
#X msg 168 997 delT \$1;
#X msg 168 963 del \$1;
#X msg 169 1197 vol \$1;
#X obj 169 1276 list prepend master2;
#X obj 43 13 loadbang;
#X msg 41 124 0;
#X msg 37 205 0.5;
#X msg 42 349 0.2;
#X msg 47 452 0.3;
#X msg 50 513 0;
#X msg 56 611 0.75;
#X msg 51 700 0.3;
#X msg 50 770 1;
#X obj 41 50 delay 3000;
#X obj 127 30 bng 15 250 50 0 empty empty empty 17 7 0 10 -262144 -1
-1;
#X connect 1 0 17 0;
#X connect 2 0 16 0;
#X connect 3 0 15 0;
#X connect 4 0 14 0;
#X connect 5 0 13 0;
#X connect 6 0 12 0;
#X connect 7 0 11 0;
#X connect 8 0 18 0;
#X connect 9 0 10 0;
#X connect 10 0 0 0;
#X connect 11 0 9 0;
#X connect 12 0 9 0;
#X connect 13 0 9 0;
#X connect 14 0 9 0;
#X connect 15 0 9 0;
#X connect 16 0 9 0;
#X connect 17 0 9 0;
#X connect 18 0 9 0;
#X connect 20 0 35 0;
#X connect 21 0 34 0;
#X connect 22 0 33 0;
#X connect 23 0 32 0;
#X connect 24 0 31 0;
#X connect 25 0 30 0;
#X connect 26 0 29 0;
#X connect 27 0 36 0;
#X connect 28 0 19 0;
#X connect 29 0 37 0;
#X connect 30 0 37 0;
#X connect 31 0 37 0;
#X connect 32 0 37 0;
#X connect 33 0 37 0;
#X connect 34 0 37 0;
#X connect 35 0 37 0;
#X connect 36 0 37 0;
#X connect 37 0 28 0;
#X connect 38 0 47 0;
#X connect 39 0 1 0;
#X connect 39 0 20 0;
#X connect 40 0 2 0;
#X connect 40 0 21 0;
#X connect 41 0 3 0;
#X connect 41 0 22 0;
#X connect 42 0 4 0;
#X connect 42 0 23 0;
#X connect 43 0 5 0;
#X connect 43 0 24 0;
#X connect 44 0 6 0;
#X connect 44 0 25 0;
#X connect 45 0 7 0;
#X connect 45 0 26 0;
#X connect 46 0 8 0;
#X connect 46 0 27 0;
#X connect 47 0 39 0;
#X connect 47 0 40 0;
#X connect 47 0 41 0;
#X connect 47 0 42 0;
#X connect 47 0 43 0;
#X connect 47 0 44 0;
#X connect 47 0 45 0;
#X connect 47 0 46 0;
#X connect 48 0 47 0;
#X coords 0 -1 1 1 130 780 1 100 100;
