#N canvas 2 113 1041 705 10;
#X obj 416 173 expr $f1 > $f2 - $f3 && $f1 < $f2 + $f3;
#X msg 892 229 2;
#X obj 353 174 sel 1;
#X obj 416 202 expr $f1 > $f2 - $f3 && $f1 < $f2 + $f3;
#X obj 353 203 sel 1;
#X obj 416 232 expr $f1 > $f2 - $f3 && $f1 < $f2 + $f3;
#X obj 353 233 sel 1;
#X obj 416 261 expr $f1 > $f2 - $f3 && $f1 < $f2 + $f3;
#X obj 353 262 sel 1;
#X obj 416 296 expr $f1 > $f2 - $f3 && $f1 < $f2 + $f3;
#X obj 353 297 sel 1;
#X obj 416 325 expr $f1 > $f2 - $f3 && $f1 < $f2 + $f3;
#X obj 353 326 sel 1;
#X obj 416 355 expr $f1 > $f2 - $f3 && $f1 < $f2 + $f3;
#X obj 353 356 sel 1;
#X obj 416 384 expr $f1 > $f2 - $f3 && $f1 < $f2 + $f3;
#X obj 353 385 sel 1;
#X obj 418 417 expr $f1 > $f2 - $f3 && $f1 < $f2 + $f3;
#X obj 355 418 sel 1;
#X obj 418 446 expr $f1 > $f2 - $f3 && $f1 < $f2 + $f3;
#X obj 355 447 sel 1;
#X obj 418 476 expr $f1 > $f2 - $f3 && $f1 < $f2 + $f3;
#X obj 355 477 sel 1;
#X obj 418 505 expr $f1 > $f2 - $f3 && $f1 < $f2 + $f3;
#X obj 355 506 sel 1;
#X obj 415 119 t f;
#X msg 480 66 61;
#X msg 516 66 81;
#X msg 553 67 183;
#X msg 595 65 206;
#X msg 637 64 41;
#X msg 673 64 100;
#X msg 710 65 161;
#X msg 752 63 230;
#X msg 797 62 21;
#X msg 833 62 120;
#X msg 870 63 140;
#X msg 912 61 255;
#X obj 606 15 t b;
#X obj 583 0 bng 15 250 50 0 empty empty empty 17 7 0 10 -262144 -1
-1;
#X obj 240 -30 inlet;
#X obj 320 52 int;
#X obj 319 118 int;
#X obj 269 110 ==;
#X floatatom 255 160 5 0 0 0 - - -, f 5;
#X obj 242 9 sel 0;
#X obj 199 155 sel 0;
#X obj 193 198 bng 15 250 50 0 empty empty empty 17 7 0 10 -262144
-1 -1;
#X floatatom 321 151 5 0 0 0 - - -, f 5;
#X obj 320 79 t f b f;
#X obj 246 190 spigot;
#X obj 275 35 t f f;
#X obj 694 15 loadbang;
#X obj 136 -15 r wii-nun-joy;
#X obj 131 17 unpack;
#X floatatom 112 49 5 0 0 0 - - -, f 5;
#X floatatom 163 54 5 0 0 0 - - -, f 5;
#X obj 628 733 s wii-nun-anaB;
#X msg 309 325 2 2;
#X msg 310 173 1 3;
#X msg 310 202 2 3;
#X msg 310 232 3 3;
#X msg 310 261 4 3;
#X msg 309 296 1 2;
#X msg 309 355 3 2;
#X msg 313 386 4 2;
#X msg 313 417 1 1;
#X msg 312 447 2 1;
#X msg 312 476 3 1;
#X msg 312 506 4 1;
#X obj 108 100 change;
#X obj 222 495 t a;
#X msg 224 84 0;
#X obj 158 101 sel 0;
#X obj 401 76 change;
#X obj 793 612 r wii-nunCh+4;
#X obj 793 648 sel 0 1;
#X obj 630 616 unpack;
#X obj 638 702 pack;
#X msg 792 678 0;
#X obj 636 673 + 0;
#X msg 828 676 4;
#X obj 610 648 sel 0;
#X msg 602 675 0 0;
#X obj 407 609 unpack;
#X obj 387 641 sel 0;
#X obj 419 783 t f;
#X floatatom 477 613 5 0 0 0 - - -, f 5;
#X obj 448 682 * 4;
#X obj 419 698 +;
#X obj 447 657 * -1;
#X floatatom 488 682 5 0 0 0 - - -, f 5;
#X obj 447 636 - 3;
#X obj 446 558 r LorN;
#X obj 407 583 spigot;
#X obj 669 546 r LorN;
#X obj 630 588 spigot;
#X obj 669 567 == 0;
#X obj 419 831 s toAll;
#X msg 419 808 note \$1 100;
#X obj 419 724 + 47;
#X obj 231 644 r octave;
#X msg 254 712 12;
#X msg 231 733 0;
#X obj 231 672 sel 0 1;
#X obj 419 750 + 0;
#X obj 499 715 - 1;
#X obj 499 771 s swPreset;
#X connect 0 0 2 0;
#X connect 1 0 0 2;
#X connect 1 0 3 2;
#X connect 1 0 5 2;
#X connect 1 0 7 2;
#X connect 1 0 9 2;
#X connect 1 0 11 2;
#X connect 1 0 13 2;
#X connect 1 0 15 2;
#X connect 1 0 17 2;
#X connect 1 0 19 2;
#X connect 1 0 21 2;
#X connect 1 0 23 2;
#X connect 2 0 59 0;
#X connect 3 0 4 0;
#X connect 4 0 60 0;
#X connect 5 0 6 0;
#X connect 6 0 61 0;
#X connect 7 0 8 0;
#X connect 8 0 62 0;
#X connect 9 0 10 0;
#X connect 10 0 63 0;
#X connect 11 0 12 0;
#X connect 12 0 58 0;
#X connect 13 0 14 0;
#X connect 14 0 64 0;
#X connect 15 0 16 0;
#X connect 16 0 65 0;
#X connect 17 0 18 0;
#X connect 18 0 66 0;
#X connect 19 0 20 0;
#X connect 20 0 67 0;
#X connect 21 0 22 0;
#X connect 22 0 68 0;
#X connect 23 0 24 0;
#X connect 24 0 69 0;
#X connect 25 0 0 0;
#X connect 25 0 3 0;
#X connect 25 0 5 0;
#X connect 25 0 7 0;
#X connect 25 0 9 0;
#X connect 25 0 11 0;
#X connect 25 0 13 0;
#X connect 25 0 15 0;
#X connect 25 0 17 0;
#X connect 25 0 19 0;
#X connect 25 0 21 0;
#X connect 25 0 23 0;
#X connect 26 0 0 1;
#X connect 27 0 3 1;
#X connect 28 0 5 1;
#X connect 29 0 7 1;
#X connect 30 0 9 1;
#X connect 31 0 11 1;
#X connect 32 0 13 1;
#X connect 33 0 15 1;
#X connect 34 0 17 1;
#X connect 35 0 19 1;
#X connect 36 0 21 1;
#X connect 37 0 23 1;
#X connect 38 0 37 0;
#X connect 38 0 36 0;
#X connect 38 0 35 0;
#X connect 38 0 33 0;
#X connect 38 0 34 0;
#X connect 38 0 32 0;
#X connect 38 0 30 0;
#X connect 38 0 29 0;
#X connect 38 0 28 0;
#X connect 38 0 27 0;
#X connect 38 0 26 0;
#X connect 38 0 31 0;
#X connect 39 0 38 0;
#X connect 40 0 45 0;
#X connect 41 0 49 0;
#X connect 42 0 43 0;
#X connect 42 0 48 0;
#X connect 43 0 44 0;
#X connect 43 0 46 0;
#X connect 43 0 50 1;
#X connect 45 1 51 0;
#X connect 46 0 47 0;
#X connect 49 0 42 1;
#X connect 49 1 42 0;
#X connect 49 2 43 1;
#X connect 50 0 74 0;
#X connect 51 0 50 0;
#X connect 51 1 41 0;
#X connect 52 0 38 0;
#X connect 52 0 1 0;
#X connect 53 0 54 0;
#X connect 54 0 55 0;
#X connect 54 0 70 0;
#X connect 54 0 45 0;
#X connect 54 1 56 0;
#X connect 58 0 71 0;
#X connect 59 0 71 0;
#X connect 60 0 71 0;
#X connect 61 0 71 0;
#X connect 62 0 71 0;
#X connect 63 0 71 0;
#X connect 64 0 71 0;
#X connect 65 0 71 0;
#X connect 66 0 71 0;
#X connect 67 0 71 0;
#X connect 68 0 71 0;
#X connect 69 0 71 0;
#X connect 70 0 73 0;
#X connect 71 0 94 0;
#X connect 71 0 96 0;
#X connect 72 0 71 0;
#X connect 72 0 74 0;
#X connect 73 0 72 0;
#X connect 74 0 25 0;
#X connect 75 0 76 0;
#X connect 76 0 79 0;
#X connect 76 1 81 0;
#X connect 77 0 82 0;
#X connect 77 1 78 1;
#X connect 78 0 57 0;
#X connect 79 0 80 1;
#X connect 80 0 78 0;
#X connect 81 0 80 1;
#X connect 82 0 83 0;
#X connect 82 1 80 0;
#X connect 83 0 57 0;
#X connect 84 0 85 0;
#X connect 84 0 87 0;
#X connect 84 1 92 0;
#X connect 85 1 89 0;
#X connect 86 0 99 0;
#X connect 88 0 89 1;
#X connect 89 0 100 0;
#X connect 89 0 106 0;
#X connect 90 0 88 0;
#X connect 92 0 90 0;
#X connect 92 0 91 0;
#X connect 93 0 94 1;
#X connect 94 0 84 0;
#X connect 95 0 97 0;
#X connect 96 0 77 0;
#X connect 97 0 96 1;
#X connect 99 0 98 0;
#X connect 100 0 105 0;
#X connect 101 0 104 0;
#X connect 102 0 105 1;
#X connect 103 0 105 1;
#X connect 104 0 103 0;
#X connect 104 1 102 0;
#X connect 106 0 107 0;
