#N canvas 456 231 1064 540 10;
#X obj 197 243 tgl 40 0 empty empty DSP 17 7 0 10 -262144 -1 -1 1 1
;
#X msg 197 303 \; pd dsp \$1;
#X obj 226 193 loadbang;
#X msg 197 209 1;
#N canvas 803 179 994 540 midiInOut 0;
#X obj 152 209 r channel1-1;
#X obj 152 246 unpack;
#X obj 214 435 noteout 2;
#X obj 212 297 * 127;
#X obj 185 271 moses;
#X obj 212 326 int;
#X obj 212 352 t b f;
#X obj 404 80 ctlin;
#X obj 404 167 ctlout;
#X obj 229 62 notein;
#X obj 229 175 noteout;
#X obj 137 358 int;
#X obj 137 328 b;
#X msg 213 385 44;
#X obj 137 390 pack f 0;
#X obj 341 247 unpack;
#X obj 403 436 noteout 2;
#X obj 401 298 * 127;
#X obj 374 272 moses;
#X obj 401 327 int;
#X obj 401 353 t b f;
#X obj 326 359 int;
#X obj 326 329 b;
#X obj 326 391 pack f 0;
#X obj 540 246 unpack;
#X obj 602 435 noteout 2;
#X obj 600 297 * 127;
#X obj 573 271 moses;
#X obj 600 326 int;
#X obj 600 352 t b f;
#X obj 525 358 int;
#X obj 525 328 b;
#X obj 525 390 pack f 0;
#X obj 341 210 r channel1-2;
#X obj 540 209 r channel1-3;
#X msg 402 386 45;
#X msg 601 385 46;
#X obj 229 116 pack f f f;
#X obj 296 91 t f f;
#X obj 229 143 spigot;
#X obj 328 126 <= 16;
#X obj 75 214 s toAll;
#X obj 58 52 notein;
#X obj 58 130 pack f f f;
#X obj 125 81 t f f;
#X obj 58 157 spigot;
#X obj 157 116 > 16;
#X obj 125 105 - 16;
#X obj 58 239 s actNotes;
#X obj 75 188 list prepend note;
#N canvas 1011 185 712 742 test 0;
#X obj 80 95 sel 0 1;
#X obj 80 57 tgl 15 0 empty empty empty 17 7 0 10 -262144 -1 -1 0 1
;
#X obj 80 32 metro 700;
#X obj 81 5 tgl 15 0 empty empty empty 17 7 0 10 -262144 -1 -1 0 1
;
#X msg 81 162 \$1 100 1;
#X msg 108 189 \$1 0 1;
#X obj 107 131 int;
#X obj 80 132 int;
#X floatatom 101 5 5 0 0 0 - - -;
#X obj 117 295 outlet;
#X obj 166 98 sel 0 1;
#X obj 165 60 tgl 15 0 empty empty empty 17 7 0 10 -262144 -1 -1 0
1;
#X obj 166 8 tgl 15 0 empty empty empty 17 7 0 10 -262144 -1 -1 0 1
;
#X obj 193 134 int;
#X obj 166 135 int;
#X floatatom 187 8 5 0 0 0 - - -;
#X obj 251 99 sel 0 1;
#X obj 250 61 tgl 15 0 empty empty empty 17 7 0 10 -262144 -1 -1 0
1;
#X obj 251 9 tgl 15 0 empty empty empty 17 7 0 10 -262144 -1 -1 0 1
;
#X obj 278 135 int;
#X obj 251 136 int;
#X floatatom 272 9 5 0 0 0 - - -;
#X msg 166 165 \$1 100 2;
#X msg 193 192 \$1 0 2;
#X msg 251 166 \$1 100 3;
#X msg 278 193 \$1 0 3;
#X obj 81 224 t a;
#X obj 166 227 t a;
#X obj 251 228 t a;
#X obj 166 35 metro 750;
#X obj 251 36 metro 800;
#X connect 0 0 7 0;
#X connect 0 1 6 0;
#X connect 1 0 0 0;
#X connect 2 0 1 0;
#X connect 3 0 2 0;
#X connect 4 0 26 0;
#X connect 5 0 26 0;
#X connect 6 0 5 0;
#X connect 7 0 4 0;
#X connect 8 0 7 1;
#X connect 8 0 6 1;
#X connect 10 0 14 0;
#X connect 10 1 13 0;
#X connect 11 0 10 0;
#X connect 12 0 29 0;
#X connect 13 0 23 0;
#X connect 14 0 22 0;
#X connect 15 0 14 1;
#X connect 15 0 13 1;
#X connect 16 0 20 0;
#X connect 16 1 19 0;
#X connect 17 0 16 0;
#X connect 18 0 30 0;
#X connect 19 0 25 0;
#X connect 20 0 24 0;
#X connect 21 0 20 1;
#X connect 21 0 19 1;
#X connect 22 0 27 0;
#X connect 23 0 27 0;
#X connect 24 0 28 0;
#X connect 25 0 28 0;
#X connect 26 0 9 0;
#X connect 27 0 9 0;
#X connect 28 0 9 0;
#X connect 29 0 11 0;
#X connect 30 0 17 0;
#X restore 6 156 pd test;
#X obj 229 29 r netNote;
#X obj 469 81 r netCC;
#X connect 0 0 1 0;
#X connect 1 1 4 0;
#X connect 3 0 5 0;
#X connect 4 0 12 0;
#X connect 4 1 3 0;
#X connect 5 0 6 0;
#X connect 6 0 13 0;
#X connect 6 1 2 1;
#X connect 7 0 8 0;
#X connect 7 1 8 1;
#X connect 7 2 8 2;
#X connect 9 0 37 0;
#X connect 9 1 37 1;
#X connect 9 2 38 0;
#X connect 11 0 14 0;
#X connect 12 0 11 0;
#X connect 13 0 2 0;
#X connect 13 0 11 1;
#X connect 14 0 2 0;
#X connect 15 1 18 0;
#X connect 17 0 19 0;
#X connect 18 0 22 0;
#X connect 18 1 17 0;
#X connect 19 0 20 0;
#X connect 20 0 35 0;
#X connect 20 1 16 1;
#X connect 21 0 23 0;
#X connect 22 0 21 0;
#X connect 23 0 16 0;
#X connect 24 1 27 0;
#X connect 26 0 28 0;
#X connect 27 0 31 0;
#X connect 27 1 26 0;
#X connect 28 0 29 0;
#X connect 29 0 36 0;
#X connect 29 1 25 1;
#X connect 30 0 32 0;
#X connect 31 0 30 0;
#X connect 32 0 25 0;
#X connect 33 0 15 0;
#X connect 34 0 24 0;
#X connect 35 0 16 0;
#X connect 35 0 21 1;
#X connect 36 0 25 0;
#X connect 36 0 30 1;
#X connect 37 0 39 0;
#X connect 38 0 37 2;
#X connect 38 1 40 0;
#X connect 39 0 10 0;
#X connect 40 0 39 1;
#X connect 42 0 43 0;
#X connect 42 1 43 1;
#X connect 42 2 44 0;
#X connect 43 0 45 0;
#X connect 44 0 47 0;
#X connect 44 1 46 0;
#X connect 45 0 48 0;
#X connect 45 0 49 0;
#X connect 46 0 45 1;
#X connect 47 0 43 2;
#X connect 49 0 41 0;
#X connect 50 0 48 0;
#X connect 50 0 49 0;
#X connect 51 0 10 0;
#X connect 52 0 8 0;
#X restore 215 113 pd midiInOut;
#N canvas 744 375 1009 507 net 1;
#X msg -2 35 disconnect;
#X obj 225 98 s oscClock;
#X obj 89 32 loadbang;
#X obj 620 248 loadbang;
#X obj 478 319 netsend -u;
#X obj 89 98 netreceive -u;
#X obj 478 282 list trim;
#X obj 478 251 list prepend send;
#X msg 620 302 connect 192.168.1.255 8000;
#X obj 478 191 r toAll;
#X msg 445 76 clock \$1;
#X obj 445 117 s toAll;
#X obj 445 48 r 2extclock;
#X obj 193 267 s advance;
#X obj 478 222 list prepend gharp;
#X obj 89 387 s netNote;
#X obj 137 268 s netCC;
#X obj 121 306 unpack f f f;
#X obj 106 358 spigot;
#X obj 89 281 t a a;
#X obj 162 340 == 2;
#X obj 225 56 netreceive -u 8099;
#X msg 89 70 listen 8000;
#X obj 89 236 route note cc advance;
#X obj 89 147 route seq/gHarp;
#X obj 431 317 print;
#X obj 620 275 delay 1000;
#X obj 31 419 print netnote;
#X connect 0 0 5 0;
#X connect 2 0 22 0;
#X connect 3 0 26 0;
#X connect 5 0 24 0;
#X connect 6 0 4 0;
#X connect 6 0 25 0;
#X connect 7 0 6 0;
#X connect 8 0 4 0;
#X connect 9 0 14 0;
#X connect 10 0 11 0;
#X connect 12 0 10 0;
#X connect 14 0 7 0;
#X connect 17 2 20 0;
#X connect 18 0 15 0;
#X connect 19 0 15 0;
#X connect 19 0 27 0;
#X connect 20 0 18 1;
#X connect 21 0 1 0;
#X connect 22 0 5 0;
#X connect 23 0 19 0;
#X connect 23 1 16 0;
#X connect 23 2 13 0;
#X connect 24 0 23 0;
#X connect 26 0 8 0;
#X restore 216 82 pd net;
#X obj 323 167 ctlMonitor;
#X connect 0 0 1 0;
#X connect 2 0 3 0;
#X connect 3 0 0 0;
