#N canvas -93 121 1111 507 10;
#X obj 111 71 comport 1 115200;
#X msg 237 37 devices;
#X msg 95 181 2;
#X msg 64 53 203;
#X obj 335 113 comport 1 115200;
#X msg 462 49 devices;
#X msg 287 111 81;
#X msg 273 148 90;
#X msg 289 65 222 81;
#X obj 702 384 pack;
#X obj 815 325 int;
#X msg 860 300 222;
#X msg 815 229 219;
#X msg 830 253 216;
#X msg 845 276 213;
#X obj 1061 328 int;
#X obj 1278 321 int;
#X obj 1046 169 int;
#X obj 1263 165 int;
#X obj 240 -57 shell;
#X obj 220 -127 bng 15 250 50 0 empty empty empty 17 7 0 10 -262144
-1 -1;
#X obj 226 -107 t b;
#X obj 280 -134 loadbang;
#X msg 237 -85 jpnevulator --tty /dev/ttyUSB0;
#X obj 443 -59 shell;
#X msg 440 -87 jpnevulator --tty /dev/ttyUSB1;
#N canvas 168 204 819 660 pitchdetect 0;
#X msg 31 431 \; pd dsp 1;
#X msg 31 473 \; pd dsp 0;
#X obj 31 405 loadbang;
#N canvas 675 50 263 214 filters 0;
#X obj 47 41 inlet~;
#X obj 47 176 outlet~;
#X text 103 79 DC filter;
#X text 140 140 sibilant filter;
#X obj 125 41 inlet;
#X text 165 40 freq;
#X obj 47 80 hip~ 160;
#X obj 47 140 lp6_cheb~ 3000;
#X connect 0 0 6 0;
#X connect 4 0 7 1;
#X connect 6 0 7 0;
#X connect 7 0 1 0;
#X restore 53 60 pd filters;
#X obj 110 33 nbx 4 14 1000 3000 1 1 empty empty empty 0 -8 0 10 -262144
-1 -1 3000 256;
#X text 109 16 lo pass filter freq;
#X obj 31 33 +~;
#N canvas 569 73 331 239 synthesis 0;
#X obj 28 27 inlet;
#X obj 124 158 line~;
#X obj 28 149 osc~;
#X obj 28 109 line~;
#X obj 28 176 *~;
#X obj 28 210 outlet~;
#X msg 28 78 \$1 2;
#X obj 124 23 adc~;
#X obj 124 51 +~;
#X floatatom 227 55 5 0 0 0 - - -, f 5;
#X obj 217 22 r \$0-framesize;
#X msg 124 129 \$1 5;
#X connect 0 0 6 0;
#X connect 1 0 4 1;
#X connect 2 0 4 0;
#X connect 3 0 2 0;
#X connect 4 0 5 0;
#X connect 6 0 3 0;
#X connect 7 0 8 0;
#X connect 7 1 8 1;
#X connect 10 0 9 0;
#X connect 11 0 1 0;
#X restore 102 308 pd synthesis;
#N canvas 608 131 447 401 scope 0;
#X obj 38 21 inlet~;
#X obj 139 131 sel 0;
#X msg 139 48 1;
#X obj 139 77 +;
#X obj 92 326 tabwrite~ \$0-snac;
#X obj 139 293 delay;
#X obj 349 133 samplerate~;
#X obj 349 84 loadbang;
#X obj 359 112 bng 15 250 50 0 empty empty empty 17 7 0 10 -262144
-1 -1;
#X obj 349 157 t b f;
#X obj 349 206 /;
#X msg 349 182 1;
#X obj 238 223 *;
#X floatatom 238 256 10 0 0 0 - - -, f 10;
#X obj 166 268 * 1000;
#X obj 238 195 - 32;
#X obj 238 24 r \$0-framesize;
#X obj 257 147 loadbang;
#X msg 257 54 resize \$1;
#X obj 257 109 s \$0-snac;
#X obj 265 82 s \$0-signal;
#X obj 92 22 inlet~;
#X obj 38 350 tabwrite~ \$0-signal;
#X obj 139 22 inlet;
#N canvas 71 301 316 324 pointer 0;
#X obj 36 20 inlet;
#X obj 166 22 inlet;
#X obj 101 21 inlet;
#X obj 86 76 f;
#X obj 166 99 samplerate~;
#X obj 166 130 /;
#X floatatom 166 158 5 0 0 0 - - -, f 5;
#X obj 86 171 /;
#X obj 166 73 t b f;
#X obj 86 147 f;
#X obj 86 99 t b f;
#X obj 224 21 loadbang;
#X msg 224 49 1024;
#X obj 86 262 s \$0-pitchcanvas;
#X obj 86 207 * 400;
#X msg 86 235 vis_size \$1 20;
#X connect 0 0 3 0;
#X connect 1 0 8 0;
#X connect 2 0 3 1;
#X connect 3 0 10 0;
#X connect 4 0 5 0;
#X connect 5 0 6 0;
#X connect 5 0 9 1;
#X connect 7 0 14 0;
#X connect 8 0 4 0;
#X connect 8 1 5 1;
#X connect 9 0 7 0;
#X connect 10 0 9 0;
#X connect 10 1 7 1;
#X connect 11 0 12 0;
#X connect 12 0 8 0;
#X connect 14 0 15 0;
#X connect 15 0 13 0;
#X restore 162 209 pd pointer;
#X msg 257 171 1024;
#X obj 38 190 delay~ 2048 1024;
#X obj 139 105 & 7;
#X connect 0 0 26 0;
#X connect 1 0 5 0;
#X connect 2 0 3 0;
#X connect 3 0 27 0;
#X connect 5 0 4 0;
#X connect 5 0 22 0;
#X connect 5 0 24 0;
#X connect 6 0 9 0;
#X connect 7 0 6 0;
#X connect 8 0 6 0;
#X connect 9 0 11 0;
#X connect 9 1 10 1;
#X connect 10 0 12 1;
#X connect 11 0 10 0;
#X connect 12 0 13 0;
#X connect 12 0 14 0;
#X connect 14 0 5 1;
#X connect 15 0 12 0;
#X connect 16 0 18 0;
#X connect 16 0 15 0;
#X connect 16 0 24 2;
#X connect 16 0 26 1;
#X connect 17 0 25 0;
#X connect 18 0 19 0;
#X connect 18 0 20 0;
#X connect 21 0 4 0;
#X connect 23 0 2 0;
#X connect 23 0 24 1;
#X connect 25 0 15 0;
#X connect 26 0 22 0;
#X connect 27 0 3 1;
#X connect 27 0 1 0;
#X restore 31 249 pd scope;
#N canvas 0 50 450 300 (subpatch) 0;
#X array \$0-signal 1024 float 0;
#X coords 0 1 1023 -1 400 140 1;
#X restore 291 -17 graph;
#X floatatom 153 269 5 0 0 0 - - -, f 5;
#X floatatom 152 244 5 0 0 0 - - -, f 5;
#X text 190 244 fidelity;
#N canvas 294 50 667 661 user-parameters 0;
#X obj 45 167 vradio 15 1 1 4 empty empty empty 0 -8 0 10 -262144 -260097
-1 0;
#N canvas 0 50 167 265 overlap 0;
#X obj 29 35 inlet;
#X obj 29 195 outlet;
#X obj 29 130 pow;
#X obj 29 70 t b f;
#X msg 29 102 2;
#X msg 29 162 overlap \$1;
#X connect 0 0 3 0;
#X connect 2 0 5 0;
#X connect 3 0 4 0;
#X connect 3 1 2 1;
#X connect 4 0 2 0;
#X connect 5 0 1 0;
#X restore 45 238 pd overlap;
#N canvas 777 314 284 292 framesize 0;
#X obj 29 14 inlet;
#X obj 29 242 outlet;
#X obj 29 119 pow;
#X obj 29 64 t b f;
#X msg 29 91 2;
#X msg 29 198 framesize \$1;
#X obj 43 173 s \$0-framesize;
#X floatatom 53 144 5 0 0 0 - - -, f 5;
#X obj 159 163 samplerate~;
#X obj 159 136 t b f;
#X obj 159 191 /;
#X obj 159 245 outlet;
#X obj 159 219 * 1.2;
#X obj 29 41 + 7;
#X connect 0 0 13 0;
#X connect 2 0 5 0;
#X connect 2 0 6 0;
#X connect 2 0 7 0;
#X connect 2 0 9 0;
#X connect 3 0 4 0;
#X connect 3 1 2 1;
#X connect 4 0 2 0;
#X connect 5 0 1 0;
#X connect 8 0 10 0;
#X connect 9 0 8 0;
#X connect 9 1 10 1;
#X connect 10 0 12 0;
#X connect 12 0 11 0;
#X connect 13 0 3 0;
#X restore 29 88 pd framesize;
#X obj 29 4 vradio 15 1 1 5 empty empty empty 0 -8 0 10 -262144 -260097
-1 3;
#X text 50 19 256;
#X text 50 35 512;
#X text 49 65 2048;
#X text 67 182 2;
#X text 67 214 8;
#X text 67 199 4;
#X obj 29 607 outlet;
#X floatatom 98 118 5 0 0 0 - - -, f 5;
#X text 49 50 1024 (default);
#X text 67 166 1 (default);
#X text 292 84 Overlapping analysis frames can be used for a finer
rate of pitch messages. This may be useful in the case of longer analysis
frames. Note that overlap multiplies the object's CPU load.;
#X msg 124 423 bias \$1;
#X obj 127 397 hsl 100 15 0 1 0 0 empty empty empty -2 -8 0 10 -262144
-260097 -1 1980 0;
#X floatatom 182 423 5 0 0 0 - - -, f 5;
#X text 287 382 Bias (range 0 - 1) is used to favour the first peaks
found in the SNAC function. If bias is set to a higher level \, you
are more likely to experience upper octave jumps. If bias is set to
a low level \, low octave jumps are more likely to happen. Set bias
according to your input material. For example \, for a sound type with
weak fundamental \, bias is better not set too high. Default is 0.2.
;
#X obj 126 476 hsl 100 15 0 1 0 0 empty empty empty -2 -8 0 10 -262144
-260097 -1 9405 0;
#X floatatom 201 506 5 0 0 0 - - -, f 5;
#X msg 123 506 fidelity \$1;
#X text 287 489 Fidelity (range 0 - 1 ) determines the fidelity threshold
required for new pitch information to get through. Fidelity is an indication
of how periodic a sound is (as opposed to noisy \, not periodic). Default
is 0.95.;
#X text 292 -9 Analysis framesize determines the lowest pitch which
can be detected \, corresponding to a period ~1.2 times the framesize.
Framesize also determines latency of the pitch info. Note that reported
pitch is the average pitch of an analysis frame. Framesize is always
a power of two \, because FFT is used for efficiency.;
#X text 93 138 lowest detectable pitch (Hz);
#X obj 127 562 hsl 100 15 0 2000 0 0 empty empty empty -2 -8 0 10 -262144
-260097 -1 4950 0;
#X floatatom 199 591 5 0 0 0 - - -, f 5;
#X msg 124 590 maxfreq \$1;
#X text 288 560 Maxfreq is the maximum frequency which will possibly
be reported by [helmholtz~]. Default is 2000 Set it lower if you experience
harmonic interference components such as from cellphones.;
#X text 50 2 128;
#X text 293 188 1 - analysis frame size (128 \, 256 \, 512 \, 1024
or 2048);
#X text 293 210 2 - overlap (1 \, 2 \, 4 or 8);
#X text 292 161 Optional initialisation arguments are:;
#X obj 142 119 outlet;
#X msg 124 372 0.2;
#X msg 123 452 0.95;
#X msg 124 540 1000;
#X obj 61 276 loadbang;
#X obj 127 318 hsl 100 15 0 100 0 0 empty empty empty -2 -8 0 10 -262144
-260097 -1 4950 0;
#X floatatom 182 344 5 0 0 0 - - -, f 5;
#X msg 124 344 sens \$1;
#X msg 124 293 50;
#X text 288 305 Sens (sensitivity) determines a minimum sound level
where [helmholtz~] is sensitive for pitch. If your input sound has
a lot of artifacts (hum \, interference \, colored noise) \, set sens
to a higher dB level. Default is 50 dB (pd deciBels).;
#X text 290 261 ++++++++++++++++++++++++++++++++++++++++++++++++++++++++++
;
#X connect 0 0 1 0;
#X connect 1 0 10 0;
#X connect 2 0 10 0;
#X connect 2 1 11 0;
#X connect 2 1 33 0;
#X connect 3 0 2 0;
#X connect 15 0 10 0;
#X connect 16 0 15 0;
#X connect 16 0 17 0;
#X connect 19 0 21 0;
#X connect 19 0 20 0;
#X connect 21 0 10 0;
#X connect 25 0 27 0;
#X connect 25 0 26 0;
#X connect 27 0 10 0;
#X connect 34 0 16 0;
#X connect 35 0 19 0;
#X connect 36 0 25 0;
#X connect 37 0 34 0;
#X connect 37 0 35 0;
#X connect 37 0 36 0;
#X connect 37 0 41 0;
#X connect 38 0 40 0;
#X connect 38 0 39 0;
#X connect 40 0 10 0;
#X connect 41 0 38 0;
#X restore 96 79 pd user-parameters;
#X obj 631 155 cnv 15 59 138 empty empty empty 20 12 0 14 -191407 -66577
0;
#X text 290 498 Katja Vetter Feb 2012;
#X text 289 306 [helmholtz~] is a pitch tracker using the SNAC (Specially
Normalized AutoCorrelation) function developed by Philip McLeod.;
#N canvas 700 55 487 526 helmholtz~ 0;
#X obj 27 479 pddplink http://miracle.otago.ac.nz/tartini/papers/A_Smarter_Way_to_Find_Pitch.pdf
;
#X obj 27 433 pddplink http://miracle.otago.ac.nz/tartini/papers/Philip_McLeod_PhD.pdf
;
#X text 27 33 Pitch estimation with SNAC and parabolic interpolation
is accurate up to ~0.1 Hz.;
#X text 27 77 About 85% of the SNAC function length is useful for analysis.
The right tail 15% is too instable and may trigger false results \,
so this part is set to zero and ignored.;
#X text 26 401 Find Philip McLeod's thesis with detailed description
of the SNAC function:;
#X text 27 461 Find an article on pitch detection by Philip McLeod
here:;
#X text 28 145 With the large part of the function being useful \,
[helmholtz~] can find period lengths from ~1.2 times the analysis frame.
An example: with framelength 1024 and SR 44100 \, the fundamental frequency
of the frame is ~43 Hz \, while [helmholtz~] can find pitch starting
from ~50 Hz.;
#X text 27 228 There is also an upper bound for detection \, caused
by the fact that narrow \, pulse-like waveforms have too little discrete
samples to always describe the actual maximum of a peak. In [helmholtz~]
\, parabolic interpolation is used to find the peak maxima before comparing
them. This way \, pitches up to 2000 Hz can be detected \, provided
they have not too rich harmonics (use a filter otherwise).;
#X text 28 342 The default maximum for pitch reporting by [helmholt~]
is 1000 Hz \, but you can set the maximum at will between 0 and 2000
Hz with message 'maxfreq'.;
#X restore 144 487 pd helmholtz~ info;
#N canvas 0 50 450 300 (subpatch) 0;
#X array \$0-snac 1024 float 0;
#X coords 0 1 1023 -1 400 140 1;
#X restore 291 154 graph;
#X obj 292 215 cnv 15 173 20 empty \$0-pitchcanvas empty 20 12 0 14
-260097 -66577 0;
#X obj 53 217 helmholtz~ 1024 1;
#X text 190 269 pitch;
#X text 289 356 The input signal is in the upper plot \, and the lower
plot shows the SNAC function derived from the signal. [helmholtz~]
tries to pick the principal peak from the SNAC function \, indicating
period length (orange bar) \, from which the fundamental frequency
is computed.;
#X text 27 -14 soundcard;
#X text 289 433 In this patch \, [helmholtz~] finds pitch from soundcard
input and controls an [osc~] frequency \, so you can judge the pitch
estimator's quality by ear.;
#X text 185 118 open me!;
#X floatatom 174 146 5 0 0 0 - - -, f 5;
#X text 79 165 lowest detectable pitch (Hz);
#X text 80 184 depends on analysis size;
#X obj 31 5 adc~ 5;
#X obj 43 320 ftom;
#X floatatom 115 129 5 0 0 0 - - -, f 5;
#X connect 2 0 0 0;
#X connect 3 0 20 0;
#X connect 4 0 3 1;
#X connect 6 0 3 0;
#X connect 6 0 8 0;
#X connect 13 0 20 0;
#X connect 13 1 26 0;
#X connect 20 0 8 1;
#X connect 20 1 10 0;
#X connect 20 1 8 2;
#X connect 20 1 7 0;
#X connect 20 1 30 0;
#X connect 20 2 11 0;
#X connect 29 0 6 0;
#X connect 30 0 31 0;
#X coords 0 -1 1 1 85 60 1 100 100;
#X restore 750 -84 pd pitchdetect;
#X obj 204 355 notein;
#X floatatom 160 381 5 0 0 0 - - -, f 5;
#X obj 220 396 > 0;
#X obj 189 435 spigot;
#X msg 215 511 202 1;
#X msg 150 612 201 1;
#X obj 1876 77 > 0;
#X obj 1880 101 sel 0 1;
#X obj 2002 20 notein;
#X obj 2250 90 > 0;
#X obj 2104 582 pack;
#X obj 2047 509 int;
#X msg 2064 279 222;
#X msg 2019 208 219;
#X msg 2034 232 216;
#X msg 2049 255 213;
#X obj 2283 511 int;
#X obj 2515 518 int;
#X obj 2250 148 int;
#X obj 2467 144 int;
#X obj 2250 113 sel 0 1;
#X obj 2250 61 int;
#X obj 2002 110 t f b f;
#X msg 2322 311 81;
#X msg 2337 335 81;
#X msg 2367 382 81;
#X msg 2352 358 86;
#X msg 2584 378 100;
#X msg 2569 354 102;
#X msg 2393 414 81;
#X msg 2408 438 81;
#X msg 2438 485 81;
#X msg 2423 461 86;
#X msg 2655 481 100;
#X msg 2640 457 102;
#X obj 2004 176 sel 0 1 2 3 4 5 6 7 8 9 10 11 12;
#X obj 2250 175 sel 0 1 2 3 4 5 6 7 8 9 10 11 12;
#X obj 2467 171 sel 0 1 2 3 4 5 6 7 8 9 10 11 12;
#X obj 1702 310 unpack;
#X obj 1712 363 sel 1;
#X obj 1833 511 int;
#X obj 1790 178 sel 0 1 2 3 4 5 6 7 8 9 10 11 12;
#X obj 1725 516 int;
#X msg 1805 210 203;
#X msg 1820 234 203;
#X msg 1835 257 203;
#X msg 1850 281 203;
#X msg 1862 316 202;
#X msg 1877 340 202;
#X msg 1893 365 202;
#X msg 1907 387 202;
#X obj 1756 443 t b b;
#X msg 1757 470 1;
#X msg 1933 419 201;
#X msg 1948 443 201;
#X msg 1963 466 201;
#X msg 1978 490 201;
#X msg 2076 314 220;
#X msg 2091 338 217;
#X msg 2106 361 214;
#X msg 2121 385 211;
#X msg 2147 417 221;
#X msg 2162 441 218;
#X msg 2177 464 215;
#X msg 2192 488 212;
#X obj 1745 413 delay 20;
#X msg 2539 307 100;
#X msg 2554 331 100;
#X msg 2610 410 100;
#X msg 2625 434 100;
#X obj 2002 55 - 47;
#X obj 1948 85 int;
#X obj 1991 80 t b f f;
#X msg 2265 205 84;
#X msg 2482 201 91;
#X msg 2280 229 85;
#X msg 2512 248 100;
#X msg 2295 252 93;
#X msg 2497 225 93;
#X msg 2527 272 95;
#X msg 2310 276 83;
#X obj 1876 543 > 0;
#X obj 1880 567 sel 0 1;
#X obj 1817 596 spigot;
#X obj 1749 664 pack f 1;
#X obj 1776 636 pipe 25;
#X obj 604 37 stripnote;
#X obj 909 113 int;
#X obj 819 26 t f f b;
#X obj 921 151 t f f;
#X obj 819 557 int;
#X obj 1066 566 int;
#X obj 1284 554 int;
#X obj 1065 399 int;
#X obj 1282 395 int;
#X obj 873 393 int;
#X obj 819 370 t f f b;
#X obj 911 411 t f f;
#X obj 820 779 int;
#X obj 1067 795 int;
#X obj 1285 776 int;
#X obj 1066 621 int;
#X obj 1281 612 int;
#X obj 874 615 int;
#X obj 820 616 t f f b;
#X obj 912 633 t f f;
#X msg 819 461 220;
#X msg 834 485 217;
#X msg 849 508 214;
#X msg 864 532 211;
#X msg 820 683 221;
#X msg 850 730 215;
#X msg 865 754 212;
#X msg 835 707 218;
#X obj 737 580 pack;
#X obj 750 815 pack;
#X msg 348 32 close;
#X msg 380 187 210 1;
#X msg 159 28 close;
#X msg 63 94 204;
#X msg 210 263 203 2;
#X obj 114 -33 loadbang;
#X obj 604 4 notein;
#X obj 339 353 route 0;
#X obj 339 412 sel 1;
#X obj 423 352 route 0;
#X obj 423 411 sel 1;
#X obj 508 350 route 0;
#X obj 508 409 sel 1;
#X obj 423 383 > -1;
#X obj 339 384 > -1;
#X obj 512 385 > -1;
#X obj 884 97 bng 15 250 50 0 empty empty empty 17 7 0 10 -262144 -1
-1;
#X floatatom 749 42 5 0 0 0 - - -, f 5;
#X obj 604 66 - 48;
#X obj 803 187 sel 0 2 4 5 7;
#X obj 819 -1 moses 8;
#X obj 1046 196 sel 0 2 4 5 7;
#X obj 1263 192 sel 0 2 4 5 7;
#X obj 948 273 moses 17;
#X obj 819 429 sel 9 11 12 14 16;
#X obj 1065 426 sel 9 11 12 14 16;
#X obj 1282 422 sel 9 11 12 14 16;
#X floatatom 945 318 5 0 0 0 - - -, f 5;
#X obj 674 157 moses 25;
#X floatatom 997 367 5 0 0 0 - - -, f 5;
#X obj 820 651 sel 17 19 21 23 24;
#X obj 1066 648 sel 17 19 21 23 24;
#X obj 1283 644 sel 17 19 21 23 24;
#X obj 607 126 sel 6 8 10;
#X obj 179 463 sel 54 56 58;
#X obj 304 295 r channel1-1;
#X obj 409 298 r channel1-2;
#X obj 509 302 r channel1-3;
#X obj 675 196 sel 0 2 4 5 7;
#X symbolatom 353 507 2 0 0 0 - - -, f 2;
#X obj 677 265 symbol;
#X msg 610 233 C;
#X msg 681 232 D;
#X msg 716 231 D#;
#X msg 756 233 E;
#X msg 645 232 C#;
#X symbolatom 423 507 2 0 0 0 - - -, f 2;
#X obj 686 503 symbol;
#X obj 684 434 sel 9 11 12 14 16;
#X msg 619 471 E;
#X msg 654 470 F;
#X msg 690 470 F#;
#X msg 725 469 G;
#X msg 765 471 G#;
#X symbolatom 493 507 2 0 0 0 - - -, f 2;
#X obj 665 720 symbol;
#X obj 663 651 sel 17 19 21 23 24;
#X msg 598 688 G#;
#X msg 633 687 A;
#X msg 669 687 A#;
#X msg 704 686 H;
#X msg 744 688 C;
#X obj 554 508 bng 45 250 50 0 empty empty aOff 7 20 0 15 -262144 -1
-1;
#X msg 636 348 0;
#X msg 636 377 9;
#X msg 636 404 17;
#X obj 601 172 sel 1;
#X obj 701 339 v str1N;
#X msg 700 288 0;
#X msg 731 288 1;
#X msg 760 288 2;
#X msg 710 307 3;
#X msg 741 307 4;
#X msg 639 539 4;
#X msg 670 539 5;
#X msg 699 539 6;
#X msg 649 558 7;
#X msg 680 558 8;
#X msg 600 751 8;
#X msg 631 751 9;
#X msg 660 751 10;
#X msg 610 770 11;
#X msg 641 770 12;
#X obj 640 590 v str2N;
#X obj 601 802 v str3N;
#X msg 322 169 210 30;
#X msg 105 34 open 2;
#X msg 379 45 open 3;
#X floatatom 167 101 5 0 0 0 - - -, f 5;
#X obj 165 136 pack 0 100;
#X msg 199 218 216 30;
#X msg 174 193 216 140;
#X msg 277 204 219 50;
#X msg 251 178 219 170;
#X msg 1276 220 10;
#X msg 1061 226 100;
#X msg 1291 246 5;
#X msg 1097 733 100;
#X msg 1298 479 15;
#X msg 1111 535 90;
#X msg 1066 464 90;
#X msg 1081 488 80;
#X msg 1076 250 80;
#X msg 1317 725 35;
#X msg 1329 526 30;
#X msg 1104 298 110;
#X msg 1308 269 7;
#X msg 1095 511 110;
#X msg 1314 503 35;
#X msg 1331 750 15;
#X msg 1300 701 20;
#X msg 1091 273 90;
#X floatatom 837 75 5 0 0 0 - - -, f 5;
#X msg 1323 292 60;
#X msg 1286 454 5;
#X msg 1067 686 100;
#X msg 1285 677 45;
#X msg 1082 710 80;
#X msg 1112 757 90;
#X obj 1018 -49 stripnote;
#X obj 1018 -118 notein;
#X obj 467 97 r 2frets;
#X msg 1338 -94 \; fretID-2 0 220 217 214 211 \; fretPress-2 0 5 15
35 30 \; fretRel-2 0 90 80 110 90 \;;
#X floatatom 962 -32 5 0 0 0 - - -, f 5;
#X obj 1147 -125 loadbang;
#X obj 216 90 r 2actuators;
#X msg 1129 -98 \; fretID-1 0 219 216 213 222 \; fretPress-1 0 10 5
7 60 \; fretRel-1 0 80 70 90 110 \;;
#X obj 1146 -15 sel 49;
#X obj 1303 -17 sel 53;
#X obj 953 29 channel2string 1 45 49 20;
#X obj 1156 26 channel2string 2 49 53 20;
#X obj 1348 23 channel2string 3 53 57 20;
#X msg 1555 -94 \; fretID-3 0 221 218 215 212 \; fretPress-3 0 45 20
35 15 \; fretRel-3 0 100 70 100 70 \;;
#N canvas 2 99 1009 507 stringChooser 1;
#X obj 152 -87 inlet;
#X obj 139 193 expr $f1 >= 0 && $f1 <= 4;
#X obj 146 124 mod 12;
#X floatatom 91 177 5 0 0 0 - - -, f 5;
#X obj 151 -27 + 3;
#X obj 331 192 expr $f1 >= 4 && $f1 <= 8;
#X obj 540 193 expr $f1 >= 8 || $f1 == 0;
#X obj 509 60 table fretState;
#X obj 521 109 table noteOrder;
#X obj 227 105 tabwrite noteOrder;
#X obj 195 28 t b f;
#X obj 195 58 int;
#X obj 239 41 + 1;
#X obj 151 -62 change;
#X msg 287 -34 0;
#X obj 294 76 s nCnt;
#X obj 256 289 expr $f1 + $f2 + $f3;
#X floatatom 254 345 5 0 0 0 - - -, f 5;
#X obj 27 34 spigot;
#X obj 754 22 tabread noteOrder;
#X floatatom 610 -42 5 0 0 0 - - -, f 5;
#X floatatom 658 76 5 0 0 0 - - -, f 5;
#X obj 155 156 t f f f f;
#X obj 753 70 mod 12;
#X obj 230 409 tabwrite strOptions;
#X obj 517 26 table strOptions;
#X floatatom 871 204 5 0 0 0 - - -, f 5;
#X obj 151 4 t f f;
#X obj 325 39 t f f;
#X obj 758 -99 until;
#X msg 759 -159 3;
#X obj 683 -180 r nCnt;
#X obj 760 -64 int;
#X obj 794 -64 + 1;
#X obj 761 -127 t f b;
#X obj 711 -12 -;
#X obj 698 -61 int;
#X obj 736 -43 t b f;
#X obj 834 120 tabread strOptions;
#X msg 209 -91 \; noteOrder resize 1e+06;
#X msg 803 -97 1;
#X obj 519 -2 table strOut;
#X obj 762 458 tabwrite strOut;
#X obj 761 161 spigot;
#X obj 822 148 == 1;
#X obj 905 175 tabread;
#X floatatom 130 246 5 0 0 0 - - -, f 5;
#X floatatom 359 240 5 0 0 0 - - -, f 5;
#X floatatom 485 253 5 0 0 0 - - -, f 5;
#X obj 129 258 tabwrite strMatch-1;
#X obj 333 261 tabwrite strMatch-2;
#X obj 543 254 tabwrite strMatch-3;
#X obj 450 -85 table strMatch-1;
#X obj 451 -35 table strMatch-3;
#X obj 449 -61 table strMatch-2;
#X obj 771 392 pack f f f f;
#X obj 817 338 int;
#X obj 785 336 int;
#X obj 851 336 int;
#X obj 856 257 sel 1;
#X obj 886 327 sel 1;
#X obj 768 272 tabread strMatch-1;
#X obj 768 295 sel 1;
#X obj 732 362 bng 15 250 50 0 empty empty empty 17 7 0 10 -262144
-1 -1;
#X obj 774 426 print;
#X obj 856 234 tabread strMatch-2;
#X obj 886 304 tabread strMatch-3;
#X msg 899 375 0 0 0 0;
#X obj 770 210 t f f f f b;
#X obj 759 182 t b f;
#X obj 681 -144 t b b f b;
#X connect 0 0 13 0;
#X connect 1 0 16 0;
#X connect 1 0 46 0;
#X connect 1 0 49 0;
#X connect 2 0 3 0;
#X connect 2 0 22 0;
#X connect 4 0 27 0;
#X connect 5 0 16 1;
#X connect 5 0 47 0;
#X connect 5 0 50 0;
#X connect 6 0 16 2;
#X connect 6 0 48 0;
#X connect 6 0 51 0;
#X connect 10 0 11 0;
#X connect 10 1 9 0;
#X connect 11 0 12 0;
#X connect 11 0 28 0;
#X connect 12 0 11 1;
#X connect 13 0 4 0;
#X connect 14 0 11 0;
#X connect 16 0 17 0;
#X connect 16 0 24 0;
#X connect 19 0 23 0;
#X connect 22 0 1 0;
#X connect 22 1 5 0;
#X connect 22 2 6 0;
#X connect 22 3 24 1;
#X connect 22 3 49 1;
#X connect 22 3 50 1;
#X connect 22 3 51 1;
#X connect 23 0 21 0;
#X connect 23 0 38 0;
#X connect 23 0 43 0;
#X connect 27 0 10 0;
#X connect 27 1 2 0;
#X connect 28 0 15 0;
#X connect 28 1 9 1;
#X connect 29 0 32 0;
#X connect 30 0 34 0;
#X connect 31 0 70 0;
#X connect 32 0 33 0;
#X connect 32 0 37 0;
#X connect 33 0 32 1;
#X connect 34 0 29 0;
#X connect 34 1 40 0;
#X connect 35 0 19 0;
#X connect 35 0 20 0;
#X connect 36 0 35 0;
#X connect 37 0 36 0;
#X connect 37 1 35 1;
#X connect 38 0 26 0;
#X connect 38 0 44 0;
#X connect 40 0 32 1;
#X connect 43 0 69 0;
#X connect 44 0 43 1;
#X connect 55 0 64 0;
#X connect 56 0 55 2;
#X connect 57 0 55 1;
#X connect 58 0 55 3;
#X connect 59 0 56 0;
#X connect 60 0 58 0;
#X connect 61 0 62 0;
#X connect 62 0 57 0;
#X connect 63 0 55 0;
#X connect 65 0 59 0;
#X connect 66 0 60 0;
#X connect 67 0 55 0;
#X connect 68 0 61 0;
#X connect 68 1 65 0;
#X connect 68 2 66 0;
#X connect 68 3 58 1;
#X connect 68 3 56 1;
#X connect 68 3 57 1;
#X connect 69 1 68 0;
#X connect 70 0 55 0;
#X connect 70 1 30 0;
#X connect 70 2 36 1;
#X connect 70 3 67 0;
#X restore 1433 117 pd stringChooser;
#X obj 1019 -86 - 3;
#X connect 1 0 0 0;
#X connect 2 0 0 0;
#X connect 3 0 0 0;
#X connect 5 0 4 0;
#X connect 6 0 4 0;
#X connect 7 0 4 0;
#X connect 8 0 4 0;
#X connect 9 0 4 0;
#X connect 10 0 9 0;
#X connect 11 0 10 0;
#X connect 12 0 10 0;
#X connect 13 0 10 0;
#X connect 14 0 10 0;
#X connect 15 0 9 1;
#X connect 16 0 9 1;
#X connect 17 0 164 0;
#X connect 18 0 165 0;
#X connect 20 0 21 0;
#X connect 21 0 23 0;
#X connect 23 0 19 0;
#X connect 25 0 24 0;
#X connect 27 0 28 0;
#X connect 27 1 29 0;
#X connect 29 0 30 1;
#X connect 30 0 177 0;
#X connect 31 0 0 0;
#X connect 32 0 0 0;
#X connect 33 0 34 0;
#X connect 34 1 78 0;
#X connect 35 0 97 0;
#X connect 35 1 48 1;
#X connect 35 1 98 1;
#X connect 35 1 108 0;
#X connect 36 0 47 0;
#X connect 37 0 65 0;
#X connect 38 0 37 0;
#X connect 39 0 38 0;
#X connect 40 0 38 0;
#X connect 41 0 38 0;
#X connect 42 0 38 0;
#X connect 43 0 37 1;
#X connect 44 0 37 1;
#X connect 45 0 63 0;
#X connect 46 0 64 0;
#X connect 47 0 45 0;
#X connect 47 1 46 0;
#X connect 48 0 36 0;
#X connect 49 0 62 0;
#X connect 49 1 48 0;
#X connect 49 2 45 1;
#X connect 49 2 46 1;
#X connect 50 0 43 0;
#X connect 51 0 43 0;
#X connect 52 0 43 0;
#X connect 53 0 43 0;
#X connect 54 0 44 0;
#X connect 55 0 44 0;
#X connect 56 0 43 0;
#X connect 57 0 43 0;
#X connect 58 0 43 0;
#X connect 59 0 43 0;
#X connect 60 0 44 0;
#X connect 61 0 44 0;
#X connect 62 1 40 0;
#X connect 62 2 41 0;
#X connect 62 3 42 0;
#X connect 62 4 39 0;
#X connect 62 5 84 0;
#X connect 62 6 85 0;
#X connect 62 7 86 0;
#X connect 62 8 87 0;
#X connect 62 9 88 0;
#X connect 62 10 89 0;
#X connect 62 11 90 0;
#X connect 62 12 91 0;
#X connect 63 1 100 0;
#X connect 63 2 102 0;
#X connect 63 3 104 0;
#X connect 63 4 107 0;
#X connect 63 5 50 0;
#X connect 63 6 51 0;
#X connect 63 7 53 0;
#X connect 63 8 52 0;
#X connect 63 9 56 0;
#X connect 63 10 57 0;
#X connect 63 11 59 0;
#X connect 63 12 58 0;
#X connect 64 1 101 0;
#X connect 64 2 105 0;
#X connect 64 3 103 0;
#X connect 64 4 106 0;
#X connect 64 5 93 0;
#X connect 64 6 94 0;
#X connect 64 7 55 0;
#X connect 64 8 54 0;
#X connect 64 9 95 0;
#X connect 64 10 96 0;
#X connect 64 11 61 0;
#X connect 64 12 60 0;
#X connect 67 0 69 1;
#X connect 67 0 110 0;
#X connect 68 1 70 0;
#X connect 68 2 71 0;
#X connect 68 3 72 0;
#X connect 68 4 73 0;
#X connect 68 5 74 0;
#X connect 68 6 75 0;
#X connect 68 7 76 0;
#X connect 68 8 77 0;
#X connect 68 9 80 0;
#X connect 68 10 81 0;
#X connect 68 11 82 0;
#X connect 68 12 83 0;
#X connect 70 0 67 0;
#X connect 71 0 67 0;
#X connect 72 0 67 0;
#X connect 73 0 67 0;
#X connect 74 0 67 0;
#X connect 75 0 67 0;
#X connect 76 0 67 0;
#X connect 77 0 67 0;
#X connect 78 0 79 0;
#X connect 78 1 69 0;
#X connect 80 0 67 0;
#X connect 81 0 67 0;
#X connect 82 0 67 0;
#X connect 83 0 67 0;
#X connect 84 0 38 0;
#X connect 85 0 38 0;
#X connect 86 0 38 0;
#X connect 87 0 38 0;
#X connect 88 0 38 0;
#X connect 89 0 38 0;
#X connect 90 0 38 0;
#X connect 91 0 38 0;
#X connect 92 0 78 0;
#X connect 93 0 44 0;
#X connect 94 0 44 0;
#X connect 95 0 44 0;
#X connect 96 0 44 0;
#X connect 97 0 99 0;
#X connect 98 0 33 0;
#X connect 99 0 98 0;
#X connect 99 1 68 0;
#X connect 99 2 49 0;
#X connect 100 0 43 0;
#X connect 101 0 44 0;
#X connect 102 0 43 0;
#X connect 103 0 44 0;
#X connect 104 0 43 0;
#X connect 105 0 44 0;
#X connect 106 0 44 0;
#X connect 107 0 43 0;
#X connect 108 0 109 0;
#X connect 108 0 110 1;
#X connect 110 0 112 0;
#X connect 112 0 111 0;
#X connect 113 0 161 0;
#X connect 114 0 116 0;
#X connect 115 0 162 0;
#X connect 115 0 181 0;
#X connect 115 1 18 0;
#X connect 115 1 114 1;
#X connect 115 1 255 0;
#X connect 115 2 114 0;
#X connect 116 0 162 0;
#X connect 116 1 17 0;
#X connect 117 0 141 0;
#X connect 118 0 141 1;
#X connect 119 0 141 1;
#X connect 120 0 168 0;
#X connect 121 0 169 0;
#X connect 122 0 124 0;
#X connect 123 0 167 0;
#X connect 123 0 191 0;
#X connect 123 1 121 0;
#X connect 123 1 122 1;
#X connect 123 2 122 0;
#X connect 124 0 167 0;
#X connect 124 1 120 0;
#X connect 125 0 142 0;
#X connect 126 0 142 1;
#X connect 127 0 142 1;
#X connect 128 0 174 0;
#X connect 129 0 175 0;
#X connect 130 0 132 0;
#X connect 131 0 173 0;
#X connect 131 0 199 0;
#X connect 131 1 129 0;
#X connect 131 1 130 1;
#X connect 131 2 130 0;
#X connect 132 0 173 0;
#X connect 132 1 128 0;
#X connect 133 0 117 0;
#X connect 134 0 117 0;
#X connect 135 0 117 0;
#X connect 136 0 117 0;
#X connect 137 0 125 0;
#X connect 138 0 125 0;
#X connect 139 0 125 0;
#X connect 140 0 125 0;
#X connect 141 0 4 0;
#X connect 142 0 4 0;
#X connect 143 0 4 0;
#X connect 144 0 4 0;
#X connect 145 0 0 0;
#X connect 146 0 0 0;
#X connect 147 0 0 0;
#X connect 148 0 229 0;
#X connect 148 0 230 0;
#X connect 149 1 113 1;
#X connect 150 0 157 0;
#X connect 151 0 147 0;
#X connect 152 0 156 0;
#X connect 153 0 31 0;
#X connect 154 0 158 0;
#X connect 155 0 32 0;
#X connect 156 0 153 0;
#X connect 157 0 151 0;
#X connect 158 0 155 0;
#X connect 159 0 114 0;
#X connect 161 0 160 0;
#X connect 161 0 176 0;
#X connect 161 0 209 0;
#X connect 162 1 12 0;
#X connect 162 2 13 0;
#X connect 162 3 14 0;
#X connect 162 4 11 0;
#X connect 163 0 115 0;
#X connect 163 1 166 0;
#X connect 164 1 238 0;
#X connect 164 2 245 0;
#X connect 164 3 254 0;
#X connect 164 4 248 0;
#X connect 165 1 237 0;
#X connect 165 2 239 0;
#X connect 165 3 249 0;
#X connect 165 4 256 0;
#X connect 166 0 123 0;
#X connect 166 0 170 0;
#X connect 166 1 131 0;
#X connect 166 1 172 0;
#X connect 167 1 133 0;
#X connect 167 2 134 0;
#X connect 167 3 135 0;
#X connect 167 4 136 0;
#X connect 168 1 243 0;
#X connect 168 2 244 0;
#X connect 168 3 250 0;
#X connect 168 4 242 0;
#X connect 169 1 257 0;
#X connect 169 2 241 0;
#X connect 169 3 251 0;
#X connect 169 4 247 0;
#X connect 171 0 163 0;
#X connect 173 1 137 0;
#X connect 173 2 140 0;
#X connect 173 3 138 0;
#X connect 173 4 139 0;
#X connect 174 1 258 0;
#X connect 174 2 260 0;
#X connect 174 3 240 0;
#X connect 174 4 261 0;
#X connect 175 1 259 0;
#X connect 175 2 253 0;
#X connect 175 3 246 0;
#X connect 175 4 252 0;
#X connect 176 3 171 0;
#X connect 177 0 147 0;
#X connect 177 1 31 0;
#X connect 177 2 32 0;
#X connect 178 0 150 0;
#X connect 179 0 152 0;
#X connect 180 0 154 0;
#X connect 181 0 184 0;
#X connect 181 1 188 0;
#X connect 181 2 185 0;
#X connect 181 3 186 0;
#X connect 181 4 187 0;
#X connect 183 0 182 0;
#X connect 184 0 183 0;
#X connect 184 0 211 0;
#X connect 185 0 183 0;
#X connect 185 0 213 0;
#X connect 186 0 183 0;
#X connect 186 0 214 0;
#X connect 187 0 183 0;
#X connect 187 0 215 0;
#X connect 188 0 183 0;
#X connect 188 0 212 0;
#X connect 190 0 189 0;
#X connect 191 0 192 0;
#X connect 191 1 193 0;
#X connect 191 2 194 0;
#X connect 191 3 195 0;
#X connect 191 4 196 0;
#X connect 192 0 190 0;
#X connect 192 0 216 0;
#X connect 193 0 190 0;
#X connect 193 0 217 0;
#X connect 194 0 190 0;
#X connect 194 0 218 0;
#X connect 195 0 190 0;
#X connect 195 0 219 0;
#X connect 196 0 190 0;
#X connect 196 0 220 0;
#X connect 198 0 197 0;
#X connect 199 0 200 0;
#X connect 199 1 201 0;
#X connect 199 2 202 0;
#X connect 199 3 203 0;
#X connect 199 4 204 0;
#X connect 200 0 198 0;
#X connect 200 0 221 0;
#X connect 201 0 198 0;
#X connect 201 0 222 0;
#X connect 202 0 198 0;
#X connect 202 0 223 0;
#X connect 203 0 198 0;
#X connect 203 0 224 0;
#X connect 204 0 198 0;
#X connect 204 0 225 0;
#X connect 205 0 207 0;
#X connect 205 0 208 0;
#X connect 205 0 206 0;
#X connect 206 0 115 0;
#X connect 207 0 123 0;
#X connect 208 0 131 0;
#X connect 209 0 205 0;
#X connect 211 0 210 0;
#X connect 212 0 210 0;
#X connect 213 0 210 0;
#X connect 214 0 210 0;
#X connect 215 0 210 0;
#X connect 216 0 226 0;
#X connect 217 0 226 0;
#X connect 218 0 226 0;
#X connect 219 0 226 0;
#X connect 220 0 226 0;
#X connect 221 0 227 0;
#X connect 222 0 227 0;
#X connect 223 0 227 0;
#X connect 224 0 227 0;
#X connect 225 0 227 0;
#X connect 228 0 4 0;
#X connect 229 0 0 0;
#X connect 230 0 4 0;
#X connect 231 0 232 0;
#X connect 232 0 4 0;
#X connect 233 0 4 0;
#X connect 234 0 4 0;
#X connect 235 0 4 0;
#X connect 236 0 4 0;
#X connect 237 0 16 0;
#X connect 238 0 15 0;
#X connect 239 0 16 0;
#X connect 240 0 126 0;
#X connect 241 0 119 0;
#X connect 242 0 118 0;
#X connect 243 0 118 0;
#X connect 244 0 118 0;
#X connect 245 0 15 0;
#X connect 246 0 127 0;
#X connect 247 0 119 0;
#X connect 248 0 15 0;
#X connect 249 0 16 0;
#X connect 250 0 118 0;
#X connect 251 0 119 0;
#X connect 252 0 127 0;
#X connect 253 0 127 0;
#X connect 254 0 15 0;
#X connect 256 0 16 0;
#X connect 257 0 119 0;
#X connect 258 0 126 0;
#X connect 259 0 127 0;
#X connect 260 0 126 0;
#X connect 261 0 126 0;
#X connect 262 0 266 0;
#X connect 262 0 271 0;
#X connect 262 0 270 0;
#X connect 262 0 272 0;
#X connect 263 0 277 0;
#X connect 263 1 262 1;
#X connect 264 0 4 0;
#X connect 267 0 269 0;
#X connect 267 0 265 0;
#X connect 267 0 275 0;
#X connect 268 0 0 0;
#X connect 270 1 273 0;
#X connect 271 1 274 0;
#X connect 277 0 262 0;
#X connect 277 0 276 0;
#X coords 0 -1 1 1 250 60 2 350 500;
