#N canvas 294 225 1041 701 10;
#X msg 905 560 close;
#X msg 904 485 devicename /dev/ttyS1;
#X text 963 600 Danger !!! you can open every file in your system and
maybe if suid is root damage the system.;
#X text 1099 581 open the serial port by name;
#X msg 895 540 devices;
#X obj 279 311 moses 200;
#X obj 279 369 moses 100;
#X obj 279 420 * 100;
#X obj 342 446 +;
#X msg 724 418 open 1;
#X msg 697 471 open 2;
#X obj 340 421 - 100;
#X obj 418 600 pack;
#X obj 339 395 t b f;
#X obj 403 434 int;
#X obj 418 567 * -1;
#X obj 418 538 - 256;
#X obj 356 361 t f b;
#X msg 401 341 0;
#X obj 380 309 moses 237;
#X obj 253 795 s ctlInput;
#X obj 253 673 pack;
#X obj 253 639 moses 9;
#N canvas 0 85 656 300 monitorInputs 0;
#X obj 18 20 route 1 2 3 4 5 6 7 8 9 10 11 12 13 14 15 16 17 18 19
;
#X floatatom 18 455 5 0 0 0 - - -;
#X floatatom 37 436 5 0 0 0 - - -;
#X floatatom 56 413 5 0 0 0 - - -;
#X floatatom 76 391 5 0 0 0 - - -;
#X floatatom 95 362 5 0 0 0 - - -;
#X floatatom 114 343 5 0 0 0 - - -;
#X floatatom 134 320 5 0 0 0 - - -;
#X floatatom 153 298 5 0 0 0 - - -;
#X floatatom 172 272 5 0 0 0 - - -;
#X floatatom 191 253 5 0 0 0 - - -;
#X floatatom 210 230 5 0 0 0 - - -;
#X floatatom 230 208 5 0 0 0 - - -;
#X floatatom 249 179 5 0 0 0 - - -;
#X floatatom 268 160 5 0 0 0 - - -;
#X floatatom 288 137 5 0 0 0 - - -;
#X floatatom 307 115 5 0 0 0 - - -;
#X floatatom 329 91 5 0 0 0 - - -;
#X floatatom 349 68 5 0 0 0 - - -;
#X floatatom 368 46 5 0 0 0 - - -;
#X floatatom 433 458 5 0 0 0 - - -;
#X floatatom 452 439 5 0 0 0 - - -;
#X floatatom 471 416 5 0 0 0 - - -;
#X floatatom 491 394 5 0 0 0 - - -;
#X floatatom 510 365 5 0 0 0 - - -;
#X floatatom 529 346 5 0 0 0 - - -;
#X floatatom 549 323 5 0 0 0 - - -;
#X floatatom 568 301 5 0 0 0 - - -;
#X floatatom 587 275 5 0 0 0 - - -;
#X floatatom 606 256 5 0 0 0 - - -;
#X floatatom 625 233 5 0 0 0 - - -;
#X floatatom 645 211 5 0 0 0 - - -;
#X floatatom 664 182 5 0 0 0 - - -;
#X floatatom 683 163 5 0 0 0 - - -;
#X floatatom 715 140 5 0 0 0 - - -;
#X floatatom 741 118 5 0 0 0 - - -;
#X floatatom 774 99 5 0 0 0 - - -;
#X floatatom 817 71 5 0 0 0 - - -;
#X obj 433 18 route 20 21 22 23 24 25 26 27 28 29 30 31 32 33 34 35
36 37;
#X obj 18 -59 inlet;
#X connect 0 0 1 0;
#X connect 0 1 2 0;
#X connect 0 2 3 0;
#X connect 0 3 4 0;
#X connect 0 4 5 0;
#X connect 0 5 6 0;
#X connect 0 6 7 0;
#X connect 0 7 8 0;
#X connect 0 8 9 0;
#X connect 0 9 10 0;
#X connect 0 10 11 0;
#X connect 0 11 12 0;
#X connect 0 12 13 0;
#X connect 0 13 14 0;
#X connect 0 14 15 0;
#X connect 0 15 16 0;
#X connect 0 16 17 0;
#X connect 0 17 18 0;
#X connect 0 18 19 0;
#X connect 38 0 20 0;
#X connect 38 1 21 0;
#X connect 38 2 22 0;
#X connect 38 3 23 0;
#X connect 38 4 24 0;
#X connect 38 5 25 0;
#X connect 38 6 26 0;
#X connect 38 7 27 0;
#X connect 38 8 28 0;
#X connect 38 9 29 0;
#X connect 38 10 30 0;
#X connect 38 11 31 0;
#X connect 38 12 32 0;
#X connect 38 13 33 0;
#X connect 38 14 34 0;
#X connect 38 15 35 0;
#X connect 38 16 36 0;
#X connect 38 17 37 0;
#X connect 39 0 0 0;
#X connect 39 0 38 0;
#X restore 525 372 pd monitorInputs;
#X obj 686 188 r ctlInput;
#X obj 701 354 print;
#X obj 337 794 s ctlInput;
#X obj 336 702 pack;
#X obj 317 629 moses 17;
#X obj 426 874 s ctlInput;
#X obj 428 671 pack;
#X obj 428 637 moses 18;
#X msg 425 849 ribbon \$2;
#X obj 279 273 comport 5 115200;
#X msg 359 185 49;
#X msg 400 227 0;
#X msg 337 751 fader \$1 \$2;
#X msg 253 752 pot \$1 \$2;
#X obj 514 789 s ctlInput;
#X obj 514 667 pack;
#X msg 514 746 pot 9 \$2;
#X obj 514 633 moses 19;
#X obj 583 789 s ctlInput;
#X obj 583 667 pack;
#X msg 583 746 fader 9 \$2;
#X obj 585 633 moses 20;
#X obj 677 780 s ctlInput;
#X obj 676 694 pack;
#X msg 676 745 buttons \$1 \$2;
#X obj 694 270 route buttons;
#X obj 673 633 - 19;
#X obj 672 582 moses 38;
#X obj 704 315 route 5;
#X obj 795 422 delay 1000;
#X msg 826 477 49;
#X obj 301 583 / 1000;
#X obj 741 659 - 1;
#X obj 754 687 * -1;
#X obj 279 248 r comctl2;
#X obj 895 606 s comctl2;
#X obj 334 660 - 8;
#X obj 290 559 clip 0 1000;
#X obj 428 696 unpack;
#X obj 426 823 pack;
#X msg 443 745 0;
#X obj 441 720 moses 0.05;
#X obj 471 744 - 0.05;
#X obj 469 767 * 1.1;
#X obj 443 792 clip 0 1;
#X obj 874 384 b;
#X obj 900 350 bng 15 250 50 0 empty empty empty 17 7 0 10 -262144
-1 -1;
#X msg 877 423 open 0;
#X obj 872 323 loadbang;
#X connect 0 0 59 0;
#X connect 1 0 59 0;
#X connect 4 0 59 0;
#X connect 5 0 6 0;
#X connect 5 1 19 0;
#X connect 6 0 7 0;
#X connect 6 0 17 0;
#X connect 6 1 13 0;
#X connect 7 0 8 1;
#X connect 8 0 12 1;
#X connect 8 0 56 0;
#X connect 8 0 61 0;
#X connect 10 0 59 0;
#X connect 11 0 8 0;
#X connect 13 0 14 0;
#X connect 13 1 11 0;
#X connect 14 0 16 0;
#X connect 15 0 12 0;
#X connect 15 0 22 0;
#X connect 16 0 15 0;
#X connect 18 0 8 1;
#X connect 19 0 18 0;
#X connect 19 0 14 1;
#X connect 19 1 14 1;
#X connect 21 0 37 0;
#X connect 22 0 21 0;
#X connect 22 1 28 0;
#X connect 24 0 49 0;
#X connect 27 0 36 0;
#X connect 28 0 60 0;
#X connect 28 1 31 0;
#X connect 30 0 62 0;
#X connect 31 0 30 0;
#X connect 31 1 41 0;
#X connect 32 0 29 0;
#X connect 33 0 5 0;
#X connect 34 0 33 0;
#X connect 35 0 33 0;
#X connect 36 0 26 0;
#X connect 37 0 20 0;
#X connect 39 0 40 0;
#X connect 40 0 38 0;
#X connect 41 0 39 0;
#X connect 41 1 45 0;
#X connect 43 0 44 0;
#X connect 44 0 42 0;
#X connect 45 0 43 0;
#X connect 45 1 51 0;
#X connect 47 0 48 0;
#X connect 48 0 46 0;
#X connect 49 0 52 0;
#X connect 50 0 47 0;
#X connect 51 0 50 0;
#X connect 53 0 54 0;
#X connect 54 0 59 0;
#X connect 55 0 27 1;
#X connect 55 0 21 1;
#X connect 55 0 30 1;
#X connect 55 0 39 1;
#X connect 55 0 43 1;
#X connect 56 0 57 0;
#X connect 57 0 47 1;
#X connect 58 0 33 0;
#X connect 60 0 27 0;
#X connect 61 0 55 0;
#X connect 62 0 63 0;
#X connect 62 1 65 0;
#X connect 63 0 32 0;
#X connect 64 0 68 0;
#X connect 65 0 64 0;
#X connect 65 1 66 0;
#X connect 66 0 67 0;
#X connect 67 0 68 0;
#X connect 68 0 63 1;
#X connect 69 0 71 0;
#X connect 69 0 53 0;
#X connect 70 0 69 0;
#X connect 71 0 59 0;
