#N canvas 0 28 1920 1108 10;
#X msg 288 60 close;
#X msg 350 122 devices;
#X obj 104 63 comport 1 115200;
#X obj 70 99 t f f;
#X obj 97 126 spigot;
#X obj 167 334 pack;
#X obj 136 197 int;
#X obj 176 179 + 1;
#X obj 160 276 spigot;
#X obj 35 68 sel 250;
#X msg 35 108 1;
#X msg 35 179 0;
#X obj 97 269 spigot;
#X obj 97 157 t f f b;
#X obj 124 317 int;
#X msg 146 108 0;
#X obj 185 90 sel 1;
#X obj 130 245 == 0;
#X obj 193 250 == 1;
#X obj 160 300 t b f;
#X obj 201 482 unpack;
#X obj 202 513 sel 0 1 2 3 4 5 6 7 8 9 10 11 12 13 14 15;
#X msg 228 583 2 3;
#X msg 248 607 3 3;
#X msg 201 561 1 3;
#X msg 269 630 4 3;
#X msg 277 565 1 2;
#X msg 304 587 2 2;
#X msg 324 611 3 2;
#X msg 345 634 4 2;
#X msg 346 565 1 1;
#X msg 375 587 2 1;
#X msg 395 611 3 1;
#X msg 416 635 4 1;
#X obj 250 672 pack f f f;
#X obj 250 803 s loopBtn;
#X obj 694 246 r 2keyfoot;
#X obj 694 575 s comKey;
#X obj 377 173 s comKey;
#X obj 114 18 r comKey;
#X obj 694 306 route led;
#X obj 694 530 +;
#X obj 748 504 sel 0 1;
#X msg 748 530 16;
#X msg 786 531 0;
#X obj 694 470 unpack;
#X obj 368 11 loadbang;
#X msg 555 562 1;
#X obj 97 292 - 200;
#X obj 555 611 pack;
#X obj 555 652 unpack;
#X obj 645 656 pack;
#X msg 603 607 1;
#X msg 645 607 2;
#X obj 645 683 s LorNCH4Oct;
#X obj 871 404 r LorN;
#X msg 872 436 14 \$1;
#X obj 921 513 r wii-nunCh+4;
#X obj 851 519 r octave;
#X obj 851 556 int;
#X obj 921 549 int;
#X msg 851 592 15 \$1;
#X obj 868 480 sel 1 0;
#X obj 149 678 r wii-nunCh+4;
#X obj 149 702 sel 0 1;
#X msg 149 729 0;
#X msg 181 729 4;
#X obj -20 506 unpack;
#X obj -20 664 t f;
#X obj -7 421 r LorN;
#X obj -33 467 spigot;
#X obj 260 463 spigot;
#X obj -20 864 s toAll;
#X obj -93 551 r octave;
#X msg -70 619 12;
#X msg -93 640 0;
#X obj -93 579 sel 0 1;
#X obj -20 631 + 0;
#X obj 430 1027 s swPreset;
#X obj 250 718 unpack f f f;
#X obj 250 771 pack f f f;
#X obj 250 746 + 0;
#X obj 509 177 r wii-nunCh+4;
#X obj 694 334 unpack;
#X obj 694 439 pack;
#X obj 509 248 sel 0 1;
#X obj 694 374 -;
#X msg 509 296 0;
#X msg 532 271 12;
#X obj 694 405 moses 0;
#X obj 586 287 until;
#X msg 586 226 12;
#X obj 586 329 int;
#X obj 625 312 + 1;
#X obj 586 259 t f b;
#X msg 632 276 0;
#X obj 586 380 pack f 0;
#X obj 509 209 t f b;
#X obj 762 422 moses 12;
#X msg -20 720 \$1 100;
#X obj -20 807 list prepend ploop;
#X obj -20 772 list prepend pythonotes;
#X obj 514 455 unpack;
#X obj 514 482 sel 12 13 14 15;
#X obj -20 555 moses 12;
#X obj -20 605 + 48;
#X obj 694 279 spigot;
#X obj 665 29 r LorN;
#X obj 697 200 == 0;
#X obj 832 215 r LorN;
#X obj 905 212 r wii-nunCh+4;
#X obj 832 241 sel 0;
#X obj 867 285 s ledChng;
#X obj 905 246 t b;
#X obj 168 367 s pressedKeys;
#X obj -33 392 r pressedKeys;
#X obj 260 398 r pressedKeys;
#X obj 514 431 r pressedKeys;
#X obj 398 718 r pressedKeys;
#X obj 430 805 sel 12;
#X obj 451 832 int;
#X obj 430 773 unpack;
#X obj 398 885 spigot;
#X obj 398 915 unpack;
#X obj 398 743 t a a;
#X obj 398 939 moses 12;
#X obj 451 916 s swPtchKey;
#X obj 717 29 r swPtchKey;
#X obj 680 57 t b f;
#X obj 665 105 +;
#X obj 697 100 loadbang;
#X msg 697 128 0;
#X obj 665 129 > 0;
#X obj 884 162 r swPtchKey;
#X obj 884 188 sel 0;
#X obj 367 317 r LorN;
#X obj 419 317 r swPtchKey;
#X obj 382 345 t b f;
#X obj 367 393 +;
#X obj 401 390 loadbang;
#X obj 367 446 t f;
#X obj 367 417 == 0;
#X msg 401 418 1;
#X obj 430 997 change;
#X obj 497 839 sel 1;
#X obj 398 967 t b f;
#X obj 501 984 delay 50;
#X obj 776 347 r swPtchKey;
#X msg 776 374 12 \$1;
#X obj 587 727 s recKey;
#X obj 587 695 sel 1;
#X obj 869 347 r rec;
#X msg 869 374 13 \$1;
#X obj 831 681 r preset;
#X obj 831 753 int;
#X obj 831 785 spigot;
#X obj 883 721 r swPtchKey;
#X obj 883 749 t b f;
#X obj 831 898 until;
#X msg 832 855 12;
#X obj 831 935 int;
#X obj 891 918 + 1;
#X obj 832 877 t f b;
#X msg 884 893 0;
#X floatatom 754 927 5 0 0 0 - - - 0;
#X obj 867 973 sel;
#X obj 832 811 t b f;
#X obj 864 1031 pack;
#X msg 867 999 1;
#X msg 910 1001 0;
#X obj 814 985 t f f;
#X obj 665 158 t b f;
#X obj 832 833 delay 50;
#X obj 663 856 int;
#X obj 663 888 spigot;
#X obj 715 852 t b f;
#X obj 663 1001 until;
#X msg 664 958 12;
#X obj 663 1038 int;
#X obj 723 1021 + 1;
#X obj 664 980 t f b;
#X msg 716 996 0;
#X obj 699 1076 sel;
#X obj 664 914 t b f;
#X obj 696 1134 pack;
#X msg 699 1102 1;
#X msg 742 1104 0;
#X obj 691 1170 print;
#X obj 646 1088 t f f;
#X obj 664 936 delay 50;
#X obj 715 813 r LorN;
#X obj 27 604 s noteKeys;
#X obj 658 756 r noteKeys;
#X obj 195 860 r swPtchKey;
#X obj 214 1104 s LorN;
#X msg 198 982 0;
#X obj 296 916 r LorN;
#X obj 196 947 sel 0 1;
#X obj 296 1005 spigot;
#X obj 289 966 == 0;
#X obj 205 894 t f f;
#X obj 282 1045 int;
#X obj 226 1024 delay 50;
#X obj 461 871 tgl 15 0 empty empty empty 17 7 0 10 #fcfcfc #000000 #000000 0 1;
#X msg 392 77 open 8;
#X msg 319 78 open 0;
#X obj 351 41 delay 2000;
#N canvas 303 355 450 300 keyboardIn 0;
#X obj 132 20 keyname;
#X obj 124 175 pack;
#X obj 124 128 int;
#X obj 171 56 sel y x c v b n m .;
#X obj 100 94 t b f;
#X obj 124 209 s pressedKeys;
#X msg 171 89 0;
#X msg 184 111 1;
#X msg 198 136 2;
#X msg 212 161 3;
#X msg 226 188 4;
#X msg 240 215 5;
#X msg 254 241 6;
#X msg 268 267 7;
#X obj 101 66 change;
#X connect 0 0 14 0;
#X connect 0 1 3 0;
#X connect 1 0 5 0;
#X connect 2 0 1 0;
#X connect 3 0 6 0;
#X connect 3 1 7 0;
#X connect 3 2 8 0;
#X connect 3 3 9 0;
#X connect 3 4 10 0;
#X connect 3 5 11 0;
#X connect 3 6 12 0;
#X connect 3 7 13 0;
#X connect 4 0 2 0;
#X connect 4 1 1 1;
#X connect 6 0 2 1;
#X connect 7 0 2 1;
#X connect 8 0 2 1;
#X connect 9 0 2 1;
#X connect 10 0 2 1;
#X connect 11 0 2 1;
#X connect 12 0 2 1;
#X connect 13 0 2 1;
#X connect 14 0 4 0;
#X restore 220 316 pd keyboardIn;
#X connect 0 0 38 0;
#X connect 1 0 38 0;
#X connect 2 0 3 0;
#X connect 3 0 9 0;
#X connect 3 1 4 0;
#X connect 4 0 13 0;
#X connect 5 0 114 0;
#X connect 6 0 7 0;
#X connect 6 0 16 0;
#X connect 6 0 17 0;
#X connect 6 0 18 0;
#X connect 7 0 6 1;
#X connect 8 0 19 0;
#X connect 9 0 10 0;
#X connect 9 0 11 0;
#X connect 10 0 4 1;
#X connect 11 0 6 1;
#X connect 12 0 48 0;
#X connect 13 0 12 0;
#X connect 13 1 8 0;
#X connect 13 2 6 0;
#X connect 14 0 5 0;
#X connect 15 0 4 1;
#X connect 16 0 15 0;
#X connect 17 0 12 1;
#X connect 18 0 8 1;
#X connect 19 0 14 0;
#X connect 19 1 5 1;
#X connect 20 0 21 0;
#X connect 20 1 34 2;
#X connect 21 0 24 0;
#X connect 21 1 22 0;
#X connect 21 2 23 0;
#X connect 21 3 25 0;
#X connect 21 4 26 0;
#X connect 21 5 27 0;
#X connect 21 6 28 0;
#X connect 21 7 29 0;
#X connect 21 8 30 0;
#X connect 21 9 31 0;
#X connect 21 10 32 0;
#X connect 21 11 33 0;
#X connect 22 0 34 0;
#X connect 23 0 34 0;
#X connect 24 0 34 0;
#X connect 25 0 34 0;
#X connect 26 0 34 0;
#X connect 27 0 34 0;
#X connect 28 0 34 0;
#X connect 29 0 34 0;
#X connect 30 0 34 0;
#X connect 31 0 34 0;
#X connect 32 0 34 0;
#X connect 33 0 34 0;
#X connect 34 0 79 0;
#X connect 36 0 106 0;
#X connect 39 0 2 0;
#X connect 40 0 83 0;
#X connect 41 0 37 0;
#X connect 42 0 43 0;
#X connect 42 1 44 0;
#X connect 43 0 41 1;
#X connect 44 0 41 1;
#X connect 45 0 41 0;
#X connect 45 1 42 0;
#X connect 46 0 206 0;
#X connect 47 0 49 0;
#X connect 48 0 14 1;
#X connect 49 0 50 0;
#X connect 50 1 150 0;
#X connect 51 0 54 0;
#X connect 52 0 51 0;
#X connect 53 0 51 0;
#X connect 55 0 56 0;
#X connect 55 0 62 0;
#X connect 56 0 45 0;
#X connect 57 0 60 0;
#X connect 58 0 59 0;
#X connect 59 0 61 0;
#X connect 60 0 61 0;
#X connect 61 0 45 0;
#X connect 62 0 59 0;
#X connect 62 1 60 0;
#X connect 63 0 64 0;
#X connect 64 0 65 0;
#X connect 64 1 66 0;
#X connect 65 0 81 1;
#X connect 66 0 81 1;
#X connect 67 0 104 0;
#X connect 68 0 99 0;
#X connect 69 0 70 1;
#X connect 70 0 67 0;
#X connect 71 0 20 0;
#X connect 73 0 76 0;
#X connect 74 0 77 1;
#X connect 75 0 77 1;
#X connect 76 0 75 0;
#X connect 76 1 74 0;
#X connect 77 0 68 0;
#X connect 79 0 81 0;
#X connect 79 1 80 1;
#X connect 79 2 80 2;
#X connect 80 0 35 0;
#X connect 81 0 80 0;
#X connect 82 0 97 0;
#X connect 83 0 86 0;
#X connect 83 1 84 1;
#X connect 84 0 45 0;
#X connect 85 0 87 0;
#X connect 85 1 88 0;
#X connect 86 0 89 0;
#X connect 87 0 86 1;
#X connect 88 0 86 1;
#X connect 89 1 98 0;
#X connect 90 0 92 0;
#X connect 91 0 94 0;
#X connect 92 0 93 0;
#X connect 92 0 96 0;
#X connect 93 0 92 1;
#X connect 94 0 90 0;
#X connect 94 1 95 0;
#X connect 95 0 92 1;
#X connect 96 0 45 0;
#X connect 97 0 85 0;
#X connect 97 1 91 0;
#X connect 98 0 84 0;
#X connect 99 0 101 0;
#X connect 100 0 72 0;
#X connect 101 0 100 0;
#X connect 102 0 103 0;
#X connect 102 1 51 1;
#X connect 102 1 49 1;
#X connect 103 1 47 0;
#X connect 103 2 52 0;
#X connect 103 3 53 0;
#X connect 104 0 105 0;
#X connect 104 0 191 0;
#X connect 105 0 77 0;
#X connect 106 0 40 0;
#X connect 107 0 129 0;
#X connect 108 0 106 1;
#X connect 109 0 111 0;
#X connect 110 0 113 0;
#X connect 111 0 112 0;
#X connect 113 0 112 0;
#X connect 115 0 70 0;
#X connect 116 0 71 0;
#X connect 117 0 102 0;
#X connect 118 0 124 0;
#X connect 119 0 120 0;
#X connect 120 0 144 0;
#X connect 121 0 119 0;
#X connect 121 1 120 1;
#X connect 122 0 123 0;
#X connect 123 0 125 0;
#X connect 124 0 122 0;
#X connect 124 1 121 0;
#X connect 125 0 145 0;
#X connect 127 0 128 0;
#X connect 128 0 129 0;
#X connect 128 1 129 1;
#X connect 129 0 132 0;
#X connect 130 0 131 0;
#X connect 131 0 171 0;
#X connect 132 0 171 0;
#X connect 133 0 134 0;
#X connect 134 0 112 0;
#X connect 135 0 138 0;
#X connect 136 0 137 0;
#X connect 137 0 138 0;
#X connect 137 1 138 1;
#X connect 138 0 141 0;
#X connect 139 0 142 0;
#X connect 140 0 71 1;
#X connect 141 0 140 0;
#X connect 142 0 140 0;
#X connect 143 0 78 0;
#X connect 144 0 203 0;
#X connect 145 0 146 0;
#X connect 145 1 143 0;
#X connect 147 0 148 0;
#X connect 148 0 45 0;
#X connect 150 0 149 0;
#X connect 151 0 152 0;
#X connect 152 0 45 0;
#X connect 153 0 154 0;
#X connect 154 0 155 0;
#X connect 155 0 166 0;
#X connect 156 0 157 0;
#X connect 157 0 154 0;
#X connect 157 1 155 1;
#X connect 158 0 160 0;
#X connect 159 0 162 0;
#X connect 160 0 161 0;
#X connect 160 0 164 0;
#X connect 160 0 170 0;
#X connect 161 0 160 1;
#X connect 162 0 158 0;
#X connect 162 1 163 0;
#X connect 163 0 160 1;
#X connect 165 0 168 0;
#X connect 165 1 169 0;
#X connect 166 0 172 0;
#X connect 166 1 165 1;
#X connect 167 0 45 0;
#X connect 168 0 167 1;
#X connect 169 0 167 1;
#X connect 170 0 167 0;
#X connect 170 1 165 0;
#X connect 171 0 91 0;
#X connect 171 1 108 0;
#X connect 172 0 159 0;
#X connect 173 0 174 0;
#X connect 174 0 183 0;
#X connect 175 0 173 0;
#X connect 175 1 174 1;
#X connect 176 0 178 0;
#X connect 177 0 180 0;
#X connect 178 0 179 0;
#X connect 178 0 188 0;
#X connect 179 0 178 1;
#X connect 180 0 176 0;
#X connect 180 1 181 0;
#X connect 181 0 178 1;
#X connect 182 0 185 0;
#X connect 182 1 186 0;
#X connect 183 0 189 0;
#X connect 183 1 182 1;
#X connect 184 0 187 0;
#X connect 184 0 45 0;
#X connect 185 0 184 1;
#X connect 186 0 184 1;
#X connect 188 0 184 0;
#X connect 188 1 182 0;
#X connect 189 0 177 0;
#X connect 190 0 175 0;
#X connect 192 0 173 0;
#X connect 193 0 200 0;
#X connect 195 0 194 0;
#X connect 196 0 198 0;
#X connect 197 0 202 0;
#X connect 197 1 195 0;
#X connect 198 0 201 1;
#X connect 199 0 198 1;
#X connect 200 0 197 0;
#X connect 200 1 199 0;
#X connect 201 0 194 0;
#X connect 202 0 201 0;
#X connect 203 0 122 1;
#X connect 203 0 126 0;
#X connect 204 0 38 0;
#X connect 205 0 38 0;
#X connect 206 0 205 0;
