#N canvas 89 124 1280 626 10;
#X obj 100 347 metro 150;
#X obj 100 472 s clock;
#X obj 208 198 r bpm;
#X obj 144 171 s bpm, f 6;
#X msg 208 262 60000;
#X obj 208 232 t b f;
#X obj 208 294 /;
#X msg 127 375 0;
#X obj 231 38 loadbang;
#X msg 231 64 110;
#X obj 100 232 t f f;
#X obj 100 100 tgl 40 0 empty empty run 0 20 0 20 -228856 -1 -1 1 1
;
#X obj 208 330 / 24;
#X obj 82 23 loadbang;
#X obj 144 100 nbx 3 40 10 200 0 0 empty empty empty 0 -8 0 35 -228856
-1 -1 110 256;
#X obj 100 445 t f f;
#X msg 83 53 0;
#X obj 100 416 int;
#X obj 156 433 + 1;
#X obj 17 83 r run;
#X obj 144 11 r fromG;
#X obj 144 45 route bpm;
#X obj 127 261 sel 0;
#X obj 17 115 pipe 20;
#X connect 0 0 17 0;
#X connect 2 0 5 0;
#X connect 4 0 6 0;
#X connect 5 0 4 0;
#X connect 5 1 6 1;
#X connect 6 0 12 0;
#X connect 7 0 17 1;
#X connect 8 0 9 0;
#X connect 9 0 14 0;
#X connect 10 0 0 0;
#X connect 10 1 22 0;
#X connect 11 0 10 0;
#X connect 12 0 0 1;
#X connect 13 0 16 0;
#X connect 14 0 3 0;
#X connect 15 0 1 0;
#X connect 16 0 11 0;
#X connect 17 0 18 0;
#X connect 17 0 15 0;
#X connect 18 0 17 1;
#X connect 19 0 23 0;
#X connect 20 0 21 0;
#X connect 21 0 14 0;
#X connect 22 0 7 0;
#X connect 23 0 11 0;
#X coords 0 -1 1 1 160 40 2 100 100;
