#N canvas 0 67 1280 653 10;
#X msg 10 -63 \; pd dsp 1;
#X msg 10 -21 \; pd dsp 0;
#X obj 10 -89 loadbang;
#N canvas 666 176 263 214 filters 0;
#X obj 47 41 inlet~;
#X obj 47 176 outlet~;
#X text 103 79 DC filter;
#X text 140 140 sibilant filter;
#X obj 125 41 inlet;
#X text 165 40 freq;
#X obj 47 80 hip~ 160;
#X obj 47 140 lop~ 2000;
#X connect 0 0 6 0;
#X connect 4 0 7 1;
#X connect 6 0 7 0;
#X connect 7 0 1 0;
#X restore 595 -34 pd filters;
#X text 638 -73 lo pass filter freq;
#X obj 631 88 ftom;
#X obj 631 114 s pitch;
#N canvas 640 67 640 653 servo 0;
#X obj 189 515 s comctl;
#X msg 189 389 \$1;
#X msg 189 480 214 \$1;
#X obj 189 418 + 0;
#X obj 119 19 r pick;
#X obj 111 56 route hit mute unmute;
#X msg 259 -30 \; pick hit;
#X msg 366 -32 \; pick mute;
#X msg 446 -38 \; pick unmute;
#X obj 375 31 loadbang;
#X obj 377 56 t b b b;
#X obj 354 28 bng 15 250 50 0 empty empty empty 17 7 0 10 -262144 -1
-1;
#N canvas 527 265 450 300 switchOff 0;
#X obj 187 -50 inlet;
#X obj 187 236 outlet;
#X msg 187 206 0;
#X obj 187 80 int 0;
#X obj 187 107 + 1;
#X obj 187 28 loadbang;
#X msg 187 -24 0;
#X obj 187 154 change;
#X obj 187 178 sel 1;
#X obj 187 4 t b f;
#X obj 187 130 > 1;
#X obj 187 53 metro 1000;
#X connect 0 0 6 0;
#X connect 2 0 1 0;
#X connect 3 0 4 0;
#X connect 4 0 3 1;
#X connect 4 0 10 0;
#X connect 5 0 11 0;
#X connect 6 0 9 0;
#X connect 7 0 8 0;
#X connect 8 0 2 0;
#X connect 9 0 11 0;
#X connect 9 1 3 1;
#X connect 10 0 7 0;
#X connect 11 0 3 0;
#X restore 203 449 pd switchOff;
#X obj 33 56 loadbang;
#X msg 81 401 60;
#X msg 63 367 150;
#X floatatom 111 374 5 0 0 0 - - -, f 5;
#X msg 81 423;
#X connect 1 0 3 0;
#X connect 2 0 0 0;
#X connect 3 0 2 0;
#X connect 3 0 12 0;
#X connect 4 0 5 0;
#X connect 5 0 15 0;
#X connect 5 1 14 0;
#X connect 9 0 10 0;
#X connect 11 0 10 0;
#X connect 12 0 2 0;
#X connect 14 0 3 0;
#X connect 14 0 17 0;
#X connect 15 0 3 0;
#X connect 16 0 3 0;
#X restore 465 -11 pd servo;
#X msg 210 41 close;
#X obj 210 92 comport 1 115200;
#X msg 210 -15 devices;
#X obj 210 63 r comctl;
#X obj 224 -39 shell;
#X obj 210 116 s comrcv;
#X floatatom 589 119 5 0 0 0 - - -, f 5;
#X text 268 169 midi commands;
#X text 267 186 24-36 pitch 23 step enable 22 home 12 NoteOn_NoteOff
CC1 Speed;
#X msg 334 99 211;
#X msg 371 94 10;
#N canvas 119 181 664 686 kickup 0;
#X obj 198 404 s comctl;
#X msg 113 305 10;
#X msg 198 370 216 \$1;
#X obj 198 174 r kickup;
#X obj 198 238 clip 0 1;
#X obj 277 261 -;
#X obj 299 196 t b b;
#X floatatom 277 302 5 0 0 0 - - -, f 5;
#X obj 305 153 bng 15 250 50 0 empty empty empty 17 7 0 10 -262144
-1 -1;
#X obj 198 307 +;
#X obj 198 278 *;
#X text 340 218 upper limit;
#X text 356 243 lower limit;
#X obj 324 116 loadbang;
#X msg 326 244 50;
#X msg 299 220 100;
#X obj 198 338 pipe 0;
#X connect 1 0 2 0;
#X connect 2 0 0 0;
#X connect 3 0 4 0;
#X connect 4 0 10 0;
#X connect 5 0 7 0;
#X connect 5 0 10 1;
#X connect 6 0 15 0;
#X connect 6 1 14 0;
#X connect 8 0 6 0;
#X connect 9 0 16 0;
#X connect 10 0 9 0;
#X connect 13 0 6 0;
#X connect 14 0 5 1;
#X connect 14 0 9 1;
#X connect 15 0 5 0;
#X connect 16 0 2 0;
#X restore 466 48 pd kickup;
#N canvas 124 182 450 300 latency 0;
#X obj 111 27 adc~ 1;
#X obj 207 101 s cntrl;
#X msg 206 47 kick \$1;
#X msg 281 14 1;
#X msg 276 56 servo1 \$1;
#X obj 333 14 tgl 15 0 empty empty empty 17 7 0 10 -262144 -1 -1 0
1;
#X obj 139 229 change;
#X obj 158 262 sel 1;
#X obj 158 292 bng 15 250 50 0 empty empty empty 17 7 0 10 -262144
-1 -1;
#X obj 326 136 expr $f1 > 70;
#X obj 134 179 sel 1;
#X obj 194 180 sel 1;
#X msg 136 204 1;
#X msg 183 203 0;
#X floatatom 252 188 8 0 0 0 - - -, f 8;
#X obj 244 127 b;
#X msg 200 11 14;
#X obj 130 59 env~ 512;
#X obj 248 157 realtime;
#X obj 142 152 > 70;
#X obj 184 150 < 50;
#X connect 0 0 17 0;
#X connect 2 0 1 0;
#X connect 2 0 15 0;
#X connect 3 0 4 0;
#X connect 3 0 15 0;
#X connect 4 0 1 0;
#X connect 5 0 4 0;
#X connect 5 0 15 0;
#X connect 6 0 7 0;
#X connect 7 0 8 0;
#X connect 7 0 18 1;
#X connect 10 0 12 0;
#X connect 11 0 13 0;
#X connect 12 0 6 0;
#X connect 13 0 6 0;
#X connect 15 0 18 0;
#X connect 16 0 2 0;
#X connect 17 0 19 0;
#X connect 17 0 20 0;
#X connect 18 0 14 0;
#X connect 19 0 10 0;
#X connect 20 0 11 0;
#X restore 462 118 pd latency;
#X msg 120 283 home;
#X obj 309 330 s stepper2;
#X msg 310 276 home;
#X obj 119 337 s stepper1;
#X obj 746 144 r steppos1;
#X floatatom 764 183 5 0 0 0 - - -, f 5;
#X msg 209 323 getpos;
#X floatatom 831 189 5 0 0 0 - - -, f 5;
#X obj 835 148 r steppos2;
#X msg 412 313 getpos;
#X msg 449 282 pos 1100;
#N canvas 2 221 1041 647 midi 0;
#X msg 59 197 home;
#X msg 101 197 enbl 1;
#X obj 58 251 s stepper1;
#X msg 19 168 getpos;
#X obj 124 -6 stripnote;
#X obj 172 168 tabread pitchtable;
#X obj 138 -52 unpack;
#X obj 127 35 moses 48;
#X obj 251 53 int;
#X obj 251 19 b;
#X msg 172 197 pos \$1;
#X obj 251 74 / 127;
#X msg 251 202 spd \$1;
#X msg 387 308 \; pick hit;
#X obj 586 159 > 0;
#X obj 586 182 sel 1;
#X obj 586 243 int;
#X obj 586 135 t f f;
#X obj 586 80 int;
#X obj 426 154 stripnote;
#X obj 1140 158 / 127;
#X obj 990 121 / 127;
#X msg 974 279 \; stepper2 pos \$1;
#X msg 1125 278 \; stepper2 spd \$1;
#X obj 973 155 * 1500;
#X obj 586 270 / 127;
#X obj 274 -87 pack;
#X obj 426 116 unpack;
#X obj 588 -42 unpack;
#X obj 971 204 change;
#X obj 1147 213 change;
#X obj 441 18 s ctlin;
#X obj 474 -79 == 1;
#X obj 441 -49 spigot;
#X obj 441 -123 ctlin;
#X obj 441 -81 pack;
#X obj 1070 -63 r ctlin;
#X obj 1069 -32 unpack;
#X obj 990 31 spigot;
#X obj 1139 75 spigot;
#X obj 172 116 - 48;
#X obj 274 -56 spigot;
#X obj 441 -14 spigot;
#X obj 538 -119 r direct_midi;
#X obj 172 82 clip 48 72;
#X obj 274 -120 notein 1;
#X msg 586 299 \; kickup \$1;
#X obj 251 140 t f b;
#X obj 341 -89 pack;
#X obj 341 -58 spigot;
#X obj 341 -21 s notein2;
#X obj 274 -19 s notein1;
#X obj 139 -88 r notein1;
#X msg 701 284 \; stepper2 pos \$1;
#X msg 837 277 \; stepper2 spd \$1;
#X obj 701 258 change;
#X obj 831 226 change;
#X obj 719 73 stripnote;
#X obj 719 44 unpack;
#X obj 720 -5 r notein2;
#X obj 703 136 int;
#X obj 807 136 int;
#X obj 701 166 / 127;
#X obj 701 231 * 1500;
#X obj 701 188 * -1;
#X obj 701 211 + 1;
#X obj 826 186 / 127;
#X obj 711 106 sel 40 41;
#X obj 15 15 r ctlin;
#X obj 15 49 unpack;
#X obj 54 80 sel 123;
#X msg 54 106 0;
#X obj 63 -86 r extnote;
#X obj 351 -120 notein 2;
#X obj 238 350 r ctlin;
#X obj 238 373 unpack;
#X obj 243 422 spigot;
#X obj 61 385 tabread pitchtable;
#X msg 147 360 0;
#X floatatom -1 394 5 0 0 0 - - -, f 5;
#X msg 101 352 24;
#X obj 244 449 / 127;
#X obj 78 459 -;
#X obj 78 425 int;
#X obj 113 426 int;
#X obj 77 492 *;
#X obj 78 525 +;
#X floatatom 79 561 5 0 0 0 - - -, f 5;
#X obj 144 310 t b b b b;
#X obj 330 37 r ctlin;
#X obj 330 60 unpack;
#X obj 330 108 spigot;
#X obj 330 140 / 127;
#X obj 1050 14 == 6;
#X obj 1166 10 == 7;
#X obj 364 81 == 3;
#X obj 277 395 == 2;
#X obj 253 117 clip 0 1;
#X obj 253 96 * 1.5;
#X obj 727 -155 r notein1;
#X obj 727 -128 unpack;
#X obj 728 -80 int;
#X obj 728 -48 tabwrite midinotes;
#X obj 700 -189 table midinotes;
#X msg 814 -125 \; midinotes resize 127;
#X msg 819 -160 \; midinotes const 0;
#X obj 163 279 loadbang;
#X obj 728 -106 t b f;
#X obj 823 -194 loadbang;
#X obj 273 -208 unpack f f f;
#X obj 273 -181 spigot;
#X obj 354 -178 != 10;
#X obj 273 -158 pack f f f;
#X obj 586 -71 r notein1;
#X obj 426 77 r notein1;
#X obj 34 -51 r wii-note;
#X msg 82 -28 127;
#X obj 34 -27 t f b;
#X obj 928 70 r wii-acc-damper;
#X obj 296 456 r wii-acc-pitch;
#X obj 586 379 s 2ch-1-3;
#X msg 586 349 vel \$1;
#X msg 263 228 vel \$1;
#X msg 179 227 pitch \$1;
#X obj 200 254 s 2ch-1-1;
#X msg 476 569 pitch \$1;
#X obj 476 599 s 2ch-1-2;
#X msg 436 518 2;
#X msg 1123 330 vel \$1;
#X obj 1030 185 s 2ch-1-4;
#X obj 1123 361 s 2ch-1-5;
#X msg 1030 156 vel \$1;
#X obj 496 279 moses 1;
#X obj 496 253 int;
#X obj 496 131 sel 47;
#X msg 493 500 1;
#X msg 538 538 0;
#X msg 542 410 \; pick unmute;
#X msg 496 337 \; pick mute;
#X obj 273 -235 route note cc;
#X obj 273 -266 r midiin;
#X obj 426 229 sel 45 46 44;
#X obj 586 54 sel 46 47 44;
#X obj 586 214 delay 10;
#X obj 393 -263 r eDrumIn;
#X connect 0 0 2 0;
#X connect 1 0 2 0;
#X connect 3 0 2 0;
#X connect 4 0 7 0;
#X connect 4 1 8 1;
#X connect 5 0 10 0;
#X connect 6 0 4 0;
#X connect 6 1 4 1;
#X connect 7 1 9 0;
#X connect 7 1 44 0;
#X connect 8 0 11 0;
#X connect 9 0 8 0;
#X connect 10 0 2 0;
#X connect 11 0 98 0;
#X connect 12 0 2 0;
#X connect 14 0 15 0;
#X connect 15 0 143 0;
#X connect 16 0 25 0;
#X connect 17 0 14 0;
#X connect 17 1 16 1;
#X connect 18 0 17 0;
#X connect 19 0 141 0;
#X connect 20 0 30 0;
#X connect 21 0 24 0;
#X connect 21 0 131 0;
#X connect 24 0 29 0;
#X connect 25 0 46 0;
#X connect 25 0 121 0;
#X connect 26 0 41 0;
#X connect 27 0 19 0;
#X connect 27 0 134 0;
#X connect 27 1 19 1;
#X connect 27 1 133 1;
#X connect 28 0 142 0;
#X connect 28 1 18 1;
#X connect 29 0 22 0;
#X connect 30 0 23 0;
#X connect 30 0 128 0;
#X connect 32 0 33 1;
#X connect 33 0 42 0;
#X connect 34 0 35 0;
#X connect 34 1 35 1;
#X connect 34 2 32 0;
#X connect 35 0 33 0;
#X connect 36 0 37 0;
#X connect 37 0 38 0;
#X connect 37 0 39 0;
#X connect 37 1 93 0;
#X connect 37 1 94 0;
#X connect 38 0 21 0;
#X connect 39 0 20 0;
#X connect 40 0 5 0;
#X connect 40 0 123 0;
#X connect 41 0 51 0;
#X connect 42 0 31 0;
#X connect 43 0 41 1;
#X connect 43 0 42 1;
#X connect 43 0 49 1;
#X connect 44 0 40 0;
#X connect 45 0 26 0;
#X connect 45 1 26 1;
#X connect 47 0 12 0;
#X connect 47 0 122 0;
#X connect 48 0 49 0;
#X connect 49 0 50 0;
#X connect 52 0 6 0;
#X connect 55 0 53 0;
#X connect 56 0 54 0;
#X connect 57 0 67 0;
#X connect 57 1 60 1;
#X connect 57 1 61 1;
#X connect 58 0 57 0;
#X connect 58 1 57 1;
#X connect 59 0 58 0;
#X connect 60 0 62 0;
#X connect 61 0 66 0;
#X connect 62 0 64 0;
#X connect 63 0 55 0;
#X connect 64 0 65 0;
#X connect 65 0 63 0;
#X connect 66 0 56 0;
#X connect 67 0 60 0;
#X connect 67 1 61 0;
#X connect 68 0 69 0;
#X connect 69 1 70 0;
#X connect 70 0 71 0;
#X connect 71 0 5 0;
#X connect 72 0 6 0;
#X connect 73 0 48 0;
#X connect 73 1 48 1;
#X connect 74 0 75 0;
#X connect 75 0 76 0;
#X connect 75 1 96 0;
#X connect 76 0 81 0;
#X connect 77 0 79 0;
#X connect 77 0 83 1;
#X connect 77 0 84 1;
#X connect 78 0 77 0;
#X connect 80 0 77 0;
#X connect 81 0 85 0;
#X connect 82 0 85 1;
#X connect 83 0 82 0;
#X connect 84 0 82 1;
#X connect 84 0 86 1;
#X connect 85 0 86 0;
#X connect 86 0 87 0;
#X connect 86 0 10 0;
#X connect 88 0 83 0;
#X connect 88 1 80 0;
#X connect 88 2 84 0;
#X connect 88 3 78 0;
#X connect 89 0 90 0;
#X connect 90 0 91 0;
#X connect 90 1 95 0;
#X connect 91 0 92 0;
#X connect 92 0 12 0;
#X connect 93 0 38 1;
#X connect 94 0 39 1;
#X connect 95 0 91 1;
#X connect 96 0 76 1;
#X connect 97 0 47 0;
#X connect 98 0 97 0;
#X connect 99 0 100 0;
#X connect 100 0 107 0;
#X connect 100 1 101 1;
#X connect 101 0 102 0;
#X connect 106 0 88 0;
#X connect 107 0 101 0;
#X connect 107 1 102 1;
#X connect 108 0 105 0;
#X connect 108 0 104 0;
#X connect 109 0 110 0;
#X connect 109 1 112 1;
#X connect 109 2 111 0;
#X connect 109 2 112 2;
#X connect 110 0 112 0;
#X connect 111 0 110 1;
#X connect 112 0 41 0;
#X connect 112 0 49 0;
#X connect 113 0 28 0;
#X connect 114 0 27 0;
#X connect 115 0 117 0;
#X connect 116 0 8 1;
#X connect 117 0 7 0;
#X connect 117 1 116 0;
#X connect 118 0 24 0;
#X connect 119 0 85 0;
#X connect 121 0 120 0;
#X connect 122 0 124 0;
#X connect 123 0 124 0;
#X connect 125 0 126 0;
#X connect 127 0 125 0;
#X connect 128 0 130 0;
#X connect 131 0 129 0;
#X connect 132 0 138 0;
#X connect 132 0 135 0;
#X connect 132 1 137 0;
#X connect 132 1 136 0;
#X connect 133 0 132 0;
#X connect 134 0 133 0;
#X connect 135 0 125 0;
#X connect 136 0 125 0;
#X connect 139 0 109 0;
#X connect 139 1 31 0;
#X connect 140 0 139 0;
#X connect 141 0 13 0;
#X connect 141 0 127 0;
#X connect 141 1 136 0;
#X connect 141 1 138 0;
#X connect 141 2 137 0;
#X connect 142 0 18 0;
#X connect 142 1 18 0;
#X connect 142 2 18 0;
#X connect 143 0 16 0;
#X connect 144 0 109 0;
#X restore 471 26 pd midi;
#X msg 345 299 enbl \$1;
#X msg 351 266 1;
#X msg 381 263 0;
#X obj 423 156 stepper 1;
#X msg 162 283 enbl 1;
#X msg 158 302 enbl 0;
#X obj 452 72 pitchmapper;
#X obj 671 274 s seq_edit;
#X msg 672 240 1;
#X msg 701 241 0;
#X obj 685 200 loadbang;
#X msg 759 237 1;
#X msg 788 238 0;
#X obj 758 271 s direct_midi;
#X floatatom 699 106 5 0 0 0 - - -, f 5;
#X msg 637 -53 400;
#X obj 651 -85 loadbang;
#X floatatom 759 29 5 0 0 0 - - -, f 5;
#N canvas 264 233 450 300 klick 0;
#X obj 128 193 dac~;
#X obj 31 14 noise~;
#X obj 225 -56 r clock;
#X obj 173 -23 sel 0 4 8 12;
#X obj 173 185 line~;
#X msg 181 59 1;
#X obj 129 150 *~;
#X msg 234 123 0;
#X obj 185 82 t f b;
#X obj 235 89 delay 50;
#X obj 184 160 pack 0 10;
#X obj 33 50 bp~ 2000 5;
#X obj 103 18 osc~ 700;
#X connect 2 0 3 0;
#X connect 3 0 5 0;
#X connect 3 1 5 0;
#X connect 3 2 5 0;
#X connect 3 3 5 0;
#X connect 4 0 6 1;
#X connect 5 0 8 0;
#X connect 6 0 0 0;
#X connect 6 0 0 1;
#X connect 7 0 10 0;
#X connect 8 0 10 0;
#X connect 8 1 9 0;
#X connect 9 0 7 0;
#X connect 10 0 4 0;
#X connect 11 0 6 0;
#X restore 458 97 pd klick;
#X obj 100 100 bng 40 250 50 0 empty empty home 7 20 0 12 -228856 -1
-1;
#X obj 581 -88 adc~ 1;
#X obj 170 220 t b b b b;
#X msg 304 398 \; stepper2 spd 0.8;
#X obj 204 -109 bng 15 250 50 0 empty empty empty 17 7 0 10 -262144
-1 -1;
#X obj 210 -89 t b;
#X obj 226 -116 loadbang;
#X msg 221 -67 jpnevulator --tty /dev/ttyUSB0;
#X msg 232 290 pos 0;
#N canvas 0 177 936 560 output 0;
#X obj 154 160 unpack;
#X obj 154 487 s stepper1;
#X obj 154 393 tabread pitchtable;
#X msg 154 422 pos \$1;
#X msg 187 460 spd \$1;
#X obj 154 122 r channel1-1;
#X obj 344 156 unpack;
#X obj 344 118 r channel1-2;
#X obj 344 484 s pick;
#X msg 344 317 hit;
#X msg 375 317 mute;
#X msg 408 317 unmute;
#X obj 474 153 unpack;
#X obj 474 115 r channel1-3;
#X obj 488 483 s kickup;
#X obj 575 154 unpack;
#X obj 575 116 r channel1-4;
#X obj 608 480 s stepper2;
#X msg 608 389 pos \$1;
#X msg 765 389 spd \$1;
#X obj 687 153 unpack;
#X obj 687 116 r channel1-5;
#X obj 154 214 - 0;
#X obj 344 267 sel 0 1 2;
#X obj 513 247 sel -1;
#X obj 225 226 >= 0;
#X obj 193 201 t f f;
#X obj 154 283 spigot;
#X obj 193 255 sel -1;
#X obj 614 222 sel -1;
#X obj 726 223 sel -1;
#X obj 383 185 >= 0;
#X obj 344 220 spigot;
#X obj 608 313 * 1300;
#X obj 408 238 sel -1;
#X obj 575 188 sel -1;
#X msg 575 351 0;
#X obj 687 247 sel -1;
#X msg 687 372 1;
#X obj 115 190 sel -1;
#X msg 115 283 0, f 2;
#X connect 0 0 39 0;
#X connect 0 1 26 0;
#X connect 2 0 3 0;
#X connect 3 0 1 0;
#X connect 4 0 1 0;
#X connect 5 0 0 0;
#X connect 6 0 32 0;
#X connect 6 0 34 0;
#X connect 6 1 31 0;
#X connect 7 0 6 0;
#X connect 9 0 8 0;
#X connect 10 0 8 0;
#X connect 11 0 8 0;
#X connect 12 1 24 0;
#X connect 13 0 12 0;
#X connect 15 0 35 0;
#X connect 15 1 29 0;
#X connect 16 0 15 0;
#X connect 18 0 17 0;
#X connect 19 0 17 0;
#X connect 20 0 37 0;
#X connect 20 1 30 0;
#X connect 21 0 20 0;
#X connect 22 0 27 0;
#X connect 23 0 9 0;
#X connect 23 1 10 0;
#X connect 23 2 11 0;
#X connect 24 1 14 0;
#X connect 25 0 27 1;
#X connect 26 0 28 0;
#X connect 26 1 25 0;
#X connect 27 0 2 0;
#X connect 28 1 4 0;
#X connect 29 1 33 0;
#X connect 30 1 19 0;
#X connect 31 0 32 1;
#X connect 32 0 23 0;
#X connect 33 0 18 0;
#X connect 34 0 11 0;
#X connect 35 0 36 0;
#X connect 36 0 18 0;
#X connect 37 0 38 0;
#X connect 38 0 19 0;
#X connect 39 0 40 0;
#X connect 39 1 22 0;
#X connect 40 0 3 0;
#X restore 469 138 pd output;
#X msg 210 13 open 0;
#X msg 237 256 spd 1;
#X msg 222 410 pos 2000;
#X msg 137 396 pos 3000;
#X msg 128 421 pos 4000;
#X msg 127 449 pos 5000;
#X obj 501 155 stepper 2;
#X obj 31 319 metro 4000;
#X obj 39 365 tgl 15 0 empty empty empty 17 7 0 10 -262144 -1 -1 0
1;
#X obj 37 394 sel 0 1;
#X obj 34 288 tgl 15 0 empty empty empty 17 7 0 10 -262144 -1 -1 0
1;
#X msg 70 469 pos 0;
#X msg 28 437 pos 8000;
#X msg 226 471 pos \$1;
#X floatatom 226 444 5 0 0 0 - - -, f 5;
#X obj 305 463 * 10;
#X floatatom 304 437 5 0 0 0 - - -, f 5;
#X obj 308 497 clip 0 8000;
#X msg 191 256 spd 0.7;
#X msg 493 426 339;
#X msg 457 408 278;
#X obj 678 508 s comctl;
#X msg 678 382 \$1;
#X msg 678 473 214 \$1;
#X obj 678 411 + 0;
#N canvas 527 265 450 300 switchOff 0;
#X obj 187 -50 inlet;
#X obj 187 236 outlet;
#X msg 187 206 0;
#X obj 187 80 int 0;
#X obj 187 107 + 1;
#X obj 187 28 loadbang;
#X msg 187 -24 0;
#X obj 187 154 change;
#X obj 187 178 sel 1;
#X obj 187 4 t b f;
#X obj 187 130 > 1;
#X obj 187 53 metro 1000;
#X connect 0 0 6 0;
#X connect 2 0 1 0;
#X connect 3 0 4 0;
#X connect 4 0 3 1;
#X connect 4 0 10 0;
#X connect 5 0 11 0;
#X connect 6 0 9 0;
#X connect 7 0 8 0;
#X connect 8 0 2 0;
#X connect 9 0 11 0;
#X connect 9 1 3 1;
#X connect 10 0 7 0;
#X connect 11 0 3 0;
#X restore 692 442 pd switchOff;
#X msg 570 394 60;
#X msg 552 360 150;
#X floatatom 600 367 5 0 0 0 - - -, f 5;
#X msg 570 416;
#X obj 582 -3 helmholtz~/helmholtz~ 2048 1;
#X msg 1024 182 bias \$1;
#X obj 1027 156 hsl 100 15 0 1 0 0 empty empty empty -2 -8 0 10 -262144
-260097 -1 1980 0;
#X floatatom 1082 182 5 0 0 0 - - -, f 5;
#X obj 1026 235 hsl 100 15 0 1 0 0 empty empty empty -2 -8 0 10 -262144
-260097 -1 6200 0;
#X floatatom 1101 265 5 0 0 0 - - -, f 5;
#X msg 1023 265 fidelity \$1;
#X obj 1027 321 hsl 100 15 0 2000 0 0 empty empty empty -2 -8 0 10
-262144 -260097 -1 9900 0;
#X floatatom 1099 350 5 0 0 0 - - -, f 5;
#X msg 1024 349 maxfreq \$1;
#X msg 1024 131 0.2;
#X msg 1023 211 0.95;
#X msg 1024 299 1000;
#X obj 961 35 loadbang;
#X obj 1027 77 hsl 100 15 0 100 0 0 empty empty empty -2 -8 0 10 -262144
-260097 -1 9900 0;
#X floatatom 1082 103 5 0 0 0 - - -, f 5;
#X msg 1024 103 sens \$1;
#X msg 1024 52 50;
#X obj 929 366 t a;
#X connect 2 0 0 0;
#X connect 5 0 6 0;
#X connect 5 0 14 0;
#X connect 8 0 9 0;
#X connect 9 0 13 0;
#X connect 10 0 9 0;
#X connect 11 0 9 0;
#X connect 17 0 9 0;
#X connect 18 0 9 0;
#X connect 21 0 24 0;
#X connect 23 0 22 0;
#X connect 25 0 26 0;
#X connect 27 0 24 0;
#X connect 29 0 28 0;
#X connect 30 0 22 0;
#X connect 31 0 22 0;
#X connect 33 0 22 0;
#X connect 34 0 33 0;
#X connect 35 0 33 0;
#X connect 37 0 24 0;
#X connect 38 0 24 0;
#X connect 41 0 40 0;
#X connect 42 0 40 0;
#X connect 43 0 44 0;
#X connect 44 0 46 0;
#X connect 45 0 46 0;
#X connect 48 0 3 1;
#X connect 49 0 48 0;
#X connect 52 0 54 0;
#X connect 53 0 92 0;
#X connect 54 0 21 0;
#X connect 54 1 23 0;
#X connect 54 2 37 0;
#X connect 54 3 34 0;
#X connect 56 0 57 0;
#X connect 57 0 62 0;
#X connect 57 0 59 0;
#X connect 58 0 57 0;
#X connect 59 0 12 0;
#X connect 60 0 24 0;
#X connect 62 0 9 0;
#X connect 63 0 24 0;
#X connect 64 0 24 0;
#X connect 65 0 24 0;
#X connect 66 0 24 0;
#X connect 67 0 24 0;
#X connect 69 0 70 0;
#X connect 70 0 71 0;
#X connect 71 0 74 0;
#X connect 71 1 73 0;
#X connect 72 0 69 0;
#X connect 73 0 24 0;
#X connect 74 0 24 0;
#X connect 75 0 24 0;
#X connect 76 0 75 0;
#X connect 77 0 79 0;
#X connect 78 0 77 0;
#X connect 79 0 75 0;
#X connect 80 0 24 0;
#X connect 81 0 77 0;
#X connect 81 0 88 0;
#X connect 82 0 77 0;
#X connect 82 0 89 0;
#X connect 84 0 86 0;
#X connect 85 0 83 0;
#X connect 86 0 85 0;
#X connect 86 0 87 0;
#X connect 87 0 85 0;
#X connect 88 0 86 0;
#X connect 88 0 91 0;
#X connect 89 0 86 0;
#X connect 90 0 86 0;
#X connect 92 1 47 0;
#X connect 92 1 5 0;
#X connect 92 2 50 0;
#X connect 93 0 110 0;
#X connect 94 0 93 0;
#X connect 94 0 95 0;
#X connect 96 0 98 0;
#X connect 96 0 97 0;
#X connect 98 0 110 0;
#X connect 99 0 101 0;
#X connect 99 0 100 0;
#X connect 101 0 110 0;
#X connect 102 0 94 0;
#X connect 103 0 96 0;
#X connect 104 0 99 0;
#X connect 105 0 102 0;
#X connect 105 0 103 0;
#X connect 105 0 104 0;
#X connect 105 0 109 0;
#X connect 106 0 108 0;
#X connect 106 0 107 0;
#X connect 108 0 110 0;
#X connect 109 0 106 0;
#X connect 110 0 92 0;
#X coords 0 -1 1 1 40 40 2 100 100;
