#N canvas 228 185 1041 701 10;
#X obj 102 100 cnv 15 480 30 empty empty empty 20 12 0 14 #e0e0e0 #404040
0;
#X obj 0 0 tgl 48 0 empty \$0-play empty 17 7 0 10 #dcdcdc #000000
#000000 0 1;
#X obj 578 268 route play timeSig seqStart seqEnd rnd readSeq writeSeq
rst;
#X obj 51 0 nbx 2 48 -64 64 0 0 empty \$0-timeSig empty 50 8 0 20 #dcdcdc
#000000 #000000 0 10;
#X obj 116 0 nbx 2 48 1 32 0 0 empty \$0-seqEnd empty 0 -8 0 20 #dcdcdc
#000000 #000000 0 256;
#X obj 181 0 bng 48 250 50 0 empty \$0-rnd Rnd 5 15 0 12 #dcdcdc #000000
#000000;
#X obj 189 -290 spigot;
#X obj 189 -335 r chn-\$1-0;
#X obj 284 -334 \$2;
#X obj 284 -359 loadbang;
#X obj 100 162 change;
#X obj 153 161 change;
#X obj 4 -336 r chn-\$1-\$2;
#X obj 465 2 bng 48 250 50 0 empty \$0-rst Rst 7 23 0 20 #dcdcdc #000000
#000000;
#X obj 210 165 change;
#X obj 144 -335 inlet;
#X obj 284 -307 > 0;
#X msg 79 264 play \$1;
#X obj 391 331 t a a;
#X msg 146 264 timeSig \$1;
#X msg 236 256 seqEnd \$1;
#X msg 501 242 rst;
#X msg 597 226 seqStart \$1;
#X obj 490 385 outlet;
#X obj 389 388 s chn-\$1-\$2;
#X obj 835 567 pack;
#X msg 779 601 dirty 0;
#X obj 808 518 t b f;
#X obj 808 413 loadbang;
#X obj 808 446 t b b;
#X obj 835 546 + 0;
#X msg 835 603 donecanvasdialog 1 1 1 1 0 0 0 \$1 \$2 0 -0;
#X obj 904 520 -;
#X obj 924 454 t f b b;
#X obj 904 575 -;
#X obj 606 492 namecanvas seqgui-\$1-\$2;
#X obj 779 642 s seqgui-\$1-\$2;
#X obj 756 393 bng 15 250 50 0 empty empty empty 17 7 0 10 #fcfcfc
#000000 #000000;
#X obj 924 424 expr \$3;
#X obj 1170 140 \$0;
#X obj 1201 63 bng 15 250 50 0 empty empty empty 17 7 0 10 #fcfcfc
#000000 #000000;
#X obj 1170 174 pack;
#X obj 1170 93 t b b b;
#X obj 918 140 \$0;
#X obj 918 63 bng 15 250 50 0 empty empty empty 17 7 0 10 #fcfcfc #000000
#000000;
#X obj 918 93 t b b b;
#X obj 1018 124 \$0 \$3;
#X obj 1690 153 \$0;
#X obj 1690 77 bng 15 250 50 0 empty empty empty 17 7 0 10 #fcfcfc
#000000 #000000;
#X obj 1690 187 pack;
#X obj 1690 106 t b b b;
#X msg 1690 215 \; \$1-save pos \$2 0;
#X msg 1790 168 \; \$1-save size \$2;
#X obj 1790 137 \$0 \$3;
#X obj 1715 153 expr \$3*6;
#X msg 1018 155 \; \$1-play size \$2;
#X msg 1170 202 \; \$1-timeSig pos \$2 0;
#X msg 918 202 \; \$1-play pos 0 0;
#X obj 1423 145 \$0;
#X obj 1423 179 pack;
#X obj 1423 98 t b b b;
#X msg 1423 207 \; \$1-seqEnd pos \$2 0;
#X obj 1162 396 \$0;
#X obj 1193 319 bng 15 250 50 0 empty empty empty 17 7 0 10 #fcfcfc
#000000 #000000;
#X obj 1162 430 pack;
#X obj 1162 349 t b b b;
#X obj 1187 396 expr \$3*5;
#X obj 1270 124 \$0 \$3;
#X obj 1523 129 \$0 \$3;
#X obj 1262 380 \$0 \$3;
#X obj 1927 407 \$0;
#X obj 1958 330 bng 15 250 50 0 empty empty empty 17 7 0 10 #fcfcfc
#000000 #000000;
#X obj 1927 441 pack;
#X obj 1927 360 t b b b;
#X obj 2027 391 \$0 \$3;
#X msg 1927 469 \; \$1-rst pos \$2 0;
#X msg 2027 422 \; \$1-rst size \$2;
#X obj 655 -81 bng 30 250 50 0 empty \$0-save empty 4 14 0 10 #dcdcdc
#000000 #000000;
#X obj 632 -47 hradio 30 1 0 5 empty \$0-hradio empty 0 -8 0 10 #dcdcdc
#000000 #000000 0;
#X obj 994 -374 r writeSeqP;
#X obj 994 -341 s \$0-writeSeqP;
#X obj 615 47 int;
#X obj 529 4 nbx 1 48 0 12 0 0 empty \$0-saveas empty 0 -8 0 20 #dcdcdc
#000000 #000000 0 256;
#X msg 1110 -368 \; \$1-act color \$2 \$3 \$4;
#X obj 1126 -103 \$0;
#X obj 1157 -180 bng 15 250 50 0 empty empty empty 17 7 0 10 #fcfcfc
#000000 #000000;
#X obj 1126 -69 pack;
#X msg 1126 -41 \; \$1-saveas pos \$2 0;
#X obj 1126 -150 t b b b;
#X obj 874 -103 \$0;
#X obj 874 -180 bng 15 250 50 0 empty empty empty 17 7 0 10 #fcfcfc
#000000 #000000;
#X obj 874 -150 t b b b;
#X msg 974 -88 \; \$1-hradio size \$2;
#X obj 974 -119 \$0 \$3;
#X obj 1385 -106 \$0;
#X obj 1385 -182 bng 15 250 50 0 empty empty empty 17 7 0 10 #fcfcfc
#000000 #000000;
#X obj 1385 -72 pack;
#X obj 1385 -153 t b b b;
#X msg 1385 -44 \; \$1-save pos \$2 0;
#X msg 1485 -91 \; \$1-save size \$2;
#X obj 1485 -122 \$0 \$3;
#X obj 878 -71 pack;
#X msg 874 -41 \; \$1-hradio pos \$2 0;
#X obj 1195 140 expr \$3;
#X obj 1448 145 expr \$3*3;
#X obj 1226 -119 \$0 \$3;
#X msg 1226 -88 \; \$1-saveas size 1 \$2;
#X msg 1270 155 \; \$1-timeSig size 2 \$2;
#X msg 1523 160 \; \$1-seqEnd size 2 \$2;
#X obj 1952 407 expr \$3*16;
#X obj 1410 -106 expr \$3*15;
#X obj 1151 -104 expr \$3*13;
#X obj 903 -105 expr \$3*8;
#X msg 300 236 rnd pitch;
#X obj 1518 402 \$0;
#X obj 1549 325 bng 15 250 50 0 empty empty empty 17 7 0 10 #fcfcfc
#000000 #000000;
#X obj 1518 436 pack;
#X obj 1518 355 t b b b;
#X obj 1618 386 \$0 \$3;
#X msg 314 256 rnd act;
#X obj 283 -207 route act pitch vel;
#X msg 281 209 rnd vel;
#X msg 197 224 stepJump \$1;
#X obj 255 0 tgl 48 0 empty \$0-stepJump Sj 7 15 0 14 #dcdcdc #000000
#000000 0 1;
#X obj 174 196 change;
#X msg 1262 411 \; \$1-rnd size \$2;
#X msg 1162 458 \; \$1-rnd pos \$2 0;
#X msg 1618 417 \; \$1-stepJump size \$2;
#X msg 1519 463 \; \$1-stepJump pos \$2 0;
#X obj 1543 402 expr \$3*6.5;
#X obj -50 -253 route play timeSig seqEnd offset;
#X obj 391 2 nbx 2 48 -96 96 0 0 empty \$0-offset offset -74 15 0 20
#dcdcdc #000000 #000000 0 256;
#X obj 189 -252 route play timeSig seqEnd rnd readSeq writeSeq rst
stepJump offset;
#X msg 421 205 offset \$1;
#X obj 808 480 expr \$3 * 17;
#X obj 1170 30 -loadbang;
#X obj 1126 -213 -loadbang;
#X obj 1215 268 -loadbang;
#X obj 1521 280 -loadbang;
#X obj 1925 286 -loadbang;
#X obj 609 -127 t b f;
#X obj 565 45 spigot;
#X obj 615 69 spigot;
#X msg 280 169 readSeq \$1 \$2;
#X msg 390 169 writeSeq \$1 \$2;
#X connect 1 0 10 0;
#X connect 3 0 11 0;
#X connect 4 0 14 0;
#X connect 5 0 119 0;
#X connect 5 0 113 0;
#X connect 5 0 121 0;
#X connect 6 0 132 0;
#X connect 7 0 6 0;
#X connect 8 0 16 0;
#X connect 9 0 8 0;
#X connect 10 0 17 0;
#X connect 11 0 19 0;
#X connect 12 0 130 0;
#X connect 13 0 21 0;
#X connect 14 0 20 0;
#X connect 15 0 132 0;
#X connect 16 0 6 1;
#X connect 17 0 18 0;
#X connect 18 0 24 0;
#X connect 18 1 23 0;
#X connect 19 0 18 0;
#X connect 20 0 18 0;
#X connect 21 0 18 0;
#X connect 25 0 31 0;
#X connect 26 0 36 0;
#X connect 27 0 26 0;
#X connect 27 1 30 0;
#X connect 28 0 29 0;
#X connect 29 0 134 0;
#X connect 29 1 38 0;
#X connect 30 0 25 0;
#X connect 31 0 36 0;
#X connect 32 0 34 0;
#X connect 33 0 32 0;
#X connect 34 0 25 1;
#X connect 37 0 29 0;
#X connect 38 0 33 0;
#X connect 39 0 41 0;
#X connect 40 0 42 0;
#X connect 41 0 56 0;
#X connect 42 0 39 0;
#X connect 42 1 103 0;
#X connect 42 2 67 0;
#X connect 43 0 57 0;
#X connect 44 0 45 0;
#X connect 45 0 43 0;
#X connect 45 2 46 0;
#X connect 46 0 55 0;
#X connect 47 0 49 0;
#X connect 48 0 50 0;
#X connect 49 0 51 0;
#X connect 50 0 47 0;
#X connect 50 1 54 0;
#X connect 50 2 53 0;
#X connect 53 0 52 0;
#X connect 54 0 49 1;
#X connect 58 0 59 0;
#X connect 59 0 61 0;
#X connect 60 0 58 0;
#X connect 60 1 104 0;
#X connect 60 2 68 0;
#X connect 62 0 64 0;
#X connect 63 0 65 0;
#X connect 64 0 126 0;
#X connect 65 0 62 0;
#X connect 65 1 66 0;
#X connect 65 2 69 0;
#X connect 66 0 64 1;
#X connect 67 0 107 0;
#X connect 68 0 108 0;
#X connect 69 0 125 0;
#X connect 70 0 72 0;
#X connect 71 0 73 0;
#X connect 72 0 75 0;
#X connect 73 0 70 0;
#X connect 73 1 109 0;
#X connect 73 2 74 0;
#X connect 74 0 76 0;
#X connect 77 0 81 0;
#X connect 78 0 82 0;
#X connect 78 0 141 0;
#X connect 79 0 80 0;
#X connect 81 0 142 0;
#X connect 82 0 81 1;
#X connect 84 0 86 0;
#X connect 85 0 88 0;
#X connect 86 0 87 0;
#X connect 88 0 84 0;
#X connect 88 1 111 0;
#X connect 88 2 105 0;
#X connect 89 0 101 0;
#X connect 90 0 91 0;
#X connect 91 0 89 0;
#X connect 91 1 112 0;
#X connect 91 2 93 0;
#X connect 93 0 92 0;
#X connect 94 0 96 0;
#X connect 95 0 97 0;
#X connect 96 0 98 0;
#X connect 97 0 94 0;
#X connect 97 1 110 0;
#X connect 97 2 100 0;
#X connect 100 0 99 0;
#X connect 101 0 102 0;
#X connect 103 0 41 1;
#X connect 104 0 59 1;
#X connect 105 0 106 0;
#X connect 109 0 72 1;
#X connect 110 0 96 1;
#X connect 111 0 86 1;
#X connect 112 0 101 1;
#X connect 113 0 18 0;
#X connect 114 0 116 0;
#X connect 115 0 117 0;
#X connect 116 0 128 0;
#X connect 117 0 114 0;
#X connect 117 1 129 0;
#X connect 117 2 118 0;
#X connect 118 0 127 0;
#X connect 119 0 18 0;
#X connect 120 0 5 0;
#X connect 121 0 18 0;
#X connect 122 0 18 0;
#X connect 123 0 124 0;
#X connect 124 0 122 0;
#X connect 129 0 116 1;
#X connect 130 0 1 0;
#X connect 130 1 3 0;
#X connect 130 2 4 0;
#X connect 130 3 131 0;
#X connect 131 0 133 0;
#X connect 132 0 1 0;
#X connect 132 1 3 0;
#X connect 132 2 4 0;
#X connect 132 3 120 0;
#X connect 132 4 78 0;
#X connect 132 4 143 0;
#X connect 132 5 144 0;
#X connect 132 5 140 0;
#X connect 132 6 13 0;
#X connect 132 7 123 0;
#X connect 132 8 131 0;
#X connect 133 0 18 0;
#X connect 134 0 27 0;
#X connect 135 0 45 0;
#X connect 135 0 42 0;
#X connect 135 0 60 0;
#X connect 136 0 91 0;
#X connect 137 0 65 0;
#X connect 138 0 117 0;
#X connect 139 0 73 0;
#X connect 140 0 77 0;
#X connect 140 1 82 0;
#X connect 141 0 143 0;
#X connect 142 0 144 0;
#X connect 143 0 18 0;
#X connect 144 0 18 0;
#X coords 1 0 0 1 850 50 1 0 0;
