#N canvas 2 76 1041 701 10;
#X obj 387 -160 s \$0-pitches;
#X obj 308 -180 s \$0-sizeX;
#X obj 602 -174 s \$0-sizeVel;
#X obj 19 -211 until;
#X msg 19 -166 1;
#X obj 19 -136 +;
#X obj 51 -153 int;
#X obj 91 -64 r \$0-sizeX;
#X obj 236 -31 int;
#X obj 251 -62 r \$0-pitches;
#X obj 425 -31 int;
#X msg 34 -186 -1;
#X obj 228 -189 s \$0-steps;
#X obj 19 -315 r \$0-steps;
#X obj -119 -96 r \$0-sizeX;
#X obj 19 -101 t f f f f f;
#X obj 19 -26 \$1;
#X obj 170 -32 \$1;
#X obj 356 -32 \$1;
#X obj -199 -58 \$1;
#X obj -172 -146 spigot;
#X obj -136 -206 loadbang;
#X obj 166 -483 r \$0-sizeX;
#X obj 129 -431 *;
#X obj 129 -454 t b f;
#X obj 130 -515 r \$0-pitches;
#X obj 129 -404 +;
#X obj 176 -422 r \$0-sizeVel;
#X obj 130 -491 + 1;
#X obj 131 -288 s channelsizeX;
#X obj 131 -346 t b f;
#X obj 43 -26 \$2;
#X obj 19 4 pack f f f f;
#X obj 19 -60 t b b f b;
#X obj 368 6 pack f f f f;
#X obj 368 -68 t b b f b;
#X obj 381 -32 \$2;
#X obj 179 6 pack f f f f;
#X obj 179 -58 t b b f b;
#X obj 194 -31 \$2;
#X obj 131 -315 pack \$2 f;
#X obj 19 -238 t b f b;
#X obj -170 -236 r generate;
#X msg -130 -181 1;
#X obj 326 -312 t b b b b b b;
#X msg -195 -123 8;
#X obj 372 -368 loadbang;
#X obj 332 -355 bng 15 250 50 0 empty empty empty 17 7 0 10 -262144
-1 -1;
#X msg 19 64 \; cell-\$1-\$2-\$3 sizeX \$4;
#X msg 175 62 \; cell-\$1-\$2-\$3 pitches \$4;
#X obj -191 74 s seqmodule-\$1-\$2;
#X obj 256 -228 \$3;
#X obj 331 -232 \$4;
#X obj 405 -235 \$5;
#X obj 491 -227 \$6;
#X obj -134 -65 * \$4;
#X obj 76 -33 \$4;
#X obj -191 -92 t b b f f;
#X obj -175 -60 \$2;
#X obj 364 -338 delay 100;
#X obj 609 -234 \$7;
#X obj 497 -160 s \$0-octaves;
#X obj 623 -32 int;
#X obj 638 -63 r \$0-sizeVel;
#X obj 554 -33 \$1;
#X obj 566 5 pack f f f f;
#X obj 566 -69 t b b f b;
#X obj 579 -33 \$2;
#X msg 564 60 \; cell-\$1-\$2-\$3 sizeVel \$4;
#X msg 366 61 \; cell-\$1-\$2-\$3 octaves \$4;
#X obj 440 -62 r \$0-octaves;
#X obj 19 -275 + 1;
#X obj -191 -28 pack f f f f \$3 \$5;
#X msg -191 30 obj \$4 0 seq/seqcell \$1 \$2 \$3 \$5 \$6;
#X connect 3 0 4 0;
#X connect 4 0 5 0;
#X connect 5 0 6 0;
#X connect 5 0 15 0;
#X connect 6 0 5 1;
#X connect 7 0 56 1;
#X connect 8 0 37 3;
#X connect 9 0 8 1;
#X connect 10 0 34 3;
#X connect 11 0 5 1;
#X connect 13 0 71 0;
#X connect 15 0 33 0;
#X connect 15 1 38 0;
#X connect 15 2 35 0;
#X connect 15 3 66 0;
#X connect 15 4 20 0;
#X connect 16 0 32 0;
#X connect 17 0 37 0;
#X connect 18 0 34 0;
#X connect 19 0 72 0;
#X connect 20 0 57 0;
#X connect 21 0 43 0;
#X connect 22 0 24 0;
#X connect 23 0 26 0;
#X connect 24 0 23 0;
#X connect 24 1 23 1;
#X connect 25 0 28 0;
#X connect 26 0 30 0;
#X connect 27 0 26 1;
#X connect 28 0 23 0;
#X connect 30 0 40 0;
#X connect 30 1 40 1;
#X connect 31 0 32 1;
#X connect 32 0 48 0;
#X connect 33 0 16 0;
#X connect 33 1 31 0;
#X connect 33 2 32 2;
#X connect 33 3 56 0;
#X connect 34 0 69 0;
#X connect 35 0 18 0;
#X connect 35 1 36 0;
#X connect 35 2 34 2;
#X connect 35 3 10 0;
#X connect 36 0 34 1;
#X connect 37 0 49 0;
#X connect 38 0 17 0;
#X connect 38 1 39 0;
#X connect 38 2 37 2;
#X connect 38 3 8 0;
#X connect 39 0 37 1;
#X connect 41 1 3 0;
#X connect 41 2 11 0;
#X connect 42 0 20 1;
#X connect 43 0 20 1;
#X connect 44 0 51 0;
#X connect 44 2 52 0;
#X connect 44 3 53 0;
#X connect 44 4 54 0;
#X connect 44 5 60 0;
#X connect 45 0 57 0;
#X connect 46 0 59 0;
#X connect 47 0 44 0;
#X connect 51 0 12 0;
#X connect 52 0 1 0;
#X connect 53 0 0 0;
#X connect 54 0 61 0;
#X connect 55 0 72 3;
#X connect 56 0 32 3;
#X connect 57 0 19 0;
#X connect 57 1 58 0;
#X connect 57 2 72 2;
#X connect 57 3 55 0;
#X connect 58 0 72 1;
#X connect 59 0 44 0;
#X connect 60 0 2 0;
#X connect 62 0 65 3;
#X connect 63 0 62 1;
#X connect 64 0 65 0;
#X connect 65 0 68 0;
#X connect 66 0 64 0;
#X connect 66 1 67 0;
#X connect 66 2 65 2;
#X connect 66 3 62 0;
#X connect 67 0 65 1;
#X connect 70 0 10 1;
#X connect 71 0 41 0;
#X connect 72 0 73 0;
#X connect 73 0 50 0;
