#N canvas 0 54 873 622 12;
#X obj 220 334 seq/clock;
#X obj 201 67 loadbang;
#X msg 201 117 \; pd dsp 0;
#X obj 263 246 loadbang;
#X obj 285 301 t b b;
#N canvas 0 28 1280 632 net 0;
#X obj 117 45 netreceive -u 8000;
#X obj 117 83 route pyth gharp;
#X obj 171 119 s frmGHarp;
#X obj 117 145 s frmPyth;
#X obj 137 230 netsend -u;
#X obj 137 193 r 2netsendM;
#X msg 207 -138 connect 192.168.1.255 8000;
#X msg 218 -109 connect 192.168.178.255 8000;
#X obj 207 -37 s 2netsendM;
#X obj 378 -240 loadbang;
#X msg 262 -224 disconnect;
#X obj 454 -210 loadbang;
#X msg 545 -219 disconnect;
#X obj 470 -76 s 2netsendC;
#X msg 471 -143 connect 192.168.178.255 8099;
#X msg 228 -80 connect 192.168.0.255 8000;
#X msg 493 -108 connect 192.168.0.255 8099;
#X msg 470 -174 connect 192.168.1.255 8099;
#X msg 210 -182 connect 192.168.10.255 8000;
#X msg 556 -78 connect localhost 8099;
#X obj 130 453 unpack f f f;
#X obj 130 360 r frmGHarp;
#X obj 130 391 route triad;
#X obj 130 487 noteout 15;
#X obj 255 579 list prepend send;
#X obj 255 621 list trim;
#X obj 255 501 list prepend note;
#X obj 255 436 pack f f f;
#X obj 255 356 notein;
#X obj 255 469 spigot;
#X obj 255 664 s 2netsendM;
#X obj 255 539 list prepend EC;
#N canvas 415 219 450 300 noteoff 0;
#X obj 78 21 unpack f f f;
#X obj 78 83 spigot;
#X obj 131 51 == 1;
#X obj 78 109 t f b;
#X obj 110 164 t b b;
#X obj 80 268 pack f f f;
#X obj 110 193 int;
#X msg 142 193 0;
#X msg 159 95 47;
#X obj 125 225 int;
#X obj 78 136 t f b f;
#X obj 214 21 unpack f f f;
#X obj 214 83 spigot;
#X obj 214 109 t f b;
#X obj 246 164 t b b;
#X obj 216 268 pack f f f;
#X obj 246 193 int;
#X msg 278 193 0;
#X msg 295 95 47;
#X obj 261 225 int;
#X obj 214 136 t f b f;
#X obj 349 23 unpack f f f;
#X obj 349 85 spigot;
#X obj 349 111 t f b;
#X obj 381 166 t b b;
#X obj 350 277 pack f f f;
#X obj 381 195 int;
#X msg 413 195 0;
#X msg 430 97 47;
#X obj 396 227 int;
#X obj 349 138 t f b f;
#X obj 267 51 == 2;
#X obj 402 53 == 3;
#X obj 269 -35 inlet;
#X obj 222 326 outlet;
#X connect 0 0 1 0;
#X connect 0 1 9 1;
#X connect 0 2 2 0;
#X connect 0 2 8 0;
#X connect 1 0 3 0;
#X connect 2 0 1 1;
#X connect 3 0 10 0;
#X connect 3 1 4 0;
#X connect 4 0 6 0;
#X connect 4 1 7 0;
#X connect 5 0 34 0;
#X connect 6 0 5 0;
#X connect 7 0 5 1;
#X connect 8 0 5 2;
#X connect 9 0 5 1;
#X connect 10 0 5 0;
#X connect 10 1 9 0;
#X connect 10 2 6 1;
#X connect 11 0 12 0;
#X connect 11 1 19 1;
#X connect 11 2 18 0;
#X connect 11 2 31 0;
#X connect 12 0 13 0;
#X connect 13 0 20 0;
#X connect 13 1 14 0;
#X connect 14 0 16 0;
#X connect 14 1 17 0;
#X connect 15 0 34 0;
#X connect 16 0 15 0;
#X connect 17 0 15 1;
#X connect 18 0 15 2;
#X connect 19 0 15 1;
#X connect 20 0 15 0;
#X connect 20 1 19 0;
#X connect 20 2 16 1;
#X connect 21 0 22 0;
#X connect 21 1 29 1;
#X connect 21 2 28 0;
#X connect 21 2 32 0;
#X connect 22 0 23 0;
#X connect 23 0 30 0;
#X connect 23 1 24 0;
#X connect 24 0 26 0;
#X connect 24 1 27 0;
#X connect 25 0 34 0;
#X connect 26 0 25 0;
#X connect 27 0 25 1;
#X connect 28 0 25 2;
#X connect 29 0 25 1;
#X connect 30 0 25 0;
#X connect 30 1 29 0;
#X connect 30 2 26 1;
#X connect 31 0 12 1;
#X connect 32 0 22 1;
#X connect 33 0 0 0;
#X connect 33 0 11 0;
#X connect 33 0 21 0;
#X restore 130 423 pd noteoff;
#X text 128 332 gharp t0 EC;
#X text 253 330 EC to gharp;
#X obj 155 873 unpack f f f;
#X obj 155 828 route out/note;
#X obj 155 953 pack f f f;
#X obj 236 906 + 32;
#X obj 155 1001 noteout;
#X obj 155 783 r frmPyth;
#X obj 348 1011 list prepend send;
#X obj 348 1041 list trim;
#X obj 348 846 list prepend note;
#X obj 348 818 pack f f f;
#X obj 358 898 pack f f f;
#X obj 358 925 spigot;
#X obj 358 872 ctlin;
#X obj 358 953 list prepend cc;
#X obj 348 980 list prepend seq/pyth;
#X obj 348 1069 s 2netsendM;
#X obj 510 707 list prepend send;
#X obj 510 736 list trim;
#X obj 510 648 list prepend note;
#X obj 510 677 list prepend seq/gHarp;
#X obj 697 560 spigot;
#X obj 697 476 ctlin;
#X obj 697 595 list prepend cc;
#X obj 510 764 s 2netsendM;
#X obj 582 601 r 2Gharp;
#X obj 582 626 pack f f 1;
#X obj 510 600 spigot;
#X obj 919 158 netsend -u;
#X obj 919 70 list prepend send;
#X obj 919 103 list trim;
#X obj 1000 124 r 2netsendC;
#X obj 919 39 r clock;
#X text 920 8 send clock to net;
#X text 157 748 Pyth to EC;
#X obj 410 925 expr $f1 == 8;
#X text 347 718 EC to Pyth;
#X obj 91 1167 bng 20 250 50 0 empty empty empty 0 -10 0 12 #fcfcfc #000000 #000000;
#X text 505 287 sequencer to gharp;
#X obj 697 655 list prepend send;
#X obj 697 684 list trim;
#X obj 697 625 list prepend seq/gHarp;
#X obj 697 737 s 2netsendM;
#X obj 510 383 t f f;
#X obj 542 408 < 12;
#X obj 542 433 sel 0 1;
#X obj 510 563 pack f f f;
#X text 582 582 is this used?;
#X msg 565 530 2;
#X msg 542 505 1;
#X obj 510 502 +;
#X msg 542 458 0;
#X msg 565 482 44;
#X text 583 405 make it work on one channel only. firmware update needed;
#X obj 577 861 notein;
#X obj 577 909 noteout;
#X obj 586 375 == 7;
#X obj 307 469 expr $f1 == 7;
#X text 574 824 sequencer to EC;
#X obj 749 560 expr $f1 == 7;
#X obj 697 527 pack f f 2;
#X obj 836 -215 notein;
#X obj 836 -132 print notein;
#X obj 836 -174 pack f f f;
#X obj 261 65 print prt8000;
#X obj 422 216 oscparse;
#X listbox 422 245 34 0 0 0 - - - 0;
#X obj 422 157 netreceive -u -b;
#X msg 434 130 listen 0;
#X text 501 129 stop listening;
#X text 419 78 packets from network;
#X text 507 102 listen on port 5000;
#X text 544 151 UDP packets \, binary output, f 13;
#X obj 438 187 print OSC-packet;
#X msg 422 102 listen 8001;
#X obj 423 44 loadbang;
#X text 427 12 timeline;
#X obj 732 30 netreceive -u -b 8002;
#X obj 605 8 print prt8002;
#X obj 504 217 print prt8001;
#X obj 733 88 unpack f f f;
#X floatatom 731 117 5 0 0 0 - - - 0;
#X floatatom 775 156 5 0 0 0 - - - 0;
#X floatatom 804 124 5 0 0 0 - - - 0;
#X obj 510 344 unpack f f f;
#X obj 836 -93 s notein;
#X obj 510 313 r notein;
#X obj 747 58 s notein;
#X obj 348 784 unpack f f f;
#X obj 348 753 r notein;
#X msg 937 -218 connect 192.168.4.255 5005;
#X obj 963 -57 netsend -u;
#X obj 964 -116 list prepend send;
#X obj 964 -87 list trim;
#X msg 935 -187 angle:180;
#X msg 1027 -194 80;
#X obj 966 -143 list prepend A:;
#X obj 1101 -137 list prepend K:;
#X msg 1112 -174 10;
#X obj 737 -213 ctlin;
#X obj 737 -171 pack f f f;
#X obj 737 -137 print cc;
#X obj 44 405 print gharp;
#X connect 0 0 1 0;
#X connect 0 0 98 0;
#X connect 1 0 3 0;
#X connect 1 1 2 0;
#X connect 5 0 4 0;
#X connect 6 0 8 0;
#X connect 7 0 8 0;
#X connect 9 0 7 0;
#X connect 10 0 8 0;
#X connect 11 0 14 0;
#X connect 12 0 13 0;
#X connect 14 0 13 0;
#X connect 15 0 8 0;
#X connect 16 0 13 0;
#X connect 17 0 13 0;
#X connect 18 0 8 0;
#X connect 19 0 13 0;
#X connect 20 0 23 0;
#X connect 20 1 23 1;
#X connect 21 0 22 0;
#X connect 21 0 136 0;
#X connect 22 0 32 0;
#X connect 24 0 25 0;
#X connect 26 0 31 0;
#X connect 27 0 29 0;
#X connect 28 0 27 0;
#X connect 28 1 27 1;
#X connect 28 2 27 2;
#X connect 28 2 91 0;
#X connect 29 0 26 0;
#X connect 31 0 24 0;
#X connect 32 0 20 0;
#X connect 35 0 37 0;
#X connect 35 1 37 1;
#X connect 35 2 38 0;
#X connect 36 0 35 0;
#X connect 38 0 37 2;
#X connect 40 0 36 0;
#X connect 41 0 42 0;
#X connect 42 0 50 0;
#X connect 43 0 49 0;
#X connect 44 0 43 0;
#X connect 45 0 46 0;
#X connect 46 0 48 0;
#X connect 47 0 45 0;
#X connect 47 1 45 1;
#X connect 47 2 45 2;
#X connect 47 2 69 0;
#X connect 48 0 49 0;
#X connect 49 0 41 0;
#X connect 51 0 52 0;
#X connect 52 0 58 0;
#X connect 53 0 54 0;
#X connect 54 0 51 0;
#X connect 55 0 57 0;
#X connect 56 0 94 0;
#X connect 56 1 94 1;
#X connect 56 2 93 0;
#X connect 57 0 75 0;
#X connect 59 0 60 0;
#X connect 61 0 53 0;
#X connect 63 0 64 0;
#X connect 64 0 62 0;
#X connect 65 0 62 0;
#X connect 66 0 63 0;
#X connect 69 0 46 1;
#X connect 73 0 74 0;
#X connect 74 0 76 0;
#X connect 75 0 73 0;
#X connect 77 0 84 0;
#X connect 77 1 78 0;
#X connect 78 0 79 0;
#X connect 79 0 83 0;
#X connect 79 0 85 0;
#X connect 79 1 82 0;
#X connect 79 1 86 0;
#X connect 80 0 61 0;
#X connect 82 0 80 2;
#X connect 83 0 80 2;
#X connect 84 0 80 0;
#X connect 85 0 84 1;
#X connect 86 0 84 1;
#X connect 90 0 61 1;
#X connect 91 0 29 1;
#X connect 93 0 55 1;
#X connect 94 0 55 0;
#X connect 95 1 97 1;
#X connect 95 2 97 2;
#X connect 97 0 96 0;
#X connect 97 0 119 0;
#X connect 99 0 100 0;
#X connect 101 0 99 0;
#X connect 101 0 107 0;
#X connect 101 0 113 0;
#X connect 102 0 101 0;
#X connect 108 0 101 0;
#X connect 109 0 108 0;
#X connect 111 0 112 0;
#X connect 111 0 114 0;
#X connect 111 0 121 0;
#X connect 114 0 115 0;
#X connect 114 1 116 0;
#X connect 114 2 117 0;
#X connect 118 0 77 0;
#X connect 118 1 80 1;
#X connect 118 2 90 0;
#X connect 120 0 118 0;
#X connect 122 0 44 0;
#X connect 122 1 44 1;
#X connect 122 2 44 2;
#X connect 123 0 122 0;
#X connect 124 0 125 0;
#X connect 126 0 127 0;
#X connect 127 0 125 0;
#X connect 128 0 126 0;
#X connect 129 0 130 0;
#X connect 130 0 126 0;
#X connect 131 0 126 0;
#X connect 132 0 131 0;
#X connect 133 0 134 0;
#X connect 133 1 134 1;
#X connect 133 2 134 2;
#X connect 134 0 135 0;
#X restore 222 416 pd net;
#X obj 376 436 tgl 50 0 midiClkIn empty extClk 7 20 0 10 #fcfcfc #000000 #000000 0 1;
#X obj 255 273 delay 10000;
#X obj 376 393 loadbang;
#N canvas 179 77 988 461 m8CCAct 0;
#X obj 569 60 ctlin;
#X obj 569 108 pack;
#X obj 569 143 spigot;
#X obj 640 231 unpack;
#X obj 640 280 spigot;
#X obj 679 255 == 101;
#X obj 569 181 t a a a;
#X obj 270 88 notein;
#X obj 270 121 pack;
#X obj 270 156 spigot;
#X obj 270 194 t a a a;
#X obj 316 238 unpack;
#X obj 601 459 int;
#X obj 341 321 int;
#X obj 601 550 +;
#X obj 316 454 pack;
#X obj 601 651 pack;
#X obj 316 636 t a;
#X obj 542 233 unpack;
#X obj 542 282 spigot;
#X obj 696 459 int;
#X obj 696 549 +;
#X obj 696 651 pack;
#X obj 581 257 == 102;
#X obj 814 448 int;
#X obj 814 546 +;
#X obj 814 640 pack;
#X obj 341 378 t f b f b f b f;
#X obj 452 234 unpack;
#X obj 452 283 spigot;
#X obj 491 258 == 103;
#X obj 327 119 == 18;
#X obj 626 106 == 18;
#X obj 315 675 noteout 2;
#X obj 601 608 spigot;
#X obj 645 578 !=;
#X obj 316 282 t f b f f;
#X obj 601 578 t f f;
#X obj 696 606 spigot;
#X obj 740 576 !=;
#X obj 696 576 t f f;
#X obj 814 603 spigot;
#X obj 858 573 !=;
#X obj 814 573 t f f;
#X connect 0 0 1 0;
#X connect 0 1 1 1;
#X connect 0 2 32 0;
#X connect 1 0 2 0;
#X connect 2 0 6 0;
#X connect 3 0 4 0;
#X connect 3 1 5 0;
#X connect 4 0 12 1;
#X connect 5 0 4 1;
#X connect 6 0 28 0;
#X connect 6 1 18 0;
#X connect 6 2 3 0;
#X connect 7 0 8 0;
#X connect 7 1 8 1;
#X connect 7 2 31 0;
#X connect 8 0 9 0;
#X connect 9 0 10 0;
#X connect 10 2 11 0;
#X connect 11 0 36 0;
#X connect 11 1 13 1;
#X connect 12 0 14 0;
#X connect 13 0 27 0;
#X connect 14 0 37 0;
#X connect 16 0 17 0;
#X connect 17 0 33 0;
#X connect 18 0 19 0;
#X connect 18 1 23 0;
#X connect 19 0 20 1;
#X connect 20 0 21 0;
#X connect 21 0 40 0;
#X connect 22 0 17 0;
#X connect 23 0 19 1;
#X connect 24 0 25 0;
#X connect 25 0 43 0;
#X connect 26 0 17 0;
#X connect 27 0 15 1;
#X connect 27 1 12 0;
#X connect 27 2 16 1;
#X connect 27 3 20 0;
#X connect 27 4 22 1;
#X connect 27 5 24 0;
#X connect 27 6 26 1;
#X connect 28 0 29 0;
#X connect 28 1 30 0;
#X connect 29 0 24 1;
#X connect 30 0 29 1;
#X connect 31 0 9 1;
#X connect 32 0 2 1;
#X connect 34 0 16 0;
#X connect 35 0 34 1;
#X connect 36 0 15 0;
#X connect 36 1 13 0;
#X connect 36 2 14 1;
#X connect 36 2 21 1;
#X connect 36 2 25 1;
#X connect 36 3 35 1;
#X connect 36 3 39 1;
#X connect 36 3 42 1;
#X connect 37 0 34 0;
#X connect 37 1 35 0;
#X connect 38 0 22 0;
#X connect 39 0 38 1;
#X connect 40 0 38 0;
#X connect 40 1 39 0;
#X connect 41 0 26 0;
#X connect 42 0 41 1;
#X connect 43 0 41 0;
#X connect 43 1 42 0;
#X restore 222 465 pd m8CCAct;
#N canvas -739 87 1920 969 m8 0;
#X obj 437 -49 ctlin;
#X obj 437 -1 pack;
#X obj 437 34 spigot;
#X obj 508 122 unpack;
#X obj 508 171 spigot;
#X obj 547 146 == 101;
#X obj 437 72 t a a a;
#X obj 138 -21 notein;
#X obj 138 12 pack;
#X obj 138 47 spigot;
#X obj 138 85 t a a a;
#X obj 184 129 unpack;
#X obj 236 333 int;
#X obj 209 212 int;
#X obj 184 173 t f b f;
#X obj 236 366 +;
#X obj 184 345 pack;
#X obj 236 400 pack;
#X obj 184 402 t a;
#X obj 410 124 unpack;
#X obj 410 173 spigot;
#X obj 308 324 int;
#X obj 308 357 +;
#X obj 308 391 pack;
#X obj 449 148 == 102;
#X obj 426 313 int;
#X obj 426 346 +;
#X obj 426 380 pack;
#X obj 209 238 t f b f b f b f;
#X obj 320 125 unpack;
#X obj 320 174 spigot;
#X obj 359 149 == 103;
#X obj 183 441 noteout 15;
#X obj 195 10 == 17;
#X obj 494 -3 == 17;
#X obj 188 515 s 2Gharp;
#X connect 0 1 1 1;
#X connect 0 2 34 0;
#X connect 1 0 2 0;
#X connect 2 0 6 0;
#X connect 3 0 4 0;
#X connect 3 1 5 0;
#X connect 4 0 12 1;
#X connect 5 0 4 1;
#X connect 6 0 29 0;
#X connect 6 1 19 0;
#X connect 6 2 3 0;
#X connect 7 1 8 1;
#X connect 7 2 33 0;
#X connect 8 0 9 0;
#X connect 9 0 10 0;
#X connect 10 2 11 0;
#X connect 11 0 14 0;
#X connect 11 1 13 1;
#X connect 12 0 15 0;
#X connect 13 0 28 0;
#X connect 14 0 16 0;
#X connect 14 1 13 0;
#X connect 14 2 15 1;
#X connect 14 2 22 1;
#X connect 14 2 26 1;
#X connect 15 0 17 0;
#X connect 16 0 18 0;
#X connect 17 0 18 0;
#X connect 18 0 32 0;
#X connect 18 0 35 0;
#X connect 19 0 20 0;
#X connect 19 1 24 0;
#X connect 20 0 21 1;
#X connect 21 0 22 0;
#X connect 22 0 23 0;
#X connect 23 0 18 0;
#X connect 24 0 20 1;
#X connect 25 0 26 0;
#X connect 26 0 27 0;
#X connect 28 0 16 1;
#X connect 28 1 12 0;
#X connect 28 2 17 1;
#X connect 28 3 21 0;
#X connect 28 4 23 1;
#X connect 28 5 25 0;
#X connect 28 6 27 1;
#X connect 29 0 30 0;
#X connect 29 1 31 0;
#X connect 30 0 25 1;
#X connect 31 0 30 1;
#X connect 33 0 9 1;
#X connect 34 0 2 1;
#X restore 222 442 pd m8 CC to Chords;
#N canvas -267 172 1453 546 midiclock 0;
#X msg 69 308 248;
#X msg 101 316 250;
#X obj 181 258 int;
#X obj 217 275 + 1;
#X obj 179 186 t b b;
#X msg 181 209 1;
#X msg 254 205 0;
#X obj 181 302 sel 1;
#X msg 181 346 252;
#X obj 181 235 metro 250;
#X obj 69 64 r clock;
#X obj 69 166 t f f b;
#X obj 69 210 sel 0;
#X obj 69 266 t b b;
#X obj 69 454 midiout;
#X obj 69 392 t f;
#X obj 129 454 midiout 2;
#X obj 210 454 midiout 3;
#X obj 286 452 midiout 4;
#X obj 422 119 r clock;
#X obj 422 168 change;
#X obj 454 304 sig~;
#X obj 453 338 dac~ 8;
#X msg 454 237 1;
#X obj 422 199 t b b;
#X msg 381 264 0;
#X obj 381 237 delay 5;
#X obj 586 305 sig~;
#X msg 586 238 1;
#X obj 554 200 t b b;
#X msg 513 265 0;
#X obj 513 238 delay 5;
#X obj 585 339 dac~ 7;
#X obj 554 169 sel 1;
#X obj 554 140 == 0;
#X obj 737 28 midirealtimein;
#X msg 770 138 1, f 4;
#X msg 836 139 0;
#X obj 699 284 s clock;
#X obj 699 257 t f f;
#X obj 764 284 s preClock;
#X obj 675 145 spigot;
#X obj 701 210 int;
#X obj 736 193 + 1;
#X msg 729 166 0;
#X obj 728 233 - 0;
#X obj 737 67 spigot;
#X obj 844 47 r midiClkIn;
#X floatatom 643 114 5 0 0 0 - - - 0;
#X floatatom 655 212 5 0 0 0 - - - 0;
#X obj 784 178 bng 15 250 50 0 empty empty empty 17 7 0 10 #fcfcfc #000000 #000000;
#X obj 817 181 bng 15 250 50 0 empty empty empty 17 7 0 10 #fcfcfc #000000 #000000;
#X obj 735 98 route 248 250 251 252;
#X floatatom 843 72 5 0 0 0 - - - 0;
#X obj 949 38 midirealtimein;
#X msg 993 104 0;
#X msg 949 104 1;
#X obj 993 135 t f;
#X obj 949 69 route 250 251 252;
#X obj 993 165 s run;
#X obj 1065 161 bng 15 250 50 0 empty empty empty 17 7 0 10 #fcfcfc #000000 #000000;
#X connect 0 0 15 0;
#X connect 1 0 15 0;
#X connect 2 0 3 0;
#X connect 2 0 7 0;
#X connect 3 0 2 1;
#X connect 4 0 5 0;
#X connect 4 1 6 0;
#X connect 5 0 9 0;
#X connect 6 0 2 1;
#X connect 7 0 8 0;
#X connect 8 0 15 0;
#X connect 9 0 2 0;
#X connect 10 0 11 0;
#X connect 11 0 12 0;
#X connect 11 2 4 0;
#X connect 12 0 13 0;
#X connect 12 1 0 0;
#X connect 13 0 0 0;
#X connect 13 1 1 0;
#X connect 19 0 20 0;
#X connect 20 0 24 0;
#X connect 20 0 34 0;
#X connect 21 0 22 0;
#X connect 23 0 21 0;
#X connect 24 0 26 0;
#X connect 24 1 23 0;
#X connect 25 0 21 0;
#X connect 26 0 25 0;
#X connect 27 0 32 0;
#X connect 28 0 27 0;
#X connect 29 0 31 0;
#X connect 29 1 28 0;
#X connect 30 0 27 0;
#X connect 31 0 30 0;
#X connect 33 0 29 0;
#X connect 34 0 33 0;
#X connect 35 0 46 0;
#X connect 36 0 41 1;
#X connect 37 0 41 1;
#X connect 39 0 38 0;
#X connect 39 1 40 0;
#X connect 41 0 42 0;
#X connect 41 0 49 0;
#X connect 42 0 43 0;
#X connect 42 0 45 0;
#X connect 43 0 42 1;
#X connect 44 0 42 1;
#X connect 45 0 39 0;
#X connect 46 0 48 0;
#X connect 46 0 52 0;
#X connect 47 0 46 1;
#X connect 47 0 53 0;
#X connect 52 0 41 0;
#X connect 52 1 50 0;
#X connect 52 1 36 0;
#X connect 52 2 51 0;
#X connect 52 2 36 0;
#X connect 52 3 37 0;
#X connect 52 3 44 0;
#X connect 54 0 58 0;
#X connect 55 0 57 0;
#X connect 56 0 57 0;
#X connect 57 0 59 0;
#X connect 58 0 56 0;
#X connect 58 1 56 0;
#X connect 58 1 60 0;
#X connect 58 2 55 0;
#X restore 222 389 pd midiclock;
#X connect 1 0 2 0;
#X connect 4 0 0 1;
#X connect 4 1 0 0;
#X connect 7 0 4 0;
#X connect 8 0 6 0;
